<svg width="82" height="28" viewBox="0 0 82 28" fill="none" xmlns="http://www.w3.org/2000/svg">
<g clip-path="url(#clip0_505_335)">
<path d="M0 0H82V28H0V0Z" fill="#D2161E"/>
<path fill-rule="evenodd" clip-rule="evenodd" d="M36.4386 7.7094L40.5678 5.86965L39.5924 10.4661H42.063L41.4176 13.5674H38.9471C38.7805 14.3683 38.6411 15.0369 38.5244 15.5963C37.9784 18.2147 37.9308 18.4428 37.9308 18.669C37.9308 19.1742 38.1615 19.3816 38.5762 19.3816C39.1077 19.3816 39.6625 19.107 39.9166 18.8764L40.3313 21.5863C39.5224 22.2288 38.3689 22.6201 37.3059 22.6201C35.3435 22.6201 34.0499 21.3118 34.0499 19.4954C34.0499 18.9191 34.1554 18.4294 35.0908 14.0896C35.127 13.9214 35.1646 13.7474 35.2033 13.5674H33.6118L34.2835 10.4661H35.8546L36.4386 7.7094ZM59.5318 6.55883H55.8231L52.5349 22.3456H56.2436L59.5318 6.55883ZM64.0055 10.4661H60.2793L57.7855 22.3456H61.5117L64.0055 10.4661ZM63.0857 5.18048C61.9322 5.18048 60.8225 6.16752 60.8225 7.40862C60.8225 8.44238 61.608 9.27172 62.7382 9.2688C63.8683 9.2688 64.9313 8.23504 64.9313 7.06403C64.9313 6.03027 64.1486 5.18048 63.0857 5.18048ZM15.7079 6.55883H9.25713L5.95728 22.3427H12.9804C16.2365 22.3427 19.145 20.4825 19.145 17.4951C19.145 16.0466 18.2923 14.7822 16.9987 14.1631C18.8004 13.36 20.0007 11.7977 20.0007 10.0047C20.0007 8.00726 18.269 6.55883 15.7079 6.55883ZM15.2962 16.8994C15.2962 18.1171 14.1865 19.0136 12.7322 19.0136H10.5742L11.2429 15.8422H13.6346C14.7413 15.8422 15.2962 16.2102 15.2962 16.8994ZM15.8481 10.8311C15.8481 11.9583 14.8085 12.8081 13.4477 12.8081V12.8052H11.8883L12.4898 9.88789H14.3004C15.3166 9.88789 15.8247 10.212 15.8481 10.8311ZM49.0452 10.1887C45.1438 10.1887 41.2891 13.4038 41.2891 17.3111C41.2891 20.2547 43.6691 22.6201 46.8521 22.6201C48.8613 22.6201 50.6163 21.9075 52.094 20.5526L49.8074 18.2076C49.1387 18.8501 48.0757 19.3786 47.1296 19.3786C45.906 19.3786 44.9832 18.4354 44.9832 17.2177C44.9832 15.3575 46.8288 13.4272 48.8145 13.4272C49.5066 13.4272 50.3593 13.7484 50.7302 14.3237L53.592 12.4168C52.6692 11.1523 51.1449 10.1887 49.0452 10.1887ZM71.493 10.1887C67.5916 10.1887 63.7369 13.4038 63.7369 17.3111C63.7369 20.2547 66.1169 22.6201 69.2999 22.6201C71.3091 22.6201 73.0641 21.9075 74.5418 20.5526L72.2552 18.2076C71.5865 18.8501 70.5235 19.3786 69.5774 19.3786C68.3538 19.3786 67.431 18.4354 67.431 17.2177C67.431 15.3575 69.2766 13.4272 71.2623 13.4272C71.9544 13.4272 72.8071 13.7484 73.178 14.3237L76.0398 12.4168C75.117 11.1523 73.5927 10.1887 71.493 10.1887ZM24.1941 18.8764C24.5766 19.1917 25.0789 19.3816 25.6455 19.3816C26.6091 19.3816 27.5611 18.9085 28.2795 18.2164L30.6215 20.6168C29.1877 21.855 27.3041 22.6259 25.4148 22.6259C23.4436 22.6259 21.7908 21.744 20.8008 20.389C20.3423 19.7612 20.0269 19.0311 19.8868 18.2397C19.8342 17.939 19.805 17.6323 19.805 17.3169C19.805 13.3892 23.6597 10.1945 27.5378 10.1945C29.6403 10.1945 31.3779 11.1932 32.3386 12.6942C32.7591 13.3484 33.0307 14.0989 33.1183 14.9048L29.3454 16.584L24.1941 18.8764ZM29.0125 14.1719C28.6212 13.7163 28.0284 13.4301 27.3304 13.4301C25.5345 13.4301 23.8291 14.9574 23.4903 16.6307L29.0125 14.1719Z" fill="white"/>
</g>
<defs>
<clipPath id="clip0_505_335">
<rect width="82" height="28" fill="white"/>
</clipPath>
</defs>
</svg>
