<svg width="71" height="18" viewBox="0 0 71 18" fill="none" xmlns="http://www.w3.org/2000/svg">
<g clip-path="url(#clip0_534_443)">
<path fill-rule="evenodd" clip-rule="evenodd" d="M30.8804 2.56202L35.0636 0.698196L34.0755 5.35481H36.5784L35.9245 8.49669H33.4217C33.2529 9.30812 33.1117 9.98541 32.9935 10.5522C32.4403 13.2048 32.3921 13.436 32.3921 13.6651C32.3921 14.1769 32.6259 14.387 33.046 14.387C33.5844 14.387 34.1465 14.1089 34.4039 13.8752L34.824 16.6206C34.0045 17.2715 32.8359 17.6679 31.759 17.6679C29.7709 17.6679 28.4603 16.3425 28.4603 14.5024C28.4603 13.9185 28.5673 13.4224 29.5149 9.02573C29.5516 8.85532 29.5896 8.67905 29.6289 8.49669H28.0166L28.697 5.35481H30.2887L30.8804 2.56202ZM54.2758 1.39639H50.5186L47.1874 17.3898H50.9446L54.2758 1.39639ZM58.8082 5.35481H55.0332L52.5067 17.3898H56.2817L58.8082 5.35481ZM57.8763 0C56.7077 0 55.5835 0.999959 55.5835 2.2573C55.5835 3.3046 56.3793 4.1448 57.5242 4.14184C58.6692 4.14184 59.746 3.09455 59.746 1.90821C59.746 0.860911 58.9532 0 57.8763 0ZM9.87829 1.39639H3.34306L0 17.3869H7.11509C10.4138 17.3869 13.3604 15.5023 13.3604 12.4758C13.3604 11.0084 12.4965 9.72741 11.1859 9.10022C13.0113 8.28664 14.2272 6.70387 14.2272 4.88737C14.2272 2.86379 12.4729 1.39639 9.87829 1.39639ZM9.46115 11.8723C9.46115 13.106 8.33693 14.0142 6.86362 14.0142H4.67732L5.35481 10.8013H7.77779C8.89904 10.8013 9.46115 11.1741 9.46115 11.8723ZM10.0203 5.72462C10.0203 6.86658 8.96709 7.72749 7.58844 7.72749V7.72454H6.00863L6.61807 4.76904H8.45231C9.48186 4.76904 9.99663 5.09742 10.0203 5.72462ZM43.652 5.07376C39.6995 5.07376 35.7944 8.33102 35.7944 12.2894C35.7944 15.2716 38.2055 17.6679 41.4302 17.6679C43.4657 17.6679 45.2437 16.946 46.7407 15.5733L44.4242 13.1977C43.7467 13.8485 42.6698 14.384 41.7113 14.384C40.4717 14.384 39.5368 13.4284 39.5368 12.1948C39.5368 10.3102 41.4066 8.35469 43.4183 8.35469C44.1195 8.35469 44.9834 8.68012 45.3591 9.26293L48.2584 7.33106C47.3235 6.05005 45.7792 5.07376 43.652 5.07376ZM66.3937 5.07376C62.4412 5.07376 58.5361 8.33102 58.5361 12.2894C58.5361 15.2716 60.9472 17.6679 64.1719 17.6679C66.2073 17.6679 67.9854 16.946 69.4823 15.5733L67.1659 13.1977C66.4884 13.8485 65.4115 14.384 64.453 14.384C63.2134 14.384 62.2785 13.4284 62.2785 12.1948C62.2785 10.3102 64.1482 8.35469 66.16 8.35469C66.8612 8.35469 67.725 8.68012 68.1007 9.26293L71 7.33106C70.0652 6.05005 68.5208 5.07376 66.3937 5.07376ZM18.4756 13.8752C18.8631 14.1947 19.372 14.387 19.9459 14.387C20.9222 14.387 21.8867 13.9077 22.6145 13.2066L24.9871 15.6384C23.5345 16.8928 21.6263 17.6738 19.7122 17.6738C17.7152 17.6738 16.0408 16.7804 15.0378 15.4077C14.5734 14.7716 14.2539 14.032 14.1118 13.2302C14.0586 12.9255 14.029 12.6149 14.029 12.2954C14.029 8.31623 17.9342 5.07967 21.863 5.07967C23.9931 5.07967 25.7534 6.09147 26.7267 7.61211C27.1527 8.27481 27.4279 9.03513 27.5166 9.85167L23.6943 11.5528L18.4756 13.8752ZM23.357 9.10909C22.9606 8.64757 22.36 8.35764 21.653 8.35764C19.8335 8.35764 18.1058 9.90492 17.7626 11.6001L23.357 9.10909Z" fill="white"/>
</g>
<defs>
<clipPath id="clip0_534_443">
<rect width="70.0826" height="17.4454" fill="white" transform="scale(1.01309)"/>
</clipPath>
</defs>
</svg>
