<svg width="20" height="20" viewBox="0 0 20 20" fill="none" xmlns="http://www.w3.org/2000/svg">
<circle cx="10" cy="10" r="10" fill="#F0F0F0"/>
<path fill-rule="evenodd" clip-rule="evenodd" d="M3.91125 2.06625C7.49125 -0.68875 12.5081 -0.68875 16.0888 2.06625L10 8.155L3.91125 2.06625ZM3.91125 17.9331L10 11.8444L16.0888 17.9331C12.5088 20.6881 7.49125 20.6881 3.91125 17.9331Z" fill="#EC0017"/>
<path fill-rule="evenodd" clip-rule="evenodd" d="M2.06625 3.91125L8.155 10L2.06625 16.0887C-0.68875 12.5087 -0.68875 7.49125 2.06625 3.91125ZM17.9331 16.0887L11.8444 10L17.9331 3.91125C20.6881 7.49125 20.6881 12.5081 17.9331 16.0887Z" fill="#5AA731"/>
<circle cx="10" cy="10" r="4.34813" fill="#F0F0F0"/>
<path fill-rule="evenodd" clip-rule="evenodd" d="M10.3769 7.60813L10 6.95625L9.62313 7.60938H8.87L9.24625 8.26125L8.87 8.91313H9.62313L10 9.565L10.3769 8.91188H11.13L10.7531 8.26L11.13 7.60813H10.3769ZM8.08625 10L8.4625 10.6519H9.21562L8.83875 11.3044L9.21562 11.9569H8.4625L8.08625 12.6088L7.70938 11.9569H6.95625L7.33313 11.3044L6.95625 10.6519H7.70938L8.08625 10ZM11.9144 10L12.2906 10.6519H13.0437L12.6675 11.3044L13.0437 11.9569H12.2906L11.9144 12.6088L11.5375 11.9569H10.7844L11.1612 11.3044L10.7844 10.6519H11.5375L11.9144 10Z" fill="#EC0017"/>
</svg>
