<svg width="20" height="20" viewBox="0 0 20 20" fill="none" xmlns="http://www.w3.org/2000/svg">
<mask id="mask0_219_122126" style="mask-type:alpha" maskUnits="userSpaceOnUse" x="0" y="0" width="20" height="20">
<path d="M10 0C15.5228 0 20 4.47716 20 10C20 15.5228 15.5228 20 10 20C4.47715 20 0 15.5228 0 10C0 4.47716 4.47715 0 10 0Z" fill="white"/>
</mask>
<g mask="url(#mask0_219_122126)">
<path fill-rule="evenodd" clip-rule="evenodd" d="M-0.869565 -0.869568H20.8696V20.8696H-0.869565V-0.869568Z" fill="white"/>
</g>
<mask id="mask1_219_122126" style="mask-type:alpha" maskUnits="userSpaceOnUse" x="6" y="0" width="8" height="20">
<path d="M11.2435 0.0773913L11.5061 0.113913L11.6043 0.128696L11.6304 0.133043L11.8791 0.177391L11.9452 0.189565L11.9957 0.2L12.3122 0.269565L12.3304 0.273913L12.4017 0.291304L12.4122 0.293913L12.6426 0.353913L12.7574 0.386087L12.8817 0.421457C12.9414 0.439402 13.0009 0.45789 13.0602 0.476916L13.0595 0.476696L13.1322 0.500345L13.4281 0.603076C13.445 0.60924 13.4619 0.615449 13.4788 0.621703L13.914 10L13.4788 19.3783L13.4578 19.386C13.2392 19.466 13.0167 19.5394 12.791 19.6049L12.791 19.6053L12.447 19.6982L12.1174 19.7757L12.1667 19.7646L12.0983 19.7793L12.1165 19.7757L12.0713 19.7852L12.0461 19.7904L11.8652 19.8261L11.7983 19.8391L11.7409 19.8487L11.5104 19.887L11.4261 19.8991L11.353 19.9096L11.1661 19.933L11.0738 19.943L11.074 19.943C10.8545 19.9664 10.633 19.9828 10.4096 19.9918L10.331 19.9946L10.0004 20L9.79681 19.998L9.59411 19.9919C9.36334 19.9826 9.13449 19.9655 8.90788 19.9409L8.91908 19.9423L8.75388 19.9231L8.73652 19.9209L8.72564 19.9193L8.69652 19.9157L8.58951 19.9013L8.46435 19.8826L8.39304 19.8722L8.37243 19.8678C8.31527 19.8585 8.25826 19.8486 8.20142 19.8383L8.21275 19.8407L8.16087 19.8313L7.92783 19.7852L7.85041 19.7678L7.85071 19.7685C7.50918 19.6931 7.17429 19.6007 6.84689 19.4918L6.52201 19.3776L6.08761 10L6.52297 0.621056C6.53314 0.617284 6.54332 0.613529 6.5535 0.609789C6.76548 0.532309 6.98101 0.461504 7.19968 0.397856L7.49331 0.316769L7.52174 0.309565L7.55913 0.30087L7.76087 0.253043L7.89108 0.223144L8.16 0.169565L8.21257 0.159578L8.20142 0.161307L8.31217 0.142609L8.40505 0.126746L8.44869 0.12L8.53909 0.10595L8.71859 0.0813344L8.74696 0.0782609L8.76058 0.0762205L8.78087 0.073913L8.89909 0.0599096L8.83304 0.0686956L8.9232 0.0574327L8.92256 0.0573671C9.14472 0.0336727 9.36842 0.0171519 9.59407 0.00811901L9.67253 0.00526062L10 0L10.3397 0.00566076L10.5384 0.014245L10.736 0.0261814L10.8896 0.04L10.9026 0.0408696L10.8948 0.04H10.8896L10.877 0.037433L10.8948 0.04L10.907 0.0408696L10.9364 0.0432045L10.9809 0.0478261L10.9113 0.0417391L10.907 0.0408696H10.9026L11.0504 0.0556522L11.1148 0.0626087L11.0765 0.0582609L11.0504 0.0556522L10.9809 0.0478261L11.0412 0.0530722L11.0765 0.0582609L11.1217 0.0626087H11.1148L11.1357 0.0637757L11.2051 0.0714198L11.1496 0.066087L11.2435 0.0773913Z" fill="white"/>
</mask>
<g mask="url(#mask1_219_122126)">
<path fill-rule="evenodd" clip-rule="evenodd" d="M5.21805 -0.871155H14.7836V20.8696H5.21805V-0.871155Z" fill="#F0F0F0"/>
</g>
<mask id="mask2_219_122126" style="mask-type:alpha" maskUnits="userSpaceOnUse" x="0" y="0" width="7" height="20">
<path d="M0.133043 11.6383L0.130435 11.6191L0.120912 11.5597C0.114092 11.5161 0.107553 11.4725 0.101296 11.4288L0.119117 11.548L0.1 11.4252L0.0834783 11.2991L0.0678386 11.1709L0.0530435 11.0426L0.0534842 11.0404L0.0408696 10.9113L0.0310919 10.7944L0.030074 10.7812L0.0223239 10.6735L0.0126162 10.5067L0.0036697 10.2735L0 10C0 9.77364 0.00752221 9.54903 0.0223302 9.32642L0.0300702 9.21871L0.0304348 9.20608L0.0409682 9.08867L0.0412714 9.08539L0.0535198 8.95911L0.0530435 8.95652L0.0582609 8.90956L0.067533 8.83159C0.0724702 8.78916 0.0776729 8.74682 0.0831394 8.70456L0.0679516 8.82809L0.0843478 8.69391L0.0997573 8.58204L0.102991 8.55956L0.11785 8.46L0.122545 8.43005L0.130435 8.38174L0.138898 8.32956L0.143749 8.3011L0.163027 8.19212L0.183353 8.08404L0.237018 7.82599L0.296522 7.57304L0.297152 7.57078L0.319987 7.48107C0.352759 7.35457 0.388013 7.22899 0.42563 7.10444C0.475753 6.93871 0.530182 6.77427 0.588699 6.61179L0.673114 6.38572L0.768562 6.14868L0.865217 5.92435L0.917882 5.80913L0.922142 5.80029L0.967103 5.70425L1.02087 5.59391L0.992174 5.6513L1.02069 5.59353L1.04095 5.55296L1.09391 5.44695L1.1418 5.35533L1.18435 5.27565L1.23791 5.17684C1.32255 5.02387 1.41081 4.87339 1.50283 4.7255C1.54851 4.65207 1.59513 4.57927 1.64265 4.50713L1.64241 4.50699C2.11267 3.79358 2.67163 3.14382 3.30374 2.57363L3.30343 2.57318C4.11595 1.84098 5.04892 1.2397 6.06916 0.803256L6.02763 0.820064C6.09687 0.790061 6.16652 0.760818 6.23656 0.732347L6.23708 0.733234C6.32559 0.696157 6.41526 0.661212 6.50555 0.627535L6.5224 0.622406V19.3776C6.51686 19.3755 6.51132 19.3735 6.50579 19.3714C6.4414 19.3485 6.37756 19.324 6.31405 19.2988L6.50579 19.3714C6.41883 19.339 6.33244 19.3054 6.24664 19.2706L6.24612 19.2715C4.33635 18.4966 2.7198 17.1496 1.61004 15.4429L1.44261 15.1783L1.43906 15.1704L1.37565 15.0652L1.31716 14.9641L1.31456 14.959L1.25652 14.8574L1.25521 14.8544L1.1945 14.7436L1.13826 14.6383L1.13514 14.632C1.09813 14.5613 1.06195 14.4901 1.02659 14.4184L1.07842 14.5214C1.04321 14.4521 1.00878 14.3823 0.975157 14.3121C0.761016 13.8648 0.579155 13.3992 0.432586 12.9182C0.394804 12.7945 0.35946 12.6698 0.3265 12.5441C0.26294 12.3016 0.208088 12.0549 0.162524 11.8051L0.161739 11.8035L0.140003 11.6768L0.133043 11.6383Z" fill="white"/>
</mask>
<g mask="url(#mask2_219_122126)">
<path fill-rule="evenodd" clip-rule="evenodd" d="M-0.869565 -0.247162H7.39196V20.2472H-0.869565V-0.247162Z" fill="#FF9811"/>
</g>
<mask id="mask3_219_122126" style="mask-type:alpha" maskUnits="userSpaceOnUse" x="13" y="0" width="7" height="20">
<path d="M13.4796 0.622009C13.5165 0.635705 13.5533 0.649612 13.59 0.663729L13.6452 0.684882L13.7219 0.715274L13.7617 0.732157L13.72 0.715635L13.7611 0.731368C13.7997 0.747047 13.8382 0.762961 13.8765 0.779108L13.7983 0.74628C13.8687 0.775207 13.9388 0.804915 14.0084 0.835393L13.9017 0.790418L14.0115 0.837117L14.12 0.88607L14.1739 0.910418L14.2335 0.937704C14.2628 0.951395 14.292 0.965223 14.3211 0.979189L14.3211 0.978815C14.4699 1.05062 14.6167 1.12562 14.7614 1.20409L14.762 1.20399C15.6027 1.66046 16.3712 2.23402 17.0449 2.90286L16.9652 2.82374L17.0506 2.90757L17.113 2.97129L17.0487 2.90781L17.1124 2.97047L17.1798 3.03835C18.9252 4.83902 20 7.29398 20 9.99998C20 10.6499 19.938 11.2854 19.8196 11.9008L19.7425 12.2678C19.4516 13.5191 18.9266 14.6805 18.2155 15.7029C18.1462 15.8032 18.075 15.9016 18.0022 15.9986C17.7584 16.3228 17.4955 16.632 17.215 16.9242C17.1068 17.037 16.996 17.1472 16.8826 17.2548L16.859 17.277L16.7878 17.3435L16.7765 17.3539L16.6932 17.4299L16.6853 17.437L16.6932 17.4299C16.6326 17.4845 16.5713 17.5384 16.5093 17.5916L16.4915 17.6068L16.4191 17.6678L16.3294 17.7423L16.3888 17.6934C16.3342 17.7388 16.2792 17.7835 16.2236 17.8278L16.3052 17.7617L16.2209 17.8295L16.1258 17.9047L16.0783 17.9417L16.0239 17.9826C15.9941 18.0051 15.9643 18.0274 15.9343 18.0496L16.0226 17.9835L15.9123 18.0658L15.8339 18.1226L15.7334 18.1942C15.5983 18.2887 15.4607 18.3802 15.3206 18.4683L15.106 18.6L14.9009 18.7182L14.8531 18.7452L14.8527 18.7457L14.6196 18.871L14.3829 18.9909C14.1856 19.0868 13.9849 19.1767 13.7809 19.26C13.6812 19.3013 13.5808 19.3404 13.4796 19.378V0.622009Z" fill="white"/>
</mask>
<g mask="url(#mask3_219_122126)">
<path fill-rule="evenodd" clip-rule="evenodd" d="M12.6097 -0.247971H20.8704V20.2472H12.6097V-0.247971Z" fill="#6DA544"/>
</g>
</svg>
