<svg width="20" height="20" viewBox="0 0 20 20" fill="none" xmlns="http://www.w3.org/2000/svg">
<path d="M14.3481 0.991875C13.0338 0.35625 11.5581 0 10 0C8.44188 0 6.96688 0.35625 5.65187 0.991875L4.7825 10L5.65187 19.0075C6.96688 19.6437 8.44188 20 10 20C11.5581 20 13.0338 19.6437 14.3481 19.0075L15.2175 10L14.3481 0.991875Z" fill="#EC0017"/>
<path d="M10 6.52188L10.8631 9.17876H13.6575L11.3975 10.8213L12.2606 13.4781L10 11.8363L7.73937 13.4788L8.6025 10.8219L6.3425 9.17938H9.13625L10 6.52188Z" fill="#FFD800"/>
<path d="M14.3481 0.992493V19.0075C17.6931 17.39 20 13.965 20 9.99999C20 6.03562 17.6931 2.60999 14.3481 0.992493Z" fill="#FFD800"/>
<path d="M5.65187 0.992493C2.30687 2.60999 0 6.03562 0 9.99999C0 13.965 2.30687 17.39 5.65187 19.0075V0.992493Z" fill="#3D6F21"/>
</svg>
