<svg width="20" height="20" viewBox="0 0 20 20" fill="none" xmlns="http://www.w3.org/2000/svg">
<path d="M9.13063 10.8694C9.13063 10.8694 2.935 2.92751 2.92875 2.92938C4.80213 1.05089 7.34702 -0.00336871 10 8.08695e-06C15.5225 8.08695e-06 20 4.47751 20 10L9.13063 10.8694Z" fill="#008CFB"/>
<path d="M9.13063 10C9.13063 10 2.935 17.0725 2.92875 17.0706C4.80213 18.9491 7.34702 20.0034 10 20C15.5225 20 20 15.5225 20 10H9.13063Z" fill="#5AA731"/>
<path d="M2.92875 2.92874C-0.97625 6.83437 -0.97625 13.1656 2.92875 17.0712L10 9.99999L2.92875 2.92874Z" fill="#F0F0F0"/>
<path d="M4.0475 7.39124L4.695 9.38374H6.79062L5.09562 10.6156L5.74312 12.6081L4.04812 11.3762L2.35312 12.6081L3.00062 10.6156L1.30562 9.38374H3.40125L4.0475 7.39124Z" fill="#EC0017"/>
</svg>
