<svg width="20" height="20" viewBox="0 0 20 20" fill="none" xmlns="http://www.w3.org/2000/svg">
<path d="M10 0C15.5225 0 20 4.4775 20 10C20 15.5225 15.5225 20 10 20C10 19.5656 8.69562 10 8.69562 10L10 0Z" fill="#F0F0F0"/>
<path d="M10 20C4.4775 20 0 15.5225 0 10C0 4.4775 4.4775 0 10 0" fill="#3D6F21"/>
<path fill-rule="evenodd" clip-rule="evenodd" d="M8.18753 10.9901C8.59979 12.0926 9.65237 12.8239 10.8294 12.8256C11.2988 12.8263 11.7609 12.7096 12.1737 12.4863C10.8077 13.8226 8.61942 13.8066 7.2731 12.4504C5.92678 11.0942 5.92678 8.90582 7.2731 7.54962C8.61942 6.19341 10.8077 6.1774 12.1737 7.51376C11.1376 6.95539 9.86387 7.09794 8.97681 7.87154C8.08975 8.64514 7.77528 9.88767 8.18753 10.9901ZM11.3281 9.21251L12.1488 8.08188L12.1494 9.48001L13.4781 9.91063L12.1494 10.3425L12.1506 11.74L11.3294 10.6094L10.0006 11.0419L10.8212 9.91126L9.99937 8.78188L11.3281 9.21251Z" fill="#EC0017"/>
</svg>
