<svg width="20" height="20" viewBox="0 0 20 20" fill="none" xmlns="http://www.w3.org/2000/svg">
<circle cx="10" cy="10" r="10" fill="#F0F0F0"/>
<path d="M10 20C14.2994 20 17.965 17.2862 19.3781 13.4781H0.621875C2.035 17.2862 5.70062 20 10 20Z" fill="black"/>
<path d="M13.4781 8.91311H10.8688C10.8688 8.4328 10.4794 8.04343 9.99906 8.04343C9.51875 8.04343 9.12937 8.4328 9.12937 8.91311H6.52062C6.52062 9.39374 6.93875 9.78311 7.41937 9.78311H7.39062C7.39062 10.2631 7.78 10.6525 8.26 10.6525C8.26 11.1337 8.64937 11.5225 9.12937 11.5225H10.8681C11.3494 11.5225 11.7388 11.1337 11.7388 10.6525C12.2188 10.6525 12.6081 10.2631 12.6081 9.78311H12.5788C13.06 9.78249 13.4781 9.39311 13.4781 8.91311Z" fill="#FF9100"/>
<path d="M10 0C5.70062 0 2.035 2.71375 0.621875 6.52188H19.3781C17.965 2.71375 14.2994 0 10 0Z" fill="#EC0017"/>
</svg>
