<svg width="20" height="20" viewBox="0 0 20 20" fill="none" xmlns="http://www.w3.org/2000/svg">
<path d="M0.991875 5.65188C0.35625 6.96688 0 8.44188 0 10C0 11.5581 0.35625 13.0338 0.991875 14.3481L10 15.2175L19.0075 14.3481C19.6437 13.0338 20 11.5581 20 10C20 8.44188 19.6437 6.96688 19.0075 5.65188L10 4.7825L0.991875 5.65188Z" fill="#F0F0F0"/>
<path d="M0.9925 14.3481C2.61 17.6931 6.03563 20 10 20C13.965 20 17.39 17.6931 19.0075 14.3481H0.9925Z" fill="#3D6F21"/>
<path d="M0.9925 5.65187H19.0075C17.39 2.30687 13.965 0 10 0C6.03563 0 2.61 2.30687 0.9925 5.65187Z" fill="black"/>
<path fill-rule="evenodd" clip-rule="evenodd" d="M2.92875 17.0712C-0.97625 13.1656 -0.97625 6.83437 2.92875 2.92874L10 9.99999L2.92875 17.0712ZM12.6087 9.99999C12.6092 8.57067 13.604 7.33413 15 7.02749C13.7832 6.76009 12.5263 7.26122 11.8272 8.29248C11.1282 9.32373 11.1282 10.6769 11.8272 11.7081C12.5263 12.7394 13.7832 13.2405 15 12.9731C13.604 12.666 12.6094 11.4294 12.6087 9.99999ZM15.1281 8.04374L15.5594 9.37249H16.9562L15.8256 10.1931L16.2569 11.5212L15.1269 10.7006L13.9963 11.5212L14.4281 10.1931L13.2975 9.37249H14.6938L15.1281 8.04374Z" fill="#EC0017"/>
</svg>
