<svg width="20" height="20" viewBox="0 0 20 20" fill="none" xmlns="http://www.w3.org/2000/svg">
<path d="M5.70563e-06 9.99998C5.70563e-06 11.2231 0.220006 12.395 0.62188 13.4781L10 14.3481L19.3781 13.4781C19.78 12.395 20 11.2231 20 9.99998C20 8.79373 19.7862 7.63685 19.3944 6.56623L10 5.65185L0.605005 6.56623C0.203541 7.66648 -0.00124624 8.82877 5.70563e-06 9.99998Z" fill="#FFD800"/>
<path d="M10 20C14.2994 20 17.965 17.2863 19.3781 13.4781H0.621882C2.03501 17.2863 5.70063 20 10 20Z" fill="#EC0017"/>
<path d="M10 0C5.70063 0 2.03501 2.71375 0.621882 6.52187H19.3781C17.965 2.71375 14.2994 0 10 0Z" fill="#5AA731"/>
<ellipse cx="10" cy="10" rx="4.7825" ry="4.7825" fill="#0054BB"/>
<path fill-rule="evenodd" clip-rule="evenodd" d="M10.665 8.34514L9.99938 6.29626L9.33462 8.34401L8.3075 6.93001L7.60438 7.44126L8.7026 8.95314H6.34063L8.03367 10.1818L6.55813 10.6613L6.82688 11.4875L8.48833 10.9476L7.73625 13.2575L9.56563 11.9261V13.4775H10.435V11.9267L12.2663 13.26L11.5112 10.9472L13.1744 11.4875L13.4425 10.6619L11.9658 10.1821L13.6613 8.95314H11.2981L12.3963 7.44189L11.6931 6.93064L10.665 8.34514ZM10.665 8.34514L10 9.26001L9.33462 8.34401L9.13688 8.95314H8.7026L9.29688 9.77126L8.03367 10.1818L8.60313 10.595L8.48833 10.9476L9.56563 10.5975V11.9261L10 11.61L10.435 11.9267V10.5975L11.5112 10.9472L11.3963 10.595L11.9658 10.1821L10.7031 9.77189L11.2981 8.95314H10.8625L10.665 8.34514Z" fill="#FFD800"/>
</svg>
