<svg width="20" height="20" viewBox="0 0 20 20" fill="none" xmlns="http://www.w3.org/2000/svg">
<circle cx="9.99997" cy="9.99997" r="9.99997" fill="#F0F0F0"/>
<path d="M6.08686 13.4781H19.3781C17.9649 17.2862 14.2993 20 9.99997 20C7.34703 20.0035 4.80221 18.9489 2.92937 17.07L6.08686 13.4781Z" fill="#EC0017"/>
<path d="M11.7393 8.26059V10.4343C11.7393 11.7662 13.4781 12.1737 13.4781 12.1737C13.4781 12.1737 15.2168 11.7662 15.2168 10.4343V8.26059H11.7393Z" fill="#DEDDE0"/>
<path d="M13.0431 10.0431H13.9131V11.3044H13.0431V10.0431Z" fill="#7C6041"/>
<path d="M14.3481 9.56498C14.3481 9.08449 13.9586 8.69498 13.4781 8.69498C12.9976 8.69498 12.6081 9.08449 12.6081 9.56498C12.368 9.56498 12.1734 9.75959 12.1734 9.99966C12.1734 10.2397 12.368 10.4344 12.6081 10.4344H14.3475C14.5875 10.4345 14.7823 10.24 14.7825 9.99998C14.7826 9.75991 14.5882 9.56515 14.3481 9.56498Z" fill="#5AA731"/>
<path d="M6.08686 6.52186H19.3781C17.9649 2.71375 14.2993 8.62288e-06 9.99997 8.62288e-06C7.34716 -0.00347849 4.80243 1.05081 2.92937 2.92937L6.08686 6.52186Z" fill="#5AA731"/>
<path d="M2.92874 2.92876C-0.976247 6.83438 -0.976247 13.1656 2.92874 17.0712L9.99997 9.99999L2.92874 2.92876Z" fill="#0054BB"/>
</svg>
