<svg width="20" height="20" viewBox="0 0 20 20" fill="none" xmlns="http://www.w3.org/2000/svg">
<mask id="mask0_219_122142" style="mask-type:alpha" maskUnits="userSpaceOnUse" x="0" y="0" width="20" height="20">
<path d="M10 0C15.5228 0 20 4.47716 20 10C20 15.5228 15.5228 20 10 20C4.47715 20 0 15.5228 0 10C0 4.47716 4.47715 0 10 0Z" fill="white"/>
</mask>
<g mask="url(#mask0_219_122142)">
<path fill-rule="evenodd" clip-rule="evenodd" d="M-0.869564 -0.869568H20.8696V20.8696H-0.869564V-0.869568Z" fill="white"/>
</g>
<mask id="mask1_219_122142" style="mask-type:alpha" maskUnits="userSpaceOnUse" x="6" y="0" width="14" height="20">
<path d="M10.0004 0.000793457C15.5226 0.000793457 20 4.47741 20 10.0004C20 11.5029 19.6685 12.928 19.0748 14.2067C18.0798 16.3491 16.3491 18.0798 14.2072 19.0745L14.0574 19.1426L13.8371 19.2373C12.7294 19.698 11.521 19.9652 10.2541 19.9968L10.0004 20L9.79166 19.9978L9.58367 19.9915C9.33007 19.981 9.07864 19.9611 8.82999 19.932L8.88693 19.9387C8.75279 19.9239 8.61945 19.9064 8.48697 19.8863C8.36817 19.8682 8.25006 19.8481 8.13267 19.8259L8.19652 19.8374L8.10411 19.82L8.10401 19.8205L7.75156 19.7456L7.41249 19.662L7.3925 19.656L6.52293 10.0004L7.3925 0.344785C8.22446 0.120793 9.09803 0.000793457 10.0004 0.000793457Z" fill="white"/>
</mask>
<g mask="url(#mask1_219_122142)">
<path fill-rule="evenodd" clip-rule="evenodd" d="M5.65337 -0.868774H20.8695V20.8695H5.65337V-0.868774Z" fill="#FFDA44"/>
</g>
<mask id="mask2_219_122142" style="mask-type:alpha" maskUnits="userSpaceOnUse" x="6" y="10" width="14" height="10">
<path d="M20 10.0004C20 11.5029 19.6685 12.928 19.0748 14.2067C18.0798 16.3491 16.3491 18.0798 14.2072 19.0746L14.0574 19.1426L13.8371 19.2374C12.7294 19.698 11.521 19.9653 10.2541 19.9969L10.0004 20L9.79166 19.9979L9.58367 19.9915C9.33007 19.981 9.07864 19.9611 8.82999 19.932L8.88693 19.9388C8.75279 19.9239 8.61945 19.9064 8.48697 19.8863C8.36817 19.8683 8.25006 19.8482 8.13267 19.826L8.19652 19.8374L8.10411 19.82L8.10401 19.8205L7.75156 19.7456L7.41249 19.662L7.3925 19.656L6.52293 10.0004H20Z" fill="white"/>
</mask>
<g mask="url(#mask2_219_122142)">
<path fill-rule="evenodd" clip-rule="evenodd" d="M5.65337 9.13086H20.8695V20.8696H5.65337V9.13086Z" fill="#6DA544"/>
</g>
<mask id="mask3_219_122142" style="mask-type:alpha" maskUnits="userSpaceOnUse" x="5" y="0" width="3" height="20">
<path d="M7.3925 0.343994V19.656C7.38696 19.6545 7.38143 19.653 7.37589 19.6515L7.37608 19.6522C7.21359 19.6075 7.05294 19.5594 6.89403 19.5075L6.8938 19.5082C6.65381 19.429 6.41759 19.3417 6.18576 19.246L6.18536 19.2467C5.88026 19.1197 5.58237 18.9788 5.29299 18.8241L5.21739 18.7835V1.21739L5.29264 1.17586C5.59574 1.01384 5.90816 0.866969 6.2289 0.736254L6.22874 0.735526C6.45804 0.642868 6.69143 0.557729 6.92869 0.481205L6.92852 0.480544L7.14805 0.413247L7.37608 0.347786L7.3925 0.343994Z" fill="white"/>
</mask>
<g mask="url(#mask3_219_122142)">
<path fill-rule="evenodd" clip-rule="evenodd" d="M-0.869565 -0.525574H8.26206V20.5256H-0.869565V-0.525574Z" fill="#D80027"/>
</g>
<mask id="mask4_219_122142" style="mask-type:alpha" maskUnits="userSpaceOnUse" x="1" y="7" width="6" height="6">
<path d="M3.77913 7.39215L4.42782 9.3836H6.52293L4.827 10.6156L5.47498 12.6075L3.78065 11.3755L2.08472 12.6075L2.73269 10.6156L1.03756 9.3836H3.13187L3.77913 7.39215Z" fill="white"/>
</mask>
<g mask="url(#mask4_219_122142)">
<path fill-rule="evenodd" clip-rule="evenodd" d="M0.167995 6.5213H7.3925V13.477H0.167995V6.5213Z" fill="black"/>
</g>
</svg>
