<svg width="20" height="20" viewBox="0 0 20 20" fill="none" xmlns="http://www.w3.org/2000/svg">
<circle cx="10" cy="10" r="10" fill="#F0F0F0"/>
<path d="M10 20C6.03563 20 2.61 17.6931 0.991875 14.3481H19.0075C17.39 17.6931 13.965 20 10 20Z" fill="#3D6F21"/>
<path d="M19.5275 6.95624H0.471875C0.16625 7.91624 0 8.93874 0 9.99999C0 11.0612 0.16625 12.0837 0.471875 13.0431H19.5275C19.8337 12.0837 20 11.0612 20 9.99999C20 8.93874 19.8337 7.91624 19.5275 6.95624Z" fill="#B20013"/>
<path d="M10 0C6.03563 0 2.61 2.30687 0.991875 5.65187H19.0075C17.39 2.30687 13.965 0 10 0Z" fill="black"/>
<path fill-rule="evenodd" clip-rule="evenodd" d="M11.9294 4.0744L13.1138 4.62128L10.8044 9.80638V6.62214L11.9294 4.0744ZM9.19563 6.62214V5.1369C9.65438 4.63565 10 4.34815 10 4.34815C10 4.34815 10.3456 4.63565 10.8044 5.13628V6.62214L10 8.44378L9.19563 6.62214ZM9.19563 9.80638L6.88625 4.62128L8.07063 4.0744L9.19563 6.62214V9.80638ZM9.19563 10.1937V9.80638L9.28188 10L9.19563 10.1937ZM9.19563 13.3777L8.07063 15.925L6.88625 15.3788L9.19563 10.1937V13.3777ZM10.8044 13.3771V14.8632C10.3456 15.3644 10 15.6519 10 15.6519C10 15.6519 9.65438 15.3644 9.19563 14.8638V13.3777L10 11.5563L10.8044 13.3771ZM10.8044 13.3771V10.1936L13.1144 15.3788L11.93 15.925L10.8044 13.3771ZM10.8044 10.1936L10.7181 10L10.8044 9.80638V10.1936Z" fill="#F0F0F0"/>
<path fill-rule="evenodd" clip-rule="evenodd" d="M7.82625 12.9981V7.00189C8.31063 6.14314 8.90375 5.44002 9.34813 4.97314V15.0269C8.90375 14.5606 8.31063 13.8563 7.82625 12.9981ZM10.6519 4.97314C11.0962 5.44002 11.69 6.14314 12.1744 7.00189V12.9981C11.6894 13.8563 11.0962 14.5606 10.6519 15.0269V4.97314Z" fill="#B20013"/>
<path fill-rule="evenodd" clip-rule="evenodd" d="M6.95625 10C6.95625 11.1013 7.33563 12.1288 7.82625 12.9981V7.00189C7.33563 7.87064 6.95625 8.89877 6.95625 10ZM13.0438 10C13.0438 11.1013 12.6644 12.1288 12.1744 12.9981V7.00189C12.6644 7.87064 13.0431 8.89877 13.0438 10Z" fill="black"/>
</svg>
