<svg width="20" height="20" viewBox="0 0 20 20" fill="none" xmlns="http://www.w3.org/2000/svg">
<circle cx="10" cy="10" r="10" fill="#F0F0F0"/>
<path d="M5.405 13.9131L2.92938 17.0706C4.80245 18.9492 7.34719 20.0034 10 20C14.1338 20 17.6813 17.4912 19.2044 13.9131H5.405V13.9131Z" fill="#FFD800"/>
<path d="M2.17375 7.35498V12.6087H19.6556C19.8848 11.7581 20.0006 10.8809 20 9.99998C20 9.08436 19.8769 8.19748 19.6462 7.35498H2.17375Z" fill="black"/>
<path d="M19.22 6.12313C17.705 2.52626 14.1481 8.62291e-06 10 8.62291e-06C7.34719 -0.0034785 4.80245 1.05081 2.92938 2.92938L5.43375 6.12313H19.22Z" fill="#3D6F21"/>
<path d="M2.92875 2.92871C-0.97625 6.83434 -0.97625 13.1656 2.92875 17.0712L10 9.99996L2.92875 2.92871Z" fill="#B20013"/>
<path d="M4.0475 7.39124L4.695 9.38374H6.79062L5.09562 10.6156L5.74312 12.6081L4.04812 11.3762L2.35312 12.6081L3.00062 10.6156L1.30562 9.38374H3.40125L4.0475 7.39124Z" fill="#FFD800"/>
<path d="M2.1525 10H5.9425V11.7394H2.1525V10Z" fill="#F0F0F0"/>
<path d="M6.66 8.00624L6.045 7.39124L4.04688 9.38936L2.04875 7.39124L1.43438 8.00624L3.43438 10.0025L1.43438 12.0019L2.04938 12.6087L4.0475 10.6144L6.04563 12.6087L6.66063 12.0019L4.66063 10.0025L6.66 8.00624Z" fill="black"/>
</svg>
