<svg width="20" height="20" viewBox="0 0 20 20" fill="none" xmlns="http://www.w3.org/2000/svg">
<circle cx="10" cy="10" r="10" fill="#F0F0F0"/>
<path d="M18.325 15.5406L4.33437 18.2406C6.00017 19.3894 7.97652 20.0031 10 20C13.4738 20 16.5331 18.2288 18.325 15.5406V15.5406Z" fill="#5AA731"/>
<path d="M16.7506 2.62251C14.909 0.932612 12.4995 -0.00343412 10 9.46771e-06C9.57375 9.46771e-06 9.15438 0.0268845 8.7425 0.0781345L3.91312 5.65188L0.31625 12.505C0.54875 13.4056 0.90375 14.2575 1.36188 15.0413L10 10L16.7506 2.62251Z" fill="#FFD800"/>
<path d="M16.7519 2.62378L1.36813 15.0507C1.76929 15.7346 2.25014 16.3687 2.80063 16.9394L20 10C20 7.08003 18.7475 4.45253 16.7519 2.62378Z" fill="#EC0017"/>
<path d="M0 10C0 10.8656 0.11 11.7044 0.31625 12.505L8.7425 0.078125C3.81313 0.696875 0 4.90312 0 10Z" fill="#0054BB"/>
</svg>
