<svg width="20" height="20" viewBox="0 0 20 20" fill="none" xmlns="http://www.w3.org/2000/svg">
<path d="M0.991875 5.65185C0.35625 6.96685 0 8.44185 0 9.99997C0 11.5581 0.35625 13.0337 0.991875 14.3481L10 15.2175L19.0075 14.3481C19.6437 13.0337 20 11.5581 20 9.99997C20 8.44185 19.6437 6.96685 19.0075 5.65185L10 4.78247L0.991875 5.65185Z" fill="#F0F0F0"/>
<path d="M0.9925 14.3481C2.61 17.6931 6.03563 20 10 20C13.965 20 17.39 17.6931 19.0075 14.3481H0.9925Z" fill="black"/>
<path d="M0.9925 5.65187H19.0075C17.39 2.30687 13.965 0 10 0C6.03563 0 2.61 2.30687 0.9925 5.65187Z" fill="#EC0017"/>
<path d="M2.92875 2.92871C-0.97625 6.83434 -0.97625 13.1656 2.92875 17.0712L10 9.99996L2.92875 2.92871Z" fill="#3D6F21"/>
</svg>
