<svg width="20" height="20" viewBox="0 0 20 20" fill="none" xmlns="http://www.w3.org/2000/svg">
<path d="M19.3781 13.4781C19.78 12.395 20 11.2231 20 9.99998C20 8.77686 19.78 7.60498 19.3781 6.52186L10 5.65186L0.621875 6.52186C0.22 7.60498 0 8.77686 0 9.99998C0 11.2231 0.22 12.395 0.621875 13.4781L10 14.3481L19.3781 13.4781Z" fill="#F0F0F0"/>
<path d="M10 20C14.2994 20 17.965 17.2863 19.3781 13.4781H0.621875C2.035 17.2863 5.70062 20 10 20Z" fill="#008CFB"/>
<path d="M10 0C5.70062 0 2.035 2.71375 0.621875 6.52188H19.3781C17.965 2.71375 14.2994 0 10 0Z" fill="#5AA731"/>
</svg>
