<svg width="20" height="20" viewBox="0 0 20 20" fill="none" xmlns="http://www.w3.org/2000/svg">
<path d="M17.4531 16.6662C19.0963 14.835 20.0035 12.4604 20 10C20 7.43876 19.0369 5.10251 17.4525 3.33314L10 2.60876L2.54751 3.33314C0.904205 5.1646 -0.00323052 7.53938 9.05877e-06 10C-0.00330701 12.4603 0.9039 14.8349 2.54688 16.6662L10 17.3912L17.4531 16.6662Z" fill="#FFD800"/>
<path d="M17.4531 16.6662H2.54688C4.37813 18.7119 7.03875 20 10 20C12.9612 20 15.6219 18.7119 17.4531 16.6662Z" fill="#EC0017"/>
<path d="M1.00315e-05 9.99998L10 10.8694L20 9.99998C20 8.83124 19.7987 7.70936 19.43 6.66686H0.570009C0.191737 7.73738 -0.00103114 8.8646 1.00315e-05 9.99998Z" fill="#EC0017"/>
<path d="M0.57001 13.3337H19.43C19.7987 12.2906 20 11.1687 20 9.99999H1.08705e-05C1.08705e-05 11.1687 0.201261 12.2906 0.57001 13.3337Z" fill="black"/>
<path d="M13.3369 9.99995C13.3369 11.1921 12.7009 12.2937 11.6684 12.8898C10.636 13.4858 9.364 13.4858 8.33156 12.8898C7.29913 12.2937 6.66313 11.1921 6.66313 9.99995C6.66313 8.15705 8.1571 6.66308 10 6.66308C11.8429 6.66308 13.3369 8.15705 13.3369 9.99995Z" fill="#F0F0F0"/>
<path d="M11.2225 10.17L10 9.64062C10 9.64062 10.2862 8.69125 10.3012 8.62625C10.3527 8.40693 10.287 8.1766 10.1275 8.0175L10.435 7.71C10.2314 7.50577 9.95492 7.39098 9.66656 7.39098C9.3782 7.39098 9.1017 7.50577 8.89813 7.71L9.20563 8.0175C9.03478 8.18733 8.97199 8.43778 9.0425 8.66813L8.57938 9.13125H9.42063C9.42063 9.13125 9.0725 9.65312 8.88313 10.0825C8.69375 10.5119 8.88563 11.035 9.325 11.23L9.57875 11.3437L10 11.7394V12.1737L9.565 12.6081H10.4344V11.7387L10.8312 11.3419H11.6519L11.6637 11.3169C11.7574 11.1063 11.7635 10.8671 11.6807 10.652C11.598 10.4369 11.4331 10.2635 11.2225 10.17Z" fill="black"/>
<path d="M2.54751 3.33312H17.4531C15.6219 1.28812 12.9612 0 10 0C7.03875 0 4.37813 1.28812 2.54751 3.33312Z" fill="black"/>
</svg>
