<svg width="20" height="20" viewBox="0 0 20 20" fill="none" xmlns="http://www.w3.org/2000/svg">
<circle cx="10" cy="10" r="10" fill="#F0F0F0"/>
<path d="M2.92875 17.0712C-0.97625 13.1656 -0.97625 6.83371 2.92875 2.92871L8.69562 9.99996L2.92875 17.0712Z" fill="black"/>
<path d="M8.69563 10L1.32625 5.02002C1.09657 5.41901 0.895035 5.83356 0.723125 6.26064L4.45375 10L0.723125 13.7394C0.89625 14.1681 1.0975 14.5825 1.32563 14.9788L8.69563 10Z" fill="#FFD800"/>
<path d="M19.9156 8.69557H8.69563L2.92875 2.92932C2.30505 3.55277 1.76625 4.25569 1.32625 5.01995L6.29687 9.99995L1.32625 14.9793C1.76623 15.744 2.30503 16.4473 2.92875 17.0712L8.69563 11.3043H19.9163C20.0277 10.4383 20.0275 9.56154 19.9156 8.69557Z" fill="#5AA731"/>
<path d="M3.91188 17.9325C5.65668 19.2761 7.7978 20.0033 10 20C14.6206 20 18.5081 16.8663 19.6556 12.6088H9.23563L3.91188 17.9325H3.91188Z" fill="#0054BB"/>
<path d="M19.6556 7.39126C18.5081 3.13376 14.6206 1.08054e-05 10 1.08054e-05C7.7978 -0.00323283 5.65668 0.72388 3.91188 2.06751L9.23563 7.39189H19.6556V7.39126Z" fill="#EC0017"/>
</svg>
