<svg width="20" height="20" viewBox="0 0 20 20" fill="none" xmlns="http://www.w3.org/2000/svg">
<circle cx="9.99994" cy="9.99994" r="9.99994" fill="#F0F0F0"/>
<path fill-rule="evenodd" clip-rule="evenodd" d="M17.0036 2.86306C17.8468 3.69006 18.5372 4.65954 19.043 5.7268L9.99994 5.85742L5.72684 5.7268L2.92998 2.92994C2.95186 2.90744 2.97373 2.88494 2.99623 2.86369L9.99994 2.17369L17.0036 2.86306ZM3.04061 17.1805L2.92998 17.0705L6.08684 13.913L19.0224 14.3161C18.5096 15.3853 17.8111 16.3549 16.9593 17.1799L9.99994 17.8255L3.04061 17.1805Z" fill="#FFD800"/>
<path d="M9.99994 19.9999C12.7049 19.9999 15.1593 18.9249 16.9593 17.1799H3.04061C4.904 18.9913 7.40122 20.0032 9.99994 19.9999Z" fill="#5AA731"/>
<path d="M19.9005 8.58994L8.26057 8.26057L9.99994 9.99993L8.26057 11.7393L19.8943 11.4537C20.0325 10.5043 20.0346 9.53996 19.9005 8.58994Z" fill="black"/>
<path fill-rule="evenodd" clip-rule="evenodd" d="M19.9005 8.58989H8.58995L5.72684 5.72616H19.043C19.4717 6.63201 19.7608 7.59752 19.9005 8.58989ZM19.0218 14.3161H5.68309L8.5462 11.4536H19.8943C19.7498 12.4464 19.4556 13.4116 19.0218 14.3161Z" fill="#EC0017"/>
<path d="M9.99994 8.54536e-06C7.27246 8.54536e-06 4.79997 1.0925 2.99623 2.86374H17.0036C15.1364 1.02542 12.6202 -0.00342075 9.99994 8.54536e-06Z" fill="#5AA731"/>
<path d="M3.5706 2.34129C3.34873 2.52817 3.13373 2.72379 2.92873 2.92879L9.99994 10L2.92873 17.0712C3.13436 17.2762 3.34873 17.4718 3.5706 17.6581L11.2299 10L3.5706 2.34129Z" fill="black"/>
<path d="M4.0206 7.39119L4.6681 9.38368H6.76371L5.06872 10.6155L5.71621 12.608L4.02123 11.3762L2.32499 12.6087L2.97248 10.6162L1.27749 9.3843H3.3731L4.0206 7.39119Z" fill="#EC0017"/>
<path d="M5.80121 10.163L4.11372 9.56492C4.11372 9.56492 3.98873 8.39555 3.98185 8.35555C3.91671 8.02729 3.61377 7.80153 3.28058 7.83295C2.94739 7.86436 2.69199 8.14277 2.68936 8.47743C2.68936 8.5368 2.69811 8.59493 2.71311 8.6493L2.23999 9.12555H3.08123C3.08061 9.99992 2.42936 9.99992 2.42936 10.8693L2.79123 11.7399H4.96497L5.32747 10.8693C5.36372 10.7862 5.38559 10.6999 5.39497 10.6143C5.70621 10.4874 5.80121 10.163 5.80121 10.163Z" fill="#FFD800"/>
</svg>
