<svg width="20" height="20" viewBox="0 0 20 20" fill="none" xmlns="http://www.w3.org/2000/svg">
<path d="M20 10C20 15.5225 15.5225 20 10 20C4.4775 20 0 15.5225 0 10C0 10.0025 10 0.00125 10 0C15.5225 0 20 4.4775 20 10Z" fill="#0054BB"/>
<path fill-rule="evenodd" clip-rule="evenodd" d="M10 0V5.2175H7.06187L10 8.15562V9.97312V10H9.97312H8.155L5.2175 7.06187V10H0C0 4.4775 4.47625 0.000625 9.99813 0H10Z" fill="#F0F0F0"/>
<path fill-rule="evenodd" clip-rule="evenodd" d="M1.30438 5.05938C2.1965 3.49349 3.4935 2.19649 5.05938 1.30437H10V3.91313H3.91313V10H1.30438V5.05938ZM6.44688 5.2175L10 8.77V10L5.21751 5.2175H6.44688Z" fill="#EC0017"/>
<path fill-rule="evenodd" clip-rule="evenodd" d="M15.2463 4.92188L14.9719 4.34812L14.6975 4.92188L14.0788 4.77875L14.3556 5.35125L13.8575 5.74625L14.4775 5.88625L14.4756 6.5225L14.9719 6.125L15.4681 6.5225L15.4663 5.88625L16.0869 5.74625L15.5881 5.35125L15.8656 4.77875L15.2463 4.92188ZM17.2019 6.95625L17.4756 7.53L18.095 7.38688L17.8181 7.95937L18.3163 8.35437L17.6963 8.49437L17.6975 9.13062L17.2019 8.7325L16.705 9.13062L16.7075 8.49437L16.0869 8.35437L16.5856 7.95937L16.3075 7.38688L16.9275 7.53L17.2019 6.95625ZM12.6931 8.4L12.4194 7.82625L12.1444 8.39937L11.525 8.25625L11.8031 8.82875L11.3044 9.22375L11.925 9.36375L11.9231 10L12.4194 9.60187L12.915 10L12.9138 9.36438L13.5338 9.22438L13.0356 8.82937L13.3125 8.25688L12.6931 8.4ZM15.6075 10L15.8238 10.6644H16.5219L15.9575 11.075L16.1731 11.7394L15.6081 11.3287L15.0438 11.7394L15.2594 11.075L14.6944 10.6644H15.3931L15.6075 10ZM6.58002 12.8869L6.03127 11.7394L5.48252 12.8869L4.24314 12.6L4.79814 13.745L3.80127 14.535L5.04189 14.815L5.03877 16.0869L6.03127 15.2912L7.02377 16.0869L7.02065 14.815L8.26127 14.535L7.26439 13.745L7.8194 12.6L6.58002 12.8869ZM15.2463 14.4869L14.9719 13.9131L14.6975 14.4869L14.0788 14.3438L14.3556 14.9162L13.8575 15.3119L14.4775 15.4519L14.4756 16.0881L14.9719 15.69L15.4681 16.0881L15.4663 15.4519L16.0869 15.3119L15.5881 14.9162L15.8656 14.3438L15.2463 14.4869Z" fill="#F0F0F0"/>
</svg>
