<svg width="20" height="20" viewBox="0 0 20 20" fill="none" xmlns="http://www.w3.org/2000/svg">
<mask id="mask0_219_122130" style="mask-type:alpha" maskUnits="userSpaceOnUse" x="0" y="0" width="20" height="20">
<path d="M10 0C15.5228 0 20 4.47716 20 10C20 15.5228 15.5228 20 10 20C4.47715 20 0 15.5228 0 10C0 4.47716 4.47715 0 10 0Z" fill="white"/>
</mask>
<g mask="url(#mask0_219_122130)">
<path fill-rule="evenodd" clip-rule="evenodd" d="M-0.869568 -0.869566H20.8696V20.8696H-0.869568V-0.869566Z" fill="#5AA731"/>
</g>
<mask id="mask1_219_122130" style="mask-type:alpha" maskUnits="userSpaceOnUse" x="3" y="3" width="16" height="14">
<path d="M15.3512 14.3481L15.625 14.9219L16.245 14.7788L15.9675 15.3506L16.4662 15.7463L15.8456 15.8863L15.8475 16.5225L15.3512 16.125L14.855 16.5225L14.8569 15.8863L14.2362 15.7463L14.735 15.3506L14.4575 14.7788L15.0775 14.9219L15.3512 14.3481ZM12.4312 7.51376C11.3948 6.95407 10.12 7.09599 9.23203 7.8699C8.34409 8.64382 8.02936 9.88735 8.44224 10.9905C8.85512 12.0936 9.90899 12.8249 11.0869 12.8256C11.5563 12.8263 12.0184 12.7096 12.4312 12.4863C11.0652 13.8226 8.8769 13.8066 7.53058 12.4504C6.18426 11.0942 6.18426 8.90582 7.53058 7.54962C8.8769 6.19341 11.0652 6.1774 12.4312 7.51376ZM15.9862 10.4344L16.2025 11.0988H16.9006L16.3356 11.5094L16.5519 12.1738L15.9869 11.7631L15.4219 12.1738L15.6381 11.5094L15.0731 11.0988H15.7712L15.9862 10.4344ZM12.7981 8.26064L13.0725 8.83438L13.6925 8.69126L13.4144 9.26376L13.9131 9.65876L13.2925 9.79876L13.295 10.4344L12.7981 10.0369L12.3025 10.4344L12.3037 9.79876L11.6837 9.65876L12.1819 9.26376L11.905 8.69126L12.5244 8.83438L12.7981 8.26064ZM17.58 7.39218L17.855 7.96501L18.4744 7.82189L18.1969 8.39438L18.6956 8.78938L18.075 8.92938L18.0775 9.56564L17.5806 9.16751L17.085 9.56564L17.0862 8.92938L16.4662 8.78938L16.9644 8.39438L16.6875 7.82189L17.3062 7.96501L17.58 7.39218ZM15.3512 4.78251L15.625 5.35626L16.245 5.21313L15.9681 5.78564L16.4662 6.18064L15.8456 6.32064L15.8475 6.95689L15.3512 6.55876L14.855 6.95689L14.8569 6.32064L14.2362 6.18064L14.735 5.78564L14.4575 5.21313L15.0775 5.35626L15.3512 4.78251ZM6.29436 3.92313C6.70959 4.65417 6.54231 5.57757 5.89701 6.11648C5.2517 6.65538 4.31326 6.65538 3.66796 6.11648C3.06062 5.60927 2.87671 4.76147 3.20336 4.05402L3.27061 3.92313L4.78248 5.43501L6.29436 3.92313ZM4.78248 3.04361C5.35604 3.04361 5.88939 3.32603 6.21245 3.79269L6.28873 3.91313H3.27623C3.58697 3.37506 4.16113 3.04361 4.78248 3.04361Z" fill="white"/>
</mask>
<g mask="url(#mask1_219_122130)">
<path fill-rule="evenodd" clip-rule="evenodd" d="M1.98578 2.17405H19.5651V17.3921H1.98578V2.17405Z" fill="#FFD800"/>
</g>
<mask id="mask2_219_122130" style="mask-type:alpha" maskUnits="userSpaceOnUse" x="4" y="5" width="2" height="2">
<path d="M5.21752 5V6.46688C4.98938 6.52538 4.75238 6.53708 4.52069 6.50198L4.34814 6.46688V5H5.21752Z" fill="white"/>
</mask>
<g mask="url(#mask2_219_122130)">
<path fill-rule="evenodd" clip-rule="evenodd" d="M3.47858 4.13044H6.08708V7.40957H3.47858V4.13044Z" fill="#B20013"/>
</g>
</svg>
