<svg width="20" height="20" viewBox="0 0 20 20" fill="none" xmlns="http://www.w3.org/2000/svg">
<path d="M20 10C20 15.5225 15.5225 20 10 20C4.4775 20 0 15.5225 0 10C0 10.0025 10 0.00125 10 0C15.5225 0 20 4.4775 20 10Z" fill="#0054BB"/>
<path fill-rule="evenodd" clip-rule="evenodd" d="M13.6631 10.5694L13.4781 10L13.2944 10.5694H12.6956L13.1794 10.9213L12.9944 11.49L13.4788 11.1381L13.9625 11.49L13.7781 10.9213L14.2619 10.5694H13.6631ZM11.0187 11.0188L11.5525 11.2906L11.9762 10.8675L11.8825 11.4588L12.4162 11.7306L11.825 11.8237L11.7319 12.4156L11.46 11.8819L10.8687 11.9756L11.2919 11.5519L11.0187 11.0188ZM15.6656 11.5525L15.9375 11.0187L15.405 11.2912L14.9819 10.8681L15.075 11.4594L14.5412 11.7312L15.1325 11.8244L15.2256 12.4162L15.4981 11.8825L16.0888 11.9762L15.6656 11.5525ZM10 13.4781L10.5694 13.2931V12.6944L10.9213 13.1781L11.49 12.9931L11.1381 13.4775L11.49 13.9612L10.9213 13.7769L10.5694 14.2606V13.6619L10 13.4781ZM16.3869 13.6631L16.9569 13.4781L16.3869 13.2944V12.6956L16.035 13.1794L15.4656 12.9944L15.8175 13.4788L15.4656 13.9625L16.035 13.7775L16.3869 14.2619V13.6631ZM11.0188 15.9375L11.2906 15.4037L10.8675 14.9806L11.4587 15.0738L11.7306 14.54L11.8237 15.1312L12.415 15.2244L11.8812 15.4969L11.975 16.0881L11.5512 15.6644L11.0188 15.9375ZM15.4037 15.6656L15.9375 15.9375L15.6644 15.405L16.0875 14.9819L15.4969 15.075L15.2244 14.5413L15.1312 15.1325L14.54 15.2256L15.0738 15.4981L14.9806 16.0894L15.4037 15.6656ZM13.2931 16.3869L13.4781 16.9569L13.6619 16.3869H14.2606L13.7769 16.035L13.9613 15.4656L13.4775 15.8175L12.9931 15.4656L13.1781 16.035L12.6944 16.3869H13.2931Z" fill="#F0F0F0"/>
<path fill-rule="evenodd" clip-rule="evenodd" d="M10 0V5.2175H7.06187L10 8.15562V9.97312V10H9.97312H8.155L5.2175 7.06187V10H0C0 4.4775 4.47625 0.000625 9.99813 0H10Z" fill="#F0F0F0"/>
<path fill-rule="evenodd" clip-rule="evenodd" d="M1.30438 5.05937C2.1965 3.49349 3.4935 2.19649 5.05938 1.30437H10V3.91312H3.91313V10H1.30438V5.05937ZM6.44688 5.21687L10 8.77V10L5.21751 5.21687H6.44688Z" fill="#EC0017"/>
</svg>
