<svg width="20" height="20" viewBox="0 0 20 20" fill="none" xmlns="http://www.w3.org/2000/svg">
<circle cx="10" cy="10" r="10" fill="#008CFB"/>
<path d="M9.68498 16.2963C9.4156 16.2831 9.19248 16.1081 9.10498 15.87C8.9506 16.0712 8.6856 16.1725 8.42435 16.1056C8.1631 16.0381 7.97998 15.8213 7.94185 15.57C7.74935 15.7363 7.46998 15.7813 7.22748 15.6625C6.98498 15.5438 6.84935 15.2944 6.8631 15.0413C6.64185 15.165 6.3581 15.1538 6.14498 14.9875C5.93185 14.8225 5.84873 14.5519 5.9131 14.3062C5.67123 14.3831 5.39685 14.315 5.2206 14.11C5.04435 13.9062 5.01748 13.6237 5.12935 13.3956C4.87748 13.4231 4.62123 13.3006 4.4906 13.065C4.35873 12.8294 4.38935 12.5475 4.54498 12.3469C4.29248 12.3225 4.06623 12.1512 3.9856 11.8931C3.90435 11.6356 3.99123 11.365 4.18435 11.2006C3.94185 11.1256 3.7556 10.9119 3.72873 10.6431C3.7006 10.3756 3.83998 10.1294 4.06248 10.0062C3.8406 9.88437 3.69998 9.63812 3.72685 9.37C3.7531 9.10125 3.93935 8.8875 4.18185 8.81125C3.98873 8.64687 3.9006 8.37687 3.98123 8.11937C4.06185 7.86125 4.28748 7.68937 4.53998 7.66375C4.38373 7.46375 4.35248 7.18187 4.48373 6.94562C4.61435 6.71 4.86998 6.58687 5.12248 6.61312C5.00935 6.38562 5.03623 6.10375 5.21185 5.89812C5.38748 5.69312 5.66185 5.62437 5.90373 5.70062C5.8381 5.45687 5.92123 5.18562 6.13373 5.02C6.34623 4.85437 6.62935 4.84187 6.8506 4.965C6.83623 4.71187 6.97123 4.4625 7.21373 4.34312C7.4556 4.22375 7.7356 4.26812 7.92873 4.43437C7.9656 4.18312 8.14873 3.96562 8.40998 3.89812C8.6706 3.83 8.93623 3.93062 9.0906 4.13187C9.1781 3.89375 9.4006 3.71812 9.66998 3.705C9.93935 3.69125 10.1781 3.8425 10.29 4.06937C10.4231 3.85375 10.6756 3.72625 10.9425 3.76625C11.2094 3.80625 11.4144 4.0025 11.4775 4.24812C11.6512 4.06312 11.9256 3.98937 12.1781 4.0825C12.4319 4.17562 12.5925 4.41 12.605 4.66375C12.8125 4.5175 13.0962 4.50062 13.3244 4.64312C13.5537 4.78562 13.6637 5.04687 13.6244 5.2975C13.8575 5.19625 14.1381 5.23687 14.3337 5.42187C14.5294 5.6075 14.585 5.885 14.4962 6.12312C14.7444 6.07062 15.0112 6.16625 15.1662 6.3875C15.3212 6.60812 15.32 6.89187 15.1856 7.10687C15.4387 7.105 15.6812 7.2525 15.7887 7.5C15.8956 7.7475 15.8362 8.02562 15.6619 8.20937C15.9106 8.25937 16.1181 8.4525 16.1731 8.71687C16.2269 8.98125 16.1131 9.24062 15.905 9.38562C16.1381 9.48437 16.3025 9.715 16.3031 9.98437V10C16.3031 10.2694 16.1394 10.5006 15.9069 10.6006C16.1156 10.7437 16.2294 11.0037 16.1756 11.2681C16.1219 11.5319 15.9144 11.7256 15.6656 11.7762C15.8412 11.96 15.9012 12.2369 15.7944 12.4856C15.6875 12.7331 15.4456 12.8819 15.1919 12.8806C15.3262 13.0956 15.3287 13.3787 15.1744 13.6006C15.02 13.8219 14.7537 13.9181 14.5056 13.8656C14.595 14.1038 14.5394 14.3819 14.3437 14.5675C14.1481 14.7531 13.8675 14.7944 13.6356 14.6938C13.675 14.9438 13.565 15.2056 13.3362 15.3488C13.1075 15.4919 12.8244 15.4756 12.6162 15.33C12.6044 15.5838 12.445 15.8181 12.1912 15.9125C11.9381 16.0056 11.6637 15.9325 11.4894 15.7481C11.4269 15.9944 11.2231 16.1913 10.9556 16.2313C10.6887 16.2719 10.4356 16.145 10.3025 15.93C10.1962 16.1488 9.97185 16.2975 9.71623 16.2975C9.70623 16.2975 9.6956 16.2969 9.68498 16.2963Z" fill="#F3F3F3"/>
<circle cx="9.99998" cy="10" r="4.34813" fill="#008CFB"/>
<path d="M10.9513 8.52438C11.165 8.36626 11.3038 8.11251 11.3038 7.82626V7.39126C11.3038 6.91063 10.9144 6.52126 10.4338 6.52126H9.56438C9.08438 6.52126 8.69501 6.91063 8.69501 7.39126V7.82626C8.69501 8.11251 8.83438 8.36563 9.04751 8.52438L8.26001 16.5219C8.26001 16.5219 8.69501 16.9569 9.99938 16.9569L11.7388 16.5219L10.9513 8.52438Z" fill="#BDBCC1"/>
<path d="M10 6.52188L10.7556 8.84688H13.2L11.2219 10.2838L11.9775 12.6088L10 11.1719L8.02188 12.6088L8.7775 10.2838L6.79938 8.84688H9.24375L10 6.52188Z" fill="#F0F0F0"/>
</svg>
