<svg width="20" height="21" viewBox="0 0 20 21" fill="none" xmlns="http://www.w3.org/2000/svg">
<path fill-rule="evenodd" clip-rule="evenodd" d="M19.9287 8.87294C19.9758 9.26637 20 9.66683 20 10.0729C20 15.5958 15.5228 20.0729 10 20.0729C4.47715 20.0729 0 15.5958 0 10.0729C0 9.66683 0.0242081 9.26637 0.07126 8.87294H19.9287Z" fill="#0054BB"/>
<path fill-rule="evenodd" clip-rule="evenodd" d="M19.9287 11.2C19.9758 10.8066 20 10.4061 20 10C20 4.47715 15.5228 0 10 0C4.47715 0 0 4.47715 0 10C0 10.4061 0.0242081 10.8066 0.0712599 11.2H19.9287Z" fill="#0054BB"/>
<path d="M4.43316 13.9201L5.43311 14.8264L4.46519 15.767L5.80827 15.9123L5.57668 17.2427L6.74883 16.5704L7.34464 17.7833L7.8966 16.5508L9.09131 17.1814L8.81503 15.8597L10.1508 15.6675L9.15089 14.7612L10.119 13.82L8.77651 13.6749L9.00751 12.3443L7.83536 13.0166L7.23954 11.8038L6.68758 13.0362L5.49269 12.4062L5.76897 13.7279L4.43316 13.9201Z" fill="white"/>
<path fill-rule="evenodd" clip-rule="evenodd" d="M19.9287 11.2729C19.9758 10.8795 20 10.479 20 10.0729C20 9.66682 19.9758 9.26636 19.9287 8.87292H0.07126C0.0242081 9.26636 0 9.66682 0 10.0729C0 10.479 0.0242081 10.8795 0.07126 11.2729H19.9287Z" fill="#FFD800"/>
</svg>
