<svg width="20" height="20" viewBox="0 0 20 20" fill="none" xmlns="http://www.w3.org/2000/svg">
<path d="M20 10C20 15.5225 15.5225 20 10 20C4.4775 20 0 15.5225 0 10C0 10.0025 10 0.00125 10 0C15.5225 0 20 4.4775 20 10Z" fill="#FFD800"/>
<path fill-rule="evenodd" clip-rule="evenodd" d="M10 8.155V4.7825H6.52189L10 8.155ZM8.15564 10H5.21752L4.78314 9.13063L5.21752 6.08688L8.15564 10Z" fill="#0054BB"/>
<path fill-rule="evenodd" clip-rule="evenodd" d="M10 0V5.2175H7.06187L10 8.15562V9.97312V10H9.97312H8.155L5.2175 7.06187V10H0C0 4.4775 4.47625 0.000625 9.99813 0H10Z" fill="#F0F0F0"/>
<path fill-rule="evenodd" clip-rule="evenodd" d="M3.95313 2.03563C4.30438 1.76876 4.67376 1.52376 5.05938 1.30438H10V3.91313H3.91313V10H1.30438V5.05938C1.64376 4.46313 2.04313 3.90626 2.49313 3.39438L2.60876 3.31063L3.69313 4.09876L3.27876 2.82376L4.36313 2.03563H3.95313ZM6.44688 5.21688L10 8.77001V10L5.21751 5.21688H6.44688Z" fill="#EC0017"/>
<path d="M4.27187 1.80249C4.16437 1.87812 4.05749 1.95562 3.95312 2.03562L3.27874 2.82374L2.60874 3.31062L2.49249 3.39499C2.24663 3.67445 2.01629 3.96718 1.80249 4.27186C2.51086 4.61544 3.35913 4.47253 3.91583 3.91583C4.47253 3.35913 4.61544 2.51086 4.27187 1.80249V1.80249Z" fill="#0054BB"/>
<path fill-rule="evenodd" clip-rule="evenodd" d="M7.12752 2.40375L6.9119 1.73938L6.69627 2.40313H5.99752L6.56252 2.81375L6.3469 3.47875L6.9119 3.06813L7.4769 3.47875L7.26127 2.81438L7.82627 2.40375H7.12752ZM2.49252 3.395L2.60877 3.31063L3.69315 4.09875L3.27877 2.82375L4.36315 2.03563H3.95315C3.4223 2.43909 2.93301 2.89446 2.49252 3.395ZM2.60877 6.08688L2.82502 6.75126H3.52315L2.95815 7.16188L3.17377 7.82626L2.60877 7.41563L2.04377 7.82626L2.2594 7.16188L1.6944 6.75126H2.39315L2.60877 6.08688Z" fill="#FFD800"/>
</svg>
