<svg width="20" height="20" viewBox="0 0 20 20" fill="none" xmlns="http://www.w3.org/2000/svg">
<path d="M20 10C20 15.5225 15.5225 20 10 20C4.4775 20 0 15.5225 0 10C0 10.0025 10 0.00125 10 0C15.5225 0 20 4.4775 20 10Z" fill="#0054BB"/>
<path fill-rule="evenodd" clip-rule="evenodd" d="M10 0V5.2175H7.06187L10 8.15562V9.97312V10H9.97312H8.155L5.2175 7.06187V10H0C0 4.4775 4.47625 0.000625 9.99813 0H10Z" fill="#F0F0F0"/>
<path fill-rule="evenodd" clip-rule="evenodd" d="M1.30438 5.05938C2.1965 3.4935 3.4935 2.1965 5.05938 1.30438H10V3.91313H3.91313V10H1.30438V5.05938ZM12.5125 7.39126L12.8369 8.38751H13.885L13.0375 9.00313L13.3606 10L12.5125 9.38438L11.665 10L11.9888 9.00376L11.1419 8.38813H12.1894L12.5125 7.39126ZM17.5331 8.08501L17.3175 7.42063L17.1031 8.08501H16.4044L16.9694 8.49563L16.7531 9.16001L17.3181 8.74938L17.8831 9.16001L17.6675 8.49563L18.2319 8.08501H17.5331ZM15.145 13.1994L14.8206 12.2025L14.4994 13.1994H13.4513L14.2988 13.8144L13.975 14.8113L14.8219 14.1956L15.6694 14.8113L15.345 13.8144L16.1931 13.1994H15.145ZM10 8.77001L6.44688 5.21688H5.21688L10 10V8.77001ZM15.185 5.20751L14.915 4.37688L14.645 5.20751H13.7719L14.4788 5.72063L14.2088 6.55126L14.915 6.03813L15.6213 6.55126L15.3513 5.72063L16.0581 5.20751H15.185Z" fill="#EC0017"/>
</svg>
