<svg width="20" height="20" viewBox="0 0 20 20" fill="none" xmlns="http://www.w3.org/2000/svg">
<circle cx="10" cy="10" r="10" fill="black"/>
<mask id="mask0_131_110" style="mask-type:luminance" maskUnits="userSpaceOnUse" x="0" y="0" width="20" height="20">
<circle cx="10" cy="10" r="10" fill="white"/>
</mask>
<g mask="url(#mask0_131_110)">
<path d="M2.84058 2.92875C6.81024 -0.97625 13.247 -0.97625 17.2173 2.92875C21.1869 6.83375 21.1869 13.1656 17.2173 17.0713" fill="#B20013"/>
<path fill-rule="evenodd" clip-rule="evenodd" d="M6.37518 9.52624L6.11336 8.69562L5.85275 9.52624H5.00609L5.69094 10.0394L5.42912 10.87L6.11397 10.3569L6.79881 10.87L6.537 10.0394L7.22184 9.52624H6.37518ZM3.6376 10.87L3.89942 11.7006H4.74548L4.06063 12.2131L4.32245 13.0431L3.6376 12.5306L2.95275 13.0431L3.21457 12.2131L2.52972 11.7006H3.37639L3.6376 10.87ZM8.85033 11.7006L8.58851 10.87L8.32791 11.7006H7.48124L8.16609 12.2131L7.90427 13.0431L8.58912 12.5306L9.27397 13.0431L9.01215 12.2131L9.697 11.7006H8.85033ZM7.41094 13.4781L7.56791 13.9762H8.07578L7.66488 14.2844L7.82185 14.7825L7.41094 14.475L7.00003 14.7825L7.157 14.2844L6.74609 13.9762H7.25397L7.41094 13.4781ZM6.11336 14.7825L6.37518 15.6125H7.22184L6.537 16.1256L6.79881 16.9562L6.11397 16.4431L5.42912 16.9562L5.69094 16.1256L5.00609 15.6125H5.85275L6.11336 14.7825Z" fill="#F0F0F0"/>
<path d="M16.2327 7.40501C15.805 6.96151 15.2359 6.69285 14.6309 6.64876L16.4424 5.19564C15.7495 4.47996 14.7883 4.11158 13.8103 4.18689C13.6936 3.7547 13.4707 3.36094 13.163 3.04376L12.4473 4.51939C12.2499 4.14446 11.8583 3.92314 11.4457 3.95338C11.033 3.98363 10.6757 4.25986 10.5318 4.6598C10.3879 5.05973 10.484 5.50951 10.7776 5.81001C10.8503 5.88501 10.9309 5.94626 11.0164 5.99439L9.58545 6.73251C9.90484 7.06189 10.2885 7.28376 10.6945 7.40064C10.6217 8.40886 10.9787 9.39973 11.6721 10.1144L13.2545 8.01626C13.5016 7.76378 13.9004 7.76546 14.1454 8.02001C14.2642 8.14314 14.3303 8.30689 14.3303 8.48126C14.3303 8.65564 14.2648 8.81939 14.1454 8.94251L14.7412 9.55751C15.02 9.27001 15.1733 8.88814 15.1733 8.48126C15.1733 8.14876 15.0703 7.83251 14.8806 7.57126C15.1576 7.64751 15.4194 7.79689 15.6358 8.02001C16.2935 8.69951 16.2935 9.79989 15.6358 10.4794L16.2321 11.0938C16.7078 10.6056 16.9745 9.94148 16.9727 9.24939C16.9754 8.55724 16.7088 7.89288 16.2327 7.40501Z" fill="#FFD800"/>
</g>
</svg>
