<svg width="20" height="20" viewBox="0 0 20 20" fill="none" xmlns="http://www.w3.org/2000/svg">
<path d="M20 10C20 15.5225 15.5225 20 10 20C4.4775 20 0 15.5225 0 10C0 10.0025 10 0.00125 10 0C15.5225 0 20 4.4775 20 10Z" fill="#0054BB"/>
<path d="M15.6519 6.08687L14.3481 6.52124L13.0431 6.08687L12.6088 4.99999L13.0431 3.91312H15.6519L15.2175 4.99999L15.6519 6.08687Z" fill="#ACABB2"/>
<path d="M11.3044 6.08688V10.8688C11.3044 13.1994 14.3481 13.9125 14.3481 13.9125C14.3481 13.9125 17.3913 13.1988 17.3913 10.8688V6.08688H11.3044Z" fill="#008CFB"/>
<path d="M11.5781 12.0025C12.3262 13.4387 14.3481 13.9131 14.3481 13.9131C14.3481 13.9131 16.3687 13.4387 17.1169 12.0025L14.3481 7.39124L11.5781 12.0025Z" fill="#5AA731"/>
<path d="M17.3913 10.8213L14.3481 6.08688L11.3044 10.8213V10.8688C11.3044 11.3 11.4088 11.6756 11.5781 12.0019L14.3481 7.69438L17.1169 12.0019C17.2869 11.6756 17.3913 11.3 17.3913 10.8688V10.8213Z" fill="#FFD800"/>
<path fill-rule="evenodd" clip-rule="evenodd" d="M10 0V5.2175H7.06187L10 8.15562V9.97312V10H9.97312H8.155L5.2175 7.06187V10H0C0 4.4775 4.47625 0.000625 9.99813 0H10Z" fill="#F0F0F0"/>
<path fill-rule="evenodd" clip-rule="evenodd" d="M1.30438 5.05938C2.19501 3.49501 3.49501 2.19501 5.05938 1.30438H10V3.91313H3.91313V10H1.30438V5.05938ZM6.44688 5.21688L10 8.77001V10L5.21751 5.21688H6.44688Z" fill="#EC0017"/>
</svg>
