<svg width="20" height="20" viewBox="0 0 20 20" fill="none" xmlns="http://www.w3.org/2000/svg">
<circle cx="10" cy="10" r="10" fill="black"/>
<mask id="mask0_131_107" style="mask-type:luminance" maskUnits="userSpaceOnUse" x="0" y="0" width="20" height="20">
<circle cx="10" cy="10" r="10" fill="white"/>
</mask>
<g mask="url(#mask0_131_107)">
<path d="M19.3939 10C19.3939 9.55815 19.3655 9.12252 19.3115 8.69565H8.43212L2.84 2.92877C-0.946667 6.83377 -0.946667 13.1656 2.84 17.0713L8.43212 11.3038H19.3115C19.3655 10.8775 19.3939 10.4419 19.3939 10Z" fill="black"/>
<path d="M8.43215 11.3044L2.84003 17.0712C4.65689 18.9493 7.12455 20 9.697 20C15.3675 20 20.0001 16.8702 20.0001 11.2012L19.9875 11.3044H8.43215Z" fill="#5AA731"/>
<path d="M19.3467 10.99L19.3358 11.09L19.3467 10.99Z" fill="#F0F0F0"/>
<path fill-rule="evenodd" clip-rule="evenodd" d="M19.3553 9.01062C19.356 9.01617 19.3567 9.02172 19.3575 9.02726C19.3568 9.02171 19.356 9.01616 19.3553 9.01062ZM19.3575 9.02726C19.3622 9.06361 19.3664 9.10016 19.3707 9.13677C19.373 9.157 19.3753 9.17725 19.3778 9.1975C19.3717 9.14055 19.3649 9.08412 19.3575 9.02726ZM19.4144 10.2856C19.4119 10.3581 19.4078 10.4294 19.4036 10.5006C19.4086 10.4294 19.4119 10.3575 19.4144 10.2856ZM19.3994 10.5581C19.3961 10.6119 19.3911 10.6656 19.3861 10.7194L19.3994 10.5581ZM19.3403 11.09L19.3236 11.2012C19.33 11.1661 19.3348 11.1303 19.3396 11.0951L19.3403 11.09Z" fill="black"/>
<path d="M19.9875 8.79875C19.9875 3.74962 15.76 0 9.697 0C7.12441 0 4.65664 1.05088 2.84003 2.92937L8.43215 8.69625H20.0001L19.9875 8.79875Z" fill="#EC0017"/>
<path fill-rule="evenodd" clip-rule="evenodd" d="M8.07574 9.5619H19.3842H19.9903C19.9946 9.65752 20 9.80127 20 9.99627C20 10.1425 19.9982 10.2869 19.9916 10.4306H8.07574L2.26301 16.4256C2.09452 16.2313 1.85513 15.9319 1.74483 15.73L7.30483 9.99627L1.74907 4.2644C1.87513 4.06127 2.07877 3.77627 2.26665 3.5719L8.07574 9.5619ZM3.82543 9.77815C3.82443 10.6148 3.16701 11.2927 2.35574 11.2938V12.1313C3.61544 12.1302 4.63628 11.0772 4.63695 9.77815C4.63561 8.72386 3.80717 7.86953 2.78483 7.86815C1.94543 7.86918 1.26522 8.57065 1.26422 9.43627C1.26522 10.1565 1.8313 10.74 2.52968 10.7407C3.11877 10.7407 3.59816 10.2469 3.59816 9.6394H2.78604C2.78604 9.78502 2.67149 9.90377 2.53028 9.90377C2.27998 9.90377 2.07695 9.69377 2.07695 9.43627C2.07728 9.0329 2.39429 8.70599 2.78543 8.70565C3.35877 8.70565 3.82543 9.1869 3.82543 9.77815Z" fill="#FFD800"/>
</g>
</svg>
