<svg width="20" height="20" viewBox="0 0 20 20" fill="none" xmlns="http://www.w3.org/2000/svg">
<circle cx="10" cy="10" r="10" fill="#F0F0F0"/>
<path fill-rule="evenodd" clip-rule="evenodd" d="M0.991875 5.65187C2.61 2.30687 6.03562 0 10 0C13.965 0 17.39 2.30687 19.0075 5.65187H0.991875ZM19.0075 14.3481C17.39 17.6931 13.965 20 10 20C6.03562 20 2.61 17.6931 0.991875 14.3481H19.0075Z" fill="#008CFB"/>
<path d="M12.9887 10L11.7675 10.5744L12.4181 11.7575L11.0919 11.5044L10.9237 12.8438L10 11.8581L9.07625 12.8431L8.90812 11.5038L7.58187 11.7569L8.2325 10.5738L7.01125 10L8.2325 9.42563L7.58187 8.2425L8.90812 8.49625L9.07625 7.15625L10 8.14188L10.9244 7.15625L11.0925 8.49625L12.4187 8.2425L11.7681 9.42563L12.9887 10Z" fill="#FFD800"/>
</svg>
