<svg width="20" height="20" viewBox="0 0 20 20" fill="none" xmlns="http://www.w3.org/2000/svg">
<circle cx="10" cy="10" r="10" fill="#F0F0F0"/>
<path fill-rule="evenodd" clip-rule="evenodd" d="M0.991875 5.65187C2.61 2.30687 6.03562 0 10 0C13.965 0 17.39 2.30687 19.0075 5.65187H0.991875ZM19.0075 14.3481C17.39 17.6931 13.965 20 10 20C6.03562 20 2.61 17.6931 0.991875 14.3481H19.0075Z" fill="#008CFB"/>
<path fill-rule="evenodd" clip-rule="evenodd" d="M6.95625 10C6.95625 8.31903 8.31899 6.9563 10 6.9563C11.681 6.9563 13.0438 8.31903 13.0438 10C13.0438 11.6811 11.681 13.0438 10 13.0438C8.31899 13.0438 6.95625 11.6811 6.95625 10ZM8.26063 10C8.26063 10.9607 9.03937 11.7394 10 11.7394C10.9606 11.7394 11.7394 10.9607 11.7394 10C11.7394 9.03942 10.9606 8.26067 10 8.26067C9.03937 8.26067 8.26063 9.03942 8.26063 10Z" fill="#FFD800"/>
<path d="M11.5062 10.4344L10 10L8.49375 10.4344L7.99187 11.3044H12.0081L11.5062 10.4344Z" fill="#0054BB"/>
<path d="M10 7.82617L8.99625 9.56492L10 9.99992L11.0037 9.56492L10 7.82617Z" fill="#008CFB"/>
<path d="M8.49374 10.4343H11.5062L11.0037 9.56494H8.99562L8.49374 10.4343Z" fill="#5AA731"/>
</svg>
