<svg width="20" height="20" viewBox="0 0 20 20" fill="none" xmlns="http://www.w3.org/2000/svg">
<circle cx="10" cy="10" r="10" fill="#FFD800"/>
<path fill-rule="evenodd" clip-rule="evenodd" d="M10 0C15.5225 0 20 4.4775 20 10C20.0006 10.881 19.8848 11.7581 19.6556 12.6087H0.344377C0.115177 11.7581 -0.00061673 10.881 2.4702e-06 10C2.4702e-06 4.4775 4.4775 0 10 0ZM0.795003 13.9131C0.987503 14.3669 1.21313 14.8019 1.46813 15.2175H18.5331C18.7869 14.8019 19.0131 14.3663 19.2056 13.9131H0.795003ZM10 20C13.0313 20 15.7469 18.6513 17.5806 16.5219H2.41938C4.31724 18.7324 7.08651 20.003 10 20Z" fill="#008CFB"/>
<path d="M4.58313 6.30688L2.62875 5.445L4.5825 4.5825L5.44438 2.62875L6.30625 4.5825L8.26 5.445L6.30625 6.30688L5.44438 8.26063L4.58313 6.30688Z" fill="#F0F0F0"/>
<path d="M5.445 3.70563L5.9775 4.9125L7.18438 5.445L5.9775 5.9775L5.445 7.18375L4.9125 5.9775L3.70563 5.445L4.9125 4.9125L5.445 3.70563Z" fill="#EC0017"/>
</svg>
