<svg width="20" height="20" viewBox="0 0 20 20" fill="none" xmlns="http://www.w3.org/2000/svg">
<path d="M20 10C20 15.5225 15.5225 20 10 20C4.4775 20 0 15.5225 0 10C0 10.0025 10 0.00125 10 0C15.5225 0 20 4.4775 20 10Z" fill="#EC0017"/>
<path d="M11.3044 5.2175V10C11.3044 12.33 17.3913 12.33 17.3913 10V5.2175H11.3044Z" fill="#F3F3F3"/>
<path d="M11.3044 10C11.3044 12.33 14.3481 13.0431 14.3481 13.0431C14.3481 13.0431 17.3913 12.3294 17.3913 10H11.3044Z" fill="#5AA731"/>
<path d="M14.3481 8.08687L12.9344 8.69562V9.99999L14.3481 10.8694L15.7606 9.99999V8.69562L14.3481 8.08687Z" fill="#B20013"/>
<path d="M12.9344 7.39125H15.76V8.69563H12.9344V7.39125Z" fill="#008CFB"/>
<path fill-rule="evenodd" clip-rule="evenodd" d="M10 8.155V4.7825H6.52188L10 8.155ZM8.15563 10H5.2175L4.78313 9.13063L5.2175 6.08688L8.15563 10Z" fill="#0054BB"/>
<path fill-rule="evenodd" clip-rule="evenodd" d="M10 0V5.2175H7.06187L10 8.15562V9.97312V10H9.97312H8.155L5.2175 7.06187V10H0C0 4.4775 4.47625 0.000625 9.99813 0H10Z" fill="#F0F0F0"/>
<path fill-rule="evenodd" clip-rule="evenodd" d="M1.30437 5.05938C2.19649 3.4935 3.49349 2.1965 5.05938 1.30438H10.435V3.91313H3.91313V10.435H1.30437V5.05938ZM6.4475 5.21688L10.3981 9.16751C10.3981 9.54938 10.3981 10.3981 10.3975 10.3969L5.2175 5.21688H6.4475Z" fill="#EC0017"/>
</svg>
