<svg width="20" height="20" viewBox="0 0 20 20" fill="none" xmlns="http://www.w3.org/2000/svg">
<path d="M20 9.99999C20 8.77687 19.78 7.60499 19.3781 6.52187L10 6.08687L0.621875 6.52187C0.22 7.60499 0 8.77687 0 9.99999C0 11.2231 0.22 12.395 0.621875 13.4781L10 13.9131L19.3781 13.4787C19.78 12.395 20 11.2231 20 9.99999Z" fill="#FFD800"/>
<path d="M10 20C14.2994 20 17.965 17.2862 19.3781 13.4781H0.621872C2.035 17.2862 5.70062 20 10 20Z" fill="#5AA731"/>
<path d="M0.621872 6.52188H19.3781C17.965 2.71375 14.2994 0 10 0C5.70062 0 2.035 2.71375 0.621872 6.52188Z" fill="#EC0017"/>
</svg>
