<svg width="20" height="20" viewBox="0 0 20 20" fill="none" xmlns="http://www.w3.org/2000/svg">
<circle cx="10" cy="10" r="10" fill="#5AA731"/>
<path d="M10 3.91312L18.2606 9.99999L10 16.0869L1.73937 9.99999L10 3.91312Z" fill="#FFD800"/>
<circle cx="10" cy="10" r="3.47813" fill="#F0F0F0"/>
<path fill-rule="evenodd" clip-rule="evenodd" d="M11.0266 6.67227C12.727 7.19678 13.7571 8.92027 13.4137 10.6663C12.0651 9.26731 10.2051 8.47756 8.26187 8.47876C7.77224 8.47851 7.28386 8.52835 6.80437 8.62751C7.50426 6.9915 9.32625 6.14777 11.0266 6.67227ZM6.5225 10.045C7.07187 9.87439 7.65562 9.78251 8.26062 9.78251C10.0471 9.78228 11.7361 10.5969 12.8481 11.995C11.9823 13.2314 10.4177 13.768 8.97527 13.3233C7.53286 12.8787 6.54198 11.5543 6.5225 10.045Z" fill="#0054BB"/>
</svg>
