<svg width="20" height="20" viewBox="0 0 20 20" fill="none" xmlns="http://www.w3.org/2000/svg">
<circle cx="10" cy="10" r="10" fill="#F0F0F0"/>
<path fill-rule="evenodd" clip-rule="evenodd" d="M1.99938 4C3.82438 1.57125 6.72875 0 10 0C13.2713 0 16.1763 1.57125 18.0006 4H1.99938ZM1.77701e-06 10C1.77701e-06 10.685 0.0687536 11.3538 0.200004 12H19.8C19.9313 11.3538 20 10.685 20 10C20 9.315 19.9313 8.64625 19.8 8H0.200004C0.0666045 8.6583 -0.000397844 9.32832 1.77701e-06 10ZM10 20C13.2713 20 16.1763 18.4287 18.0006 16H1.99938C3.82375 18.4287 6.72875 20 10 20Z" fill="#0054BB"/>
<path d="M2.92941 2.92938C-0.976215 6.83438 -0.976215 13.1663 2.92941 17.0719C4.54316 15.4575 6.09441 13.905 10 10L2.92941 2.92938Z" fill="#EC0017"/>
<path d="M4.0475 7.39124L4.695 9.38374H6.79063L5.09563 10.6156L5.74313 12.6081L4.04813 11.3762L2.35313 12.6081L3.00063 10.6156L1.30563 9.38374H3.40125L4.0475 7.39124Z" fill="#F0F0F0"/>
</svg>
