<svg width="20" height="20" viewBox="0 0 20 20" fill="none" xmlns="http://www.w3.org/2000/svg">
<path d="M1.33813 15C3.0675 17.9888 6.29875 20 9.99999 20C13.7012 20 16.9325 17.9888 18.6619 15L9.99999 14.3481L1.33813 15Z" fill="#EC0017"/>
<path d="M0 9.99999C0 4.4775 4.4775 0 9.99999 0C15.5225 0 20 4.4775 20 9.99999L9.99999 10.8694L0 9.99999Z" fill="#FFD800"/>
<path d="M18.6619 15C19.5411 13.4805 20.0028 11.7555 20 9.99999H0C0 11.8212 0.4875 13.5287 1.33812 15H18.6619Z" fill="#0054BB"/>
<circle cx="9.99999" cy="9.99997" r="3.47812" fill="#FFD800"/>
<path d="M9.99999 12.1744C8.79993 12.1726 7.82762 11.2 7.82624 9.99998V8.69561C7.82624 7.49686 8.80124 6.52124 9.99999 6.52124C11.1987 6.52124 12.1744 7.49686 12.1744 8.69561V9.99998C12.173 11.2003 11.2003 12.173 9.99999 12.1744Z" fill="#008CFB"/>
<path d="M13.4781 4.78253H10.8687C10.8687 4.30221 10.4794 3.91284 9.99905 3.91284C9.51874 3.91284 9.12937 4.30221 9.12937 4.78253H6.52062C6.52062 5.26253 6.93874 5.6519 7.41937 5.6519H7.39062C7.39045 5.88252 7.48199 6.10375 7.64507 6.26682C7.80814 6.4299 8.02937 6.52144 8.25999 6.52127C8.25999 7.0019 8.64937 7.39127 9.12937 7.39127H10.8681C11.3494 7.39127 11.7387 7.0019 11.7387 6.52127C12.2187 6.52127 12.6081 6.1319 12.6081 5.6519H12.5787C13.06 5.6519 13.4781 5.26253 13.4781 4.78253Z" fill="black"/>
</svg>
