<svg width="20" height="20" viewBox="0 0 20 20" fill="none" xmlns="http://www.w3.org/2000/svg">
<circle cx="10" cy="10" r="10" fill="#F0F0F0"/>
<path fill-rule="evenodd" clip-rule="evenodd" d="M5.65187 19.0075C2.30687 17.39 0 13.965 0 10C0 6.03563 2.30687 2.61001 5.65187 0.991882V19.0075ZM14.3481 0.991882C17.6931 2.61001 20 6.03563 20 10C20 13.965 17.6931 17.39 14.3481 19.0075V0.991882Z" fill="#008CFB"/>
<path d="M12.6138 11.6906L10.9225 9.99997L12.5319 8.3906L12.4588 7.5406L11.9988 7.07997L10 9.07747L8.00188 7.07935L7.54125 7.53997L7.46813 8.38997L9.0775 9.99997L7.38625 11.6906L8.30875 12.6137L10 10.9225L11.6906 12.6137L12.6138 11.6906Z" fill="#ACABB2"/>
<path d="M12.46 7.54065L11.5369 8.46315C12.2346 9.15877 12.3776 10.2365 11.8854 11.09C11.3932 11.9435 10.3887 12.3595 9.43718 12.104C8.48564 11.8485 7.8247 10.9853 7.82625 10C7.82625 9.40002 8.06937 8.85627 8.46312 8.46315L7.54062 7.54065C6.18256 8.89902 6.18273 11.1011 7.541 12.4593C8.89927 13.8174 11.1014 13.8174 12.4596 12.4593C13.8179 11.1011 13.8181 8.89902 12.46 7.54065V7.54065Z" fill="#5AA731"/>
</svg>
