<svg width="20" height="20" viewBox="0 0 20 20" fill="none" xmlns="http://www.w3.org/2000/svg">
<circle cx="10" cy="10" r="10" fill="#F0F0F0"/>
<path d="M10 0C8.23187 0 6.57187 0.459375 5.13 1.26437V18.735C6.61817 19.5669 8.2951 20.0025 10 20C15.5225 20 20 15.5225 20 10C20 4.4775 15.5225 0 10 0Z" fill="#5AA731"/>
<path d="M5.16 1.24811C4.53315 1.59566 3.9454 2.00949 3.40688 2.48248C3.46125 2.43498 3.51563 2.38748 3.57063 2.34123L11.23 9.99998L3.57063 17.6587C4.06373 18.0735 4.59579 18.4395 5.15938 18.7519L20 9.99998L5.16 1.24811Z" fill="#F0F0F0"/>
<path d="M4.315 1.77252C4.01 1.98377 3.71688 2.21065 3.43813 2.45377L10 10L3.43813 17.5463C3.7175 17.7894 4.01063 18.0163 4.315 18.2275L18.2888 10L4.315 1.77252Z" fill="#FFD800"/>
<path d="M3.57062 2.34125C3.34875 2.52812 3.13375 2.72375 2.92875 2.92875L9.13062 10L2.92875 17.0712C3.13437 17.2762 3.34875 17.4719 3.57062 17.6581L11.23 10L3.57062 2.34125Z" fill="black"/>
<path d="M2.92875 2.92877C-0.97625 6.8344 -0.97625 13.1656 2.92875 17.0713L10 10L2.92875 2.92877Z" fill="#EC0017"/>
</svg>
