<svg width="20" height="20" viewBox="0 0 20 20" fill="none" xmlns="http://www.w3.org/2000/svg">
<path d="M20 10C20 15.5225 15.5225 20 10 20C4.4775 20 0 15.5225 0 10L10 0C10 0 20 4.4775 20 10Z" fill="#B20013"/>
<path d="M0 10C0 4.4775 4.4775 0 10 0C15.5225 0 20 4.4775 20 10" fill="#0054BB"/>
<path d="M13.4781 12.6087L10 12.1744L6.52187 12.6087V7.39124H13.4787V12.6087H13.4781Z" fill="#F0F0F0"/>
<ellipse cx="10" cy="10.435" rx="1.73938" ry="1.73937" fill="#0054BB"/>
<ellipse cx="10" cy="10.435" rx="0.869375" ry="0.869375" fill="#B20013"/>
<path d="M8.69562 8.26062H11.3044L9.99999 9.565L8.69562 8.26062Z" fill="#5AA731"/>
<path d="M9.565 9.13062H10.4344V11.7394H9.565V9.13062V9.13062Z" fill="#FFD800"/>
<path d="M11.3919 11.4781H8.60875L6.52187 12.6088H13.4787L11.3919 11.4781Z" fill="#5AA731"/>
</svg>
