<svg width="20" height="20" viewBox="0 0 20 20" fill="none" xmlns="http://www.w3.org/2000/svg">
<circle cx="10" cy="10" r="10" fill="#FFD800"/>
<path d="M16.0881 2.0675C14.4019 0.77125 12.2912 0 10 0C7.70875 0 5.59812 0.77125 3.91187 2.0675L10 8.155L16.0881 2.0675Z" fill="#5AA731"/>
<path d="M2.0675 3.91187C0.77125 5.59812 0 7.70874 0 9.99999C0 12.2912 0.77125 14.4019 2.0675 16.0881L8.155 9.99999L2.0675 3.91187Z" fill="black"/>
<path d="M3.91187 17.9325C5.59812 19.2287 7.70875 20 10 20C12.2912 20 14.4019 19.2287 16.0881 17.9325L10 11.8444L3.91187 17.9325Z" fill="#5AA731"/>
<path d="M17.9325 16.0881C19.2288 14.4019 20 12.2912 20 9.99999C20 7.70874 19.2288 5.59812 17.9325 3.91187L11.8444 9.99999L17.9325 16.0881Z" fill="black"/>
</svg>
