<svg width="20" height="20" viewBox="0 0 20 20" fill="none" xmlns="http://www.w3.org/2000/svg">
<mask id="mask0_219_122140" style="mask-type:alpha" maskUnits="userSpaceOnUse" x="0" y="0" width="20" height="20">
<path d="M10 0C15.5228 0 20 4.47716 20 10C20 15.5228 15.5228 20 10 20C4.47715 20 0 15.5228 0 10C0 4.47716 4.47715 0 10 0Z" fill="white"/>
</mask>
<g mask="url(#mask0_219_122140)">
<path fill-rule="evenodd" clip-rule="evenodd" d="M-0.869568 -0.869568H20.8696V20.8696H-0.869568V-0.869568Z" fill="#F0F0F0"/>
</g>
<mask id="mask1_219_122140" style="mask-type:alpha" maskUnits="userSpaceOnUse" x="0" y="0" width="20" height="20">
<path d="M19.1748 6.01827L19.2139 6.10957L19.2852 6.28106L19.2856 6.28093C19.5526 6.94993 19.7449 7.64187 19.862 8.34386L19.9144 8.69563H11.3037V0.0856323C12.0339 0.181063 12.7555 0.357034 13.4543 0.613572L13.8016 0.747973L14.1253 0.888016L14.4243 1.03044L14.4391 1.0374L14.5572 1.0962C14.7624 1.20167 14.9634 1.31374 15.16 1.43238L15.0878 1.38957L15.1704 1.43799L15.2765 1.50435L15.3923 1.57693L15.3923 1.57623C15.5043 1.64881 15.6148 1.72287 15.7238 1.79904L15.6513 1.74809C15.721 1.79596 15.7903 1.8448 15.859 1.89464L15.8652 1.90001L15.8678 1.90175L15.9639 1.97164C15.9987 1.99756 16.0334 2.02374 16.0679 2.05018L16.0675 2.05045L16.2808 2.21809L16.3991 2.31653L16.3837 2.30209L16.4009 2.3174L16.4962 2.39697C16.5335 2.42891 16.5706 2.46118 16.6075 2.49376L16.5261 2.42435L16.6672 2.54676L16.8116 2.67876C16.8238 2.68996 16.8357 2.70113 16.8477 2.71233L17.0706 2.92875C17.1943 3.05239 17.3141 3.17846 17.4299 3.30682L17.573 3.47131L17.5748 3.47305L17.593 3.49392L17.6913 3.60863L17.6917 3.60869L17.9109 3.88219L18.0991 4.13479L18.0243 4.03131L18.1009 4.13461C18.1299 4.1745 18.1585 4.21455 18.1868 4.25476L18.121 4.16348C18.1685 4.22959 18.2154 4.29629 18.2614 4.36359L18.2621 4.36335C18.4547 4.64608 18.6336 4.93909 18.7974 5.24147L18.9539 5.54348L18.9626 5.56088L18.9698 5.5737L19.0183 5.67566L19.0309 5.69999L19.0817 5.81044L19.1209 5.89566L19.1405 5.93808L19.1609 5.98783L19.1635 5.99218L19.1748 6.01827ZM6.52261 19.3791L6.43113 19.3444L6.34435 19.3113L6.40087 19.333L6.29573 19.2915L6.14696 19.2313L5.93741 19.1403L5.809 19.0821L5.85304 19.1035L5.70052 19.0318L5.57304 18.9704L5.68156 19.0221C5.60927 18.9874 5.53746 18.9519 5.46615 18.9155L5.4661 18.9164C4.9743 18.6649 4.50594 18.3748 4.06526 18.0493L4.06485 18.0507C3.59509 17.7021 3.15643 17.3147 2.75435 16.8921L2.75371 16.8924C2.61147 16.7419 2.47321 16.5873 2.33979 16.4285L2.33923 16.4292C1.83396 15.8264 1.39781 15.1638 1.04376 14.4531L1.08397 14.534L1.03007 14.4264L0.978261 14.3217L1.03043 14.427L0.96914 14.3C0.944688 14.2488 0.92066 14.1973 0.89706 14.1455L0.896685 14.145C0.847742 14.0374 0.800294 13.9283 0.754756 13.8181C0.741416 13.7851 0.728011 13.7521 0.714789 13.719L0.714439 13.7191C0.44735 13.0501 0.255123 12.3581 0.137954 11.6562L0.0856247 11.3044H8.69563V19.915C8.26467 19.8586 7.83666 19.7741 7.41457 19.6616L7.41423 19.6625C7.20672 19.6062 7.00031 19.544 6.79569 19.475L6.83138 19.4876L6.69901 19.4424L6.65217 19.4261L6.62492 19.4157L6.6087 19.4104L6.58348 19.4017L6.59478 19.4052L6.6087 19.4104L6.62522 19.4165L6.65217 19.4261L6.79569 19.475L6.62522 19.4165L6.59478 19.4052L6.56748 19.3953L6.52522 19.38L6.52261 19.3791ZM19.1266 14.0935L19.1026 14.1452L19.0783 14.1983L19.1017 14.1461L19.0296 14.3009L19.0783 14.1983L19.0455 14.2698L18.9687 14.427L18.9626 14.44L18.9041 14.5572C18.6512 15.0494 18.3592 15.5178 18.0319 15.9583L18.0326 15.9585L17.8122 16.2433L17.6017 16.4965L17.6591 16.4296L17.6032 16.4962C17.5713 16.5335 17.539 16.5706 17.5064 16.6076L17.506 16.6077L17.3093 16.8245L17.0713 17.0706C16.9476 17.1943 16.8215 17.3141 16.6932 17.4299L16.5287 17.5739L16.5061 17.5939L16.499 17.6007L16.4817 17.6148L16.3948 17.6887L16.2902 17.7748L16.3914 17.6913L16.253 17.8044L16.1365 17.8957L16.2113 17.8374L16.1383 17.8956C16.0873 17.9354 16.0361 17.9745 15.9845 18.0131L16.0848 17.9364L15.9614 18.0296L15.9348 18.0496L15.9617 18.0304L15.8654 18.1009C15.8255 18.1299 15.7855 18.1585 15.7452 18.1868L15.8365 18.121C15.7704 18.1686 15.7037 18.2154 15.6364 18.2614L15.6367 18.2621C15.4576 18.3836 15.2746 18.5002 15.0877 18.6109L15.0876 18.6117C14.8808 18.7333 14.6692 18.8486 14.4531 18.9562L14.5339 18.9159C14.4623 18.9523 14.3904 18.9878 14.3182 19.0224L14.3 19.0309L14.1896 19.0826L14.0991 19.1235L14.0374 19.1513L14.0122 19.1617L14.0078 19.1644L14.0374 19.1513L14.0619 19.1405L14.0078 19.1644L13.9913 19.1713L13.9826 19.1755C13.928 19.1992 13.8732 19.2225 13.8181 19.2453L13.8817 19.2183L13.7189 19.2852L13.8181 19.2453C13.7103 19.2898 13.6015 19.3326 13.4918 19.3734L13.5643 19.3452L13.4751 19.379L13.4753 19.3796C12.8876 19.5962 12.2837 19.7563 11.6722 19.8594L11.3044 19.9144V11.3038H19.915C19.8162 12.058 19.6316 12.8031 19.3611 13.5234L19.3367 13.589L19.307 13.6635L19.2518 13.8017L19.2443 13.8183L19.2093 13.9039L19.1896 13.9487L19.2078 13.9044L19.1352 14.074L19.1266 14.0935ZM6.23217 0.734789L6.34433 0.689279L6.40531 0.66609L6.28105 0.714796L6.47913 0.638267L6.52995 0.618478C7.23351 0.359562 7.96027 0.181747 8.69563 0.0856323V8.69563H0.0856247C0.211261 7.73659 0.475607 6.79215 0.878898 5.89501L1.03043 5.57392L1.03665 5.56086L1.04522 5.54348L1.05043 5.53392L1.09866 5.43777L1.11259 5.41137C1.15031 5.33846 1.1889 5.26608 1.22835 5.19423L1.22781 5.19415C1.45104 4.78863 1.70104 4.40015 1.97589 4.03126L1.97504 4.03104C2.10841 3.85339 2.24671 3.68008 2.3905 3.51161L2.33925 3.57125C2.39473 3.50528 2.45119 3.43986 2.50864 3.37501L2.50924 3.37499L2.6908 3.17485L2.92875 2.92875C3.00231 2.8552 3.07673 2.78302 3.15198 2.71224L3.26285 2.60995L3.35366 2.52759L3.47268 2.4239L3.47913 2.41827L3.50348 2.3974L3.57148 2.3398L3.57124 2.33923C3.75328 2.18707 3.94059 2.0407 4.13308 1.90102L4.13273 1.90015C4.38427 1.71874 4.64426 1.54787 4.91231 1.38915L4.91237 1.38813C5.11917 1.26667 5.33082 1.15142 5.54692 1.04377L5.4661 1.08397L5.57369 1.03008L5.64 0.998267L5.67826 0.980006L5.69998 0.969147C5.75124 0.944695 5.80274 0.920667 5.85448 0.897067L5.85511 0.896691C5.9626 0.847749 6.07176 0.800301 6.1819 0.754763L6.23217 0.734789Z" fill="white"/>
</mask>
<g mask="url(#mask1_219_122140)">
<path fill-rule="evenodd" clip-rule="evenodd" d="M-0.783943 -0.783936H20.7846V20.7846H-0.783943V-0.783936Z" fill="#0054BB"/>
</g>
<mask id="mask2_219_122140" style="mask-type:alpha" maskUnits="userSpaceOnUse" x="4" y="2" width="12" height="16">
<path d="M13.0688 12.1738C13.2661 12.1738 13.4484 12.2254 13.5962 12.3121L13.6806 12.3681H14.1713C14.9875 12.3681 15.6519 13.0325 15.6519 13.8488C15.6519 14.6226 15.0562 15.2596 14.2989 15.3246L14.1713 15.33H13.655C13.5219 15.33 13.4138 15.4381 13.4138 15.5713C13.4138 15.6854 13.4932 15.7806 13.5993 15.8059L13.6544 15.8125H15.6513V17.0525H13.6544C12.8381 17.0525 12.1738 16.3881 12.1738 15.5719C12.1738 14.7986 12.7695 14.1616 13.5267 14.0967L13.6544 14.0913H14.1706C14.3038 14.0913 14.4119 13.9825 14.4119 13.8494C14.4119 13.7353 14.3324 13.64 14.2259 13.6151L14.1706 13.6088H13.0538C12.5669 13.5988 12.1738 13.2813 12.1738 12.8894C12.1738 12.4944 12.5744 12.1738 13.0688 12.1738ZM5.24313 12.1738C5.44052 12.1738 5.62273 12.2254 5.77057 12.3121L5.855 12.3681H6.34563C7.1625 12.3681 7.82688 13.0325 7.82688 13.8488C7.82688 14.6226 7.2306 15.2596 6.47327 15.3246L6.34563 15.33H5.82875C5.69563 15.33 5.5875 15.4381 5.5875 15.5713C5.5875 15.6854 5.66694 15.7806 5.77347 15.8059L5.82875 15.8125H7.82625V17.0525H5.82875C5.0125 17.0525 4.34813 16.3881 4.34813 15.5719C4.34813 14.7986 4.94441 14.1616 5.70121 14.0967L5.82875 14.0913H6.34563C6.47875 14.0913 6.58688 13.9825 6.58688 13.8494C6.58688 13.7353 6.50744 13.64 6.40091 13.6151L6.34563 13.6088H5.22875C4.74125 13.5988 4.34813 13.2813 4.34813 12.8894C4.34813 12.4944 4.74875 12.1738 5.24313 12.1738ZM13.0688 2.94751C13.2661 2.94751 13.4484 2.99916 13.5962 3.08582L13.6806 3.14188H14.1713C14.9875 3.14188 15.6519 3.80626 15.6519 4.62313C15.6519 5.39642 15.0562 6.0334 14.2989 6.09831L14.1713 6.10375H13.655C13.5219 6.10375 13.4138 6.21188 13.4138 6.34501C13.4138 6.45911 13.4932 6.55485 13.5993 6.58027L13.6544 6.58688H15.6513V7.82626H13.6544C12.8381 7.82626 12.1738 7.16188 12.1738 6.34563C12.1738 5.57175 12.7695 4.93474 13.5267 4.86983L13.6544 4.86438H14.1706C14.3038 4.86438 14.4119 4.75626 14.4119 4.62375C14.4119 4.50965 14.3324 4.41391 14.2259 4.38889L14.1706 4.38251H13.0538C12.5669 4.37313 12.1738 4.05501 12.1738 3.66375C12.1738 3.26813 12.5744 2.94751 13.0688 2.94751ZM5.24313 2.94751C5.44052 2.94751 5.62273 2.99916 5.77057 3.08582L5.855 3.14188H6.34563C7.1625 3.14188 7.82688 3.80626 7.82688 4.62313C7.82688 5.39642 7.2306 6.0334 6.47327 6.09831L6.34563 6.10375H5.82875C5.69563 6.10375 5.5875 6.21188 5.5875 6.34501C5.5875 6.45911 5.66694 6.55485 5.77347 6.58027L5.82875 6.58688H7.82625V7.82626H5.82875C5.01188 7.82626 4.3475 7.16188 4.3475 6.34563C4.3475 5.57175 4.94378 4.93474 5.70111 4.86983L5.82875 4.86438H6.34563C6.47875 4.86438 6.58688 4.75626 6.58688 4.62375C6.58688 4.50965 6.50744 4.41391 6.40091 4.38889L6.34563 4.38251H5.22875C4.74125 4.37313 4.34813 4.05501 4.34813 3.66375C4.34813 3.26813 4.74875 2.94751 5.24313 2.94751Z" fill="white"/>
</mask>
<g mask="url(#mask2_219_122140)">
<path fill-rule="evenodd" clip-rule="evenodd" d="M3.47794 2.07794H16.5214V17.9221H3.47794V2.07794Z" fill="#F0F0F0"/>
</g>
</svg>
