<svg width="20" height="20" viewBox="0 0 20 20" fill="none" xmlns="http://www.w3.org/2000/svg">
<mask id="mask0_219_122139" style="mask-type:alpha" maskUnits="userSpaceOnUse" x="0" y="0" width="20" height="20">
<path d="M10 0C15.5228 0 20 4.47716 20 10C20 15.5228 15.5228 20 10 20C4.47715 20 0 15.5228 0 10C0 4.47716 4.47715 0 10 0Z" fill="white"/>
</mask>
<g mask="url(#mask0_219_122139)">
<path fill-rule="evenodd" clip-rule="evenodd" d="M-0.869568 -0.869568H20.8696V20.8696H-0.869568V-0.869568Z" fill="white"/>
</g>
<mask id="mask1_219_122139" style="mask-type:alpha" maskUnits="userSpaceOnUse" x="0" y="0" width="20" height="20">
<path d="M10 0C15.5225 0 20 4.4775 20 10C20 14.8428 16.5568 18.882 11.9852 19.8029L11.7436 19.8485C11.2583 19.9339 10.7609 19.9842 10.2541 19.9968L10 20C4.4775 20 0 15.5225 0 10L0.0838598 9.91651C0.125009 9.87545 0.180711 9.81983 0.249649 9.75096L0.762239 9.23873C0.978534 9.02254 1.23397 8.76718 1.51945 8.48177L2.66123 7.34017C2.73012 7.27128 2.79978 7.20163 2.87013 7.13128L3.52 6.48144C3.92615 6.0753 4.34663 5.65482 4.7693 5.23212L6.03182 3.96949L6.48 3.52126C6.70154 3.29969 6.91882 3.08238 7.12987 2.87129L8.80812 1.19265C8.89825 1.10249 8.98433 1.01638 9.06599 0.934696L9.29729 0.7033C9.36971 0.630848 9.43733 0.563201 9.49976 0.50074L9.67111 0.329291C9.85199 0.148302 9.9647 0.0354785 9.99297 0.00708554L10 0Z" fill="white"/>
</mask>
<g mask="url(#mask1_219_122139)">
<path fill-rule="evenodd" clip-rule="evenodd" d="M-0.869568 -0.869568H20.8696V20.8696H-0.869568V-0.869568Z" fill="#0054BB"/>
</g>
<mask id="mask2_219_122139" style="mask-type:alpha" maskUnits="userSpaceOnUse" x="0" y="0" width="10" height="10">
<path d="M10 0V5.2175H7.06187L10 8.15563V10H8.155L5.2175 7.06188V10H0C0 8.8955 0.17905 7.83282 0.509705 6.83942L0.588806 6.61121C0.742767 6.1837 0.925028 5.76971 1.13333 5.37149C1.21964 5.20634 1.31033 5.04419 1.40533 4.8849L1.52969 4.6821C1.5968 4.57542 1.66588 4.47009 1.73687 4.36618C1.93314 4.07867 2.14399 3.80213 2.36837 3.53742C2.49686 3.38605 2.62929 3.23888 2.76593 3.09576C2.87456 2.98176 2.98597 2.87041 3.09993 2.76173C4.89463 1.05062 7.32462 0 10 0Z" fill="white"/>
</mask>
<g mask="url(#mask2_219_122139)">
<path fill-rule="evenodd" clip-rule="evenodd" d="M-0.869568 -0.869568H10.8696V10.8696H-0.869568V-0.869568Z" fill="#F0F0F0"/>
</g>
<mask id="mask3_219_122139" style="mask-type:alpha" maskUnits="userSpaceOnUse" x="1" y="1" width="9" height="9">
<path d="M10 1.30438V3.91313H3.91313V10H1.30437V5.05938C1.36448 4.95381 1.42645 4.84944 1.49023 4.74633L1.48977 4.74608C2.1403 3.69544 2.97936 2.77422 3.96026 2.02985L3.9601 2.0294C4.21312 1.83796 4.47541 1.65782 4.74632 1.49024L4.79121 1.46202L5.05937 1.30438H10ZM6.44687 5.21689L10 8.77001V10L5.2175 5.21689H6.44687Z" fill="white"/>
</mask>
<g mask="url(#mask3_219_122139)">
<path fill-rule="evenodd" clip-rule="evenodd" d="M0.434807 0.434814H10.8696V10.8696H0.434807V0.434814Z" fill="#EC0017"/>
</g>
<mask id="mask4_219_122139" style="mask-type:alpha" maskUnits="userSpaceOnUse" x="11" y="5" width="7" height="9">
<path d="M17.3913 5.21753V10C17.3913 12.3294 14.3481 13.0432 14.3481 13.0432C14.3481 13.0432 11.4861 12.3726 11.3126 10.2074L11.3044 10V5.21753H17.3913Z" fill="white"/>
</mask>
<g mask="url(#mask4_219_122139)">
<path fill-rule="evenodd" clip-rule="evenodd" d="M10.4348 4.34796H18.2608V13.9127H10.4348V4.34796Z" fill="#008CFB"/>
</g>
<mask id="mask5_219_122139" style="mask-type:alpha" maskUnits="userSpaceOnUse" x="11" y="10" width="7" height="4">
<path d="M17.3913 10C17.3913 12.3294 14.3481 13.0431 14.3481 13.0431C14.3481 13.0431 11.4861 12.3726 11.3126 10.2074L11.3044 10H17.3913Z" fill="white"/>
</mask>
<g mask="url(#mask5_219_122139)">
<path fill-rule="evenodd" clip-rule="evenodd" d="M10.4348 9.13043H18.2608V13.9127H10.4348V9.13043Z" fill="#B20013"/>
</g>
<mask id="mask6_219_122139" style="mask-type:alpha" maskUnits="userSpaceOnUse" x="13" y="6" width="3" height="5">
<path d="M14.7825 6.52124V7.39124H15.6519V8.26061H14.7825V10.8687H13.9125V8.26061H13.0425V7.39124H13.9125V6.52124H14.7825Z" fill="white"/>
</mask>
<g mask="url(#mask6_219_122139)">
<path fill-rule="evenodd" clip-rule="evenodd" d="M12.1729 5.65167H16.5214V11.7383H12.1729V5.65167Z" fill="black"/>
</g>
</svg>
