<svg width="20" height="20" viewBox="0 0 20 20" fill="none" xmlns="http://www.w3.org/2000/svg">
<circle cx="10" cy="10" r="10" fill="#F0F0F0"/>
<path d="M20 10C20 6.03563 17.6931 2.61001 14.3481 0.991882V19.0075C17.6931 17.39 20 13.965 20 10Z" fill="#EC0017"/>
<path fill-rule="evenodd" clip-rule="evenodd" d="M5.65187 19.0075C2.30687 17.39 0 13.965 0 10C0 6.03563 2.30687 2.61001 5.65187 0.991882V19.0075ZM10 12.6088C8.55923 12.6088 7.39125 11.4408 7.39125 10V9.13063H12.6087V10C12.6087 11.4408 11.4408 12.6088 10 12.6088Z" fill="#5AA731"/>
<path d="M13.4781 8.26062H10.8687C10.8687 7.7803 10.4794 7.39093 9.99906 7.39093C9.51875 7.39093 9.12937 7.7803 9.12937 8.26062H6.52062C6.52062 8.74124 6.93875 9.13062 7.41937 9.13062H7.39062C7.39062 9.61062 7.78 9.99999 8.26 9.99999C8.25983 10.2306 8.35137 10.4518 8.51445 10.6149C8.67752 10.778 8.89875 10.8695 9.12937 10.8694H10.8681C11.3494 10.8694 11.7387 10.4806 11.7387 9.99999C12.2187 9.99999 12.6081 9.61062 12.6081 9.13062H12.5787C13.06 9.13062 13.4781 8.74124 13.4781 8.26062Z" fill="#FF9100"/>
</svg>
