<svg width="20" height="20" viewBox="0 0 20 20" fill="none" xmlns="http://www.w3.org/2000/svg">
<circle cx="10" cy="10" r="10" fill="#F0F0F0"/>
<path d="M10 20C13.965 20 17.39 17.6931 19.0075 14.3481H0.991875C2.61 17.6931 6.03562 20 10 20Z" fill="#0054BB"/>
<path d="M12.46 7.10559L11.5369 8.02809C11.9306 8.42122 12.1744 8.96497 12.1744 9.56497C12.1744 10.7656 11.2006 11.7393 10 11.7393C8.79937 11.7393 7.82625 10.765 7.82625 9.56497C7.82625 8.96497 8.06937 8.42122 8.46312 8.02809L7.54062 7.10559C6.91125 7.73497 6.52187 8.60434 6.52187 9.56497C6.52187 11.4862 8.07937 13.0431 10 13.0431C11.9212 13.0431 13.4781 11.4862 13.4781 9.56497C13.4781 8.60497 13.0887 7.73497 12.46 7.10559Z" fill="#5AA731"/>
<path d="M10 8.26062L10.3238 9.25687H11.3719L10.5244 9.87249L10.8488 10.8687L10 10.2537L9.1525 10.8687L9.47625 9.87249L8.62875 9.25687H9.67625L10 8.26062Z" fill="#FFD800"/>
<path d="M10 0C6.03562 0 2.61 2.30687 0.991875 5.65187H19.0075C17.39 2.30687 13.965 0 10 0Z" fill="#EC0017"/>
</svg>
