<svg width="20" height="20" viewBox="0 0 20 20" fill="none" xmlns="http://www.w3.org/2000/svg">
<circle cx="10" cy="10" r="10" fill="#F0F0F0"/>
<path d="M19.3781 6.52185H0.621875C0.22 7.60498 0 8.77685 0 9.99998C0 11.2231 0.22 12.395 0.621875 13.4781H19.3781C19.78 12.395 20 11.2231 20 9.99998C20 8.77685 19.78 7.60498 19.3781 6.52185Z" fill="#B20013"/>
<path fill-rule="evenodd" clip-rule="evenodd" d="M18.2787 4.34812C16.4762 1.7225 13.4537 0 10.0287 0C6.60375 0 3.58125 1.7225 1.77937 4.34812H18.2787ZM18.2787 15.6519C16.4762 18.2775 13.4537 20 10.0287 20C6.60375 20 3.58125 18.2775 1.77937 15.6519H18.2787Z" fill="#5AA731"/>
<path d="M10 6.52185L10.8631 9.17873H13.6575L11.3975 10.8212L12.2612 13.4781L10 11.8362L7.73937 13.4787L8.60312 10.8218L6.3425 9.17935H9.13625L10 6.52185Z" fill="#FFD800"/>
</svg>
