<svg width="20" height="20" viewBox="0 0 20 20" fill="none" xmlns="http://www.w3.org/2000/svg">
<mask id="mask0_219_122138" style="mask-type:alpha" maskUnits="userSpaceOnUse" x="0" y="0" width="20" height="20">
<path d="M10 0C15.5228 0 20 4.47716 20 10C20 15.5228 15.5228 20 10 20C4.47715 20 0 15.5228 0 10C0 4.47716 4.47715 0 10 0Z" fill="white"/>
</mask>
<g mask="url(#mask0_219_122138)">
<path fill-rule="evenodd" clip-rule="evenodd" d="M-0.869568 -0.869507H20.8696V20.8696H-0.869568V-0.869507Z" fill="white"/>
</g>
<mask id="mask1_219_122138" style="mask-type:alpha" maskUnits="userSpaceOnUse" x="0" y="0" width="20" height="20">
<path d="M10 0C15.5225 0 20 4.4775 20 10C20 14.8428 16.5568 18.882 11.9852 19.8029L11.7436 19.8485C11.2583 19.9339 10.7609 19.9842 10.2541 19.9968L10 20C4.4775 20 0 15.5225 0 10L0.0838598 9.91651C0.125009 9.87545 0.180711 9.81983 0.249649 9.75096L0.762239 9.23873C0.978534 9.02254 1.23397 8.76718 1.51945 8.48177L2.66123 7.34017C2.73012 7.27128 2.79978 7.20163 2.87013 7.13128L3.52 6.48144C3.92615 6.0753 4.34663 5.65482 4.7693 5.23212L6.03182 3.96949L6.48 3.52126C6.70154 3.29969 6.91882 3.08238 7.12987 2.87129L8.80812 1.19265C8.89825 1.10249 8.98433 1.01638 9.06599 0.934696L9.29729 0.7033C9.36971 0.630848 9.43733 0.563201 9.49976 0.50074L9.67111 0.329291C9.85199 0.148302 9.9647 0.0354785 9.99297 0.00708554L10 0Z" fill="white"/>
</mask>
<g mask="url(#mask1_219_122138)">
<path fill-rule="evenodd" clip-rule="evenodd" d="M-0.869568 -0.869507H20.8696V20.8696H-0.869568V-0.869507Z" fill="#0054BB"/>
</g>
<mask id="mask2_219_122138" style="mask-type:alpha" maskUnits="userSpaceOnUse" x="0" y="0" width="10" height="10">
<path d="M10 0V5.2175H7.06187L10 8.15563V10H8.155L5.2175 7.06188V10H0C0 8.8955 0.17905 7.83282 0.509705 6.83942L0.588806 6.61121C0.742767 6.1837 0.925028 5.76971 1.13333 5.37149C1.21964 5.20634 1.31033 5.04419 1.40533 4.8849L1.52969 4.6821C1.5968 4.57542 1.66588 4.47009 1.73687 4.36618C1.93314 4.07867 2.14399 3.80213 2.36837 3.53742C2.49686 3.38605 2.62929 3.23888 2.76593 3.09576C2.87456 2.98176 2.98597 2.87041 3.09993 2.76173C4.89463 1.05062 7.32462 0 10 0Z" fill="white"/>
</mask>
<g mask="url(#mask2_219_122138)">
<path fill-rule="evenodd" clip-rule="evenodd" d="M-0.869568 -0.869507H10.8696V10.8696H-0.869568V-0.869507Z" fill="#F0F0F0"/>
</g>
<mask id="mask3_219_122138" style="mask-type:alpha" maskUnits="userSpaceOnUse" x="1" y="1" width="9" height="9">
<path d="M10 1.30432V3.91307H3.91313V9.99995H1.30437V5.05932C1.36448 4.95375 1.42645 4.84938 1.49023 4.74626L1.48977 4.74602C2.1403 3.69538 2.97936 2.77416 3.96026 2.02979L3.9601 2.02934C4.21312 1.8379 4.47541 1.65776 4.74632 1.49018L4.79121 1.46196L5.05937 1.30432H10ZM6.44687 5.21683L10 8.76995V9.99995L5.2175 5.21683H6.44687Z" fill="white"/>
</mask>
<g mask="url(#mask3_219_122138)">
<path fill-rule="evenodd" clip-rule="evenodd" d="M0.434807 0.434814H10.8696V10.8696H0.434807V0.434814Z" fill="#EC0017"/>
</g>
<mask id="mask4_219_122138" style="mask-type:alpha" maskUnits="userSpaceOnUse" x="11" y="5" width="7" height="9">
<path d="M17.3913 5.21753V10C17.3913 12.3294 14.3481 13.0432 14.3481 13.0432C14.3481 13.0432 11.4861 12.3726 11.3126 10.2074L11.3044 10V5.21753H17.3913Z" fill="white"/>
</mask>
<g mask="url(#mask4_219_122138)">
<path fill-rule="evenodd" clip-rule="evenodd" d="M10.4348 4.3479H18.2608V13.9127H10.4348V4.3479Z" fill="#FFD800"/>
</g>
<mask id="mask5_219_122138" style="mask-type:alpha" maskUnits="userSpaceOnUse" x="12" y="6" width="2" height="3">
<path d="M13.0431 6.08691C13.0431 6.08691 13.9131 6.47629 13.9131 6.95629C13.9131 7.43691 13.5244 8.69566 13.0431 8.69566C12.5631 8.69566 12.1738 7.43691 12.1738 6.95629C12.1738 6.47566 13.0431 6.08691 13.0431 6.08691Z" fill="white"/>
</mask>
<g mask="url(#mask5_219_122138)">
<path fill-rule="evenodd" clip-rule="evenodd" d="M11.3042 5.21729H14.7827V9.56516H11.3042V5.21729Z" fill="#FF9100"/>
</g>
<mask id="mask6_219_122138" style="mask-type:alpha" maskUnits="userSpaceOnUse" x="15" y="6" width="2" height="3">
<path d="M15.9481 6.08752C15.9481 6.08752 16.4694 6.4119 16.4694 6.8119C16.4694 7.0301 16.3866 7.44067 16.2717 7.76893L16.2206 7.90377L16.5219 8.58377C16.345 8.65565 16.1513 8.69565 15.9487 8.69565C15.7964 8.69565 15.6493 8.67315 15.5107 8.63157L15.375 8.58377L15.6756 7.90377C15.5356 7.5619 15.4256 7.06127 15.4256 6.8119C15.4256 6.47857 15.7885 6.19775 15.9094 6.1134L15.9481 6.08752Z" fill="white"/>
</mask>
<g mask="url(#mask6_219_122138)">
<path fill-rule="evenodd" clip-rule="evenodd" d="M14.5054 5.21802H17.3914V9.56527H14.5054V5.21802Z" fill="#B20013"/>
</g>
<mask id="mask7_219_122138" style="mask-type:alpha" maskUnits="userSpaceOnUse" x="13" y="9" width="3" height="3">
<path d="M14.3481 9.56506L15 10.0001C15 10.0001 15.3848 10.7702 15.4306 11.5861L15.435 11.7394H13.2606C13.2606 10.9206 13.6459 10.1023 13.6913 10.0089L13.6956 10.0001L14.3481 9.56506Z" fill="white"/>
</mask>
<g mask="url(#mask7_219_122138)">
<path fill-rule="evenodd" clip-rule="evenodd" d="M12.3911 8.69556H16.3046V12.6091H12.3911V8.69556Z" fill="#5AA731"/>
</g>
<mask id="mask8_219_122138" style="mask-type:alpha" maskUnits="userSpaceOnUse" x="13" y="9" width="2" height="1">
<path d="M14.3481 9.13062C14.6781 9.13062 14.9509 9.37587 14.994 9.69404L15 9.78249V9.99999H13.6956V9.78249C13.6956 9.42249 13.9881 9.13062 14.3481 9.13062Z" fill="white"/>
</mask>
<g mask="url(#mask8_219_122138)">
<path fill-rule="evenodd" clip-rule="evenodd" d="M12.826 8.26111H15.8696V10.8696H12.826V8.26111Z" fill="#EC0017"/>
</g>
</svg>
