<svg width="20" height="20" viewBox="0 0 20 20" fill="none" xmlns="http://www.w3.org/2000/svg">
<circle cx="9.99997" cy="9.99997" r="9.99997" fill="#F0F0F0"/>
<path fill-rule="evenodd" clip-rule="evenodd" d="M17.7143 3.63623H2.28562C2.85639 2.94529 3.51704 2.33383 4.24999 1.81811H15.75C16.4829 2.33383 17.1435 2.94529 17.7143 3.63623ZM0.376874 7.27247H19.6237C19.4462 6.6444 19.2072 6.0354 18.9099 5.45435H1.09062C0.793148 6.03528 0.55406 6.64431 0.376874 7.27247ZM0.0412499 10.9093C0.014375 10.6093 0 10.3062 0 9.99996C0 9.69371 0.014375 9.39059 0.0412499 9.09059H19.9587C20.014 9.69559 20.0138 10.3044 19.9581 10.9093H0.0412499ZM1.09062 14.5449H18.9099C19.2043 13.9693 19.4443 13.3606 19.6237 12.7268H0.376874C0.555623 13.3612 0.795623 13.9699 1.09062 14.5449ZM4.24999 18.1818H15.75C16.4829 17.6661 17.1436 17.0546 17.7143 16.3637H2.28562C2.85639 17.0546 3.51704 17.6661 4.24999 18.1818Z" fill="#F0F0F0"/>
<path fill-rule="evenodd" clip-rule="evenodd" d="M15.75 1.81813H4.78249C6.40936 0.673135 8.6956 1.14791e-05 9.99997 1.14791e-05C12.0585 -0.00311402 14.0674 0.632087 15.75 1.81813ZM9.56497 5.455H18.9099C18.5783 4.80751 18.1774 4.19791 17.7143 3.63688H9.56497V5.455ZM19.9581 9.09061H9.56497V7.27249H19.6231C19.7908 7.86684 19.903 8.4755 19.9581 9.09061ZM0.376876 12.7268H19.6237C19.7893 12.1406 19.9024 11.5331 19.9587 10.9094H0.041252C0.0975018 11.5331 0.210626 12.1412 0.376876 12.7268ZM18.9099 14.5456C18.5782 15.193 18.1773 15.8026 17.7143 16.3637H2.28562C1.82243 15.8029 1.42173 15.1932 1.09062 14.5456H18.9099ZM15.75 18.1818C14.1237 19.3275 12.1406 20 9.99997 20C7.94137 20.0034 5.9324 19.3681 4.24999 18.1818H15.75Z" fill="#EC0017"/>
<path d="M0.376877 7.27248C0.211252 7.85873 0.0981275 8.46622 0.0418776 9.0906H9.99997V0C5.42249 0 1.56375 3.07562 0.376877 7.27248Z" fill="#0054BB"/>
<path d="M5.95248 2.60876L6.59998 4.60125H8.6956L7.0006 5.83312L7.6481 7.82624L5.95311 6.59437L4.25811 7.82624L4.90561 5.83312L3.20999 4.60125H5.30561L5.95248 2.60876Z" fill="#F0F0F0"/>
</svg>
