<svg width="20" height="20" viewBox="0 0 20 20" fill="none" xmlns="http://www.w3.org/2000/svg">
<circle cx="10" cy="10" r="10" fill="#F0F0F0"/>
<path fill-rule="evenodd" clip-rule="evenodd" d="M10 2.17376V1.02098e-05C12.2616 -0.0032269 14.457 0.763392 16.225 2.17376H10ZM10 7.39126H19.6556C19.4077 6.47253 19.0295 5.59403 18.5325 4.78251H10V7.39126ZM16.225 17.8256C17.1402 17.0972 17.9209 16.2143 18.5319 15.2169H1.46813C2.07908 16.2143 2.85981 17.0972 3.77501 17.8256H16.225Z" fill="#008CFB"/>
<path fill-rule="evenodd" clip-rule="evenodd" d="M19.6556 7.39122H10V4.78247H18.5325C19.0295 5.59399 19.4077 6.47249 19.6556 7.39122ZM0.344377 12.6087C0.115177 11.7581 -0.00061673 10.8809 2.4702e-06 9.99997H20C20.0006 10.8809 19.8848 11.7581 19.6556 12.6087H0.344377Z" fill="#008CFB"/>
<path d="M8.69563 5.85254L7.47438 6.42691L8.125 7.60941L6.79875 7.35566L6.63063 8.69566L5.70688 7.71004L4.78313 8.69566L4.61501 7.35629L3.28876 7.61004L3.93938 6.42691L2.71813 5.85254L3.93938 5.27816L3.28876 4.09504L4.61501 4.34879L4.78313 3.00879L5.70688 3.99441L6.63063 3.00879L6.79875 4.34879L8.125 4.09504L7.47438 5.27816L8.69563 5.85254Z" fill="#FFD800"/>
</svg>
