<svg width="20" height="20" viewBox="0 0 20 20" fill="none" xmlns="http://www.w3.org/2000/svg">
<path d="M20 10C20 15.5225 15.5225 20 10 20C4.4775 20 0 15.5225 0 10C0 10.0025 10 0.00125 10 0C15.5225 0 20 4.4775 20 10Z" fill="#0054BB"/>
<path d="M14.3481 10L11.645 12.7025C12.1519 13.6794 13.1713 14.3481 14.3481 14.3481C15.5244 14.3481 16.5444 13.68 17.0506 12.7025L14.3481 10Z" fill="#FFD800"/>
<path d="M11.3044 5.21753V10C11.3044 12.33 14.3481 13.0432 14.3481 13.0432C14.3481 13.0432 17.3913 12.3294 17.3913 10V5.21753H11.3044Z" fill="#5AA731"/>
<path d="M13.6956 7.39124H15V10.8687H13.6956V7.39124Z" fill="#F0F0F0"/>
<circle cx="14.3481" cy="7.39125" r="0.651875" fill="#B20013"/>
<path fill-rule="evenodd" clip-rule="evenodd" d="M15.6519 6.08691H16.5219V6.95629H15.6519V6.08691ZM13.0438 8.04379H12.1744V8.91316H13.0438V8.04379ZM15.6519 8.04379H16.5219V8.91316H15.6519V8.04379ZM13.0438 10H12.1744V10.8694H13.0438V10ZM16.5219 10H15.6519V10.8694H16.5219V10ZM13.0438 6.08691H12.1744V6.95629H13.0438V6.08691Z" fill="#FFD800"/>
<path fill-rule="evenodd" clip-rule="evenodd" d="M10 0V5.2175H7.06187L10 8.15562V9.97312V10H9.97312H8.155L5.2175 7.06187V10H0C0 4.4775 4.47625 0.000625 9.99813 0H10Z" fill="#F0F0F0"/>
<path d="M5.05937 1.30432C3.495 2.19495 2.195 3.49495 1.30437 5.05932V9.99995H3.91312V3.91307H10V1.30432H5.05937Z" fill="#EC0017"/>
<path d="M10 8.77004L6.44687 5.21692H5.2175L10 10V8.77004Z" fill="#EC0017"/>
</svg>
