<svg width="20" height="20" viewBox="0 0 20 20" fill="none" xmlns="http://www.w3.org/2000/svg">
<path fill-rule="evenodd" clip-rule="evenodd" d="M6.61545 4.3144C6.23694 4.71658 6.25613 5.34946 6.65831 5.72797L10.7844 9.23816C11.2002 9.59187 11.4081 9.76873 11.4081 9.99982C11.4081 10.2309 11.2002 10.4078 10.7844 10.7615L6.6583 14.2718C6.25613 14.6503 6.23695 15.2832 6.61546 15.6853C6.99398 16.0875 7.62685 16.1067 8.02903 15.7282L13.3417 10.728C13.5425 10.539 13.6564 10.2755 13.6564 9.99981C13.6564 9.72407 13.5425 9.46058 13.3417 9.2716L8.02902 4.27155C7.62684 3.89304 6.99397 3.91223 6.61545 4.3144Z" fill="#272A30"/>
</svg>
