<svg width="20" height="20" viewBox="0 0 20 20" fill="none" xmlns="http://www.w3.org/2000/svg">
<path fill-rule="evenodd" clip-rule="evenodd" d="M4.31453 13.3844C4.71671 13.7629 5.34959 13.7437 5.7281 13.3415L9.23829 9.21541C9.592 8.79964 9.76886 8.59175 9.99995 8.59175C10.231 8.59175 10.4079 8.79963 10.7616 9.2154L14.2719 13.3415C14.6504 13.7437 15.2833 13.7629 15.6855 13.3843C16.0876 13.0058 16.1068 12.373 15.7283 11.9708L10.7281 6.65808C10.5392 6.45729 10.2757 6.34344 9.99994 6.34345C9.7242 6.34345 9.46071 6.4573 9.27173 6.65809L4.27168 11.9708C3.89317 12.373 3.91235 13.0058 4.31453 13.3844Z" fill="#272A30"/>
</svg>
