<svg width="20" height="20" viewBox="0 0 20 20" fill="none" xmlns="http://www.w3.org/2000/svg">
<g clip-path="url(#clip0_320_3272)">
<path fill-rule="evenodd" clip-rule="evenodd" d="M9.99995 0C15.5224 0 19.9999 4.47667 19.9999 10C19.9999 15.5225 15.5224 20 9.99995 20C4.47662 20 -4.95911e-05 15.5225 -4.95911e-05 10C-4.95911e-05 4.47667 4.47662 0 9.99995 0Z" fill="#FFCE0D"/>
<path d="M8.71941 17.1476C4.87302 15.5606 2.16595 11.7735 2.16595 7.35414C2.16595 5.79193 2.50422 4.30872 3.11151 2.97378C4.39638 2.41976 5.81278 2.11283 7.30087 2.11283C8.02613 2.11283 8.73435 2.18574 9.41862 2.32462C6.16111 3.14283 3.50269 5.47004 2.22972 8.51989C2.32679 9.40612 2.53321 10.2595 2.83519 11.0662C4.42333 7.18426 7.78413 4.21553 11.9112 3.16636C15.4502 4.88046 17.8908 8.50658 17.8908 12.7027C17.8908 14.2649 17.5525 15.7481 16.9452 17.0831C15.6603 17.6371 14.2439 17.944 12.7558 17.944C12.32 17.944 11.8902 17.9177 11.4682 17.8665C14.5665 16.5373 16.903 13.7725 17.6407 10.4089C17.4793 9.67812 17.2425 8.97573 16.9388 8.31028C15.7599 12.4004 12.681 15.6852 8.71941 17.1476Z" fill="#DF5252"/>
<path fill-rule="evenodd" clip-rule="evenodd" d="M13.6082 8.47695C13.3787 8.17649 13.1086 7.8548 12.7999 7.53075L12.5197 7.79035L12.1562 7.398L12.4217 7.15206C12.1584 6.90079 11.8723 6.65254 11.5643 6.4162L11.3115 6.75061L10.8848 6.42814L11.131 6.10236C10.8944 5.94088 10.6466 5.78771 10.388 5.64619L10.7428 4.9978C11.034 5.15715 11.3122 5.3299 11.5771 5.51206L11.762 5.2674L12.1887 5.58987L12.0099 5.82652C12.3543 6.09045 12.6729 6.36804 12.9649 6.64886L13.2236 6.40923L13.587 6.80159L13.3422 7.0284C13.6718 7.375 13.9603 7.7194 14.206 8.04218L14.4199 7.88666L14.7345 8.3192L14.52 8.4752C14.766 8.83237 14.9496 9.14571 15.0677 9.38198L14.4066 9.71252C14.3034 9.50611 14.1409 9.22874 13.9222 8.90997L13.5578 9.17495L13.2432 8.7424L13.6082 8.47695Z" fill="#FFCE0D"/>
</g>
<defs>
<clipPath id="clip0_320_3272">
<rect width="20" height="20" fill="white"/>
</clipPath>
</defs>
</svg>
