<svg width="20" height="20" viewBox="0 0 20 20" fill="none" xmlns="http://www.w3.org/2000/svg">
<g clip-path="url(#clip0_114_1346)">
<path d="M10 0C15.5228 0 20 4.47715 20 10C20 15.5228 15.5228 20 10 20C4.47715 20 0 15.5228 0 10C0 4.47715 4.47715 0 10 0Z" fill="#256BAB"/>
<path fill-rule="evenodd" clip-rule="evenodd" d="M18.936 14.4935C18.536 15.2874 18.0333 16.0208 17.4453 16.676C17.2646 16.6075 17.093 16.4981 16.9421 16.3473C15.5431 14.9582 14.1562 13.5691 12.7694 12.18C12.076 11.4855 11.3827 10.7909 10.6878 10.0964C10.6055 10.0279 10.5095 9.86338 10.5369 9.82225C10.7289 9.57551 10.9346 9.31506 11.1815 9.13685C11.2638 9.08202 11.5107 9.2191 11.6479 9.31506C12.2971 9.76285 12.9463 10.2228 13.5955 10.6828C13.9201 10.9128 14.2447 11.1428 14.5693 11.3713C15.2551 11.851 15.9374 12.3343 16.6197 12.8175C17.3021 13.3007 17.9845 13.7839 18.6702 14.2637C18.7695 14.3335 18.8589 14.4101 18.936 14.4935Z" fill="white"/>
<path fill-rule="evenodd" clip-rule="evenodd" d="M16.4764 17.6197C15.8064 18.1897 15.0603 18.673 14.2555 19.052C14.2209 19.0164 14.1883 18.9785 14.1578 18.9383C13.6366 18.2529 13.1291 17.5538 12.6354 16.8546C12.0662 16.0527 11.5004 15.2439 10.9346 14.4352C10.3689 13.6264 9.8031 12.8176 9.2339 12.0157C9.00691 11.6994 8.89031 11.5694 8.89967 11.4491C8.90898 11.3296 9.04272 11.2198 9.3162 10.9465C9.61794 10.6449 9.6728 10.6449 9.97455 10.9465L13.5406 14.5106L16.0917 17.0603C16.2547 17.2313 16.3935 17.4121 16.4764 17.6197Z" fill="white"/>
<path fill-rule="evenodd" clip-rule="evenodd" d="M13.155 19.4921C12.3458 19.761 11.4906 19.9292 10.6044 19.982C10.2207 19.1872 9.83705 18.3945 9.45339 17.6084C9.13108 16.9504 8.80876 16.289 8.48644 15.6276C8.16413 14.9662 7.84181 14.3047 7.51949 13.6467C7.34783 13.3036 7.27242 13.1597 7.30015 13.0397C7.32781 12.92 7.45808 12.8239 7.69779 12.5775C7.71551 12.5687 7.7275 12.5541 7.74116 12.5375C7.74866 12.5284 7.75666 12.5187 7.76637 12.509C7.95839 12.2759 8.12298 12.3445 8.27385 12.5638C8.92279 13.486 9.57361 14.4082 10.2249 15.3311C11.2021 16.7158 12.1804 18.102 13.155 19.4921Z" fill="white"/>
<path fill-rule="evenodd" clip-rule="evenodd" d="M19.9627 10.8702C19.8857 11.7631 19.6914 12.6225 19.3952 13.4329C17.535 12.1197 15.6747 10.8072 13.8145 9.50709C13.5561 9.32267 13.3006 9.13824 13.0416 8.95135C12.723 8.72149 12.3993 8.48789 12.0589 8.24594C12.0989 8.20373 12.1378 8.16224 12.176 8.12153C12.3735 7.91104 12.5515 7.72135 12.7584 7.56054C12.8407 7.492 13.0327 7.492 13.1287 7.54683C14.1711 8.04032 15.2135 8.54752 16.2558 9.05472C16.5468 9.19676 16.8387 9.33879 17.1309 9.48103C18.0233 9.91536 18.9196 10.3516 19.8082 10.7956C19.8594 10.8206 19.911 10.8454 19.9627 10.8702Z" fill="white"/>
<path d="M3.81621 7.91673C3.73392 8.86258 4.11796 9.64395 4.63915 10.3705C4.79002 10.5761 4.94089 10.6995 5.18777 10.4527C6.80621 8.83517 8.42466 7.21761 10.0431 5.60006C10.5231 5.10657 10.5231 5.05174 9.93337 4.66791C7.79374 3.26968 4.95461 4.17442 4.02195 6.55963C3.95337 6.72412 3.89851 6.90233 3.87108 7.08053C3.82993 7.35469 3.82993 7.64256 3.81621 7.91673Z" fill="#DF5252"/>
<path d="M6.22122 11.9661C6.37028 12.0969 6.6107 12.1283 6.751 11.9881C7.66994 11.0696 8.58889 10.1375 9.52155 9.21903C10.2622 8.4788 10.9891 7.73856 11.7435 7.01203C11.9766 6.7927 12.0315 6.64191 11.7572 6.39517C11.2634 5.92909 11.2771 5.91538 10.8108 6.38146C9.20609 7.98531 7.60137 9.60286 5.99664 11.2067C5.77719 11.426 5.76348 11.5905 6.01036 11.7962C6.08019 11.8469 6.15003 11.9036 6.22122 11.9661Z" fill="black"/>
</g>
<defs>
<clipPath id="clip0_114_1346">
<rect width="20" height="20" fill="white"/>
</clipPath>
</defs>
</svg>
