<svg width="20" height="20" viewBox="0 0 20 20" fill="none" xmlns="http://www.w3.org/2000/svg">
<g clip-path="url(#clip0_317_893)">
<path d="M20 9.99998C20 15.5228 15.5228 20 10 20C4.47715 20 0 15.5228 0 9.99998C0 4.47714 4.47715 0 10 0C15.5228 0 20 4.47714 20 9.99998Z" fill="#B8CBCF"/>
<path fill-rule="evenodd" clip-rule="evenodd" d="M10 19.125C15.0144 19.125 19.1082 15.0554 19.1082 9.99998C19.1082 4.94461 15.0144 0.874998 10 0.874998C4.98563 0.874998 0.891827 4.94461 0.891827 9.99998C0.891827 15.0554 4.98563 19.125 10 19.125ZM10 20C15.5228 20 20 15.5228 20 9.99998C20 4.47714 15.5228 0 10 0C4.47715 0 0 4.47714 0 9.99998C0 15.5228 4.47715 20 10 20Z" fill="#758798"/>
<path d="M19.4401 6.69218C18.8751 6.58925 18.2909 6.53528 17.6925 6.53528C12.6289 6.53528 8.58435 10.3993 8.58435 15.0942C8.58435 16.9118 9.19056 18.6049 10.2274 19.9975C10.1519 19.9992 10.0761 20 10.0002 20C9.70527 20 9.41336 19.9872 9.12495 19.9622C8.21569 18.541 7.69252 16.8753 7.69252 15.0942C7.69252 9.884 12.1697 5.66028 17.6925 5.66028C18.1541 5.66028 18.6083 5.68978 19.0532 5.74688C19.1976 6.05377 19.3269 6.36918 19.4401 6.69218Z" fill="#758798"/>
<path d="M19.8281 11.854C18.7276 12.165 17.5588 12.3325 16.3459 12.3325C9.90222 12.3325 4.70451 7.60677 4.37017 1.73389C4.07823 1.9331 3.79738 2.14737 3.52874 2.37558C4.19296 8.46041 9.6779 13.2074 16.3459 13.2074C17.4688 13.2074 18.5581 13.0728 19.5965 12.8199C19.6892 12.5041 19.7666 12.1819 19.8281 11.854Z" fill="#758798"/>
<path d="M0.864315 14.0724C2.19574 15.182 3.90512 15.8489 5.76939 15.8489C10.0177 15.8489 13.4617 12.3855 13.4617 8.11311C13.4617 4.24874 10.6441 1.04618 6.96225 0.469727C6.30636 0.678624 5.67984 0.953355 5.09046 1.28615C5.31388 1.26374 5.54038 1.25227 5.76939 1.25227C9.50456 1.25227 12.5699 4.30348 12.5699 8.11311C12.5699 11.9227 9.50456 14.9739 5.76939 14.9739C3.48485 14.9739 1.45089 13.8325 0.215616 12.0742C0.362321 12.7697 0.581295 13.4385 0.864315 14.0724Z" fill="#758798"/>
</g>
<defs>
<clipPath id="clip0_317_893">
<rect width="20" height="20" fill="white"/>
</clipPath>
</defs>
</svg>
