<svg width="20" height="20" viewBox="0 0 20 20" fill="none" xmlns="http://www.w3.org/2000/svg">
<path fill-rule="evenodd" clip-rule="evenodd" d="M16.8284 2.17157C15.6569 1 13.7712 1 10 1C6.22876 1 4.34315 1 3.17157 2.17157C2 3.34315 2 5.22876 2 9V17.8006C2 18.2432 2.53511 18.4649 2.84807 18.1519C3.51787 17.4821 4.56732 17.3782 5.35547 17.9036L6.49314 18.6621C6.80007 18.8667 7.19993 18.8667 7.50686 18.6621L10 17L11.792 15.8053C12.3748 15.4168 12.6662 15.2226 12.9906 15.2355C13.315 15.2485 13.59 15.4654 14.14 15.8991L15.2188 16.75C16.2049 17.5478 16.698 17.9467 17.1157 17.898C17.3358 17.8724 17.5411 17.7744 17.6995 17.6194C18 17.3253 18 16.6911 18 15.4226V9C18 5.22876 18 3.34315 16.8284 2.17157ZM5 5.8125C5 5.26022 5.44772 4.8125 6 4.8125H14C14.5523 4.8125 15 5.26022 15 5.8125C15 6.36479 14.5523 6.8125 14 6.8125H6C5.44772 6.8125 5 6.36479 5 5.8125ZM5 9.3125C5 8.76022 5.44772 8.3125 6 8.3125H10.4375C10.9898 8.3125 11.4375 8.76022 11.4375 9.3125C11.4375 9.86479 10.9898 10.3125 10.4375 10.3125H6C5.44772 10.3125 5 9.86479 5 9.3125Z" fill="#272A30"/>
</svg>
