<svg width="20" height="20" viewBox="0 0 20 20" fill="none" xmlns="http://www.w3.org/2000/svg">
<g clip-path="url(#clip0_114_1350)">
<path d="M20 10C20 15.5228 15.5228 20 10 20C4.47715 20 0 15.5228 0 10C0 4.47715 4.47715 0 10 0C15.5228 0 20 4.47715 20 10Z" fill="#D46B00"/>
<path d="M1.3186 5.03338C1.89322 5.80819 2.37497 6.84957 2.77008 7.94805C3.27176 9.3428 3.66956 10.9343 3.93823 12.4406C4.75952 12.5859 5.66029 12.6881 6.60567 12.744C6.12929 10.2819 5.98256 7.60882 6.28259 5.20346C6.51328 3.35408 7.01711 1.59674 7.89278 0.222416C8.51198 0.0896092 9.15244 0.0141285 9.80836 0.00180054C8.64864 1.13515 7.92644 3.04375 7.63598 5.37228C7.34367 7.71572 7.50471 10.3679 8.00623 12.7923C9.45578 12.8076 10.9547 12.7181 12.3871 12.5181C11.7651 10.5279 11.7362 8.31842 12.3825 6.38552C12.9941 4.55618 14.2175 2.96573 16.1049 2.07911C16.5047 2.38778 16.8806 2.72605 17.2292 3.09065C15.4023 3.73707 14.2418 5.12572 13.676 6.818C13.1082 8.5162 13.1482 10.5083 13.7469 12.2901C15.6857 11.9073 17.3707 11.3111 18.5267 10.515C19.2215 10.0366 19.6981 9.51021 19.9429 8.92547C19.9807 9.27848 20 9.63698 20 10C20 10.3874 19.978 10.7697 19.9351 11.1456C19.7373 11.3194 19.5249 11.4837 19.3003 11.6384C17.996 12.5365 16.221 13.1655 14.295 13.5703C15.0187 14.9351 16.1024 16.0353 17.4934 16.6221C17.1716 16.9859 16.8237 17.3262 16.4526 17.6399C14.8488 16.8096 13.6539 15.42 12.8961 13.8222C11.4064 14.0482 9.84626 14.1575 8.33145 14.1579C8.73647 15.6523 9.26816 16.9862 9.88455 18.0233C10.4217 18.9272 10.985 19.5433 11.5341 19.8831C11.034 19.9601 10.5217 20 10 20C9.87182 20 9.7442 19.9976 9.61718 19.9928C9.28824 19.6129 8.98649 19.1819 8.71209 18.7201C7.96175 17.4575 7.35159 15.8594 6.91327 14.1259C5.95363 14.0819 5.02398 13.9926 4.15667 13.859C4.30305 14.9965 4.36483 16.0451 4.32052 16.8576C4.29618 17.304 4.23756 17.7364 4.11144 18.0832C3.69379 17.7785 3.30066 17.4421 2.93555 17.0777C2.94491 16.9892 2.95279 16.8912 2.95867 16.7833C3.00235 15.9823 2.92713 14.8524 2.74285 13.588C1.85683 13.3809 1.05272 13.1132 0.391022 12.7784C0.209824 12.1506 0.0884811 11.4974 0.0335781 10.8254C0.160035 11.0003 0.36899 11.1906 0.697498 11.3903C1.14724 11.6636 1.7537 11.9091 2.48926 12.1154C2.23778 10.8456 1.89677 9.54973 1.4867 8.40968C1.21776 7.66198 0.929701 7.01211 0.634365 6.4873C0.823984 5.98197 1.05333 5.49606 1.3186 5.03338Z" fill="black"/>
</g>
<defs>
<clipPath id="clip0_114_1350">
<rect width="20" height="20" fill="white"/>
</clipPath>
</defs>
</svg>
