<svg width="20" height="20" viewBox="0 0 20 20" fill="none" xmlns="http://www.w3.org/2000/svg">
<path fill-rule="evenodd" clip-rule="evenodd" d="M16.8274 8.22922C16.8166 8.0915 16.8046 7.95436 16.788 7.81836L17.7189 8.22922H16.8274ZM13.0223 14.4275C12.964 14.4738 12.9017 14.5155 12.8417 14.5607C12.7063 14.6624 12.5691 14.7618 12.4263 14.8544C12.344 14.9081 12.26 14.9584 12.1754 15.0087C12.0406 15.0887 11.9034 15.1641 11.7629 15.2355C11.6806 15.2772 11.6 15.3212 11.516 15.3601C11.292 15.4641 11.0646 15.5612 10.8286 15.643C9.09885 16.2441 7.29542 16.1481 5.716 15.515C4.94742 15.2064 4.23314 14.7715 3.60628 14.2224C2.68742 13.4172 1.95542 12.3744 1.52628 11.1407C1.30285 10.4858 1.18171 9.80582 1.15428 9.11725C2.08457 9.11668 2.664 9.11382 3.01942 9.09553L3.3 9.11611L3.30171 9.07268C3.30571 9.0721 3.30971 9.07153 3.31371 9.07153L3.31428 9.11553C3.33714 9.11496 3.56114 9.11496 4.56742 9.11439C4.49428 9.33039 4.44914 9.57382 4.44914 9.83668C4.44914 10.6881 4.88342 11.3738 5.42057 11.3738C5.95771 11.3738 6.392 10.6858 6.392 9.83668C6.392 9.57439 6.34628 9.33039 6.27314 9.11439H10.58C10.5063 9.33039 10.4611 9.57382 10.4611 9.83668C10.4611 10.6881 10.896 11.3738 11.4331 11.3738C11.9703 11.3738 12.4046 10.6858 12.4046 9.83668C12.4046 9.57439 12.3594 9.33096 12.2857 9.11439C13.8109 9.11496 13.8663 9.11553 13.908 9.11611C13.9509 9.11668 13.9954 9.11725 15.7046 9.11725C15.6771 9.80582 15.5566 10.4858 15.3343 11.1378C14.8771 12.4532 14.0726 13.5818 13.0223 14.4275ZM8.28571 18.8572C7.15714 18.8572 6.20057 18.2823 5.85542 16.78C6.69142 17.0497 7.55428 17.1949 8.42285 17.1949C9.18228 17.1949 9.94399 17.0857 10.6903 16.8772C10.3263 18.3057 9.38857 18.8572 8.28571 18.8572ZM12.3177 8.2292V8.22863C12.1749 5.30292 11.2166 2.91435 9.86115 1.79663C12.0977 2.23835 13.968 3.68863 14.9703 5.67263C14.9754 5.68349 14.9806 5.69435 14.9851 5.7052C15.0543 5.84349 15.12 5.98463 15.18 6.12806C15.452 6.79377 15.6211 7.50006 15.684 8.2292H12.3177ZM4.59543 8.23096H1.19315C1.47429 5.00239 3.88229 2.36067 7.07143 1.78296C5.70686 2.89153 4.73886 5.29096 4.59543 8.23096ZM5.19142 8.23083C5.36799 4.78225 6.74799 2.07254 8.45714 1.74683C10.1663 2.07254 11.5463 4.78225 11.7217 8.23083H5.19142ZM19.2537 8.25657L16.6749 7.11829C16.34 5.53029 15.5531 4.07314 14.3731 2.90457C12.9566 1.50057 11.1274 0.668 9.16229 0.506857C9.00229 0.195429 8.75143 0 8.45714 0C8.16171 0 7.91143 0.194857 7.75143 0.505714C3.43943 0.834286 0.02 4.43086 0 8.83143C0 9.74514 0.149714 10.6463 0.445714 11.5131C1.01714 13.1571 2.05886 14.5486 3.43486 15.5531C3.50571 18.0194 5.648 20 8.28571 20C10.8497 20 12.9451 18.1286 13.1251 15.7583C14.6389 14.7497 15.7994 13.2783 16.4143 11.5103C16.7097 10.6451 16.8594 9.744 16.8594 8.82914V8.82857H19.1337C19.2977 8.83086 19.4331 8.69943 19.4354 8.53543C19.4371 8.41371 19.3651 8.30343 19.2537 8.25657Z" fill="#272A30"/>
</svg>
