<svg width="20" height="20" viewBox="0 0 20 20" fill="none" xmlns="http://www.w3.org/2000/svg">
<circle cx="10" cy="10" r="10" fill="white"/>
<path fill-rule="evenodd" clip-rule="evenodd" d="M10 17.1666C13.958 17.1666 17.1667 13.958 17.1667 9.99998C17.1667 6.04194 13.958 2.83331 10 2.83331C6.04196 2.83331 2.83333 6.04194 2.83333 9.99998C2.83333 13.958 6.04196 17.1666 10 17.1666ZM10 19.1666C15.0626 19.1666 19.1667 15.0626 19.1667 9.99998C19.1667 4.93737 15.0626 0.833313 10 0.833313C4.93739 0.833313 0.833333 4.93737 0.833333 9.99998C0.833333 15.0626 4.93739 19.1666 10 19.1666Z" fill="#798293"/>
<path d="M8.97464 5.67935C8.97464 5.02801 9.50266 4.5 10.154 4.5C10.8053 4.5 11.3333 5.02801 11.3333 5.67935L11.3333 10.9896L11.3333 11C11.3333 11.6443 10.811 12.1667 10.1667 12.1667H10.1556L10.154 12.1667L10.1524 12.1667H7.33333C6.689 12.1667 6.16667 11.6443 6.16667 11C6.16667 10.3557 6.689 9.83333 7.33333 9.83333H8.97464V5.67935Z" fill="#798293"/>
</svg>
