<svg width="20" height="20" viewBox="0 0 20 20" fill="none" xmlns="http://www.w3.org/2000/svg">
<circle cx="10" cy="10" r="10" fill="white"/>
<circle cx="10" cy="9.99999" r="9.16667" fill="#33B372"/>
<path fill-rule="evenodd" clip-rule="evenodd" d="M7.4737 5.57885H12.5263C12.8751 5.57885 13.1579 5.81449 13.1579 6.10517V6.36397H14.0132C14.5582 6.36397 15 6.80579 15 7.35081V8.05444C15 8.95153 14.4931 9.77162 13.6908 10.1728L12.695 10.6707C12.6817 10.6773 12.6683 10.6834 12.6547 10.6888C12.1828 11.2978 11.4173 11.734 10.5251 11.8584C10.5259 11.8704 10.5263 11.8825 10.5263 11.8947V13.4736H12.1053C12.3959 13.4736 12.6316 13.7092 12.6316 13.9999C12.6316 14.2906 12.3959 14.5262 12.1053 14.5262H10.0018L10 14.5262L9.99826 14.5262H7.89474C7.60407 14.5262 7.36843 14.2906 7.36843 13.9999C7.36843 13.7092 7.60407 13.4736 7.89474 13.4736H9.4737V11.8947C9.4737 11.8825 9.47411 11.8704 9.47492 11.8584C8.5827 11.734 7.81723 11.2978 7.34529 10.6888C7.33175 10.6834 7.31832 10.6773 7.30504 10.6707L6.30926 10.1728C5.50688 9.77162 5.00002 8.95153 5.00002 8.05444V7.35081C5.00002 6.80579 5.44184 6.36397 5.98686 6.36397H6.84212V6.10517C6.84212 5.81449 7.12489 5.57885 7.4737 5.57885ZM6.84212 7.4166H6.05265V8.05444C6.05265 8.55282 6.33424 9.00842 6.78 9.2313L6.84212 9.26236V7.4166ZM13.1579 9.26236V7.4166H13.9474V8.05444C13.9474 8.55282 13.6658 9.00842 13.22 9.2313L13.1579 9.26236Z" fill="white"/>
</svg>
