<svg width="20" height="20" viewBox="0 0 20 20" fill="none" xmlns="http://www.w3.org/2000/svg">
<path d="M7 15.125C6.57292 15.125 6.00003 15.5727 6.00003 16.125C6.00003 16.6773 6.57292 17.125 7 17.125H13C13.4271 17.125 14 16.6773 14 16.125C14 15.5727 13.4271 15.125 13 15.125H7Z" fill="#272A30"/>
<path fill-rule="evenodd" clip-rule="evenodd" d="M1 7.375C1 5.25368 1 4.19302 1.65901 3.53401C2.31802 2.875 3.37868 2.875 5.5 2.875H14.5C16.6213 2.875 17.682 2.875 18.341 3.53401C19 4.19302 19 5.25368 19 7.375V9.625C19 11.7463 19 12.807 18.341 13.466C17.682 14.125 16.6213 14.125 14.5 14.125H5.5C3.37868 14.125 2.31802 14.125 1.65901 13.466C1 12.807 1 11.7463 1 9.625V7.375ZM11.6875 7.52572C12.4375 7.95873 12.8125 8.17524 12.8125 8.5C12.8125 8.82476 12.4375 9.04127 11.6875 9.47428L9.15625 10.9357C8.40625 11.3687 8.03125 11.5852 7.75 11.4228C7.46875 11.2605 7.46875 10.8274 7.46875 9.96142V7.03858C7.46875 6.17256 7.46875 5.73954 7.75 5.57716C8.03125 5.41478 8.40625 5.63129 9.15625 6.0643L11.6875 7.52572Z" fill="#272A30"/>
</svg>
