<svg width="134" height="20" viewBox="0 0 134 20" fill="none" xmlns="http://www.w3.org/2000/svg">
<path fill-rule="evenodd" clip-rule="evenodd" d="M7.21397 2.194L7.5038 1H11.4421L9.18314 9.991L7.21259 17.7895L7.2112 17.7865L6.9075 19L1 9.991H5.24342L7.21259 2.191L7.21397 2.194ZM13.1064 1.0015V1L19 9.952L18.7504 10.0285L14.7691 9.9805L14.7704 9.988V9.991L12.8013 17.7895V17.7865L12.4962 19H8.55786L10.8321 9.991L12.8013 2.191L12.8027 2.194L13.1064 1.0015Z" fill="#009EE2"/>
<path d="M31.24 17.24C33.26 17.24 35.68 16.28 37.2 14.92L34.74 12.2C33.9 13.1 32.56 13.72 31.54 13.72C30.22 13.72 28.92 12.7 28.92 10.96C28.92 8.72 31.1 6.54 33.4 6.54C34.54 6.54 35.38 7.08 35.82 7.82L39.02 5.54C37.92 4.1 35.94 3.02 33.58 3.02C29.12 3.02 24.98 6.84 24.98 11.04C24.98 14.54 27.84 17.24 31.24 17.24ZM48.3187 17H52.6188L50.2188 3.34L50.2588 3.26H45.8188L37.6787 17H42.1388L43.2188 15.16H47.9988L48.3187 17ZM44.9188 12.3L46.8988 8.96L47.4788 12.3H44.9188ZM59.4266 17.24C63.0666 17.24 65.9466 15.26 65.9466 12.2C65.9466 10.02 64.5066 9.26 61.3066 8.52C59.8066 8.18 59.3266 8.08 59.3266 7.58C59.3266 7 59.9866 6.24 61.3266 6.24C62.2066 6.24 63.6066 6.56 64.7466 7.54L67.0666 4.98C65.6866 3.68 63.7666 3.02 61.6866 3.02C57.8866 3.02 55.3666 5.22 55.3666 8.04C55.3666 10.6 57.4266 11.14 60.0466 11.8C61.6266 12.2 62.0066 12.24 62.0066 12.68C62.0066 13.28 61.2666 14.02 59.7066 14.02C58.4466 14.02 56.9466 13.54 55.7866 12.44L53.2666 14.82C54.6866 16.32 56.9466 17.24 59.4266 17.24ZM78.5558 3.26L77.5558 8.26H72.5358L73.5358 3.26H69.6558L66.7958 17H70.6758L71.7558 11.72H76.7758L75.7158 17H79.5758L82.4358 3.26H78.5558ZM94.5608 17.24C98.9208 17.24 103.361 13.44 103.361 9.02C103.361 5.66 100.721 3.02 97.0208 3.02C92.6808 3.02 88.2408 6.8 88.2408 11.22C88.2408 14.58 90.8808 17.24 94.5608 17.24ZM94.8008 13.72C93.2608 13.72 92.1808 12.6 92.1808 11.1C92.1808 8.94 94.4608 6.54 96.8008 6.54C98.3208 6.54 99.4208 7.66 99.4208 9.16C99.4208 11.32 97.1408 13.72 94.8008 13.72ZM110.31 17.24C114.03 17.24 117.13 14.78 117.89 11.06L119.51 3.26H115.63L114.13 10.54C113.75 12.3 112.23 13.72 110.55 13.72C109.11 13.72 108.37 12.62 108.73 10.86L110.31 3.26H106.43L104.87 10.74C104.11 14.46 106.35 17.24 110.31 17.24ZM122.245 17H126.125L128.265 6.72H132.325L133.045 3.26H121.045L120.325 6.72H124.385L122.245 17Z" fill="#272A30"/>
</svg>
