<svg width="20" height="20" viewBox="0 0 20 20" fill="none" xmlns="http://www.w3.org/2000/svg">
<path fill-rule="evenodd" clip-rule="evenodd" d="M11.2959 1.90002H8.70411C7.56779 1.90002 6.52901 2.54203 6.02083 3.55838L5.4375 4.72503C4.99513 4.75281 4.59746 4.78382 4.24075 4.81658C2.44194 4.98177 1.18874 6.30157 1.08346 8.10488C1.03428 8.94712 1 10.0135 1 11.3499C1 12.6863 1.03428 13.7527 1.08346 14.595C1.18874 16.3983 2.44194 17.7181 4.24075 17.8833C5.5484 18.0033 7.4063 18.0999 10 18.0999C12.5937 18.0999 14.4516 18.0033 15.7593 17.8833C17.5581 17.7181 18.8113 16.3983 18.9165 14.595C18.9657 13.7527 19 12.6863 19 11.3499C19 10.0135 18.9657 8.94712 18.9165 8.10488C18.8113 6.30157 17.5581 4.98177 15.7593 4.81658C15.4025 4.78382 15.0049 4.75281 14.5625 4.72503L13.9792 3.55838C13.471 2.54203 12.4322 1.90002 11.2959 1.90002ZM10.0007 15.4001C12.2375 15.4001 14.0507 13.5868 14.0507 11.3501C14.0507 9.11333 12.2375 7.30008 10.0007 7.30008C7.76396 7.30008 5.95072 9.11333 5.95072 11.3501C5.95072 13.5868 7.76396 15.4001 10.0007 15.4001Z" fill="#272A30"/>
</svg>
