<svg width="20" height="20" viewBox="0 0 20 20" fill="none" xmlns="http://www.w3.org/2000/svg">
<g clip-path="url(#clip0_114_1332)">
<path d="M19.9877 10.5H10.2V0.00195312C15.6305 0.10846 20 4.54395 20 9.99999C20 10.1677 19.9959 10.3344 19.9877 10.5Z" fill="#F3DCCE"/>
<path d="M19.9877 10.5C19.7305 15.7246 15.4636 19.8948 10.2 19.998L10.2 10.5H19.9877Z" fill="#EAC169"/>
<path d="M10.2 0.00195919V10.5H0.0122825C0.00412617 10.3344 0 10.1677 0 10C0 4.47715 4.47715 0 10 0C10.0668 0 10.1335 0.000655087 10.2 0.00195919Z" fill="#EAC169"/>
<path d="M10.2 19.998C10.1335 19.9993 10.0668 20 10 20C4.64482 20 0.272798 15.7906 0.0122825 10.5H10.2V19.998Z" fill="#F3DCCE"/>
<path d="M10.2299 2.1875C8.77682 2.1875 7.59886 3.36546 7.59886 4.81855C7.59886 5.66676 8.00024 6.42123 8.62342 6.90237H7.87245C7.39585 6.90237 7.00948 7.28874 7.00948 7.76535C7.00948 8.24195 7.39585 8.62832 7.87245 8.62832H9.27754C9.25286 8.68424 9.23373 8.74651 9.21061 8.82177L7.53489 14.2679C7.5031 14.3712 7.47258 14.4704 7.44465 14.5638H6.679C6.44497 14.5638 6.2474 14.5638 6.08759 14.5813C5.91923 14.5997 5.76039 14.6401 5.61957 14.7434C5.5437 14.7991 5.47676 14.8661 5.42106 14.9419C5.31768 15.0828 5.27729 15.2416 5.25891 15.41C5.24146 15.5698 5.24147 15.7673 5.24148 16.0014V16.031C5.24147 16.265 5.24146 16.4626 5.25891 16.6224C5.27729 16.7908 5.31768 16.9496 5.42106 17.0904C5.47676 17.1663 5.5437 17.2332 5.61957 17.2889C5.76039 17.3923 5.91923 17.4327 6.08759 17.4511C6.24739 17.4685 6.44494 17.4685 6.67895 17.4685H13.781C14.015 17.4685 14.2126 17.4685 14.3723 17.4511C14.5407 17.4327 14.6996 17.3923 14.8404 17.2889C14.9162 17.2332 14.9832 17.1663 15.0389 17.0904C15.1423 16.9496 15.1827 16.7908 15.201 16.6224C15.2185 16.4626 15.2185 16.265 15.2185 16.031V16.0014C15.2185 15.7673 15.2185 15.5698 15.201 15.41C15.1827 15.2416 15.1423 15.0828 15.0389 14.9419C14.9832 14.8661 14.9162 14.7991 14.8404 14.7434C14.6996 14.6401 14.5407 14.5997 14.3723 14.5813C14.2125 14.5638 14.015 14.5638 13.7809 14.5638H13.0152C12.9873 14.4706 12.9571 14.3725 12.9254 14.2694L11.2492 8.82177C11.2261 8.74651 11.207 8.68424 11.1823 8.62832H12.5873C13.0639 8.62832 13.4503 8.24195 13.4503 7.76535C13.4503 7.28874 13.0639 6.90237 12.5873 6.90237H11.8364C12.4596 6.42123 12.861 5.66676 12.861 4.81855C12.861 3.36546 11.683 2.1875 10.2299 2.1875Z" fill="black"/>
</g>
<defs>
<clipPath id="clip0_114_1332">
<rect width="20" height="20" fill="white"/>
</clipPath>
</defs>
</svg>
