<svg width="20" height="20" viewBox="0 0 20 20" fill="none" xmlns="http://www.w3.org/2000/svg">
<path fill-rule="evenodd" clip-rule="evenodd" d="M16.8258 4.24239C16.7299 4.19031 16.619 4.18317 16.5098 4.19861C16.2887 4.22987 15.8693 4.29325 15.3994 4.38515C14.756 4.51095 14.0865 4.3594 13.5161 4.03622C12.9353 3.70708 12.4614 3.19929 12.242 2.56876C12.0921 2.13789 11.944 1.76446 11.8632 1.5662C11.8222 1.46567 11.7604 1.37497 11.6665 1.31956C11.4553 1.19491 10.9731 0.992916 10.0735 1.00019C9.17392 1.00747 8.68836 1.21729 8.47508 1.34537C8.38027 1.4023 8.31701 1.49401 8.27437 1.59522C8.18995 1.79559 8.0349 2.1736 7.8773 2.60907C7.64846 3.24139 7.17005 3.75343 6.58768 4.08966C6.00533 4.42588 5.32271 4.58417 4.66071 4.46619C4.20476 4.38494 3.79987 4.33021 3.58413 4.30313C3.47516 4.28946 3.3641 4.29839 3.2674 4.35202C3.04983 4.47269 2.62534 4.78829 2.16925 5.56372C1.71315 6.33914 1.64699 6.85774 1.64932 7.10299C1.65036 7.212 1.69803 7.31085 1.76459 7.39661C1.89586 7.56575 2.14521 7.88067 2.44338 8.22592C2.87975 8.7312 3.08255 9.39552 3.07718 10.0631C3.0719 10.7186 2.86835 11.3743 2.43772 11.8686C2.12316 12.2296 1.85859 12.5611 1.72098 12.7369C1.653 12.8238 1.60372 12.9234 1.6009 13.0325C1.59456 13.2778 1.65227 13.7954 2.09576 14.5635C2.53925 15.3317 2.95865 15.6405 3.17427 15.7576C3.27011 15.8097 3.38104 15.8168 3.49024 15.8014C3.71133 15.7701 4.1307 15.7068 4.60065 15.6149C5.244 15.4891 5.9136 15.6406 6.48394 15.9638C7.06479 16.2929 7.53871 16.8007 7.75811 17.4313C7.90802 17.8621 8.05607 18.2355 8.13691 18.4338C8.17791 18.5343 8.23968 18.625 8.33357 18.6804C8.54479 18.8051 9.02699 19.0071 9.92658 18.9998C10.8262 18.9925 11.3117 18.7827 11.525 18.6546C11.6198 18.5977 11.6831 18.506 11.7257 18.4048C11.8101 18.2044 11.9652 17.8264 12.1228 17.3909C12.3516 16.7586 12.83 16.2466 13.4124 15.9104C13.9947 15.5741 14.6774 15.4158 15.3394 15.5338C15.7953 15.6151 16.2002 15.6698 16.416 15.6969C16.5249 15.7105 16.636 15.7016 16.7327 15.648C16.9503 15.5273 17.3747 15.2117 17.8308 14.4363C18.2869 13.6609 18.3531 13.1423 18.3508 12.897C18.3497 12.788 18.3021 12.6892 18.2355 12.6034C18.1042 12.4342 17.8548 12.1193 17.5567 11.774C17.1203 11.2688 16.9175 10.6045 16.9229 9.93686C16.9281 9.28136 17.1317 8.62571 17.5623 8.13146C17.8769 7.77042 18.1415 7.43891 18.2791 7.26307C18.347 7.17622 18.3963 7.07658 18.3991 6.96754C18.4055 6.72223 18.3478 6.20463 17.9043 5.43648C17.4608 4.66833 17.0414 4.35955 16.8258 4.24239ZM9.99972 13.477C11.92 13.477 13.4767 11.9203 13.4767 10.0001C13.4767 8.07978 11.92 6.52308 9.99972 6.52308C8.07944 6.52308 6.52275 8.07978 6.52275 10.0001C6.52275 11.9203 8.07944 13.477 9.99972 13.477Z" fill="#272A30"/>
</svg>
