<svg width="20" height="20" viewBox="0 0 20 20" fill="none" xmlns="http://www.w3.org/2000/svg">
<path fill-rule="evenodd" clip-rule="evenodd" d="M1 8.8039C1 5.18842 1 3.38068 2.08394 2.22624C2.14141 2.16503 2.2008 2.10565 2.26201 2.04818C3.41644 0.964233 5.22418 0.964233 8.83966 0.964233H11.1603C14.7758 0.964233 16.5835 0.964233 17.738 2.04818C17.7992 2.10565 17.8586 2.16503 17.916 2.22624C19 3.38068 19 5.18842 19 8.8039C19 12.4194 19 14.2271 17.916 15.3816C17.8586 15.4428 17.7992 15.5021 17.738 15.5596C16.5835 16.6436 14.7758 16.6436 11.1603 16.6436H9.99998L7.02998 18.4998C6.35347 18.9226 6.01522 19.134 5.75761 18.9912C5.49999 18.8484 5.49999 18.4495 5.49999 17.6518V16.6436C5.03566 16.6436 4.8035 16.6436 4.60794 16.6243C2.70882 16.4373 1.2063 14.9347 1.01926 13.0356C1 12.8401 1 12.6079 1 12.1436V8.8039ZM3.99997 10.8125C3.99997 10.2602 4.44768 9.8125 4.99997 9.8125H15C15.5523 9.8125 16 10.2602 16 10.8125C16 11.3648 15.5523 11.8125 15 11.8125H4.99997C4.44768 11.8125 3.99997 11.3648 3.99997 10.8125ZM4.99997 5.8125C4.44768 5.8125 3.99997 6.26022 3.99997 6.8125C3.99997 7.36478 4.44768 7.8125 4.99997 7.8125H15C15.5523 7.8125 16 7.36478 16 6.8125C16 6.26022 15.5523 5.8125 15 5.8125H4.99997Z" fill="#272A30"/>
</svg>
