<svg width="20" height="20" viewBox="0 0 20 20" fill="none" xmlns="http://www.w3.org/2000/svg">
<path fill-rule="evenodd" clip-rule="evenodd" d="M9 2C5.22876 2 3.34315 2 2.17157 3.17157C1 4.34315 1 6.22876 1 10C1 13.7712 1 15.6569 2.17157 16.8284C3.34315 18 5.22876 18 9 18V13.874C7.27477 13.4299 6 11.8638 6 10C6 8.13616 7.27477 6.57006 9 6.12602L9 2ZM5 7C5 6.44772 4.55228 6 4 6C3.44772 6 3 6.44772 3 7V13C3 13.5523 3.44772 14 4 14C4.55228 14 5 13.5523 5 13L5 7Z" fill="#272A30"/>
<path fill-rule="evenodd" clip-rule="evenodd" d="M11 18C14.7712 18 16.6569 18 17.8284 16.8284C19 15.6569 19 13.7712 19 10C19 6.22876 19 4.34315 17.8284 3.17157C16.6569 2 14.7712 2 11 2V6.12602C12.7252 6.57006 14 8.13616 14 10C14 11.8638 12.7252 13.4299 11 13.874L11 18ZM17 7C17 6.44772 16.5523 6 16 6C15.4477 6 15 6.44772 15 7V13C15 13.5523 15.4477 14 16 14C16.5523 14 17 13.5523 17 13V7Z" fill="#272A30"/>
<path d="M12 10C12 11.1046 11.1046 12 10 12C8.89543 12 8 11.1046 8 10C8 8.89543 8.89543 8 10 8C11.1046 8 12 8.89543 12 10Z" fill="#272A30"/>
</svg>
