<svg width="20" height="20" viewBox="0 0 20 20" fill="none" xmlns="http://www.w3.org/2000/svg">
<path d="M6 18C6 17.4477 6.44772 17 7 17H13C13.5523 17 14 17.4477 14 18C14 18.5523 13.5523 19 13 19H7C6.44772 19 6 18.5523 6 18Z" fill="#272A30"/>
<path d="M10 11C10.5523 11 11 11.4477 11 12V18C11 18.5523 10.5523 19 10 19C9.44772 19 9 18.5523 9 18L9 12C9 11.4477 9.44772 11 10 11Z" fill="#272A30"/>
<path d="M4 5.33333C4 4.09179 4 3.47102 4.18092 2.97394C4.48422 2.14064 5.14064 1.48422 5.97394 1.18092C6.47102 1 7.09179 1 8.33333 1H11.6667C12.9082 1 13.529 1 14.0261 1.18092C14.8594 1.48422 15.5158 2.14064 15.8191 2.97394C16 3.47102 16 4.09179 16 5.33333V8C16 11.3137 13.3137 14 10 14C6.68629 14 4 11.3137 4 8V5.33333Z" fill="#272A30"/>
<path fill-rule="evenodd" clip-rule="evenodd" d="M6 4H4.27273C3.64326 4 3.29876 4.00175 3.05184 4.02313C3.04261 4.02393 3.03384 4.02473 3.02554 4.02554C3.02473 4.03384 3.02393 4.04261 3.02313 4.05184C3.00175 4.29876 3 4.64326 3 5.27273V5.55556C3 6.49283 3.00134 7.08446 3.03528 7.53272C3.06765 7.96015 3.12106 8.09216 3.14054 8.13393C3.28958 8.45354 3.54646 8.71042 3.86607 8.85946C3.90784 8.87894 4.03985 8.93235 4.46728 8.96472C4.84017 8.99296 5.31226 8.99863 6 8.99974V4ZM5.98058 3.16472C5.98021 3.16268 5.98005 3.16162 5.98007 3.1616L5.98058 3.16472ZM5.99354 9.90683C5.99353 9.90683 5.99358 9.90627 5.9937 9.90517L5.99354 9.90683ZM6.90505 8.99371C6.90617 8.99359 6.90677 8.99354 6.90683 8.99354L6.90505 8.99371ZM1.24464 3.0415C1 3.48953 1 4.08393 1 5.27273V5.55556C1 7.36914 1 8.27593 1.32792 8.97916C1.67568 9.72493 2.27507 10.3243 3.02084 10.6721C3.72407 11 4.63086 11 6.44444 11C6.96261 11 7.22169 11 7.42262 10.9063C7.63569 10.8069 7.80695 10.6357 7.90631 10.4226C8 10.2217 8 9.96261 8 9.44444V4C8 3.05719 8 2.58579 7.70711 2.29289C7.41421 2 6.94281 2 6 2H4.27273C3.08393 2 2.48953 2 2.0415 2.24464C1.70499 2.42839 1.42839 2.70499 1.24464 3.0415Z" fill="#272A30"/>
<path fill-rule="evenodd" clip-rule="evenodd" d="M14 4H15.7273C16.3567 4 16.7012 4.00175 16.9482 4.02313C16.9574 4.02393 16.9662 4.02473 16.9745 4.02554C16.9753 4.03384 16.9761 4.04261 16.9769 4.05184C16.9983 4.29876 17 4.64326 17 5.27273V5.55556C17 6.49283 16.9987 7.08446 16.9647 7.53272C16.9324 7.96015 16.8789 8.09216 16.8595 8.13393C16.7104 8.45354 16.4535 8.71042 16.1339 8.85946C16.0922 8.87894 15.9601 8.93235 15.5327 8.96472C15.1598 8.99296 14.6877 8.99863 14 8.99974V4ZM14.0194 3.16472C14.0198 3.16268 14.0199 3.16162 14.0199 3.1616L14.0194 3.16472ZM14.0065 9.90683C14.0065 9.90683 14.0064 9.90627 14.0063 9.90517L14.0065 9.90683ZM13.095 8.99371C13.0938 8.99359 13.0932 8.99354 13.0932 8.99354L13.095 8.99371ZM18.7554 3.0415C19 3.48953 19 4.08393 19 5.27273V5.55556C19 7.36914 19 8.27593 18.6721 8.97916C18.3243 9.72493 17.7249 10.3243 16.9792 10.6721C16.2759 11 15.3691 11 13.5556 11C13.0374 11 12.7783 11 12.5774 10.9063C12.3643 10.8069 12.1931 10.6357 12.0937 10.4226C12 10.2217 12 9.96261 12 9.44444V4C12 3.05719 12 2.58579 12.2929 2.29289C12.5858 2 13.0572 2 14 2H15.7273C16.9161 2 17.5105 2 17.9585 2.24464C18.295 2.42839 18.5716 2.70499 18.7554 3.0415Z" fill="#272A30"/>
</svg>
