<svg width="20" height="20" viewBox="0 0 20 20" fill="none" xmlns="http://www.w3.org/2000/svg">
<path fill-rule="evenodd" clip-rule="evenodd" d="M1.7431 3.02078C1 4.14663 1 5.70824 1 8.83146V12.1676C1.00004 14.6502 3.01466 16.6629 5.49983 16.6629L5.5 17.4448C5.5 18.3414 5.5 18.7896 5.78981 18.9501C6.07962 19.1105 6.46015 18.873 7.2212 18.3978L10 16.6629H11.1603C14.2868 16.6629 15.8501 16.6629 16.9771 15.9206C17.486 15.5854 17.9214 15.1505 18.2569 14.6421C19 13.5163 19 11.9547 19 8.83146C19 5.70824 19 4.14663 18.2569 3.02078C17.9214 2.51244 17.486 2.07749 16.9771 1.74232C15.8501 1 14.2868 1 11.1603 1H8.83968C5.71318 1 4.14994 1 3.0229 1.74232C2.51402 2.07749 2.07862 2.51244 1.7431 3.02078ZM8.50145 8.86828C8.49627 8.66142 8.56155 8.49743 8.69731 8.37632C8.85167 8.23861 9.05162 8.10909 9.29718 7.98778L10.0603 7.62103C10.3147 7.49879 10.5123 7.34784 10.653 7.16821C10.7928 6.98001 10.8487 6.76162 10.8209 6.51305C10.7959 6.2902 10.6845 6.09381 10.4868 5.92389C10.2978 5.75303 10.0047 5.68857 9.60722 5.73052C9.24512 5.76873 8.9339 5.86229 8.67356 6.01119C8.59098 6.05553 8.5101 6.10317 8.43094 6.15408C8.11498 6.3573 7.67735 6.45571 7.45825 6.15553C7.35406 6.01279 7.28755 5.84371 7.26611 5.65238C7.23826 5.40381 7.28 5.17826 7.39135 4.9757C7.51153 4.77222 7.68364 4.59361 7.9077 4.43988C8.13175 4.28614 8.39938 4.16249 8.7106 4.06894C9.02086 3.96681 9.35705 3.89664 9.71915 3.85842C10.7613 3.74843 11.5796 3.91357 12.174 4.35384C12.7773 4.79319 13.126 5.43285 13.2201 6.27284C13.2662 6.68426 13.2404 7.05124 13.1425 7.37379C13.0524 7.68684 12.8967 7.97212 12.6754 8.22965C12.4628 8.48624 12.1856 8.72364 11.8437 8.94186C11.5017 9.16007 11.1098 9.37056 10.6678 9.57331L10.5691 9.61798V9.82951C10.5691 10.2072 10.2536 10.5134 9.86443 10.5134H9.20555C8.81637 10.5134 8.50087 10.2072 8.50087 9.82951L8.50145 8.86828ZM8.56512 11.7046C8.34302 11.9287 8.23197 12.2219 8.23197 12.584C8.23197 12.9461 8.34302 13.2392 8.56512 13.4634C8.7961 13.6876 9.11148 13.7997 9.51125 13.7997C9.91102 13.7997 10.222 13.6876 10.4441 13.4634C10.675 13.2392 10.7905 12.9461 10.7905 12.584C10.7905 12.2219 10.675 11.9287 10.4441 11.7046C10.222 11.4804 9.91102 11.3683 9.51125 11.3683C9.11148 11.3683 8.7961 11.4804 8.56512 11.7046Z" fill="#272A30"/>
</svg>
