<svg width="100" height="50" viewBox="0 0 100 50" fill="none" xmlns="http://www.w3.org/2000/svg">
<path d="M71.6821 25.8892C71.1322 25.2343 70.3208 24.8561 69.4656 24.8561H64.5464C64.8755 24.2411 65.1124 23.5733 65.2358 22.8723L67.124 12.1398C67.6242 9.29724 66.2518 6.46998 63.7089 5.10452L55.6237 0.76296C54.6942 0.263844 53.6452 0 52.5901 0C52.1287 0 51.6662 0.0501456 51.2156 0.149068L41.8043 2.21429C38.8468 2.8632 36.6933 5.42933 36.5674 8.45465L36.1155 19.3102C36.0306 21.349 36.8653 23.2859 38.4054 24.6244L38.672 24.8561H34.2954C32.8902 24.8561 31.688 25.8654 31.4448 27.2494L28.0437 46.6049C27.8957 47.4472 28.1278 48.3119 28.6777 48.9668C29.2276 49.6218 30.039 50 30.8942 50H35.8437C37.8554 50 39.4039 49.6043 40.5965 48.9688C41.1463 49.6224 41.9569 50 42.8112 50H56.3043C57.7079 50 58.9091 48.993 59.1541 47.611L59.2202 47.238H59.9659C59.9946 47.8669 60.2282 48.4758 60.6405 48.9668C61.1904 49.6218 62.0019 50 62.857 50H66.0646C67.4698 50 68.6719 48.9907 68.9151 47.6067L72.3161 28.2511C72.4641 27.4088 72.232 26.5442 71.6821 25.8892Z" fill="black"/>
<path d="M43.9936 12.2319C44.0278 12.3626 44.0912 12.4905 44.1891 12.607L46.7254 15.6274C46.9257 15.8657 46.9973 16.1867 46.9175 16.4876L46.8583 16.7109L46.7224 17.2237L45.8715 20.4334C45.6573 21.2416 46.5099 21.9162 47.2471 21.522L50.1347 19.978C50.4958 19.7848 50.94 19.843 51.2391 20.123L53.6304 22.3598C54.241 22.931 55.2389 22.4992 55.2404 21.6631L55.248 17.581C55.2487 17.2697 55.4007 16.9781 55.6557 16.7995L58.8855 14.536C59.5635 14.0609 59.3586 13.007 58.5517 12.8207L54.9028 11.9781C54.5579 11.8985 54.2853 11.6349 54.1939 11.293L54.182 11.2487L53.211 7.61348C52.9908 6.78918 51.8833 6.6438 51.4579 7.38336L49.5587 10.6846C49.3822 10.9914 49.0507 11.1756 48.6971 11.1635L44.9543 11.036C44.2788 11.013 43.8422 11.6516 43.9936 12.2319Z" fill="white"/>
<path d="M64.5598 10.2471C64.3133 9.20502 63.6355 8.28714 62.6506 7.75722L58.2168 5.37161L58.1609 5.34155L54.4678 3.35447C53.7188 2.95143 52.8503 2.82975 52.0193 3.01136L46.333 4.25416L42.4885 5.09438C40.791 5.46538 39.5566 6.93374 39.4828 8.66991L39.4785 8.77135L39.3123 12.6836L39.1113 17.418L39.0508 18.841L39.016 19.661C38.9666 20.8234 39.4489 21.9451 40.3264 22.709L45.2297 26.9777L45.4825 27.1978L47.7078 29.1351C48.8682 30.1452 50.5208 30.3622 51.9024 29.6856L59.3875 26.021L60.5991 25.4278C61.1862 25.1403 61.6796 24.7111 62.0454 24.1908C62.3634 23.7384 62.5852 23.2173 62.6842 22.6576L64.6053 11.7927C64.698 11.268 64.6773 10.7436 64.5598 10.2471ZM58.5518 12.8207C59.3586 13.007 59.5635 14.0609 58.8855 14.536L55.6557 16.7995C55.4007 16.9781 55.2487 17.2697 55.248 17.581L55.2404 21.6631C55.2389 22.4992 54.241 22.931 53.6305 22.3598L51.2391 20.1229C50.94 19.843 50.4959 19.7848 50.1347 19.978L47.2471 21.522C46.5099 21.9162 45.6573 21.2415 45.8715 20.4334L46.7224 17.2237L46.8583 16.7109L46.9175 16.4876C46.9973 16.1867 46.9257 15.8657 46.7254 15.6274L44.1891 12.607C44.0913 12.4905 44.0278 12.3626 43.9937 12.2318C43.8422 11.6516 44.2789 11.013 44.9543 11.036L48.6971 11.1635C49.0507 11.1756 49.3822 10.9914 49.5587 10.6846L51.4579 7.38335C51.8833 6.6438 52.9908 6.78918 53.211 7.61348L54.182 11.2486L54.1939 11.293C54.2853 11.6349 54.5579 11.8985 54.9028 11.978L58.5518 12.8207Z" fill="#FFCC00"/>
<path d="M58.3544 3.19781C58.6124 2.80625 59.2116 2.90122 59.3357 3.35331L59.7454 4.84341C59.7806 4.97143 59.8613 5.08221 59.9723 5.15497L61.2636 6.00132C61.6567 6.25901 61.5615 6.86023 61.1079 6.98375L59.6182 7.3894C59.4902 7.42432 59.3792 7.50474 59.3061 7.6156L58.4559 8.90601C58.1979 9.29762 57.5989 9.20262 57.4746 8.75049L57.065 7.26047C57.0298 7.13244 56.949 7.02163 56.838 6.94887L55.5467 6.10252C55.1536 5.84482 55.2489 5.24366 55.7024 5.12009L57.1921 4.71443C57.3202 4.67956 57.4312 4.59914 57.5043 4.48827L58.3544 3.19781Z" fill="white"/>
<path d="M43.3923 31.8424L41.4292 43.0136C40.9037 45.9445 39.0512 47.1058 35.8437 47.1058H30.8942L34.2953 27.7502H39.2448C41.8993 27.7502 43.9177 28.9115 43.3923 31.8424ZM38.6364 30.5706H37.0051L34.5993 44.2855H36.2309C37.2816 44.2855 38.0558 43.8982 38.3047 42.5158L40.1019 32.3402C40.3508 30.9578 39.6871 30.5706 38.6364 30.5706Z" fill="white"/>
<path d="M42.8111 47.1058L46.2123 27.7503H54.701L54.2033 30.5706H48.922L48.0095 35.8796H52.4336L51.936 38.6999H47.5117L46.5163 44.2855H51.8805L51.3829 47.1058H42.8111ZM56.0216 22.8787L52.123 26.7773H49.7173L52.2889 22.8787H56.0216Z" fill="white"/>
<path d="M56.4979 27.7502H64.8761L64.3783 30.5706H59.2077L58.2676 36.0177H62.5809L62.0833 38.8384H57.7698L56.3043 47.1058H53.0967L56.4979 27.7502Z" fill="white"/>
<path d="M62.857 47.1058L66.2582 27.7502H69.4656L66.0646 47.1058H62.857Z" fill="white"/>
</svg>
