<svg width="20" height="20" viewBox="0 0 20 20" fill="none" xmlns="http://www.w3.org/2000/svg">
<path d="M1.11195 5.6223C1.23502 3.55611 2.663 2.08725 4.69958 2.02093C5.10559 2.00771 5.55844 2 6.0625 2C6.30988 2 6.54601 2.00186 6.77128 2.00531C9.289 2.04391 11.0282 3.97505 11.0884 6.53229L11.0885 6.53733C9.35995 6.58459 8.02653 6.64003 7.25426 6.6758C5.881 6.73942 4.375 7.82975 4.375 9.65188V10.4214C4.375 12.2722 5.92127 13.3584 7.30471 13.401C8.07245 13.4246 9.38693 13.461 11.0878 13.4921C11.0172 16.0372 9.28099 17.9562 6.77127 17.9947C6.54601 17.9981 6.30987 18 6.0625 18C5.81512 18 5.57899 17.9981 5.35372 17.9947C2.836 17.9561 1.09675 16.025 1.03661 13.4677C1.01437 12.5219 1 11.3777 1 10C1 8.14668 1.0468 6.71601 1.11195 5.6223Z" fill="#272A30"/>
<path d="M11.1213 8.82298C11.1237 9.19496 11.125 9.58699 11.125 10C11.125 10.424 11.1236 10.8258 11.1211 11.2066C10.4427 11.1942 9.82648 11.1809 9.28274 11.168C8.75736 11.1555 8.29968 11.1433 7.91904 11.1325C7.74811 11.1276 7.59271 11.123 7.4537 11.1188L7.37291 11.1163C6.95328 11.1034 6.625 10.796 6.625 10.4214V9.65188C6.625 9.28291 6.94372 8.97828 7.35676 8.95915L7.43741 8.95543C7.57579 8.9491 7.73075 8.94221 7.90142 8.9349C8.28234 8.91859 8.74153 8.90021 9.26945 8.88135C9.81649 8.86181 10.4373 8.84176 11.1213 8.82298Z" fill="#272A30"/>
<path d="M15.8661 13.2211C15.2825 13.6565 14.5616 13.3714 14.519 12.6937C14.4954 12.3185 14.4749 11.8452 14.4626 11.2521C11.1544 11.2224 8.5784 11.1535 7.37291 11.1163C6.95328 11.1034 6.625 10.796 6.625 10.4214V9.65188C6.625 9.28291 6.94372 8.97828 7.35676 8.95915C8.55527 8.90363 11.1395 8.79939 14.4624 8.75468C14.4747 8.15851 14.4953 7.68307 14.519 7.3064C14.5615 6.62857 15.2827 6.34344 15.8664 6.77898C16.2143 7.03853 16.6431 7.37534 17.1594 7.80843C18.0249 8.53443 18.5217 9.08007 18.8025 9.44531C19.0658 9.78777 19.0658 10.2119 18.8025 10.5544C18.5217 10.9196 18.0249 11.4652 17.1594 12.1913C16.643 12.6246 16.214 12.9615 15.8661 13.2211Z" fill="#272A30"/>
</svg>
