<svg width="20" height="20" viewBox="0 0 20 20" fill="none" xmlns="http://www.w3.org/2000/svg">
<g clip-path="url(#clip0_317_1378)">
<path fill-rule="evenodd" clip-rule="evenodd" d="M9.99987 0.000183105C15.5224 0.000183105 19.9999 4.47685 19.9999 10.0002C19.9999 15.5227 15.5224 20.0002 9.99987 20.0002C4.47654 20.0002 -0.000128746 15.5227 -0.000128746 10.0002C-0.000128746 4.47685 4.47654 0.000183105 9.99987 0.000183105Z" fill="#EAC169"/>
<path fill-rule="evenodd" clip-rule="evenodd" d="M14.8168 18.7655C13.388 19.5525 11.7462 20.0002 9.99987 20.0002C4.47654 20.0002 -0.000128746 15.5227 -0.000128746 10.0002C-0.000128746 8.85212 0.193285 7.74927 0.549309 6.72245C0.739843 6.74376 0.917667 6.76698 1.08031 6.79111C1.25635 6.81723 1.43436 6.79062 1.59588 6.71588C2.96003 6.08465 5.66089 5.19207 7.5476 5.76728C7.58874 5.77982 7.62524 5.79598 7.65816 5.81056L7.65817 5.81057C7.75272 5.85244 7.81775 5.88124 7.87853 5.7737C7.95835 5.63246 7.97741 5.44458 7.99548 5.2665L7.99548 5.26649C8.02381 4.98716 8.04971 4.73192 8.30382 4.71851C8.74089 4.69546 9.22744 4.82287 9.59271 5.2888C9.82725 5.58798 10.1673 5.81759 10.5469 5.83735C11.6269 5.89356 13.157 6.34952 13.8353 7.86723C13.9185 8.05346 14.0495 8.21797 14.2269 8.31851L17.3158 10.0683C17.5249 10.1645 17.8176 10.4726 17.3158 10.9346C16.9958 11.2292 16.4423 11.3829 15.9601 11.4556C15.761 11.4857 15.6863 11.7759 15.8572 11.8824C15.9416 11.935 15.9726 12.0442 15.896 12.1076C15.5171 12.4213 14.214 12.7018 11.1003 11.9741C10.2651 11.7789 9.57257 11.602 8.99227 11.4538L8.99223 11.4538C6.48252 10.8127 6.07134 10.7076 5.28401 11.9741C4.77522 12.7925 4.40223 13.3242 4.16829 13.6312C4.01586 13.8313 3.92888 14.0832 3.97189 14.3309C4.06678 14.8776 4.2552 15.5824 4.54271 15.728C4.89902 15.9084 7.49484 16.0302 8.83809 16.0716C8.90195 16.0736 8.96468 16.0674 9.02793 16.0584C9.4486 15.9984 10.2668 16.0238 10.8152 16.5365C11.3171 17.0057 12.1539 17.8941 12.6758 18.4595C12.8351 18.6321 13.059 18.7311 13.2939 18.7311H14.5763C14.6579 18.7311 14.7386 18.7435 14.8168 18.7655ZM5.51729 17.9482C6.34431 19.1888 9.71671 19.1888 10.8929 19.1888L8.54969 17.9482H5.51729Z" fill="#836846"/>
<path fill-rule="evenodd" clip-rule="evenodd" d="M1.63196 15.4775C0.600022 13.9041 -0.000128746 12.0222 -0.000128746 10.0002C-0.000128746 8.77747 0.219241 7.60609 0.620773 6.52319C0.750214 6.5411 0.880053 6.56069 1.01025 6.58202C1.28286 6.62669 1.51072 6.81134 1.62024 7.06494L4.33379 13.3487C4.52635 13.7946 4.29918 14.3096 3.84667 14.4861C3.15281 14.7567 2.36422 15.0987 1.63196 15.4775Z" fill="black"/>
</g>
<defs>
<clipPath id="clip0_317_1378">
<rect width="20" height="20" fill="white"/>
</clipPath>
</defs>
</svg>
