<svg width="20" height="20" viewBox="0 0 20 20" fill="none" xmlns="http://www.w3.org/2000/svg">
<g clip-path="url(#clip0_114_1327)">
<path d="M10 0C15.5228 0 20 4.47715 20 10C20 15.5228 15.5228 20 10 20C4.47715 20 0 15.5228 0 10C0 4.47715 4.47715 0 10 0Z" fill="#FFCE0D"/>
<path fill-rule="evenodd" clip-rule="evenodd" d="M18.0221 4.02852C19.2645 5.69493 20 7.76158 20 10C20 11.8998 19.4702 13.6759 18.5503 15.1886C18.5318 15.1746 18.5134 15.1604 18.495 15.1462C17.9223 14.7085 17.3496 14.2489 16.8227 13.7674C16.2042 13.2421 15.5169 12.8919 14.6922 12.87C13.4781 12.8481 12.2639 12.87 11.0269 12.9138C10.3625 12.9357 9.81273 13.264 9.30874 13.6798C8.50695 14.3364 7.65934 14.9711 6.83464 15.584C6.60555 15.7591 6.30774 15.8466 6.00993 15.9342C5.11651 16.153 4.5438 15.8247 4.2689 14.9711C3.97109 14.03 3.92527 13.067 4.10854 12.0821C4.17363 11.7356 4.23117 11.3855 4.28882 11.0347C4.37321 10.5214 4.45783 10.0065 4.5667 9.49942C4.68125 8.99602 4.84161 8.49262 5.02487 7.98922C5.05144 7.91815 5.078 7.84679 5.10464 7.77524C5.3077 7.22977 5.51492 6.67314 5.75794 6.15072C6.05575 5.516 6.4681 4.96883 6.995 4.48732C7.61352 3.94015 8.62149 3.87449 9.33165 4.24656C9.44047 4.30128 9.54928 4.35737 9.6581 4.41345C9.98454 4.58171 10.311 4.74996 10.6374 4.88128C10.8665 4.96883 11.1414 5.0126 11.3934 5.0126C12.0968 5.02721 12.8104 5.02232 13.5205 5.01745C13.8743 5.01503 14.2273 5.0126 14.5777 5.0126C15.0588 5.0126 15.4711 4.8594 15.8835 4.66241L16.502 4.33411C17.0081 4.04171 17.5325 3.94578 18.0221 4.02852ZM10.1793 8.88658C10.1793 9.58697 9.53783 10.156 8.78185 10.156C8.00296 10.156 7.40735 9.58697 7.40735 8.88658C7.43025 8.1862 8.04878 7.59526 8.80476 7.59526C9.53783 7.59526 10.1793 8.1862 10.1793 8.88658ZM16.0896 7.57337C16.0896 7.26695 16.3187 7.04809 16.6623 7.04809C17.006 7.04809 17.2809 7.28884 17.2809 7.59526C17.2809 7.87979 17.006 8.14243 16.6853 8.14243C16.3416 8.14243 16.0896 7.87979 16.0896 7.57337ZM18.0368 8.33941C18.4034 8.33941 18.6325 8.55828 18.6325 8.88658C18.6325 9.193 18.3805 9.41187 18.0598 9.41187C17.739 9.41187 17.4641 9.17111 17.4641 8.8647C17.4641 8.55828 17.6932 8.33941 18.0368 8.33941ZM16.6853 9.60885C17.0289 9.60885 17.2809 9.87149 17.2809 10.1779C17.2809 10.4624 17.006 10.7032 16.6853 10.7032C16.3645 10.7032 16.0896 10.4624 16.0896 10.156C16.0896 9.82772 16.3416 9.60885 16.6853 9.60885ZM14.7151 8.84281C14.738 8.51451 14.9442 8.33941 15.3107 8.33941C15.6773 8.33941 15.9293 8.60205 15.9064 8.88658C15.8835 9.17111 15.6086 9.41187 15.2878 9.41187C14.9442 9.41187 14.7151 9.17111 14.7151 8.84281Z" fill="#256BAB"/>
<path d="M17.2808 10.1782C17.2808 9.8715 17.0288 9.60864 16.6852 9.60864C16.3416 9.60864 16.0896 9.82769 16.0896 10.1563C16.0896 10.4629 16.3645 10.7039 16.6852 10.7039C17.0059 10.7039 17.2808 10.4629 17.2808 10.1782Z" fill="#84D9FF"/>
<path d="M18.6325 8.88698C18.6325 8.55841 18.4034 8.33936 18.0369 8.33936C17.6932 8.33936 17.4641 8.55841 17.4641 8.86508C17.4641 9.17175 17.739 9.41271 18.0598 9.41271C18.3805 9.41271 18.6325 9.19365 18.6325 8.88698Z" fill="#71AB7E"/>
<path d="M16.6623 7.04797C16.3187 7.04797 16.0896 7.26702 16.0896 7.5737C16.0896 7.88037 16.3416 8.14323 16.6852 8.14323C17.0059 8.14323 17.2808 7.88037 17.2808 7.5956C17.2808 7.28893 17.0059 7.04797 16.6623 7.04797Z" fill="#DF5252"/>
<ellipse cx="8.86486" cy="8.86083" rx="1.94595" ry="1.94433" fill="#20406B"/>
</g>
<defs>
<clipPath id="clip0_114_1327">
<rect width="20" height="20" fill="white"/>
</clipPath>
</defs>
</svg>
