<svg width="20" height="20" viewBox="0 0 20 20" fill="none" xmlns="http://www.w3.org/2000/svg">
<path d="M16.068 6.94335C16.9999 6.01147 17.3548 4.64905 16.5623 3.5961C16.2985 3.2456 15.968 2.85808 15.5549 2.44506C15.1419 2.03203 14.7544 1.70153 14.4039 1.43772C13.3509 0.645207 11.9885 1.00008 11.0566 1.93196L3.40948 9.57914C3.23516 9.75347 3.11559 9.97435 3.08683 10.2192C3.01746 10.8096 2.92732 12.1239 3.0975 14.324C3.12137 14.6325 3.36754 14.8786 3.67605 14.9025C5.87606 15.0727 7.19035 14.9825 7.78079 14.9132C8.02563 14.8844 8.24651 14.7648 8.42084 14.5905L16.068 6.94335Z" fill="#272A30"/>
<path d="M1 18C1 17.4477 1.44772 17 2 17H18C18.5523 17 19 17.4477 19 18C19 18.5523 18.5523 19 18 19H2C1.44772 19 1 18.5523 1 18Z" fill="#272A30"/>
</svg>
