<svg width="20" height="20" viewBox="0 0 20 20" fill="none" xmlns="http://www.w3.org/2000/svg">
<g clip-path="url(#clip0_320_3349)">
<path fill-rule="evenodd" clip-rule="evenodd" d="M10 0C15.5229 0 20 4.47715 20 10C20 15.5229 15.5229 20 10 20C4.47715 20 0 15.5229 0 10C0 4.47715 4.47715 0 10 0Z" fill="#D46B00"/>
<path d="M3.70245 7.53631L3.39572 5.08247C3.35714 4.77386 3.48688 4.46824 3.73569 4.28164L6.28687 2.36825C6.52348 2.1908 6.83425 2.14625 7.11118 2.2501L9.71271 3.22567C9.89858 3.29538 10.1028 3.29916 10.2911 3.23638L13.2845 2.23858C13.5733 2.14231 13.8914 2.20463 14.1226 2.40275L16.3129 4.2802C16.5338 4.46953 16.645 4.75704 16.6089 5.04572L16.2976 7.53631C16.2673 7.77861 16.3406 8.02243 16.4995 8.20783L18.4307 10.4608C18.6288 10.692 18.6911 11.0101 18.5948 11.2989L17.6552 14.1179C17.5589 14.4067 17.3182 14.6238 17.021 14.6899L14.1045 15.338C13.8777 15.3884 13.6807 15.5277 13.5575 15.7247L11.9212 18.3427C11.7629 18.5961 11.4851 18.7501 11.1863 18.7501H8.81368C8.51486 18.7501 8.23712 18.5961 8.07875 18.3427L6.44822 15.7339C6.32171 15.5315 6.11732 15.3902 5.88326 15.3434L2.63693 14.6941C2.30041 14.6268 2.03531 14.3673 1.96086 14.0323L1.344 11.2564C1.28483 10.9901 1.35448 10.7115 1.53201 10.5044L3.50049 8.20783C3.6594 8.02243 3.73273 7.77861 3.70245 7.53631Z" fill="#FFCE0D"/>
<path d="M9.75076 6.00884C9.90032 5.90363 10.0998 5.90363 10.2494 6.00884L12.0034 7.24272L13.719 8.52963C13.8653 8.63936 13.9269 8.82911 13.8731 9.00387L13.2416 11.0534L12.5478 13.0826C12.4886 13.2556 12.3272 13.3729 12.1444 13.3757L10.0001 13.4085L7.85577 13.3757C7.67292 13.3729 7.51152 13.2556 7.45236 13.0826L6.75856 11.0534L6.1271 9.00387C6.07326 8.82911 6.13491 8.63936 6.28119 8.52963L7.99671 7.24272L9.75076 6.00884Z" fill="#D46B00"/>
<path d="M13.8621 10.7674L13.5597 12.5378L14.7068 13.9197L12.9364 13.6173L11.5544 14.7644L11.8569 12.994L10.7098 11.612L12.4801 11.9145L13.8621 10.7674Z" fill="white"/>
<path d="M3.57259 3.52576L4.19587 5.21016L5.88028 5.83345L4.19587 6.45674L3.57259 8.14114L2.9493 6.45674L1.26489 5.83345L2.9493 5.21016L3.57259 3.52576Z" fill="white"/>
</g>
<defs>
<clipPath id="clip0_320_3349">
<rect width="20" height="20" fill="white"/>
</clipPath>
</defs>
</svg>
