<svg width="20" height="20" viewBox="0 0 20 20" fill="none" xmlns="http://www.w3.org/2000/svg">
<g clip-path="url(#clip0_902_2466)">
<path fill-rule="evenodd" clip-rule="evenodd" d="M0 10C0 4.47731 4.47713 0 9.99959 0C15.5229 0 20 4.47731 20 10C20 15.5227 15.5229 20 9.99959 20C4.47713 20 0 15.5227 0 10Z" fill="white"/>
<path d="M20 10.007C20 15.5338 15.5106 20.0047 9.98368 20C4.47078 19.9907 -0.00468213 15.5059 -2.98824e-05 9.98837C0.00462236 4.48942 4.49404 -0.00464863 9.97903 3.60874e-06C15.5338 0.00465585 20 4.47081 20 10.007ZM16.4643 10.0023C16.455 6.4294 13.5566 3.54036 9.98834 3.54967C6.42472 3.55897 3.53102 6.46662 3.54963 10.0163C3.56824 13.5846 6.45728 16.4596 10.0256 16.4503C13.5752 16.4364 16.4736 13.538 16.4643 10.0023Z" fill="black"/>
<path d="M16.1107 9.99761C16.1247 13.3379 13.3938 16.0781 10.0349 16.0967C6.66667 16.1153 3.91719 13.3844 3.90789 10.0069C3.89858 6.64799 6.62945 3.90317 9.99302 3.89387C13.3612 3.88921 16.0968 6.61543 16.1107 9.99761ZM9.89533 14.4591C9.83485 13.9194 9.77437 13.296 9.68598 12.6773C9.6348 12.3051 9.18818 12.1469 8.92766 12.4075C8.48104 12.8634 8.04373 13.3379 7.62038 13.8171C7.42033 14.0404 7.49477 14.2963 7.7646 14.4312C8.30891 14.7057 8.88579 14.8778 9.49523 14.9336C9.81624 14.9662 9.90928 14.8685 9.89533 14.4591ZM9.59293 6.33164C9.61154 6.0432 9.6348 5.75476 9.63945 5.47098C9.6441 5.15928 9.49989 5.05227 9.19749 5.0988C8.61596 5.19184 8.07165 5.38258 7.55525 5.67102C7.20633 5.86642 7.17842 6.08507 7.46686 6.36886C7.87625 6.7736 8.29495 7.1737 8.70435 7.57379C8.85322 7.72266 9.0207 7.79245 9.23005 7.71336C9.43941 7.63427 9.51849 7.47144 9.53245 7.25744C9.55571 6.95039 9.57432 6.64334 9.59293 6.33164ZM5.01512 10.086C5.05699 10.3791 5.09421 10.7373 5.15469 11.0909C5.19656 11.3514 5.36404 11.4491 5.60596 11.3468C6.20144 11.0862 6.79228 10.8211 7.36916 10.528C7.69016 10.3651 7.68086 9.89061 7.3552 9.73243C6.77832 9.4533 6.19214 9.19277 5.60596 8.94155C5.34543 8.8299 5.13143 8.96481 5.09886 9.24395C5.06165 9.50447 5.04769 9.76034 5.01512 10.086ZM12.3424 8.70894C12.9425 8.59728 13.6078 8.48563 14.2684 8.34606C14.501 8.29489 14.5801 8.04832 14.4731 7.82966C14.194 7.26209 13.8218 6.75965 13.3566 6.33164C13.1705 6.15951 12.9798 6.16881 12.8448 6.39212C12.5099 6.93643 12.1842 7.49005 11.8725 8.04832C11.705 8.35071 11.933 8.70428 12.3424 8.70894ZM7.62503 11.3049C7.0342 11.4398 6.36427 11.5794 5.70365 11.7469C5.50361 11.798 5.45243 12.012 5.55013 12.2028C5.83392 12.7796 6.22005 13.2774 6.69458 13.7054C6.91789 13.9055 7.09002 13.8869 7.24355 13.6171C7.54594 13.0774 7.84369 12.5377 8.13213 11.9888C8.29961 11.6678 8.06699 11.3095 7.62503 11.3049ZM7.5506 8.8392C7.95069 8.8485 8.174 8.49959 8.01117 8.16928C7.93208 8.00645 7.83438 7.85758 7.74134 7.6994C7.51803 7.32257 7.30403 6.94109 7.07141 6.56425C6.90859 6.29908 6.70854 6.27581 6.49919 6.48051C6.05723 6.91317 5.71296 7.41561 5.45709 7.97854C5.31752 8.29024 5.39661 8.43911 5.72692 8.51354C5.7967 8.5275 5.87114 8.5368 5.94092 8.55076C6.49454 8.64846 7.03885 8.74616 7.5506 8.8392ZM14.9942 9.9883C14.957 9.67195 14.9197 9.32769 14.8686 8.98807C14.8314 8.7415 14.6639 8.63915 14.4313 8.7415C13.8404 9.00203 13.2496 9.27186 12.6727 9.5603C12.361 9.71847 12.3471 10.1884 12.6588 10.3419C13.2496 10.635 13.859 10.9001 14.4685 11.1607C14.6964 11.2584 14.8546 11.1467 14.8918 10.9001C14.9337 10.6024 14.957 10.3093 14.9942 9.9883ZM10.3885 5.04762C10.2256 5.04297 10.0861 5.22441 10.1186 5.46632C10.2024 6.07112 10.3001 6.67591 10.3885 7.2807C10.421 7.4854 10.528 7.62031 10.7327 7.67614C10.9328 7.72731 11.0863 7.65288 11.2119 7.50866C11.4306 7.25744 11.6446 7.00622 11.8632 6.755C12.04 6.54564 12.2261 6.3456 12.3982 6.13159C12.5843 5.89898 12.5518 5.7315 12.2959 5.59659C11.7097 5.28954 11.077 5.0988 10.3885 5.04762ZM10.3466 14.5475C10.3373 14.8499 10.4629 14.9569 10.7653 14.9104C11.384 14.8173 11.9609 14.5987 12.5006 14.287C12.7565 14.1381 12.789 13.9753 12.589 13.7566C12.1656 13.3054 11.7283 12.8634 11.2957 12.4168C11.1607 12.2772 10.9933 12.2493 10.8165 12.3144C10.6397 12.3749 10.5234 12.5052 10.5048 12.6959C10.4536 13.31 10.4024 13.9288 10.3466 14.5475ZM11.933 11.7422C11.9516 11.7841 11.9795 11.8818 12.0307 11.9702C12.3238 12.4586 12.6169 12.9471 12.9146 13.431C12.9425 13.4728 12.9658 13.5194 12.9984 13.5566C13.1472 13.7427 13.2636 13.752 13.4403 13.5845C13.9009 13.1472 14.2638 12.6401 14.529 12.0632C14.6778 11.7422 14.5987 11.5887 14.2452 11.5282C13.6543 11.4258 13.0682 11.3281 12.4773 11.2305C12.1889 11.1839 11.9377 11.3979 11.933 11.7422ZM11.4259 9.9883C11.4213 9.19277 10.7839 8.56472 9.98837 8.57402C9.19749 8.57867 8.55548 9.22534 8.56479 10.0116C8.57409 10.7931 9.2254 11.4352 10.0116 11.4352C10.7979 11.4305 11.4352 10.7792 11.4259 9.9883Z" fill="#B8CBCF"/>
<path d="M8.88578 10.0024C8.88112 9.38828 9.36961 8.88584 9.98836 8.87653C10.6164 8.86723 11.1189 9.36502 11.1235 9.98842C11.1235 10.6118 10.6211 11.1189 10.0023 11.1143C9.38822 11.1189 8.89043 10.6165 8.88578 10.0024Z" fill="black"/>
</g>
<defs>
<clipPath id="clip0_902_2466">
<rect width="20" height="20" fill="white"/>
</clipPath>
</defs>
</svg>
