<svg width="20" height="20" viewBox="0 0 20 20" fill="none" xmlns="http://www.w3.org/2000/svg">
<path d="M0.89265 12.5H1.98495V10.4456H4.10807V9.58115H1.98495V8.18141H4.31062V7.2808H0.89265V12.5Z" fill="#272A30"/>
<path d="M7.53689 12.6338C8.79557 12.6338 9.68895 11.8887 9.80107 10.7964L9.80469 10.7566H8.74132L8.73409 10.7856C8.61834 11.3426 8.16623 11.7079 7.54051 11.7079C6.71586 11.7079 6.20587 11.0134 6.20587 9.8922V9.88496C6.20587 8.76373 6.71586 8.0729 7.53689 8.0729C8.159 8.0729 8.62558 8.47076 8.7377 9.05669V9.08201H9.80107V9.03861C9.6998 7.93546 8.77387 7.14697 7.53689 7.14697C6.02141 7.14697 5.08825 8.19226 5.08825 9.88496V9.8922C5.08825 11.5849 6.02503 12.6338 7.53689 12.6338Z" fill="#272A30"/>
<path d="M10.8102 12.5H11.9025V10.4456H14.0256V9.58115H11.9025V8.18141H14.2282V7.2808H10.8102V12.5Z" fill="#272A30"/>
<path d="M14.5754 12.5H15.7219L16.1089 11.2341H17.9499L18.337 12.5H19.4871L17.6714 7.2808H16.3874L14.5754 12.5ZM16.9987 8.32246H17.0638L17.7004 10.4166H16.3585L16.9987 8.32246Z" fill="#272A30"/>
</svg>
