<svg width="20" height="20" viewBox="0 0 20 20" fill="none" xmlns="http://www.w3.org/2000/svg">
<path fill-rule="evenodd" clip-rule="evenodd" d="M8.67733 6.99167C8.62817 7.91167 7.91166 8.62817 6.99166 8.67734C5.06651 8.78021 2.78634 8.64355 1.75188 8.56746C1.41014 8.54232 1.11935 8.31235 1.06083 7.97472C1.00249 7.6381 0.964206 7.19371 1.05075 6.78122C1.10741 6.51116 1.35228 6.33842 1.62675 6.30992C2.802 6.18788 4.83753 6.15949 5.72103 6.15289C5.95918 6.15111 6.15106 5.95922 6.15285 5.72107C6.15945 4.83756 6.18785 2.80201 6.3099 1.62674C6.3384 1.35228 6.51114 1.10741 6.7812 1.05075C7.19369 0.964204 7.63809 1.00249 7.97471 1.06083C8.31233 1.11936 8.5423 1.41014 8.56744 1.75188C8.64354 2.78634 8.78022 5.06652 8.67733 6.99167Z" fill="#272A30"/>
<path fill-rule="evenodd" clip-rule="evenodd" d="M11.3227 6.99167C11.3718 7.91167 12.0883 8.62817 13.0083 8.67734C14.9335 8.78021 17.2137 8.64355 18.2481 8.56746C18.5899 8.54232 18.8806 8.31235 18.9392 7.97472C18.9975 7.6381 19.0358 7.19371 18.9493 6.78122C18.8926 6.51116 18.6477 6.33842 18.3733 6.30992C17.198 6.18788 15.1625 6.15949 14.279 6.15289C14.0408 6.15111 13.8489 5.95922 13.8472 5.72107C13.8406 4.83756 13.8122 2.80201 13.6901 1.62674C13.6616 1.35228 13.4889 1.10741 13.2188 1.05075C12.8063 0.964204 12.3619 1.00249 12.0253 1.06083C11.6877 1.11936 11.4577 1.41014 11.4326 1.75188C11.3565 2.78634 11.2198 5.06652 11.3227 6.99167Z" fill="#272A30"/>
<path fill-rule="evenodd" clip-rule="evenodd" d="M11.3227 13.0083C11.3718 12.0883 12.0883 11.3718 13.0083 11.3227C14.9335 11.2198 17.2137 11.3565 18.2481 11.4325C18.5899 11.4577 18.8806 11.6877 18.9392 12.0253C18.9975 12.3619 19.0358 12.8063 18.9493 13.2188C18.8926 13.4888 18.6477 13.6616 18.3733 13.6901C17.198 13.8121 15.1625 13.8405 14.279 13.8471C14.0408 13.8489 13.8489 14.0408 13.8472 14.2789C13.8405 15.1624 13.8122 17.198 13.6901 18.3733C13.6616 18.6477 13.4889 18.8926 13.2188 18.9492C12.8063 19.0358 12.3619 18.9975 12.0253 18.9392C11.6877 18.8806 11.4577 18.5899 11.4326 18.2481C11.3565 17.2137 11.2198 14.9335 11.3227 13.0083Z" fill="#272A30"/>
<path fill-rule="evenodd" clip-rule="evenodd" d="M8.67733 13.0083C8.62817 12.0883 7.91166 11.3718 6.99166 11.3227C5.06651 11.2198 2.78634 11.3565 1.75188 11.4325C1.41014 11.4577 1.11935 11.6877 1.06083 12.0253C1.00249 12.3619 0.964206 12.8063 1.05075 13.2188C1.10741 13.4888 1.35228 13.6616 1.62675 13.6901C2.802 13.8121 4.83753 13.8405 5.72103 13.8471C5.95918 13.8489 6.15106 14.0408 6.15285 14.2789C6.15945 15.1624 6.18785 17.198 6.3099 18.3733C6.3384 18.6477 6.51114 18.8926 6.7812 18.9492C7.19369 19.0358 7.63809 18.9975 7.97471 18.9392C8.31234 18.8806 8.5423 18.5899 8.56744 18.2481C8.64354 17.2137 8.78022 14.9335 8.67733 13.0083Z" fill="#272A30"/>
</svg>
