<svg width="20" height="20" viewBox="0 0 20 20" fill="none" xmlns="http://www.w3.org/2000/svg">
<g clip-path="url(#clip0_317_1679)">
<path d="M10 0C15.5228 0 20 4.47715 20 10C20 15.5228 15.5228 20 10 20C4.47715 20 0 15.5228 0 10C0 4.47715 4.47715 0 10 0Z" fill="#20406B"/>
<path fill-rule="evenodd" clip-rule="evenodd" d="M14.1769 12.2696C14.9999 12.2696 15.667 11.6025 15.667 10.7795C15.667 9.95659 14.9999 9.28944 14.1769 9.28944C13.354 9.28944 12.6868 9.95659 12.6868 10.7795C12.6868 11.6025 13.354 12.2696 14.1769 12.2696ZM14.1769 14C15.9556 14 17.3974 12.5582 17.3974 10.7795C17.3974 9.00093 15.9556 7.55908 14.1769 7.55908C12.3983 7.55908 10.9565 9.00093 10.9565 10.7795C10.9565 12.5582 12.3983 14 14.1769 14Z" fill="#F3DCCE"/>
<path fill-rule="evenodd" clip-rule="evenodd" d="M6.22046 12.2696C7.04343 12.2696 7.71057 11.6024 7.71057 10.7795C7.71057 9.95653 7.04343 9.28938 6.22046 9.28938C5.3975 9.28938 4.73036 9.95653 4.73036 10.7795C4.73036 11.6024 5.3975 12.2696 6.22046 12.2696ZM6.22046 14C7.99908 14 9.44093 12.5581 9.44093 10.7795C9.44093 9.00087 7.99908 7.55902 6.22046 7.55902C4.44185 7.55902 3 9.00087 3 10.7795C3 12.5581 4.44185 14 6.22046 14Z" fill="#F3DCCE"/>
<path d="M13.4306 0.604004C14.037 0.82547 14.616 1.10397 15.161 1.433L15.161 9.83091H13.4306V0.604004Z" fill="#DF5252"/>
<path d="M6.86557 0.501099L6.86557 9.83091H5.13521V1.26103C5.68241 0.955762 6.26125 0.7004 6.86557 0.501099Z" fill="#DF5252"/>
</g>
<defs>
<clipPath id="clip0_317_1679">
<rect width="20" height="20" fill="white"/>
</clipPath>
</defs>
</svg>
