<svg width="20" height="20" viewBox="0 0 20 20" fill="none" xmlns="http://www.w3.org/2000/svg">
<path fill-rule="evenodd" clip-rule="evenodd" d="M11 4H9C7.05784 4 5.80242 4.00425 4.87741 4.12861C4.00993 4.24524 3.73803 4.43354 3.58579 4.58579C3.43354 4.73803 3.24524 5.00993 3.12861 5.87741C3.00425 6.80242 3 8.05784 3 10C3 11.9422 3.00425 13.1976 3.12861 14.1226C3.24524 14.9901 3.43354 15.262 3.58579 15.4142C3.73803 15.5665 4.00993 15.7548 4.87741 15.8714C5.80242 15.9958 7.05784 16 9 16H11C12.9422 16 14.1976 15.9958 15.1226 15.8714C15.9901 15.7548 16.262 15.5665 16.4142 15.4142C16.5665 15.262 16.7548 14.9901 16.8714 14.1226C16.9958 13.1976 17 11.9422 17 10C17 8.05784 16.9958 6.80242 16.8714 5.87741C16.7548 5.00993 16.5665 4.73803 16.4142 4.58579C16.262 4.43354 15.9901 4.24524 15.1226 4.12861C14.1976 4.00425 12.9422 4 11 4ZM2.17157 3.17157C1 4.34315 1 6.22876 1 10C1 13.7712 1 15.6569 2.17157 16.8284C3.34315 18 5.22876 18 9 18H11C14.7712 18 16.6569 18 17.8284 16.8284C19 15.6569 19 13.7712 19 10C19 6.22876 19 4.34315 17.8284 3.17157C16.6569 2 14.7712 2 11 2H9C5.22876 2 3.34315 2 2.17157 3.17157Z" fill="#272A30"/>
<path d="M4.40006 10.2037C4.41418 10.6545 4.42124 10.8799 4.59639 11.066C4.77155 11.2521 4.97946 11.2713 5.3953 11.3095C5.6513 11.3331 5.95176 11.35 6.2875 11.35C6.62324 11.35 6.9237 11.3331 7.17971 11.3095C7.59554 11.2713 7.80345 11.2521 7.97861 11.066C8.15376 10.8799 8.16082 10.6545 8.17494 10.2037C8.18859 9.7675 8.2 9.17783 8.2 8.42498C8.2 7.67212 8.18859 7.08245 8.17494 6.64623C8.16082 6.19541 8.15376 5.97001 7.97861 5.78392C7.80345 5.59783 7.59554 5.57869 7.1797 5.5404C6.9237 5.51683 6.62324 5.49998 6.2875 5.49998C5.95176 5.49998 5.6513 5.51683 5.3953 5.5404C4.97946 5.57869 4.77155 5.59783 4.59639 5.78392C4.42124 5.97001 4.41418 6.19541 4.40006 6.64623C4.38641 7.08245 4.375 7.67212 4.375 8.42498C4.375 9.17783 4.38641 9.7675 4.40006 10.2037Z" fill="#272A30"/>
<path d="M7.38789 14.4806C7.6563 14.4708 7.7905 14.4659 7.97628 14.2872C8.16207 14.1085 8.16981 14.0056 8.18528 13.7999C8.19433 13.6797 8.19995 13.539 8.19995 13.375C8.19995 13.211 8.19433 13.0703 8.18528 12.9501C8.16981 12.7444 8.16207 12.6415 7.97628 12.4628C7.7905 12.2841 7.6563 12.2792 7.38789 12.2694C7.09862 12.2589 6.72495 12.25 6.28745 12.25C5.84995 12.25 5.47628 12.2589 5.18701 12.2694C4.9186 12.2792 4.7844 12.2841 4.59862 12.4628C4.41284 12.6415 4.4051 12.7444 4.38962 12.9501C4.38057 13.0703 4.37495 13.211 4.37495 13.375C4.37495 13.539 4.38057 13.6797 4.38962 13.7999C4.4051 14.0056 4.41284 14.1085 4.59862 14.2872C4.7844 14.4659 4.91861 14.4708 5.18701 14.4806C5.47628 14.4911 5.84996 14.5 6.28745 14.5C6.72495 14.5 7.09862 14.4911 7.38789 14.4806Z" fill="#272A30"/>
</svg>
