<svg width="20" height="20" viewBox="0 0 20 20" fill="none" xmlns="http://www.w3.org/2000/svg">
<path fill-rule="evenodd" clip-rule="evenodd" d="M18.9998 10C18.9998 14.9706 14.9703 19 9.99976 19C5.02919 19 0.999756 14.9706 0.999756 10C0.999756 5.02944 5.02919 1 9.99976 1C14.9703 1 18.9998 5.02944 18.9998 10ZM12.8108 8.41819C12.7185 6.93568 11.4576 5.80238 9.97836 5.86291C8.66584 5.82721 7.50638 6.72045 7.20878 8.00306C7.10553 8.4481 7.38259 8.89257 7.82763 8.99583C8.27266 9.09909 8.71714 8.82202 8.82039 8.37699C8.94123 7.8562 9.41557 7.49511 9.94974 7.51728C9.97641 7.51839 10.0031 7.5182 10.0298 7.51673C10.6096 7.48463 11.1079 7.91938 11.1576 8.49478C11.1488 8.81124 10.9737 9.10054 10.6959 9.25487L9.59815 9.86473C9.19879 10.0866 9.05491 10.5902 9.27679 10.9896C9.49866 11.3889 10.0023 11.5328 10.4016 11.3109L11.4993 10.7011C12.3098 10.2509 12.8124 9.39668 12.8124 8.4696C12.8124 8.45245 12.8119 8.4353 12.8108 8.41819ZM9.99892 14.1357C10.4558 14.1363 10.8266 13.7664 10.8272 13.3096C10.8266 12.8527 10.4558 12.4807 9.99891 12.4813C9.54289 12.4819 9.17337 12.8514 9.17278 13.3074C9.17219 13.7643 9.54207 14.1351 9.99892 14.1357Z" fill="#272A30"/>
</svg>
