<svg width="20" height="20" viewBox="0 0 20 20" fill="none" xmlns="http://www.w3.org/2000/svg">
<path fill-rule="evenodd" clip-rule="evenodd" d="M10 17C13.866 17 17 13.866 17 10C17 6.13401 13.866 3 10 3C6.13401 3 3 6.13401 3 10C3 13.866 6.13401 17 10 17ZM10 19C14.9706 19 19 14.9706 19 10C19 5.02944 14.9706 1 10 1C5.02944 1 1 5.02944 1 10C1 14.9706 5.02944 19 10 19Z" fill="#272A30"/>
<path d="M9.97836 5.86291C11.4576 5.80238 12.7185 6.93568 12.8108 8.41819C12.8119 8.4353 12.8124 8.45245 12.8124 8.4696C12.8124 9.39668 12.3098 10.2509 11.4993 10.7011L10.4016 11.3109C10.0023 11.5328 9.49866 11.3889 9.27679 10.9896C9.05491 10.5902 9.19879 10.0866 9.59815 9.86473L10.6959 9.25487C10.9737 9.10054 11.1488 8.81124 11.1576 8.49478C11.1079 7.91938 10.6096 7.48463 10.0298 7.51673C10.0031 7.5182 9.97641 7.51839 9.94974 7.51728C9.41557 7.49511 8.94123 7.8562 8.82039 8.37699C8.71714 8.82202 8.27266 9.09909 7.82763 8.99583C7.38259 8.89257 7.10553 8.4481 7.20878 8.00306C7.50638 6.72045 8.66584 5.82721 9.97836 5.86291Z" fill="#272A30"/>
<path d="M10.8272 13.3096C10.8266 13.7664 10.4558 14.1363 9.99892 14.1357C9.54207 14.1351 9.17219 13.7643 9.17278 13.3074C9.17337 12.8514 9.54289 12.4819 9.99891 12.4813C10.4558 12.4807 10.8266 12.8527 10.8272 13.3096Z" fill="#272A30"/>
</svg>
