<svg width="20" height="20" viewBox="0 0 20 20" fill="none" xmlns="http://www.w3.org/2000/svg">
<path fill-rule="evenodd" clip-rule="evenodd" d="M1.3477 8.8942C1.12184 9.20428 1 9.57927 1 9.96435C1 10.3387 1.11516 10.7038 1.32954 11.0091L1.84406 11.7418C5.83117 17.4194 14.1688 17.4194 18.1559 11.7418L18.6705 11.0091C18.8848 10.7038 19 10.3387 19 9.96435C19 9.57927 18.8782 9.20428 18.6523 8.8942L18.1039 8.14135C14.0818 2.61955 5.91821 2.61955 1.89609 8.14135L1.3477 8.8942ZM9.75486 7.35362C8.20761 7.35362 6.95331 8.62166 6.95331 10.1859C6.95331 11.7501 8.20761 13.0181 9.75486 13.0181H10.2451C11.7924 13.0181 13.0467 11.7501 13.0467 10.1859C13.0467 8.62166 11.7924 7.35362 10.2451 7.35362H9.75486Z" fill="#272A30"/>
</svg>
