<svg width="20" height="20" viewBox="0 0 20 20" fill="none" xmlns="http://www.w3.org/2000/svg">
<path fill-rule="evenodd" clip-rule="evenodd" d="M9.82617 1.6575L9.88536 1.41569C9.98358 0.994709 10.502 0.856356 10.7892 1.17448C11.9814 2.49515 12.8928 4.21555 13.5683 6.15566C13.8088 6.84642 14.0038 7.52272 14.1577 8.16219L14.2161 8.41449L14.2395 8.40007C14.5679 8.18111 14.8699 7.9223 15.1387 7.62891L15.2929 7.45132C15.5977 7.0891 16.0457 7.26611 16.1909 7.58492L16.201 7.61136L16.2507 7.69254C18.2032 11.0067 17.3458 15.2922 14.2993 17.5635L14.1278 17.6876C10.877 19.9698 6.43983 19.2024 4.10535 15.954C1.77086 12.7057 2.38266 8.15036 5.48726 5.6646C5.84245 5.3802 6.36071 5.65137 6.34245 6.11206C6.31867 6.71223 6.54925 7.28635 6.9631 7.69483L6.97582 7.70653L7.06929 7.6136C7.72284 6.93545 8.32993 5.87771 8.86833 4.5634L8.97508 4.29716C9.22126 3.67003 9.43695 3.02772 9.62126 2.40043C9.70619 2.11134 9.7746 1.85993 9.82617 1.6575ZM7.90211 11.2595C8.46555 10.0105 9.32175 8.919 10.3981 8.08387C10.3981 8.08387 11.0335 7.66283 11.5972 7.48907C11.5144 7.79793 11.4955 7.95475 11.4487 8.41706C11.3416 9.4743 11.3539 10.5397 11.4846 11.5924L11.5072 11.7599L11.6694 11.6842C11.7104 11.6637 11.7494 11.6444 11.7868 11.6259C12.1141 11.464 12.3178 11.3632 12.6314 11.0938C12.9809 10.7935 13.292 10.2966 13.292 10.2966C13.292 10.2966 14.1315 11.0938 14.1258 12.6294C14.1169 14.9705 12.2682 16.8685 9.97674 16.8685C7.68532 16.8685 5.82775 14.9706 5.82775 12.6292C5.82797 12.0203 5.97664 11.4292 6.20845 10.8664C6.41699 10.3601 6.80855 10.0124 6.80855 10.0124C6.80855 10.0124 6.87105 10.4367 7.08915 10.7404C7.28601 11.0145 7.55094 11.2213 7.82104 11.4124L7.83239 11.4203L7.90211 11.2595Z" fill="#272A30"/>
</svg>
