<svg width="20" height="20" viewBox="0 0 20 20" fill="none" xmlns="http://www.w3.org/2000/svg">
<g clip-path="url(#clip0_114_1322)">
<path d="M10 -6.10466e-05C15.5228 -6.10528e-05 20 4.47709 20 9.99994C20 15.5228 15.5228 19.9999 10 19.9999C4.47715 19.9999 7.55665e-08 15.5228 6.92737e-08 9.99994C6.29809e-08 4.47709 4.47715 -6.10403e-05 10 -6.10466e-05Z" fill="#84D9FF"/>
<path d="M18.2047 4.28162C18.6222 4.87955 18.976 5.52524 19.2563 6.20887C17.0817 8.68148 14.4405 11.7315 13.5195 12.9565C12.2562 14.6369 11.1871 15.1573 10.8404 15.0774L3.56007 13.4001C2 13.0407 2.1198 12.5207 2.41932 11.2206C2.77873 9.66054 3.79838 8.8002 4.57841 8.97991C5.08894 9.09753 5.88853 9.39351 6.76524 9.71804C7.82912 10.1119 9.00657 10.5477 9.91886 10.7579C11.5829 11.1413 13.6516 9.60989 14.478 8.79629L18.2047 4.28162Z" fill="black"/>
<path d="M15.9213 7.04781L17.2127 5.4834L18.1124 7.5141C17.5061 8.20842 16.8932 8.91467 16.3152 9.58707L15.9157 9.40679L16.0965 9.84194C15.6205 10.3972 15.1729 10.9246 14.7779 11.3973L13.9069 9.30113C14.1324 9.11952 14.3262 8.94582 14.478 8.79635L15.6982 7.31816L16.1268 7.51154L15.9213 7.04781Z" fill="white"/>
</g>
<defs>
<clipPath id="clip0_114_1322">
<rect width="20" height="20" fill="white"/>
</clipPath>
</defs>
</svg>
