<svg width="20" height="20" viewBox="0 0 20 20" fill="none" xmlns="http://www.w3.org/2000/svg">
<g clip-path="url(#clip0_114_1321)">
<path d="M10 0C15.5228 0 20 4.47715 20 10C20 15.5228 15.5228 20 10 20C4.47715 20 0 15.5228 0 10C0 4.47715 4.47715 0 10 0Z" fill="#256BAB"/>
<path fill-rule="evenodd" clip-rule="evenodd" d="M19.6313 7.30017C19.8715 8.159 20 9.06452 20 10C20 10.8969 19.8819 11.7662 19.6605 12.5932C19.335 12.7189 19 12.8385 18.6555 12.9509L16.3687 10.3352C17.6282 9.95978 18.4574 9.4486 18.3908 9.01478C18.3032 8.44424 16.6973 8.21105 14.7291 8.45974L14.209 7.86483C15.9183 7.59054 17.7345 7.3904 19.6313 7.30017ZM2.0539 11.55C4.22258 10.4668 7.88209 9.08079 12.4534 8.17882L12.9925 8.79546C11.5671 9.17594 10.5992 9.73304 10.671 10.2004C10.7635 10.8028 12.5485 11.0291 14.6656 10.7092L17.0261 13.4093C13.0785 14.3486 8.07877 14.3347 2.11017 12.2634C1.78051 12.149 1.74172 11.7059 2.0539 11.55Z" fill="#FF9B3E"/>
<path fill-rule="evenodd" clip-rule="evenodd" d="M18.8608 14.6397C18.6126 15.1128 18.3276 15.5635 18.0096 15.9882L10.2145 7.07189L11.3652 6.06592L18.8608 14.6397Z" fill="white"/>
<path d="M7.25137 4.83131C7.15424 4.69784 7.17505 4.51232 7.29932 4.40368L9.24496 2.7028C9.36923 2.59416 9.55587 2.59834 9.67516 2.71242L12.0927 5.0245C12.4408 5.35741 12.4283 5.91723 12.0656 6.23424L10.4221 7.671C10.0595 7.98801 9.50302 7.9256 9.21962 7.53614L7.25137 4.83131Z" fill="#C0CDB1"/>
</g>
<defs>
<clipPath id="clip0_114_1321">
<rect width="20" height="20" fill="white"/>
</clipPath>
</defs>
</svg>
