<svg width="100" height="50" viewBox="0 0 100 50" fill="none" xmlns="http://www.w3.org/2000/svg">
<path d="M97.259 22.4839H89.2155C88.3752 22.4839 87.6116 22.8648 87.1047 23.4755C85.96 22.6858 84.4709 22.2744 82.7195 22.2744H82.51C81.209 22.2744 79.4301 22.4763 77.8649 23.3573C77.3645 22.82 76.6509 22.4839 75.8586 22.4839H73.0802C72.3238 22.4839 71.6294 22.7926 71.1287 23.2997C70.628 22.7927 69.9338 22.4839 69.1772 22.4839H66.9204C67.4797 21.1573 67.3261 19.5744 66.379 18.3615L55.9933 5.06325C55.2111 4.06139 54.0327 3.48657 52.7607 3.48657C51.8511 3.48657 50.9552 3.7951 50.2377 4.35535C49.9242 4.60024 49.656 4.88191 49.4345 5.18966C49.2282 5.02794 49.0214 4.88699 48.7912 4.757C47.9353 4.27352 46.9633 4.01794 45.9802 4.0179C44.9276 4.01788 43.8966 4.30803 42.9986 4.85703C42.3758 5.23785 41.9335 5.69573 41.2007 6.45431C39.9917 7.70573 39.3263 8.39448 38.8275 9.27776C37.4105 11.7863 37.4637 14.872 38.9665 17.3306C39.0578 17.4798 39.154 17.6233 39.2566 17.7641C38.7062 19.2527 38.5123 20.8494 38.676 22.4143C38.5144 22.3834 38.35 22.3627 38.1833 22.3524C37.6167 21.9704 36.9446 21.762 36.2386 21.7619C35.4744 21.7619 34.7226 22.0187 34.1166 22.4839H30.5148C29.6331 22.4839 28.8234 22.9057 28.3151 23.5887C27.8155 22.9181 27.0166 22.4839 26.1159 22.4839H23.0758C22.4198 22.4839 21.8106 22.716 21.3338 23.1084C20.847 22.7079 20.2323 22.4839 19.5918 22.4839H16.5533C15.7236 22.4839 14.9686 22.8553 14.4617 23.4526C13.3215 22.6777 11.8443 22.2744 10.1099 22.2744H10.0576C7.46997 22.2744 2.99078 23.0735 2.0646 28.4254L0.128907 39.4109C-0.317239 41.86 0.479246 43.4429 1.22653 44.3398C2.0528 45.3315 3.68292 46.5135 6.75699 46.5135H6.80937C8.29373 46.5135 9.95397 46.2771 11.3886 45.4971C11.9008 46.0114 12.5991 46.3039 13.3312 46.3039H16.3699C17.0256 46.3039 17.6348 46.0718 18.1118 45.6795C18.5985 46.0799 19.2131 46.3039 19.8537 46.3039H26.9C27.8639 46.3039 28.7396 45.8 29.2314 45.0053C29.3373 45.1762 29.4624 45.3363 29.6054 45.4822C30.121 46.0078 30.8264 46.3039 31.5627 46.3039H65.7457C66.5425 46.3039 67.2704 45.9613 67.7758 45.4052C68.2809 45.9611 69.0086 46.3039 69.8059 46.3039H72.6349C73.476 46.3039 74.2404 45.9222 74.7473 45.3103C75.7035 45.9696 77.1243 46.5135 79.2094 46.5135H79.4189C80.9152 46.5135 82.59 46.2735 84.0324 45.4784C84.5462 46.0042 85.2524 46.3039 85.9935 46.3039H94.1139C95.4443 46.3039 96.5828 45.3488 96.814 44.0386L97.2854 41.3667C97.4262 40.5685 97.2067 39.7489 96.6858 39.128C96.3286 38.7023 95.8549 38.3999 95.3311 38.2518C96.3474 37.9865 97.148 37.1505 97.3378 36.0754L97.7944 33.4884C97.8321 33.3072 97.8519 33.1194 97.8519 32.9269C97.8519 31.9715 97.3635 31.1302 96.6226 30.6393H96.7858C98.1162 30.6393 99.2546 29.6843 99.4858 28.3741L99.9424 25.7872C99.9802 25.6059 100 25.4181 100 25.2257C100 23.7114 98.7733 22.4839 97.259 22.4839Z" fill="black"/>
<path d="M12.1007 39.8949C11.603 42.7241 9.84804 43.7717 6.80936 43.7717H6.75698C4.24227 43.7717 2.3039 42.7502 2.82769 39.8949L4.76623 28.8929C5.23765 26.1689 7.01888 25.0162 10.0576 25.0162H10.1099C12.6246 25.0162 14.5106 26.1689 14.0392 28.8929L13.4366 32.2459H10.3981L10.9221 29.3645C11.1316 28.081 10.5815 27.688 9.61225 27.688C8.64298 27.688 7.93577 28.081 7.72625 29.3645L5.94502 39.4234C5.70923 40.7069 6.2854 41.0998 7.25467 41.0998C8.22394 41.0998 8.90504 40.7069 9.14066 39.4234L9.717 36.0965H12.7557L12.1007 39.8949Z" fill="white"/>
<path d="M19.5918 25.2257L18.2558 32.8748H21.7398L23.0758 25.2257H26.1143L22.8923 43.5622H19.8537L21.2682 35.5988H17.7843L16.3699 43.5622H13.3312L16.5533 25.2257H19.5918Z" fill="white"/>
<path d="M31.5627 43.5622L31.6412 39.4759H28.2622L26.9 43.5622H23.8876L30.5148 25.2257H34.3394L34.5751 43.5622H31.5627ZM31.6675 36.961L31.8246 28.8143L29.1004 36.961H31.6675Z" fill="white"/>
<path d="M43.2976 43.5622H35.57L38.7921 25.2257H41.8306L39.0801 40.8378H43.769L43.2976 43.5622Z" fill="white"/>
<path d="M52.1249 43.5622H44.3973L47.6194 25.2257H50.6579L47.9074 40.8378H52.5963L52.1249 43.5622Z" fill="white"/>
<path d="M53.2247 43.5622L56.4468 25.2257H64.4886L64.017 27.8976H59.0139L58.1494 32.927H62.3406L61.869 35.5988H57.678L56.7348 40.8903H61.8166L61.3452 43.5622H53.2247Z" fill="white"/>
<path d="M62.9689 43.5622L66.191 25.2257H69.1772L71.0894 36.5681L73.0802 25.2257H75.8569L72.6349 43.5622H69.8059L67.8412 31.6434L65.7457 43.5622H62.9689Z" fill="white"/>
<path d="M84.7104 39.8949C84.2127 42.7241 82.4576 43.7717 79.4189 43.7717H79.2094C76.6947 43.7717 74.7563 42.7502 75.2801 39.8949L77.2187 28.8929C77.6901 26.1689 79.4713 25.0162 82.51 25.0162H82.7195C85.2342 25.0162 87.1202 26.1689 86.6488 28.8929L86.1772 31.5126H83.1387L83.5316 29.3645C83.7411 28.0548 83.1387 27.688 82.1433 27.688C81.1478 27.688 80.3882 28.0548 80.1787 29.3645L78.3974 39.4234C78.1616 40.733 78.7904 41.0998 79.7857 41.0998C80.7811 41.0998 81.5146 40.733 81.7504 39.4234L82.2218 36.699H80.4406L80.8859 34.1319H85.7058L84.7104 39.8949Z" fill="white"/>
<path d="M85.9934 43.5622L89.2155 25.2257H97.2573L96.7858 27.8976H91.7826L90.9181 32.927H95.1093L94.6377 35.5988H90.4467L89.5035 40.8903H94.5853L94.1139 43.5622H85.9934Z" fill="white"/>
<path d="M62.2879 26.1527C62.1868 25.7867 61.9633 25.3995 61.5163 24.6249L60.3452 22.5955C60.7671 21.9762 61.0408 21.2759 61.1607 20.549L62.0763 21.7216C62.5382 22.3129 63.3921 22.4179 63.9835 21.9561C64.5749 21.4942 64.6799 20.6404 64.218 20.049L53.8324 6.75083C53.3706 6.15933 52.5167 6.05442 51.9253 6.51628C51.3339 6.97813 51.2289 7.83196 51.6907 8.42337L52.6169 9.60922C51.8818 9.54769 51.1346 9.64035 50.4298 9.89734L48.7381 8.26302C48.095 7.64167 47.7734 7.33101 47.4427 7.14424C46.503 6.61345 45.3495 6.63338 44.4287 7.19631C44.1048 7.39436 43.7941 7.71597 43.1727 8.3592C42.0854 9.48466 41.5416 10.0474 41.2148 10.626C40.2859 12.2705 40.3209 14.2892 41.3059 15.9006C41.5559 16.3095 41.9223 16.7094 42.5273 17.307C41.004 19.6912 40.9459 22.7691 42.4423 25.2228L39.8502 26.8261L38.8313 25.5216C38.4469 25.0293 37.7362 24.9419 37.2439 25.3263L36.8248 24.7896C36.572 24.466 36.1048 24.4085 35.7812 24.6613C35.4575 24.914 35.4 25.3813 35.6528 25.705L41.4243 33.0951C41.677 33.4187 42.1443 33.4761 42.468 33.2233C42.7916 32.9706 42.8491 32.5034 42.5963 32.1798L42.1768 31.6426C42.6691 31.2582 42.7565 30.5475 42.3721 30.0552L41.3529 28.7504L43.5407 26.6199C45.5637 28.6505 48.5526 29.3374 51.2323 28.4516C51.6681 29.1881 51.9681 29.6422 52.3055 29.9851C53.6303 31.3312 55.5804 31.8541 57.4008 31.3514C58.0414 31.1745 58.7191 30.7834 60.0746 30.0012C60.8492 29.5542 61.2365 29.3307 61.5071 29.0643C62.2764 28.3073 62.5751 27.193 62.2879 26.1527ZM43.1532 11.7209C43.3051 11.4521 43.5899 11.1313 44.7738 9.90587C45.0981 9.57022 45.2915 9.37067 45.4434 9.22678C45.5395 9.13575 45.5847 9.10042 45.5959 9.09206C45.8245 8.95522 46.1086 8.95032 46.3417 9.0791C46.3532 9.08714 46.3995 9.12096 46.4987 9.20859C46.6554 9.34704 46.8557 9.53979 47.1913 9.86413L48.5121 11.1401L43.9757 15.607C43.4883 15.1213 43.3152 14.919 43.2054 14.7394C42.6416 13.8173 42.6216 12.662 43.1532 11.7209ZM59.9508 27.4725C59.9398 27.4814 59.8946 27.5167 59.783 27.5879C59.6067 27.7003 59.3661 27.8397 58.9619 28.073C57.4862 28.9246 57.1058 29.1233 56.8083 29.2056C55.7664 29.4933 54.6504 29.194 53.8923 28.4236C53.7453 28.2743 53.5873 28.0501 53.2376 27.4659L58.6704 24.1471L59.5882 25.7375C59.8214 26.1418 59.9599 26.3829 60.0564 26.5684C60.1174 26.6859 60.1389 26.7391 60.1438 26.7522C60.2123 27.0095 60.1388 27.284 59.9508 27.4725Z" fill="#E00818"/>
<path fill-rule="evenodd" clip-rule="evenodd" d="M53.9738 17.0981L51.6639 15.7451C51.1963 15.4322 50.6078 15.4633 50.231 15.821L47.8453 18.0856C47.5929 18.3251 47.4714 18.6789 47.515 19.047L47.5221 21.6825C47.5798 22.1693 47.9152 22.5988 48.3734 22.7727L50.984 23.5168C51.3481 23.6548 51.7398 23.6121 52.0382 23.4015L54.7325 21.501C55.1358 21.2165 55.2916 20.6828 55.1191 20.1772L54.4662 17.7391C54.3774 17.4787 54.2027 17.2513 53.9738 17.0981ZM53.0324 18.5318C53.144 18.3339 52.9596 18.0978 52.7405 18.1581L51.7628 18.4273C51.6719 18.4524 51.5742 18.4249 51.509 18.356L50.8181 17.6274C50.6655 17.4663 50.3959 17.5611 50.3793 17.7816L50.3006 18.8323C50.2944 18.9152 50.2483 18.9897 50.177 19.0318L49.2419 19.5839C49.0504 19.697 49.0874 19.9855 49.3017 20.0495L50.1407 20.2998C50.2456 20.3312 50.3195 20.4258 50.3245 20.5353L50.3641 21.4099C50.3742 21.6332 50.6452 21.7391 50.8013 21.5807L51.5636 20.8073C51.6217 20.7483 51.7051 20.7215 51.787 20.7356L52.8255 20.9139C53.0435 20.9513 53.2008 20.7126 53.0814 20.5254L52.5419 19.6786C52.4909 19.5987 52.4879 19.4973 52.5343 19.4152L53.0324 18.5318Z" fill="white"/>
<path d="M61.9232 13.716C62.327 13.5308 62.7608 13.9078 62.6338 14.3334L62.2154 15.7363C62.1794 15.8569 62.1886 15.9863 62.2413 16.1005L62.8543 17.4285C63.0409 17.8328 62.6628 18.2682 62.2363 18.1398L60.8357 17.7184C60.7153 17.6822 60.5858 17.6911 60.4714 17.7436L59.1408 18.3539C58.737 18.5391 58.3033 18.1622 58.4302 17.7366L58.8487 16.3337C58.8847 16.2132 58.8754 16.0836 58.8227 15.9694L58.2097 14.6414C58.0231 14.2371 58.4013 13.8018 58.8277 13.9301L60.2283 14.3516C60.3488 14.3878 60.4783 14.3789 60.5926 14.3265L61.9232 13.716Z" fill="white"/>
<path d="M56.4468 25.2257L55.9723 27.9259C56.0087 27.9211 56.0428 27.9113 56.0798 27.9079C56.7778 27.8438 57.4728 27.9126 58.1594 28.0411C58.2953 28.015 58.4391 27.9998 58.5928 27.9998C58.6686 27.9998 58.7412 28.0044 58.8122 28.0115C58.8714 28.0056 58.9335 28.0039 58.9958 28.0025L59.0139 27.8976H64.017L64.4886 25.2257H56.4468Z" fill="white"/>
</svg>
