<svg width="20" height="20" viewBox="0 0 20 20" fill="none" xmlns="http://www.w3.org/2000/svg">
<path fill-rule="evenodd" clip-rule="evenodd" d="M13.4887 13.2034C15.3569 12.0379 16.5999 9.96405 16.5999 7.59989C16.5999 3.95487 13.6451 1 10 1C6.35502 1 3.40015 3.95487 3.40015 7.59989C3.40015 9.96415 4.64331 12.0381 6.51163 13.2036C6.38153 13.3708 6.38152 13.6344 6.38152 14.1245V14.2747C6.38152 14.805 6.38152 15.0701 6.54626 15.2349C6.71099 15.3996 6.97613 15.3996 7.5064 15.3996H12.494C13.0243 15.3996 13.2894 15.3996 13.4542 15.2349C13.6189 15.0701 13.6189 14.805 13.6189 14.2747V14.1245C13.6189 13.6342 13.6189 13.3706 13.4887 13.2034ZM10.9439 2.28332C10.4278 2.19167 9.99964 2.62505 9.99964 3.14922C9.99964 3.67339 10.4321 4.08581 10.9372 4.22615C11.0737 4.2641 11.2082 4.31039 11.3397 4.36487C11.7645 4.54084 12.1506 4.79878 12.4757 5.12395C12.8009 5.44911 13.0588 5.83514 13.2348 6.25999C13.2893 6.3915 13.3356 6.52594 13.3735 6.66252C13.5139 7.16756 13.9263 7.60004 14.4505 7.60004C14.9746 7.60004 15.408 7.17192 15.3164 6.65582C15.2482 6.27189 15.1384 5.89556 14.9885 5.53359C14.7171 4.87844 14.3194 4.28316 13.818 3.78173C13.3165 3.2803 12.7212 2.88254 12.0661 2.61117C11.7041 2.46124 11.3278 2.35151 10.9439 2.28332Z" fill="#272A30"/>
<path d="M6.38152 16.5248C6.38152 15.9945 6.38152 15.7294 6.54626 15.5646C6.71099 15.3999 6.97613 15.3996 7.5064 15.3996H12.494C13.0243 15.3996 13.2894 15.3999 13.4542 15.5646C13.6189 15.7294 13.6189 15.9945 13.6189 16.5248V16.675C13.6189 17.2053 13.6189 17.4704 13.4542 17.6351C13.2894 17.7999 13.0243 17.7999 12.494 17.7999H12.066C12.0198 17.9114 11.9669 18.0342 11.9084 18.17L11.8437 18.3202C11.7017 18.6499 11.6307 18.8148 11.4899 18.9074C11.3492 19 11.1697 19 10.8106 19H9.18936C8.83032 19 8.65079 19 8.51007 18.9074C8.36935 18.8148 8.29832 18.6499 8.15627 18.3202L8.09156 18.17C8.03307 18.0342 7.98018 17.9114 7.93405 17.7999H7.5064C6.97613 17.7999 6.71099 17.7999 6.54626 17.6351C6.38152 17.4704 6.38152 17.2053 6.38152 16.675V16.5248Z" fill="#272A30"/>
</svg>
