<svg width="100" height="50" viewBox="0 0 100 50" fill="none" xmlns="http://www.w3.org/2000/svg">
<path d="M90.4468 23.2283C89.2243 21.7621 87.2431 20.9547 84.8683 20.9547H84.8143C83.4801 20.9547 82.2826 21.1624 81.2359 21.5541C81.2341 21.5413 81.234 21.5285 81.232 21.5157L80.2541 15.3787C81.3003 14.4586 82.2301 13.0532 82.6035 10.9069L83.197 7.53407C83.6447 5.03579 82.8126 3.40217 82.0353 2.47323C80.7999 0.996631 78.8366 0.216141 76.3579 0.216141H50.8757C50.2687 0.216141 49.7008 0.409537 49.235 0.74156C48.2163 0.261544 47.0171 0 45.6877 0H45.6336C43.1253 0 41.0893 0.720628 39.6608 2.05673C39.2594 0.981503 38.226 0.216141 37.0132 0.216141H33.0678C32.1569 0.216141 31.3233 0.654724 30.799 1.361C30.2838 0.667477 29.4611 0.216141 28.5306 0.216141H25.3941C24.3298 0.216141 23.3555 0.813658 22.873 1.76238L21.2379 4.97707L20.865 2.60526C20.6487 1.22967 19.4633 0.216141 18.0708 0.216141H15.1524C13.7792 0.216141 12.6043 1.20256 12.3666 2.55511L9.0427 21.4712C8.89804 22.2944 9.12488 23.1394 9.6623 23.7795C10.1997 24.4196 10.9927 24.7892 11.8285 24.7892H12.0755C11.9647 25.2241 11.8921 25.6733 11.8729 26.1353L11.4255 36.8812C11.342 38.8882 12.1635 40.7949 13.6797 42.1126L20.9015 48.3891C22.0969 49.4279 23.6275 50 25.2115 50C26.2085 50 27.2088 49.7677 28.1044 49.3283L36.6031 45.1584C37.1176 44.906 37.5898 44.5871 38.0142 44.2176C38.1089 44.4003 38.2241 44.5737 38.3588 44.7342C38.8962 45.3743 39.6892 45.7439 40.525 45.7439H45.3621C47.3281 45.7439 48.8415 45.3572 50.0071 44.7362C50.5444 45.375 51.3366 45.7439 52.1715 45.7439H65.3583C66.73 45.7439 67.9039 44.7598 68.1433 43.4091L68.2491 42.8126H68.9388C68.9134 43.5081 69.1426 44.1942 69.596 44.7342C70.1334 45.3743 70.9264 45.7439 71.7622 45.7439H74.897C75.7169 45.7439 76.4643 45.3905 76.9855 44.8192C78.1337 45.5731 79.62 45.9601 81.4363 45.9601H81.4903C86.1556 45.9601 88.893 43.8459 89.6265 39.6762L90.1119 36.9535C90.3971 35.3957 90.1511 34.1805 89.6566 33.2222C90.377 32.8178 90.9081 32.1049 91.0591 31.2436L91.5977 28.1729C92.0368 25.7537 91.2145 24.149 90.4468 23.2283Z" fill="black"/>
<path d="M19.8274 19.2045H18.071L16.7738 10.3948L14.7472 21.9608H11.8286L15.1525 3.04468H18.071L19.8004 14.043L25.3942 3.04468H28.5289L25.205 21.9608H22.1785L24.2051 10.3948L19.8274 19.2045Z" fill="#FFCB00"/>
<path d="M34.1489 21.9608L34.2299 17.7454H30.744L29.3388 21.9608H26.2311L33.0679 3.04468H37.0133L37.2566 21.9608H34.1489ZM34.257 15.151L34.4191 6.7467L31.6088 15.151H34.257Z" fill="#FFCB00"/>
<path d="M46.012 9.80024L46.4985 7.152C46.6875 5.96322 46.0931 5.5306 45.1742 5.5306C44.2554 5.5306 43.4989 5.96322 43.3097 7.152L43.0665 8.44919C42.9044 9.42217 43.0936 9.96252 43.9043 10.4759L45.9039 11.7189C47.5794 12.773 48.4981 13.5837 48.1468 15.5024L47.6603 18.2315C47.1469 21.1501 45.4445 22.1769 42.3098 22.1769H42.2558C39.6615 22.1769 37.7429 21.177 38.2563 18.2315L38.8509 14.9348H41.9315L41.4181 17.7992C41.2289 18.9614 41.7964 19.4748 42.7422 19.4748C43.688 19.4748 44.4717 18.9614 44.6608 17.7992L44.9311 16.3128C45.1201 15.2859 44.8771 14.7456 44.0393 14.2322L42.0665 12.9892C40.6074 12.0704 39.5535 10.8813 39.8508 9.20603L40.283 6.71972C40.7965 3.90954 42.7692 2.82849 45.6337 2.82849H45.6878C48.0116 2.82849 50.1465 3.90954 49.633 6.71972L49.0927 9.80024H46.012Z" fill="#FFCB00"/>
<path d="M63.3311 5.80099H56.6859L53.8485 21.9608H50.7138L53.5512 5.80099H50.3895L50.8759 3.04468H63.8174L63.3311 5.80099Z" fill="#FFCB00"/>
<path d="M58.0907 21.9608L61.4146 3.04468H73.6407L73.1543 5.80099H64.0629L63.171 10.9894H67.4947L67.0082 13.7457H62.6847L61.7117 19.2045H66.9542L66.4679 21.9608H58.0907Z" fill="#FFCB00"/>
<path d="M80.4114 7.04398L79.817 10.4221C79.4926 12.2866 78.6009 13.4215 77.1687 13.9891L78.4388 21.9608H75.331L74.2773 14.4214H72.6018L71.2777 21.9608H68.143L71.4669 3.04468H76.358C78.9523 3.04468 80.9246 4.17959 80.4114 7.04398ZM75.7635 5.80099H74.1151L73.0881 11.719H74.7366C75.7635 11.719 76.5201 11.3409 76.7634 9.9895L77.1957 7.53047C77.4389 6.17941 76.7903 5.80099 75.7635 5.80099Z" fill="#FFCB00"/>
<path d="M52.7394 27.9986L50.8209 38.9161C50.3073 41.7805 48.4969 42.9154 45.3621 42.9154H40.525L43.849 23.9993H48.6861C51.2803 23.9993 53.2528 25.1342 52.7394 27.9986ZM48.0915 26.7556H46.4972L44.1461 40.1591H45.7406C46.7674 40.1591 47.5241 39.7807 47.7673 38.4296L49.5237 28.4851C49.767 27.134 49.1184 26.7556 48.0915 26.7556Z" fill="white"/>
<path d="M52.1714 42.9154L55.4954 23.9993H63.7914L63.305 26.7556H58.1436L57.2518 31.944H61.5755L61.0892 34.7003H56.7653L55.7925 40.1591H61.035L60.5486 42.9154H52.1714ZM65.082 19.2383L61.2719 23.0484H58.9208L61.434 19.2383H65.082Z" fill="white"/>
<path d="M65.5475 23.9993H73.7355L73.249 26.7556H68.1958L67.277 32.079H71.4924L71.0061 34.8357H66.7905L65.3583 42.9154H62.2236L65.5475 23.9993Z" fill="white"/>
<path d="M71.7622 42.9154L75.0862 23.9993H78.2207L74.897 42.9154H71.7622Z" fill="white"/>
<path d="M85.1925 30.7548L85.679 28.1066C85.868 26.9178 85.2737 26.4852 84.3547 26.4852C83.4359 26.4852 82.6794 26.9178 82.4902 28.1066L82.247 29.4038C82.0849 30.3768 82.2741 30.9171 83.0848 31.4305L85.0844 32.6735C86.7599 33.7276 87.6787 34.5383 87.3273 36.457L86.8408 39.1861C86.3274 42.1047 84.6251 43.1315 81.4903 43.1315H81.4363C78.8421 43.1315 76.9234 42.1316 77.4368 39.1861L78.0314 35.8894H81.1121L80.5987 38.7538C80.4094 39.916 80.9769 40.4294 81.9228 40.4294C82.8685 40.4294 83.6522 39.916 83.8413 38.7538L84.1116 37.2674C84.3007 36.2405 84.0576 35.7002 83.2198 35.1868L81.2471 33.9438C79.788 33.025 78.734 31.8359 79.0313 30.1606L79.4636 27.6743C79.977 24.8641 81.9497 23.7831 84.8143 23.7831H84.8683C87.1922 23.7831 89.327 24.8641 88.8136 27.6743L88.2732 30.7548H85.1925Z" fill="white"/>
<path d="M19.1242 29.7315C19.1575 29.8592 19.2195 29.9842 19.3152 30.0981L21.7935 33.0494C21.9892 33.2823 22.0592 33.5959 21.9813 33.89L21.9234 34.1082L21.7906 34.6093L20.9592 37.7456C20.7498 38.5353 21.583 39.1946 22.3033 38.8094L25.1249 37.3007C25.4778 37.1118 25.9119 37.1688 26.2041 37.4423L28.5408 39.6281C29.1374 40.1862 30.1125 39.7642 30.114 38.9472L30.1214 34.9584C30.1221 34.6542 30.2707 34.3693 30.5198 34.1948L33.6758 31.983C34.3384 31.5187 34.1381 30.489 33.3497 30.3069L29.7841 29.4835C29.4471 29.4057 29.1806 29.1482 29.0914 28.8141L29.0798 28.7707L28.131 25.2186C27.9158 24.4131 26.8336 24.2711 26.4179 24.9937L24.5621 28.2196C24.3896 28.5193 24.0657 28.6994 23.7201 28.6876L20.0628 28.5629C19.4029 28.5404 18.9762 29.1644 19.1242 29.7315Z" fill="white"/>
<path d="M39.2206 27.7921C38.9796 26.7738 38.3173 25.8769 37.3549 25.3591L33.0224 23.028L32.9678 22.9986L29.3591 21.0569C28.6272 20.6631 27.7785 20.5442 26.9666 20.7216L21.4101 21.936L17.6534 22.7571C15.9946 23.1196 14.7885 24.5544 14.7164 26.2509L14.7122 26.35L14.5498 30.1729L14.3533 34.7992L14.2943 36.1896L14.2603 36.9909C14.212 38.1268 14.6832 39.2228 15.5407 39.9693L20.332 44.1405L20.5791 44.3556L22.7535 46.2486C23.8874 47.2357 25.5022 47.4476 26.8523 46.7866L34.1663 43.2056L35.3503 42.626C35.9239 42.3451 36.4061 41.9257 36.7636 41.4172C37.0743 40.9752 37.291 40.466 37.3878 39.9191L39.2649 29.3023C39.3555 28.7897 39.3353 28.2773 39.2206 27.7921ZM33.3497 30.3069C34.1381 30.489 34.3384 31.5187 33.6759 31.983L30.5198 34.1948C30.2707 34.3693 30.1221 34.6542 30.1214 34.9584L30.114 38.9473C30.1125 39.7643 29.1374 40.1862 28.5408 39.6281L26.2042 37.4423C25.9119 37.1688 25.4779 37.1119 25.1249 37.3007L22.3033 38.8094C21.583 39.1946 20.7498 38.5354 20.9592 37.7456L21.7906 34.6093L21.9235 34.1082L21.9813 33.89C22.0592 33.596 21.9892 33.2824 21.7936 33.0495L19.3152 30.0981C19.2195 29.9842 19.1576 29.8593 19.1242 29.7315C18.9762 29.1644 19.4029 28.5404 20.0628 28.5629L23.7201 28.6876C24.0657 28.6994 24.3897 28.5193 24.5621 28.2196L26.4179 24.9938C26.8336 24.2711 27.9158 24.4131 28.131 25.2186L29.0798 28.7707L29.0914 28.8141C29.1807 29.1482 29.4471 29.4057 29.7842 29.4835L33.3497 30.3069Z" fill="#FFCC00"/>
<path d="M33.1859 20.9052C33.438 20.5226 34.0235 20.6154 34.1449 21.0572L34.5453 22.5135C34.5797 22.6386 34.6585 22.7469 34.767 22.818L36.029 23.6451C36.4132 23.897 36.3201 24.4845 35.8768 24.6052L34.421 25.0017C34.2958 25.0358 34.1874 25.1144 34.116 25.2227L33.2851 26.4839C33.0329 26.8666 32.4475 26.7737 32.326 26.3319L31.9257 24.8757C31.8913 24.7506 31.8124 24.6423 31.7039 24.5711L30.4419 23.744C30.0577 23.4922 30.1509 22.9046 30.5941 22.7839L32.0499 22.3874C32.1752 22.3534 32.2836 22.2748 32.355 22.1664L33.1859 20.9052Z" fill="white"/>
</svg>
