<svg width="20" height="20" viewBox="0 0 20 20" fill="none" xmlns="http://www.w3.org/2000/svg">
<g clip-path="url(#clip0_317_2064)">
<path d="M10.0006 0.00170898C15.5235 0.00170898 20.0006 4.47886 20.0006 10.0017C20.0006 15.5246 15.5235 20.0017 10.0006 20.0017C4.47776 20.0017 0.000610352 15.5246 0.000610352 10.0017C0.000610352 4.47886 4.47776 0.00170898 10.0006 0.00170898Z" fill="black"/>
<path d="M10.6504 14.5773C10.5493 15.2135 10.8438 15.6803 12.0019 15.5463L15.5926 15.1306C15.6967 15.1186 15.7982 15.0915 15.891 15.0428C16.6064 14.6674 17.8067 13.702 17.8195 12.3022C17.8278 11.3853 16.9639 9.82166 16.0269 8.42017L16.2559 10.3983C16.3608 11.3045 16.3957 12.1298 16.1178 12.7567C15.9643 13.1029 15.7223 13.3786 15.3905 13.5725C15.0742 13.7573 14.708 13.8493 14.3235 13.8938C13.6034 13.9772 13.0214 13.827 12.5905 13.5937C12.2629 14.012 11.7378 14.4853 11.0129 14.5692C10.8895 14.5834 10.7684 14.5854 10.6504 14.5773Z" fill="white"/>
<path fill-rule="evenodd" clip-rule="evenodd" d="M2.15583 7.70687L2.64966 11.9732C2.97118 12.7116 3.87215 13.7391 5.15084 12.789L4.69512 7.74916C4.67085 7.4808 4.86872 7.24359 5.13708 7.21932C5.40543 7.19506 5.64265 7.39293 5.66691 7.66128L6.17292 13.2572C6.46354 13.6975 6.92458 14.0491 7.6132 13.9694C8.1641 13.9056 8.51916 13.7502 8.74095 13.5717L8.08027 7.02237C8.05322 6.75428 8.24863 6.51503 8.51672 6.48798C8.78481 6.46094 9.02406 6.65634 9.0511 6.92443L9.71455 13.5013C10.0655 13.7395 10.4992 13.9275 10.9328 13.8773C11.4337 13.8193 11.816 13.3161 12.0703 12.8535L11.4042 6.59816C11.3757 6.33023 11.5698 6.0899 11.8377 6.06137C12.1056 6.03284 12.346 6.22691 12.3745 6.49485L13.0571 12.9051C13.3608 13.1093 13.7577 13.2582 14.2433 13.202C15.5694 13.0485 15.7775 12.3233 15.564 10.4784L14.95 5.17427C14.5965 4.47514 13.4113 3.38928 11.4994 4.63888C11.0084 4.26725 9.79907 3.67887 8.88922 4.29832C8.13407 4.81246 7.69546 4.72328 7.24968 4.63265C7.02409 4.58678 6.79666 4.54054 6.52544 4.57193C6.18383 4.61147 5.92766 4.75625 5.63216 4.92324C5.22946 5.15083 4.75371 5.41969 3.88914 5.51976C2.39016 5.69327 2.00234 6.38084 2.15583 7.70687Z" fill="white"/>
</g>
<defs>
<clipPath id="clip0_317_2064">
<rect width="20" height="20" fill="white"/>
</clipPath>
</defs>
</svg>
