<svg width="20" height="20" viewBox="0 0 20 20" fill="none" xmlns="http://www.w3.org/2000/svg">
<path fill-rule="evenodd" clip-rule="evenodd" d="M4.23851 1.98851C3.25 2.97703 3.25 4.56802 3.25 7.75V12.25C3.25 15.432 3.25 17.023 4.23851 18.0115C5.22703 19 6.81802 19 10 19C13.182 19 14.773 19 15.7615 18.0115C16.75 17.023 16.75 15.432 16.75 12.25V7.75C16.75 4.56802 16.75 2.97703 15.7615 1.98851C14.773 1 13.182 1 10 1C6.81802 1 5.22703 1 4.23851 1.98851ZM14.1156 8.16312C14.5169 7.68968 14.4446 6.99188 13.9541 6.60452C13.4636 6.21717 12.7406 6.28695 12.3393 6.76038L8.83796 11.0416L7.58294 9.68254C7.13423 9.25055 6.40765 9.25143 5.96008 9.68452C5.51251 10.1176 5.51343 10.8189 5.96213 11.2509L8.11376 13.3224C8.34313 13.5432 8.65851 13.6602 8.98205 13.6444C9.3056 13.6286 9.60717 13.4816 9.81231 13.2396L14.1156 8.16312Z" fill="#272A30"/>
</svg>
