<svg width="20" height="20" viewBox="0 0 20 20" fill="none" xmlns="http://www.w3.org/2000/svg">
<path fill-rule="evenodd" clip-rule="evenodd" d="M1.61671 5.9432C1.0259 6.534 0.755185 7.38901 1.28084 8.03846C1.37673 8.15693 1.48788 8.28135 1.61671 8.41017C1.71728 8.51075 1.81516 8.60055 1.90963 8.68072C2.59605 9.26331 3.51946 8.9744 4.15609 8.33777L4.38368 8.11018C7.64176 4.8521 12.6242 5.15209 15.8822 8.41018L15.9371 8.46499C16.4997 9.0276 17.2932 9.29644 17.9153 8.80043C18.0501 8.69299 18.1951 8.56431 18.3492 8.41017C18.5034 8.25604 18.632 8.111 18.7395 7.97625C19.2355 7.35414 18.9666 6.56063 18.404 5.99802L18.3492 5.9432C13.7287 1.32264 6.23726 1.32264 1.61671 5.9432ZM4.90542 9.8543C4.51007 10.2496 4.31743 10.8117 4.61888 11.2826C4.75354 11.4929 4.94194 11.7354 5.20541 11.9989C5.46888 12.2623 5.71135 12.4507 5.92168 12.5854C6.39255 12.8869 6.95464 12.6942 7.34999 12.2989C8.80414 10.8447 11.1618 10.8447 12.6159 12.2989C13.0144 12.6973 13.573 12.8998 14.0449 12.5919C14.2517 12.457 14.4925 12.2669 14.7605 11.9989C15.0285 11.7309 15.2187 11.4901 15.3536 11.2833C15.6614 10.8113 15.459 10.2528 15.0605 9.8543C12.2563 7.05005 7.70967 7.05005 4.90542 9.8543ZM11.4835 16.9008C12.3119 16.0724 12.3119 14.7293 11.4835 13.9009C10.6551 13.0725 9.31195 13.0725 8.48354 13.9009C7.65514 14.7293 7.65514 16.0724 8.48354 16.9008C9.31195 17.7292 10.6551 17.7292 11.4835 16.9008Z" fill="#272A30"/>
</svg>
