<svg width="20" height="20" viewBox="0 0 20 20" fill="none" xmlns="http://www.w3.org/2000/svg">
<path d="M2.70711 16.8491C2.31658 16.4586 2.31658 15.8254 2.70711 15.4349L5.70617 12.4358C5.55105 12.3199 5.38297 12.1764 5.20535 11.9988C4.94188 11.7353 4.75348 11.4928 4.61882 11.2825C4.31737 10.8116 4.51001 10.2495 4.90536 9.85419C6.40853 8.35102 8.41233 7.6536 10.3801 7.76193L12.026 6.11602C9.38423 5.37003 6.51497 5.97872 4.38361 8.11008L4.15603 8.33767C3.5194 8.97429 2.59599 9.2632 1.90957 8.68062C1.8151 8.60044 1.71722 8.51064 1.61665 8.41007C1.48782 8.28124 1.37667 8.15683 1.28078 8.03835C0.755124 7.38891 1.02584 6.5339 1.61665 5.94309C5.15143 2.40831 10.3664 1.57768 14.6908 3.45121L15.435 2.70696C15.8256 2.31643 16.4587 2.31643 16.8492 2.70696C17.2398 3.09748 17.2398 3.73064 16.8492 4.12117L16.5234 4.44703L16.5252 4.44827C16.5078 4.46347 16.4907 4.47938 16.4741 4.496L4.10601 16.8641C3.71442 17.2395 3.09257 17.2346 2.70711 16.8491Z" fill="#272A30"/>
<path d="M7.91707 15.8815L10.4641 13.3344C10.8377 13.4209 11.1923 13.6097 11.4834 13.9008C12.3118 14.7292 12.3118 16.0723 11.4834 16.9007C10.655 17.7291 9.31189 17.7291 8.48348 16.9007C8.19239 16.6096 8.00359 16.255 7.91707 15.8815Z" fill="#272A30"/>
<path d="M11.9986 11.8L14.4721 9.32645C14.6754 9.48968 14.8719 9.6656 15.0605 9.85419C15.4589 10.2526 15.6614 10.8112 15.3535 11.2832C15.2186 11.4899 15.0285 11.7307 14.7605 11.9988C14.4924 12.2668 14.2516 12.4569 14.0449 12.5918C13.5729 12.8997 13.0143 12.6972 12.6159 12.2988C12.4244 12.1073 12.2173 11.941 11.9986 11.8Z" fill="#272A30"/>
<path d="M15.6308 8.1677C15.7157 8.24658 15.7995 8.32737 15.8822 8.41007L15.937 8.46489C16.4996 9.0275 17.2931 9.29634 17.9152 8.80032C18.05 8.69289 18.195 8.5642 18.3492 8.41007C18.5033 8.25594 18.632 8.1109 18.7394 7.97615C19.2354 7.35404 18.9666 6.56052 18.404 5.99791L18.3492 5.94309C18.256 5.84993 18.1617 5.75864 18.0662 5.66924C18.0205 5.75591 17.9612 5.8373 17.8883 5.91022L15.6308 8.1677Z" fill="#272A30"/>
</svg>
