<svg width="20" height="20" viewBox="0 0 20 20" fill="none" xmlns="http://www.w3.org/2000/svg">
<g clip-path="url(#clip0_114_1326)">
<path d="M10 0C15.5228 0 20 4.47715 20 10C20 15.5228 15.5228 20 10 20C4.47715 20 0 15.5228 0 10C0 4.47715 4.47715 0 10 0Z" fill="#20406B"/>
<path d="M5.18628 15.5918C4.36479 15.1498 3.72467 14.4068 3.39994 13.4992C2.76206 11.7683 3.18148 9.52146 4.49656 7.63607C4.62122 7.45917 4.84147 7.38376 5.04415 7.44858C5.24548 7.50708 5.38538 7.69512 5.38785 7.91055C5.38785 8.22554 5.49416 8.58401 5.64416 8.93199C6.0199 5.30521 7.87383 2.48087 10.8797 1.04996C11.0559 0.96652 11.2628 0.993887 11.4127 1.12046C11.5613 1.24795 11.6181 1.45044 11.5584 1.63492C11.1102 3.01822 12.5609 4.51233 13.9652 5.95865L13.9686 5.96217C14.4842 6.49014 14.9691 6.98811 15.374 7.49208C16.59 8.99199 16.9949 10.8774 16.4619 12.5333C16.114 13.6123 15.4011 14.4835 14.3996 15.0761C13.1914 14.2264 11.7142 13.7268 10.119 13.7268C8.22375 13.7268 6.49499 14.4321 5.18628 15.5918Z" fill="#FF9B3E"/>
<path d="M3.89484 9.53953C3.21491 10.9852 3.0559 12.5183 3.49506 13.735C3.81432 14.6601 4.53794 15.3674 5.43946 15.6355C6.34503 15.3794 7.27028 15.2061 8.20614 15.1202C8.7831 15.0359 9.26465 15.0359 9.64475 15.0359C10.1036 15.0359 10.7123 15.0359 11.4498 15.1854C11.7542 15.2299 12.0601 15.2872 12.366 15.3588C13.7713 14.9198 14.7586 13.9958 15.1524 12.7489C15.5961 11.343 15.2296 9.66199 14.1953 8.35947C13.8016 7.86168 13.314 7.34957 12.7961 6.80566C11.4892 5.43475 10.037 3.91275 9.92187 2.27466C7.19608 3.9875 5.74687 7.04581 5.81804 10.9979C5.8199 11.2229 5.68258 11.4231 5.47883 11.4925C5.27289 11.5661 5.04508 11.4984 4.90641 11.3224C4.49961 10.7748 4.15977 10.1759 3.89484 9.53953Z" fill="#FFCE0D"/>
<path d="M6.13317 11.8061C5.77531 12.5634 5.69162 13.3665 5.92276 14.0038C6.09079 14.4883 6.47164 14.8588 6.94613 14.9993C7.42274 14.8651 7.90972 14.7743 8.40227 14.7293C8.70594 14.6852 8.95939 14.6852 9.15944 14.6852C9.40093 14.6852 9.72133 14.6852 10.1095 14.7635C10.2697 14.7868 10.4307 14.8168 10.5917 14.8543C11.3313 14.6244 11.851 14.1404 12.0582 13.4873C12.2917 12.7508 12.0988 11.8703 11.5545 11.188C11.3472 10.9273 11.0906 10.659 10.818 10.3741C10.1302 9.65602 9.36586 8.85878 9.30529 8.00073C7.87066 8.89794 7.10792 10.4999 7.14538 12.5701C7.14636 12.6879 7.07409 12.7928 6.96685 12.8291C6.85846 12.8677 6.73856 12.8322 6.66558 12.74C6.45147 12.4532 6.27261 12.1395 6.13317 11.8061Z" fill="#DF5252"/>
<path fill-rule="evenodd" clip-rule="evenodd" d="M13.2019 19.4764C12.1966 19.8159 11.1198 20 10 20C9.02933 20 8.09096 19.8617 7.20352 19.6037C7.05918 19.4603 6.95144 19.282 6.8929 19.0834C6.79078 18.7806 6.82503 18.4491 6.98694 18.173C6.41266 17.5882 5.88812 16.9576 5.41867 16.2876C5.31918 16.1456 5.3075 15.9607 5.38834 15.8076C5.28424 15.7709 5.18222 15.7301 5.08248 15.6853C6.40287 14.4701 8.17306 13.7268 10.1187 13.7268C11.7304 13.7268 13.2217 14.2368 14.4367 15.1026C14.3287 15.1626 14.2175 15.2196 14.1033 15.2736L14.7221 15.6111C14.8322 15.6733 14.9127 15.7763 14.946 15.8972C14.9793 16.0182 14.9626 16.1473 14.8996 16.2561L14.8783 16.2891C14.8445 16.3377 14.1409 17.3498 13.3101 18.1745C13.4681 18.4514 13.5011 18.7812 13.4011 19.0834C13.3586 19.2268 13.2906 19.3596 13.2019 19.4764Z" fill="white"/>
</g>
<defs>
<clipPath id="clip0_114_1326">
<rect width="20" height="20" fill="white"/>
</clipPath>
</defs>
</svg>
