<svg width="20" height="20" viewBox="0 0 20 20" fill="none" xmlns="http://www.w3.org/2000/svg">
<path fill-rule="evenodd" clip-rule="evenodd" d="M9.31198 1C6.56165 1 4.28801 3.15048 4.1265 5.90459L4.01417 7.8201C3.6936 7.8461 3.41751 7.87291 3.18082 7.8992C2.36298 7.99007 1.76213 8.5598 1.66977 9.37999C1.58054 10.1723 1.5 11.4142 1.5 13.316C1.5 15.3242 1.60479 16.5966 1.71564 17.3809C1.82112 18.1272 2.38103 18.6345 3.12738 18.7222C4.23767 18.8526 6.3095 19.0002 10 19.0002C13.6905 19.0002 15.7623 18.8526 16.8726 18.7222C17.619 18.6345 18.1789 18.1272 18.2844 17.3809C18.3952 16.5966 18.5 15.3242 18.5 13.316C18.5 11.3078 18.3952 10.0353 18.2844 9.25107C18.1789 8.50475 17.619 7.99741 16.8726 7.90975C16.6266 7.88085 16.3334 7.8511 15.9857 7.82231L15.8733 5.90459C15.7118 3.15048 13.4381 1 10.6878 1H9.31198ZM13.1388 7.67373L13.0448 6.07148C12.9714 4.81962 11.938 3.84213 10.6878 3.84213H9.31198C8.06183 3.84213 7.02836 4.81962 6.95495 6.07149L6.861 7.67357C7.75026 7.64761 8.78914 7.63172 10 7.63172C11.2135 7.63172 12.252 7.64768 13.1388 7.67373ZM9.99996 10.9474C10.477 10.9474 10.8749 11.3093 10.9015 11.787C10.9242 12.1934 10.9444 12.722 10.9444 13.3158C10.9444 13.9095 10.9242 14.4382 10.9015 14.8446C10.8749 15.3223 10.477 15.6842 9.99996 15.6842C9.52293 15.6842 9.12504 15.3223 9.09839 14.8446C9.07571 14.4382 9.05552 13.9095 9.05552 13.3158C9.05552 12.722 9.07571 12.1934 9.09839 11.787C9.12504 11.3093 9.52293 10.9474 9.99996 10.9474Z" fill="#272A30"/>
</svg>
