<svg width="100" height="50" viewBox="0 0 100 50" fill="none" xmlns="http://www.w3.org/2000/svg">
<path d="M71.5864 40.8438C71.9863 41.2938 72.5862 41.5437 73.1861 41.5437H76.1355C76.7854 41.5437 77.3353 41.2938 77.7852 40.7938C78.785 41.3937 79.9848 41.6937 81.2345 41.6937C82.3343 41.6937 83.4841 41.4437 84.5339 40.9938C84.9338 41.3437 85.4337 41.5437 85.9836 41.5437H93.5822C94.632 41.5437 95.5318 40.7938 95.7318 39.794C95.8817 38.9942 99.881 20.0478 99.9809 18.948C100.081 18.1482 99.781 17.3483 99.2311 16.7984L96.7816 14.3489C96.0817 13.649 95.0819 13.3491 93.6322 13.2991C92.8823 13.2991 92.1824 13.3491 92.1324 13.3491C92.0825 13.3491 92.0825 13.3491 92.0325 13.3491C90.9827 13.499 89.9829 13.9989 89.233 14.7488C88.9331 14.7488 88.6331 14.7488 88.2832 14.7488C88.2832 14.5488 88.2332 14.2989 88.1832 14.0989C88.0332 13.549 87.7333 13.0491 87.3334 12.6992L85.0338 10.3996C84.8338 10.1997 84.5839 9.99971 84.3339 9.84974C83.6341 9.44982 82.7842 9.34983 82.0344 9.5498C81.8344 9.59979 81.6344 9.64978 81.4845 9.74976L80.9846 9.24985C80.3847 8.64997 79.5848 8.30003 78.735 8.30003C77.6852 8.30003 76.7354 8.84993 76.1855 9.69977C76.0355 9.64978 75.8855 9.5498 75.6856 9.5498C74.8857 9.34983 74.0859 9.44982 73.386 9.84974C72.6862 10.2497 72.1862 10.8995 71.9863 11.6994C71.7863 12.4992 71.8863 13.2991 72.2862 13.9989L72.7361 14.7988C71.9863 14.7988 71.0864 14.7488 70.1866 14.7488C69.5367 14.7488 69.0368 14.7488 68.6369 14.7488C67.7371 13.849 66.5873 13.3491 65.3375 13.3491C64.5877 13.3491 63.7878 13.649 63.188 14.1989C62.888 14.0489 62.5881 13.9989 62.2381 13.9989H59.4887C58.7388 13.9989 58.0389 14.3989 57.639 14.9988L57.3391 14.6988C56.9391 14.2489 56.3393 13.9989 55.7394 13.9989H53.0899C52.29 13.9989 51.5402 14.4489 51.1402 15.1487C49.9905 14.2989 48.5907 13.799 47.041 13.799C45.6913 13.799 44.3415 14.1489 43.0918 14.8488L42.8918 14.6488C42.4919 14.1989 41.892 13.949 41.2921 13.949H38.6426C38.0927 13.949 37.5428 14.1489 37.1429 14.5488C36.0931 14.0489 34.8933 13.799 33.6436 13.799C32.0939 13.799 30.6442 14.1989 29.4944 14.9988C28.2946 14.1989 26.8449 13.799 25.2452 13.799C24.0954 13.799 22.9956 13.9989 22.0458 14.4489C21.6459 14.1489 21.146 13.949 20.6461 13.949H17.9966C17.7966 13.949 17.5966 13.9989 17.3967 14.0489C17.1967 13.9989 16.9967 13.949 16.7968 13.949H14.0973C13.4474 13.949 12.7975 14.2489 12.3476 14.7988L11.6478 15.6986L10.598 14.6488C10.198 14.1989 9.59816 13.949 8.99827 13.949H6.49875C5.44895 13.949 4.54912 14.6988 4.34916 15.6986L2.39953 25.1468C2.34954 25.4968 2.34954 25.8467 2.44952 26.1466C2.24956 26.3966 2.09959 26.6965 2.0496 26.9965L0.049976 36.4947C-0.0999955 37.1445 0.0999665 37.7944 0.49989 38.3443C0.549881 38.4443 2.99941 40.8938 2.99941 40.8938C3.39934 41.3437 3.99922 41.5937 4.59911 41.5937H7.24861C8.29841 41.5937 9.19823 40.8438 9.3982 39.844L9.54817 39.1942L11.1979 40.8438C11.5978 41.2938 12.1977 41.5437 12.7975 41.5437H15.847C16.5968 41.5437 17.3467 41.1438 17.7466 40.4439L17.8466 40.244H17.9966L18.5465 40.7938C18.9464 41.2438 19.5463 41.4937 20.1461 41.4937H26.045C26.6449 41.4937 27.2448 41.2438 27.6447 40.7938C28.0446 41.2438 28.6445 41.4937 29.2444 41.4937H35.4932C36.0931 41.4937 36.693 41.2438 37.0929 40.7938C37.4928 41.2438 38.0927 41.4937 38.6926 41.4937H44.7915C45.5413 41.4937 46.2912 41.0938 46.6911 40.3939L46.7911 40.194H46.8911L47.441 40.7439C47.8409 41.1938 48.4408 41.4437 49.0406 41.4437H58.8388C59.5886 41.4437 60.2885 41.0438 60.6884 40.4439L60.9884 40.7439C61.3883 41.1938 61.9882 41.4437 62.5881 41.4437H68.9369C69.6867 41.4437 70.4366 41.0438 70.8365 40.3439L70.9365 40.144H71.0365L71.5864 40.8438Z" fill="#FFCC00"/>
<path d="M84.934 40.2941C85.1839 40.5941 85.5839 40.7441 85.9338 40.7441H93.5324C94.1822 40.7441 94.7321 40.2941 94.8821 39.6443C96.3318 32.8456 99.0313 19.6981 99.1313 18.8982C99.1813 18.3483 98.9813 17.7984 98.5814 17.3985L96.1319 14.949C95.632 14.4491 94.7821 14.1491 93.5324 14.1491C92.8325 14.1491 92.1826 14.1991 92.1326 14.1991H92.0826C91.1328 14.3491 90.283 14.799 89.6331 15.4489C89.5331 15.5489 89.4331 15.5988 89.3331 15.5988C88.8832 15.5988 88.3833 15.5489 87.8334 15.5489C87.7335 15.5489 87.6335 15.4989 87.5335 15.3989C87.4335 15.2989 87.4335 15.1989 87.4335 15.0989C87.4835 14.849 87.4335 14.549 87.3835 14.2991C87.2835 13.8992 87.0836 13.5492 86.7836 13.2493L84.4341 10.8997C84.2841 10.7498 84.0841 10.5998 83.9342 10.4998C83.4343 10.1999 82.8344 10.0999 82.2345 10.2999C82.0345 10.3498 81.7846 10.4498 81.6346 10.5498C81.4846 10.6498 81.2847 10.6498 81.1347 10.4998L80.4348 9.79995C80.0349 9.35003 79.435 9.10008 78.7852 9.10008C77.9353 9.10008 77.0855 9.59999 76.7355 10.3998C76.6856 10.4998 76.5856 10.5998 76.4856 10.5998C76.3856 10.6498 76.2356 10.5998 76.1357 10.5498C75.9357 10.4498 75.7357 10.3498 75.4858 10.2499C74.8859 10.0999 74.286 10.1499 73.7861 10.4498C73.2862 10.7498 72.8863 11.2497 72.7363 11.7996C72.5863 12.3995 72.6363 12.9993 72.9363 13.4992L73.3862 14.2991C73.4862 14.4991 73.6361 14.649 73.7861 14.799L73.8361 14.849C73.9361 14.949 73.9861 15.1489 73.9361 15.2989C73.8861 15.4489 73.7361 15.5489 73.5362 15.5489C72.6863 15.4989 71.3866 15.4989 70.1368 15.4489C69.4369 15.4489 68.887 15.4489 68.4371 15.4989C68.3371 15.4989 68.2372 15.4489 68.1372 15.3989L68.0872 15.3489C68.0372 15.2989 68.0372 15.2989 67.9872 15.2489C67.2873 14.4991 66.2875 14.0491 65.2377 14.0491C64.5879 14.0491 63.938 14.3491 63.4381 14.849C63.2881 14.999 63.0881 14.999 62.9382 14.899C62.6882 14.749 62.4383 14.649 62.1383 14.649H59.4888C58.8889 14.649 58.339 15.0489 58.1891 15.6488C58.1391 15.7988 58.0391 15.8988 57.8891 15.9488C57.7392 15.9988 57.6392 15.9488 57.5392 15.8488L56.8393 15.1489C56.5894 14.849 56.1895 14.699 55.8395 14.699H53.19C52.5402 14.699 51.9903 15.1489 51.8403 15.7988C51.7903 15.9488 51.6903 16.0488 51.5903 16.0987C51.4404 16.1487 51.2904 16.0987 51.1904 15.9988C50.1406 15.0489 48.7409 14.4991 47.1912 14.4991C45.8914 14.4991 44.5417 14.899 43.3419 15.5988C43.1919 15.6988 42.992 15.6488 42.842 15.5489L42.3921 15.0989C42.1421 14.799 41.7422 14.649 41.3923 14.649H38.7428C38.2929 14.649 37.8929 14.849 37.643 15.1989C37.543 15.3489 37.2931 15.3989 37.1431 15.2989C36.1433 14.749 34.9935 14.4991 33.7437 14.4991C32.244 14.4991 30.8943 14.899 29.8445 15.6988C29.6945 15.7988 29.4945 15.7988 29.3446 15.6988C28.2448 14.899 26.845 14.4991 25.3453 14.4991C24.1955 14.4991 23.1457 14.749 22.2459 15.1989C22.0959 15.2989 21.896 15.2489 21.746 15.0989C21.4961 14.799 21.0961 14.649 20.7462 14.649H18.0967C17.9467 14.649 17.7968 14.699 17.6468 14.749C17.5468 14.799 17.4468 14.799 17.3968 14.749C17.2469 14.699 17.0969 14.699 16.9469 14.699H14.2474C13.8475 14.699 13.3976 14.899 13.1476 15.2489L12.1978 16.4987C12.1478 16.5987 11.9979 16.6486 11.8979 16.6486C11.7979 16.6486 11.6479 16.5987 11.5979 16.4987L10.2482 15.1489C9.99825 14.849 9.59833 14.699 9.24839 14.699H6.49892C5.84904 14.699 5.29914 15.1489 5.14917 15.7988L3.19954 25.297C3.14955 25.547 3.14955 25.8469 3.24953 26.0968C3.29953 26.2468 3.24953 26.3968 3.14955 26.5468C2.94959 26.7467 2.84961 26.9467 2.79962 27.1966L0.849991 36.6448C0.75001 37.0448 0.849991 37.4947 1.14993 37.7946C1.14993 37.7946 3.59947 40.2941 3.64946 40.2941C3.89941 40.5941 4.29933 40.7441 4.64927 40.7441H7.29876C7.94864 40.7441 8.49854 40.2941 8.64851 39.6443L8.94845 38.2945C8.99844 38.1446 9.09842 38.0446 9.1984 37.9946C9.34837 37.9446 9.49834 37.9946 9.59833 38.0946L11.8479 40.3441C12.0979 40.6441 12.4978 40.794 12.8477 40.794H15.8971C16.397 40.794 16.8469 40.5441 17.0969 40.0942L17.3469 39.6943C17.3968 39.5943 17.5468 39.4943 17.6968 39.4943H18.1967C18.2967 39.4943 18.3967 39.5443 18.4966 39.6443L19.1965 40.3441C19.4465 40.6441 19.8464 40.794 20.1963 40.794H26.0952C26.5951 40.794 27.045 40.5441 27.295 40.0942C27.3449 39.9942 27.4949 39.8942 27.5949 39.8942C27.7449 39.8942 27.8449 39.9442 27.9448 40.0442L28.2948 40.3941C28.5447 40.6941 28.9446 40.844 29.2946 40.844H35.4934C35.9933 40.844 36.4432 40.5941 36.6932 40.1442C36.7432 40.0442 36.8931 39.9442 36.9931 39.9442C37.1431 39.9442 37.2431 39.9942 37.343 40.0942L37.693 40.4441C37.9429 40.7441 38.3429 40.894 38.6928 40.894H44.7916C45.2915 40.894 45.7414 40.6441 45.9914 40.1942L46.2414 39.7942C46.2913 39.6943 46.4413 39.5943 46.5913 39.5943H47.0912C47.1912 39.5943 47.2912 39.6443 47.3911 39.7442L48.091 40.4441C48.3409 40.7441 48.7409 40.894 49.0908 40.894H58.8889C59.4888 40.894 60.0387 40.4941 60.1887 39.8942C60.2387 39.7442 60.3387 39.6443 60.4886 39.5943C60.6386 39.5443 60.7886 39.5943 60.8886 39.6943L61.6384 40.4441C61.8884 40.7441 62.2883 40.894 62.6382 40.894H68.987C69.4869 40.894 69.9368 40.6441 70.1868 40.1942L70.4367 39.7942C70.4867 39.6943 70.6367 39.5943 70.7867 39.5943H71.2866C71.3866 39.5943 71.4865 39.6443 71.5865 39.7442L72.2864 40.4441C72.5363 40.7441 72.9363 40.894 73.2862 40.894H76.2356C76.6356 40.894 77.0355 40.6941 77.2854 40.3941C77.3354 40.3441 77.3854 40.2941 77.3854 40.2442C77.4354 40.1442 77.5354 40.0942 77.6354 40.0442C77.6854 40.0442 77.6854 40.0442 77.7354 40.0442C77.8353 40.0442 77.8853 40.0442 77.9353 40.0942C78.8851 40.7441 80.0349 41.044 81.2847 41.044C82.3345 41.044 83.4843 40.794 84.4841 40.2941C84.584 40.0942 84.784 40.1442 84.934 40.2941Z" fill="black"/>
<path d="M6.49877 16.1485H9.14826L10.698 20.6477L14.1973 16.1485H16.8968L14.9472 25.5967H12.2977L13.3975 20.5477L9.94811 25.0468L8.29842 20.5477L7.19863 25.5967H4.54914L6.49877 16.1485Z" fill="white"/>
<path d="M18.0466 16.1485H20.6961L18.7464 25.5967H16.0969L18.0466 16.1485Z" fill="white"/>
<path d="M19.4963 24.097L21.246 22.4473C22.0458 23.1971 23.0956 23.5471 23.9454 23.5471C24.9952 23.5471 25.5451 23.0472 25.5451 22.6472C25.5451 22.3473 25.2952 22.2973 24.1954 22.0474C22.3957 21.5974 20.996 21.1975 20.996 19.4479C20.996 17.4982 22.7457 15.9985 25.3452 15.9985C26.7949 15.9985 28.0946 16.4484 29.0445 17.3483L27.4448 19.0979C26.6449 18.3981 25.6951 18.1981 25.0952 18.1981C24.1954 18.1981 23.6955 18.698 23.6955 19.0979C23.6955 19.4479 24.0454 19.4978 25.0452 19.7478C27.2448 20.2477 28.2446 20.7976 28.2446 22.2973C28.2446 24.3969 26.245 25.7467 23.7455 25.7467C22.0458 25.7467 20.4961 25.1468 19.4963 24.097Z" fill="white"/>
<path d="M27.8947 24.097L29.6443 22.4473C30.4442 23.1971 31.494 23.5471 32.3438 23.5471C33.3936 23.5471 33.9435 23.0472 33.9435 22.6472C33.9435 22.3473 33.6936 22.2973 32.5938 22.0474C30.7941 21.5974 29.3944 21.1975 29.3944 19.4479C29.3944 17.4982 31.1441 15.9985 33.7436 15.9985C35.1933 15.9985 36.493 16.4484 37.4429 17.3483L35.8432 19.0979C35.0433 18.3981 34.0935 18.1981 33.4936 18.1981C32.5938 18.1981 32.0939 18.698 32.0939 19.0979C32.0939 19.4479 32.4438 19.4978 33.4436 19.7478C35.6432 20.2477 36.643 20.7976 36.643 22.2973C36.643 24.3969 34.6434 25.7467 32.1439 25.7467C30.3942 25.7467 28.8445 25.1468 27.8947 24.097Z" fill="white"/>
<path d="M38.6427 16.1485H41.2921L39.3425 25.5967H36.693L38.6427 16.1485Z" fill="white"/>
<path d="M41.0922 21.5975C41.0922 18.5481 44.1416 15.9486 47.141 15.9486C49.6905 15.9486 51.4902 17.7482 51.4902 20.0978C51.4902 23.1472 48.4408 25.7467 45.4414 25.7467C42.8918 25.7467 41.0922 23.9471 41.0922 21.5975ZM48.7907 20.1978C48.7907 19.148 48.0409 18.3981 46.9911 18.3981C45.3914 18.3981 43.7917 20.0478 43.7917 21.5475C43.7917 22.5973 44.5415 23.3472 45.5913 23.3472C47.191 23.3472 48.7907 21.6975 48.7907 20.1978Z" fill="white"/>
<path d="M53.1399 16.1485H55.7894L58.4389 21.1976L59.5387 16.1485H62.1882L60.2385 25.5967H57.589L54.9395 20.5477L53.8398 25.5967H51.1903C51.1903 25.5967 53.1399 16.1485 53.1399 16.1485Z" fill="white"/>
<path d="M4.14921 27.4465H8.59836C10.448 27.4465 11.6478 28.5463 11.6478 30.196C11.6478 32.4455 9.74814 34.0452 7.39859 34.0452H5.44896L4.84907 36.8947H2.19958L4.14921 27.4465ZM7.49857 31.6457C8.19844 31.6457 8.8983 30.9958 8.8983 30.4459C8.8983 30.096 8.59836 29.896 7.99847 29.896H6.2988L5.94886 31.6457H7.49857Z" fill="#FFCC00"/>
<path d="M17.4967 35.6449H14.1973L13.4975 36.9447H10.448L15.997 27.4465H19.0464L18.9964 27.4965L20.6461 36.8947H17.6967C17.7466 36.9447 17.4967 35.6449 17.4967 35.6449ZM17.1468 33.6953L16.7468 31.3957L15.3971 33.6953H17.1468Z" fill="#FFCC00"/>
<path d="M27.9447 33.7453L29.8443 36.8947H26.8449L25.1452 34.0452H24.2454L23.6455 36.8947H20.996L22.9456 27.4465H27.3948C29.2444 27.4465 30.4442 28.5463 30.4442 30.196C30.4942 31.8956 29.4444 33.1954 27.9447 33.7453ZM24.7453 31.6457H26.295C26.9949 31.6457 27.6947 30.9958 27.6947 30.4459C27.6947 30.096 27.3948 29.896 26.7949 29.896H25.0952L24.7453 31.6457Z" fill="#FFCC00"/>
<path d="M37.3429 33.7453L39.2425 36.8947H36.2431L34.5434 34.0452H33.6436L33.0437 36.8947H30.3942L32.3438 27.4465H36.793C38.6426 27.4465 39.8424 28.5463 39.8424 30.196C39.8424 31.8956 38.8426 33.1954 37.3429 33.7453ZM34.1435 31.6457H35.6932C36.3931 31.6457 37.0929 30.9958 37.0929 30.4459C37.0929 30.096 36.793 29.896 36.1931 29.896H34.4934C34.5434 29.896 34.1435 31.6457 34.1435 31.6457Z" fill="#FFCC00"/>
<path d="M46.3912 35.6449H43.0918L42.3419 36.8947H39.2925L44.8915 27.4465H47.9409L47.8909 27.4965L49.5406 36.8947H46.5911L46.3912 35.6449ZM46.0412 33.6953L45.6413 31.3957L44.2916 33.6953H46.0412Z" fill="#FFCC00"/>
<path d="M51.8901 27.4465H54.5396L52.59 36.8947H49.9405L51.8901 27.4465Z" fill="#FFCC00"/>
<path d="M55.7394 27.4465H58.3889L61.0384 32.4955L62.1382 27.4465H64.7877L62.838 36.8947H60.1886L57.4891 31.8456L56.3893 36.8947H53.7398C53.7398 36.9447 55.7394 27.4465 55.7394 27.4465Z" fill="#FFCC00"/>
<path d="M70.5366 35.6449H67.2372L66.4874 36.8947H63.438L69.0369 27.4465H72.0863L72.0363 27.4965L73.686 36.8947H70.7366C70.7866 36.9447 70.5366 35.6449 70.5366 35.6449ZM70.1867 33.6953L69.7867 31.3957L68.437 33.6953H70.1867Z" fill="#FFCC00"/>
<path d="M79.3349 31.4957H83.7841L82.9342 35.4949C81.7344 36.5447 80.1847 37.0946 78.785 37.0946C76.1855 37.0946 74.3858 35.2449 74.3858 32.9454C74.3858 29.896 77.4852 27.2965 80.4847 27.2965C82.0844 27.2965 83.3841 27.9963 84.184 29.0461L81.9844 30.5958C81.6345 29.9959 80.9846 29.696 80.3347 29.696C78.685 29.696 77.0853 31.3457 77.0853 32.8454C77.0853 33.8952 77.8352 34.6451 78.935 34.6451C79.5349 34.6451 80.0848 34.4451 80.5847 34.1452L80.7346 33.4453H78.935L79.3349 31.4957Z" fill="#FFCC00"/>
<path d="M87.6833 29.846L87.4834 30.8958H91.9825L91.4826 33.2953H86.9835L86.7335 34.5451H91.6826L91.1827 36.9446H83.5841L85.5337 27.4964H93.1323L92.6324 29.896C92.6324 29.846 87.6833 29.846 87.6833 29.846Z" fill="#FFCC00"/>
<path d="M78.7352 10.4497C79.2352 10.4497 79.5852 10.8497 79.5852 11.2997V13.8497C79.5852 14.3497 79.1852 14.6997 78.7352 14.6997C78.2352 14.6997 77.8852 14.2997 77.8852 13.8497V11.2997C77.8852 10.8497 78.2852 10.4497 78.7352 10.4497Z" fill="#5A26A0"/>
<path d="M74.4859 11.6997C74.8859 11.4497 75.4359 11.5997 75.6859 11.9997L76.9859 14.1997C77.2359 14.5997 77.0859 15.1497 76.6859 15.3997C76.2859 15.6497 75.7359 15.4997 75.4859 15.0997L74.1859 12.8997C73.9359 12.4497 74.0359 11.9497 74.4859 11.6997Z" fill="#5A26A0"/>
<path d="M83.2347 11.6995C83.6347 11.9495 83.7847 12.4495 83.5347 12.8995L82.2347 15.0995C81.9847 15.4995 81.4847 15.6495 81.0347 15.3995C80.6347 15.1495 80.4847 14.6495 80.7347 14.1995L82.0347 11.9995C82.2847 11.5995 82.8347 11.4495 83.2347 11.6995Z" fill="#5A26A0"/>
<path d="M91.2327 17.3983C91.2827 16.6985 84.6839 16.9484 83.3842 17.0484C83.2342 17.0484 83.0842 17.0484 82.9342 17.0484C81.7845 17.0984 79.8848 17.9482 80.1848 20.8977C80.5847 24.8469 80.2848 25.3968 83.5841 25.1968H83.6341C83.2342 26.0467 83.3342 26.9465 84.334 27.0965C84.7339 27.1465 85.2838 27.1465 85.8837 27.0465C87.5834 26.7465 88.9831 25.6468 89.8329 24.6969C90.3328 24.147 90.5828 23.3472 90.6828 22.5973C90.7328 22.5973 91.2327 17.3983 91.2327 17.3983Z" fill="#FFCC00"/>
<path d="M66.4873 17.3983C66.4374 16.6985 73.0361 16.9484 74.3359 17.0484C74.4858 17.0484 74.6358 17.0484 74.7858 17.0484C75.9356 17.0984 77.8352 17.9482 77.5352 20.8977C77.1353 24.8469 77.4353 25.3968 74.1359 25.1968H74.0859C74.4858 26.0467 74.3858 26.9465 73.386 27.0965C72.9861 27.1465 72.4362 27.1465 71.8363 27.0465C70.1367 26.7465 68.7369 25.6468 67.8871 24.6969C67.3872 24.147 67.1372 23.3472 67.0372 22.5973L66.4873 17.3983Z" fill="#FFCC00"/>
<path d="M93.4822 25.4468C93.3322 25.8967 92.8823 26.2466 92.4324 26.2466C91.0826 26.2466 90.0328 25.1468 90.0328 23.8471V18.1482C90.0328 16.7984 90.9827 15.7486 92.3324 15.5487C92.3324 15.5487 95.4818 15.2487 95.3818 16.2985C95.2818 17.3483 93.4822 25.4468 93.4822 25.4468Z" fill="#5A26A0"/>
<path d="M64.2378 16.2986C64.3877 15.8487 64.8377 15.4988 65.2876 15.4988C66.6373 15.4988 67.6871 16.5985 67.6871 17.8983V23.5972C67.6871 24.947 66.7373 25.9968 65.3876 26.1967C65.3876 26.1967 62.2381 26.4967 62.3381 25.4469C62.4381 24.3971 64.2378 16.2986 64.2378 16.2986Z" fill="#5A26A0"/>
<path d="M85.7342 22.6976C85.4842 22.0976 83.7842 23.1976 83.6342 22.2976C83.4842 21.5476 83.6342 21.3476 83.9842 21.2476C84.3342 21.1476 85.8842 21.1976 86.2842 21.2476C86.6842 21.2976 86.7342 21.6476 86.7342 21.8976C86.7342 23.7976 82.8842 25.6976 82.8842 25.6976C84.4842 24.4976 85.3342 23.3976 85.7342 22.6976Z" fill="black"/>
<path d="M72.0365 22.6976C72.2865 22.0976 73.9865 23.1976 74.1365 22.2976C74.2865 21.5476 74.1365 21.3476 73.7865 21.2476C73.4365 21.1476 71.8865 21.1976 71.4865 21.2476C71.0865 21.2976 71.0365 21.6476 71.0365 21.8976C71.0365 23.7976 74.8865 25.6976 74.8865 25.6976C73.2365 24.4976 72.4365 23.3976 72.0365 22.6976Z" fill="black"/>
</svg>
