<svg width="20" height="20" viewBox="0 0 20 20" fill="none" xmlns="http://www.w3.org/2000/svg">
<path d="M1.02395 2.11651C1.05582 1.52021 1.52022 1.05581 2.11652 1.02395C3.3643 0.957269 4.84219 1.04585 5.51267 1.09517C5.73417 1.11146 5.92264 1.26052 5.96057 1.47935C5.99839 1.69753 6.0232 1.98556 5.96711 2.25291C5.93038 2.42795 5.77167 2.53992 5.59378 2.55839C4.83204 2.63748 3.51271 2.65589 2.94008 2.66017C2.78571 2.66132 2.66135 2.78569 2.66019 2.94005C2.65591 3.51269 2.63751 4.83203 2.5584 5.59378C2.53992 5.77167 2.42796 5.93038 2.25293 5.96711C1.98557 6.0232 1.69754 5.99839 1.47935 5.96057C1.26052 5.92264 1.11147 5.73417 1.09518 5.51267C1.04585 4.84219 0.957265 3.36429 1.02395 2.11651Z" fill="#272A30"/>
<path d="M1.02395 17.8835C1.05582 18.4798 1.52022 18.9442 2.11652 18.9761C3.3643 19.0427 4.84219 18.9542 5.51267 18.9048C5.73417 18.8885 5.92264 18.7395 5.96057 18.5207C5.99839 18.3025 6.0232 18.0144 5.96711 17.7471C5.93038 17.572 5.77167 17.4601 5.59378 17.4416C4.83204 17.3625 3.51271 17.3441 2.94008 17.3398C2.78571 17.3387 2.66135 17.2143 2.66019 17.0599C2.65591 16.4873 2.63751 15.168 2.5584 14.4062C2.53992 14.2283 2.42796 14.0696 2.25293 14.0329C1.98557 13.9768 1.69754 14.0016 1.47935 14.0394C1.26052 14.0774 1.11147 14.2658 1.09518 14.4873C1.04585 15.1578 0.957265 16.6357 1.02395 17.8835Z" fill="#272A30"/>
<path d="M17.8835 1.02395C18.4798 1.05581 18.9442 1.52021 18.976 2.11651C19.0427 3.36429 18.9541 4.84219 18.9048 5.51267C18.8885 5.73417 18.7395 5.92264 18.5206 5.96057C18.3025 5.99839 18.0144 6.0232 17.7471 5.96711C17.572 5.93038 17.4601 5.77167 17.4416 5.59378C17.3625 4.83203 17.3441 3.51269 17.3398 2.94005C17.3387 2.78569 17.2143 2.66132 17.0599 2.66017C16.4873 2.65589 15.168 2.63748 14.4062 2.55839C14.2283 2.53992 14.0696 2.42795 14.0329 2.25291C13.9768 1.98556 14.0016 1.69753 14.0394 1.47935C14.0774 1.26052 14.2658 1.11146 14.4873 1.09517C15.1578 1.04585 16.6357 0.957269 17.8835 1.02395Z" fill="#272A30"/>
<path d="M18.976 17.8835C18.9442 18.4798 18.4798 18.9442 17.8835 18.9761C16.6357 19.0427 15.1578 18.9542 14.4873 18.9048C14.2658 18.8885 14.0774 18.7395 14.0394 18.5207C14.0016 18.3025 13.9768 18.0144 14.0329 17.7471C14.0696 17.572 14.2283 17.4601 14.4062 17.4416C15.168 17.3625 16.4873 17.3441 17.0599 17.3398C17.2143 17.3387 17.3387 17.2143 17.3398 17.0599C17.3441 16.4873 17.3625 15.168 17.4416 14.4062C17.4601 14.2283 17.572 14.0696 17.7471 14.0329C18.0144 13.9768 18.3025 14.0016 18.5206 14.0394C18.7395 14.0774 18.8885 14.2658 18.9048 14.4873C18.9541 15.1578 19.0427 16.6357 18.976 17.8835Z" fill="#272A30"/>
<path fill-rule="evenodd" clip-rule="evenodd" d="M5.01595 5.74432C5.0372 5.34679 5.3468 5.03719 5.74433 5.01595C6.23068 4.98996 6.76947 4.99935 7.22247 5.01821C7.67536 4.99937 8.21394 4.98999 8.70011 5.01597C9.09764 5.03721 9.40724 5.34681 9.42849 5.74434C9.45448 6.23061 9.44509 6.76929 9.42624 7.22223C9.44509 7.67518 9.45448 8.21386 9.42849 8.70012C9.40724 9.09765 9.09764 9.40725 8.70011 9.4285C8.21385 9.45448 7.67517 9.4451 7.22223 9.42625C6.76929 9.4451 6.23061 9.45448 5.74434 9.4285C5.34681 9.40725 5.03721 9.09765 5.01597 8.70012C4.98998 8.21392 4.99936 7.6753 5.01821 7.22239C4.99935 6.76941 4.98996 6.23065 5.01595 5.74432ZM8.33766 6.29337C8.33922 6.50179 8.34358 6.85857 8.35581 7.22223C8.34358 7.5859 8.33922 7.94268 8.33766 8.1511C8.33689 8.254 8.25398 8.33692 8.15107 8.33769C7.94266 8.33924 7.58589 8.34361 7.22223 8.35583C6.85857 8.34361 6.50179 8.33924 6.29338 8.33769C6.19047 8.33692 6.10756 8.254 6.10679 8.1511C6.10524 7.94264 6.10087 7.58576 6.08864 7.22202C6.10086 6.85842 6.10522 6.50173 6.10678 6.29335C6.10755 6.19044 6.19046 6.10753 6.29337 6.10676C6.50172 6.1052 6.85836 6.10084 7.22192 6.08863C7.58568 6.10086 7.9426 6.10522 8.15107 6.10678C8.25398 6.10755 8.33689 6.19046 8.33766 6.29337Z" fill="#272A30"/>
<path fill-rule="evenodd" clip-rule="evenodd" d="M5.74433 10.7938C5.3468 10.815 5.0372 11.1246 5.01595 11.5222C4.98996 12.0085 4.99935 12.5473 5.01821 13.0002C4.99936 13.4531 4.98998 13.9918 5.01597 14.478C5.03721 14.8755 5.34681 15.1851 5.74434 15.2063C6.23061 15.2323 6.76929 15.2229 7.22223 15.2041C7.67517 15.2229 8.21385 15.2323 8.70011 15.2063C9.09764 15.1851 9.40724 14.8755 9.42849 14.478C9.45448 13.9917 9.44509 13.453 9.42624 13.0001C9.44509 12.5471 9.45448 12.0084 9.42849 11.5222C9.40724 11.1246 9.09764 10.815 8.70011 10.7938C8.21387 10.7678 7.67521 10.7772 7.22228 10.796C6.76933 10.7772 6.23062 10.7678 5.74433 10.7938ZM8.35581 13.0001C8.34358 12.6364 8.33922 12.2796 8.33766 12.0712C8.33689 11.9683 8.25398 11.8854 8.15107 11.8846C7.94264 11.8831 7.58583 11.8787 7.22214 11.8665C6.85851 11.8787 6.50177 11.8831 6.29337 11.8846C6.19046 11.8854 6.10755 11.9683 6.10678 12.0712C6.10522 12.2796 6.10086 12.6363 6.08864 12.9999C6.10087 13.3636 6.10524 13.7205 6.10679 13.9289C6.10756 14.0318 6.19047 14.1147 6.29338 14.1155C6.50179 14.1171 6.85857 14.1214 7.22223 14.1337C7.58589 14.1214 7.94266 14.1171 8.15107 14.1155C8.25398 14.1147 8.33689 14.0318 8.33766 13.9289C8.33922 13.7205 8.34358 13.3637 8.35581 13.0001Z" fill="#272A30"/>
<path fill-rule="evenodd" clip-rule="evenodd" d="M10.7938 5.74432C10.815 5.34679 11.1246 5.03719 11.5222 5.01595C12.0085 4.98996 12.5473 4.99935 13.0003 5.01821C13.4532 4.99937 13.9918 4.98999 14.4779 5.01597C14.8755 5.03721 15.1851 5.34681 15.2063 5.74434C15.2323 6.23061 15.2229 6.76929 15.2041 7.22223C15.2229 7.67518 15.2323 8.21386 15.2063 8.70012C15.1851 9.09765 14.8755 9.40725 14.4779 9.4285C13.9917 9.45448 13.453 9.4451 13.0001 9.42625C12.5471 9.4451 12.0084 9.45448 11.5222 9.4285C11.1246 9.40725 10.815 9.09765 10.7938 8.70012C10.7678 8.21385 10.7772 7.67516 10.796 7.22221C10.7772 6.76927 10.7678 6.23058 10.7938 5.74432ZM14.1155 6.29337C14.1171 6.50179 14.1214 6.85857 14.1336 7.22223C14.1214 7.5859 14.1171 7.94268 14.1155 8.1511C14.1147 8.254 14.0318 8.33692 13.9289 8.33769C13.7205 8.33924 13.3637 8.34361 13.0001 8.35583C12.6364 8.34361 12.2796 8.33924 12.0712 8.33769C11.9683 8.33692 11.8854 8.254 11.8846 8.1511C11.8831 7.94268 11.8787 7.5859 11.8665 7.22224C11.8787 6.85857 11.8831 6.50177 11.8846 6.29335C11.8854 6.19044 11.9683 6.10753 12.0712 6.10676C12.2796 6.1052 12.6362 6.10084 12.9998 6.08863C13.3635 6.10086 13.7204 6.10522 13.9289 6.10678C14.0318 6.10755 14.1147 6.19046 14.1155 6.29337Z" fill="#272A30"/>
<path d="M11.0036 11.1675C11.0084 11.0781 11.0781 11.0084 11.1675 11.0036C11.2769 10.9978 11.3981 10.9999 11.5 11.0041C11.6019 10.9999 11.7231 10.9978 11.8326 11.0036C11.922 11.0084 11.9917 11.0781 11.9964 11.1675C12.0023 11.2769 12.0002 11.3981 11.9959 11.5C12.0002 11.6019 12.0023 11.7231 11.9964 11.8326C11.9917 11.922 11.922 11.9917 11.8326 11.9964C11.7231 12.0023 11.6019 12.0002 11.5 11.9959C11.3981 12.0002 11.2769 12.0023 11.1675 11.9964C11.0781 11.9917 11.0084 11.922 11.0036 11.8326C10.9978 11.7231 10.9999 11.6019 11.0041 11.5C10.9999 11.3981 10.9978 11.2769 11.0036 11.1675Z" fill="#272A30"/>
<path d="M11.0036 14.1675C11.0084 14.078 11.0781 14.0084 11.1675 14.0036C11.2769 13.9977 11.3981 13.9998 11.5 14.0041C11.6019 13.9998 11.7231 13.9977 11.8326 14.0036C11.922 14.0084 11.9917 14.078 11.9964 14.1675C12.0023 14.2769 12.0002 14.3981 11.9959 14.5C12.0002 14.6019 12.0023 14.7231 11.9964 14.8325C11.9917 14.922 11.922 14.9916 11.8326 14.9964C11.7231 15.0022 11.6019 15.0001 11.5 14.9959C11.3981 15.0001 11.2769 15.0022 11.1675 14.9964C11.0781 14.9916 11.0084 14.922 11.0036 14.8325C10.9978 14.7231 10.9999 14.6019 11.0041 14.5C10.9999 14.3981 10.9978 14.2769 11.0036 14.1675Z" fill="#272A30"/>
<path d="M12.6674 12.5035C12.578 12.5083 12.5083 12.578 12.5035 12.6674C12.4977 12.7768 12.4998 12.898 12.504 12.9999C12.4998 13.1019 12.4977 13.2231 12.5035 13.3325C12.5083 13.4219 12.578 13.4916 12.6674 13.4963C12.7768 13.5022 12.898 13.5001 12.9999 13.4958C13.1019 13.5001 13.2231 13.5022 13.3325 13.4963C13.4219 13.4916 13.4916 13.4219 13.4963 13.3325C13.5022 13.2231 13.5001 13.1019 13.4958 12.9999C13.5001 12.898 13.5022 12.7768 13.4963 12.6674C13.4916 12.578 13.4219 12.5083 13.3325 12.5035C13.2231 12.4977 13.1019 12.4998 12.9999 12.504C12.898 12.4998 12.7768 12.4977 12.6674 12.5035Z" fill="#272A30"/>
<path d="M14.0036 11.1675C14.0084 11.0781 14.078 11.0084 14.1675 11.0036C14.2769 10.9978 14.3981 10.9999 14.5 11.0041C14.6019 10.9999 14.7231 10.9978 14.8325 11.0036C14.922 11.0084 14.9916 11.0781 14.9964 11.1675C15.0022 11.2769 15.0001 11.3981 14.9959 11.5C15.0001 11.6019 15.0022 11.7231 14.9964 11.8326C14.9916 11.922 14.922 11.9917 14.8325 11.9964C14.7231 12.0023 14.6019 12.0002 14.5 11.9959C14.3981 12.0002 14.2769 12.0023 14.1675 11.9964C14.078 11.9917 14.0084 11.922 14.0036 11.8326C13.9977 11.7231 13.9998 11.6019 14.0041 11.5C13.9998 11.3981 13.9977 11.2769 14.0036 11.1675Z" fill="#272A30"/>
<path d="M14.1675 14.0036C14.078 14.0084 14.0084 14.078 14.0036 14.1675C13.9977 14.2769 13.9998 14.3981 14.0041 14.5C13.9998 14.6019 13.9977 14.7231 14.0036 14.8325C14.0084 14.922 14.078 14.9916 14.1675 14.9964C14.2769 15.0022 14.3981 15.0001 14.5 14.9959C14.6019 15.0001 14.7231 15.0022 14.8325 14.9964C14.922 14.9916 14.9916 14.922 14.9964 14.8325C15.0022 14.7231 15.0001 14.6019 14.9959 14.5C15.0001 14.3981 15.0022 14.2769 14.9964 14.1675C14.9916 14.078 14.922 14.0084 14.8325 14.0036C14.7231 13.9977 14.6019 13.9998 14.5 14.0041C14.3981 13.9998 14.2769 13.9977 14.1675 14.0036Z" fill="#272A30"/>
</svg>
