<svg width="20" height="20" viewBox="0 0 20 20" fill="none" xmlns="http://www.w3.org/2000/svg">
<path d="M10.8841 2.77022C10.6058 1.90993 9.39396 1.90993 9.11564 2.77022C8.99117 3.15495 8.63419 3.41543 8.23141 3.41543C7.33075 3.41543 6.95627 4.57294 7.68492 5.10463C8.01078 5.34241 8.14713 5.76388 8.02267 6.14861C7.74435 7.0089 8.72474 7.72429 9.45339 7.1926C9.77925 6.95482 10.2205 6.95482 10.5464 7.1926C11.275 7.72429 12.2554 7.0089 11.9771 6.14861C11.8526 5.76388 11.989 5.34241 12.3148 5.10463C13.0435 4.57295 12.669 3.41543 11.7683 3.41543C11.3656 3.41543 11.0086 3.15495 10.8841 2.77022Z" fill="#272A30"/>
<path d="M13.38 9.93063C13.3143 9.5472 13.0026 9.27252 12.5797 9.22773C12.0931 9.17619 11.2865 9.12519 10 9.12519C8.71354 9.12519 7.90693 9.17619 7.42027 9.22773C6.99735 9.27252 6.6857 9.5472 6.61998 9.93063C6.55337 10.3192 6.47907 10.9267 6.43611 11.8349L6.43066 11.9558C6.41162 12.3992 6.40001 12.9112 6.40001 13.5003C6.40001 15.8089 6.57821 17.0347 6.68386 17.5586C6.7061 17.6689 6.77688 17.7579 6.87381 17.8132C6.94386 17.8531 7.02757 17.8755 7.11649 17.8755H12.8835C12.9646 17.8755 13.0414 17.8569 13.1075 17.8233C13.1169 17.8185 13.1261 17.8134 13.1351 17.808C13.2275 17.7524 13.2946 17.6655 13.3161 17.5586C13.4209 17.0389 13.5971 15.8285 13.6 13.5557L13.6 13.5003C13.6 11.615 13.4811 10.5206 13.38 9.93063Z" fill="#272A30"/>
<path d="M15.0865 17.8755C15.2194 17.208 15.3999 15.8689 15.4 13.5018C15.5419 13.5008 15.6918 13.5003 15.85 13.5003C16.8621 13.5003 17.5347 13.5209 17.9697 13.5438C18.427 13.5679 18.778 13.7637 18.8482 14.0544C18.925 14.3723 19 14.8876 19 15.6879C19 16.7515 18.8676 17.3554 18.7745 17.6487C18.7306 17.7867 18.5394 17.8755 18.3196 17.8755H15.0865Z" fill="#272A30"/>
<path d="M4.63811 11.7527C4.48492 11.7511 4.32239 11.7503 4.15002 11.7503C3.13793 11.7503 2.46526 11.7791 2.03032 11.8112C1.57302 11.8449 1.22198 12.1191 1.15177 12.526C1.07499 12.971 1.00003 13.6924 1.00003 14.8129C1.00003 16.3019 1.13241 17.1474 1.22553 17.5579C1.26937 17.7513 1.46057 17.8755 1.68039 17.8755H4.91352C4.78062 17.2079 4.60002 15.8684 4.60002 13.5003C4.60002 12.8329 4.61436 12.254 4.63811 11.7527Z" fill="#272A30"/>
</svg>
