<svg width="20" height="20" viewBox="0 0 20 20" fill="none" xmlns="http://www.w3.org/2000/svg">
<g clip-path="url(#clip0_114_1342)">
<circle cx="10.0001" cy="10" r="10" fill="#80BC3C"/>
<path fill-rule="evenodd" clip-rule="evenodd" d="M0.000113818 9.98175C2.81337 4.99675 7.9755 2.60581 10.9423 1.96217C15.8387 1.16703 18.0728 5.18411 16.843 13.1779C16.5081 15.3546 15.6026 17.2971 14.4195 18.9729C13.0869 19.6305 11.5867 20 10.0001 20C4.47725 20 9.75132e-05 15.5228 9.75132e-05 10C9.75132e-05 9.99391 0.00010295 9.98783 0.000113818 9.98175Z" fill="#654413"/>
<path fill-rule="evenodd" clip-rule="evenodd" d="M2.55059 16.6714C4.09247 12.6484 6.47429 7.438 9.75967 3.57856C9.8509 3.47138 9.77278 3.3108 9.63289 3.32637C7.73233 3.5379 3.89892 5.06052 1.19089 9.91283C0.791641 10.6282 0.468221 11.3411 0.209033 12.0434C0.573439 13.7985 1.39787 15.3851 2.55059 16.6714Z" fill="white"/>
<path fill-rule="evenodd" clip-rule="evenodd" d="M4.28273 18.2054C4.33281 17.9226 4.38997 17.6279 4.45458 17.3209C6.15053 9.26293 10.1712 5.73785 12.8946 4.47804C12.9019 4.47465 12.9084 4.47103 12.9153 4.46679C13.1097 4.34671 16.098 2.62062 16.47 9.74611C16.6787 13.745 15.071 17.0613 13.0876 19.5143C12.1152 19.8296 11.0776 20 10.0001 20C7.87411 20 5.90307 19.3366 4.28273 18.2054Z" fill="white"/>
</g>
<defs>
<clipPath id="clip0_114_1342">
<rect width="20" height="20" fill="white"/>
</clipPath>
</defs>
</svg>
