<svg width="100" height="50" viewBox="0 0 100 50" fill="none" xmlns="http://www.w3.org/2000/svg">
<path d="M90.2033 25.2756C89.6444 24.6094 88.8194 24.2247 87.9499 24.2247H68.7849C67.8414 24.2247 66.99 24.6742 66.4482 25.3837C65.7761 24.9569 65.0044 24.6434 64.1521 24.4524C64.2365 24.1732 64.3049 23.888 64.3532 23.597L66.2107 12.4072C66.6034 10.043 65.7413 7.70233 64.0138 6.15933C63.8241 5.98985 63.6222 5.83218 63.4121 5.68302C63.1617 5.50529 62.9004 5.33924 62.6227 5.19353L54.1636 0.755837C53.7647 0.546574 53.3438 0.381745 52.9112 0.258139C52.7599 0.214896 52.6071 0.17715 52.4531 0.144745C52.0072 0.0508964 51.5522 0 51.0958 0C50.5993 0 50.1023 0.0563046 49.6184 0.167388L39.8433 2.41152C36.9931 3.06574 34.8874 5.44891 34.5532 8.31331C34.531 8.50426 34.5166 8.69737 34.5103 8.89225L34.1489 20.1958C34.1154 21.2464 34.3184 22.2684 34.7297 23.1983C35.0854 24.0025 35.5977 24.7372 36.247 25.3623C36.2247 25.3909 36.2016 25.4188 36.1804 25.4483C35.6462 24.7055 34.7762 24.2211 33.7928 24.2211H29.6899C28.4509 24.2211 27.3447 24.9975 26.9236 26.1627L26.7579 26.6211C26.6904 26.5298 26.6226 26.4417 26.5551 26.3607C25.2837 24.836 23.2235 23.9964 20.7539 23.9964H20.6977C16.0726 23.9964 12.9898 26.3507 12.2398 30.4557C12.2383 30.464 12.2369 30.4722 12.2354 30.4805L11.7859 33.0661C11.5946 34.1442 11.6266 35.4982 12.3531 36.8841C11.5335 37.2849 10.9201 38.0578 10.7493 39.0055L10.1312 42.4338C9.66735 45.0931 10.5216 46.7789 11.3194 47.7278C12.5869 49.2355 14.5603 50 17.1848 50H17.241C18.7236 50 20.0166 49.7921 21.1225 49.3833C21.5609 49.634 22.0606 49.7752 22.5802 49.7752H25.8119C26.846 49.7752 27.7855 49.2346 28.3131 48.382C28.4266 48.5654 28.5608 48.7372 28.7143 48.8936C29.2675 49.4575 30.0242 49.7752 30.8141 49.7752H38.3731C39.7996 49.7752 41.0204 48.7518 41.2694 47.3472L41.358 46.8472H41.9829C41.986 47.5289 42.2222 48.1948 42.6675 48.7252C43.2263 49.3908 44.051 49.7752 44.9202 49.7752L58.5843 49.7788C60.3329 49.7788 61.8714 49.4394 63.1469 48.8048C63.7034 49.4218 64.4941 49.7788 65.3283 49.7788H74.0399C74.7839 49.7788 75.4705 49.4985 75.9939 49.0328C76.5286 49.5081 77.2205 49.7788 77.9457 49.7788H81.2056C82.6338 49.7788 83.8556 48.7528 84.1026 47.3461L86.6262 32.9739H87.4442C88.8714 32.9739 90.0928 31.9492 90.3408 30.5436L90.8465 27.6772C90.9976 26.8209 90.7622 25.9417 90.2033 25.2756Z" fill="black"/>
<path fill-rule="evenodd" clip-rule="evenodd" d="M61.2563 7.79827L52.7971 3.36056C52.0229 2.95435 51.1287 2.83861 50.2765 3.03426L40.5015 5.27835C38.7604 5.678 37.5073 7.20075 37.4503 8.98627L37.0889 20.2898C37.0507 21.4853 37.5585 22.6332 38.4688 23.409L46.126 29.9353C47.3297 30.9612 49.0309 31.1664 50.4439 30.456L59.3379 25.9853C60.4604 25.421 61.2458 24.3544 61.4515 23.1152L63.3091 11.9255C63.5872 10.251 62.7595 8.58689 61.2563 7.79827Z" fill="#00F6D2"/>
<path d="M58.9596 16.0091C58.9528 15.8921 57.0738 12.0204 56.997 11.9557C56.9485 11.9026 56.8903 11.8692 56.8243 11.8322L53.7357 10.4782C53.6832 10.4552 53.6287 10.4402 53.5734 10.4341L48.2231 9.78884C48.1667 9.78202 48.1092 9.78381 48.0421 9.79638C47.9793 9.81397 47.1638 9.95293 46.4443 10.0757C45.2066 10.2865 44.8508 10.349 44.7381 10.3737L44.7201 10.3723H44.7147C44.5693 10.3723 44.2081 10.7565 42.5539 12.811C42.1816 13.2735 41.8301 13.7101 41.7877 13.7478L41.7586 13.7704C41.5938 13.9632 41.5737 14.2444 41.7094 14.4541L41.7123 14.4523C41.7995 14.5884 42.3697 15.3266 46.2745 20.3365C47.5821 22.0144 48.8169 23.5989 48.8557 23.6527L48.8686 23.6729C48.9814 23.8057 49.1462 23.8772 49.3099 23.8772C49.3882 23.8772 49.4661 23.861 49.5383 23.8276C49.5975 23.8082 50.6219 23.0043 56.2609 18.5236C57.5729 17.4809 58.7061 16.5808 58.7646 16.5384C58.8835 16.4361 58.9571 16.2885 58.9668 16.133C58.9704 16.0881 58.9671 16.0422 58.9596 16.0091ZM53.2567 12.3482L48.0751 11.7234L46.8278 11.177L48.1696 10.9428L53.3511 11.568L54.5985 12.1145L53.2567 12.3482ZM48.2539 12.9058L52.8021 13.4541L53.4549 16.0002L47.0145 15.2235L48.2539 12.9058ZM47.1287 12.5669L45.8432 14.9697L43.1453 13.9029L45.0178 11.6423L47.1287 12.5669ZM45.672 16.1413L47.0841 19.4999L43.9438 15.4576L45.672 16.1413ZM56.3823 16.9578L52.3705 20.1376L54.541 17.2109L56.3823 16.9578ZM54.6527 16.0321L53.9759 13.3931L56.2458 12.9967L57.5273 15.6372L54.6527 16.0321ZM53.1691 17.1262L49.4471 22.1454L47.0249 16.3854L53.1691 17.1262Z" fill="white"/>
<path d="M56.9196 3.48099C57.1818 3.08304 57.7907 3.17956 57.9169 3.63903L58.3333 5.15343C58.3691 5.28354 58.451 5.39613 58.5639 5.47008L59.8762 6.33023C60.2758 6.59213 60.179 7.20315 59.718 7.32869L58.204 7.74096C58.0739 7.77644 57.9611 7.85818 57.8869 7.97085L57.0228 9.2823C56.7606 9.6803 56.1517 9.58375 56.0254 9.12425L55.6091 7.60992C55.5734 7.47981 55.4913 7.36719 55.3785 7.29323L54.0661 6.43308C53.6666 6.17118 53.7634 5.56021 54.2243 5.43462L55.7383 5.02235C55.8686 4.98691 55.9813 4.90518 56.0556 4.7925L56.9196 3.48099Z" fill="white"/>
<path d="M21.0911 34.1876L21.597 31.4336C21.7938 30.1974 21.1755 29.7475 20.22 29.7475C19.2646 29.7475 18.4779 30.1974 18.2811 31.4336L18.028 32.7826C17.8596 33.7944 18.0563 34.3563 18.8994 34.8902L20.9787 36.1829C22.7212 37.2791 23.6766 38.1221 23.3111 40.1174L22.8052 42.9554C22.2713 45.9905 20.5011 47.0583 17.2413 47.0583H17.1849C14.4873 47.0583 12.492 46.0185 13.0259 42.9554L13.6442 39.5271H16.8477L16.3138 42.5058C16.1171 43.7144 16.7074 44.2484 17.6908 44.2484C18.6743 44.2484 19.4893 43.7144 19.6861 42.5058L19.9672 40.9601C20.1636 39.8923 19.9109 39.3303 19.0398 38.7964L16.9881 37.5038C15.4708 36.5484 14.3749 35.3118 14.6841 33.5696L15.1336 30.9841C15.6675 28.0617 17.7188 26.9375 20.6979 26.9375H20.7539C23.1707 26.9375 25.3908 28.0617 24.8569 30.9841L24.2949 34.1876H21.0911Z" fill="#00F6D2"/>
<path d="M30.8143 46.8335L30.8983 42.4498H27.2733L25.8119 46.8335H22.5804L29.6901 27.1622H33.793L34.0458 46.8335H30.8143ZM30.9267 39.7518L31.0951 31.012L28.1727 39.7518H30.9267Z" fill="#00F6D2"/>
<path d="M38.57 27.1622H47.0846L46.5791 30.0286H41.3239L40.3685 35.5645H44.7522L44.2467 38.4312H39.8626L38.3732 46.8335H35.1133L38.57 27.1622Z" fill="#00F6D2"/>
<path d="M44.9202 46.8335L48.3769 27.1622H57.0043L56.4984 30.0286H51.1308L50.2034 35.4241H54.6998L54.1939 38.2905H49.6975L48.686 43.9672H54.1376L53.632 46.8335H44.9202Z" fill="#00F6D2"/>
<path d="M62.9681 36.6081C64.5701 36.4114 65.4411 35.2031 65.7221 33.517L66.1436 31.0442C66.5933 28.571 64.7948 27.166 62.097 27.166H56.9545L53.4978 46.8373H58.5842C61.8441 46.8373 63.727 45.4323 64.1485 42.9591L64.7386 39.7276C64.9914 38.2099 64.5137 36.8613 62.9681 36.6081ZM61.5069 39.5589L60.973 42.5096C60.8043 43.5494 60.13 44.027 59.2025 44.027H57.2634L58.3032 38.0415H60.2423C61.1696 38.0415 61.6755 38.519 61.5069 39.5589ZM62.7995 31.4937L62.4062 33.7698C62.2094 34.8096 61.5349 35.2875 60.6077 35.2875H58.781L59.7364 29.9764H61.5631C62.4904 29.9764 62.9963 30.4539 62.7995 31.4937Z" fill="white"/>
<path d="M79.2504 27.166H78.1142H68.7848L65.3282 46.8373H74.0398L74.5455 43.971H69.0938L70.1056 38.2943H74.6017L75.1076 35.4279H70.6113L71.5388 30.0324H77.6085H78.7445H80.8963L77.9456 46.8373H81.2055L84.1562 30.0324H87.4441L87.9498 27.166H79.2504Z" fill="white"/>
</svg>
