<svg width="20" height="20" viewBox="0 0 20 20" fill="none" xmlns="http://www.w3.org/2000/svg">
<path fill-rule="evenodd" clip-rule="evenodd" d="M8.45021 1C12.5648 1 15.9004 4.34019 15.9004 8.46053C15.9004 10.1739 15.3237 11.7523 14.3539 13.0118C14.4408 13.0453 14.5241 13.0907 14.6013 13.148L14.7192 13.25L18.77 16.7845C19.1805 17.1955 18.9941 18.1972 18.5837 18.6083C17.7051 19.2276 16.8967 19.0002 16.4853 18.6944L16.3674 18.5925L13.2328 14.7384C13.1255 14.6309 13.0462 14.5059 12.995 14.3726C11.7373 15.3436 10.1611 15.9211 8.45021 15.9211C4.33558 15.9211 1.00001 12.5809 1.00001 8.46053C1.00001 4.34019 4.33558 1 8.45021 1ZM3.23501 8.46069C3.23501 5.57645 5.56991 3.23831 8.45015 3.23831C11.3304 3.23831 13.6653 5.57645 13.6653 8.46069C13.6653 11.3449 11.3304 13.6831 8.45015 13.6831C5.56991 13.6831 3.23501 11.3449 3.23501 8.46069Z" fill="#272A30"/>
</svg>
