<svg width="20" height="20" viewBox="0 0 20 20" fill="none" xmlns="http://www.w3.org/2000/svg">
<path d="M14.2062 5.93003C14.7043 6.37545 15.3944 6.625 16.1875 6.625C17.8005 6.625 18.9877 5.59273 18.9994 3.97976C18.9998 3.92511 19 3.86937 19 3.8125C19 3.75563 18.9998 3.69989 18.9994 3.64524C18.9877 2.03227 17.8005 1 16.1875 1C14.5745 1 13.3873 2.03227 13.3756 3.64524C13.3752 3.69989 13.375 3.75563 13.375 3.8125C13.375 3.86937 13.3752 3.92511 13.3756 3.97976C13.3765 4.10784 13.3849 4.23227 13.4003 4.3528C12.2353 4.92406 10.7873 5.63661 9.80725 6.12773C8.63123 6.71705 6.79783 7.65462 5.58405 8.27703C5.10943 7.93731 4.49961 7.75 3.8125 7.75C2.19948 7.75 1.01234 8.78227 1.0006 10.3952C1.0002 10.4499 1 10.5056 1 10.5625C1 10.6194 1.0002 10.6751 1.0006 10.7298C1.01234 12.3427 2.19949 13.375 3.8125 13.375C4.74402 13.375 5.5335 13.0307 6.0366 12.4292C7.22056 13.0356 8.76973 13.8266 9.80725 14.3465C10.7803 14.8341 12.2145 15.54 13.3751 16.1091L13.375 16.1875C13.375 16.2444 13.3752 16.3001 13.3756 16.3548C13.3873 17.9677 14.5745 19 16.1875 19C17.8005 19 18.9877 17.9677 18.9994 16.3548C18.9998 16.3001 19 16.2444 19 16.1875C19 16.1306 18.9998 16.0749 18.9994 16.0202C18.9877 14.4073 17.8005 13.375 16.1875 13.375C15.2203 13.375 14.4063 13.7461 13.9069 14.391C12.8248 13.8376 11.5747 13.2005 10.6936 12.759C9.57461 12.1982 7.84551 11.3488 6.62418 10.7506L6.6244 10.7298C6.6248 10.6751 6.625 10.6194 6.625 10.5625C6.625 10.5056 6.6248 10.4499 6.6244 10.3952C6.62277 10.1713 6.59848 9.95857 6.55355 9.75824C7.77807 9.15859 9.55286 8.2869 10.6936 7.71523C11.6573 7.23233 13.0624 6.51559 14.2062 5.93003Z" fill="#272A30"/>
</svg>
