<svg width="20" height="20" viewBox="0 0 20 20" fill="none" xmlns="http://www.w3.org/2000/svg">
<g clip-path="url(#clip0_318_2315)">
<path d="M10 0C15.5228 0 20 4.47715 20 10C20 15.5228 15.5228 20 10 20C4.47715 20 0 15.5228 0 10C0 4.47715 4.47715 0 10 0Z" fill="#256BAB"/>
<path d="M15.5371 18.2376C16.696 17.4806 17.6883 16.4896 18.4468 15.3317C18.3674 15.2337 18.288 15.1357 18.2086 15.0377C16.7375 13.2224 15.2663 11.4071 13.7953 9.59169C13.7726 9.56466 13.7508 9.53682 13.729 9.50896C13.6816 9.44846 13.6341 9.38787 13.5778 9.33533C13.5917 10.413 13.144 11.4855 12.3733 12.2386C11.7112 12.8963 10.8139 13.3168 9.88238 13.3905C9.8097 13.404 9.73597 13.4061 9.6621 13.4082C9.62367 13.4093 9.5852 13.4104 9.54682 13.4131C11.3196 14.8444 13.0947 16.2726 14.8699 17.7008C15.0923 17.8797 15.3147 18.0587 15.5371 18.2376Z" fill="#20406B"/>
<path fill-rule="evenodd" clip-rule="evenodd" d="M7.60524 3.88953C8.21048 3.81142 8.83151 3.8868 9.40873 4.08166C10.0548 4.30454 10.641 4.69453 11.0987 5.20098C11.1165 5.2347 11.1112 5.2735 11.1061 5.31117C11.1043 5.32429 11.1025 5.33727 11.1017 5.34985C10.9948 6.00136 10.7586 6.62675 10.4486 7.20804C9.92689 8.17143 9.20163 9.0276 8.32043 9.68074C7.45066 10.3293 6.41923 10.7617 5.34481 10.9176C5.23459 10.8131 5.12791 10.7045 5.02967 10.5883C4.37516 9.85001 4.01321 8.86322 4.02491 7.87724C4.03145 6.81452 4.47912 5.76487 5.23895 5.02191C5.87522 4.39843 6.71886 3.98831 7.60524 3.88953ZM12.2097 6.51731C12.3001 6.69421 12.3746 6.87845 12.4451 7.06378C12.6495 7.64372 12.7132 8.26965 12.6471 8.88006C12.5338 9.90006 12.013 10.8678 11.2221 11.5223C10.5646 12.0816 9.72151 12.4103 8.86154 12.4639C8.10117 12.5086 7.32556 12.3363 6.65881 11.9656C7.48776 11.7561 8.28187 11.4069 8.98999 10.9263C9.85813 10.3401 10.6024 9.57594 11.1832 8.70508C11.6001 8.07397 11.9433 7.38926 12.1567 6.66209C12.1719 6.61284 12.1904 6.56494 12.2097 6.51731Z" fill="white"/>
</g>
<defs>
<clipPath id="clip0_318_2315">
<rect width="20" height="20" fill="white"/>
</clipPath>
</defs>
</svg>
