<svg width="20" height="20" viewBox="0 0 20 20" fill="none" xmlns="http://www.w3.org/2000/svg">
<g clip-path="url(#clip0_318_2342)">
<path d="M10 0C15.5228 0 20 4.47715 20 10C20 15.5228 15.5228 20 10 20C4.47715 20 0 15.5228 0 10C0 4.47715 4.47715 0 10 0Z" fill="#B8CBCF"/>
<path d="M13.1118 14.6121L13.1126 14.6212C13.1022 15.4426 12.2571 16.1378 11.1835 16.1908C10.0772 16.2453 9.14623 15.5974 9.10412 14.7436C9.10085 14.6774 9.10303 14.6118 9.11033 14.5473L8.94522 12.9133L12.9532 12.8095L13.0921 14.3876C13.1015 14.4395 13.1077 14.4923 13.1103 14.546C13.1114 14.5681 13.1119 14.5902 13.1118 14.6121Z" fill="#DF5252"/>
<ellipse cx="0.436577" cy="0.947812" rx="0.436577" ry="0.947812" transform="matrix(0.0492676 0.998786 0.998786 -0.0492674 10.1413 14.4208)" fill="black"/>
<path d="M18.9586 5.55171C19.6252 6.8915 20 8.40197 20 9.99998C20 10.4965 19.9638 10.9847 19.8939 11.4618C16.8803 11.5648 13.3642 11.6865 10.9191 11.775C6.46119 11.9365 5.9011 11.3718 4.50163 9.96076C4.34637 9.80421 4.18077 9.63725 3.99837 9.45971C2.17195 7.68187 3.09654 5.46051 5.01784 5.40257C6.55489 5.35622 8.29032 5.64443 8.96591 5.79433L18.9586 5.55171Z" fill="black"/>
</g>
<defs>
<clipPath id="clip0_318_2342">
<rect width="20" height="20" fill="white"/>
</clipPath>
</defs>
</svg>
