<svg width="20" height="20" viewBox="0 0 20 20" fill="none" xmlns="http://www.w3.org/2000/svg">
<g clip-path="url(#clip0_318_2397)">
<path d="M10.0006 0.00170898C15.5235 0.00170898 20.0006 4.47886 20.0006 10.0017C20.0006 15.5246 15.5235 20.0017 10.0006 20.0017C4.47776 20.0017 0.000610352 15.5246 0.000610352 10.0017C0.000610352 4.47886 4.47776 0.00170898 10.0006 0.00170898Z" fill="#D46B00"/>
<path fill-rule="evenodd" clip-rule="evenodd" d="M9.2 5.46492C8.83397 5.48211 8.45855 5.33668 8.2159 5.05849C8.08234 4.91428 7.99754 4.73366 7.93583 4.54932C6.95669 4.55521 5.97759 4.56445 4.99848 4.57369C4.78865 4.57566 4.57882 4.57764 4.36899 4.57959C3.89322 4.59325 3.47432 5.01288 3.46989 5.48571C3.47227 5.83515 3.47547 6.18457 3.47868 6.53403C3.48247 6.94706 3.48626 7.36013 3.48869 7.77331C3.8414 7.84117 4.18406 7.98038 4.46276 8.20872C4.93833 8.58106 5.21065 9.17992 5.21299 9.77724C5.19703 10.192 5.07047 10.6083 4.81514 10.9412C4.51289 11.3591 4.03483 11.6434 3.52592 11.7321C3.52724 12.2343 3.5321 12.7365 3.53695 13.2387C3.53949 13.5008 3.54202 13.7629 3.54406 14.025C3.55528 14.4981 3.98212 14.9111 4.45807 14.9172L4.78242 14.9145C5.86331 14.9058 6.94444 14.8971 8.02525 14.8855C8.11057 14.5943 8.28356 14.3222 8.54353 14.1555C8.73531 14.0231 8.96701 13.9528 9.2 13.9474V12.7489C9.13561 12.7487 9.07086 12.7429 9.00635 12.731C8.72569 12.6872 8.46123 12.5421 8.27408 12.3302C8.02806 12.0557 7.91406 11.6668 7.98597 11.3053C8.05444 10.9575 8.27754 10.6401 8.59117 10.4673C8.77429 10.3603 8.98734 10.3077 9.2 10.3088V9.10229C9.11327 9.10414 9.02623 9.09839 8.94091 9.08754C8.44539 8.99834 8.03384 8.58522 7.9506 8.09233C7.85954 7.60021 8.11743 7.07084 8.55816 6.82991C8.75157 6.71876 8.97653 6.65919 9.2 6.66613V5.46492Z" fill="#FF9B3E"/>
<path fill-rule="evenodd" clip-rule="evenodd" d="M18.3244 4.45764C19.3833 6.04436 20.0006 7.95094 20.0006 10.0017C20.0006 11.7377 19.5582 13.3704 18.7801 14.7932C18.2263 14.798 17.6725 14.8029 17.1188 14.8077L17.1141 14.8078C14.8841 14.8273 12.6541 14.8469 10.4241 14.865C10.3227 14.5335 10.0989 14.2334 9.78064 14.0803C9.60265 13.9864 9.40085 13.9428 9.2 13.9474V12.7489C9.76171 12.7499 10.2955 12.3196 10.4011 11.7666C10.532 11.189 10.1616 10.561 9.59801 10.376C9.47073 10.332 9.33544 10.3095 9.2 10.3088V9.10232C9.35616 9.09898 9.51134 9.071 9.65367 9.00375C10.1119 8.8103 10.422 8.31964 10.3921 7.82558C10.3703 7.27535 9.92706 6.77783 9.37995 6.68661C9.32051 6.67475 9.26031 6.66804 9.2 6.66616V5.46495C9.38457 5.45628 9.56674 5.40626 9.7283 5.31107C10.0335 5.1514 10.2397 4.85147 10.3343 4.52781C12.5312 4.50752 14.7283 4.48861 16.9253 4.4697C17.3916 4.46568 17.858 4.46167 18.3244 4.45764Z" fill="#FFCE0D"/>
</g>
<defs>
<clipPath id="clip0_318_2397">
<rect width="20" height="20" fill="white"/>
</clipPath>
</defs>
</svg>
