<svg width="20" height="20" viewBox="0 0 20 20" fill="none" xmlns="http://www.w3.org/2000/svg">
<path d="M16.0519 7.00693C15.8967 7.04852 15.8052 7.20692 15.6223 7.52372L14.9237 8.73385C14.525 9.42434 14.3257 9.76959 14.4835 9.97527C14.633 10.1701 14.9865 10.0878 15.6781 9.9031C15.7144 10.785 15.545 11.6692 15.1758 12.4835C14.6327 13.6814 13.6909 14.6538 12.511 15.235C11.3311 15.8162 9.98616 15.9701 8.70546 15.6705C7.76552 15.4507 6.90291 14.9965 6.19427 14.3576C5.76647 13.9719 5.1172 13.8761 4.6599 14.2263C4.20259 14.5765 4.11133 15.2372 4.51961 15.6435C5.53675 16.6558 6.81987 17.3716 8.23037 17.7016C9.98113 18.1111 11.8197 17.9007 13.4327 17.1062C15.0457 16.3117 16.3331 14.9824 17.0756 13.3448C17.645 12.0887 17.8668 10.711 17.7293 9.35354C18.4835 9.15143 18.8609 9.04773 18.8944 8.79337C18.9282 8.53634 18.583 8.33701 17.8925 7.93836L16.6824 7.23969C16.3656 7.05678 16.2072 6.96533 16.0519 7.00693Z" fill="#272A30"/>
<path d="M2.25039 10.4094C2.16016 9.12914 2.38808 7.83822 2.92442 6.65524C3.66686 5.01766 4.95433 3.6883 6.56729 2.89382C8.18026 2.09934 10.0189 1.88892 11.7696 2.29844C13.1785 2.628 14.4603 3.34258 15.4769 4.35298C15.8873 4.76098 15.7956 5.42484 15.3361 5.77674C14.8766 6.12863 14.2243 6.03232 13.794 5.64529C13.0875 5.00989 12.2283 4.55819 11.2923 4.33924C10.0138 4.04019 8.67122 4.19384 7.49339 4.77399C6.31556 5.35414 5.37543 6.32487 4.83328 7.52067C4.49872 8.2586 4.3285 9.05405 4.32706 9.85304C5.01511 9.66939 5.36713 9.58798 5.51626 9.78232C5.67408 9.988 5.47475 10.3332 5.0761 11.0237L4.37743 12.2339C4.19452 12.5507 4.10307 12.7091 3.94783 12.7507C3.79259 12.7923 3.63419 12.7008 3.31739 12.5179L2.10726 11.8192C1.41677 11.4206 1.07153 11.2213 1.10537 10.9642C1.13855 10.7121 1.50958 10.608 2.25039 10.4094Z" fill="#272A30"/>
</svg>
