<svg width="20" height="20" viewBox="0 0 20 20" fill="none" xmlns="http://www.w3.org/2000/svg">
<path d="M11.0512 2.3215C10.5854 1.43431 10.3524 0.990719 9.9901 0.990479C9.62776 0.990238 9.39424 1.43352 8.92721 2.32009L7.04039 5.90184C6.90696 6.15515 6.84024 6.2818 6.72903 6.36352C6.61782 6.44525 6.47703 6.4711 6.19544 6.5228L2.57479 7.18753C1.61233 7.36423 1.1311 7.45258 1.02064 7.79283C0.910177 8.13307 1.24774 8.48724 1.92286 9.19559L4.76801 12.1808C4.96474 12.3872 5.06311 12.4904 5.10516 12.6213C5.14721 12.7522 5.12735 12.8934 5.08763 13.1758L4.52328 17.1876C4.38082 18.2004 4.30959 18.7067 4.60889 18.9179C4.90819 19.129 5.36132 18.892 6.26759 18.4181L9.43799 16.7601C9.70877 16.6185 9.84417 16.5477 9.99075 16.5473C10.1373 16.5469 10.2731 16.617 10.5446 16.7572L13.8196 18.4484C14.7139 18.9102 15.161 19.141 15.4583 18.9324C15.7556 18.7237 15.6904 18.2247 15.56 17.2267L15.0285 13.1583C14.9927 12.8843 14.9748 12.7472 15.0153 12.62C15.0558 12.4927 15.1496 12.3912 15.3372 12.1883L18.1093 9.19004C18.7634 8.48254 19.0904 8.12879 18.9783 7.79228C18.8662 7.45576 18.3923 7.3689 17.4445 7.19518L13.7765 6.52285C13.4944 6.47113 13.3533 6.44527 13.2419 6.36333C13.1305 6.2814 13.0639 6.15441 12.9305 5.90043L11.0512 2.3215Z" fill="#272A30"/>
</svg>
