<svg width="20" height="20" viewBox="0 0 20 20" fill="none" xmlns="http://www.w3.org/2000/svg">
<path d="M8.92721 2.32009C9.39424 1.43352 9.62776 0.990238 9.9901 0.990479C10.3524 0.990719 10.5854 1.43431 11.0512 2.3215L12.9305 5.90042C13.0639 6.15441 13.1305 6.2814 13.2419 6.36333C13.3533 6.44527 13.4944 6.47113 13.7765 6.52285L17.4445 7.19518C18.3923 7.3689 18.8662 7.45576 18.9783 7.79228C19.0904 8.12879 18.7634 8.48254 18.1093 9.19004L15.3372 12.1883C15.1496 12.3912 15.0558 12.4927 15.0153 12.62C14.9748 12.7472 14.9927 12.8843 15.0285 13.1583L15.56 17.2267C15.6904 18.2247 15.7556 18.7237 15.4583 18.9324C15.161 19.141 14.7139 18.9102 13.8196 18.4484L10.5446 16.7572C10.2731 16.617 10.1373 16.5469 9.99075 16.5473C9.84417 16.5477 9.70877 16.6185 9.43799 16.7601L6.26759 18.4181C5.36132 18.892 4.90819 19.129 4.60889 18.9179C4.30959 18.7067 4.38082 18.2004 4.52328 17.1876L5.08763 13.1758C5.12735 12.8934 5.14721 12.7522 5.10516 12.6213C5.06311 12.4904 4.96474 12.3872 4.76801 12.1808L1.92286 9.19559C1.24774 8.48724 0.910177 8.13307 1.02064 7.79282C1.1311 7.45258 1.61233 7.36423 2.57479 7.18753L6.19544 6.5228C6.47703 6.4711 6.61782 6.44525 6.72903 6.36352C6.84024 6.2818 6.90696 6.15515 7.04039 5.90184L8.92721 2.32009ZM11.0846 5.46437C10.6096 4.52832 10.3721 4.06029 10.0008 4.0629C9.62959 4.06551 9.39871 4.53684 8.93694 5.47949L8.08099 7.22683C7.94452 7.50541 7.87629 7.6447 7.75616 7.73222C7.63604 7.81973 7.48254 7.84199 7.17554 7.88649L5.68676 8.1023C4.65615 8.25169 4.14085 8.32639 4.02376 8.6771C3.90666 9.02781 4.27372 9.39711 5.00785 10.1357L6.34858 11.4846C6.55965 11.697 6.66519 11.8032 6.70931 11.9401C6.75342 12.077 6.72973 12.2248 6.68233 12.5205L6.40903 14.2252C6.23839 15.2895 6.15307 15.8217 6.46163 16.0371C6.77019 16.2525 7.24033 15.9889 8.18062 15.4618L9.4072 14.7741C9.69468 14.613 9.83842 14.5324 9.99549 14.5326C10.1526 14.5328 10.2961 14.6137 10.5832 14.7755L11.9918 15.5696C12.9116 16.0881 13.3716 16.3473 13.6794 16.1378C13.9872 15.9283 13.9147 15.4053 13.7696 14.3594L13.4935 12.3689C13.4535 12.0804 13.4335 11.9362 13.4778 11.8032C13.5221 11.6701 13.6245 11.5667 13.8294 11.3597L15.044 10.1331C15.7746 9.39532 16.1399 9.02642 16.0228 8.67631C15.9057 8.3262 15.392 8.25128 14.3645 8.10144L12.883 7.88538C12.5814 7.84139 12.4305 7.8194 12.3118 7.73406C12.193 7.64873 12.124 7.51281 11.9861 7.24099L11.0846 5.46437Z" fill="#272A30"/>
</svg>
