<svg width="20" height="20" viewBox="0 0 20 20" fill="none" xmlns="http://www.w3.org/2000/svg">
<path fill-rule="evenodd" clip-rule="evenodd" d="M9.9901 0.998291C9.62808 0.998051 9.39477 1.44095 8.92814 2.32674L7.04298 5.90536C6.90966 6.15843 6.843 6.28498 6.73189 6.36663C6.62078 6.44829 6.48011 6.47411 6.19876 6.52577L2.58128 7.18992C1.61967 7.36647 1.13886 7.45474 1.0285 7.79468C0.91813 8.13463 1.25539 8.48849 1.92992 9.19623L4.77258 12.1788C4.96915 12.3851 5.06743 12.4882 5.10944 12.619C5.15146 12.7498 5.13161 12.8908 5.09193 13.1729L4.52807 17.1813C4.38574 18.1931 4.31457 18.6991 4.61361 18.91C4.91265 19.1209 5.36538 18.8842 6.27085 18.4107L9.43848 16.7541C9.70903 16.6126 9.8443 16.5419 9.99076 16.5415C10.1372 16.5411 10.2729 16.6112 10.5441 16.7512L13.8163 18.4409C14.7098 18.9023 15.1565 19.133 15.4535 18.9245C15.7505 18.716 15.6854 18.2175 15.5551 17.2204L15.0241 13.1555C14.9883 12.8817 14.9704 12.7447 15.0109 12.6176C15.0514 12.4904 15.1451 12.3891 15.3326 12.1863L18.1022 9.19068C18.7557 8.4838 19.0825 8.13036 18.9704 7.79414C18.8584 7.45792 18.3849 7.37113 17.438 7.19756L13.7732 6.52582C13.4913 6.47414 13.3503 6.44831 13.2391 6.36644C13.1278 6.28458 13.0612 6.1577 12.9279 5.90394L11.0503 2.32815C10.5848 1.44174 10.3521 0.998531 9.9901 0.998291ZM10.0008 4.06802C10.3718 4.06541 10.609 4.53303 11.0836 5.46827L11.9844 7.24333C12.1222 7.51492 12.1911 7.65071 12.3097 7.73597C12.4284 7.82123 12.5791 7.84321 12.8805 7.88716L14.3607 8.10303C15.3873 8.25274 15.9005 8.32759 16.0175 8.6774C16.1345 9.0272 15.7695 9.39578 15.0396 10.1329L13.8261 11.3585C13.6213 11.5652 13.519 11.6686 13.4747 11.8015C13.4305 11.9344 13.4505 12.0785 13.4904 12.3667L13.7663 14.3555C13.9113 15.4005 13.9837 15.923 13.6762 16.1324C13.3686 16.3417 12.9091 16.0827 11.9901 15.5646L10.5827 14.7713C10.2959 14.6096 10.1524 14.5287 9.9955 14.5285C9.99387 14.5285 9.99225 14.5285 9.99062 14.5286V4.06822C9.99402 4.06811 9.99742 4.06805 10.0008 4.06802Z" fill="#272A30"/>
</svg>
