<svg width="100" height="50" viewBox="0 0 100 50" fill="none" xmlns="http://www.w3.org/2000/svg">
<path d="M92.7412 6.47064C91.5018 4.98927 89.5322 4.20623 87.0454 4.20623H72.0535C71.2167 4.20623 70.4535 4.57124 69.9296 5.16193C68.8127 4.53238 67.4232 4.20623 65.8183 4.20623H55.6522C55.0521 4.20623 54.4897 4.39399 54.0264 4.71807C53.5661 4.39549 53.0056 4.20623 52.4006 4.20623H49.2539C48.4421 4.20623 47.6994 4.54989 47.1775 5.10975C46.0269 4.37951 44.5637 3.98939 42.9105 3.98939H42.8562C39.9213 3.98939 37.6358 4.97767 36.2054 6.77744C35.6368 6.03678 34.9087 5.40735 34.0417 4.95251L25.9816 0.724178C25.0786 0.250442 24.0622 0 23.0424 0C22.9234 0 22.8045 0.00337733 22.6857 0.0100887C22.5472 0.0179258 22.4092 0.031695 22.2716 0.0485816C22.0549 0.0751673 21.8394 0.111582 21.6267 0.16038L12.3129 2.29862C11.7797 2.42101 11.2745 2.60786 10.803 2.84765C10.7917 2.85343 10.7795 2.858 10.7681 2.86385C9.49752 3.51953 8.48212 4.5713 7.86419 5.84157C7.85818 5.85395 7.85086 5.8656 7.84493 5.87801C7.82319 5.92334 7.80596 5.97097 7.78526 6.01685C7.43895 6.78491 7.2325 7.62588 7.20432 8.50659L6.86498 19.1221L6.86 19.2769C6.85597 19.4027 6.8555 19.5281 6.85848 19.6529C6.87052 20.1522 6.93842 20.6427 7.0587 21.1169C7.14889 21.4726 7.26857 21.819 7.41635 22.153C7.81037 23.0437 8.40409 23.8462 9.17036 24.4993L10.8333 25.9167C8.88714 26.9428 7.60262 28.727 7.16084 31.145C7.15937 31.153 7.15799 31.161 7.1566 31.169L6.72292 33.6633C6.53833 34.7035 6.56925 36.0097 7.27013 37.3467C6.47936 37.7333 5.88768 38.479 5.72284 39.3933L5.12652 42.7006C4.67911 45.2662 5.50322 46.8926 6.27282 47.8079C7.49568 49.2625 9.39949 50 11.9314 50H11.9856C13.4159 50 14.6633 49.7995 15.7302 49.405C16.1532 49.6469 16.6352 49.7832 17.1365 49.7832H20.2542C21.2518 49.7832 22.1581 49.2616 22.6672 48.4391C22.7767 48.616 22.9062 48.7817 23.0543 48.9327C23.5879 49.4767 24.3179 49.7832 25.08 49.7832H32.3724C33.7485 49.7832 34.9263 48.7958 35.1665 47.4408L35.2694 46.8606H35.8557C35.835 47.5522 36.0644 48.2331 36.5153 48.7702C37.0545 49.4123 37.85 49.7832 38.6885 49.7832L51.8707 49.7866C53.5576 49.7866 55.0419 49.4592 56.2724 48.8469C56.8093 49.4422 57.5721 49.7866 58.3768 49.7866H66.7812C67.499 49.7866 68.1613 49.5162 68.6662 49.0669C69.1821 49.5254 69.8496 49.7866 70.5492 49.7866H73.6941C75.072 49.7866 76.2507 48.7968 76.489 47.4397L78.9236 33.5744H79.7127C81.0897 33.5744 82.2679 32.5858 82.5072 31.2298L82.9588 28.6698C83.3461 28.522 83.6958 28.2945 83.9819 28.0008C84.5005 28.5331 85.224 28.859 86.0153 28.859H89.133C89.9635 28.859 90.7524 28.4951 91.2915 27.8633C91.8307 27.2314 92.066 26.3951 91.9353 25.5749L90.9543 19.4179C92.0039 18.4948 92.9367 17.0849 93.3112 14.9316L93.9066 11.5479C94.3559 9.04148 93.521 7.40259 92.7412 6.47064Z" fill="black"/>
<path d="M43.2358 13.8214L43.7238 11.1646C43.9137 9.97193 43.3172 9.5379 42.3954 9.5379C41.4737 9.5379 40.7144 9.97193 40.5246 11.1646L40.2807 12.466C40.1179 13.4421 40.3077 13.9842 41.121 14.4993L43.1274 15.7463C44.8081 16.8038 45.7301 17.6172 45.3775 19.5421L44.8895 22.28C44.3744 25.208 42.6667 26.2382 39.5214 26.2382H39.4674C36.8646 26.2382 34.94 25.235 35.4551 22.28L36.0512 18.9726H39.1421L38.627 21.8463C38.4372 23.0122 39.0067 23.5273 39.9554 23.5273C40.9042 23.5273 41.6905 23.0122 41.8803 21.8463L42.1512 20.3551C42.341 19.3249 42.0972 18.7828 41.2568 18.2677L39.2775 17.0207C37.8137 16.0989 36.7565 14.9059 37.0544 13.2253L37.4881 10.7309C38.0035 7.91158 39.9825 6.82703 42.8565 6.82703H42.9105C45.2417 6.82703 47.3838 7.91158 46.8684 10.7309L46.3266 13.8214H43.2358Z" fill="#00F6D2"/>
<path d="M56.1399 22.2259C55.6252 25.1539 53.8628 26.2381 50.7182 26.2381H50.6094C48.007 26.2381 46.0551 25.181 46.5972 22.2259L49.254 7.04382H52.3989L49.8235 21.7378C49.5793 23.0932 50.1217 23.4729 51.1519 23.4729C52.1821 23.4729 52.8326 23.0932 53.0764 21.7378L55.6522 7.04382H58.7968L56.1399 22.2259Z" fill="#00F6D2"/>
<path d="M69.8848 11.0561L69.2613 14.662C68.7462 17.5357 66.9298 18.6743 63.7849 18.6743H62.0228L60.7214 26.0213H57.5768L60.9112 7.04382H65.8182C68.421 7.04382 70.3999 8.18242 69.8848 11.0561ZM66.6585 11.5442C66.9027 10.1887 66.2519 9.80908 65.2217 9.80908H63.568L62.5108 15.9091H64.1645C65.1947 15.9091 65.954 15.5294 66.1978 14.174L66.6585 11.5442Z" fill="#00F6D2"/>
<path d="M68.7189 26.0213L72.0536 7.04382H80.3764L79.8886 9.80908H74.7104L73.8157 15.0143H78.1532L77.6655 17.7796H73.3276L72.3518 23.2561H77.6111L77.123 26.0213H68.7189Z" fill="#00F6D2"/>
<path d="M91.1118 11.0561L90.5156 14.4452C90.1904 16.3157 89.2956 17.4543 87.8588 18.0238L89.1332 26.0213H86.0153L84.9578 18.4575H83.2771L81.9487 26.0213H78.8037L82.1385 7.04382H87.0455C89.6479 7.04382 91.6272 8.18242 91.1118 11.0561ZM86.449 9.80908H84.7953L83.7648 15.7463H85.4188C86.449 15.7463 87.2079 15.367 87.4521 14.0112L87.8858 11.5442C88.13 10.1887 87.4792 9.80908 86.449 9.80908Z" fill="#00F6D2"/>
<path d="M15.6998 34.7455L16.1879 32.0886C16.3776 30.896 15.7812 30.462 14.8595 30.462C13.9376 30.462 13.1786 30.896 12.9888 32.0886L12.7448 33.39C12.5821 34.3662 12.7719 34.9083 13.5853 35.4234L15.5914 36.6704C17.2723 37.7279 18.194 38.5412 17.8416 40.4661L17.3535 43.204C16.8384 46.1321 15.1305 47.1623 11.9856 47.1623H11.9314C9.3288 47.1623 7.40389 46.1591 7.91915 43.204L8.51547 39.8967H11.6062L11.0911 42.7704C10.9013 43.9363 11.4705 44.4514 12.4195 44.4514C13.3683 44.4514 14.1546 43.9363 14.3442 42.7704L14.6154 41.2791C14.8051 40.249 14.5612 39.7069 13.7207 39.1918L11.7416 37.9447C10.2777 37.023 9.22038 35.83 9.51862 34.1493L9.95231 31.6549C10.4674 28.8357 12.4465 27.7511 15.3204 27.7511H15.3746C17.706 27.7511 19.8477 28.8357 19.3326 31.6549L18.7905 34.7455H15.6998Z" fill="#00F6D2"/>
<path d="M25.08 46.9454L25.1612 42.7163H21.664L20.2542 46.9454H17.1365L23.9954 27.9679H27.9536L28.1977 46.9454H25.08ZM25.1884 40.1135L25.351 31.6819L22.5316 40.1135H25.1884Z" fill="#00F6D2"/>
<path d="M32.5622 27.9679H40.7766L40.2887 30.7332H35.2191L34.2973 36.0738H38.5264L38.0385 38.8394H33.8093L32.3724 46.9454H29.2275L32.5622 27.9679Z" fill="#00F6D2"/>
<path d="M38.6885 46.9454L42.0233 27.9679H50.3462L49.8581 30.7332H44.6801L43.7854 35.9384H48.1231L47.6352 38.7037H43.2973L42.3213 44.1801H47.5808L47.0929 46.9454H38.6885Z" fill="#00F6D2"/>
<path d="M56.1 37.0808C57.6454 36.891 58.4858 35.7253 58.7568 34.0987L59.1635 31.7131C59.5974 29.3271 57.8623 27.9717 55.2597 27.9717H50.2985L46.9637 46.9492H51.8707C55.0156 46.9492 56.8321 45.5937 57.2388 43.2078L57.8081 40.0902C58.0519 38.626 57.5911 37.325 56.1 37.0808ZM54.6904 39.9274L54.1753 42.7741C54.0125 43.7772 53.362 44.2379 52.4672 44.2379H50.5965L51.5997 38.4636H53.4704C54.3649 38.4636 54.853 38.9243 54.6904 39.9274ZM55.9374 32.1468L55.5579 34.3425C55.3681 35.3457 54.7174 35.8067 53.8228 35.8067H52.0606L52.9823 30.6829H54.7446C55.6391 30.6829 56.1272 31.1436 55.9374 32.1468Z" fill="white"/>
<path d="M71.8081 27.9717H70.7119H61.7116L58.3769 46.9492H66.7812L67.2691 44.1839H62.0097L62.9858 38.7074H67.3233L67.8114 35.9422H63.4737L64.3684 30.7369H70.224H71.32H73.3959L70.5493 46.9492H73.6942L76.5408 30.7369H79.7128L80.2007 27.9717H71.8081Z" fill="white"/>
<path fill-rule="evenodd" clip-rule="evenodd" d="M32.7234 7.46536L24.6634 3.23703C23.9257 2.84998 23.0737 2.7397 22.2617 2.92612L12.9479 5.06433C11.289 5.44512 10.095 6.89603 10.0406 8.59731L9.69625 19.3676C9.65985 20.5067 10.1437 21.6004 11.0111 22.3396L18.307 28.5579C19.4539 29.5355 21.0748 29.7309 22.4212 29.0541L30.8956 24.7943C31.9651 24.2567 32.7134 23.2404 32.9095 22.0596L34.6794 11.3979C34.9443 9.80236 34.1557 8.21678 32.7234 7.46536Z" fill="#00F6D2"/>
<path d="M30.5361 15.2888C30.5295 15.1765 28.7383 11.4867 28.6656 11.4265C28.6206 11.3762 28.5662 11.3447 28.5011 11.308L25.5581 10.018C25.5096 9.99657 25.4573 9.98202 25.4033 9.97544L20.3054 9.36094C20.2507 9.3547 20.197 9.35609 20.1322 9.36821C20.0726 9.38484 19.3012 9.51647 18.6209 9.63216C17.4342 9.83445 17.093 9.89438 16.9842 9.91828L16.9676 9.91724C16.9655 9.9169 16.9638 9.9169 16.9617 9.9169C16.8207 9.9169 16.4895 10.2695 14.9024 12.2412C14.5477 12.6815 14.213 13.0971 14.1729 13.1332L14.1452 13.1546C13.9872 13.3386 13.9681 13.6074 14.098 13.8079L14.1008 13.8062C14.1857 13.9385 14.7389 14.6542 18.5083 19.4905C19.7765 21.1175 20.8714 22.5228 20.9192 22.5911C21.0269 22.7185 21.1839 22.7868 21.3404 22.7868C21.4152 22.7868 21.4897 22.7712 21.5587 22.7393C21.6155 22.721 22.5978 21.9499 28.0036 17.6543C29.2839 16.6373 30.2954 15.8336 30.3498 15.7941C30.4634 15.6968 30.5337 15.5555 30.543 15.4062C30.5462 15.3625 30.543 15.3189 30.5361 15.2888ZM25.1012 11.7995L20.1644 11.2041L18.9794 10.6852L20.2541 10.4628L25.1909 11.0583L26.3759 11.5772L25.1012 11.7995ZM20.3352 12.333L24.6672 12.8553L25.2886 15.2791L19.1554 14.5395L20.3352 12.333ZM19.2607 12.0095L18.0372 14.297L15.4687 13.2814L17.2516 11.1293L19.2607 12.0095ZM17.8737 15.4155L19.216 18.6075L16.2311 14.7661L17.8737 15.4155ZM28.0753 16.1942L24.2626 19.2165L26.3254 16.435L28.0753 16.1942ZM26.4321 15.3095L25.7878 12.7972L27.9486 12.4196L29.1686 14.9334L26.4321 15.3095ZM25.0157 16.3539L21.4714 21.1334L19.1651 15.6487L25.0157 16.3539Z" fill="white"/>
<path d="M28.6977 3.06203C28.9506 2.67812 29.5381 2.77123 29.6599 3.2145L30.0616 4.67549C30.0961 4.80101 30.1751 4.90963 30.284 4.98096L31.55 5.81078C31.9355 6.06344 31.8422 6.65291 31.3974 6.77402L29.9368 7.17175C29.8113 7.20599 29.7025 7.28483 29.6308 7.39353L28.7972 8.65873C28.5443 9.04269 27.9569 8.94954 27.8351 8.50626L27.4335 7.04533C27.399 6.91981 27.3198 6.81116 27.211 6.73982L25.9449 5.91C25.5594 5.65734 25.6529 5.06792 26.0975 4.94676L27.5581 4.54903C27.6837 4.51484 27.7925 4.43599 27.8642 4.32729L28.6977 3.06203Z" fill="white"/>
</svg>
