<svg width="20" height="20" viewBox="0 0 20 20" fill="none" xmlns="http://www.w3.org/2000/svg">
<g clip-path="url(#clip0_114_1337)">
<path d="M10 0C15.5228 0 20 4.47715 20 10C20 15.5228 15.5228 20 10 20C4.47715 20 0 15.5228 0 10C0 4.47715 4.47715 0 10 0Z" fill="#20406B"/>
<path d="M17.79 16.2707C17.3259 16.8466 16.7991 17.37 16.2202 17.8305L13.4441 14.7209C13.3714 14.6395 13.2491 14.6267 13.1592 14.6885C12.0213 15.469 10.5535 15.9524 9.33789 15.8123C9.173 15.7932 9.11517 15.5959 9.23253 15.4786L15.5113 9.19986C15.6286 9.0825 15.8258 9.14036 15.8444 9.3053C15.982 10.5304 15.4746 12.0254 14.6796 13.1733C14.6178 13.2625 14.6295 13.384 14.7096 13.4572L17.79 16.2707Z" fill="#F3DCCE"/>
<path d="M16.0091 7.77283C15.7521 6.55298 15.1543 5.39743 14.214 4.45716C11.5825 1.82564 7.26483 1.87676 4.57025 4.57134C1.87567 7.26592 1.82455 11.5836 4.45608 14.2151C5.40697 15.166 6.57804 15.7666 7.81313 16.0188C7.69287 15.4816 7.83709 14.8816 8.23589 14.4828L14.5146 8.20415C14.9022 7.81654 15.4823 7.66914 16.0091 7.77283Z" fill="#DF5252"/>
<ellipse cx="6.43876" cy="8.54627" rx="2.11243" ry="2.11243" fill="white"/>
</g>
<defs>
<clipPath id="clip0_114_1337">
<rect width="20" height="20" fill="white"/>
</clipPath>
</defs>
</svg>
