<svg width="20" height="20" viewBox="0 0 20 20" fill="none" xmlns="http://www.w3.org/2000/svg">
<path fill-rule="evenodd" clip-rule="evenodd" d="M10 19C14.9706 19 19 14.9706 19 10C19 5.02944 14.9706 1 10 1C5.02944 1 1 5.02944 1 10C1 14.9706 5.02944 19 10 19ZM11.0664 5.40572C11.0664 4.71215 10.5073 4.1499 9.81777 4.1499C9.12819 4.1499 8.56917 4.71215 8.56917 5.40572L8.20355 10.3885C8.17179 10.8213 8.35159 11.2429 8.68678 11.5215L12.3685 14.5821C12.8561 15.0725 13.6466 15.0725 14.1342 14.5821C14.6219 14.0917 14.6219 13.2965 14.1342 12.8061L11.197 9.85189C11.1133 9.76767 11.0664 9.65411 11.0664 9.53579V5.40572Z" fill="#272A30"/>
</svg>
