<svg width="20" height="20" viewBox="0 0 20 20" fill="none" xmlns="http://www.w3.org/2000/svg">
<path fill-rule="evenodd" clip-rule="evenodd" d="M11.5056 16.5815C11.0215 16.6918 10.5175 16.75 10 16.75C9.48247 16.75 8.97854 16.6918 8.49442 16.5815C8.49192 16.5776 8.48945 16.5738 8.48702 16.5699L7.20298 14.5154C7.10335 14.356 6.94239 14.2448 6.75807 14.2079L4.37407 13.7311C3.74789 12.7888 3.35212 11.6802 3.2672 10.4856C3.28608 10.4547 3.30752 10.4251 3.33146 10.3972L4.88165 8.58866C5.00679 8.44267 5.06453 8.25065 5.04068 8.05984L4.79913 6.12744C4.76875 5.88441 4.87093 5.64374 5.06686 5.49679L7.07592 3.99C7.26225 3.85025 7.50698 3.81517 7.72506 3.89695L9.77376 4.66522C9.92014 4.72011 10.0809 4.72308 10.2292 4.67365L12.5865 3.88788C12.654 3.86541 12.7234 3.85391 12.7925 3.85292C13.0262 3.95924 13.2527 4.07849 13.4712 4.20975L14.9714 5.49566C15.1454 5.64475 15.2329 5.87117 15.2045 6.0985L14.9593 8.05984C14.9355 8.25065 14.9932 8.44267 15.1184 8.58866L16.6391 10.3629C16.676 10.4059 16.7069 10.4528 16.7316 10.5022C16.6978 10.9617 16.618 11.4085 16.4968 11.8379L16.2995 12.4296C16.1356 12.8545 15.9299 13.2585 15.6875 13.6368C15.6378 13.6618 15.5847 13.6809 15.529 13.6933L13.2323 14.2036C13.0537 14.2433 12.8985 14.353 12.8016 14.5082L11.513 16.5699C11.5106 16.5738 11.5081 16.5776 11.5056 16.5815ZM19 10C19 14.9706 14.9706 19 10 19C5.02944 19 1 14.9706 1 10C1 5.02944 5.02944 1 10 1C14.9706 1 19 5.02944 19 10ZM9.77568 6.40793C9.91028 6.31324 10.0898 6.31324 10.2245 6.40793L11.8031 7.51843L13.3471 8.67664C13.4787 8.7754 13.5342 8.94617 13.4857 9.10345L12.9174 10.948L12.293 12.7743C12.2398 12.93 12.0945 13.0356 11.9299 13.0381L10.0001 13.0676L8.07018 13.0381C7.90563 13.0356 7.76036 12.93 7.70712 12.7743L7.0827 10.948L6.51438 9.10345C6.46592 8.94617 6.52141 8.7754 6.65306 8.67664L8.19703 7.51843L9.77568 6.40793Z" fill="#272A30"/>
</svg>
