<svg width="20" height="20" viewBox="0 0 20 20" fill="none" xmlns="http://www.w3.org/2000/svg">
<path fill-rule="evenodd" clip-rule="evenodd" d="M12.0625 7.125H7.9375C6.52207 7.125 5.60789 7.12732 4.91839 7.19603C4.26114 7.26153 4.02819 7.37124 3.90935 7.44855C3.67534 7.60079 3.47579 7.80034 3.32355 8.03435C3.24624 8.15319 3.13653 8.38614 3.07103 9.04339C3.00232 9.73289 3 10.6471 3 12.0625C3 13.4779 3.00232 14.3921 3.07103 15.0816C3.13653 15.7389 3.24624 15.9718 3.32355 16.0906C3.47579 16.3247 3.67534 16.5242 3.90935 16.6764C4.02819 16.7538 4.26114 16.8635 4.91839 16.929C5.60789 16.9977 6.52207 17 7.9375 17H12.0625C13.4779 17 14.3921 16.9977 15.0816 16.929C15.7389 16.8635 15.9718 16.7538 16.0906 16.6764C16.3247 16.5242 16.5242 16.3247 16.6764 16.0906C16.7538 15.9718 16.8635 15.7389 16.929 15.0816C16.9977 14.3921 17 13.4779 17 12.0625C17 10.6471 16.9977 9.73289 16.929 9.04339C16.8635 8.38614 16.7538 8.15319 16.6764 8.03435C16.5242 7.80034 16.3247 7.60079 16.0906 7.44855C15.9718 7.37124 15.7389 7.26153 15.0816 7.19603C14.3921 7.12732 13.4779 7.125 12.0625 7.125ZM1.6471 6.9437C1 7.93837 1 9.31308 1 12.0625C1 14.8119 1 16.1866 1.6471 17.1813C1.95158 17.6493 2.35068 18.0484 2.8187 18.3529C3.81337 19 5.18808 19 7.9375 19H12.0625C14.8119 19 16.1866 19 17.1813 18.3529C17.6493 18.0484 18.0484 17.6493 18.3529 17.1813C19 16.1866 19 14.8119 19 12.0625C19 9.31308 19 7.93837 18.3529 6.9437C18.0484 6.47568 17.6493 6.07658 17.1813 5.7721C16.1866 5.125 14.8119 5.125 12.0625 5.125H7.9375C5.18808 5.125 3.81337 5.125 2.8187 5.7721C2.35068 6.07658 1.95158 6.47568 1.6471 6.9437Z" fill="#272A30"/>
<path d="M9 6.75H11V17.625H9V6.75Z" fill="#272A30"/>
<path d="M18 11.1875V13.1875L2 13.1875L2 11.1875L18 11.1875Z" fill="#272A30"/>
<path fill-rule="evenodd" clip-rule="evenodd" d="M8.53973 4.94167L6.30983 3.23231C5.81672 2.85431 5.11055 2.94762 4.73255 3.44073C4.35455 3.93384 4.44787 4.64001 4.94097 5.01801L6.62967 6.3125H3.393C2.31935 5.21949 2.18633 3.47491 3.14526 2.22397C4.19526 0.854226 6.15685 0.595019 7.52659 1.64502L9.75649 3.35438C9.842 3.41993 9.92319 3.48903 10 3.56133C10.0768 3.48903 10.158 3.41993 10.2435 3.35438L12.4734 1.64502C13.8432 0.595019 15.8047 0.854226 16.8547 2.22397C17.8137 3.47491 17.6806 5.21949 16.607 6.3125H13.3703L15.059 5.01801C15.5521 4.64001 15.6454 3.93384 15.2674 3.44073C14.8894 2.94762 14.1833 2.85431 13.6902 3.23231L11.4603 4.94167C11.0326 5.26947 10.9057 5.84408 11.126 6.3125H8.87397C9.09432 5.84408 8.96736 5.26947 8.53973 4.94167Z" fill="#272A30"/>
</svg>
