<svg width="20" height="20" viewBox="0 0 20 20" fill="none" xmlns="http://www.w3.org/2000/svg">
<path fill-rule="evenodd" clip-rule="evenodd" d="M17.122 8.72383C17.1932 8.72089 17.2621 8.71797 17.3289 8.71505C18.2784 8.67358 19 7.88818 19 6.93473C19 6.2695 18.7848 5.61371 18.2927 5.16779C16.555 3.59304 13.1577 1.70802 10.696 1.08666C10.2382 0.971112 9.76177 0.971112 9.30397 1.08666C6.84226 1.70802 3.44501 3.59304 1.7073 5.16779C1.21524 5.61371 1 6.2695 1 6.93473C1 7.88818 1.72164 8.67358 2.67111 8.71505C2.73784 8.71796 2.80676 8.72089 2.87791 8.72382C2.85633 8.82974 2.84394 8.93958 2.84025 9.05054C2.81973 9.66619 2.80002 10.6645 2.80002 12.2281C2.80002 13.7916 2.81973 14.79 2.84025 15.4056C2.84118 15.4337 2.84268 15.4617 2.84473 15.4896C2.65648 15.497 2.49031 15.5043 2.34434 15.5112C1.74657 15.5397 1.18056 15.8131 1.06777 16.4027C1.02715 16.6151 1 16.876 1 17.1942C1 17.5123 1.02715 17.7732 1.06777 17.9856C1.18056 18.5753 1.74657 18.8486 2.34434 18.8771C3.45361 18.93 5.72943 19 10 19C14.2706 19 16.5464 18.93 17.6557 18.8771C18.2534 18.8486 18.8194 18.5753 18.9322 17.9856C18.9729 17.7732 19 17.5123 19 17.1942C19 16.876 18.9729 16.6151 18.9322 16.4027C18.8194 15.8131 18.2534 15.5397 17.6557 15.5112C17.5097 15.5042 17.3434 15.497 17.1551 15.4896C17.1572 15.4617 17.1587 15.4337 17.1596 15.4056C17.1801 14.79 17.1999 13.7916 17.1999 12.2281C17.1999 10.6645 17.1801 9.66619 17.1596 9.05054C17.1559 8.93958 17.1435 8.82975 17.122 8.72383ZM13.6614 8.81602C13.0772 8.825 12.4383 8.83213 11.7414 8.83666C11.7513 8.90697 11.7574 8.97852 11.7598 9.05054C11.7803 9.66619 11.8 10.6645 11.8 12.2281C11.8 13.7807 11.7805 14.7759 11.7602 15.3926C12.4502 15.3961 13.075 15.4016 13.6402 15.4085L13.6401 15.4056C13.6196 14.79 13.5999 13.7916 13.5999 12.2281C13.5999 10.6645 13.6196 9.66619 13.6401 9.05054C13.6427 8.97146 13.6498 8.89295 13.6614 8.81602ZM8.25853 8.83666C7.56168 8.83213 6.92272 8.82499 6.33846 8.81602C6.35011 8.89295 6.35715 8.97146 6.35979 9.05054C6.38031 9.66619 6.40002 10.6645 6.40002 12.2281C6.40002 13.7916 6.38031 14.79 6.35979 15.4056L6.35969 15.4085C6.92487 15.4016 7.54977 15.3961 8.23978 15.3926C8.21942 14.7759 8.19998 13.7807 8.19998 12.2281C8.19998 10.6645 8.21969 9.66619 8.24021 9.05054C8.24261 8.97852 8.24867 8.90697 8.25853 8.83666ZM11.8 5.45619C11.8 6.45353 10.9941 7.26203 9.99998 7.26203C9.00587 7.26203 8.19998 6.45353 8.19998 5.45619C8.19998 4.45885 9.00587 3.65035 9.99998 3.65035C10.9941 3.65035 11.8 4.45885 11.8 5.45619Z" fill="#272A30"/>
</svg>
