<svg width="20" height="20" viewBox="0 0 20 20" fill="none" xmlns="http://www.w3.org/2000/svg">
<path fill-rule="evenodd" clip-rule="evenodd" d="M7.35881 2.33536C6.98727 2.82519 6.81694 3.43808 6.73886 4.31768L7.27717 4.31764C8.49375 4.31755 9.58767 4.31746 10.4848 4.41939C11.455 4.52962 12.4682 4.7825 13.3761 5.4846C13.7646 5.78503 14.1123 6.13548 14.4104 6.52701C15.1071 7.44201 15.358 8.46311 15.4674 9.4409C15.5685 10.3451 15.5685 11.4475 15.5684 12.6736V12.9029C15.5684 13.0601 15.5684 13.2153 15.5682 13.3682C16.5075 13.2954 17.1511 13.1271 17.6647 12.7375C17.9097 12.5517 18.1281 12.3332 18.314 12.0882C19 11.1838 19 9.85978 19 7.21179C19 4.56381 19 3.23981 18.314 2.33536C18.1281 2.09035 17.9097 1.87189 17.6647 1.68605C16.7602 1 15.4523 1 12.8364 1C10.2205 1 8.91258 1 8.00813 1.68605C7.76312 1.87189 7.54466 2.09035 7.35881 2.33536ZM16.1986 4.95295C16.8175 4.95295 17.3192 4.44729 17.3192 3.82353C17.3192 3.19977 16.8175 2.69411 16.1986 2.69411C15.5796 2.69411 15.0779 3.19977 15.0779 3.82353C15.0779 4.44729 15.5796 4.95295 16.1986 4.95295Z" fill="#272A30"/>
<path fill-rule="evenodd" clip-rule="evenodd" d="M0.999986 12.7882C0.999986 10.1402 0.999986 8.81622 1.68603 7.91178C1.87188 7.66677 2.09034 7.44831 2.33535 7.26246C3.2398 6.57641 4.54774 6.57641 7.16361 6.57641C9.77948 6.57641 11.0874 6.57641 11.9919 7.26246C12.2369 7.44831 12.4553 7.66677 12.6412 7.91178C13.3272 8.81622 13.3272 10.1402 13.3272 12.7882C13.3272 15.4362 13.3272 16.7602 12.6412 17.6646C12.4553 17.9096 12.2369 18.1281 11.9919 18.314C11.0874 19 9.77948 19 7.16361 19C4.54774 19 3.2398 19 2.33535 18.314C2.09034 18.1281 1.87188 17.9096 1.68603 17.6646C0.999986 16.7602 0.999986 15.4362 0.999986 12.7882ZM4.92222 9.39993C4.92222 10.0237 4.42048 10.5293 3.80156 10.5293C3.18264 10.5293 2.6809 10.0237 2.6809 9.39993C2.6809 8.77617 3.18264 8.27051 3.80156 8.27051C4.42048 8.27051 4.92222 8.77617 4.92222 9.39993ZM7.16367 13.9178C7.78259 13.9178 8.28433 13.4122 8.28433 12.7884C8.28433 12.1646 7.78259 11.659 7.16367 11.659C6.54474 11.659 6.04301 12.1646 6.04301 12.7884C6.04301 13.4122 6.54474 13.9178 7.16367 13.9178ZM4.92222 16.1766C4.92222 16.8004 4.42048 17.306 3.80156 17.306C3.18264 17.306 2.6809 16.8004 2.6809 16.1766C2.6809 15.5528 3.18264 15.0472 3.80156 15.0472C4.42048 15.0472 4.92222 15.5528 4.92222 16.1766ZM10.5256 17.306C11.1446 17.306 11.6463 16.8004 11.6463 16.1766C11.6463 15.5528 11.1446 15.0472 10.5256 15.0472C9.90671 15.0472 9.40498 15.5528 9.40498 16.1766C9.40498 16.8004 9.90671 17.306 10.5256 17.306ZM10.5256 10.5293C11.1446 10.5293 11.6463 10.0237 11.6463 9.39993C11.6463 8.77617 11.1446 8.27051 10.5256 8.27051C9.90671 8.27051 9.40498 8.77617 9.40498 9.39993C9.40498 10.0237 9.90671 10.5293 10.5256 10.5293Z" fill="#272A30"/>
</svg>
