<svg width="20" height="20" viewBox="0 0 20 20" fill="none" xmlns="http://www.w3.org/2000/svg">
<path d="M7.24766 2.23078C7.50111 1.49577 8.21268 1 9.01416 1H10.9851C11.7866 1 12.4982 1.49577 12.7516 2.23078L12.9634 2.84509C14.4819 2.89305 15.6811 2.97228 16.5609 3.048C17.6685 3.14332 18.5537 3.92451 18.8234 4.96735L18.948 5.44916C19.1597 6.26762 18.7078 6.99353 17.8387 7.07127C16.5676 7.18498 14.2352 7.29993 10 7.29993C5.76483 7.29993 3.43242 7.18498 2.16126 7.07127C1.29223 6.99353 0.840332 6.26762 1.052 5.44916L1.17661 4.96735C1.44631 3.92451 2.33146 3.14332 3.43908 3.048C4.31879 2.9723 5.5177 2.89307 7.03582 2.84511L7.24766 2.23078Z" fill="#272A30"/>
<path fill-rule="evenodd" clip-rule="evenodd" d="M3.35453 17.2947C3.20234 16.2253 2.91434 13.9034 2.49052 9.26541C3.92489 9.37043 6.24204 9.45997 10 9.45997C13.7573 9.45997 16.0743 9.37047 17.5087 9.26547C17.0849 13.9034 16.7969 16.2253 16.6447 17.2947C16.5696 17.8228 16.2806 18.28 15.7549 18.4409C14.9225 18.6956 13.2483 19 9.99962 19C6.75096 19 5.07669 18.6956 4.24435 18.4409C3.71864 18.28 3.42967 17.8228 3.35453 17.2947ZM6.34688 11.5919C6.30848 11.0722 6.73424 10.6302 7.27318 10.6302C7.76039 10.6302 8.16477 10.9942 8.19948 11.4639L8.53233 15.9685C8.57073 16.4881 8.14497 16.9301 7.60603 16.9301C7.11882 16.9301 6.71444 16.5662 6.67973 16.0964L6.34688 11.5919ZM11.8004 11.4639C11.8351 10.9942 12.2395 10.6302 12.7267 10.6302C13.2656 10.6302 13.6914 11.0722 13.653 11.5919L13.3201 16.0964C13.2854 16.5662 12.881 16.9301 12.3938 16.9301C11.8549 16.9301 11.4291 16.4881 11.4675 15.9685L11.8004 11.4639Z" fill="#272A30"/>
</svg>
