<svg width="20" height="20" viewBox="0 0 20 20" fill="none" xmlns="http://www.w3.org/2000/svg">
<path d="M1.02597 18.0701C1.07714 18.5831 1.51943 18.8705 2.03455 18.8913C3.13717 18.9357 5.50947 19 10 19C14.4905 19 16.8628 18.9357 17.9654 18.8913C18.4806 18.8705 18.9229 18.5831 18.974 18.0701C18.9899 17.9108 19 17.7222 19 17.5C19 17.2778 18.9899 17.0892 18.974 16.9299C18.9229 16.4169 18.4806 16.1295 17.9654 16.1087C16.8628 16.0643 14.4905 16 10 16C5.50947 16 3.13717 16.0643 2.03455 16.1087C1.51943 16.1295 1.07714 16.4169 1.02597 16.9299C1.01008 17.0892 1 17.2778 1 17.5C1 17.7222 1.01008 17.9108 1.02597 18.0701Z" fill="#272A30"/>
<path d="M4.18681 6.1807C3.54077 5.85291 2.94554 6.27521 3.07959 6.97264C3.15951 7.3884 3.27362 7.90999 3.43659 8.55276C3.70966 9.62985 3.9855 10.3169 4.19391 10.7356C4.38933 11.1282 4.78142 11.3546 5.21911 11.3275C5.68593 11.2987 6.41889 11.1941 7.48817 10.8919C8.12604 10.7117 8.63467 10.5498 9.03462 10.4111C9.70578 10.1784 9.77397 9.45161 9.16695 9.05595C8.82962 8.83608 8.39962 8.56589 7.85416 8.23791C9.3415 5.56632 10.434 3.4516 10.934 2.467C11.1063 2.12768 10.9713 1.71113 10.6303 1.51421L9.9189 1.1035C9.57264 0.903587 9.13743 1.00109 8.93244 1.32855C8.34355 2.26927 7.09472 4.28501 5.54542 6.90512C4.99151 6.59841 4.54453 6.3622 4.18681 6.1807Z" fill="#272A30"/>
<path d="M10.7739 6.35892C10.167 5.96333 10.2351 5.23669 10.9061 5.00407C11.3062 4.8654 11.8149 4.70343 12.4531 4.52318C13.5224 4.22113 14.2553 4.11648 14.7221 4.08763C15.1598 4.06058 15.5519 4.28693 15.7474 4.6795C15.9558 5.09819 16.2317 5.78527 16.5046 6.86236C16.6675 7.5049 16.7816 8.02635 16.8615 8.44204C16.9955 9.13962 16.4002 9.56209 15.754 9.23422C15.3949 9.05202 14.946 8.81472 14.3892 8.50633C12.8192 11.1302 11.534 13.1337 10.9313 14.059C10.7237 14.3779 10.2954 14.4693 9.95434 14.2724L9.24298 13.8617C8.89671 13.6617 8.76355 13.2361 8.94464 12.8948C9.46488 11.9145 10.5861 9.82509 12.0806 7.17331C11.538 6.84696 11.11 6.57797 10.7739 6.35892Z" fill="#272A30"/>
</svg>
