<svg width="20" height="20" viewBox="0 0 20 20" fill="none" xmlns="http://www.w3.org/2000/svg">
<path fill-rule="evenodd" clip-rule="evenodd" d="M2.70711 17.071C2.31658 16.6805 2.31658 16.0473 2.70711 15.6568L4.08771 14.2762C3.25029 13.6544 2.49007 12.8835 1.84406 11.9636L1.32954 11.2309C1.11516 10.9257 1 10.5606 1 10.1862C1 9.80109 1.12184 9.4261 1.3477 9.11602L1.89609 8.36317C4.69303 4.52336 9.49265 3.35372 13.5097 4.85424L15.435 2.92888C15.8256 2.53836 16.4587 2.53836 16.8492 2.92888C17.2398 3.3194 17.2398 3.95257 16.8492 4.34309L16.4894 4.70291C16.4843 4.70785 16.4792 4.71286 16.4741 4.71793L4.10601 17.086C3.71442 17.4615 3.09257 17.4565 2.70711 17.071ZM7.08754 11.2764L10.7437 7.62016C10.5819 7.59078 10.4153 7.57544 10.2451 7.57544H9.75486C8.20761 7.57544 6.95331 8.84348 6.95331 10.4077C6.95331 10.7107 7.00038 11.0026 7.08754 11.2764Z" fill="#272A30"/>
<path d="M8.00018 16.0203C11.689 16.7722 15.7287 15.42 18.1559 11.9636L18.6705 11.2309C18.8848 10.9257 19 10.5606 19 10.1862C19 9.80109 18.8782 9.4261 18.6523 9.11602L18.1039 8.36317C17.7551 7.88427 17.3751 7.44691 16.9694 7.05108L12.9755 11.045C12.7338 12.1075 11.901 12.9417 10.8457 13.1747L8.00018 16.0203Z" fill="#272A30"/>
</svg>
