<svg width="20" height="20" viewBox="0 0 20 20" fill="none" xmlns="http://www.w3.org/2000/svg">
<g clip-path="url(#clip0_320_2667)">
<path d="M10.0006 0.00170898C15.5235 0.00170898 20.0006 4.47886 20.0006 10.0017C20.0006 15.5246 15.5235 20.0017 10.0006 20.0017C4.47776 20.0017 0.000610352 15.5246 0.000610352 10.0017C0.000610352 4.47886 4.47776 0.00170898 10.0006 0.00170898Z" fill="#20406B"/>
<path fill-rule="evenodd" clip-rule="evenodd" d="M11.1111 0.0626698C10.7465 0.0223883 10.376 0.00170898 10.0006 0.00170898C9.84831 0.00170898 9.6968 0.00511371 9.54616 0.0118512C9.23016 0.164856 9.01224 0.488607 9.01224 0.863256V4.06577C8.942 4.80331 8.07527 6.18246 7.11765 6.92707C6.7194 7.23674 6.4403 7.74852 6.52686 8.24551C6.96114 10.7387 6.99372 15.1248 6.12441 19.2227C7.31645 19.7244 8.62615 20.0017 10.0006 20.0017C15.5235 20.0017 20.0006 15.5246 20.0006 10.0017C20.0006 7.40457 19.0105 5.03868 17.3872 3.26087C16.8452 6.73076 15.484 7.88747 14.6697 8.02467C14.615 8.03389 14.5598 8.03389 14.5051 8.02467C13.5264 7.85977 11.7578 6.22217 11.5707 0.86588C11.5589 0.528288 11.3784 0.230709 11.1111 0.0626698Z" fill="#DF5252"/>
</g>
<defs>
<clipPath id="clip0_320_2667">
<rect width="20" height="20" fill="white"/>
</clipPath>
</defs>
</svg>
