<svg xmlns="http://www.w3.org/2000/svg" viewBox="0 0 20 20"><path fill-rule="evenodd" clip-rule="evenodd" d="M10.443 9.92c.438-.19.748-.506.748-.993 0-.748-.773-1.185-1.64-1.185-.85 0-1.635.418-1.635 1.185 0 .494.31.81.741.994-.5.19-.855.57-.855 1.084 0 .785.785 1.242 1.749 1.242.956 0 1.748-.45 1.748-1.242 0-.5-.343-.88-.856-1.084Zm-.892 1.543c-.463 0-.799-.228-.799-.556 0-.344.425-.558.799-.57.373.012.804.226.804.57 0 .328-.341.556-.804.556Zm.709-2.415c0-.297-.292-.52-.71-.52s-.703.223-.703.52c0 .336.36.526.703.55.342-.024.71-.227.71-.55Z" fill="#272A30"/><path d="m5.406 9.346-.374-.66 1.305-.874h.747v4.353h-.937V8.883l-.741.463Zm8.434-.418v.753h.752a.377.377 0 1 1 0 .754h-.751v.755a.399.399 0 0 1-.798 0v-.755h-.758a.377.377 0 0 1 0-.754h.758v-.753a.399.399 0 1 1 .798 0Z" fill="#272A30"/><path fill-rule="evenodd" clip-rule="evenodd" d="M19 10a9 9 0 1 1-18 0 9 9 0 0 1 18 0Zm-2 0a7 7 0 1 1-14 0 7 7 0 0 1 14 0Z" fill="#272A30"/></svg>