<svg width="20" height="20" viewBox="0 0 20 20" fill="none" xmlns="http://www.w3.org/2000/svg">
<mask id="mask0_219_122132" style="mask-type:alpha" maskUnits="userSpaceOnUse" x="0" y="0" width="20" height="20">
<path d="M10 0C15.5228 0 20 4.47716 20 10C20 15.5228 15.5228 20 10 20C4.47715 20 0 15.5228 0 10C0 4.47716 4.47715 0 10 0Z" fill="white"/>
</mask>
<g mask="url(#mask0_219_122132)">
<path fill-rule="evenodd" clip-rule="evenodd" d="M-0.869568 -0.869565H20.8696V20.8696H-0.869568V-0.869565Z" fill="white"/>
</g>
<mask id="mask1_219_122132" style="mask-type:alpha" maskUnits="userSpaceOnUse" x="4" y="0" width="12" height="20">
<path d="M11.8308 0.167165L11.8148 0.165217L11.7538 0.152894L11.9306 0.185908L12.0852 0.218261L12.1183 0.225217L12.3312 0.273175L12.4548 0.304348L12.5256 0.321669L12.5904 0.34L12.602 0.341821L12.7574 0.385217L12.7185 0.373935L12.8157 0.402609L13.0263 0.46609L13.1857 0.518134L13.344 0.572841L13.4946 0.627578L13.5757 0.65913L13.4125 0.59743L13.6322 0.68087L13.644 0.684707L13.7947 0.745116L14.0328 0.84643L14.301 0.969601C14.317 0.97724 14.333 0.984919 14.3489 0.99264L15.2176 10L14.3489 19.0074C14.2646 19.0481 14.1797 19.0878 14.0941 19.1262L14.0936 19.1267C13.9977 19.1695 13.9005 19.2114 13.8025 19.2517L13.9392 19.1946L13.7985 19.2537L13.7357 19.2791L13.6739 19.3043L13.7331 19.28L13.6724 19.3041C13.6289 19.3213 13.5852 19.3382 13.5414 19.3548L13.5419 19.355C13.4106 19.4043 13.2785 19.4512 13.1452 19.4954L13.2516 19.4599C13.1712 19.4876 13.0903 19.5142 13.009 19.5399L13.027 19.5339L13 19.5426L12.9287 19.5643L12.8617 19.5851C12.8125 19.5997 12.7631 19.6141 12.7135 19.628L12.7132 19.6275L12.4623 19.6946L12.3145 19.7308L12.1922 19.7591L12.3157 19.7313L12.1949 19.759L12.0383 19.793L12.1658 19.7648L12.0096 19.798L11.8529 19.8294L11.6579 19.8633L11.5 19.8887L11.6711 19.8617L11.5042 19.8883L11.4618 19.8939C11.3648 19.9081 11.2674 19.9209 11.1695 19.9323L11.1694 19.9331C10.9342 19.9598 10.6964 19.979 10.4564 19.9898L10.4565 19.9906C10.3051 19.9966 10.1529 20 10 20L9.8177 19.9993C9.71421 19.9976 9.61084 19.9942 9.50761 19.9892L9.57914 19.9922L9.47934 19.9867L9.47978 19.9878C9.22248 19.9735 8.96818 19.9506 8.71679 19.9184C8.61741 19.9057 8.51849 19.8915 8.42004 19.8759L8.4202 19.8766L8.2061 19.84L8.19159 19.837L8.20001 19.8391L8.2061 19.84L8.22361 19.8432L8.20001 19.8391L8.19159 19.837L8.05814 19.812L7.9687 19.7939L7.96489 19.7928L7.89324 19.7779L7.87566 19.7748L7.88088 19.7757L7.66879 19.7268L7.54262 19.6957L7.31305 19.6348L7.23602 19.6129L7.28155 19.6261L7.12713 19.5812L7.09479 19.5713L7.06986 19.5636L7.00088 19.5426L6.90454 19.5113L6.90422 19.5116C6.68912 19.4411 6.47593 19.3636 6.26537 19.2786L6.26526 19.2793L5.96783 19.153L5.65281 19.0072L5.65107 19.0074L4.78241 10L5.65107 0.99264L5.70195 0.968057L5.93305 0.861739L5.96697 0.846956L6.07571 0.799386L6.17044 0.76L6.1774 0.757391L6.3305 0.694843L6.33064 0.694667C6.52707 0.617321 6.72667 0.54583 6.92908 0.480601L6.9087 0.486957L7.05865 0.439584C7.11322 0.422815 7.16798 0.406501 7.22295 0.390645L7.25827 0.381739L7.50436 0.314783L7.59218 0.293043L7.65479 0.277391L7.83305 0.236522L7.91573 0.217734L7.89392 0.222609L8.03916 0.192171C8.08905 0.182252 8.13908 0.172704 8.18924 0.16353L8.18868 0.16381L8.36618 0.132835L8.45305 0.11913L8.47073 0.116343L8.47914 0.115652L8.50436 0.111304L8.48436 0.114783L8.47914 0.115652H8.47653L8.45305 0.11913L8.29825 0.144382L8.47653 0.115652L8.48436 0.114783L8.51653 0.109565L8.59044 0.0991304L8.71479 0.0826087L8.64417 0.0912582L8.79742 0.0716693L8.83566 0.0678261L8.95137 0.0544029L8.90084 0.0597194C9.02097 0.0465855 9.14173 0.0355793 9.2631 0.0267392L9.18957 0.033913L9.33218 0.0226087L9.34789 0.020957L9.34436 0.0217391L9.33218 0.0226087L9.2631 0.0267392L9.34436 0.0217391L9.43562 0.0156589L9.60888 0.00752204L9.66643 0.00545886L10 0L10.3019 0.00409863C10.3419 0.00524971 10.3819 0.00664211 10.4219 0.00827536L10.3022 0.0044782C10.3994 0.00736465 10.4964 0.0116399 10.5929 0.0172847L10.7752 0.0295984L10.9562 0.044509C11.0783 0.0567092 11.1994 0.0704482 11.3199 0.0863313C11.4221 0.0998109 11.5239 0.114835 11.6251 0.131379L11.6251 0.130942L11.8148 0.165217L12.0351 0.207231C11.9673 0.193204 11.8992 0.179864 11.8308 0.167165Z" fill="white"/>
</mask>
<g mask="url(#mask1_219_122132)">
<path fill-rule="evenodd" clip-rule="evenodd" d="M3.91284 -0.871954H16.0872V20.872H3.91284V-0.871954Z" fill="#FFDA44"/>
</g>
<mask id="mask2_219_122132" style="mask-type:alpha" maskUnits="userSpaceOnUse" x="14" y="0" width="6" height="20">
<path d="M14.3489 0.992644C14.3605 0.998259 14.3721 1.0039 14.3837 1.00955L14.6441 1.14186L14.9591 1.31431L15.2496 1.48783L15.2844 1.5087L15.3872 1.57315C15.5736 1.69312 15.756 1.81869 15.9339 1.95002L15.9341 1.949C16.6357 2.4682 17.2673 3.07595 17.8118 3.75641L17.8125 3.75585C17.9035 3.87098 17.9928 3.98762 18.0794 4.10624C18.1009 4.13497 18.1219 4.16415 18.1428 4.19346L18.1104 4.15044L18.1684 4.22989C18.1977 4.27134 18.2267 4.31302 18.2554 4.35493L18.2551 4.35435L18.316 4.44438L18.4704 4.68321C19.3963 6.15868 19.9196 7.84811 19.9914 9.58324L19.9956 9.70045L20 10.0008C20 11.7531 19.5403 13.472 18.6688 14.9875L18.6359 15.0452L18.4704 15.3176L18.3553 15.4969L18.2496 15.653L18.1695 15.7685L18.1698 15.7691C17.4009 16.8551 16.4209 17.7816 15.2894 18.4882L15.1506 18.5733L15.0365 18.6409L15.1513 18.5739L15.038 18.6407C14.9973 18.6644 14.9565 18.6878 14.9155 18.7109L15.0103 18.6562L14.8352 18.7554L14.6581 18.8513C14.5559 18.905 14.4529 18.9571 14.3489 19.0074V0.992644Z" fill="white"/>
</mask>
<g mask="url(#mask2_219_122132)">
<path fill-rule="evenodd" clip-rule="evenodd" d="M13.4784 0.123237H20.8704V19.8776H13.4784V0.123237Z" fill="#D80027"/>
</g>
<mask id="mask3_219_122132" style="mask-type:alpha" maskUnits="userSpaceOnUse" x="0" y="0" width="6" height="20">
<path d="M2.19739 3.74521L2.23122 3.7028L2.27358 3.65112C2.33876 3.57189 2.40514 3.49368 2.47268 3.41652L2.47237 3.41642C2.61827 3.25019 2.76929 3.08872 2.92545 2.93241L2.80147 3.05808L2.89589 2.96148L2.99185 2.86656L3.18387 2.68281L3.29253 2.58303L3.39391 2.49303L3.2913 2.58347L3.39329 2.4926C3.42752 2.46248 3.46195 2.43259 3.49658 2.40294L3.40266 2.48483C3.4891 2.40888 3.57687 2.3344 3.66592 2.26143L3.6661 2.26103L3.7192 2.21807L3.96552 2.02532L4.10686 1.92029L4.24991 1.81749C4.69277 1.5066 5.16169 1.23069 5.6528 0.993599V19.0072C5.4488 18.9087 5.24863 18.8035 5.0526 18.6919L4.77391 18.5278L4.68504 18.4722C4.64779 18.4487 4.6107 18.4251 4.57378 18.4012L4.57396 18.4013L4.41563 18.2967L4.38609 18.2774L4.30692 18.2226C4.26365 18.1927 4.22064 18.1624 4.17787 18.1317L4.25956 18.1893L4.1404 18.1043L4.0513 18.04L4.13913 18.1043L4.05129 18.0396L4.02255 18.0176C3.95135 17.9644 3.88089 17.9104 3.81117 17.8554L3.81115 17.8561C3.7079 17.7739 3.60627 17.6904 3.50634 17.605L3.60399 17.6883L3.50072 17.6012L3.39913 17.5139L3.50174 17.6017L3.40074 17.5135C3.36576 17.4827 3.331 17.4517 3.29645 17.4205L3.29597 17.4211C3.19323 17.3272 3.09197 17.2318 2.99273 17.1343C2.92817 17.0709 2.86446 17.0066 2.80163 16.9414L2.80118 16.942C2.64583 16.7799 2.49541 16.6131 2.35067 16.4414L2.41647 16.5195C2.36191 16.456 2.30812 16.3918 2.25511 16.3269L2.33565 16.4243L2.25402 16.325L2.15878 16.2071L2.07158 16.0951L1.90088 15.8665C1.84392 15.7879 1.78806 15.7083 1.73332 15.6279L1.68924 15.5635L1.5304 15.3176C0.530401 13.7248 0 11.8824 0 10.0016L0.00207953 9.7935L0.00843836 9.5854C0.0800697 7.84991 0.603422 6.15922 1.5296 4.684C1.71601 4.38694 1.91734 4.10081 2.13253 3.82655L2.19739 3.74521Z" fill="white"/>
</mask>
<g mask="url(#mask3_219_122132)">
<path fill-rule="evenodd" clip-rule="evenodd" d="M-0.870361 0.124042H6.52237V19.8768H-0.870361V0.124042Z" fill="#0052B4"/>
</g>
<mask id="mask4_219_122132" style="mask-type:alpha" maskUnits="userSpaceOnUse" x="7" y="7" width="6" height="7">
<path d="M12.6088 10.0008V11.3048C12.6088 11.5312 12.1744 12.3608 11.1016 13.0432C10.6944 13.3024 10.2736 13.3856 10 13.4784V10.0008H12.6088ZM10 7.3912V10.0008H7.392V7.3912H10Z" fill="white"/>
</mask>
<g mask="url(#mask4_219_122132)">
<path fill-rule="evenodd" clip-rule="evenodd" d="M6.52243 6.52163H13.4784V14.3488H6.52243V6.52163Z" fill="#D80027"/>
</g>
<mask id="mask5_219_122132" style="mask-type:alpha" maskUnits="userSpaceOnUse" x="6" y="5" width="8" height="11">
<path d="M10.0008 5.7704C10.1776 5.668 10.3848 5.632 10.5864 5.6672C10.7872 5.7024 10.9696 5.808 11.1008 5.964C11.2058 6.08944 11.2733 6.24099 11.2962 6.40104L11.3048 6.5224H13.4792V10.8696C13.4792 12.4888 12.1928 13.4248 11.1856 13.9096C11.2816 14.0752 11.32 14.268 11.2952 14.4576C11.2704 14.6472 11.184 14.824 11.0488 14.9592C10.9144 15.0944 10.7384 15.1824 10.5488 15.208C10.3592 15.2336 10.1664 15.196 10 15.1008C9.83361 15.196 9.64081 15.2344 9.45121 15.2088C9.26161 15.1832 9.08561 15.096 8.95041 14.96C8.81521 14.824 8.72881 14.6472 8.70481 14.4576C8.68001 14.268 8.71921 14.0752 8.81521 13.9096C7.84921 13.445 6.62826 12.566 6.52819 11.0685L6.52161 10.8696V6.5224H8.69601C8.69601 6.3184 8.76881 6.12 8.90001 5.964C9.03121 5.8072 9.21361 5.7024 9.41521 5.6664C9.61681 5.6312 9.82401 5.668 10.0008 5.7704ZM12.1744 7.8264H7.82641L7.82652 10.9053C7.82884 11.1632 7.87753 11.8189 8.90001 12.4688C9.24561 12.684 9.61441 12.8584 10 12.988C10.3864 12.8584 10.756 12.6848 11.1016 12.4696C12.1233 11.8189 12.172 11.1625 12.1743 10.9051L12.1744 7.8264Z" fill="white"/>
</mask>
<g mask="url(#mask5_219_122132)">
<path fill-rule="evenodd" clip-rule="evenodd" d="M5.65204 4.76163H14.3488V16.104H5.65204V4.76163Z" fill="#FF9811"/>
</g>
</svg>
