<svg width="20" height="20" viewBox="0 0 20 20" fill="none" xmlns="http://www.w3.org/2000/svg">
<path d="M19.3781 13.4781C19.78 12.395 20 11.2231 20 10C20 8.77688 19.78 7.605 19.3781 6.52188L10 5.65188L0.621875 6.52188C0.22 7.605 0 8.77688 0 10C0 11.2231 0.22 12.395 0.621875 13.4781L10 14.3481L19.3781 13.4781Z" fill="#F0F0F0"/>
<path fill-rule="evenodd" clip-rule="evenodd" d="M0.621887 6.52188C2.03501 2.71375 5.70064 0 10 0C14.2994 0 17.965 2.71375 19.3781 6.52188H0.621887ZM19.3781 13.4781C17.965 17.2862 14.2994 20 10 20C5.70064 20 2.03501 17.2862 0.621887 13.4781H19.3781Z" fill="#EC0017"/>
</svg>
