<svg width="20" height="20" viewBox="0 0 20 20" fill="none" xmlns="http://www.w3.org/2000/svg">
<circle cx="10" cy="10" r="10" fill="#0054BB"/>
<mask id="mask0_129_17017" style="mask-type:luminance" maskUnits="userSpaceOnUse" x="0" y="0" width="20" height="20">
<circle cx="10" cy="10" r="10" fill="white"/>
</mask>
<g mask="url(#mask0_129_17017)">
<path d="M20 10C20 9.0975 19.8836 8.22312 19.6661 7.39125L9.43874 -0.131592C7.5988 0.0311119 5.81157 0.0857567 4.34812 1.24726L0.084368 7.39125C-0.138343 8.24178 0.0118345 9.11899 0.012493 10C0.012493 10.8975 -0.202658 11.7669 0.012493 12.5937L4.4006 18.4614C5.86383 19.6234 7.61992 19.7993 9.45999 19.9619L19.6661 12.6087C19.8836 11.7775 20 10.9025 20 10Z" fill="#FFD800"/>
<path d="M9.45999 19.9619C9.73757 19.9869 10.0188 20 10.303 20C14.7836 20 18.5533 16.8662 19.6661 12.6087H9.45999L9.45999 19.9619Z" fill="#0054BB"/>
<path d="M4.40002 18.7337V12.6087H0.140015C0.824623 15.0452 2.32143 17.1972 4.40002 18.7337Z" fill="#0054BB"/>
<path d="M0.140594 7.39125H4.40059V1.26625C2.32168 2.80246 0.824794 4.95467 0.140594 7.39125Z" fill="#0054BB"/>
<path d="M19.6661 7.39125C18.5533 3.13375 14.7836 0 10.303 0C10.0188 0 9.73757 0.013125 9.45999 0.038125V7.39125H19.6661Z" fill="#0054BB"/>
<path d="M8.19516 8.69563V0C7.2988 0.205 6.4491 0.5375 5.66546 0.978125V8.69563H0.0843844C-0.0251171 9.56154 -0.0251171 10.4385 0.0843844 11.3044H5.66486V18.9335C6.45932 19.3804 7.31094 19.7095 8.19456 19.911V11.3044H19.9176C20.0272 10.4385 20.0274 9.56157 19.9182 8.69563H8.19516Z" fill="#EC0017"/>
</g>
</svg>
