<svg width="20" height="20" viewBox="0 0 20 20" fill="none" xmlns="http://www.w3.org/2000/svg">
<path d="M13.4781 0.621875C12.395 0.22 11.2231 0 10 0C8.77689 0 7.60501 0.22 6.52189 0.621875L5.65189 10L6.52126 19.3781C7.60501 19.78 8.77689 20 10 20C11.2231 20 12.395 19.78 13.4781 19.3781L14.3481 10L13.4781 0.621875Z" fill="#FFD800"/>
<path d="M20 10C20 5.70062 17.2862 2.035 13.4781 0.621872V19.3781C17.2862 17.965 20 14.2994 20 10Z" fill="#EC0017"/>
<path d="M0 10C0 14.2994 2.71375 17.965 6.52188 19.3781V0.621872C2.71375 2.035 0 5.70062 0 10Z" fill="black"/>
</svg>
