<svg width="20" height="20" viewBox="0 0 20 20" fill="none" xmlns="http://www.w3.org/2000/svg">
<circle cx="9.99998" cy="10" r="9.99998" fill="#F0F0F0"/>
<path d="M6.08687 12.6087V19.2056C7.32436 19.7315 8.65541 20.0017 9.99999 20C14.2994 20 17.965 17.2862 19.3781 13.4781L6.08687 12.6087Z" fill="#5AA731"/>
<path fill-rule="evenodd" clip-rule="evenodd" d="M4.90938 1.39189L5.2175 1.94126L4.13063 3.91314L3.36313 2.52064C3.84126 2.0958 4.35905 1.71782 4.90938 1.39189ZM3.04375 7.30376L4.13063 9.27563L5.2175 7.30376L4.13063 5.36251L3.04375 7.30376ZM1.95626 14.6375L0.869383 12.6662L1.95626 10.725L3.04313 12.6662L1.95626 14.6375ZM3.04375 12.6662L4.13063 14.6375L5.2175 12.6662L4.13063 10.725L3.04375 12.6662ZM3.355 17.4719L4.13063 16.0869L5.2175 18.0281L4.90063 18.6031C4.35058 18.2761 3.83302 17.8973 3.355 17.4719ZM1.95626 9.27563L0.869383 7.30376L1.95626 5.36251L3.04313 7.30376L1.95626 9.27563Z" fill="#B20013"/>
<path d="M19.3781 13.4781C19.78 12.395 20 11.2231 20 9.99999C20 4.4775 15.5225 8.89955e-06 9.99999 8.89955e-06C8.65534 -0.00178834 7.32423 0.268642 6.08687 0.795008V13.4781H19.3781Z" fill="#B20013"/>
</svg>
