<svg width="20" height="20" viewBox="0 0 20 20" fill="none" xmlns="http://www.w3.org/2000/svg">
<circle cx="10" cy="10" r="10" fill="#F0F0F0"/>
<path d="M15.6519 8.69562H14.3481C14.3481 11.0969 12.4012 13.0431 9.99999 13.0431C7.59874 13.0431 5.65186 11.0969 5.65186 8.69562H4.34811C4.34803 11.2231 6.02554 13.4437 8.45686 14.1344C8.18824 14.644 8.24765 15.2644 8.60811 15.7137L10.0294 14.575L11.4506 15.7137C11.8256 15.245 11.8625 14.6156 11.5937 14.1194C13.9995 13.4114 15.6516 11.2034 15.6519 8.69562Z" fill="#5AA731"/>
<path d="M6.52188 8.26064C6.52188 8.26064 6.52188 10.4344 8.69626 10.4344L9.13126 10.8688H10C10 10.8688 10.4344 9.56501 11.3044 9.56501C11.3044 9.56501 11.3044 8.69564 12.1744 8.69564H13.4788C13.4788 8.69564 13.0438 6.95626 15.2175 5.65189L14.3481 5.21689C14.3481 5.21689 11.3044 7.39126 9.13063 6.95626V7.82626H8.26063L7.82626 7.39126L6.52188 8.26064Z" fill="#FFD800"/>
</svg>
