<svg width="20" height="20" viewBox="0 0 20 20" fill="none" xmlns="http://www.w3.org/2000/svg">
<path d="M5.40395e-06 9.99999C5.40395e-06 11.2231 0.220005 12.395 0.62188 13.4781L10 14.3481L19.3781 13.4781C19.78 12.395 20 11.2231 20 9.99999C20 8.77687 19.78 7.60499 19.3781 6.52187L10 5.65187L0.62188 6.52187C0.209362 7.63503 -0.00122999 8.81286 5.40395e-06 9.99999Z" fill="#FFD800"/>
<path fill-rule="evenodd" clip-rule="evenodd" d="M9.99999 0C14.2994 0 17.965 2.71375 19.3781 6.52187H0.621872C2.035 2.71375 5.70062 0 9.99999 0ZM9.99997 20C5.7006 20 2.03498 17.2863 0.621855 13.4781H19.3781C17.965 17.2863 14.2993 20 9.99997 20Z" fill="#EC0017"/>
</svg>
