<svg width="20" height="20" viewBox="0 0 20 20" fill="none" xmlns="http://www.w3.org/2000/svg">
<circle cx="10" cy="10" r="10" fill="#F0F0F0"/>
<mask id="mask0_136_144" style="mask-type:luminance" maskUnits="userSpaceOnUse" x="0" y="0" width="20" height="20">
<circle cx="10" cy="10" r="10" fill="white"/>
</mask>
<g mask="url(#mask0_136_144)">
<path d="M19.5788 10L19.9182 8.69562C19.8625 8.25555 19.7785 7.8198 19.6667 7.39125H9.46062V-0.00268555C9.03031 0.0354395 8.58963 0.0444413 8.17751 0.138816C7.76539 0.233191 6.50849 1.30437 6.50849 1.30437L5.66546 0.80155C5.22183 1.05155 4.7988 1.3353 4.40062 1.65155V7.39125H0.293381C0.181286 7.81977 0.0970579 8.25553 0.0412598 8.69562L0.38126 10L0.0418658 11.3044C0.0982295 11.7494 0.182472 12.1844 0.293987 12.6087H4.40062V18.2784C4.7988 18.5946 5.22183 18.773 5.66546 19.0217L6.93031 18.6956L8.19516 19.8562C8.60789 19.9499 9.02971 19.9619 9.46001 20V12.6087H19.6667C19.7776 12.1844 19.8618 11.7494 19.9182 11.3044L19.5788 10Z" fill="#0054BB"/>
<path d="M8.19516 8.6956L8.11471 0.0661011C7.21834 0.271101 6.36865 0.603601 5.58501 1.04423L5.66546 8.6956H0.0218844C-0.0876171 9.56151 -0.0876171 10.4384 0.0218844 11.3043H5.66486V19.1211C6.45932 19.568 7.31094 19.8971 8.19456 20.0986V11.3043H19.9176C20.0272 10.4385 20.0274 9.56155 19.9182 8.6956H8.19516Z" fill="#EC0017"/>
</g>
</svg>
