<svg width="20" height="20" viewBox="0 0 20 20" fill="none" xmlns="http://www.w3.org/2000/svg">
<circle cx="10" cy="10" r="10" fill="#F9F9F9"/>
<path fill-rule="evenodd" clip-rule="evenodd" d="M13.9131 6.95627V8.26064H14.7831V11.7394H5.21751V8.26064H6.08689V6.95627H5.65189V6.08689H6.52001V6.52127H7.39001V6.08689H8.25939V6.95627H7.82501V8.26127H8.69439V5.21814H8.25939V4.34814H9.12939V4.78314H9.56376V4.34814H10.4331V4.78314H10.8675V4.34814H11.7381V5.21752H11.3031V8.26064H12.1731V6.95627H11.7388V6.08689H12.6081V6.52127H13.4781V6.08689H14.3481V6.95627H13.9131ZM19.3781 13.4781C17.965 17.2863 14.2994 20 10 20C5.70064 20 2.03501 17.2863 0.621887 13.4781H19.3781Z" fill="#EC0017"/>
<path fill-rule="evenodd" clip-rule="evenodd" d="M8.69562 12.6088C8.69562 11.8888 9.28 11.3044 10 11.3044C10.72 11.3044 11.3044 11.8881 11.3044 12.6081C11.3044 13.1756 10.9412 13.6594 10.4344 13.8381V17.3913H8.26062V15.6519H9.565V13.8388C9.05875 13.66 8.69562 13.1763 8.69562 12.6088ZM9.565 12.6088C9.565 12.8488 9.76 13.0431 10 13.0431C10.24 13.0431 10.4344 12.8488 10.4344 12.6088C10.4344 12.3688 10.24 12.1744 10 12.1744C9.76 12.1744 9.565 12.3688 9.565 12.6088Z" fill="#FFD800"/>
</svg>
