<svg width="20" height="20" viewBox="0 0 20 20" fill="none" xmlns="http://www.w3.org/2000/svg">
<path d="M20 9.99998C20 8.77685 19.78 7.60498 19.3781 6.52185L10 6.08685L0.621875 6.52185C0.22 7.60498 0 8.77685 0 9.99998C0 11.2231 0.22 12.395 0.621875 13.4781L10 13.9131L19.3781 13.4787C19.78 12.395 20 11.2231 20 9.99998Z" fill="#F0F0F0"/>
<path d="M10 20C14.2994 20 17.965 17.2863 19.3781 13.4781H0.621887C2.03501 17.2863 5.70064 20 10 20Z" fill="#0054BB"/>
<path d="M0.621887 6.52188H19.3781C17.965 2.71375 14.2994 0 10 0C5.70064 0 2.03501 2.71375 0.621887 6.52188Z" fill="#EC0017"/>
<path fill-rule="evenodd" clip-rule="evenodd" d="M10.8694 6.95623H12.6088L13.4781 6.52123V4.78248L12.3188 3.91248L11.16 4.78248L10.8694 6.95623ZM9.13063 6.95623H7.39126L6.52188 6.52185V4.7831L7.68126 3.9131L8.84063 4.78248L9.13063 6.95623Z" fill="#008CFB"/>
<path d="M11.1594 6.95627H8.84064V4.78252L10 3.91315L11.1594 4.78315V6.95627Z" fill="#0054BB"/>
<path d="M6.52188 6.52185V11.3044C6.52197 12.4019 7.04055 13.4348 7.92063 14.0906L8.52938 13.9387L9.29751 14.7112C9.76009 14.8069 10.2373 14.8071 10.7 14.7119L11.5763 13.9819L12.0806 14.0894C12.96 13.4336 13.4782 12.4013 13.4788 11.3044V6.52185H6.52188V6.52185Z" fill="#F0F0F0"/>
<path fill-rule="evenodd" clip-rule="evenodd" d="M6.52188 6.52185H7.91376V7.9131H7.91313V7.91373H6.52188V6.52185ZM7.91313 9.30372V7.91373H7.91376V7.9131H9.30438V6.52185H10.6963V7.9131H10.6956V7.91373H9.30438V9.30372H10.6956V9.30435H10.6963V10.695H12.0869V12.0862H10.6956V10.695H9.30438V9.30435H7.91376V9.30372H7.91313ZM7.91313 9.30372V9.30435H7.91376V10.695H9.30438V12.0862H7.91313V10.695H6.52188V9.30372H7.91313ZM12.0869 10.695V9.30435H10.6963V9.30372H10.6956V7.91373H10.6963V7.9131H12.0869V6.52185H13.4788V7.91373H12.0869V9.30372H13.4788V10.695H12.0869ZM10.6963 12.0862H9.30438V13.4775H7.91313V14.085C8.32437 14.3951 8.79969 14.6095 9.30438 14.7125V13.4781H10.6956V14.7125C11.2003 14.6094 11.6756 14.395 12.0869 14.085V13.4775H12.7125C13.0402 13.0708 13.2714 12.5951 13.3888 12.0862H12.0869V13.4775H10.6963V12.0862ZM10.6963 13.4775V13.4781H10.6956V13.4775H10.6963ZM7.91251 12.0869H6.61126C6.72881 12.5956 6.95976 13.0712 7.28688 13.4781H7.91251V12.0869Z" fill="#EC0017"/>
</svg>
