<svg width="20" height="20" viewBox="0 0 20 20" fill="none" xmlns="http://www.w3.org/2000/svg">
<path d="M10 20C11.2231 20 12.395 19.78 13.4781 19.3781L13.9131 10L13.4781 0.621875C12.395 0.22 11.2231 0 10 0C8.77688 0 7.60501 0.22 6.52188 0.621875L6.08688 10L6.52126 19.3781C7.60501 19.78 8.77688 20 10 20Z" fill="#F0F0F0"/>
<path d="M13.4781 0.621887V19.3781C17.2862 17.965 20 14.2994 20 10C20 5.70064 17.2862 2.03501 13.4781 0.621887Z" fill="#FF9100"/>
<path d="M0 10C0 14.2994 2.71375 17.965 6.52188 19.3781V0.621887C2.71375 2.03501 0 5.70064 0 10Z" fill="#5AA731"/>
</svg>
