<svg width="20" height="20" viewBox="0 0 20 20" fill="none" xmlns="http://www.w3.org/2000/svg">
<circle cx="10" cy="10" r="10" fill="#FFD800"/>
<path d="M20 10C20 6.56813 18.2706 3.54 15.6362 1.73938H4.36375C1.72937 3.54 0 6.56813 0 10C0 13.4319 1.72937 16.46 4.36375 18.2606H15.6362C18.2706 16.46 20 13.4319 20 10Z" fill="#B20013"/>
<path fill-rule="evenodd" clip-rule="evenodd" d="M12.1744 7.39122H7.82626V5.65185L8.69563 6.08685L10 4.78247L11.3044 6.08685L12.1744 5.65185V7.39122ZM11.74 9.99997H13.9131C13.9131 10.665 13.3338 11.2037 12.6688 11.2037H12.7094C12.7097 11.7364 12.3599 12.206 11.8494 12.3581L12.8263 13.335L11.9038 14.2581L10.5956 12.9493C10.5444 12.9675 10.4913 12.9831 10.4363 12.9931L11.2269 14.7775C10.8481 14.9318 10.4344 15.0175 10 15.0175C9.57936 15.0178 9.16266 14.9363 8.77313 14.7775L9.56376 12.9931C9.50876 12.9837 9.45563 12.9675 9.40438 12.9493L8.09626 14.2581L7.17376 13.335L8.15063 12.3581C7.65376 12.21 7.29063 11.7493 7.29063 11.2037H7.33063C6.66563 11.2037 6.08688 10.665 6.08688 9.99997H8.23313C8.14813 9.85247 8.09876 9.68185 8.09876 9.49935C8.10063 9.04021 8.41362 8.64079 8.859 8.52919C9.30437 8.41759 9.76872 8.62222 9.98688 9.02622C10.2641 8.55969 10.862 8.39817 11.3364 8.66166C11.8108 8.92515 11.9896 9.51812 11.74 9.99997Z" fill="#FFD800"/>
<path d="M10 10.6519L8.58688 11.3044V12.6087L10 13.4781L11.4131 12.6081V11.3037L10 10.6519Z" fill="#5AA731"/>
<path d="M8.58688 10H11.4125V11.7394H8.58688V10Z" fill="#0054BB"/>
</svg>
