<svg width="20" height="20" viewBox="0 0 20 20" fill="none" xmlns="http://www.w3.org/2000/svg">
<circle cx="10" cy="10" r="10" fill="#FFD800"/>
<path fill-rule="evenodd" clip-rule="evenodd" d="M4.08624 1.93624C5.38163 0.982545 6.88917 0.357567 8.47937 0.11499L9.99999 9.99999L4.08624 1.93624ZM9.99999 9.99999L15.9137 1.93624C14.6183 0.983031 13.1111 0.358099 11.5212 0.11499L9.99999 9.99999ZM9.99999 9.99999L18.0637 4.08624C19.0172 5.38178 19.6421 6.88925 19.885 8.47937L9.99999 9.99999ZM9.99999 9.99999L19.885 11.5212C19.6419 13.1111 19.017 14.6183 18.0637 15.9137L9.99999 9.99999ZM9.99999 9.99999L15.9137 18.0637C14.6184 19.0171 13.1111 19.642 11.5212 19.885L9.99999 9.99999ZM9.99999 9.99999L8.47874 19.885C6.88885 19.642 5.38161 19.0171 4.08624 18.0637L9.99999 9.99999ZM9.99999 9.99999L1.93624 15.9137C0.982682 14.6185 0.357712 13.1112 0.11499 11.5212L9.99999 9.99999ZM9.99999 9.99999L0.11499 8.47937C0.357857 6.88925 0.982807 5.38178 1.93624 4.08624L9.99999 9.99999Z" fill="#EC0017"/>
<circle cx="10" cy="9.99998" r="3.47813" fill="#EC0017"/>
<circle cx="9.99998" cy="9.99998" r="2.60875" fill="#FFD800"/>
</svg>
