<svg width="20" height="20" viewBox="0 0 20 20" fill="none" xmlns="http://www.w3.org/2000/svg">
<path d="M0 9.99995C0 14.2993 2.71375 17.965 6.52187 19.3781L7.39125 9.99995L6.52187 0.621826C2.71375 2.03495 0 5.70058 0 9.99995Z" fill="#5AA731"/>
<path d="M20 10C20 4.4775 15.5225 0 10 0C8.77688 0 7.60501 0.22 6.52188 0.621875V19.3781C7.60501 19.78 8.77688 20 10 20C15.5225 20 20 15.5225 20 10Z" fill="#EC0017"/>
<circle cx="6.52189" cy="9.99998" r="3.47813" fill="#FFD800"/>
<path d="M4.565 8.26062V10.4344C4.58407 11.5013 5.45445 12.3563 6.52156 12.3563C7.58868 12.3563 8.45906 11.5013 8.47813 10.4344V8.26062H4.565Z" fill="#EC0017"/>
<path d="M6.52187 11.0868C6.16189 11.0861 5.87034 10.7943 5.87 10.4343V9.56494H7.17437V10.4343C7.17368 10.7944 6.88195 11.0861 6.52187 11.0868Z" fill="#F0F0F0"/>
</svg>
