<svg width="20" height="20" viewBox="0 0 20 20" fill="none" xmlns="http://www.w3.org/2000/svg">
<path d="M10 5.40395e-06C8.77688 5.40395e-06 7.60501 0.220005 6.52188 0.62188L6.08688 10L6.52126 19.3781C7.60501 19.78 8.77688 20 10 20C11.2231 20 12.395 19.78 13.4781 19.3781L13.9131 10L13.4781 0.62188C12.365 0.209362 11.1871 -0.00122999 10 5.40395e-06Z" fill="#FFD800"/>
<path d="M20 9.99995C20 5.70058 17.2862 2.03495 13.4781 0.621826V19.3781C17.2862 17.9649 20 14.2993 20 9.99995Z" fill="#EC0017"/>
<path d="M6.52188 19.3781V0.621826C2.71375 2.03495 0 5.70058 0 9.99995C0 14.2993 2.71375 17.9649 6.52188 19.3781Z" fill="#0054BB"/>
</svg>
