<svg width="20" height="20" viewBox="0 0 20 20" fill="none" xmlns="http://www.w3.org/2000/svg">
<circle cx="10" cy="10" r="10" fill="#F0F0F0"/>
<path d="M10 0C4.4775 0 0 4.4775 0 10C0 11.2231 0.22 12.395 0.621875 13.4781H19.3781C19.78 12.395 20 11.2231 20 10C20 4.4775 15.5225 0 10 0Z" fill="#0054BB"/>
<path fill-rule="evenodd" clip-rule="evenodd" d="M0.621887 6.52188C2.03501 2.71375 5.70064 0 10 0C14.2994 0 17.965 2.71375 19.3781 6.52188H10V5.65187H2.58564V6.52188H0.621887ZM2.58564 6.52188V10.6406C2.58564 13.4781 6.29314 14.3481 6.29314 14.3481C6.29314 14.3481 10 13.4781 10 10.6406V6.52188H2.58564Z" fill="#EC0017"/>
<path fill-rule="evenodd" clip-rule="evenodd" d="M8.46688 6.52185H4.11876V4.78248L4.98813 5.21748L6.29313 3.91248L7.59751 5.21685L8.46688 4.78248V6.52185ZM6.30438 8.50935L9.13063 11.3356L8.20876 12.2581L6.30501 10.3544L4.40126 12.2581L3.47876 11.3356L6.30438 8.50935Z" fill="#FFD800"/>
<path d="M9.13062 8.69558H7.81187C8.01786 8.27952 7.86087 7.77503 7.45518 7.54932C7.04949 7.3236 6.53805 7.45619 6.29312 7.85058C6.14217 7.57917 5.8579 7.4089 5.54738 7.40392C5.23686 7.39894 4.94727 7.55999 4.78769 7.82642C4.62812 8.09285 4.6228 8.42417 4.77374 8.69558H3.47812C3.47812 9.1762 3.89624 9.56495 4.37687 9.56495H4.34812C4.34795 9.79558 4.43949 10.0168 4.60257 10.1799C4.76565 10.343 4.98687 10.4345 5.21749 10.4343C5.21749 10.86 5.52312 11.2131 5.92624 11.2887L5.24124 12.8356C5.56937 12.9693 5.92812 13.0431 6.30437 13.0431C6.68062 13.0431 7.03937 12.9693 7.36812 12.8356L6.68312 11.2887C7.09397 11.2112 7.3916 10.8524 7.39187 10.4343C7.62249 10.4345 7.84372 10.343 8.00679 10.1799C8.16987 10.0168 8.26141 9.79558 8.26124 9.56495H8.23249C8.71187 9.56495 9.13062 9.1762 9.13062 8.69558Z" fill="#F0F0F0"/>
</svg>
