<svg width="20" height="20" viewBox="0 0 20 20" fill="none" xmlns="http://www.w3.org/2000/svg">
<circle cx="10" cy="10" r="10" fill="#F0F0F0"/>
<path d="M19.3781 6.52184H8.69562V3.91309H3.47812V6.52184H0.621875C0.22 7.60496 0 8.77684 0 9.99996C0 11.2231 0.22 12.395 0.621875 13.4781L10 14.3481L19.3781 13.4781C19.78 12.395 20 11.2231 20 9.99996C20 8.77684 19.78 7.60496 19.3781 6.52184Z" fill="#0054BB"/>
<path d="M10 20C14.2994 20 17.965 17.2863 19.3781 13.4781H0.621887C2.03501 17.2863 5.70064 20 10 20Z" fill="#EC0017"/>
<path d="M3.47812 6.52191V7.39191C3.47812 9.38816 6.08687 10 6.08687 10C6.08687 10 8.69562 9.38816 8.69562 7.39129V6.52129L7.82624 7.39129L6.08687 6.08691L4.34749 7.39129L3.47812 6.52191Z" fill="#F0F0F0"/>
</svg>
