<svg width="20" height="20" viewBox="0 0 20 20" fill="none" xmlns="http://www.w3.org/2000/svg">
<circle cx="9.99996" cy="9.99996" r="9.99996" fill="#F0F0F0"/>
<path d="M9.99997 20C15.5225 20 19.9999 15.5225 19.9999 10C19.9999 8.77692 19.7799 7.60505 19.3781 6.52193H0.621878C0.209361 7.63509 -0.00122999 8.81291 5.40394e-06 10C5.40394e-06 15.5225 4.47749 20 9.99997 20Z" fill="#0054BB"/>
<path d="M9.99994 19.9999C14.2993 19.9999 17.9649 17.2862 19.378 13.4781H0.621853C2.03497 17.2862 5.70058 19.9999 9.99994 19.9999Z" fill="#EC0017"/>
<path d="M2.58565 5.65182V10.6406C2.58565 13.478 6.29313 14.348 6.29313 14.348C6.29313 14.348 9.99999 13.478 9.99999 10.6406V5.65182H2.58565Z" fill="#F0F0F0"/>
<path d="M3.45564 5.65182V10.6406C3.45564 10.9737 3.52939 11.288 3.67626 11.583H8.91062C9.05687 11.288 9.13124 10.9737 9.13124 10.6406V5.65182H3.45564Z" fill="#EC0017"/>
<path d="M8.03189 9.13057H6.72752V8.26057H7.59751V7.3912H6.72752V6.5212H5.85814V7.3912H4.98877V8.26057H5.85814V9.13057H4.55377V9.99994H5.85814V10.8693H6.72752V9.99994H8.03189V9.13057Z" fill="#F0F0F0"/>
<path d="M4.86187 12.7974C5.30974 13.0727 5.79064 13.2902 6.29311 13.4449C6.79523 13.2898 7.27587 13.0723 7.72373 12.7974C8.28873 12.4424 8.68498 12.0361 8.90998 11.5836C8.55546 11.3316 8.10959 11.2444 7.68623 11.3442C7.45061 10.8099 6.91561 10.4349 6.29311 10.4349C5.67061 10.4349 5.13562 10.8099 4.89999 11.3442C4.47663 11.2444 4.03076 11.3316 3.67625 11.5836C3.90062 12.0361 4.29687 12.4417 4.86187 12.7974Z" fill="#0054BB"/>
</svg>
