<svg width="20" height="20" viewBox="0 0 20 20" fill="none" xmlns="http://www.w3.org/2000/svg">
<path fill-rule="evenodd" clip-rule="evenodd" d="M10.4434 9.92085C10.8807 9.73091 11.1908 9.41435 11.1908 8.92658C11.1908 8.1791 10.4182 7.74173 9.55053 7.74173C8.70162 7.74173 7.91602 8.16037 7.91602 8.92658C7.91602 9.42081 8.22613 9.73737 8.65704 9.92085C8.15635 10.1114 7.80167 10.4913 7.80167 11.0049C7.80167 11.7905 8.58727 12.2466 9.55053 12.2466C10.5067 12.2466 11.2987 11.797 11.2987 11.0049C11.2987 10.5049 10.9563 10.1244 10.4434 9.92085ZM9.55098 11.4634C9.08841 11.4634 8.75247 11.2354 8.75247 10.9065C8.75247 10.5635 9.17692 10.349 9.55098 10.3361C9.9244 10.349 10.3553 10.5635 10.3553 10.9065C10.3553 11.2354 10.0136 11.4634 9.55098 11.4634ZM10.2597 9.04833C10.2597 8.7505 9.96829 8.52891 9.5503 8.52891C9.1323 8.52891 8.84675 8.7505 8.84675 9.04833C8.84675 9.38363 9.20789 9.57357 9.5503 9.59876C9.89206 9.57357 10.2597 9.37136 10.2597 9.04833Z" fill="#272A30"/>
<path d="M5.40575 9.34591L5.03168 8.6863L6.3367 7.81219H7.08418V12.1646H6.14676V8.88334L5.40575 9.34591Z" fill="#272A30"/>
<path d="M13.8408 8.92781V9.68143H14.5918C14.8 9.68143 14.9688 9.85021 14.9688 10.0584C14.9688 10.2666 14.8 10.4354 14.5918 10.4354H13.8408V11.1896C13.8408 11.41 13.6621 11.5886 13.4418 11.5886C13.2215 11.5886 13.0429 11.41 13.0429 11.1896V10.4354H12.2854C12.0772 10.4354 11.9084 10.2666 11.9084 10.0584C11.9084 9.85021 12.0772 9.68143 12.2854 9.68143H13.0429V8.92781C13.0429 8.70749 13.2215 8.52888 13.4418 8.52888C13.6621 8.52888 13.8408 8.70749 13.8408 8.92781Z" fill="#272A30"/>
<path fill-rule="evenodd" clip-rule="evenodd" d="M19 10C19 14.9706 14.9706 19 10 19C5.02944 19 1 14.9706 1 10C1 5.02944 5.02944 1 10 1C14.9706 1 19 5.02944 19 10ZM17 10C17 13.866 13.866 17 10 17C6.13401 17 3 13.866 3 10C3 6.13401 6.13401 3 10 3C13.866 3 17 6.13401 17 10Z" fill="#272A30"/>
</svg>
