<svg width="20" height="20" viewBox="0 0 20 20" fill="none" xmlns="http://www.w3.org/2000/svg">
<path fill-rule="evenodd" clip-rule="evenodd" d="M11.8539 16.1978L14.5433 15.5249L12.2747 17.0378L11.8539 16.1978ZM5.4027 15.5249L8.09209 16.1978L7.67131 17.0378L5.4027 15.5249ZM18.4588 8.4598C18.4588 3.79493 14.6639 0 9.99902 0C5.33493 0 1.54 3.79493 1.54 8.4598C1.54 10.8584 2.55177 13.0167 4.16241 14.5549V16.119L8.12992 18.7651L9.07944 16.8668L9.13223 16.7604L9.80832 15.4083L5.84003 14.4162C3.95754 13.1018 2.72198 10.9262 2.72198 8.4598C2.72198 4.4466 5.9866 1.18198 9.99902 1.18198C14.0122 1.18198 17.2768 4.4466 17.2768 8.4598C17.2768 10.9096 16.0586 13.0766 14.1974 14.3933L10.1377 15.4083L10.4836 16.1001L10.8705 16.8739L11.8161 18.7651L15.7836 16.119V14.6179C17.4273 13.0742 18.4588 10.8876 18.4588 8.4598ZM9.99933 18.9512C9.70935 18.9512 9.47453 19.186 9.47453 19.4752C9.47453 19.7652 9.70935 20 9.99933 20C10.2893 20 10.5241 19.7652 10.5241 19.4752C10.5241 19.186 10.2893 18.9512 9.99933 18.9512ZM12.989 7.35767C13.5666 7.35767 13.9858 8.09286 13.9858 8.93127C13.9858 9.77048 13.5666 10.5049 12.989 10.5049C12.4122 10.5049 11.9922 9.82327 11.9922 8.93127C11.9922 8.03927 12.4122 7.35767 12.989 7.35767ZM5.9602 8.93127C5.9602 9.82327 6.37941 10.5049 6.957 10.5049C7.53381 10.5049 7.9538 9.77048 7.9538 8.93127C7.9538 8.09286 7.53381 7.35767 6.957 7.35767C6.37941 7.35767 5.9602 8.03927 5.9602 8.93127ZM9.47453 17.9015C9.47453 17.6123 9.70935 17.3767 9.99933 17.3767C10.2893 17.3767 10.5241 17.6123 10.5241 17.9015C10.5241 18.1915 10.2893 18.4263 9.99933 18.4263C9.70935 18.4263 9.47453 18.1915 9.47453 17.9015Z" fill="#272A30"/>
</svg>
