<svg width="20" height="20" viewBox="0 0 20 20" fill="none" xmlns="http://www.w3.org/2000/svg">
<path d="M1.63683 1.52148C1.28046 1.70118 1.23289 2.11553 1.35462 2.49562C1.66664 3.46992 2.43375 5.79563 4.07618 10.459C5.71861 15.1223 6.57825 17.4154 6.94566 18.3702C7.08899 18.7427 7.38572 19.0358 7.77604 18.9525C7.86995 18.9325 7.97586 18.9031 8.09454 18.8613C8.21322 18.8195 8.31416 18.776 8.39989 18.7328C8.75626 18.5531 8.80383 18.1387 8.6821 17.7587C8.37912 16.8126 7.64702 14.5922 6.10104 10.1946C6.85883 9.64497 7.72186 9.36828 8.64627 9.24002C8.49759 8.85923 8.34809 8.47768 8.19859 8.09613C8.04915 7.71471 7.8997 7.33329 7.75106 6.95264C8.85296 6.79686 10.0356 6.85495 11.2182 6.9161C11.0696 6.53412 10.9203 6.1529 10.7709 5.77168L10.7705 5.77069C10.621 5.38914 10.4715 5.00758 10.3228 4.62526C9.13978 4.56715 7.95673 4.50904 6.85449 4.66502C7.15505 5.42647 7.45238 6.18791 7.7497 6.95241C6.85375 7.07684 6.01548 7.34079 5.27484 7.8576C4.96129 6.97613 4.68407 6.2035 4.44 5.52849C5.16605 5.03866 5.98359 4.78551 6.85576 4.6645C6.70708 4.28221 6.5576 3.90068 6.40811 3.51915C6.25865 3.1377 6.10905 2.75587 5.9604 2.37366C5.10722 2.4944 4.3044 2.73975 3.59091 3.20899C3.36991 2.61451 3.20628 2.18347 3.09106 1.88404C2.94773 1.51156 2.651 1.21847 2.26068 1.30176C2.16678 1.3218 2.06086 1.35115 1.94218 1.39295C1.8235 1.43475 1.72257 1.47825 1.63683 1.52148Z" fill="#272A30"/>
<path d="M10.3241 4.62616C11.5072 4.68427 12.6935 4.74238 13.7925 4.58945C13.6438 4.20866 13.4943 3.82711 13.3448 3.44555L13.344 3.44351C13.1947 3.06265 13.0455 2.68178 12.8971 2.30167C11.7965 2.45436 10.6186 2.39666 9.43419 2.33864L9.42876 2.33837C9.72937 3.10301 10.0267 3.86458 10.3241 4.62616Z" fill="#272A30"/>
<path d="M14.6867 6.87804C15.7857 6.72511 16.8039 6.36115 17.6573 5.5751C17.5086 5.19441 17.3592 4.81295 17.2097 4.43149L17.2084 4.42809C17.0593 4.04758 16.9102 3.66707 16.7619 3.28732C15.9086 4.07336 14.8904 4.43733 13.7914 4.59026C14.0887 5.35489 14.3861 6.11646 14.6867 6.87804Z" fill="#272A30"/>
<path d="M12.21 9.20954C13.3583 9.26328 14.5103 9.31719 15.5797 9.16838C15.4313 8.7867 15.282 8.40577 15.1328 8.02485L15.1324 8.02385C14.9829 7.64226 14.8331 7.25989 14.6844 6.87754C13.616 7.02917 12.4682 6.9756 11.3182 6.92191L11.2193 6.9173L11.2198 6.91858C11.517 7.67972 11.8142 8.44088 12.1146 9.20508L12.21 9.20954Z" fill="#272A30"/>
<path d="M13.0087 11.4926C11.8257 11.4345 10.6426 11.3764 9.54037 11.5293L9.35088 11.0438C9.11654 10.4431 8.88177 9.84137 8.645 9.24153C9.74724 9.0886 10.9303 9.14365 12.1133 9.20482L12.3028 9.6904C12.5372 10.291 12.7719 10.8928 13.0087 11.4926Z" fill="#272A30"/>
<path d="M16.4754 11.4513C17.5747 11.2984 18.5933 10.9343 19.4469 10.148C19.2983 9.76593 19.1489 9.38465 18.9995 9.00337L18.9991 9.0024C18.8496 8.62065 18.7 8.2389 18.5512 7.85638C17.6976 8.64574 16.6823 9.00677 15.5797 9.1628L15.7693 9.64858C16.0037 10.2494 16.2385 10.8513 16.4754 11.4513Z" fill="#272A30"/>
<path d="M19.5747 14.796C19.51 13.7583 18.6275 12.965 17.592 13.0074C16.6733 12.9824 15.8617 13.6076 15.6534 14.5054C15.5811 14.8169 15.7751 15.128 16.0866 15.2003C16.3981 15.2726 16.7092 15.0787 16.7815 14.7671C16.8661 14.4026 17.1981 14.1498 17.572 14.1654C17.5907 14.1661 17.6094 14.166 17.628 14.165C18.0339 14.1425 18.3827 14.4468 18.4175 14.8496C18.4113 15.0711 18.2887 15.2736 18.0943 15.3816L17.3259 15.8085C17.0463 15.9638 16.9456 16.3163 17.1009 16.5959C17.2563 16.8754 17.6088 16.9761 17.8883 16.8208L18.6567 16.3939C19.224 16.0788 19.5758 15.4809 19.5758 14.832C19.5758 14.82 19.5754 14.808 19.5747 14.796Z" fill="#272A30"/>
<path d="M17.6064 18.7981C17.9262 18.7985 18.1858 18.5396 18.1862 18.2198C18.1858 17.9 17.9262 17.6396 17.6064 17.64C17.2872 17.6405 17.0286 17.8991 17.0281 18.2183C17.0277 18.5381 17.2866 18.7977 17.6064 18.7981Z" fill="#272A30"/>
</svg>
