<svg width="20" height="20" viewBox="0 0 20 20" fill="none" xmlns="http://www.w3.org/2000/svg">
<path d="M1.35461 2.49562C1.23289 2.11554 1.28045 1.7012 1.63681 1.52151C1.72254 1.47828 1.82347 1.43478 1.94215 1.39299C2.06082 1.35119 2.16673 1.32183 2.26063 1.3018C2.65094 1.21851 2.94767 1.5116 3.09099 1.88407C3.20621 2.18349 3.36983 2.61452 3.59083 3.209C4.30433 2.73975 5.10715 2.49441 5.96033 2.37367C6.10895 2.7558 6.25837 3.13718 6.4078 3.51855C6.5573 3.9001 6.70701 4.28219 6.8557 4.66451C5.98351 4.78552 5.16598 5.03866 4.43992 5.5285C4.68399 6.20352 4.96121 6.97614 5.27476 7.85762C6.0154 7.3408 6.85367 7.07685 7.74963 6.95241C7.45231 6.18791 7.15498 5.42647 6.85442 4.66503C7.95666 4.50904 9.13971 4.56715 10.3228 4.62527C10.4713 5.00722 10.6207 5.38841 10.77 5.7696L10.7704 5.77068C10.9199 6.15223 11.0694 6.53379 11.2181 6.91611C10.0355 6.85496 8.85289 6.79687 7.75099 6.95264C7.89963 7.3333 8.04908 7.71472 8.19852 8.09613C8.34802 8.47769 8.49752 8.85924 8.64621 9.24003C7.72179 9.36828 6.85876 9.64498 6.10097 10.1946C7.64696 14.5923 8.37906 16.8126 8.68204 17.7587C8.80377 18.1388 8.7562 18.5531 8.39984 18.7328C8.31411 18.7761 8.21318 18.8196 8.09451 18.8614C7.97583 18.9031 7.86992 18.9325 7.77602 18.9525C7.38571 19.0358 7.08899 18.7427 6.94566 18.3703C6.57826 17.4155 5.71862 15.1224 4.07618 10.459C2.43374 5.79563 1.66663 3.46992 1.35461 2.49562Z" fill="#272A30"/>
<path d="M13.7924 4.58946C12.6934 4.74239 11.5071 4.68427 10.3241 4.62616C10.0267 3.86459 9.7293 3.10301 9.42869 2.33838L9.43412 2.33865C10.6186 2.39667 11.7965 2.45437 12.897 2.30168C13.0457 2.68246 13.1952 3.06402 13.3447 3.44557C13.4942 3.82712 13.6437 4.20867 13.7924 4.58946Z" fill="#272A30"/>
<path d="M17.6572 5.57511C16.8039 6.36115 15.7857 6.72512 14.6867 6.87804C14.3861 6.11647 14.0887 5.35489 13.7913 4.59026C14.8903 4.43733 15.9085 4.07337 16.7618 3.28733C16.9106 3.66821 17.0601 4.04986 17.2096 4.43151C17.3591 4.81297 17.5086 5.19442 17.6572 5.57511Z" fill="#272A30"/>
<path d="M15.5797 9.16838C14.5103 9.31719 13.3582 9.26328 12.2099 9.20955L12.1146 9.20509C11.8142 8.44114 11.5171 7.68025 11.22 6.91936L11.2192 6.9173L11.3182 6.92192C12.4682 6.9756 13.6159 7.02918 14.6843 6.87754C14.833 7.2599 14.9825 7.64149 15.132 8.02309L15.1324 8.02407C15.2818 8.40525 15.4311 8.78644 15.5797 9.16838Z" fill="#272A30"/>
<path d="M9.5403 11.5293C10.6425 11.3764 11.8256 11.4345 13.0086 11.4926C12.7719 10.8928 12.5371 10.2911 12.3028 9.69049L12.1133 9.20483C10.9302 9.14366 9.74717 9.08861 8.64493 9.24153C8.8817 9.84137 9.11647 10.4431 9.35081 11.0438L9.5403 11.5293Z" fill="#272A30"/>
<path d="M19.4468 10.148C18.5932 10.9343 17.5747 11.2984 16.4753 11.4513C16.2385 10.8514 16.0036 10.2495 15.7692 9.6487L15.5796 9.16281C16.6822 9.00677 17.6975 8.64575 18.5511 7.85639C18.6999 8.2389 18.8495 8.62066 18.9991 9.00241C19.1486 9.38395 19.2981 9.76568 19.4468 10.148Z" fill="#272A30"/>
</svg>
