<svg width="20" height="20" viewBox="0 0 20 20" fill="none" xmlns="http://www.w3.org/2000/svg">
<path fill-rule="evenodd" clip-rule="evenodd" d="M4.31454 8.05068C5.03156 7.37586 6.17361 8.30353 7.06426 8.72335L9.31526 9.78438C9.56843 9.90371 9.69502 9.96338 9.82724 9.98657C9.94151 10.0066 10.0584 10.0066 10.1727 9.98657C10.3049 9.96338 10.4315 9.90372 10.6847 9.78438L12.9357 8.72333C13.8264 8.30352 14.9684 7.37586 15.6855 8.05069C16.0396 8.38397 16.0968 8.91444 15.847 9.311C15.8156 9.36086 15.7999 9.38579 15.7454 9.43367C15.6908 9.48154 15.6446 9.50289 15.5521 9.54557L10.8378 11.7206C10.4256 11.9107 10.2195 12.0058 9.99994 12.0058C9.78038 12.0058 9.57428 11.9107 9.16208 11.7205L4.44793 9.54557C4.35541 9.50288 4.30915 9.48154 4.25462 9.43366C4.20009 9.38579 4.18439 9.36085 4.15299 9.31099C3.90323 8.91443 3.96043 8.38396 4.31454 8.05068Z" fill="#272A30"/>
</svg>
