<svg width="20" height="20" viewBox="0 0 20 20" fill="none" xmlns="http://www.w3.org/2000/svg">
<path fill-rule="evenodd" clip-rule="evenodd" d="M11.9493 4.31454C12.6241 5.03156 11.6965 6.17361 11.2767 7.06426L10.2156 9.31526C10.0963 9.56843 10.0366 9.69502 10.0134 9.82724C9.9934 9.94151 9.9934 10.0584 10.0134 10.1727C10.0366 10.3049 10.0963 10.4315 10.2156 10.6847L11.2767 12.9357C11.6965 13.8264 12.6241 14.9684 11.9493 15.6855C11.616 16.0396 11.0856 16.0968 10.689 15.847C10.6391 15.8156 10.6142 15.7999 10.5663 15.7454C10.5185 15.6908 10.4971 15.6446 10.4544 15.5521L8.27945 10.8378C8.08927 10.4256 7.99419 10.2195 7.99419 9.99994C7.99419 9.78038 8.08928 9.57428 8.27945 9.16208L10.4544 4.44793C10.4971 4.35541 10.5185 4.30915 10.5663 4.25462C10.6142 4.2001 10.6391 4.18439 10.689 4.15299C11.0856 3.90323 11.616 3.96043 11.9493 4.31454Z" fill="#272A30"/>
</svg>
