<svg width="20" height="20" viewBox="0 0 20 20" fill="none" xmlns="http://www.w3.org/2000/svg">
<path d="M6.46449 11.9306C5.57503 11.9787 5.20081 12.7944 5.77235 13.4546C6.11305 13.8482 6.55524 14.3335 7.12395 14.9177C8.07693 15.8968 8.79306 16.4589 9.2724 16.7766C9.72185 17.0745 10.2786 17.0745 10.728 16.7766C11.2074 16.4589 11.9236 15.8969 12.8764 14.9177C13.4449 14.3336 13.8869 13.8485 14.2276 13.455C14.7992 12.7946 14.425 11.9787 13.5354 11.9306C13.041 11.9038 12.417 11.8805 11.6345 11.8666C11.5758 8.10728 11.439 5.18374 11.3661 3.82785C11.341 3.36058 10.9412 3 10.4569 3L9.44693 3C8.9553 3 8.55181 3.37139 8.53484 3.84612C8.4861 5.20991 8.39555 8.12417 8.3566 11.8667C7.57819 11.8807 6.957 11.9039 6.46449 11.9306Z" fill="#272A30"/>
</svg>
