<svg width="20" height="20" viewBox="0 0 20 20" fill="none" xmlns="http://www.w3.org/2000/svg">
<path d="M11.9306 6.46449C11.9787 5.57503 12.7944 5.20081 13.4546 5.77235C13.8482 6.11305 14.3335 6.55524 14.9177 7.12395C15.8968 8.07693 16.4589 8.79306 16.7766 9.2724C17.0745 9.72185 17.0745 10.2786 16.7766 10.728C16.4589 11.2074 15.8969 11.9236 14.9177 12.8764C14.3336 13.4449 13.8485 13.8869 13.455 14.2276C12.7946 14.7992 11.9787 14.425 11.9306 13.5354C11.9038 13.041 11.8805 12.417 11.8666 11.6345C8.10728 11.5758 5.18374 11.439 3.82785 11.3661C3.36058 11.341 3 10.9412 3 10.4569L3 9.44693C3 8.9553 3.37139 8.55181 3.84612 8.53484C5.20991 8.4861 8.12416 8.39555 11.8667 8.3566C11.8807 7.57819 11.9039 6.957 11.9306 6.46449Z" fill="#272A30"/>
</svg>
