<svg width="20" height="20" viewBox="0 0 20 20" fill="none" xmlns="http://www.w3.org/2000/svg">
<path fill-rule="evenodd" clip-rule="evenodd" d="M4.31453 6.61531C4.71671 6.2368 5.34959 6.25599 5.7281 6.65816L9.23829 10.7843C9.592 11.2 9.76886 11.4079 9.99995 11.4079C10.231 11.4079 10.4079 11.2 10.7616 10.7843L14.2719 6.65816C14.6504 6.25598 15.2833 6.2368 15.6855 6.61532C16.0876 6.99383 16.1068 7.62671 15.7283 8.02888L10.7281 13.3416C10.5392 13.5424 10.2757 13.6562 9.99994 13.6562C9.7242 13.6562 9.46071 13.5424 9.27173 13.3416L4.27168 8.02887C3.89317 7.62669 3.91235 6.99382 4.31453 6.61531Z" fill="#272A30"/>
</svg>
