<svg width="20" height="20" viewBox="0 0 20 20" fill="none" xmlns="http://www.w3.org/2000/svg">
<path fill-rule="evenodd" clip-rule="evenodd" d="M8.05068 4.3144C7.37586 5.03142 8.30353 6.17347 8.72335 7.06412L9.78438 9.31512C9.90371 9.56829 9.96338 9.69488 9.98657 9.8271C10.0066 9.94138 10.0066 10.0583 9.98657 10.1725C9.96338 10.3048 9.90372 10.4313 9.78438 10.6845L8.72333 12.9356C8.30352 13.8263 7.37586 14.9683 8.05069 15.6853C8.38397 16.0394 8.91444 16.0966 9.311 15.8469C9.36086 15.8155 9.3858 15.7998 9.43367 15.7452C9.48154 15.6907 9.50289 15.6444 9.54557 15.5519L11.7206 10.8377C11.9107 10.4255 12.0058 10.2194 12.0058 9.99981C12.0058 9.78024 11.9107 9.57414 11.7205 9.16194L9.54557 4.4478C9.50288 4.35528 9.48154 4.30902 9.43366 4.25449C9.38579 4.19996 9.36085 4.18426 9.31099 4.15285C8.91443 3.9031 8.38396 3.96029 8.05068 4.3144Z" fill="#272A30"/>
</svg>
