<svg width="20" height="20" viewBox="0 0 20 20" fill="none" xmlns="http://www.w3.org/2000/svg">
<path d="M6.46449 8.06941C5.57503 8.02128 5.20081 7.20564 5.77235 6.54538C6.11305 6.15179 6.55524 5.66653 7.12395 5.08226C8.07693 4.10319 8.79306 3.54115 9.2724 3.22345C9.72185 2.92555 10.2786 2.92551 10.728 3.22338C11.2074 3.54107 11.9236 4.10312 12.8764 5.08226C13.4449 5.66636 13.8869 6.1515 14.2276 6.54503C14.7992 7.20542 14.425 8.02131 13.5354 8.06944C13.041 8.09619 12.417 8.11953 11.6345 8.13344C11.5758 11.8927 11.439 14.8163 11.3661 16.1722C11.341 16.6394 10.9412 17 10.4569 17L9.44693 17C8.9553 17 8.55181 16.6286 8.53484 16.1539C8.4861 14.7901 8.39555 11.8758 8.3566 8.13327C7.57819 8.11933 6.957 8.09606 6.46449 8.06941Z" fill="#272A30"/>
</svg>
