<svg width="20" height="20" viewBox="0 0 20 20" fill="none" xmlns="http://www.w3.org/2000/svg">
<path fill-rule="evenodd" clip-rule="evenodd" d="M13.3846 4.31454C13.7631 4.71672 13.7439 5.34959 13.3417 5.72811L9.21561 9.2383C8.79984 9.59201 8.59195 9.76887 8.59195 9.99996C8.59195 10.231 8.79984 10.4079 9.21561 10.7616L13.3417 14.2719C13.7439 14.6504 13.7631 15.2833 13.3846 15.6855C13.006 16.0876 12.3732 16.1068 11.971 15.7283L6.65829 10.7282C6.4575 10.5392 6.34365 10.2757 6.34365 9.99994C6.34365 9.72421 6.4575 9.46071 6.65829 9.27174L11.971 4.27169C12.3732 3.89318 13.006 3.91236 13.3846 4.31454Z" fill="#272A30"/>
</svg>
