<svg width="20" height="20" viewBox="0 0 20 20" fill="none" xmlns="http://www.w3.org/2000/svg">
<path fill-rule="evenodd" clip-rule="evenodd" d="M4.31454 11.9491C5.03156 12.624 6.17361 11.6963 7.06426 11.2765L9.31526 10.2154C9.56843 10.0961 9.69502 10.0364 9.82724 10.0133C9.94151 9.99321 10.0584 9.99321 10.1727 10.0132C10.3049 10.0364 10.4315 10.0961 10.6847 10.2154L12.9357 11.2765C13.8264 11.6963 14.9684 12.624 15.6855 11.9491C16.0396 11.6158 16.0968 11.0854 15.847 10.6888C15.8156 10.639 15.7999 10.614 15.7454 10.5661C15.6908 10.5183 15.6446 10.4969 15.5521 10.4542L10.8378 8.27926C10.4256 8.08909 10.2195 7.994 9.99994 7.994C9.78038 7.994 9.57428 8.08909 9.16208 8.27927L4.44793 10.4543C4.35541 10.4969 4.30915 10.5183 4.25462 10.5662C4.20009 10.614 4.18439 10.639 4.15299 10.6888C3.90323 11.0854 3.96043 11.6159 4.31454 11.9491Z" fill="#272A30"/>
</svg>
