<svg width="20" height="20" viewBox="0 0 20 20" fill="none" xmlns="http://www.w3.org/2000/svg">
<path d="M8.06941 6.46449C8.02128 5.57503 7.20564 5.20081 6.54538 5.77235C6.15179 6.11305 5.66653 6.55524 5.08226 7.12395C4.10319 8.07693 3.54115 8.79306 3.22345 9.2724C2.92555 9.72185 2.92551 10.2786 3.22338 10.728C3.54107 11.2074 4.10312 11.9236 5.08226 12.8764C5.66636 13.4449 6.1515 13.8869 6.54503 14.2276C7.20542 14.7992 8.02131 14.425 8.06944 13.5354C8.09619 13.041 8.11953 12.417 8.13344 11.6345C11.8927 11.5758 14.8163 11.439 16.1722 11.3661C16.6394 11.341 17 10.9412 17 10.4569L17 9.44693C17 8.9553 16.6286 8.55181 16.1539 8.53484C14.7901 8.4861 11.8758 8.39555 8.13327 8.3566C8.11933 7.57819 8.09606 6.957 8.06941 6.46449Z" fill="#272A30"/>
</svg>
