<svg width="20" height="20" viewBox="0 0 20 20" fill="none" xmlns="http://www.w3.org/2000/svg">
<path fill-rule="evenodd" clip-rule="evenodd" d="M16.8319 4.0131C17.5185 5.88405 17.969 7.79737 17.9976 9.79541H17.9905C17.9905 9.9133 17.9929 10.0304 17.9953 10.1473C18 10.3802 18.0048 10.6123 17.9905 10.8474C17.9261 12.0759 17.6472 13.2549 17.0965 14.3634C16.0953 16.3755 14.4719 17.6463 12.2978 18.2182C10.3526 18.7336 8.42878 18.6136 6.59082 17.8299C5.45371 17.3569 4.4954 16.6297 3.73733 15.6624C2.84338 14.5328 2.35707 13.2408 2.13537 11.8358C1.85645 10.0708 2.03524 8.31982 2.42858 6.59007C2.72895 5.25569 3.1795 3.96368 3.71587 2.6999C4.0377 1.9374 4.61698 1.46437 5.45371 1.32316C6.24039 1.18902 6.81967 1.66911 6.83397 2.45279C6.83397 2.69284 6.81967 2.93289 6.76961 3.16588C6.7332 3.34044 6.69627 3.51501 6.65933 3.68965C6.39144 4.95591 6.12271 6.22614 6.0473 7.52908C5.98293 8.59517 6.01154 9.66126 6.33336 10.6991C6.61227 11.5887 7.07713 12.3512 7.89956 12.8595C8.65048 13.3255 9.48722 13.4455 10.3526 13.389C11.8329 13.2902 12.8914 12.5983 13.4921 11.2427C13.9141 10.2896 14.0142 9.28707 14.0142 8.2704C14.007 6.80188 13.7353 5.37572 13.4349 3.9425C13.3276 3.43416 13.2275 2.91877 13.2132 2.41043C13.1918 1.71853 13.6781 1.29492 14.3718 1.29492C15.1298 1.30198 15.988 1.88092 16.2741 2.58694C16.3288 2.72621 16.3842 2.86548 16.4396 3.00493C16.5724 3.33896 16.7058 3.67452 16.8319 4.0131ZM4.84457 4.64382C5.20623 4.64382 5.49941 4.35438 5.49941 3.99735C5.49941 3.64031 5.20623 3.35087 4.84457 3.35087C4.48291 3.35087 4.18972 3.64031 4.18972 3.99735C4.18972 4.35438 4.48291 4.64382 4.84457 4.64382ZM15.6197 3.99735C15.6197 4.35438 15.3265 4.64382 14.9649 4.64382C14.6032 4.64382 14.31 4.35438 14.31 3.99735C14.31 3.64031 14.6032 3.35087 14.9649 3.35087C15.3265 3.35087 15.6197 3.64031 15.6197 3.99735Z" fill="#272A30"/>
<path d="M11.0669 11.5189V3.14526H10.8925L7.82289 4.39069V5.73368L9.43907 5.11958V11.5189H11.0669Z" fill="#272A30"/>
</svg>
