<svg width="20" height="20" viewBox="0 0 20 20" fill="none" xmlns="http://www.w3.org/2000/svg">
<path fill-rule="evenodd" clip-rule="evenodd" d="M16.8319 4.01304C17.5185 5.88399 17.969 7.79731 17.9976 9.79534H17.9905C17.9905 9.91314 17.9929 10.0302 17.9953 10.1469C18 10.3798 18.0048 10.6124 17.9905 10.8473C17.9261 12.0758 17.6472 13.2548 17.0965 14.3633C16.0953 16.3755 14.4719 17.6463 12.2978 18.2182C10.3526 18.7336 8.42878 18.6135 6.59082 17.8299C5.45371 17.3568 4.4954 16.6296 3.73733 15.6624C2.84338 14.5327 2.35707 13.2407 2.13537 11.8357C1.85645 10.0707 2.03524 8.31976 2.42858 6.59001C2.72895 5.25563 3.1795 3.96362 3.71587 2.69984C4.0377 1.93734 4.61698 1.4643 5.45371 1.3231C6.24039 1.18896 6.81967 1.66905 6.83397 2.45273C6.83397 2.69278 6.81967 2.93283 6.76961 3.16581C6.7332 3.34038 6.69627 3.51495 6.65933 3.68959C6.39144 4.95585 6.12271 6.22608 6.0473 7.52902C5.98293 8.59511 6.01154 9.6612 6.33336 10.699C6.61227 11.5886 7.07713 12.3511 7.89956 12.8595C8.65048 13.3254 9.48722 13.4455 10.3526 13.389C11.8329 13.2901 12.8914 12.5982 13.4921 11.2427C13.9141 10.2896 14.0142 9.28701 14.0142 8.27034C14.007 6.80182 13.7353 5.37566 13.4349 3.94244C13.3276 3.4341 13.2275 2.91871 13.2132 2.41037C13.1918 1.71847 13.6781 1.29486 14.3718 1.29486C15.1298 1.30192 15.988 1.88086 16.2741 2.58688C16.3288 2.72599 16.3841 2.86511 16.4395 3.00441L16.4398 3.00536C16.5726 3.33939 16.7058 3.67446 16.8319 4.01304ZM4.84457 4.64376C5.20623 4.64376 5.49941 4.35432 5.49941 3.99729C5.49941 3.64025 5.20623 3.35081 4.84457 3.35081C4.48291 3.35081 4.18972 3.64025 4.18972 3.99729C4.18972 4.35432 4.48291 4.64376 4.84457 4.64376ZM15.6197 3.99729C15.6197 4.35432 15.3265 4.64376 14.9649 4.64376C14.6032 4.64376 14.31 4.35432 14.31 3.99729C14.31 3.64025 14.6032 3.35081 14.9649 3.35081C15.3265 3.35081 15.6197 3.64025 15.6197 3.99729ZM4.38683 6.87703C4.74849 6.87703 5.04168 6.58759 5.04168 6.23056C5.04168 5.87352 4.74849 5.58408 4.38683 5.58408C4.02517 5.58408 3.73199 5.87352 3.73199 6.23056C3.73199 6.58759 4.02517 6.87703 4.38683 6.87703ZM4.64356 8.46383C4.64356 8.82086 4.35038 9.1103 3.98872 9.1103C3.62706 9.1103 3.33388 8.82086 3.33388 8.46383C3.33388 8.10679 3.62706 7.81735 3.98872 7.81735C4.35038 7.81735 4.64356 8.10679 4.64356 8.46383ZM4.11894 11.3436C4.4806 11.3436 4.77379 11.0541 4.77379 10.6971C4.77379 10.3401 4.4806 10.0506 4.11894 10.0506C3.75728 10.0506 3.4641 10.3401 3.4641 10.6971C3.4641 11.0541 3.75728 11.3436 4.11894 11.3436ZM16.267 6.23056C16.267 6.58759 15.9738 6.87703 15.6122 6.87703C15.2505 6.87703 14.9573 6.58759 14.9573 6.23056C14.9573 5.87352 15.2505 5.58408 15.6122 5.58408C15.9738 5.58408 16.267 5.87352 16.267 6.23056ZM15.8801 9.1103C16.2417 9.1103 16.5349 8.82086 16.5349 8.46383C16.5349 8.10679 16.2417 7.81735 15.8801 7.81735C15.5184 7.81735 15.2252 8.10679 15.2252 8.46383C15.2252 8.82086 15.5184 9.1103 15.8801 9.1103ZM16.5349 10.6971C16.5349 11.0541 16.2417 11.3436 15.8801 11.3436C15.5184 11.3436 15.2252 11.0541 15.2252 10.6971C15.2252 10.3401 15.5184 10.0506 15.8801 10.0506C16.2417 10.0506 16.5349 10.3401 16.5349 10.6971Z" fill="#272A30"/>
<path d="M9.27474 8.39313L8.64622 9.46293H6.99131V8.54924L8.82375 6.24893C9.00048 6.00712 9.13846 5.79591 9.23768 5.61532C9.3369 5.43166 9.40821 5.2679 9.45162 5.12404C9.49503 4.97711 9.51673 4.83937 9.51673 4.71081C9.51673 4.51185 9.49348 4.34196 9.44697 4.20116C9.40046 4.05729 9.3307 3.9471 9.23768 3.87058C9.14776 3.79099 9.03614 3.7512 8.90282 3.7512C8.74159 3.7512 8.60826 3.80017 8.50284 3.89812C8.39742 3.99608 8.31836 4.13076 8.26565 4.30217C8.21604 4.47052 8.19123 4.66183 8.19123 4.8761H6.88434C6.88434 4.47511 6.9665 4.1078 7.13083 3.77416C7.29827 3.44051 7.53236 3.17574 7.83312 2.97984C8.13697 2.78088 8.50129 2.6814 8.92607 2.6814C9.34155 2.6814 9.68881 2.75792 9.96786 2.91097C10.25 3.06402 10.4624 3.28287 10.605 3.56754C10.7508 3.84915 10.8236 4.18585 10.8236 4.57766C10.8236 4.80111 10.7942 5.01843 10.7353 5.22964C10.6763 5.43778 10.5926 5.64593 10.4841 5.85407C10.3756 6.05916 10.2423 6.26883 10.0841 6.4831C9.92601 6.69736 9.74772 6.91928 9.54929 7.14885L8.66562 8.39313H9.27474Z" fill="#272A30"/>
<path fill-rule="evenodd" clip-rule="evenodd" d="M13.4504 9.60615V10.676H12.8737V12.1223H11.5668V10.676H9.31582L9.25536 9.83572L11.5575 5.43713H12.8737V9.60615H13.4504ZM11.5343 7.39308L11.5668 7.33277V9.60615H10.5297L11.5343 7.39308Z" fill="#272A30"/>
</svg>
