<svg width="20" height="20" viewBox="0 0 20 20" fill="none" xmlns="http://www.w3.org/2000/svg">
<path fill-rule="evenodd" clip-rule="evenodd" d="M16.8319 4.0131C17.5185 5.88405 17.969 7.79737 17.9976 9.79541H17.9905C17.9905 9.91324 17.9929 10.0303 17.9953 10.1471C18 10.38 18.0048 10.6124 17.9905 10.8474C17.9261 12.0759 17.6472 13.2549 17.0965 14.3634C16.0953 16.3755 14.4719 17.6463 12.2978 18.2182C10.3526 18.7336 8.42878 18.6136 6.59082 17.8299C5.45371 17.3569 4.4954 16.6297 3.73733 15.6624C2.84338 14.5328 2.35707 13.2408 2.13537 11.8358C1.85645 10.0708 2.03524 8.31982 2.42858 6.59007C2.72895 5.25569 3.1795 3.96368 3.71587 2.6999C4.0377 1.9374 4.61698 1.46437 5.45371 1.32316C6.24039 1.18902 6.81967 1.66911 6.83397 2.45279C6.83397 2.69284 6.81967 2.93289 6.76961 3.16588C6.7332 3.34044 6.69627 3.51501 6.65933 3.68965C6.39144 4.95591 6.12271 6.22614 6.0473 7.52908C5.98293 8.59517 6.01154 9.66126 6.33336 10.6991C6.61227 11.5887 7.07713 12.3512 7.89956 12.8595C8.65048 13.3255 9.48722 13.4455 10.3526 13.389C11.8329 13.2902 12.8914 12.5983 13.4921 11.2427C13.9141 10.2896 14.0142 9.28707 14.0142 8.2704C14.007 6.80188 13.7353 5.37572 13.4349 3.9425C13.3276 3.43416 13.2275 2.91877 13.2132 2.41043C13.1918 1.71853 13.6781 1.29492 14.3718 1.29492C15.1298 1.30198 15.988 1.88092 16.2741 2.58694C16.3288 2.72606 16.3841 2.86517 16.4395 3.00447L16.4398 3.00542C16.5726 3.33945 16.7058 3.67452 16.8319 4.0131ZM4.84457 4.64382C5.20623 4.64382 5.49941 4.35438 5.49941 3.99735C5.49941 3.64031 5.20623 3.35087 4.84457 3.35087C4.48291 3.35087 4.18972 3.64031 4.18972 3.99735C4.18972 4.35438 4.48291 4.64382 4.84457 4.64382ZM15.6197 3.99735C15.6197 4.35438 15.3265 4.64382 14.9649 4.64382C14.6032 4.64382 14.31 4.35438 14.31 3.99735C14.31 3.64031 14.6032 3.35087 14.9649 3.35087C15.3265 3.35087 15.6197 3.64031 15.6197 3.99735ZM4.38683 6.87709C4.74849 6.87709 5.04168 6.58765 5.04168 6.23062C5.04168 5.87358 4.74849 5.58414 4.38683 5.58414C4.02517 5.58414 3.73199 5.87358 3.73199 6.23062C3.73199 6.58765 4.02517 6.87709 4.38683 6.87709ZM4.64356 8.46389C4.64356 8.82092 4.35038 9.11036 3.98872 9.11036C3.62706 9.11036 3.33388 8.82092 3.33388 8.46389C3.33388 8.10685 3.62706 7.81741 3.98872 7.81741C4.35038 7.81741 4.64356 8.10685 4.64356 8.46389ZM15.6122 6.87709C15.9738 6.87709 16.267 6.58765 16.267 6.23062C16.267 5.87358 15.9738 5.58414 15.6122 5.58414C15.2505 5.58414 14.9573 5.87358 14.9573 6.23062C14.9573 6.58765 15.2505 6.87709 15.6122 6.87709ZM16.5349 8.46389C16.5349 8.82092 16.2417 9.11036 15.8801 9.11036C15.5184 9.11036 15.2252 8.82092 15.2252 8.46389C15.2252 8.10685 15.5184 7.81741 15.8801 7.81741C16.2417 7.81741 16.5349 8.10685 16.5349 8.46389Z" fill="#272A30"/>
<path d="M9.71231 6.42506H8.92166V7.72787H9.71812C9.92741 7.72787 10.1057 7.77188 10.253 7.85988C10.4002 7.94405 10.5126 8.07797 10.5902 8.26163C10.6677 8.44146 10.7064 8.67868 10.7064 8.9733C10.7064 9.20287 10.6696 9.40375 10.596 9.57592C10.5223 9.7481 10.4157 9.88202 10.2762 9.97767C10.1367 10.0733 9.97198 10.1212 9.78207 10.1212C9.61929 10.1212 9.47201 10.0752 9.34024 9.98341C9.21234 9.89158 9.11157 9.76532 9.03793 9.60462C8.96429 9.44009 8.92747 9.25452 8.92747 9.04791H7.29967C7.29967 9.46114 7.36749 9.81889 7.50314 10.1212C7.63879 10.4234 7.82289 10.674 8.05543 10.873C8.28798 11.072 8.54959 11.2193 8.84027 11.3149C9.13482 11.4106 9.43519 11.4584 9.74137 11.4584C10.1096 11.4584 10.4506 11.4048 10.7646 11.2977C11.0785 11.1867 11.3537 11.026 11.5901 10.8156C11.8265 10.6052 12.0106 10.3469 12.1424 10.0408C12.2742 9.73471 12.34 9.38653 12.34 8.99626C12.34 8.67868 12.2916 8.38789 12.1947 8.12388C12.0978 7.85988 11.9505 7.63222 11.7529 7.44091C11.5885 7.27867 11.3866 7.14945 11.147 7.05325C11.3303 6.95452 11.4915 6.83503 11.6308 6.6948C11.8246 6.49584 11.9719 6.27201 12.0726 6.02331C12.1773 5.7746 12.2296 5.51634 12.2296 5.2485C12.2296 4.72814 12.1249 4.29196 11.9157 3.93995C11.7064 3.58411 11.4157 3.31628 11.0436 3.13645C10.6715 2.95279 10.2394 2.86096 9.74719 2.86096C9.30923 2.86096 8.91003 2.95662 8.54959 3.14793C8.18915 3.33924 7.90234 3.60516 7.68918 3.94569C7.47601 4.28622 7.36943 4.68605 7.36943 5.1452H9.00886C9.00886 4.95006 9.04374 4.78362 9.11351 4.64588C9.18715 4.50431 9.28404 4.39526 9.40419 4.31874C9.52433 4.24222 9.65417 4.20395 9.7937 4.20395C9.97585 4.20395 10.127 4.24987 10.2472 4.3417C10.3673 4.43353 10.4564 4.55979 10.5146 4.72049C10.5727 4.88119 10.6018 5.06867 10.6018 5.28294C10.6018 5.51251 10.5708 5.71339 10.5088 5.88556C10.4468 6.05774 10.3499 6.19166 10.2181 6.28731C10.0863 6.37914 9.91772 6.42506 9.71231 6.42506Z" fill="#272A30"/>
</svg>
