<svg width="20" height="20" viewBox="0 0 20 20" fill="none" xmlns="http://www.w3.org/2000/svg">
<path d="M12.5439 8.21127V9.54852H7.37558L7.3 8.49823L10.1777 3H11.4683L10.1487 5.44493L8.89293 8.21127H12.5439ZM11.823 3V11.3564H10.1894V3H11.823Z" fill="#272A30"/>
<path fill-rule="evenodd" clip-rule="evenodd" d="M17.9976 9.79534C17.969 7.79731 17.5185 5.88399 16.8319 4.01304C16.7058 3.67446 16.5726 3.33939 16.4398 3.00536L16.4397 3.00511L16.4396 3.00487L16.4395 3.00462L16.4395 3.00441C16.3841 2.86511 16.3288 2.72599 16.2741 2.58688C15.988 1.88086 15.1298 1.30192 14.3718 1.29486C13.6781 1.29486 13.1918 1.71847 13.2132 2.41037C13.2275 2.91871 13.3276 3.4341 13.4349 3.94244C13.7353 5.37566 14.007 6.80182 14.0142 8.27034C14.0142 9.28701 13.9141 10.2896 13.4921 11.2427C12.8914 12.5982 11.8329 13.2901 10.3526 13.389C9.48722 13.4455 8.65048 13.3254 7.89956 12.8595C7.07713 12.3511 6.61227 11.5886 6.33336 10.699C6.01154 9.6612 5.98293 8.59511 6.0473 7.52902C6.12271 6.22608 6.39144 4.95586 6.65933 3.6896L6.65933 3.68959C6.69627 3.51495 6.7332 3.34038 6.76961 3.16581C6.81967 2.93283 6.83397 2.69278 6.83397 2.45273C6.81967 1.66905 6.24039 1.18896 5.45371 1.3231C4.61698 1.4643 4.0377 1.93734 3.71587 2.69984C3.1795 3.96362 2.72895 5.25563 2.42858 6.59001C2.03524 8.31976 1.85645 10.0707 2.13537 11.8357C2.35707 13.2407 2.84338 14.5327 3.73733 15.6624C4.4954 16.6296 5.45371 17.3568 6.59082 17.8299C8.42878 18.6135 10.3526 18.7336 12.2978 18.2182C14.4719 17.6463 16.0953 16.3755 17.0965 14.3633C17.6472 13.2548 17.9261 12.0758 17.9905 10.8473C18.0048 10.6123 18 10.3805 17.9953 10.1476V10.1476V10.1475V10.1475V10.1474V10.1474V10.1473V10.1473V10.1473V10.1472V10.1472V10.1471V10.1471V10.147V10.147C17.9929 10.0302 17.9905 9.91316 17.9905 9.79534H17.9976ZM5.49941 3.99729C5.49941 4.35432 5.20623 4.64376 4.84457 4.64376C4.48291 4.64376 4.18972 4.35432 4.18972 3.99729C4.18972 3.64025 4.48291 3.35081 4.84457 3.35081C5.20623 3.35081 5.49941 3.64025 5.49941 3.99729ZM14.9649 4.64376C15.3265 4.64376 15.6197 4.35432 15.6197 3.99729C15.6197 3.64025 15.3265 3.35081 14.9649 3.35081C14.6032 3.35081 14.31 3.64025 14.31 3.99729C14.31 4.35432 14.6032 4.64376 14.9649 4.64376ZM5.04168 6.23056C5.04168 6.58759 4.74849 6.87703 4.38683 6.87703C4.02517 6.87703 3.73199 6.58759 3.73199 6.23056C3.73199 5.87352 4.02517 5.58408 4.38683 5.58408C4.74849 5.58408 5.04168 5.87352 5.04168 6.23056ZM3.98872 9.1103C4.35038 9.1103 4.64356 8.82086 4.64356 8.46383C4.64356 8.10679 4.35038 7.81735 3.98872 7.81735C3.62706 7.81735 3.33388 8.10679 3.33388 8.46383C3.33388 8.82086 3.62706 9.1103 3.98872 9.1103ZM4.77379 10.6971C4.77379 11.0541 4.4806 11.3436 4.11894 11.3436C3.75728 11.3436 3.4641 11.0541 3.4641 10.6971C3.4641 10.3401 3.75728 10.0506 4.11894 10.0506C4.4806 10.0506 4.77379 10.3401 4.77379 10.6971ZM15.6122 6.87703C15.9738 6.87703 16.267 6.58759 16.267 6.23056C16.267 5.87352 15.9738 5.58408 15.6122 5.58408C15.2505 5.58408 14.9573 5.87352 14.9573 6.23056C14.9573 6.58759 15.2505 6.87703 15.6122 6.87703ZM16.5349 8.46383C16.5349 8.82086 16.2417 9.1103 15.8801 9.1103C15.5184 9.1103 15.2252 8.82086 15.2252 8.46383C15.2252 8.10679 15.5184 7.81735 15.8801 7.81735C16.2417 7.81735 16.5349 8.10679 16.5349 8.46383ZM15.8801 11.3436C16.2417 11.3436 16.5349 11.0541 16.5349 10.6971C16.5349 10.3401 16.2417 10.0506 15.8801 10.0506C15.5184 10.0506 15.2252 10.3401 15.2252 10.6971C15.2252 11.0541 15.5184 11.3436 15.8801 11.3436Z" fill="#272A30"/>
</svg>
