<svg width="20" height="20" viewBox="0 0 20 20" fill="none" xmlns="http://www.w3.org/2000/svg">
<path fill-rule="evenodd" clip-rule="evenodd" d="M16.8319 4.01304C17.5185 5.88399 17.969 7.79731 17.9976 9.79534H17.9905C17.9905 9.91311 17.9929 10.0301 17.9953 10.1468C18 10.3797 18.0048 10.6124 17.9905 10.8473C17.9261 12.0758 17.6472 13.2548 17.0965 14.3633C16.0953 16.3755 14.4719 17.6463 12.2978 18.2182C10.3526 18.7336 8.42878 18.6135 6.59082 17.8299C5.45371 17.3568 4.4954 16.6296 3.73733 15.6624C2.84338 14.5327 2.35707 13.2407 2.13537 11.8357C1.85645 10.0707 2.03524 8.31976 2.42858 6.59001C2.72895 5.25563 3.1795 3.96362 3.71587 2.69984C4.0377 1.93734 4.61698 1.4643 5.45371 1.3231C6.24039 1.18896 6.81967 1.66905 6.83397 2.45273C6.83397 2.69278 6.81967 2.93283 6.76961 3.16581C6.7332 3.34038 6.69627 3.51495 6.65933 3.68959C6.39144 4.95585 6.12271 6.22608 6.0473 7.52902C5.98293 8.59511 6.01154 9.6612 6.33336 10.699C6.61227 11.5886 7.07713 12.3511 7.89956 12.8595C8.65048 13.3254 9.48722 13.4455 10.3526 13.389C11.8329 13.2901 12.8914 12.5982 13.4921 11.2427C13.9141 10.2896 14.0142 9.28701 14.0142 8.27034C14.007 6.80182 13.7353 5.37566 13.4349 3.94244C13.3276 3.4341 13.2275 2.91871 13.2132 2.41037C13.1918 1.71847 13.6781 1.29486 14.3718 1.29486C15.1298 1.30192 15.988 1.88086 16.2741 2.58688C16.3288 2.72599 16.3841 2.86511 16.4395 3.00441L16.4398 3.00536C16.5726 3.33939 16.7058 3.67446 16.8319 4.01304ZM4.84457 4.64376C5.20623 4.64376 5.49941 4.35432 5.49941 3.99729C5.49941 3.64025 5.20623 3.35081 4.84457 3.35081C4.48291 3.35081 4.18972 3.64025 4.18972 3.99729C4.18972 4.35432 4.48291 4.64376 4.84457 4.64376ZM15.6197 3.99729C15.6197 4.35432 15.3265 4.64376 14.9649 4.64376C14.6032 4.64376 14.31 4.35432 14.31 3.99729C14.31 3.64025 14.6032 3.35081 14.9649 3.35081C15.3265 3.35081 15.6197 3.64025 15.6197 3.99729ZM4.38683 6.87703C4.74849 6.87703 5.04168 6.58759 5.04168 6.23056C5.04168 5.87352 4.74849 5.58408 4.38683 5.58408C4.02517 5.58408 3.73199 5.87352 3.73199 6.23056C3.73199 6.58759 4.02517 6.87703 4.38683 6.87703ZM4.64356 8.46383C4.64356 8.82086 4.35038 9.1103 3.98872 9.1103C3.62706 9.1103 3.33388 8.82086 3.33388 8.46383C3.33388 8.10679 3.62706 7.81735 3.98872 7.81735C4.35038 7.81735 4.64356 8.10679 4.64356 8.46383ZM4.11894 11.3436C4.4806 11.3436 4.77379 11.0541 4.77379 10.6971C4.77379 10.3401 4.4806 10.0506 4.11894 10.0506C3.75728 10.0506 3.4641 10.3401 3.4641 10.6971C3.4641 11.0541 3.75728 11.3436 4.11894 11.3436ZM5.42863 12.9304C5.42863 13.2874 5.13544 13.5768 4.77379 13.5768C4.41213 13.5768 4.11894 13.2874 4.11894 12.9304C4.11894 12.5733 4.41213 12.2839 4.77379 12.2839C5.13544 12.2839 5.42863 12.5733 5.42863 12.9304ZM15.6122 6.87703C15.9738 6.87703 16.267 6.58759 16.267 6.23056C16.267 5.87352 15.9738 5.58408 15.6122 5.58408C15.2505 5.58408 14.9573 5.87352 14.9573 6.23056C14.9573 6.58759 15.2505 6.87703 15.6122 6.87703ZM16.5349 8.46383C16.5349 8.82086 16.2417 9.1103 15.8801 9.1103C15.5184 9.1103 15.2252 8.82086 15.2252 8.46383C15.2252 8.10679 15.5184 7.81735 15.8801 7.81735C16.2417 7.81735 16.5349 8.10679 16.5349 8.46383ZM15.8801 11.3436C16.2417 11.3436 16.5349 11.0541 16.5349 10.6971C16.5349 10.3401 16.2417 10.0506 15.8801 10.0506C15.5184 10.0506 15.2252 10.3401 15.2252 10.6971C15.2252 11.0541 15.5184 11.3436 15.8801 11.3436ZM15.8801 12.9304C15.8801 13.2874 15.5869 13.5768 15.2252 13.5768C14.8636 13.5768 14.5704 13.2874 14.5704 12.9304C14.5704 12.5733 14.8636 12.2839 15.2252 12.2839C15.5869 12.2839 15.8801 12.5733 15.8801 12.9304Z" fill="#272A30"/>
<path d="M7.63104 7.23425L8.93329 7.55565C9.01468 7.44469 9.11351 7.34139 9.22978 7.24573C9.34993 7.14625 9.52821 7.09651 9.76463 7.09651C9.93904 7.09651 10.0902 7.13286 10.2181 7.20556C10.346 7.27443 10.4506 7.37391 10.532 7.504C10.6173 7.63026 10.6793 7.78331 10.7181 7.96314C10.7607 8.14297 10.782 8.34385 10.782 8.56577C10.782 8.78386 10.7665 8.98856 10.7355 9.17987C10.7045 9.36735 10.656 9.53188 10.5902 9.67345C10.5243 9.81502 10.4351 9.92598 10.3227 10.0063C10.2103 10.0829 10.0766 10.1211 9.9216 10.1211C9.76269 10.1211 9.62316 10.0771 9.50302 9.98911C9.38675 9.90111 9.28985 9.77484 9.21234 9.61032C9.1387 9.44196 9.09413 9.24492 9.07863 9.01917H7.46826C7.46826 9.40561 7.53802 9.74997 7.67755 10.0522C7.81708 10.3507 8.00311 10.607 8.23566 10.8213C8.4682 11.0317 8.72981 11.1905 9.02049 11.2977C9.31504 11.4048 9.61929 11.4584 9.93322 11.4584C10.3479 11.4584 10.7103 11.3838 11.0204 11.2345C11.3304 11.0815 11.5882 10.8749 11.7936 10.6147C11.999 10.3545 12.1521 10.0561 12.2528 9.71936C12.3575 9.38266 12.4098 9.02874 12.4098 8.6576C12.4098 8.21758 12.3614 7.82349 12.2645 7.4753C12.1676 7.12712 12.0261 6.8325 11.8401 6.59145C11.654 6.3504 11.4254 6.16675 11.1541 6.04048C10.8828 5.91422 10.5727 5.85109 10.2239 5.85109C10.0069 5.85109 9.8092 5.88743 9.63092 5.96013C9.45651 6.03283 9.32473 6.09979 9.23559 6.16101L9.39256 4.36461H12.1424V2.98718H8.05543L7.63104 7.23425Z" fill="#272A30"/>
</svg>
