<svg width="20" height="20" viewBox="0 0 20 20" fill="none" xmlns="http://www.w3.org/2000/svg">
<path fill-rule="evenodd" clip-rule="evenodd" d="M16.8319 4.01304C17.5185 5.88399 17.969 7.79731 17.9976 9.79534H17.9905C17.9905 9.91321 17.9929 10.0303 17.9953 10.1471C18 10.38 18.0048 10.6123 17.9905 10.8473C17.9261 12.0758 17.6472 13.2548 17.0965 14.3633C16.0953 16.3755 14.4719 17.6463 12.2978 18.2182C10.3526 18.7336 8.42878 18.6135 6.59082 17.8299C5.45371 17.3568 4.4954 16.6296 3.73733 15.6624C2.84338 14.5327 2.35707 13.2407 2.13537 11.8357C1.85645 10.0707 2.03524 8.31976 2.42858 6.59001C2.72895 5.25563 3.1795 3.96362 3.71587 2.69984C4.0377 1.93734 4.61698 1.4643 5.45371 1.3231C6.24039 1.18896 6.81967 1.66905 6.83397 2.45273C6.83397 2.69278 6.81967 2.93283 6.76961 3.16581C6.7332 3.34038 6.69627 3.51495 6.65933 3.68959C6.39144 4.95585 6.12271 6.22608 6.0473 7.52902C5.98293 8.59511 6.01154 9.6612 6.33336 10.699C6.61227 11.5886 7.07713 12.3511 7.89956 12.8595C8.65048 13.3254 9.48722 13.4455 10.3526 13.389C11.8329 13.2901 12.8914 12.5982 13.4921 11.2427C13.9141 10.2896 14.0142 9.28701 14.0142 8.27034C14.007 6.80182 13.7353 5.37566 13.4349 3.94244C13.3276 3.4341 13.2275 2.91871 13.2132 2.41037C13.1918 1.71847 13.6781 1.29486 14.3718 1.29486C15.1298 1.30192 15.988 1.88086 16.2741 2.58688C16.3288 2.72599 16.3841 2.86511 16.4395 3.00441L16.4398 3.00536C16.5726 3.33939 16.7058 3.67446 16.8319 4.01304ZM4.84457 4.64376C5.20623 4.64376 5.49941 4.35432 5.49941 3.99729C5.49941 3.64025 5.20623 3.35081 4.84457 3.35081C4.48291 3.35081 4.18972 3.64025 4.18972 3.99729C4.18972 4.35432 4.48291 4.64376 4.84457 4.64376ZM15.6197 3.99729C15.6197 4.35432 15.3265 4.64376 14.9649 4.64376C14.6032 4.64376 14.31 4.35432 14.31 3.99729C14.31 3.64025 14.6032 3.35081 14.9649 3.35081C15.3265 3.35081 15.6197 3.64025 15.6197 3.99729ZM4.38683 6.87703C4.74849 6.87703 5.04168 6.58759 5.04168 6.23056C5.04168 5.87352 4.74849 5.58408 4.38683 5.58408C4.02517 5.58408 3.73199 5.87352 3.73199 6.23056C3.73199 6.58759 4.02517 6.87703 4.38683 6.87703ZM16.267 6.23056C16.267 6.58759 15.9738 6.87703 15.6122 6.87703C15.2505 6.87703 14.9573 6.58759 14.9573 6.23056C14.9573 5.87352 15.2505 5.58408 15.6122 5.58408C15.9738 5.58408 16.267 5.87352 16.267 6.23056Z" fill="#272A30"/>
<path d="M12.3684 11.5189V10.1817H9.47325L10.5778 8.62632C10.8259 8.33935 11.0487 8.06195 11.2464 7.79412C11.4441 7.52629 11.6107 7.26419 11.7464 7.00784C11.882 6.74766 11.9867 6.48748 12.0603 6.22729C12.1339 5.96329 12.1708 5.69163 12.1708 5.41232C12.1708 4.92256 12.0797 4.50168 11.8975 4.14967C11.7192 3.79384 11.4537 3.52027 11.1011 3.32896C10.7522 3.13765 10.3182 3.04199 9.79881 3.04199C9.26783 3.04199 8.81244 3.16634 8.43261 3.41505C8.05667 3.65992 7.76405 3.99089 7.55476 4.40794C7.34935 4.825 7.24664 5.28414 7.24664 5.78537H8.88026C8.88026 5.51754 8.91127 5.2784 8.97328 5.06796C9.03917 4.85369 9.138 4.68534 9.26977 4.5629C9.40155 4.44046 9.5682 4.37925 9.76974 4.37925C9.9364 4.37925 10.0759 4.42899 10.1883 4.52847C10.3046 4.62412 10.3918 4.76186 10.4499 4.9417C10.5081 5.1177 10.5371 5.33005 10.5371 5.57876C10.5371 5.73946 10.51 5.91163 10.4557 6.09529C10.4015 6.27512 10.3123 6.47982 10.1883 6.70939C10.0643 6.93514 9.89182 7.19915 9.67091 7.50142L7.38036 10.3768V11.5189H12.3684Z" fill="#272A30"/>
</svg>
