<svg width="20" height="20" viewBox="0 0 20 20" fill="none" xmlns="http://www.w3.org/2000/svg">
<path fill-rule="evenodd" clip-rule="evenodd" d="M0.999992 10.4737C0.999992 10.0938 1.00206 9.73373 1.0059 9.39264H18.9941C18.9979 9.73373 19 10.0938 19 10.4737C19 12.404 18.9467 13.8212 18.8777 14.847C18.7725 16.411 17.708 17.5776 16.1513 17.761C14.8246 17.9173 12.8523 18.0526 9.99999 18.0526C7.14764 18.0526 5.17536 17.9173 3.84871 17.761C2.29198 17.5776 1.2275 16.411 1.1223 14.847C1.05329 13.8212 0.999992 12.404 0.999992 10.4737ZM4.86141 12.2574C4.24858 12.2818 3.85434 12.7399 3.84469 13.3532C3.84317 13.4498 3.84232 13.5555 3.84232 13.671C3.84232 13.7864 3.84317 13.8921 3.84469 13.9887C3.85434 14.602 4.24858 15.0601 4.86141 15.0845C4.98114 15.0892 5.11468 15.092 5.26337 15.092C5.41206 15.092 5.5456 15.0892 5.66532 15.0845C6.27816 15.0601 6.67239 14.602 6.68204 13.9887C6.68356 13.8921 6.68442 13.7864 6.68442 13.671C6.68442 13.5555 6.68356 13.4498 6.68204 13.3532C6.67239 12.7399 6.27816 12.2818 5.66532 12.2574C5.5456 12.2527 5.41206 12.2499 5.26337 12.2499C5.11468 12.2499 4.98114 12.2527 4.86141 12.2574Z" fill="#272A30"/>
<path d="M15.6059 1.02961C15.902 1.05403 16.1055 1.27092 16.1256 1.56736C16.144 1.8397 16.1601 2.25922 16.1601 2.89474C16.1601 2.99775 16.1596 3.09508 16.1589 3.18703C16.7186 3.25309 17.1632 3.32287 17.5102 3.38772C18.195 3.5157 18.6742 4.04112 18.7566 4.7329C18.8114 5.19369 18.9544 6.14394 19 7H1C1.0456 6.14394 1.19235 5.19369 1.24719 4.7329C1.32952 4.04112 1.80876 3.5157 2.49357 3.38772C2.84073 3.32284 3.28547 3.25305 3.84549 3.18697C3.8447 3.09503 3.84428 2.99772 3.84428 2.89474C3.84428 2.25922 3.86031 1.8397 3.87875 1.56736C3.89883 1.27092 4.10233 1.05403 4.39845 1.02961C4.59993 1.013 4.88053 1 5.26533 1C5.65013 1 5.93074 1.013 6.13222 1.02961C6.42834 1.05403 6.63184 1.27092 6.65191 1.56736C6.67035 1.8397 6.68639 2.25922 6.68639 2.89474C6.68639 2.91863 6.68636 2.94222 6.68632 2.96551C7.62993 2.92172 8.72816 2.89474 10.0019 2.89474C11.2759 2.89474 12.3743 2.92174 13.318 2.96554L13.318 2.89474C13.318 2.25922 13.334 1.8397 13.3524 1.56736C13.3725 1.27092 13.576 1.05403 13.8721 1.02961C14.0736 1.013 14.3542 1 14.739 1C15.1238 1 15.4044 1.013 15.6059 1.02961Z" fill="#272A30"/>
</svg>
