<svg width="20" height="20" viewBox="0 0 20 20" fill="none" xmlns="http://www.w3.org/2000/svg">
<path d="M16.1256 1.56736C16.1055 1.27092 15.902 1.05403 15.6059 1.02961C15.4044 1.013 15.1238 1 14.739 1C14.3542 1 14.0736 1.013 13.8721 1.02961C13.576 1.05403 13.3725 1.27092 13.3524 1.56736C13.334 1.8397 13.318 2.25922 13.318 2.89474L13.318 2.96554C12.3743 2.92174 11.2759 2.89474 10.0019 2.89474C8.72816 2.89474 7.62993 2.92172 6.68632 2.96551L6.68639 2.89474C6.68639 2.25922 6.67035 1.8397 6.65191 1.56736C6.63184 1.27092 6.42834 1.05403 6.13222 1.02961C5.93074 1.013 5.65013 1 5.26533 1C4.88053 1 4.59993 1.013 4.39845 1.02961C4.10233 1.05403 3.89883 1.27092 3.87875 1.56736C3.86031 1.8397 3.84428 2.25922 3.84428 2.89474C3.84428 2.99772 3.8447 3.09503 3.84549 3.18697C3.28547 3.25305 2.84073 3.32284 2.49357 3.38772C1.80876 3.5157 1.32952 4.04112 1.24719 4.7329C1.2344 4.84039 1.2166 4.97453 1.19625 5.12789C1.12938 5.63192 1.03496 6.34365 1 7H19C18.9645 6.33351 18.87 5.60992 18.804 5.10468C18.7852 4.96098 18.7687 4.83494 18.7566 4.7329C18.6742 4.04112 18.195 3.5157 17.5102 3.38772C17.1632 3.32287 16.7186 3.25309 16.1589 3.18703C16.1596 3.09508 16.1601 2.99775 16.1601 2.89474C16.1601 2.25922 16.144 1.8397 16.1256 1.56736Z" fill="#272A30"/>
<path fill-rule="evenodd" clip-rule="evenodd" d="M1.0059 9.39258C1.00206 9.73367 0.999992 10.0937 0.999992 10.4736C0.999992 12.404 1.05329 13.8211 1.1223 14.847C1.2275 16.4109 2.29198 17.5776 3.84871 17.7609C5.17536 17.9172 7.14764 18.0526 9.99999 18.0526C12.8523 18.0526 14.8246 17.9172 16.1513 17.7609C17.708 17.5776 18.7725 16.4109 18.8777 14.847C18.9467 13.8211 19 12.404 19 10.4736C19 10.0937 18.9979 9.73367 18.9941 9.39258H1.0059ZM3.84469 13.3531C3.85434 12.7399 4.24858 12.2817 4.86141 12.2574C4.98114 12.2526 5.11468 12.2498 5.26337 12.2498C5.41206 12.2498 5.5456 12.2526 5.66532 12.2574C6.27816 12.2817 6.67239 12.7399 6.68204 13.3531C6.68356 13.4497 6.68442 13.5554 6.68442 13.6709C6.68442 13.7864 6.68356 13.8921 6.68204 13.9887C6.67239 14.6019 6.27816 15.0601 5.66532 15.0844C5.5456 15.0892 5.41206 15.0919 5.26337 15.0919C5.11468 15.0919 4.98114 15.0892 4.86141 15.0844C4.24858 15.0601 3.85434 14.6019 3.84469 13.9887C3.84317 13.8921 3.84232 13.7864 3.84232 13.6709C3.84232 13.5554 3.84317 13.4497 3.84469 13.3531Z" fill="#272A30"/>
</svg>
