<svg width="20" height="20" viewBox="0 0 20 20" fill="none" xmlns="http://www.w3.org/2000/svg">
<path fill-rule="evenodd" clip-rule="evenodd" d="M6 2.25C6 2.01767 6 1.90151 6.01921 1.80491C6.09812 1.40822 6.40822 1.09812 6.80491 1.01921C6.90151 1 7.01767 1 7.25 1H12.75C12.9823 1 13.0985 1 13.1951 1.01921C13.5918 1.09812 13.9019 1.40822 13.9808 1.80491C14 1.90151 14 2.01767 14 2.25C14 2.48233 14 2.59849 13.9808 2.69509C13.9019 3.09178 13.5918 3.40188 13.1951 3.48079C13.0985 3.5 12.9823 3.5 12.75 3.5H11.25V4.1037C11.9341 4.21847 12.5868 4.42586 13.1948 4.71254C13.7312 4.18033 14.0368 3.91422 14.4069 3.91422C14.8211 3.91422 15.1544 4.24755 15.8211 4.91422L16.5282 5.62133C17.1948 6.28799 17.5282 6.62133 17.5282 7.03554C17.5282 7.40091 17.2688 7.70335 16.7501 8.22714C17.2305 9.21615 17.5 10.3266 17.5 11.5C17.5 15.6421 14.1421 19 10 19C5.85786 19 2.5 15.6421 2.5 11.5C2.5 7.78375 5.20286 4.6988 8.75 4.1037V3.5H7.25C7.01767 3.5 6.90151 3.5 6.80491 3.48079C6.40822 3.40188 6.09812 3.09178 6.01921 2.69509C6 2.59849 6 2.48233 6 2.25ZM9.25038 10.6561C8.74599 11.1051 8.74686 11.8939 9.25224 12.3418C9.74735 12.7807 10.5122 12.7008 10.906 12.1692L14.1097 7.84419C14.286 7.60612 14.2512 7.27277 14.0295 7.07626C13.8128 6.88416 13.4866 6.88452 13.2703 7.0771L9.25038 10.6561Z" fill="#272A30"/>
</svg>
