<svg width="20" height="20" viewBox="0 0 20 20" fill="none" xmlns="http://www.w3.org/2000/svg">
<path d="M4.37258 1.57864C3.60106 0.807119 2.35017 0.807119 1.57864 1.57864C0.807119 2.35017 0.807119 3.60106 1.57864 4.37258L7.20606 10L1.57864 15.6274C0.807119 16.3989 0.807119 17.6498 1.57864 18.4214C2.35017 19.1929 3.60106 19.1929 4.37258 18.4214L10 12.7939L15.6274 18.4214C16.3989 19.1929 17.6498 19.1929 18.4214 18.4214C19.1929 17.6498 19.1929 16.3989 18.4214 15.6274L12.7939 10L18.4214 4.37258C19.1929 3.60106 19.1929 2.35017 18.4214 1.57864C17.6498 0.807119 16.3989 0.807119 15.6274 1.57864L10 7.20606L4.37258 1.57864Z" fill="#272A30"/>
</svg>
