<svg width="20" height="20" viewBox="0 0 20 20" fill="none" xmlns="http://www.w3.org/2000/svg">
<path d="M6.8737 5.3216C6.44506 4.89296 5.75011 4.89296 5.32148 5.3216C4.89284 5.75023 4.89284 6.44519 5.32148 6.87382L8.44789 10.0002L5.32148 13.1266C4.89284 13.5553 4.89284 14.2502 5.32148 14.6789C5.75011 15.1075 6.44506 15.1075 6.8737 14.6789L10.0001 11.5525L13.1265 14.6789C13.5552 15.1075 14.2501 15.1075 14.6787 14.6789C15.1074 14.2502 15.1074 13.5553 14.6787 13.1266L11.5523 10.0002L14.6787 6.87382C15.1074 6.44519 15.1074 5.75023 14.6787 5.3216C14.2501 4.89296 13.5552 4.89296 13.1265 5.3216L10.0001 8.44801L6.8737 5.3216Z" fill="#272A30"/>
</svg>
