<svg width="20" height="20" viewBox="0 0 20 20" fill="none" xmlns="http://www.w3.org/2000/svg">
<path d="M12.6484 7.8516C12.6484 5.96563 14.1502 4.4304 16.0231 4.37651C15.823 4.14436 15.599 3.90203 15.3485 3.65149C14.8765 3.17946 14.4336 2.80174 14.033 2.50025C12.8296 1.59452 11.2726 2.00009 10.2076 3.06509L2.82383 10.4488L8.55111 16.1761L14.0707 10.6566C13.2083 10.0239 12.6484 9.00315 12.6484 7.8516Z" fill="#272A30"/>
<path d="M1.48606 11.7866L1.46798 11.8047C1.26875 12.0039 1.13211 12.2564 1.09923 12.5362C1.01995 13.211 0.916933 14.713 1.11143 17.2273C1.13871 17.5799 1.42005 17.8612 1.77263 17.8885C4.28692 18.083 5.78897 17.98 6.46376 17.9007C6.74358 17.8678 6.99602 17.7312 7.19524 17.532L7.21333 17.5139L1.48606 11.7866Z" fill="#272A30"/>
<path d="M16.4521 5.82499C16.6042 5.85083 16.69 5.98334 16.7004 6.13728C16.7138 6.33608 16.7296 6.67941 16.7366 7.24001C17.2972 7.24695 17.6405 7.26286 17.8393 7.27625C17.9933 7.28662 18.1258 7.37243 18.1516 7.52454C18.1654 7.60566 18.1756 7.71262 18.1756 7.85165C18.1756 7.99067 18.1654 8.09764 18.1516 8.17875C18.1258 8.33086 17.9933 8.41667 17.8393 8.42704C17.6405 8.44044 17.2972 8.45633 16.7366 8.46327C16.7296 9.02386 16.7138 9.36721 16.7004 9.56601C16.69 9.71996 16.6042 9.85246 16.4521 9.87831C16.371 9.89209 16.264 9.90227 16.125 9.90227C15.9859 9.90227 15.879 9.89209 15.7979 9.87831C15.6457 9.85246 15.5599 9.71996 15.5496 9.56601C15.5362 9.36721 15.5203 9.02386 15.5133 8.46327C14.9527 8.45633 14.6094 8.44044 14.4106 8.42704C14.2567 8.41667 14.1241 8.33086 14.0983 8.17875C14.0845 8.09764 14.0743 7.99067 14.0743 7.85165C14.0743 7.71262 14.0845 7.60566 14.0983 7.52454C14.1241 7.37243 14.2567 7.28662 14.4106 7.27625C14.6094 7.26286 14.9527 7.24695 15.5133 7.24001C15.5203 6.67941 15.5362 6.33608 15.5496 6.13728C15.5599 5.98334 15.6457 5.85083 15.7979 5.82499C15.879 5.8112 15.9859 5.80103 16.125 5.80103C16.264 5.80103 16.371 5.8112 16.4521 5.82499Z" fill="#272A30"/>
</svg>
