<svg width="20" height="20" viewBox="0 0 20 20" fill="none" xmlns="http://www.w3.org/2000/svg">
<path d="M7.16852 6.83542C7.16852 8.18133 7.80036 9.34734 8.72218 9.91668C6.84184 10.5334 5.46875 12.4771 5.46875 14.7794C5.46875 15.4858 7.49724 16.0412 9.99951 16.0412C12.5018 16.0412 14.5303 15.4858 14.5303 14.7794C14.5303 12.4775 13.1577 10.5341 11.2778 9.91699C12.1999 9.34777 12.832 8.18158 12.832 6.83542C12.832 4.92893 11.5642 3.95874 10.0002 3.95874C8.43633 3.95874 7.16852 4.92893 7.16852 6.83542Z" fill="#272A30"/>
<path d="M3.15367 9.51331C2.54334 9.13631 2.125 8.36428 2.125 7.47313C2.125 6.21076 2.96446 5.56836 4 5.56836C5.03553 5.56836 5.875 6.21076 5.875 7.47313C5.875 8.36427 5.45666 9.13631 4.84632 9.51331C5.35348 9.67977 5.80489 9.99202 6.16179 10.4067C5.31768 11.2307 4.68744 12.3217 4.37645 13.562C4.25314 13.5663 4.1275 13.5684 4 13.5684C2.34315 13.5684 1 13.2007 1 12.7329C1 11.2087 1.90891 9.92187 3.15367 9.51331Z" fill="#272A30"/>
<path d="M13.8384 10.4059C14.6829 11.23 15.3135 12.3214 15.6245 13.5621C15.7474 13.5663 15.8725 13.5684 15.9995 13.5684C17.6564 13.5684 18.9995 13.2007 18.9995 12.7329C18.9995 11.2087 18.0906 9.92187 16.8458 9.51331C17.4562 9.13631 17.8745 8.36427 17.8745 7.47313C17.8745 6.21076 17.035 5.56836 15.9995 5.56836C14.964 5.56836 14.1245 6.21076 14.1245 7.47313C14.1245 8.36428 14.5429 9.13631 15.1532 9.51331C14.6463 9.67967 14.1952 9.99163 13.8384 10.4059Z" fill="#272A30"/>
</svg>
