<svg width="20" height="20" viewBox="0 0 20 20" fill="none" xmlns="http://www.w3.org/2000/svg">
<path d="M8.98629 3.01774C8.46431 3.00132 7.82073 3 7 3C5.52925 3 4.62738 3.00425 3.97468 3.092C3.40099 3.16913 3.3052 3.27883 3.29383 3.29185L3.29289 3.29289L3.29185 3.29383C3.27883 3.3052 3.16913 3.40099 3.092 3.97468C3.00425 4.62738 3 5.52925 3 7V9C3 10.4708 3.00425 11.3726 3.092 12.0253C3.16913 12.599 3.27884 12.6948 3.29185 12.7062L3.29289 12.7071L3.29383 12.7082C3.3052 12.7212 3.40098 12.8309 3.97468 12.908C4.26034 12.9464 4.59372 12.9688 5.00164 12.9819C5.00585 13.7711 5.0209 14.4294 5.07464 14.9848C3.47611 14.9413 2.53019 14.7728 1.87868 14.1213C1 13.2426 1 11.8284 1 9V7C1 4.17157 1 2.75736 1.87868 1.87868C2.75736 1 4.17157 1 7 1C9.82843 1 11.2426 1 12.1213 1.87868C12.4213 2.17863 12.6188 2.54098 12.7489 3.00069C12.5109 3 12.2615 3 12 3H11C10.2298 3 9.5645 3 8.98629 3.01774Z" fill="#272A30"/>
<path fill-rule="evenodd" clip-rule="evenodd" d="M17 13V11C17 9.52925 16.9958 8.62738 16.908 7.97468C16.8309 7.40098 16.7212 7.3052 16.7082 7.29383L16.7071 7.29289L16.7062 7.29185C16.6948 7.27883 16.599 7.16913 16.0253 7.092C15.3726 7.00425 14.4708 7 13 7C11.5292 7 10.6274 7.00425 9.97468 7.092C9.40099 7.16913 9.3052 7.27883 9.29383 7.29185L9.29289 7.29289L9.29185 7.29383C9.27883 7.3052 9.16913 7.40099 9.092 7.97468C9.00425 8.62738 9 9.52925 9 11V13C9 14.4708 9.00425 15.3726 9.092 16.0253C9.16913 16.599 9.27884 16.6948 9.29185 16.7062L9.29289 16.7071L9.29383 16.7082C9.30519 16.7212 9.40098 16.8309 9.97468 16.908C10.6274 16.9958 11.5292 17 13 17C14.4708 17 15.3726 16.9958 16.0253 16.908C16.599 16.8309 16.6948 16.7212 16.7062 16.7082L16.7071 16.7071L16.7082 16.7062C16.7212 16.6948 16.8309 16.599 16.908 16.0253C16.9958 15.3726 17 14.4708 17 13ZM7.87868 5.87868C7 6.75736 7 8.17157 7 11V13C7 15.8284 7 17.2426 7.87868 18.1213C8.75736 19 10.1716 19 13 19C15.8284 19 17.2426 19 18.1213 18.1213C19 17.2426 19 15.8284 19 13V11C19 8.17157 19 6.75736 18.1213 5.87868C17.2426 5 15.8284 5 13 5C10.1716 5 8.75736 5 7.87868 5.87868Z" fill="#272A30"/>
</svg>
