<svg width="20" height="20" viewBox="0 0 20 20" fill="none" xmlns="http://www.w3.org/2000/svg">
<path d="M3.54756 7.19004C2.27474 6.57948 1.63833 6.2742 1.24526 6.59842C0.852197 6.92265 0.987882 7.64096 1.25925 9.07758L2.0578 14.4718C2.16341 15.0309 2.21621 15.3104 2.39826 15.4962C2.5803 15.6819 2.84883 15.7303 3.38588 15.827L9.72224 16.9679C9.86078 16.9928 9.92497 17 9.99492 17C10.0649 17 10.1392 16.9928 10.2778 16.9679L16.6141 15.827C17.1512 15.7303 17.4197 15.6819 17.6017 15.4962C17.7838 15.3104 17.8366 15.0309 17.9422 14.4718L18.7407 9.07758C19.0121 7.64096 19.1478 6.92265 18.7547 6.59842C18.3617 6.2742 17.7253 6.57948 16.4524 7.19004L15.081 7.8479C14.4634 8.14416 14.1546 8.29229 13.8607 8.20176C13.5667 8.11122 13.384 7.8117 13.0186 7.21266L11.38 4.52663C10.7591 3.50888 10.4487 3 10 3C9.55132 3 9.24088 3.50888 8.62002 4.52663L6.98145 7.21266C6.61601 7.8117 6.43329 8.11122 6.13935 8.20176C5.8454 8.29229 5.5366 8.14416 4.91899 7.8479L3.54756 7.19004Z" fill="#272A30"/>
</svg>
