<svg width="20" height="20" viewBox="0 0 20 20" fill="none" xmlns="http://www.w3.org/2000/svg">
<path fill-rule="evenodd" clip-rule="evenodd" d="M9.99801 16.854C7.77123 16.645 5.49809 14.9889 3.81365 13.5576C3.76744 13.5183 3.72113 13.479 3.67478 13.4397C2.3536 12.3185 1 11.1697 1 10C1 8.83028 2.3536 7.68155 3.67478 6.56034C3.72113 6.521 3.76744 6.4817 3.81365 6.44243C5.49809 5.0111 7.77123 3.35501 9.99801 3.14599C10.9025 3.06108 11.8233 3 12.7571 3C13.4533 3 14.0592 3.03394 14.6241 3.08639C16.8511 3.29319 18.6542 5.1223 18.8572 7.28833C18.9405 8.17719 19 9.08213 19 10C19 10.9179 18.9405 11.8228 18.8572 12.7117C18.6542 14.8777 16.8511 16.7068 14.6241 16.9136C14.0592 16.9661 13.4533 17 12.7571 17C11.8233 17 10.9025 16.9389 9.99801 16.854ZM8.43147 6.725C8.74008 6.42497 9.24044 6.42497 9.54905 6.725L11.8 8.91344L14.051 6.725C14.3596 6.42497 14.8599 6.42497 15.1686 6.725C15.4772 7.02504 15.4772 7.5115 15.1686 7.81154L12.9176 9.99998L15.1686 12.1884C15.4772 12.4885 15.4772 12.9749 15.1686 13.2749C14.8599 13.575 14.3596 13.575 14.051 13.2749L11.8 11.0865L9.54905 13.2749C9.24044 13.575 8.74008 13.575 8.43147 13.2749C8.12286 12.9749 8.12286 12.4885 8.43147 12.1884L10.6824 9.99998L8.43147 7.81154C8.12286 7.5115 8.12286 7.02504 8.43147 6.725Z" fill="#272A30"/>
</svg>
