<svg width="20" height="20" viewBox="0 0 20 20" fill="none" xmlns="http://www.w3.org/2000/svg">
<path d="M5.38281 11.9141H6.875C7.49219 14.5156 9.70312 15.8359 12.7188 15.8359C13.3203 15.8359 13.9531 15.7891 14.3516 15.6953V13.7969C13.9609 13.875 13.3125 13.9062 12.8047 13.9062C11.0469 13.9062 9.78125 13.2578 9.26562 11.9141H13.4766V11.0156H9.04688C9.01562 10.8125 9.00781 10.6016 9.00781 10.3672V10.3594C9.00781 10.1484 9.01562 9.94531 9.03906 9.75H13.4766V8.85156H9.25C9.76562 7.49219 11.0312 6.8125 12.75 6.8125C13.3047 6.8125 13.9062 6.86719 14.3203 6.95312V5.07031C13.9141 4.95312 13.2344 4.89062 12.6641 4.89062C9.67969 4.89062 7.46094 6.23438 6.86719 8.85156H5.38281V9.75H6.73438C6.71875 9.94531 6.71094 10.1484 6.71094 10.3516V10.3594C6.71094 10.5859 6.71875 10.8047 6.73438 11.0156H5.38281V11.9141Z" fill="#272A30"/>
</svg>
