<svg width="20" height="20" viewBox="0 0 20 20" fill="none" xmlns="http://www.w3.org/2000/svg">
<path fill-rule="evenodd" clip-rule="evenodd" d="M10.6739 7.86369C10.5174 7.6553 10.2564 7.49808 9.99533 7.49808C9.73429 7.49808 9.47325 7.6553 9.31677 7.86369C9.21221 7.54999 9.00382 7.2897 8.74278 7.08057H11.2479C10.9868 7.2897 10.7785 7.54999 10.6739 7.86369ZM16.3626 9.53381L16.4153 8.85525C16.4153 7.75918 15.5803 6.87149 14.4842 6.81958H5.50647C4.4104 6.87149 3.52345 7.75918 3.57536 8.85525V9.53381C3.52345 10.8909 4.61953 11.987 5.92399 12.0389C7.90775 11.987 9.42134 10.3169 9.36868 8.38508C9.36868 8.07213 9.57781 7.75918 9.94342 7.75918C10.2564 7.75918 10.5693 7.96831 10.5693 8.33317V8.38508C10.5174 10.3688 12.031 11.987 14.014 12.0389C15.3711 11.987 16.4153 10.8909 16.3626 9.53381ZM2.72239 8.38584C2.72239 4.37531 5.98465 1.1123 9.99518 1.1123C14.0057 1.1123 17.268 4.37531 17.268 8.38584C17.268 12.3956 14.0057 15.6586 9.99518 15.6586C5.98465 15.6586 2.72239 12.3956 2.72239 8.38584ZM13.8915 17.942L13.3984 17.5186L15.0388 15.6809L13.8915 17.942ZM6.04176 18.1704L4.91379 15.8789L6.5097 17.7359L6.04176 18.1704ZM18.3804 8.38592C18.3804 3.7621 14.619 0 9.99518 0C5.37136 0 1.61 3.7621 1.61 8.38592C1.61 10.7924 2.63488 12.9593 4.26416 14.4892L3.57003 15.6691L5.70285 20L8.05221 17.8249L6.46965 15.9828C7.54274 16.4834 8.73448 16.7711 9.99518 16.7711C11.0994 16.7711 12.1525 16.5509 13.1195 16.1608L11.8121 17.6247L14.2415 19.7078L16.3699 15.5163L15.7529 14.4655C17.3666 12.9371 18.3804 10.7798 18.3804 8.38592Z" fill="#272A30"/>
</svg>
