<svg width="20" height="20" viewBox="0 0 20 20" fill="none" xmlns="http://www.w3.org/2000/svg">
<path d="M6.56272 9.17235C7.25429 8.09966 8.08473 7.04356 9.00857 6.06864C8.19832 6.04662 7.21431 6.15896 6.3073 6.30989L5.87056 3.35356C5.80289 2.89549 5.30552 2.66486 4.97397 2.96568C3.18571 4.58821 1.69014 7.38807 1.02275 10.1034C0.916061 10.5375 1.29401 10.9267 1.71589 10.8381L4.09999 10.3371C4.0967 11.6925 4.21447 12.9949 4.41008 14.3529C4.48681 14.8855 5.12411 15.0687 5.43502 14.6461C5.88705 14.0316 6.30302 13.4218 6.68282 12.8254C5.92991 11.8056 5.79919 10.3566 6.56272 9.17235Z" fill="#272A30"/>
<path d="M8.93103 11.5851L11.6933 11.9309C11.1855 13.394 10.8281 14.845 10.5342 16.385C10.419 16.989 11.0394 17.424 11.5325 17.0831C15.2238 14.5312 17.8369 11.7563 18.9067 10.0509C19.1142 9.71999 18.9781 9.29509 18.6254 9.16063C17.7522 8.82771 16.6289 8.57803 15.5765 8.40091L16.2046 5.04429C16.3019 4.5242 15.8503 4.08997 15.3802 4.29163C12.8444 5.37933 10.1868 7.84798 8.45548 10.5334C8.1787 10.9627 8.44224 11.5239 8.93103 11.5851Z" fill="#272A30"/>
</svg>
