<svg width="20" height="20" viewBox="0 0 20 20" fill="none" xmlns="http://www.w3.org/2000/svg">
<path fill-rule="evenodd" clip-rule="evenodd" d="M13.6575 1.88428C12.5801 1.23836 11.2961 1 10 1C6.90289 1 5.0573 1.12314 4.01141 1.23741C3.23659 1.32206 2.63913 1.85344 2.49405 2.6287C2.26822 3.83549 2 6.09152 2 10C2 13.9085 2.26822 16.1645 2.49405 17.3713C2.63913 18.1466 3.23659 18.6779 4.01141 18.7626C5.0573 18.8769 6.9029 19 10 19C13.0971 19 14.9427 18.8769 15.9886 18.7626C16.7634 18.6779 17.3609 18.1466 17.5059 17.3713C17.7318 16.1645 18 13.9085 18 10C18 9.78561 17.9992 9.57619 17.9976 9.37164C17.9878 8.07959 17.7675 6.798 17.2101 5.67008C16.5816 5.64357 15.9573 5.55591 15.3717 5.39883C14.7816 5.24052 14.3215 4.83681 14.1223 4.32397C13.8281 3.56646 13.6653 2.70832 13.6575 1.88428ZM5 10C5 9.44771 5.44772 9 6 9H10C10.5523 9 11 9.44771 11 10C11 10.5523 10.5523 11 10 11H6C5.44772 11 5 10.5523 5 10ZM5 14C5 13.4477 5.44772 13 6 13H14C14.5523 13 15 13.4477 15 14C15 14.5523 14.5523 15 14 15H6C5.44772 15 5 14.5523 5 14Z" fill="#272A30"/>
</svg>
