<svg width="20" height="20" viewBox="0 0 20 20" fill="none" xmlns="http://www.w3.org/2000/svg">
<path d="M9.79998 3.25C9.79998 4.49264 10.8073 5.5 12.05 5.5C13.2926 5.5 14.3 4.49264 14.3 3.25C14.3 2.00736 13.2926 1 12.05 1C10.8073 1 9.79998 2.00736 9.79998 3.25Z" fill="#272A30"/>
<path d="M5.5 10C5.5 11.2426 6.50736 12.25 7.75 12.25C8.99264 12.25 10 11.2426 10 10C10 8.75736 8.99264 7.75 7.75 7.75C6.50736 7.75 5.5 8.75736 5.5 10Z" fill="#272A30"/>
<path d="M10 16.75C10 17.9926 11.0074 19 12.25 19C13.4926 19 14.5 17.9926 14.5 16.75C14.5 15.5074 13.4926 14.5 12.25 14.5C11.0074 14.5 10 15.5074 10 16.75Z" fill="#272A30"/>
<path d="M7.68997 4.36807C7.59857 4.01058 7.54998 3.63597 7.54998 3.25C7.54998 2.86403 7.59857 2.48942 7.68997 2.13193C5.41636 2.1433 2.8443 2.16554 1.84152 2.17459C1.55724 2.17716 1.27285 2.25552 1.15865 2.47867C1.07376 2.64452 1 2.89172 1 3.25C1 3.60828 1.07376 3.85548 1.15865 4.02133C1.27285 4.24448 1.55724 4.32284 1.84152 4.32541C2.8443 4.33446 5.41636 4.3567 7.68997 4.36807Z" fill="#272A30"/>
<path d="M14.0086 4.3581C12.6303 4.36721 11.1951 4.37455 10.101 4.37498C9.90955 4.04404 9.79998 3.65981 9.79998 3.25C9.79998 2.84019 9.90955 2.45596 10.101 2.12502C11.1951 2.12545 12.6303 2.13279 14.0086 2.1419C14.1941 2.469 14.3 2.84713 14.3 3.25C14.3 3.65287 14.1941 4.031 14.0086 4.3581Z" fill="#272A30"/>
<path d="M16.417 4.34029C17.1581 4.3343 17.7738 4.32888 18.1585 4.32541C18.4428 4.32284 18.7271 4.24448 18.8414 4.02133C18.9262 3.85548 19 3.60828 19 3.25C19 2.89172 18.9262 2.64452 18.8414 2.47867C18.7271 2.25552 18.4428 2.17716 18.1585 2.17459C17.7738 2.17112 17.1581 2.1657 16.417 2.15971C16.5039 2.5088 16.55 2.87402 16.55 3.25C16.55 3.62598 16.5039 3.9912 16.417 4.34029Z" fill="#272A30"/>
<path d="M7.89024 17.869C7.79868 17.5113 7.75 17.1363 7.75 16.75C7.75 16.3637 7.79868 15.9887 7.89024 15.631C5.56939 15.642 2.87387 15.6653 1.84152 15.6746C1.55724 15.6772 1.27285 15.7555 1.15865 15.9787C1.07376 16.1445 1 16.3917 1 16.75C1 17.1083 1.07376 17.3555 1.15865 17.5213C1.27285 17.7445 1.55724 17.8228 1.84152 17.8254C2.87386 17.8347 5.56939 17.858 7.89024 17.869Z" fill="#272A30"/>
<path d="M14.2094 17.8568C12.8529 17.8659 11.4218 17.8736 10.3009 17.8748C10.1095 17.5439 10 17.1598 10 16.75C10 16.3402 10.1095 15.9561 10.3009 15.6252C11.4218 15.6264 12.8529 15.6341 14.2094 15.6432C14.3944 15.97 14.5 16.3477 14.5 16.75C14.5 17.1523 14.3944 17.53 14.2094 17.8568Z" fill="#272A30"/>
<path d="M16.6174 17.8387C17.269 17.8333 17.809 17.8286 18.1585 17.8254C18.4428 17.8228 18.7271 17.7445 18.8414 17.5213C18.9262 17.3555 19 17.1083 19 16.75C19 16.3917 18.9262 16.1445 18.8414 15.9787C18.7271 15.7555 18.4428 15.6772 18.1585 15.6746C17.809 15.6714 17.269 15.6667 16.6174 15.6613C16.704 16.0099 16.75 16.3746 16.75 16.75C16.75 17.1254 16.704 17.4901 16.6174 17.8387Z" fill="#272A30"/>
<path d="M3.38258 11.0887C3.29597 10.7401 3.25 10.3754 3.25 10C3.25 9.6246 3.29597 9.25994 3.38258 8.91134C2.73101 8.91668 2.19097 8.92144 1.84152 8.92459C1.55724 8.92716 1.27285 9.00552 1.15865 9.22867C1.07376 9.39452 1 9.64172 1 10C1 10.3583 1.07376 10.6055 1.15865 10.7713C1.27285 10.9945 1.55724 11.0728 1.84152 11.0754C2.19097 11.0786 2.73101 11.0833 3.38258 11.0887Z" fill="#272A30"/>
<path d="M9.69909 11.1248C8.57821 11.1236 7.14711 11.1159 5.79057 11.1068C5.60559 10.78 5.5 10.4023 5.5 10C5.5 9.59768 5.60559 9.22003 5.79057 8.89324C7.14711 8.88407 8.57821 8.8764 9.69909 8.87517C9.89047 9.20608 10 9.59025 10 10C10 10.4098 9.89047 10.7939 9.69909 11.1248Z" fill="#272A30"/>
<path d="M12.1098 11.119C14.4306 11.108 17.1261 11.0847 18.1585 11.0754C18.4428 11.0728 18.7271 10.9945 18.8414 10.7713C18.9262 10.6055 19 10.3583 19 10C19 9.64172 18.9262 9.39452 18.8414 9.22867C18.7271 9.00552 18.4428 8.92716 18.1585 8.92459C17.1261 8.91527 14.4306 8.89197 12.1098 8.88096C12.2013 9.23873 12.25 9.61368 12.25 10C12.25 10.3863 12.2013 10.7613 12.1098 11.119Z" fill="#272A30"/>
</svg>
