<svg width="20" height="20" viewBox="0 0 20 20" fill="none" xmlns="http://www.w3.org/2000/svg">
<path d="M5.01962 1.00781C5.80786 0.943675 6.57315 1.27818 7.09074 1.87981L7.81586 2.72265C8.14148 3.10115 8.61445 3.31862 9.11195 3.31862H14.749C16.0871 3.31862 17.2011 4.3512 17.2435 5.69692C17.2691 6.50684 17.2853 7.4662 17.2857 8.59862C16.3901 8.12522 15.3692 7.85716 14.2857 7.85716C10.7353 7.85716 7.85716 10.7353 7.85716 14.2857C7.85716 15.0348 7.98527 15.7539 8.22078 16.4224C5.29028 16.3824 3.52051 16.1547 2.51887 15.9569C1.78673 15.8123 1.29223 15.2297 1.21596 14.4829C1.11225 13.4672 1 11.6693 1 8.64454C1 5.61976 1.11225 3.82184 1.21596 2.80622C1.29223 2.05938 1.78725 1.47667 2.5194 1.33209C3.08472 1.22046 3.89462 1.09934 5.01962 1.00781Z" fill="#272A30"/>
<path fill-rule="evenodd" clip-rule="evenodd" d="M14.2857 9.57143C16.8893 9.57143 19 11.6821 19 14.2857C19 16.8893 16.8893 19 14.2857 19C11.6821 19 9.57142 16.8893 9.57142 14.2857C9.57142 11.6821 11.6821 9.57143 14.2857 9.57143ZM14.2854 11.6841C14.539 11.6841 14.7445 11.8897 14.7445 12.1433V13.827H16.4282C16.6818 13.827 16.8874 14.0326 16.8874 14.2862C16.8874 14.5398 16.6818 14.7453 16.4282 14.7453H14.7445V16.429C14.7445 16.6826 14.539 16.8882 14.2854 16.8882C14.0318 16.8882 13.8262 16.6826 13.8262 16.429V14.7453H12.1425C11.8889 14.7453 11.6833 14.5398 11.6833 14.2862C11.6833 14.0326 11.8889 13.827 12.1425 13.827H13.8262V12.1433C13.8262 11.8897 14.0318 11.6841 14.2854 11.6841Z" fill="#272A30"/>
</svg>
