<svg width="20" height="20" viewBox="0 0 20 20" fill="none" xmlns="http://www.w3.org/2000/svg">
<path fill-rule="evenodd" clip-rule="evenodd" d="M1.03695 2.72261C1.08612 1.80261 1.80263 1.08611 2.72263 1.03695C4.64778 0.934072 6.92795 1.07074 7.96241 1.14683C8.30414 1.17197 8.59493 1.40194 8.65345 1.73956C8.7118 2.07618 8.75008 2.52058 8.66354 2.93306C8.60688 3.20313 8.362 3.37587 8.08754 3.40437C6.91228 3.5264 4.87675 3.55479 3.99326 3.5614C3.7551 3.56318 3.56322 3.75506 3.56144 3.99322C3.55483 4.87672 3.52644 6.91228 3.40439 8.08755C3.37588 8.36201 3.20314 8.60687 2.93309 8.66354C2.5206 8.75008 2.0762 8.7118 1.73957 8.65345C1.40195 8.59493 1.17198 8.30414 1.14684 7.96241C1.07074 6.92795 0.934067 4.64776 1.03695 2.72261Z" fill="#272A30"/>
<path fill-rule="evenodd" clip-rule="evenodd" d="M18.963 2.72261C18.9139 1.80261 18.1974 1.08611 17.2774 1.03695C15.3522 0.934072 13.0721 1.07074 12.0376 1.14683C11.6959 1.17197 11.4051 1.40194 11.3465 1.73956C11.2882 2.07618 11.2499 2.52058 11.3365 2.93306C11.3931 3.20313 11.638 3.37587 11.9125 3.40437C13.0877 3.5264 15.1232 3.55479 16.0067 3.5614C16.2449 3.56318 16.4368 3.75506 16.4386 3.99322C16.4452 4.87672 16.4736 6.91228 16.5956 8.08755C16.6241 8.36201 16.7969 8.60687 17.0669 8.66354C17.4794 8.75008 17.9238 8.7118 18.2604 8.65345C18.598 8.59493 18.828 8.30414 18.8532 7.96241C18.9293 6.92795 19.0659 4.64776 18.963 2.72261Z" fill="#272A30"/>
<path fill-rule="evenodd" clip-rule="evenodd" d="M18.963 17.2774C18.9139 18.1974 18.1974 18.9139 17.2774 18.9631C15.3522 19.0659 13.0721 18.9293 12.0376 18.8532C11.6959 18.828 11.4051 18.5981 11.3465 18.2604C11.2882 17.9238 11.2499 17.4794 11.3365 17.0669C11.3931 16.7969 11.638 16.6241 11.9125 16.5956C13.0877 16.4736 15.1232 16.4452 16.0067 16.4386C16.2449 16.4368 16.4368 16.2449 16.4386 16.0068C16.4452 15.1233 16.4736 13.0877 16.5956 11.9125C16.6241 11.638 16.7969 11.3931 17.0669 11.3365C17.4794 11.2499 17.9238 11.2882 18.2604 11.3465C18.598 11.4051 18.828 11.6959 18.8532 12.0376C18.9293 13.0721 19.0659 15.3522 18.963 17.2774Z" fill="#272A30"/>
<path fill-rule="evenodd" clip-rule="evenodd" d="M1.03695 17.2774C1.08612 18.1974 1.80263 18.9139 2.72263 18.9631C4.64778 19.0659 6.92795 18.9293 7.96241 18.8532C8.30414 18.828 8.59493 18.5981 8.65345 18.2604C8.7118 17.9238 8.75008 17.4794 8.66354 17.0669C8.60688 16.7969 8.36201 16.6241 8.08754 16.5956C6.91228 16.4736 4.87675 16.4452 3.99326 16.4386C3.7551 16.4368 3.56322 16.2449 3.56144 16.0068C3.55483 15.1233 3.52644 13.0877 3.40439 11.9125C3.37588 11.638 3.20314 11.3931 2.93309 11.3365C2.5206 11.2499 2.0762 11.2882 1.73957 11.3465C1.40195 11.4051 1.17198 11.6959 1.14684 12.0376C1.07074 13.0721 0.934067 15.3522 1.03695 17.2774Z" fill="#272A30"/>
</svg>
