<svg width="20" height="20" viewBox="0 0 20 20" fill="none" xmlns="http://www.w3.org/2000/svg">
<path d="M11.8532 17.3102C11.8352 17.2224 11.8173 17.1347 11.7998 17.0471L16.1743 12.6725C16.2185 12.7774 16.2573 12.8861 16.2917 12.9979C16.4928 13.6603 16.5107 14.3407 16.4704 15.0211C16.4233 15.8527 16.2554 16.6634 16.0879 17.4716C16.0648 17.583 16.0418 17.6944 16.019 17.8058C15.9877 17.9545 15.9788 18.1078 15.9788 18.261C15.9877 18.7611 16.3498 19.0675 16.8414 18.9819C17.3644 18.8918 17.7264 18.5899 17.9276 18.1032C18.2628 17.2967 18.5444 16.4721 18.7321 15.6204C18.978 14.5164 19.0897 13.3989 18.9154 12.2724C18.818 11.6422 18.639 11.0477 18.3472 10.4996L18.7709 10.0759C19.0394 9.80745 19.0394 9.37215 18.7709 9.10366C18.5024 8.83518 18.0671 8.83518 17.7986 9.10366L17.521 9.38134L17.5067 9.36713L15.277 11.5968L15.2946 11.6077L11.5342 15.3681L11.5317 15.3421L9.69819 17.1756L9.70567 17.1966L9.37456 17.5277C9.10607 17.7962 9.10607 18.2315 9.37456 18.5C9.63091 18.7564 10.0393 18.7679 10.3094 18.5348C10.5586 18.8071 10.9291 18.9967 11.2677 19C11.7012 19 12.0052 18.7296 11.9918 18.288C11.9828 17.9636 11.9202 17.6346 11.8532 17.3102Z" fill="#272A30"/>
<path d="M9.00149 13.5747C9.0115 14.2885 9.10415 14.9855 9.25906 15.6702L11.6028 13.3265C11.6521 13.0979 11.7215 12.8723 11.8174 12.6509C12.173 11.8315 12.7852 11.3921 13.635 11.2943L16.3718 8.5575C16.2929 8.51845 16.2126 8.48154 16.1307 8.44678C14.982 7.9466 13.7797 7.87 12.5639 8.19894C11.7816 8.40908 11.1133 8.76708 10.5677 9.27811C10.6284 9.06059 10.6834 8.84141 10.7321 8.62041C10.978 7.51642 11.0897 6.39892 10.9154 5.2724C10.7768 4.3757 10.4729 3.55109 9.91418 2.83012C9.44039 2.21278 8.84144 1.74866 8.13075 1.44675C6.98202 0.94658 5.77966 0.869979 4.56388 1.19892C3.20508 1.56391 2.19044 2.375 1.56468 3.65923C1.22051 4.36668 1.04619 5.11919 1.00596 5.90325C0.99703 6.05328 0.999992 6.20132 1.00297 6.35002C1.00446 6.42462 1.00596 6.49938 1.00596 6.57465H1.00149C1.01937 7.84987 1.30096 9.07101 1.73006 10.2651C1.80886 10.4812 1.89211 10.695 1.9751 10.9082C2.00979 10.9973 2.04444 11.0863 2.0787 11.1753C2.25749 11.6259 2.79386 11.9954 3.26765 12C3.70122 12 4.00516 11.7296 3.99175 11.288C3.98281 10.9636 3.92024 10.6346 3.85319 10.3102C3.66546 9.39545 3.49561 8.48522 3.49114 7.54796C3.49114 6.89909 3.55372 6.25923 3.81743 5.65091C4.19289 4.78575 4.85442 4.34415 5.77966 4.28107C6.3205 4.24502 6.84346 4.32162 7.31278 4.61902C7.8268 4.94346 8.11734 5.43011 8.29166 5.99788C8.4928 6.66027 8.51068 7.34068 8.47045 8.0211C8.42331 8.85268 8.25536 9.66338 8.08793 10.4716C8.06484 10.583 8.04176 10.6944 8.019 10.8058C7.98772 10.9545 7.97878 11.1078 7.97878 11.261C7.98772 11.7611 8.34977 12.0675 8.84144 11.9819C8.94638 11.9638 9.04484 11.9372 9.13682 11.9023C9.06605 12.2293 9.0234 12.5633 9.00596 12.9033C8.99703 13.0533 8.99999 13.2013 9.00297 13.35C9.00446 13.4246 9.00596 13.4994 9.00596 13.5747H9.00149Z" fill="#272A30"/>
</svg>
