<svg width="20" height="20" viewBox="0 0 20 20" fill="none" xmlns="http://www.w3.org/2000/svg">
<path d="M1.00149 6.57464C1.0115 7.28852 1.10415 7.98545 1.25906 8.67018L3.60276 6.32649C3.65213 6.09784 3.72146 5.87228 3.81743 5.6509C4.17302 4.83152 4.7852 4.39207 5.63498 4.29426L8.37177 1.55747C8.29292 1.51843 8.21258 1.48151 8.13075 1.44675C6.98202 0.946581 5.77966 0.869978 4.56388 1.19892C3.20508 1.56391 2.19044 2.375 1.56468 3.65922C1.22051 4.36667 1.04619 5.11919 1.00596 5.90324C0.997029 6.05326 0.999992 6.20129 1.00297 6.34998C1.00446 6.42457 1.00596 6.49937 1.00596 6.57464H1.00149Z" fill="#272A30"/>
<path d="M1.37456 11.5C1.63091 11.7563 2.03933 11.7679 2.30943 11.5348C2.55859 11.8071 2.9291 11.9967 3.26765 11.9999C3.70122 11.9999 4.00516 11.7296 3.99175 11.288C3.98281 10.9635 3.92024 10.6346 3.85319 10.3102C3.83518 10.2224 3.81734 10.1347 3.79979 10.047L8.17433 5.67249C8.21849 5.77739 8.25733 5.88606 8.29166 5.99787C8.4928 6.66026 8.51068 7.34067 8.47045 8.02108C8.42331 8.85266 8.25536 9.66336 8.08793 10.4715L8.08771 10.4726C8.06469 10.5837 8.04168 10.6948 8.019 10.8058C7.98771 10.9545 7.97877 11.1077 7.97877 11.2609C7.98771 11.7611 8.34977 12.0675 8.84144 11.9819C8.94638 11.9638 9.04484 11.9372 9.13682 11.9023C9.06605 12.2293 9.0234 12.5633 9.00596 12.9032C8.99703 13.0533 8.99999 13.2013 9.00297 13.35C9.00446 13.4246 9.00596 13.4994 9.00596 13.5746H9.00149C9.01937 14.8498 9.30096 16.071 9.73006 17.2651C9.80887 17.4812 9.89212 17.695 9.97511 17.9082C10.0098 17.9973 10.0444 18.0863 10.0787 18.1753C10.2575 18.6259 10.7939 18.9954 11.2677 18.9999C11.7012 18.9999 12.0052 18.7296 11.9918 18.288C11.9828 17.9635 11.9202 17.6346 11.8532 17.3102C11.6655 16.3954 11.4956 15.4852 11.4911 14.5479C11.4911 13.8991 11.5537 13.2592 11.8174 12.6509C12.1929 11.7857 12.8544 11.3441 13.7797 11.281C14.3205 11.245 14.8435 11.3216 15.3128 11.619C15.8268 11.9434 16.1173 12.4301 16.2917 12.9979C16.4928 13.6602 16.5107 14.3407 16.4704 15.0211C16.4233 15.8527 16.2554 16.6634 16.0879 17.4715C16.0648 17.583 16.0418 17.6944 16.019 17.8058C15.9877 17.9545 15.9788 18.1077 15.9788 18.2609C15.9877 18.7611 16.3498 19.0675 16.8414 18.9819C17.3644 18.8918 17.7264 18.5899 17.9276 18.1032C18.2628 17.2966 18.5444 16.472 18.7321 15.6204C18.978 14.5164 19.0897 13.3989 18.9154 12.2724C18.7768 11.3757 18.4729 10.5511 17.9142 9.83009C17.4404 9.21276 16.8414 8.74864 16.1307 8.44673C14.982 7.94656 13.7797 7.86995 12.5639 8.1989C11.7816 8.40903 11.1134 8.76704 10.5677 9.27806C10.6284 9.06055 10.6834 8.84138 10.7321 8.62039C10.978 7.51641 11.0897 6.39891 10.9154 5.27239C10.818 4.64221 10.639 4.04764 10.3472 3.49962L10.7709 3.07591C11.0394 2.80743 11.0394 2.37213 10.7709 2.10364C10.5024 1.83515 10.0671 1.83515 9.79864 2.10364L9.52097 2.38131L9.50668 2.3671L7.27697 4.59681L7.29464 4.60764L3.53419 8.36809L3.53172 8.34207L1.69819 10.1756L1.70567 10.1966L1.37456 10.5277C1.10607 10.7962 1.10607 11.2315 1.37456 11.5Z" fill="#272A30"/>
</svg>
