<svg width="20" height="20" viewBox="0 0 20 20" fill="none" xmlns="http://www.w3.org/2000/svg">
<path fill-rule="evenodd" clip-rule="evenodd" d="M10 17C13.866 17 17 13.866 17 10C17 6.13401 13.866 3 10 3C6.13401 3 3 6.13401 3 10C3 13.866 6.13401 17 10 17ZM10 19C14.9706 19 19 14.9706 19 10C19 5.02944 14.9706 1 10 1C5.02944 1 1 5.02944 1 10C1 14.9706 5.02944 19 10 19Z" fill="#272A30"/>
<rect width="18" height="2" rx="1" transform="matrix(0.707107 -0.707107 -0.707107 -0.707107 4.34314 17.071)" fill="#272A30"/>
<rect width="18" height="2" rx="1" transform="matrix(0.707107 0.707107 0.707107 -0.707107 2.92892 4.34311)" fill="#272A30"/>
</svg>
