<svg width="20" height="20" viewBox="0 0 20 20" fill="none" xmlns="http://www.w3.org/2000/svg">
<path fill-rule="evenodd" clip-rule="evenodd" d="M3.64657 3.62553C5.27441 2.00303 7.52007 1 10 1C12.4833 1 14.7317 2.00574 16.36 3.63211L16.364 3.63602L16.3674 3.63946C17.9941 5.26787 19 7.51646 19 10C19 14.9706 14.9706 19 10 19C5.02944 19 1 14.9706 1 10C1 7.52 2.00308 5.27428 3.62567 3.64643C3.62909 3.6429 3.63255 3.6394 3.63603 3.63591C3.63952 3.63242 3.64304 3.62896 3.64657 3.62553ZM15.6064 14.1921C16.4816 13.0235 17 11.5723 17 10C17 8.42766 16.4816 6.9764 15.6064 5.80781L11.4143 9.99993L15.6064 14.1921ZM14.1922 15.6063C13.0236 16.4816 11.5724 17 10 17C8.42766 17 6.9764 16.4816 5.80781 15.6064L10 11.4141L14.1922 15.6063ZM8.58583 9.99993L4.3936 14.1922C3.5184 13.0236 3 11.5723 3 10C3 8.42763 3.51842 6.97635 4.39367 5.80776L8.58583 9.99993ZM10 8.58571L14.1922 4.3936C13.0236 3.5184 11.5723 3 10 3C8.4277 3 6.97647 3.51838 5.8079 4.39356L10 8.58571Z" fill="#272A30"/>
</svg>
