<svg width="20" height="20" viewBox="0 0 20 20" fill="none" xmlns="http://www.w3.org/2000/svg">
<path d="M11.7998 17.047C11.8173 17.1347 11.8352 17.2224 11.8532 17.3102C11.9202 17.6346 11.9828 17.9635 11.9918 18.288C12.0052 18.7296 11.7012 18.9999 11.2677 18.9999C10.9291 18.9967 10.5586 18.8071 10.3094 18.5348C10.0393 18.7679 9.63091 18.7563 9.37456 18.5C9.10608 18.2315 9.10608 17.7962 9.37456 17.5277L9.70567 17.1966L9.69819 17.1756L11.5317 15.3421C11.5325 15.3507 11.5334 15.3594 11.5342 15.3681L15.2946 11.6076C15.2888 11.604 15.2829 11.6004 15.277 11.5968L17.5067 9.3671C17.5115 9.37183 17.5162 9.37656 17.521 9.38131L17.7986 9.10364C18.0671 8.83515 18.5024 8.83515 18.7709 9.10364C19.0394 9.37212 19.0394 9.80743 18.7709 10.0759L18.3472 10.4996C18.639 11.0476 18.818 11.6422 18.9154 12.2724C19.0897 13.3989 18.978 14.5164 18.7321 15.6204C18.5444 16.472 18.2628 17.2966 17.9276 18.1032C17.7264 18.5899 17.3644 18.8918 16.8414 18.9819C16.3498 19.0675 15.9877 18.7611 15.9788 18.2609C15.9788 18.1077 15.9877 17.9545 16.019 17.8058C16.0418 17.6944 16.0648 17.583 16.0879 17.4715C16.2554 16.6634 16.4233 15.8527 16.4704 15.0211C16.5107 14.3407 16.4928 13.6603 16.2917 12.9979C16.2573 12.8861 16.2185 12.7774 16.1743 12.6725L11.7998 17.047Z" fill="#272A30"/>
<path d="M9.25906 15.6702C9.10415 14.9855 9.0115 14.2885 9.00149 13.5746H9.00596C9.00596 13.4994 9.00446 13.4246 9.00297 13.35C8.99999 13.2013 8.99703 13.0533 9.00596 12.9032C9.0234 12.5633 9.06605 12.2293 9.13682 11.9023C9.04484 11.9372 8.94638 11.9638 8.84144 11.9819C8.34977 12.0675 7.98772 11.7611 7.97878 11.2609C7.97878 11.1077 7.98772 10.9545 8.019 10.8058C8.04163 10.695 8.06458 10.5842 8.08755 10.4734L8.08793 10.4715C8.25536 9.66336 8.42331 8.85266 8.47045 8.02108C8.51068 7.34067 8.4928 6.66026 8.29166 5.99787C8.25733 5.88606 8.21849 5.77739 8.17433 5.67249L3.79979 10.047C3.81734 10.1347 3.83519 10.2224 3.85319 10.3102C3.92024 10.6346 3.98282 10.9635 3.99176 11.288C4.00516 11.7296 3.70122 11.9999 3.26766 11.9999C2.9291 11.9967 2.55859 11.8071 2.30943 11.5348C2.03933 11.7679 1.63091 11.7563 1.37456 11.5C1.10608 11.2315 1.10608 10.7962 1.37456 10.5277L1.70567 10.1966L1.69819 10.1756L3.53172 8.34207L3.53419 8.36809L7.29464 4.60764L7.27697 4.59681L9.50668 2.3671L9.52097 2.38131L9.79864 2.10364C10.0671 1.83515 10.5024 1.83515 10.7709 2.10364C11.0394 2.37213 11.0394 2.80743 10.7709 3.07591L10.3472 3.49962C10.639 4.04764 10.818 4.64221 10.9154 5.27239C11.0897 6.39891 10.978 7.51641 10.7321 8.62039C10.6834 8.84139 10.6284 9.06057 10.5677 9.27809C11.1134 8.76706 11.7816 8.40906 12.5639 8.19892C13.7797 7.86998 14.982 7.94658 16.1307 8.44675C16.2126 8.48151 16.2929 8.51843 16.3718 8.55747L13.635 11.2943C12.7852 11.3921 12.173 11.8315 11.8174 12.6509C11.7215 12.8723 11.6521 13.0978 11.6028 13.3265L9.25906 15.6702Z" fill="#272A30"/>
<path d="M1.25906 8.67018C1.10415 7.98545 1.0115 7.28852 1.00149 6.57464H1.00596C1.00596 6.49937 1.00446 6.42461 1.00297 6.35001C0.999993 6.20133 0.997031 6.05325 1.00596 5.90324C1.04619 5.11918 1.22051 4.36667 1.56468 3.65922C2.19045 2.375 3.20508 1.56391 4.56388 1.19892C5.77966 0.869978 6.98202 0.946581 8.13075 1.44675C8.21258 1.48151 8.29292 1.51843 8.37177 1.55747L5.63498 4.29426C4.7852 4.39207 4.17302 4.83152 3.81744 5.6509C3.72146 5.87228 3.65213 6.09784 3.60276 6.32649L1.25906 8.67018Z" fill="#272A30"/>
</svg>
