<svg width="20" height="20" viewBox="0 0 20 20" fill="none" xmlns="http://www.w3.org/2000/svg">
<path fill-rule="evenodd" clip-rule="evenodd" d="M10.8012 3.9375L13.8925 14.9027H11.798L11.2658 12.6434H8.55517L8.0264 14.9027H5.94531L9.0097 3.9375H10.8012ZM8.98347 10.8134H10.8348L9.90617 6.87087L8.98347 10.8134Z" fill="#272A30"/>
<path fill-rule="evenodd" clip-rule="evenodd" d="M19 10C19 14.9706 14.9706 19 10 19C5.02944 19 1 14.9706 1 10C1 5.02944 5.02944 1 10 1C14.9706 1 19 5.02944 19 10ZM17 10C17 13.866 13.866 17 10 17C6.13401 17 3 13.866 3 10C3 6.13401 6.13401 3 10 3C13.866 3 17 6.13401 17 10Z" fill="#272A30"/>
</svg>
