<svg width="20" height="20" viewBox="0 0 20 20" fill="none" xmlns="http://www.w3.org/2000/svg">
<path d="M13.4887 13.2034C15.3569 12.0379 16.5999 9.96405 16.5999 7.59989C16.5999 7.46902 16.5961 7.33903 16.5886 7.21004L6.41761 17.381C6.44139 17.4884 6.48083 17.5697 6.54626 17.6351C6.71099 17.7999 6.97613 17.7999 7.50641 17.7999H7.93406C7.98018 17.9114 8.03307 18.0342 8.09156 18.17L8.15627 18.3202C8.29833 18.6499 8.36935 18.8148 8.51007 18.9074C8.6508 19 8.83032 19 9.18936 19H10.8106C11.1697 19 11.3492 19 11.4899 18.9074C11.6307 18.8148 11.7017 18.6499 11.8437 18.3202L11.9084 18.17C11.9669 18.0342 12.0198 17.9114 12.066 17.7999H12.494C13.0243 17.7999 13.2894 17.7999 13.4542 17.6351C13.6189 17.4704 13.6189 17.2053 13.6189 16.675V16.5248C13.6189 15.9945 13.6189 15.7294 13.4542 15.5646C13.2894 15.3999 13.0243 15.3996 12.494 15.3996C13.0243 15.3996 13.2894 15.3996 13.4542 15.2349C13.6189 15.0701 13.6189 14.805 13.6189 14.2747V14.1245C13.6189 13.6342 13.6189 13.3706 13.4887 13.2034Z" fill="#272A30"/>
<path fill-rule="evenodd" clip-rule="evenodd" d="M4.10635 16.8639C3.71478 17.2397 3.09268 17.2348 2.70711 16.8492C2.31658 16.4587 2.31658 15.8255 2.70711 15.435L5.61212 12.53C4.25493 11.3212 3.40015 9.56035 3.40015 7.59989C3.40015 3.95487 6.35502 1 10 1C11.9605 1 13.7213 1.85478 14.9301 3.21198L15.435 2.70706C15.8256 2.31654 16.4587 2.31654 16.8492 2.70706C17.2398 3.09759 17.2398 3.73075 16.8492 4.12127L16.4891 4.48146C16.484 4.48629 16.479 4.49117 16.4741 4.49612L4.10635 16.8639ZM13.818 3.78173C13.9086 3.87235 13.9958 3.96603 14.0795 4.06258L12.732 5.41005C12.6521 5.31026 12.5665 5.21473 12.4757 5.12395C12.1506 4.79878 11.7645 4.54084 11.3397 4.36487C11.2082 4.31039 11.0737 4.2641 10.9372 4.22615C10.4321 4.08581 9.99964 3.67339 9.99964 3.14922C9.99964 2.62505 10.4278 2.19167 10.9439 2.28332C11.3278 2.35151 11.7041 2.46124 12.0661 2.61117C12.7212 2.88254 13.3165 3.2803 13.818 3.78173Z" fill="#272A30"/>
</svg>
