<svg width="20" height="20" viewBox="0 0 20 20" fill="none" xmlns="http://www.w3.org/2000/svg">
<path d="M5.5 10C5.5 11.2426 4.49264 12.25 3.25 12.25C2.00736 12.25 1 11.2426 1 10C1 8.75736 2.00736 7.75 3.25 7.75C4.49264 7.75 5.5 8.75736 5.5 10Z" fill="#272A30"/>
<path d="M12.25 10C12.25 11.2426 11.2426 12.25 10 12.25C8.75736 12.25 7.75 11.2426 7.75 10C7.75 8.75736 8.75736 7.75 10 7.75C11.2426 7.75 12.25 8.75736 12.25 10Z" fill="#272A30"/>
<path d="M19 10C19 11.2426 17.9926 12.25 16.75 12.25C15.5074 12.25 14.5 11.2426 14.5 10C14.5 8.75736 15.5074 7.75 16.75 7.75C17.9926 7.75 19 8.75736 19 10Z" fill="#272A30"/>
</svg>
