<svg width="20" height="20" viewBox="0 0 20 20" fill="none" xmlns="http://www.w3.org/2000/svg">
<path d="M9.03931 2H9.07153C9.80874 2 10.4064 2.61428 10.4064 3.37203V3.82522C10.4064 4.58297 9.80874 5.19725 9.07153 5.19725C7.70513 5.19725 6.86516 5.20063 6.24215 5.27285C5.67587 5.33849 5.54785 5.43856 5.53116 5.4516L5.53012 5.45241C5.38215 5.56507 5.25175 5.71243 5.1486 5.88833C5.13003 5.92 5.03474 6.08249 4.97438 6.75856C4.91005 7.47921 4.90726 8.44677 4.90726 10C4.90726 11.5532 4.91005 12.5208 4.97438 13.2414C5.03472 13.9172 5.12973 14.0795 5.14835 14.1113C5.2515 14.2872 5.38215 14.4349 5.53012 14.5476L5.53116 14.5484C5.54798 14.5616 5.67625 14.6616 6.24215 14.7271C6.86516 14.7993 7.70513 14.8027 9.07153 14.8027H10.9442C12.3106 14.8027 13.1505 14.7993 13.7736 14.7271C14.3399 14.6615 14.4679 14.5614 14.4845 14.5484L14.4856 14.5476C14.6336 14.4349 14.764 14.2875 14.8671 14.1116C14.8857 14.08 14.981 13.9175 15.0413 13.2414L15.0583 13.0549C15.0683 12.9473 15.0759 12.8645 15.0822 12.7778C15.1383 12.0047 15.738 11.3294 16.5542 11.3294C17.3564 11.3294 18.0223 12.0033 17.9994 12.8448C17.9799 13.5644 17.9366 14.1031 17.8313 14.5693C17.7229 15.0488 17.5539 15.4306 17.3103 15.8461C17.0035 16.3691 16.6072 16.8219 16.1418 17.1763C15.5679 17.6133 14.9019 17.8113 14.079 17.9067C13.2744 18 12.2641 18 10.9764 18H9.0393C7.75158 18 6.74127 18 5.93668 17.9067C5.11376 17.8113 4.44785 17.6133 3.87391 17.1763C3.40846 16.8219 3.01217 16.3691 2.70545 15.8461C2.3322 15.2096 2.16321 14.4747 2.08106 13.5545C2 12.6467 2 11.5029 2 10.0281V9.97244C2 8.4976 2 7.35338 2.08106 6.44543C2.16321 5.52529 2.3322 4.7904 2.70545 4.15388C3.01217 3.63082 3.40846 3.17805 3.87391 2.82367C4.44785 2.38669 5.11376 2.18864 5.93668 2.09325C6.74127 1.99999 7.75159 1.99999 9.03931 2Z" fill="#272A30"/>
<path d="M11.7307 4.12101C11.7307 3.43812 12.2843 2.88452 12.9672 2.88452C13.6501 2.88452 14.2036 3.43812 14.2036 4.12101V6.64804H16.7307C17.4136 6.64804 17.9672 7.20163 17.9672 7.88452C17.9672 8.56741 17.4136 9.12101 16.7307 9.12101H14.2036V11.6481C14.2036 12.331 13.6501 12.8846 12.9672 12.8846C12.2843 12.8846 11.7307 12.331 11.7307 11.6481V9.12101H9.20365C8.52076 9.12101 7.96716 8.56741 7.96716 7.88452C7.96716 7.20163 8.52076 6.64804 9.20365 6.64804H11.7307V4.12101Z" fill="#272A30"/>
</svg>
