<svg width="20" height="20" viewBox="0 0 20 20" fill="none" xmlns="http://www.w3.org/2000/svg">
<path fill-rule="evenodd" clip-rule="evenodd" d="M1.21547 4.6449C1.30834 3.75517 1.9168 3.07379 2.79945 2.92825C4.03325 2.72479 6.2459 2.5 10 2.5C13.7541 2.5 15.9668 2.72479 17.2006 2.92825C18.0832 3.07379 18.6917 3.75517 18.7845 4.6449C18.8921 5.67511 19 7.36535 19 10C19 12.6347 18.8921 14.3249 18.7845 15.3551C18.6917 16.2448 18.0832 16.9262 17.2005 17.0718C15.9667 17.2752 13.7541 17.5 10 17.5C6.2459 17.5 4.03325 17.2752 2.79945 17.0718C1.9168 16.9262 1.30834 16.2448 1.21547 15.3551C1.10793 14.3249 1 12.6347 1 10C1 7.36535 1.10793 5.67511 1.21547 4.6449ZM15.9969 17.2305C14.6798 17.3773 12.7553 17.5 10 17.5C6.24239 17.5 4.02871 17.2718 2.79559 17.0655C2.36753 16.9939 2.00458 16.7962 1.73395 16.5098L1.83139 16.4136C4.33755 13.9454 6.01907 12.6523 7.02347 11.9887C7.74576 11.5115 8.62906 11.5921 9.29945 12.1379C9.78074 12.5296 10.4424 13.0965 11.3246 13.9056C12.0834 13.171 12.6002 12.7755 12.9163 12.5667C13.1573 12.4074 13.4522 12.4343 13.676 12.6165C13.968 12.8542 14.4589 13.285 15.2293 14.0437C15.9997 14.8024 16.4371 15.286 16.6785 15.5736C16.8635 15.7939 16.8908 16.0843 16.7291 16.3217C16.5865 16.5311 16.3581 16.8299 15.9969 17.2305ZM13.8736 9.24843C14.9378 9.24843 15.8005 8.39878 15.8005 7.35068C15.8005 6.30258 14.9378 5.45293 13.8736 5.45293C12.8094 5.45293 11.9466 6.30258 11.9466 7.35068C11.9466 8.39878 12.8094 9.24843 13.8736 9.24843Z" fill="#272A30"/>
<path fill-rule="evenodd" clip-rule="evenodd" d="M16.7953 15.1071C16.8928 14.156 16.9958 12.5466 16.9958 10C16.9958 7.45344 16.8928 5.84397 16.7953 4.89288C15.6791 4.71477 13.594 4.50418 10 4.50418C6.40598 4.50418 4.32091 4.71477 3.20468 4.89288C3.10717 5.84397 3.00418 7.45344 3.00418 10C3.00418 12.5466 3.10717 14.156 3.20469 15.1071C4.32091 15.2852 6.40599 15.4958 10 15.4958C13.594 15.4958 15.6791 15.2852 16.7953 15.1071ZM2.79945 2.92825C1.9168 3.07379 1.30834 3.75517 1.21547 4.6449C1.10793 5.67511 1 7.36535 1 10C1 12.6347 1.10793 14.3249 1.21547 15.3551C1.30834 16.2448 1.9168 16.9262 2.79945 17.0718C4.03325 17.2752 6.2459 17.5 10 17.5C13.7541 17.5 15.9667 17.2752 17.2005 17.0718C18.0832 16.9262 18.6917 16.2448 18.7845 15.3551C18.8921 14.3249 19 12.6347 19 10C19 7.36535 18.8921 5.67511 18.7845 4.6449C18.6917 3.75517 18.0832 3.07379 17.2006 2.92825C15.9668 2.72479 13.7541 2.5 10 2.5C6.2459 2.5 4.03325 2.72479 2.79945 2.92825Z" fill="#272A30"/>
</svg>
