<svg width="20" height="20" viewBox="0 0 20 20" fill="none" xmlns="http://www.w3.org/2000/svg">
<path fill-rule="evenodd" clip-rule="evenodd" d="M11 4H9C7.05784 4 5.80242 4.00425 4.87741 4.12861C4.00993 4.24524 3.73803 4.43354 3.58579 4.58579C3.43354 4.73803 3.24524 5.00993 3.12861 5.87741C3.00425 6.80242 3 8.05784 3 10C3 11.9422 3.00425 13.1976 3.12861 14.1226C3.24524 14.9901 3.43354 15.262 3.58579 15.4142C3.73803 15.5665 4.00993 15.7548 4.87741 15.8714C5.80242 15.9958 7.05784 16 9 16H11C12.9422 16 14.1976 15.9958 15.1226 15.8714C15.9901 15.7548 16.262 15.5665 16.4142 15.4142C16.5665 15.262 16.7548 14.9901 16.8714 14.1226C16.9958 13.1976 17 11.9422 17 10C17 8.05784 16.9958 6.80242 16.8714 5.87741C16.7548 5.00993 16.5665 4.73803 16.4142 4.58579C16.262 4.43354 15.9901 4.24524 15.1226 4.12861C14.1976 4.00425 12.9422 4 11 4ZM2.17157 3.17157C1 4.34315 1 6.22876 1 10C1 13.7712 1 15.6569 2.17157 16.8284C3.34315 18 5.22876 18 9 18H11C14.7712 18 16.6569 18 17.8284 16.8284C19 15.6569 19 13.7712 19 10C19 6.22876 19 4.34315 17.8284 3.17157C16.6569 2 14.7712 2 11 2H9C5.22876 2 3.34315 2 2.17157 3.17157Z" fill="#272A30"/>
<path d="M9 11C9 10.0572 9 9.58579 9.29289 9.29289C9.58579 9 10.0572 9 11 9H13C13.9428 9 14.4142 9 14.7071 9.29289C15 9.58579 15 10.0572 15 11V12C15 12.9428 15 13.4142 14.7071 13.7071C14.4142 14 13.9428 14 13 14H11C10.0572 14 9.58579 14 9.29289 13.7071C9 13.4142 9 12.9428 9 12V11Z" fill="#272A30"/>
</svg>
