<svg width="20" height="20" viewBox="0 0 20 20" fill="none" xmlns="http://www.w3.org/2000/svg">
<path fill-rule="evenodd" clip-rule="evenodd" d="M10 19C14.9706 19 19 14.9706 19 10C19 5.02944 14.9706 1 10 1C5.02944 1 1 5.02944 1 10C1 14.9706 5.02944 19 10 19ZM14.0561 9.87245C14.0517 9.5129 13.6931 9.25513 12.9758 8.73957L9.67973 6.37054C8.6927 5.66112 8.19918 5.3064 7.81212 5.50487C7.42506 5.70334 7.42506 6.3111 7.42506 7.52663V12.3883C7.42506 13.6361 7.42506 14.2601 7.81984 14.4565C8.21462 14.6529 8.71226 14.2765 9.70755 13.5239L13.0036 11.0312C13.7082 10.4984 14.0604 10.232 14.0561 9.87245Z" fill="#272A30"/>
</svg>
