<svg width="20" height="20" viewBox="0 0 20 20" fill="none" xmlns="http://www.w3.org/2000/svg">
<path fill-rule="evenodd" clip-rule="evenodd" d="M6.58669 1C5.7197 1 4.97187 1.46458 4.62703 2.13528C4.59866 2.14621 4.57037 2.15743 4.54219 2.16893L4.40385 2.22539C3.66891 2.5253 3.14486 3.15235 3.01015 3.89299L1.05778 14.6269C0.642413 16.9106 2.51937 18.9952 4.99084 18.9952C7.14189 18.9952 8.90571 17.3969 8.97838 15.3818L9.15663 10.4385C9.44565 10.4192 9.73747 10.4094 10.0317 10.4094C10.3044 10.4094 10.575 10.4178 10.8432 10.4344L11.0216 15.3818C11.0943 17.3969 12.8581 18.9952 15.0092 18.9952C17.4806 18.9952 19.3576 16.9106 18.9422 14.6269L16.9899 3.89299C16.8551 3.15235 16.3311 2.5253 15.5962 2.22539L15.4578 2.16893C15.4295 2.15736 15.401 2.14609 15.3725 2.1351C15.0276 1.4645 14.2798 1 13.4129 1C12.3732 1 11.5049 1.66814 11.2974 2.55865C10.8512 2.95723 10.594 3.52253 10.6156 4.12263L10.6654 5.50267C10.4555 5.49255 10.2443 5.48743 10.0317 5.48743C9.79772 5.48743 9.56525 5.49364 9.3345 5.50589L9.38439 4.12263C9.40603 3.52232 9.14864 2.95683 8.70213 2.55823C8.49449 1.66793 7.62625 1 6.58669 1ZM7.62091 14.9641C7.62091 16.2696 6.45872 17.3279 5.02508 17.3279C3.59145 17.3279 2.42926 16.2696 2.42926 14.9641C2.42926 13.6586 3.59145 12.6002 5.02508 12.6002C6.45872 12.6002 7.62091 13.6586 7.62091 14.9641ZM15.012 17.3904C16.4456 17.3904 17.6078 16.3321 17.6078 15.0266C17.6078 13.7211 16.4456 12.6627 15.012 12.6627C13.5784 12.6627 12.4162 13.7211 12.4162 15.0266C12.4162 16.3321 13.5784 17.3904 15.012 17.3904Z" fill="#272A30"/>
</svg>
