<svg width="20" height="20" viewBox="0 0 20 20" fill="none" xmlns="http://www.w3.org/2000/svg">
<path d="M2.25711 9.21737C1.76496 9.26015 1.21398 9.82336 1 10.0996C1.30536 10.0551 2.0418 9.99268 2.54464 10.0996C3.17319 10.2333 4.74458 10.26 5.3397 9.35773C5.8158 8.63589 6.30482 8.66039 6.48982 8.76288C6.33157 9.05251 6.13141 9.75741 6.59681 10.26C7.17856 10.8883 7.2053 11.4096 7.02476 11.6703C6.84422 11.931 6.77735 11.8775 6.76398 12.2785C6.7506 12.6795 7.96091 13.535 8.35542 13.896C8.74994 14.2569 8.64295 14.2569 8.54934 14.5042C8.45573 14.7515 8.54265 14.8384 8.9238 15.0121C9.30494 15.1859 9.05753 14.7782 9.11771 14.5443C9.17789 14.3104 8.98398 13.7757 8.8235 13.662C8.66301 13.5484 7.9141 12.8533 7.70012 12.5592C7.52894 12.324 7.77145 12.1627 7.9141 12.1114C7.84991 12.5124 8.18157 12.6929 8.35542 12.733C8.88368 12.9959 9.95356 13.6313 10.0071 14.0697C10.0739 14.6178 10.2077 14.4908 10.6289 14.5042C11.0502 14.5176 10.6891 14.2569 10.5554 13.9895C10.4216 13.7222 10.2411 13.535 10.1608 13.4214C10.0967 13.3305 9.43868 12.8444 9.11771 12.6127C8.93271 12.5058 8.61487 12.2438 8.8235 12.0513C9.03212 11.8588 9.30271 11.3517 9.41193 11.1222C10.9098 12.213 12.2961 11.9911 12.8021 11.7438C12.8645 11.8775 12.9679 12.2464 12.8824 12.6528C12.7754 13.1608 12.3742 13.0137 12.0799 13.0137C11.7857 13.0137 11.4581 12.8734 11.3444 12.7998C11.2307 12.7263 10.9432 12.7998 10.8563 12.733C10.7693 12.6662 10.6222 12.4322 10.4952 12.3921C10.3681 12.352 10.1542 12.6261 10.0071 12.7998C9.88936 12.9389 10.4618 13.0449 10.7627 13.0806C11.331 13.2588 12.5507 13.6139 12.8824 13.6086C13.214 13.6032 13.5911 12.9068 13.7383 12.5592C13.7806 12.7531 13.8546 13.1715 13.8118 13.2944C13.7583 13.4482 12.3808 14.3972 12.0265 14.2569C11.7429 14.1446 11.6141 14.2101 11.5851 14.2569C11.5049 14.4507 11.3671 14.8384 11.4581 14.8384C11.5718 14.8384 12.2003 14.6044 12.3407 14.5777C12.4811 14.551 13.3036 14.1165 13.999 13.9294C14.6945 13.7422 14.534 13.1808 14.5273 13.0806C14.5206 12.9803 14.4671 11.423 14.6677 11.2359C14.8683 11.0487 15.0622 10.6276 15.1024 10.4138C15.1345 10.2427 15.2762 9.90579 15.3431 9.75875L16.5333 8.41533C16.7406 8.1814 16.9145 8.37522 17.0816 8.48216C17.2488 8.5891 17.6166 8.38859 18.1448 8.60247C18.6731 8.81635 18.6196 8.82303 18.8804 8.60247C19.1412 8.38191 18.9071 7.96083 18.8202 7.9341C18.7506 7.91271 18.2607 7.46178 18.0245 7.23899C17.9763 6.9556 17.4739 6.62632 17.2287 6.4971C17.2421 6.40353 17.1552 6.15623 17.0816 6.09608C17.0228 6.04796 16.8788 5.83987 16.8142 5.74184C16.7919 5.76189 16.754 5.82739 16.7807 5.92899C16.8075 6.03058 16.7696 6.15846 16.7473 6.2097C16.7205 6.12415 16.4018 5.86215 16.2458 5.74184C16.1388 5.87017 16.2904 6.27654 16.3795 6.46368C16.0318 6.43695 14.8282 7.21226 14.106 7.69348C13.3839 8.17471 11.1639 8.549 9.58579 8.0143C8.00771 7.47961 7.55301 7.96083 6.96458 8.25492C6.37615 8.549 4.66434 7.74695 3.83518 8.38859C3.00602 9.03023 2.87229 9.1639 2.25711 9.21737Z" fill="#272A30"/>
<path fill-rule="evenodd" clip-rule="evenodd" d="M4.42362 6.39093C4.42362 6.21366 4.56732 6.06996 4.74458 6.06996H6.67036C6.84763 6.06996 6.99133 6.21366 6.99133 6.39093C6.99133 6.56819 6.84763 6.71189 6.67036 6.71189H4.74458C4.56732 6.71189 4.42362 6.56819 4.42362 6.39093Z" fill="#272A30"/>
<path fill-rule="evenodd" clip-rule="evenodd" d="M2.71181 4.67912C2.71181 4.50185 2.85551 4.35815 3.03277 4.35815H6.67036C6.84763 4.35815 6.99133 4.50185 6.99133 4.67912C6.99133 4.85638 6.84763 5.00008 6.67036 5.00008H3.03277C2.85551 5.00008 2.71181 4.85638 2.71181 4.67912Z" fill="#272A30"/>
</svg>
