<svg width="20" height="20" viewBox="0 0 20 20" fill="none" xmlns="http://www.w3.org/2000/svg">
<path d="M7.701 11.3641C8.08886 11.2907 8.82352 10.722 9.14237 10.4468C9.19925 10.557 9.05292 10.8702 8.9138 11.168C8.79651 11.419 8.68435 11.659 8.70341 11.7572C8.74337 11.9632 8.91461 12.0596 9.12438 12.1776C9.36167 12.3111 9.64826 12.4724 9.84995 12.8514C10.126 13.3703 10.2811 13.4326 10.4131 13.4857C10.4627 13.5057 10.5092 13.5244 10.5575 13.5656C10.6617 13.6543 10.6727 13.7589 10.6856 13.8808C10.6946 13.9659 10.7044 14.0595 10.7475 14.1618C10.816 14.3244 10.8956 14.297 11.0502 14.2439C11.1324 14.2156 11.2358 14.18 11.3699 14.1618C11.7565 14.1094 11.3372 13.7556 11.1472 13.6508C10.9572 13.5459 10.8065 13.3625 10.7148 13.1201C10.6625 12.9819 10.4464 12.8012 10.2301 12.6204C10.0669 12.4839 9.90364 12.3473 9.81064 12.229C9.59444 11.9538 9.53547 11.5607 9.90237 11.3641C10.1959 11.2069 10.4614 10.7569 10.5575 10.5517C12.0618 11.3484 13.176 11.2331 13.5451 11.0758C13.5386 11.1806 13.4141 11.8752 13.3682 12.0783C13.3224 12.2814 12.7262 12.6221 12.2937 12.8514C11.8713 13.0755 11.699 12.8492 11.6118 12.7348L11.6058 12.7269C11.5378 12.6381 11.4615 12.7328 11.2936 12.9411C11.2511 12.9939 11.2027 13.054 11.1472 13.1201C10.9736 13.3267 11.2223 13.3013 11.4888 13.2742C11.6448 13.2583 11.807 13.2417 11.8941 13.2708C12.0438 13.3207 12.2515 13.2149 12.5742 13.0505C12.76 12.9559 12.984 12.8418 13.2568 12.7269C13.7641 12.5133 13.8724 12.2575 13.9657 12.0372C14.0098 11.9332 14.0504 11.8371 14.1282 11.7572C14.3221 11.558 14.4711 11.0714 14.5213 10.853C14.7648 11.1051 15.323 11.2095 15.762 11.2916C15.9962 11.3354 16.1965 11.3729 16.2968 11.4231C16.5327 11.541 16.9265 11.8432 17.1301 11.9994C17.1753 12.0341 17.2111 12.0616 17.2337 12.0783C17.262 12.0991 17.3041 12.1233 17.3556 12.1529C17.5313 12.2539 17.8167 12.418 18.0396 12.7269C18.3112 13.1035 18.3153 13.102 18.7476 12.9472L18.8323 12.9169C19.2425 12.7716 18.8133 12.6262 18.4708 12.5102C18.3811 12.4798 18.2973 12.4514 18.2361 12.4255C18.0398 12.3426 17.8812 12.1784 17.6385 11.9269C17.5168 11.8008 17.3738 11.6527 17.1944 11.482C16.6572 10.971 16.5654 10.8858 16.4803 10.8072C16.4561 10.7848 16.3542 10.7387 16.2243 10.6799C15.8969 10.5317 15.3915 10.303 15.5041 10.1716C15.6013 10.0582 15.5933 9.7595 15.5855 9.46435C15.5806 9.28206 15.5758 9.10113 15.5958 8.96605C15.6377 8.683 15.9802 8.05749 16.1461 7.78012C16.2138 7.83035 16.3925 7.93082 16.5654 7.93082C16.7817 7.93082 17.2075 7.93082 17.4827 8.16669C17.7258 8.37513 17.8155 8.33286 17.9959 8.24787C18.0196 8.23668 18.0449 8.22475 18.0723 8.21256C18.3082 8.10773 18.1641 7.75391 18.0723 7.67529C18.0581 7.66305 18.0382 7.64795 18.0142 7.6297C17.8841 7.53068 17.632 7.3388 17.4827 7.00698C17.3412 6.69248 16.9389 6.34303 16.7554 6.20762C16.8026 6.16569 16.8319 5.79703 16.8406 5.61794C16.7969 5.68127 16.6912 5.82105 16.6179 5.87347C16.5445 5.92588 16.4519 6.03072 16.4148 6.07658C16.4462 6.0032 16.4715 5.66162 16.4803 5.5C16.4388 5.53713 16.3361 5.6258 16.2575 5.68346C16.1789 5.74112 16.1199 5.94772 16.1003 6.04382C15.9286 6.00948 15.7287 6.1439 15.5082 6.29228C15.3921 6.37036 15.2702 6.45231 15.1437 6.51557C15.0158 6.57952 14.888 6.70874 14.7268 6.8716C14.4255 7.17598 14.008 7.5979 13.2568 7.93082C12.3344 8.33967 10.575 8.45935 9.81064 8.46809L7.55686 9.1233C7.41272 9.16261 7.39962 9.83092 7.43893 10.2109C7.47283 10.5387 7.40926 10.6033 7.29025 10.7241C7.27127 10.7434 7.25089 10.7641 7.22927 10.7875C7.20058 10.8186 7.16185 10.8462 7.11691 10.8721C7.16362 11.0884 7.18938 11.3125 7.19198 11.5422C7.37669 11.4573 7.55634 11.3915 7.701 11.3641Z" fill="#272A30"/>
<path d="M4.51173 11.5808C4.51173 11.9461 4.21565 12.2422 3.85041 12.2422C3.48517 12.2422 3.18909 11.9461 3.18909 11.5808C3.18909 11.2155 3.48517 10.9194 3.85041 10.9194C4.21565 10.9194 4.51173 11.2155 4.51173 11.5808Z" fill="#272A30"/>
<path fill-rule="evenodd" clip-rule="evenodd" d="M6.70077 11.5808C6.70077 13.1551 5.42461 14.4313 3.85039 14.4313C2.27616 14.4313 1 13.1551 1 11.5808C1 10.0065 2.27616 8.73022 3.85039 8.73022C5.42461 8.73022 6.70077 10.0065 6.70077 11.5808ZM6.11374 11.5808C6.11374 12.8309 5.10037 13.8443 3.85039 13.8443C2.6004 13.8443 1.58703 12.8309 1.58703 11.5808C1.58703 10.3306 2.6004 9.31726 3.85039 9.31726C5.10037 9.31726 6.11374 10.3306 6.11374 11.5808Z" fill="#272A30"/>
<path d="M5.91891 9.20524L11.5992 7.65567V7.43945L5.7027 8.45175C5.70652 8.48997 5.70497 8.53147 5.70329 8.57651C5.69729 8.73733 5.6896 8.94316 5.91891 9.20524Z" fill="#272A30"/>
</svg>
