<svg width="20" height="20" viewBox="0 0 20 20" fill="none" xmlns="http://www.w3.org/2000/svg">
<path d="M2.83123 10.0593C2.41104 11.4222 1.43533 12.4539 1 12.7994C1.42114 12.6929 2.43233 12.3834 3.10804 11.9972C3.95268 11.5145 4.47082 10.7337 4.77603 9.80378C5.02019 9.05986 5.52603 8.7887 5.74842 8.7461C5.74842 8.76503 5.72429 8.87672 5.62776 9.17202C5.5071 9.54114 5.70584 10.2652 5.57098 10.9466C5.43612 11.6281 4.79732 11.3371 4.5276 12.4799C4.25789 13.6228 3.75394 14.432 3.39196 14.4604C3.02997 14.4888 2.9235 14.3752 2.79574 15.0567C2.66798 15.7381 3.61909 14.8934 3.92429 14.8153C4.2295 14.7373 4.5205 13.999 4.56309 13.9067C4.60568 13.8144 5.05284 12.6219 5.57098 12.2954C6.08912 11.9688 7.60804 11.1525 7.93454 10.8686C8.26104 10.5846 8.21136 10.251 9.70899 10.542C10.9071 10.7749 11.9732 10.4119 12.3565 10.2013C12.3224 10.4568 12.877 10.4545 13.1585 10.4214C13.6506 10.3646 14.6675 10.2751 14.7981 10.3717C14.9614 10.4923 14.5781 11.0815 14.2374 11.5287C13.8967 11.9759 13.7476 11.5003 13.4211 11.3797C13.0946 11.259 13.1159 11.5926 12.9385 11.9262C12.761 12.2599 13.1301 12.0185 13.9677 12.0327C14.8052 12.0469 14.8904 11.4648 15.0465 11.2164C15.2027 10.9679 15.5008 10.4639 15.4724 10.1161C15.444 9.76829 14.9401 9.7328 14.6349 9.68311C14.3297 9.63342 13.9677 9.49855 13.9677 9.32108C13.9677 9.14362 14.5568 8.08594 14.9401 7.48967C15.2467 7.01265 15.47 6.81767 15.5434 6.77982C15.638 6.88393 15.877 7.12338 16.0757 7.24832C16.3241 7.40449 17.041 7.63874 17.3604 7.85879C17.6798 8.07884 17.6869 8.14983 17.985 8.08594C18.2831 8.02206 18.2334 7.63874 18.1625 7.48967C18.0915 7.3406 17.7579 7.08505 17.6372 6.58816C17.5407 6.19064 17.2279 5.68428 17.0836 5.48079C17.2199 5.40128 17.3249 5.07854 17.3604 4.9271C17.306 4.96023 17.1744 5.03358 17.0836 5.06198C16.9927 5.09037 16.8233 5.20631 16.75 5.26073L17.041 4.69995C16.9748 4.73308 16.8096 4.80927 16.679 4.84902C16.5484 4.88877 16.4495 5.04068 16.4164 5.11167C15.3162 4.92001 14.0599 5.19685 12.5978 6.25453C11.1356 7.31221 9.97161 7.60325 9.48896 7.63874C9.00631 7.67423 7.45189 7.44708 6.63565 7.92978C5.98265 8.31594 5.62539 8.39355 5.52839 8.38408C4.80442 8.37462 3.25142 8.69642 2.83123 10.0593Z" fill="#272A30"/>
<path d="M6.90536 14.2821C6.90536 14.1202 7.02103 13.9814 7.18029 13.9522L18.6042 11.8589C18.8102 11.8212 19 11.9794 19 12.1888C19 12.3507 18.8843 12.4895 18.7251 12.5187L7.30119 14.612C7.09519 14.6498 6.90536 14.4916 6.90536 14.2821Z" fill="#272A30"/>
</svg>
