<svg width="20" height="20" viewBox="0 0 20 20" fill="none" xmlns="http://www.w3.org/2000/svg">
<path d="M4.02844 11.7331C4.21493 12.7301 3.42052 13.169 3 13.2638C3.20797 13.2593 3.75419 13.2164 4.27527 13.0809C4.92662 12.9116 5.22829 11.8279 5.22829 10.6223C5.22829 9.65775 5.83622 9.39405 6.14018 9.38276C6.03048 9.47081 5.8769 9.9043 6.14018 10.9338C6.46928 12.2207 5.93449 12.4171 5.63967 12.6745C5.34485 12.9319 5.78365 13.8937 5.84536 14.1578C5.90707 14.422 5.75623 14.9232 5.84536 15.1941C5.93449 15.4651 5.9962 15.289 5.97563 15.7699C5.95506 16.2508 6.20874 16.1085 6.58584 16.1221C6.96294 16.1356 6.7024 15.8511 6.64069 15.736C6.57898 15.6208 6.42815 15.2416 6.39386 15.14C6.35958 15.0384 6.20874 13.8395 6.20874 13.5144C6.20874 13.2543 6.49671 12.9003 6.64069 12.7558C6.61327 12.9996 6.77782 13.0809 7.01779 13.1419C7.25776 13.2028 7.8474 13.5957 8.21078 13.8395C8.57417 14.0833 8.40961 14.0224 8.34105 14.3136C8.27249 14.6049 8.47818 14.632 8.80728 14.781C9.13638 14.93 8.98554 14.5371 8.94441 14.3949C8.90327 14.2527 8.8347 14.0901 8.80728 13.7853C8.77985 13.4805 7.99138 13.1554 7.88168 13.0809C7.77198 13.0064 7.58 12.8371 7.54572 12.6745C7.51144 12.512 7.66914 12.451 8.09422 12.2343C8.4343 12.0609 8.80271 11.5389 8.94441 11.2996C10.4473 12.1069 11.9155 11.7805 12.4617 11.5163C12.4914 11.5321 12.57 11.58 12.6468 11.645C12.7428 11.7263 12.9279 12.512 12.8731 12.7558C12.8182 12.9996 12.8388 13.3315 12.8731 13.5144C12.9073 13.6973 12.8388 14.6862 12.8388 14.9232C12.8388 15.1603 12.8525 15.2416 12.8388 15.736C12.8251 16.2304 13.0993 16.1017 13.5313 16.095C13.9632 16.0882 13.2502 15.4922 13.2364 15.2416C13.2227 14.9909 13.3119 13.9817 13.3599 13.7853C13.4079 13.5889 13.5587 13.0945 13.5998 12.6339C13.6327 12.2654 13.8467 11.6811 13.9495 11.435C14.0043 11.5976 15.0534 11.5705 15.2453 11.645C15.4373 11.7195 15.4099 12.3968 15.355 12.6745C15.3002 12.9522 15.1014 13.406 14.8751 13.5957C14.6488 13.7853 14.7723 13.9682 15.0534 14.2798C15.3345 14.5913 15.4167 13.7785 15.499 13.5144C15.5813 13.2502 15.7596 12.4781 15.8898 11.8211C16.0201 11.1641 15.6636 11.0693 15.499 11.0422C15.3674 11.0205 14.7494 10.7035 14.4569 10.5477C14.6283 10.3039 14.6077 9.61982 14.546 9.25407C14.4843 8.88832 14.6831 8.59708 14.7037 8.21778C14.7201 7.91434 14.8797 7.54046 14.9574 7.39145C14.9551 7.41403 15.015 7.47544 15.2728 7.54046C15.595 7.62174 15.9584 7.7572 16.2258 7.91976C16.4932 8.08232 16.4932 8.07554 16.8223 7.88589C17.1514 7.69625 16.9457 7.36436 16.8223 7.2018C16.6989 7.03925 16.5412 6.81573 16.3492 6.4703C16.1956 6.19396 15.6933 5.68461 15.4613 5.46449C15.5573 5.3507 15.5539 4.9723 15.5402 4.79733C15.5379 4.83232 15.5059 4.92128 15.3962 4.99714C15.2865 5.073 15.1836 5.27935 15.1459 5.37305L15.0911 5.35612C15.1459 5.28838 15.1505 4.9057 15.1459 4.72282C15.1151 4.76121 15.0259 4.85964 14.9162 4.94634C14.8065 5.03304 14.7608 5.28048 14.7517 5.39337C14.5734 5.39337 13.7644 5.8404 13.2707 6.65318C12.7771 7.46596 12.0092 8.11618 10.7887 8.53612C9.56833 8.95605 8.4439 8.36001 7.84054 8.37356C7.23719 8.38711 6.52413 8.95605 6.34587 8.99669C6.16761 9.03733 4.76892 8.38711 4.22042 9.1457C3.67192 9.9043 3.79533 10.4868 4.02844 11.7331Z" fill="#272A30"/>
<path fill-rule="evenodd" clip-rule="evenodd" d="M9.69175 7.17413C9.50999 7.17413 9.36264 7.02678 9.36264 6.84502V5.04593C9.36264 4.86417 9.50999 4.71683 9.69175 4.71683C9.8735 4.71683 10.0208 4.86417 10.0208 5.04593V6.84502C10.0208 7.02678 9.8735 7.17413 9.69175 7.17413Z" fill="#272A30"/>
<path fill-rule="evenodd" clip-rule="evenodd" d="M11.447 6.355C11.2652 6.355 11.1179 6.20766 11.1179 6.0259V4.22681C11.1179 4.04505 11.2652 3.89771 11.447 3.89771C11.6287 3.89771 11.7761 4.04505 11.7761 4.22681V6.0259C11.7761 6.20766 11.6287 6.355 11.447 6.355Z" fill="#272A30"/>
</svg>
