<svg width="20" height="20" viewBox="0 0 20 20" fill="none" xmlns="http://www.w3.org/2000/svg">
<path fill-rule="evenodd" clip-rule="evenodd" d="M12.4801 18.6491C17.2569 17.2794 20.0188 12.2967 18.6491 7.5199C17.2794 2.74312 12.2967 -0.0188437 7.5199 1.35088C2.74312 2.7206 -0.0188438 7.70332 1.35088 12.4801C2.7206 17.2569 7.70332 20.0188 12.4801 18.6491ZM11.6395 16.3361C13.6427 15.804 15.3344 14.322 16.0773 12.2742C16.2307 11.8514 16.1205 11.3815 15.6984 11.2282C15.6205 11.2 15.533 11.1728 15.4348 11.1481C15.3366 11.1234 15.2467 11.1058 15.1648 11.0938C14.721 11.0289 14.4295 11.3988 14.2582 11.8146C13.6902 13.1925 12.509 14.1827 11.1241 14.5383C8.86892 15.1174 6.4498 13.8553 5.61738 11.6552C4.68633 9.19449 6.0428 6.3557 8.54839 5.55591C9.90519 5.12281 10.9602 5.40537 11.9761 6.09201C11.987 6.09938 11.998 6.10657 12.009 6.1136C11.8057 6.41384 11.6499 6.67089 11.5307 6.88603C11.2813 7.3363 11.5664 7.80865 12.0788 7.84367C12.7077 7.88665 13.6543 7.90501 14.9071 7.80269C15.4188 7.7609 15.7853 7.29336 15.7063 6.78329C15.5128 5.53443 15.2741 4.61316 15.0857 4.00825C14.9323 3.51539 14.4089 3.34688 14.0318 3.69585C13.8556 3.85887 13.6488 4.06553 13.4127 4.32597C13.4051 4.32133 13.3974 4.31676 13.3896 4.31228C11.8025 3.39965 9.77808 3.21686 8.03289 3.75816C4.55288 4.83755 2.61629 8.73161 3.82606 12.1689C4.94525 15.3488 8.41587 17.1923 11.6395 16.3361Z" fill="#272A30"/>
</svg>
