<svg width="20" height="20" viewBox="0 0 20 20" fill="none" xmlns="http://www.w3.org/2000/svg">
<path d="M19 7.79699C18.998 7.75339 18.9906 7.71031 18.9778 7.66902C18.9565 7.53809 16.5292 3.40764 16.4742 3.36729C16.4297 3.32397 16.3738 3.29838 16.316 3.27082L12.9524 2.14863C12.9051 2.13293 12.856 2.12497 12.8067 2.125H7.19349C7.14414 2.12497 7.09505 2.13293 7.04778 2.14863C6.99714 2.18505 3.70902 3.24424 3.66104 3.28164C3.52511 3.08772 1.19384 7.44163 1.08456 7.52136C1.02501 7.6207 0.995584 7.73847 1.00054 7.85759C1.00549 7.97672 1.04457 8.09099 1.1121 8.18385C1.12631 8.23996 9.62693 17.6733 9.65714 17.7264C9.82328 17.8967 10.0712 17.9233 10.2639 17.7924C10.3617 17.7431 18.7823 8.28918 18.8658 8.21141C18.9119 8.15568 18.9474 8.09031 18.9703 8.01913C18.9932 7.94795 19.003 7.87242 18.9991 7.79699H19ZM16.8402 8.88965L12.3305 13.9238L14.5889 9.54327L16.8402 8.88965ZM5.41038 9.54327L7.66969 13.9238L3.15907 8.88965L5.4095 9.54327H5.41038ZM6.53515 5.27796L5.43704 8.39746L2.3035 7.48888L4.06795 4.45601L6.53426 5.27796H6.53515ZM12.4522 5.47287L13.5192 8.50475H6.48185L7.54798 5.47287H12.4513H12.4522ZM12.7329 4.35757H7.26901L5.59251 3.79943L7.26812 3.2403H12.7329L14.4085 3.79943L12.7329 4.35757ZM17.6975 7.48789L14.564 8.39746L13.4659 5.27796L15.9322 4.45601L17.6975 7.48789ZM13.3886 9.62104L10.0001 16.1918L6.61245 9.62104H13.3877H13.3886Z" fill="#272A30"/>
</svg>
