<svg width="20" height="20" viewBox="0 0 20 20" fill="none" xmlns="http://www.w3.org/2000/svg">
<path d="M12.5142 4.76585C13.1467 4.73009 13.4128 4.12419 13.0064 3.63371C12.7641 3.34133 12.4497 2.98085 12.0452 2.54682C11.3676 1.81951 10.8583 1.402 10.5175 1.16599C10.1978 0.944692 9.80196 0.944664 9.48234 1.16594C9.14145 1.40194 8.63218 1.81946 7.95458 2.54682C7.55036 2.98072 7.23601 3.34112 6.99377 3.63345C6.58726 4.12403 6.85338 4.73012 7.48602 4.76587C7.83758 4.78574 8.28132 4.80308 8.83775 4.81341C8.87948 7.60602 8.97675 9.77779 9.02857 10.785C9.04642 11.1321 9.33075 11.4 9.67512 11.4H10.3933C10.7429 11.4 11.0299 11.1241 11.0419 10.7715C11.0766 9.75836 11.141 7.59348 11.1687 4.81329C11.7222 4.80293 12.164 4.78565 12.5142 4.76585Z" fill="#272A30"/>
<path d="M5.00137 3.10136C5 3.37487 5 3.67308 5 3.99996C5 4.41423 5 4.78246 5.00279 5.11273C4.96032 5.11779 4.91854 5.12308 4.87741 5.12861C4.00993 5.24524 3.73803 5.43354 3.58579 5.58578C3.43354 5.73803 3.24524 6.00993 3.12861 6.87741C3.00425 7.80242 3 9.05784 3 11C3 12.9422 3.00425 14.1976 3.12861 15.1226C3.24524 15.9901 3.43354 16.262 3.58579 16.4142C3.73803 16.5665 4.00993 16.7548 4.87741 16.8714C5.80242 16.9958 7.05784 17 9 17H11C12.9422 17 14.1976 16.9958 15.1226 16.8714C15.9901 16.7548 16.262 16.5665 16.4142 16.4142C16.5665 16.262 16.7548 15.9901 16.8714 15.1226C16.9958 14.1976 17 12.9422 17 11C17 9.05784 16.9958 7.80242 16.8714 6.87741C16.7548 6.00993 16.5665 5.73803 16.4142 5.58578C16.262 5.43354 15.9901 5.24524 15.1226 5.12861C15.0815 5.12308 15.0397 5.11779 14.9972 5.11273C15 4.78246 15 4.41423 15 3.99996C15 3.67308 15 3.37487 14.9986 3.10136C16.2995 3.22917 17.175 3.51816 17.8284 4.17157C19 5.34314 19 7.22876 19 11C19 14.7712 19 16.6569 17.8284 17.8284C16.6569 19 14.7712 19 11 19H9C5.22876 19 3.34315 19 2.17157 17.8284C1 16.6569 1 14.7712 1 11C1 7.22876 1 5.34314 2.17157 4.17157C2.82498 3.51816 3.7005 3.22917 5.00137 3.10136Z" fill="#272A30"/>
</svg>
