<svg width="20" height="20" viewBox="0 0 20 20" fill="none" xmlns="http://www.w3.org/2000/svg">
<path d="M9.09204 2.2028C9.86792 1.69426 10.8481 2.19666 10.914 3.10365C10.9818 4.03661 11.0522 5.33966 11.0921 7.05L15.435 2.70706C15.8256 2.31654 16.4587 2.31654 16.8492 2.70706C17.2398 3.09759 17.2398 3.73075 16.8492 4.12127L16.489 4.4815C16.484 4.48631 16.479 4.49119 16.4741 4.49612L4.10641 16.8638C3.71485 17.2397 3.0927 17.2348 2.70711 16.8492C2.31658 16.4587 2.31658 15.8255 2.70711 15.435L4.02245 14.1196C3.52257 14.0152 2.93125 13.8861 2.35891 13.7479C1.75286 13.6015 1.28648 13.1423 1.19062 12.5428C1.09465 11.9426 1 11.0776 1 10C1 8.92243 1.09465 8.05736 1.19062 7.45716C1.28648 6.85768 1.75286 6.39846 2.35891 6.25212C3.7641 5.91279 5.28363 5.62849 5.28363 5.62849C5.28363 5.62849 6.62753 3.81815 9.09204 2.2028Z" fill="#272A30"/>
<path d="M7.3279 16.4707C7.8293 16.9002 8.41887 17.356 9.09204 17.7972C9.86792 18.3057 10.8481 17.8033 10.914 16.8964C10.985 15.9186 11.059 14.5345 11.0976 12.701L7.3279 16.4707Z" fill="#272A30"/>
</svg>
