<svg width="20" height="20" viewBox="0 0 20 20" fill="none" xmlns="http://www.w3.org/2000/svg">
<path d="M9.09204 2.2028C9.86792 1.69426 10.8481 2.19666 10.914 3.10365C11.0165 4.51395 11.1249 6.76988 11.1249 10C11.1249 13.2301 11.0165 15.4861 10.914 16.8964C10.8481 17.8033 9.86792 18.3057 9.09204 17.7972C6.62753 16.1819 5.28363 14.3715 5.28363 14.3715C5.28363 14.3715 3.7641 14.0872 2.35891 13.7479C1.75286 13.6015 1.28648 13.1423 1.19062 12.5428C1.09465 11.9426 1 11.0776 1 10C1 8.92243 1.09465 8.05736 1.19062 7.45716C1.28648 6.85768 1.75286 6.39846 2.35891 6.25212C3.7641 5.91279 5.28363 5.62849 5.28363 5.62849C5.28363 5.62849 6.62753 3.81815 9.09204 2.2028Z" fill="#272A30"/>
<path d="M15.9646 4.9249C16.2978 4.68891 16.7242 4.81699 17.0198 5.09327L17.0721 5.1421C19.6426 7.54458 19.6426 11.4398 17.0721 13.8422L16.9608 13.9463C16.6995 14.1904 16.3323 14.311 16.0322 14.1097C15.9328 14.043 15.8213 13.9559 15.6997 13.8422C15.578 13.7285 15.4848 13.6243 15.4135 13.5314C15.1981 13.2509 15.3271 12.9077 15.5883 12.6636L15.6997 12.5595C17.5122 10.8655 17.6791 8.27485 15.8665 6.5808L15.6474 6.37598C15.3518 6.0997 15.2148 5.70111 15.4673 5.38971C15.5301 5.3122 15.6066 5.22909 15.6997 5.1421C15.7927 5.05512 15.8817 4.98363 15.9646 4.9249Z" fill="#272A30"/>
<path d="M13.6753 6.70293C13.9373 6.54619 14.25 6.64636 14.4699 6.85192C16.03 8.31 16.03 10.674 14.4699 12.1321C14.2482 12.3393 13.9375 12.4445 13.6749 12.2845C13.5599 12.2143 13.4259 12.1155 13.2768 11.9761C13.1277 11.8368 13.0219 11.7115 12.9469 11.604C12.7756 11.3586 12.8883 11.0682 13.1099 10.861C13.9189 10.1049 13.9189 8.87907 13.1099 8.12298C12.89 7.91742 12.7828 7.62516 12.9505 7.38033C13.0254 7.27097 13.1303 7.14489 13.2768 7.0079C13.4234 6.87091 13.5583 6.77295 13.6753 6.70293Z" fill="#272A30"/>
</svg>
