<svg width="20" height="20" viewBox="0 0 20 20" fill="none" xmlns="http://www.w3.org/2000/svg">
<path d="M13.5147 1.05232C12.3538 0.756793 11.4238 1.76042 11.4238 2.87313V7.43561C11.4238 8.06556 11.9344 8.57623 12.5644 8.57623H17.1269C18.2396 8.57623 19.2432 7.64617 18.9477 6.4853C18.2702 3.82419 16.1758 1.72979 13.5147 1.05232Z" fill="#272A30"/>
<path d="M9.21251 4.17187C9.21251 3.55 8.70089 3.00922 8.04696 3.08573C4.07909 3.54995 1.00005 6.92316 1.00005 11.0156C1.00005 15.4251 4.5749 18.9999 8.98439 18.9999C13.0768 18.9999 16.45 15.9209 16.9142 11.953C16.9907 11.2991 16.45 10.7875 15.8281 10.7875H9.89688C9.51891 10.7875 9.21251 10.4811 9.21251 10.1031V4.17187Z" fill="#272A30"/>
</svg>
