<svg width="20" height="20" viewBox="0 0 20 20" fill="none" xmlns="http://www.w3.org/2000/svg">
<path d="M3.72109 7.34116V2.42911H2V1.16687H6.96054V2.42911H5.23532V7.34116H3.72109Z" fill="#272A30"/>
<path d="M9.84072 7.50803C8.03688 7.50803 6.89501 6.26291 6.89501 4.25616V4.2476C6.89501 2.24513 8.04516 1 9.84072 1C11.6321 1 12.7823 2.24513 12.7823 4.2476V4.25616C12.7823 6.26291 11.6363 7.50803 9.84072 7.50803ZM9.84072 6.20728C10.6764 6.20728 11.235 5.44566 11.235 4.25616V4.2476C11.235 3.06238 10.6764 2.30075 9.84072 2.30075C9.00086 2.30075 8.4382 3.06238 8.4382 4.2476V4.25616C8.4382 5.44566 8.99258 6.20728 9.84072 6.20728Z" fill="#272A30"/>
<path d="M13.2339 7.34116V1.16687H15.8031C17.1395 1.16687 18 2.03119 18 3.35333V3.36189C18 4.68404 17.1395 5.53124 15.8031 5.53124H14.7523V7.34116H13.2339ZM15.4391 2.36921H14.7523V4.35029H15.4391C16.0845 4.35029 16.4651 4.00371 16.4651 3.36189V3.35333C16.4651 2.71151 16.0845 2.36921 15.4391 2.36921Z" fill="#272A30"/>
<path d="M5.39217 18.733V11.1202H5.2664L2.96278 12.729V10.5657L5.39217 8.85414H7.81493V18.733H5.39217Z" fill="#272A30"/>
<path d="M12.729 19C10.293 19 8.79039 17.001 8.79039 13.797V13.7833C8.79039 10.5793 10.293 8.58714 12.729 8.58714C15.1783 8.58714 16.6677 10.5793 16.6677 13.7833V13.797C16.6677 17.001 15.1783 19 12.729 19ZM12.729 17.0694C13.6889 17.0694 14.2118 15.885 14.2118 13.797V13.7833C14.2118 11.6953 13.6889 10.5177 12.729 10.5177C11.7758 10.5177 11.2463 11.6953 11.2463 13.7833V13.797C11.2463 15.885 11.7758 17.0694 12.729 17.0694Z" fill="#272A30"/>
</svg>
