<svg width="20" height="20" viewBox="0 0 20 20" fill="none" xmlns="http://www.w3.org/2000/svg">
<path d="M6.58736 14.3668C6.63214 14.5266 6.82011 14.6136 6.9716 14.5467C7.03643 14.5071 7.08903 14.4516 7.14124 14.3965C7.15373 14.3833 7.1662 14.3701 7.17881 14.3572C7.56438 13.9452 7.95229 13.5356 8.34015 13.126C8.73925 12.7046 9.13831 12.2831 9.53473 11.8593C9.62384 11.7765 9.63373 11.6379 9.57739 11.5341C9.09659 10.3979 8.6155 9.26107 8.13223 8.12599C8.07947 7.9353 7.79931 7.86703 7.66841 8.01872C7.20006 8.52893 6.73484 9.04243 6.26953 9.55603C5.91563 9.94668 5.56167 10.3374 5.20624 10.7267C5.12144 10.8114 5.06177 10.9419 5.12793 11.0566C5.20265 11.2264 5.27736 11.3961 5.35206 11.5659C5.76315 12.5 6.17418 13.4341 6.58736 14.3668Z" fill="#272A30"/>
<path fill-rule="evenodd" clip-rule="evenodd" d="M4.37981 4.0536C5.00487 3.78537 5.74067 3.80666 6.89673 3.98467C7.00845 3.15748 7.20002 2.5811 7.5796 2.12579C7.76212 1.90685 7.97249 1.71272 8.20536 1.54833C9.11255 0.907916 10.3903 0.959206 12.9459 1.06179C15.5015 1.16437 16.7793 1.21566 17.6322 1.92672C17.8511 2.10924 18.0453 2.31962 18.2097 2.55248C18.8501 3.45967 18.7988 4.73745 18.6962 7.29303L18.5553 10.8044C18.4527 13.3599 18.4014 14.6377 17.6903 15.4907C17.5078 15.7096 17.2974 15.9037 17.0646 16.0681C16.1574 16.7085 14.8796 16.6573 12.324 16.5547L12.3259 16.5067C12.1501 17.1921 11.9377 17.6692 11.5973 18.0371C11.2954 18.3635 10.9287 18.6224 10.5201 18.7977C9.63186 19.1789 8.51993 18.9754 6.29606 18.5683C4.07219 18.1613 2.96026 17.9577 2.24263 17.2826C1.91255 16.9721 1.64818 16.5976 1.46599 16.1827C1.06992 15.2805 1.2502 14.1646 1.61077 11.9327L2.10531 8.87153C2.46587 6.63965 2.64615 5.52371 3.3026 4.8142C3.60454 4.48784 3.97123 4.22893 4.37981 4.0536ZM12.6573 5.56871C11.9888 4.93983 10.9782 4.72015 9.04542 4.36399C9.05416 4.29364 9.06346 4.22624 9.07341 4.16143C9.11596 3.88447 9.16136 3.72507 9.19617 3.6336C9.22616 3.55476 9.24673 3.53009 9.25372 3.5217C9.31456 3.44872 9.38481 3.38386 9.46244 3.32906C9.47135 3.32277 9.49775 3.30413 9.57874 3.28055C9.67271 3.25319 9.83524 3.22071 10.1147 3.2005C10.7159 3.15702 11.53 3.18645 12.8585 3.23977C14.1869 3.2931 15.0008 3.32901 15.5966 3.42054C15.8735 3.46308 16.0329 3.50849 16.1244 3.54329C16.2032 3.57328 16.2279 3.59385 16.2363 3.60084C16.3093 3.66169 16.3741 3.73194 16.4289 3.80956C16.4352 3.81848 16.4539 3.84488 16.4775 3.92587C16.5048 4.01983 16.5373 4.18236 16.5575 4.46184C16.601 5.06304 16.5715 5.87714 16.5182 7.2056L16.3773 10.7169C16.324 12.0454 16.288 12.8592 16.1965 13.455C16.154 13.732 16.1086 13.8914 16.0738 13.9829C16.0438 14.0617 16.0232 14.0864 16.0162 14.0948C15.9554 14.1677 15.8851 14.2326 15.8075 14.2874C15.7986 14.2937 15.7722 14.3123 15.6912 14.3359C15.5972 14.3633 15.4347 14.3957 15.1552 14.416C14.6034 14.4559 13.8721 14.4344 12.7283 14.3893L13.2288 11.2923L13.5594 10.8264C13.8954 10.3531 14.2313 9.8798 14.5643 9.40449C14.6409 9.31003 14.6312 9.17137 14.5609 9.07648L14.5602 9.07538C14.2553 8.56807 13.9499 8.05987 13.6447 7.55272C13.6184 7.22341 13.5516 6.9366 13.434 6.66864C13.2518 6.25367 12.9874 5.87925 12.6573 5.56871ZM4.24942 9.26399L3.75488 12.3252C3.56748 13.4852 3.45521 14.1961 3.42274 14.7322C3.40763 14.9817 3.41478 15.1319 3.42598 15.2219C3.43563 15.2994 3.44752 15.3262 3.44967 15.331C3.5104 15.4693 3.59868 15.5945 3.70871 15.698C3.71256 15.7017 3.73408 15.7221 3.80389 15.7571C3.88492 15.7978 4.02411 15.8548 4.26423 15.924C4.7803 16.0728 5.48784 16.2049 6.64369 16.4165C7.79955 16.628 8.5079 16.7551 9.04102 16.7984C9.28908 16.8185 9.43817 16.8142 9.52729 16.8047C9.60409 16.7965 9.63044 16.7851 9.63521 16.783C9.7714 16.7246 9.89398 16.6381 9.99463 16.5293C9.99817 16.5255 10.018 16.5043 10.0515 16.4346C10.0903 16.3538 10.1441 16.2147 10.2082 15.9742C10.3458 15.4574 10.4631 14.7473 10.6505 13.5873L11.1451 10.5262C11.3325 9.36615 11.4447 8.65519 11.4772 8.11909C11.4923 7.86963 11.4852 7.71939 11.474 7.62943C11.4643 7.55191 11.4524 7.52515 11.4503 7.52031C11.3895 7.38199 11.3013 7.25683 11.1912 7.15332C11.1874 7.14967 11.1659 7.12924 11.0961 7.09421C11.015 7.05355 10.8758 6.99653 10.6357 6.9273C10.1196 6.77851 9.4121 6.64641 8.25625 6.43484C7.1004 6.22327 6.39204 6.09621 5.85893 6.05296C5.61086 6.03283 5.46178 6.03709 5.37265 6.0466C5.29585 6.05479 5.2695 6.06624 5.26473 6.06831C5.12854 6.12676 5.00596 6.21321 4.90531 6.322C4.90177 6.3258 4.8819 6.34708 4.84848 6.4167C4.80969 6.49751 4.7558 6.63658 4.69176 6.87708C4.55412 7.39393 4.43683 8.10397 4.24942 9.26399Z" fill="#272A30"/>
</svg>
