<svg width="20" height="20" viewBox="0 0 20 20" fill="none" xmlns="http://www.w3.org/2000/svg">
<path fill-rule="evenodd" clip-rule="evenodd" d="M17.5444 4.34375C17.6619 4.25497 17.8065 4.1537 17.9665 4.04203L17.9822 4.03106C18.1902 3.88582 18.4267 3.72074 18.5986 3.5753C18.6816 3.50508 18.7887 3.40761 18.8671 3.29451C18.9052 3.23945 18.9675 3.13771 18.9909 3.00129C19.0187 2.83881 18.9867 2.63979 18.8421 2.47783C18.2085 1.76789 17.3008 1.67745 16.5245 1.8829C15.7533 2.087 15.0118 2.59931 14.5516 3.26503L14.5448 3.27464L14.5435 3.27653C13.997 3.98121 13.9971 5.00277 14.5438 5.70731C15.2985 6.67993 15.7475 7.90044 15.7475 9.22741C15.7475 12.4016 13.1744 14.9748 10.0002 14.9748C6.82598 14.9748 4.2526 12.4016 4.2526 9.22742C4.2526 7.90044 4.70161 6.67994 5.45634 5.70731C6.00312 5.00268 6.00348 3.98135 5.45678 3.27666L5.4553 3.27465L5.44852 3.26502C4.98834 2.59931 4.2468 2.08701 3.47563 1.88291C2.69934 1.67745 1.79163 1.7679 1.15803 2.47783C1.01349 2.63979 0.981421 2.83881 1.00929 3.00129C1.03269 3.13772 1.09491 3.23946 1.13308 3.29452C1.21149 3.40761 1.3185 3.50509 1.4015 3.5753C1.57342 3.72074 1.80989 3.88582 2.01795 4.03106L2.03366 4.04203C2.19362 4.15371 2.33821 4.25497 2.45572 4.34375C1.54372 5.74992 1.01398 7.42751 1.01398 9.22742C1.01398 14.1902 5.03714 18.2134 9.99996 18.2134C14.9628 18.2134 18.9862 14.1903 18.9862 9.22741C18.9862 7.42751 18.4564 5.74992 17.5444 4.34375ZM3.63871 6.43079C3.63871 6.7214 3.40312 6.95698 3.11252 6.95698C2.82191 6.95698 2.58633 6.7214 2.58633 6.43079C2.58633 6.14018 2.82191 5.9046 3.11252 5.9046C3.40312 5.9046 3.63871 6.14018 3.63871 6.43079ZM2.58642 9.71937C2.87703 9.71937 3.11261 9.48379 3.11261 9.19318C3.11261 8.90257 2.87703 8.66699 2.58642 8.66699C2.29581 8.66699 2.06023 8.90257 2.06023 9.19318C2.06023 9.48379 2.29581 9.71937 2.58642 9.71937ZM17.3527 9.71937C17.6433 9.71937 17.8789 9.48379 17.8789 9.19318C17.8789 8.90257 17.6433 8.66699 17.3527 8.66699C17.0621 8.66699 16.8265 8.90257 16.8265 9.19318C16.8265 9.48379 17.0621 9.71937 17.3527 9.71937ZM3.63871 11.9558C3.63871 12.2465 3.40312 12.482 3.11252 12.482C2.82191 12.482 2.58633 12.2465 2.58633 11.9558C2.58633 11.6652 2.82191 11.4297 3.11252 11.4297C3.40312 11.4297 3.63871 11.6652 3.63871 11.9558ZM5.25022 14.4553C5.25022 14.7459 5.01463 14.9814 4.72403 14.9814C4.43342 14.9814 4.19784 14.7459 4.19784 14.4553C4.19784 14.1646 4.43342 13.9291 4.72403 13.9291C5.01463 13.9291 5.25022 14.1646 5.25022 14.4553ZM15.7741 14.4553C15.7741 14.7459 15.5385 14.9814 15.2479 14.9814C14.9573 14.9814 14.7217 14.7459 14.7217 14.4553C14.7217 14.1646 14.9573 13.9291 15.2479 13.9291C15.5385 13.9291 15.7741 14.1646 15.7741 14.4553ZM7.22344 16.5599C7.51404 16.5599 7.74963 16.3243 7.74963 16.0337C7.74963 15.7431 7.51404 15.5075 7.22344 15.5075C6.93283 15.5075 6.69725 15.7431 6.69725 16.0337C6.69725 16.3243 6.93283 16.5599 7.22344 16.5599ZM10.5123 16.5599C10.5123 16.8505 10.2767 17.0861 9.9861 17.0861C9.6955 17.0861 9.45991 16.8505 9.45991 16.5599C9.45991 16.2693 9.6955 16.0337 9.9861 16.0337C10.2767 16.0337 10.5123 16.2693 10.5123 16.5599ZM13.2747 16.0337C13.2747 16.3243 13.0391 16.5599 12.7485 16.5599C12.4579 16.5599 12.2223 16.3243 12.2223 16.0337C12.2223 15.7431 12.4579 15.5075 12.7485 15.5075C13.0391 15.5075 13.2747 15.7431 13.2747 16.0337ZM16.8265 12.482C17.1171 12.482 17.3527 12.2465 17.3527 11.9558C17.3527 11.6652 17.1171 11.4297 16.8265 11.4297C16.5359 11.4297 16.3003 11.6652 16.3003 11.9558C16.3003 12.2465 16.5359 12.482 16.8265 12.482ZM17.3527 6.43079C17.3527 6.7214 17.1171 6.95698 16.8265 6.95698C16.5359 6.95698 16.3003 6.7214 16.3003 6.43079C16.3003 6.14018 16.5359 5.9046 16.8265 5.9046C17.1171 5.9046 17.3527 6.14018 17.3527 6.43079Z" fill="#272A30"/>
</svg>
