<svg width="20" height="20" viewBox="0 0 20 20" fill="none" xmlns="http://www.w3.org/2000/svg">
<path fill-rule="evenodd" clip-rule="evenodd" d="M2.70711 17.0708C2.31658 16.6802 2.31658 16.0471 2.70711 15.6566L4.08771 14.276C3.25029 13.6541 2.49007 12.8833 1.84406 11.9634L1.32954 11.2307C1.11516 10.9254 1 10.5603 1 10.1859C1 9.80084 1.12184 9.42586 1.3477 9.11577L1.89609 8.36292C4.69303 4.52312 9.49265 3.35348 13.5097 4.854L15.435 2.92864C15.8256 2.53811 16.4587 2.53811 16.8492 2.92864C17.2398 3.31916 17.2398 3.95232 16.8492 4.34285L16.4894 4.70267C16.4843 4.70761 16.4792 4.71261 16.4741 4.71768L4.10601 17.0858C3.71442 17.4612 3.09257 17.4562 2.70711 17.0708ZM7.08754 11.2761L10.7437 7.61992C10.5819 7.59053 10.4153 7.57519 10.2451 7.57519H9.75486C8.20761 7.57519 6.95331 8.84324 6.95331 10.4074C6.95331 10.7105 7.00038 11.0024 7.08754 11.2761Z" fill="#272A30"/>
<path d="M8.00018 16.02C11.689 16.772 15.7287 15.4198 18.1559 11.9634L18.6705 11.2307C18.8848 10.9254 19 10.5603 19 10.1859C19 9.80084 18.8782 9.42586 18.6523 9.11577L18.1039 8.36292C17.7551 7.88403 17.3751 7.44666 16.9694 7.05083L12.9755 11.0447C12.7338 12.1072 11.901 12.9415 10.8457 13.1745L8.00018 16.02Z" fill="#272A30"/>
</svg>
