<svg width="20" height="20" viewBox="0 0 20 20" fill="none" xmlns="http://www.w3.org/2000/svg">
<path d="M9.87677 7.45845C9.8812 7.4426 9.89564 7.43164 9.91209 7.43164C9.92855 7.43164 9.94299 7.4426 9.94742 7.45845L10.2579 8.5697C10.3093 8.75357 10.335 8.84551 10.3009 8.91428C10.2896 8.93687 10.2743 8.95715 10.2555 8.97403C10.1985 9.02539 10.103 9.02539 9.91209 9.02539C9.72118 9.02539 9.62572 9.02539 9.56867 8.97403C9.54993 8.95715 9.53454 8.93687 9.52333 8.91428C9.48921 8.84551 9.5149 8.75357 9.56628 8.5697L9.87677 7.45845Z" fill="#272A30"/>
<path d="M13.4735 8.45412C13.532 8.5127 13.6263 8.5127 13.8149 8.5127H14.0565C14.4432 8.5127 14.6805 8.28125 14.6805 7.91504V7.90918C14.6805 7.55176 14.4373 7.31152 14.0506 7.31152H13.8149C13.6263 7.31152 13.532 7.31152 13.4735 7.3701C13.4149 7.42868 13.4149 7.52296 13.4149 7.71152V8.1127C13.4149 8.30126 13.4149 8.39554 13.4735 8.45412Z" fill="#272A30"/>
<path fill-rule="evenodd" clip-rule="evenodd" d="M1.65901 3.53401C1 4.19302 1 5.25368 1 7.375V9.625C1 11.7463 1 12.807 1.65901 13.466C2.31802 14.125 3.37868 14.125 5.5 14.125H14.5C16.6213 14.125 17.682 14.125 18.341 13.466C19 12.807 19 11.7463 19 9.625V7.375C19 5.25368 19 4.19302 18.341 3.53401C17.682 2.875 16.6213 2.875 14.5 2.875H5.5C3.37868 2.875 2.31802 2.875 1.65901 3.53401ZM5.33978 10.4476C5.38224 10.5826 5.40347 10.65 5.45629 10.6888C5.5091 10.7275 5.57984 10.7275 5.72134 10.7275H6.52305C6.66454 10.7275 6.73529 10.7275 6.7881 10.6888C6.84091 10.65 6.86214 10.5826 6.90461 10.4476L7.98299 7.02005C8.0578 6.78227 8.0952 6.66338 8.03527 6.58169C7.97533 6.5 7.8507 6.5 7.60143 6.5H7.23174C7.08159 6.5 7.00651 6.5 6.95223 6.54243C6.89795 6.58486 6.87983 6.65771 6.84357 6.80342L6.15821 9.55794C6.15426 9.57382 6.14001 9.58496 6.12364 9.58496C6.1073 9.58496 6.09305 9.57383 6.08908 9.55797L5.40101 6.80307C5.36466 6.65752 5.34648 6.58475 5.29223 6.54237C5.23797 6.5 5.16296 6.5 5.01293 6.5H4.64296C4.39369 6.5 4.26905 6.5 4.20912 6.58169C4.14918 6.66338 4.18659 6.78227 4.2614 7.02005L5.33978 10.4476ZM8.01076 10.2001C7.92988 10.4407 7.88945 10.561 7.9493 10.6443C8.00916 10.7275 8.13607 10.7275 8.38991 10.7275H8.65825C8.80412 10.7275 8.87706 10.7275 8.93063 10.6869C8.98421 10.6463 9.00393 10.5761 9.04336 10.4357L9.14021 10.0907C9.17963 9.95028 9.19935 9.88004 9.25293 9.83944C9.30651 9.79883 9.37944 9.79883 9.52532 9.79883H10.2989C10.4447 9.79883 10.5177 9.79883 10.5713 9.83944C10.6248 9.88004 10.6446 9.95026 10.684 10.0907L10.7808 10.4357C10.8203 10.5761 10.84 10.6463 10.8936 10.6869C10.9471 10.7275 11.0201 10.7275 11.1659 10.7275H11.4343C11.6881 10.7275 11.815 10.7275 11.8749 10.6443C11.9347 10.561 11.8943 10.4407 11.8134 10.2001L10.6614 6.77256C10.6172 6.641 10.5951 6.57521 10.5428 6.53761C10.4905 6.5 10.4211 6.5 10.2823 6.5H9.54193C9.40313 6.5 9.33373 6.5 9.28141 6.53761C9.2291 6.57521 9.20699 6.641 9.16277 6.77256L8.01076 10.2001ZM12.3983 10.669C12.3397 10.6104 12.3397 10.5161 12.3397 10.3275V6.9C12.3397 6.71144 12.3397 6.61716 12.3983 6.55858C12.4568 6.5 12.5511 6.5 12.7397 6.5H14.1766C15.2166 6.5 15.7762 7.02148 15.7762 7.89453V7.90039C15.7762 8.26596 15.6451 8.60945 15.406 8.85045C15.2371 9.02063 15.1526 9.10572 15.1427 9.16999C15.1328 9.23425 15.1728 9.31189 15.2528 9.46716L15.6017 10.1443C15.7362 10.4053 15.8034 10.5358 15.7449 10.6317C15.6865 10.7275 15.5397 10.7275 15.2461 10.7275H14.9448C14.8234 10.7275 14.7627 10.7275 14.7141 10.6972C14.6655 10.6669 14.6388 10.6123 14.5855 10.5033L14.0655 9.4402C14.0276 9.36268 14.0086 9.32392 13.9782 9.29738C13.9622 9.28334 13.9439 9.27197 13.9243 9.2637C13.8871 9.24805 13.8439 9.24805 13.7576 9.24805C13.6241 9.24805 13.5573 9.24805 13.5086 9.27865C13.4831 9.29466 13.4615 9.31622 13.4455 9.34172C13.4149 9.39048 13.4149 9.45725 13.4149 9.59079V10.3275C13.4149 10.5161 13.4149 10.6104 13.3563 10.669C13.2977 10.7275 13.2034 10.7275 13.0149 10.7275H12.7397C12.5511 10.7275 12.4568 10.7275 12.3983 10.669Z" fill="#272A30"/>
<path d="M6.00003 16.125C6.00003 15.5727 6.57292 15.125 7 15.125H13C13.4271 15.125 14 15.5727 14 16.125C14 16.6773 13.4271 17.125 13 17.125H7C6.57292 17.125 6.00003 16.6773 6.00003 16.125Z" fill="#272A30"/>
</svg>
