<svg width="20" height="20" viewBox="0 0 20 20" fill="none" xmlns="http://www.w3.org/2000/svg">
<path fill-rule="evenodd" clip-rule="evenodd" d="M1.09665 16.2558C0.719368 17.4624 1.48806 18.5329 2.68231 18.6547C4.29441 18.8191 6.79739 19.0003 10.0001 19.0003C13.2029 19.0003 15.7058 18.8191 17.3179 18.6547C18.5122 18.5329 19.2809 17.4624 18.9036 16.2558C18.4518 14.8108 17.573 12.5434 15.8636 9.18982C14.0233 5.57905 12.5038 3.22749 11.4731 1.80582C10.6942 0.731393 9.3061 0.731393 8.52713 1.80582C7.49646 3.22749 5.97699 5.57905 4.13662 9.18982C2.42731 12.5434 1.54849 14.8108 1.09665 16.2558ZM8.41428 6.62204C8.38074 6.08774 8.59993 5.5596 9.09142 5.41264C9.33373 5.34017 9.63658 5.28582 9.9999 5.28582C10.3632 5.28582 10.6661 5.34017 10.9084 5.41264C11.3999 5.5596 11.6191 6.08774 11.5855 6.62204C11.5082 7.85403 11.3522 10.127 11.1839 11.3472C11.1342 11.7082 10.9343 12.0234 10.5922 12.091C10.4382 12.1214 10.2431 12.1431 9.9999 12.1431C9.75665 12.1431 9.56159 12.1214 9.40761 12.091C9.06548 12.0234 8.86564 11.7082 8.81589 11.3472C8.64763 10.127 8.49156 7.85403 8.41428 6.62204ZM11.6363 15.1431C11.6363 16.0899 10.9036 16.8574 9.99987 16.8574C9.09614 16.8574 8.36349 16.0899 8.36349 15.1431C8.36349 14.1964 9.09614 13.4288 9.99987 13.4288C10.9036 13.4288 11.6363 14.1964 11.6363 15.1431Z" fill="#272A30"/>
</svg>
