<svg width="20" height="20" viewBox="0 0 20 20" fill="none" xmlns="http://www.w3.org/2000/svg">
<circle cx="10" cy="10" r="10" fill="white"/>
<circle cx="10" cy="10" r="9.16667" fill="#E10014"/>
<path fill-rule="evenodd" clip-rule="evenodd" d="M13.7071 6.29295C14.0976 6.68348 14.0976 7.31664 13.7071 7.70717L11.4142 10.0001L13.7071 12.293C14.0976 12.6835 14.0976 13.3166 13.7071 13.7072C13.3166 14.0977 12.6834 14.0977 12.2929 13.7072L10 11.4143L7.70711 13.7072C7.31658 14.0977 6.68342 14.0977 6.29289 13.7072C5.90237 13.3166 5.90237 12.6835 6.29289 12.293L8.58579 10.0001L6.29289 7.70717C5.90237 7.31664 5.90237 6.68348 6.29289 6.29295C6.68342 5.90243 7.31658 5.90243 7.70711 6.29295L10 8.58585L12.2929 6.29295C12.6834 5.90243 13.3166 5.90243 13.7071 6.29295Z" fill="white"/>
</svg>
