<svg width="20" height="20" viewBox="0 0 20 20" fill="none" xmlns="http://www.w3.org/2000/svg">
<circle cx="10" cy="10" r="10" fill="white"/>
<circle cx="10" cy="10" r="9.16667" fill="#798293"/>
<path fill-rule="evenodd" clip-rule="evenodd" d="M7.43494 5.19727C8.032 5.17593 8.76173 5.16224 9.65185 5.16224C11.0849 5.16224 12.1022 5.19771 12.8195 5.24352C12.7528 5.03636 12.6919 4.86221 12.6375 4.71643C12.4706 4.26909 12.0451 4.04718 11.5762 4.13717C11.0783 4.23272 10.2776 4.41209 9.02102 4.74878C8.37479 4.92194 7.85377 5.07086 7.43494 5.19727ZM5.82145 6.16241C5.34301 6.21163 4.9953 6.55367 4.9417 7.03164C4.87761 7.60332 4.81307 8.56092 4.81307 10.0994C4.81307 11.6378 4.87761 12.5954 4.9417 13.1671C4.9953 13.645 5.34301 13.9871 5.82145 14.0363C6.47227 14.1033 7.63696 14.1741 9.65185 14.1741C11.6667 14.1741 12.8314 14.1033 13.4822 14.0363C13.9607 13.9871 14.3084 13.645 14.362 13.1671C14.3801 13.0057 14.3982 12.8135 14.4149 12.5862C14.3423 12.5975 14.2681 12.605 14.1926 12.6084C13.9397 12.6198 13.6204 12.6274 13.2173 12.6274C12.8142 12.6274 12.4949 12.6198 12.242 12.6084C11.252 12.5636 10.4927 11.8232 10.4487 10.8176C10.44 10.6192 10.4346 10.3821 10.4346 10.0994C10.4346 9.81662 10.44 9.57961 10.4487 9.3812C10.4927 8.37556 11.252 7.63515 12.242 7.59038C12.4949 7.57894 12.8142 7.57135 13.2173 7.57135C13.6204 7.57135 13.9397 7.57894 14.1926 7.59038C14.2681 7.59379 14.3423 7.60126 14.4149 7.61258C14.3982 7.38524 14.3801 7.19306 14.362 7.03164C14.3084 6.55367 13.9607 6.21163 13.4822 6.16241C12.8314 6.09545 11.6667 6.0246 9.65185 6.0246C7.63696 6.0246 6.47227 6.09545 5.82145 6.16241ZM11.4478 9.4249C11.4688 8.94444 11.8067 8.61108 12.2871 8.58936C12.5224 8.57872 12.8264 8.57135 13.2173 8.57135C13.6082 8.57135 13.9122 8.57872 14.1474 8.58936C14.6279 8.61108 14.9658 8.94444 14.9868 9.4249C14.9948 9.607 15 9.82933 15 10.0994C15 10.3694 14.9948 10.5918 14.9868 10.7739C14.9658 11.2543 14.6279 11.5877 14.1474 11.6094C13.9122 11.6201 13.6082 11.6274 13.2173 11.6274C12.8264 11.6274 12.5224 11.6201 12.2871 11.6094C11.8067 11.5877 11.4688 11.2543 11.4478 10.7739C11.4398 10.5918 11.4346 10.3694 11.4346 10.0994C11.4346 9.82933 11.4398 9.607 11.4478 9.4249ZM13.4719 10.0993C13.4719 10.3806 13.2439 10.6087 12.9626 10.6087C12.6813 10.6087 12.4532 10.3806 12.4532 10.0993C12.4532 9.81801 12.6813 9.58997 12.9626 9.58997C13.2439 9.58997 13.4719 9.81801 13.4719 10.0993Z" fill="white"/>
</svg>
