<svg width="20" height="20" viewBox="0 0 20 20" fill="none" xmlns="http://www.w3.org/2000/svg">
<path fill-rule="evenodd" clip-rule="evenodd" d="M3.33332 14.6425H16.6667C17.7183 14.6425 18.5717 13.7901 18.5717 12.7384V6.07172C18.5717 5.01922 17.7183 4.16672 16.6667 4.16672H3.33332C2.28166 4.16672 1.42832 5.01922 1.42832 6.07088V12.7375C1.42832 13.79 2.28166 14.6425 3.33332 14.6425ZM6.66666 16.0762C6.22546 16.0762 5.86781 16.4339 5.86781 16.8751C5.86781 17.3162 6.22546 17.6739 6.66666 17.6739H13.3333C13.7745 17.6739 14.1322 17.3162 14.1322 16.8751C14.1322 16.4339 13.7745 16.0762 13.3333 16.0762H6.66666Z" fill="#BCC0C9"/>
<path fill-rule="evenodd" clip-rule="evenodd" d="M12.2435 10.0145L8.47619 12.31C8.05892 12.5642 7.50001 12.2908 7.50001 11.8325V7.24151C7.50001 6.78316 8.05892 6.50977 8.47619 6.76402L12.2435 9.05951C12.6163 9.28666 12.6163 9.78734 12.2435 10.0145Z" fill="white"/>
</svg>
