<svg width="20" height="20" viewBox="0 0 20 20" fill="none" xmlns="http://www.w3.org/2000/svg">
<path d="M10 19C14.9706 19 19 14.9706 19 10C19 5.02944 14.9706 1 10 1C5.02944 1 1 5.02944 1 10C1 14.9706 5.02944 19 10 19Z" fill="white"/>
<path d="M10 18C14.4183 18 18 14.4183 18 10C18 5.58172 14.4183 2 10 2C5.58172 2 2 5.58172 2 10C2 14.4183 5.58172 18 10 18Z" fill="#730D75"/>
<path d="M12.0276 11.0989C12.053 10.9514 11.9395 10.8167 11.7899 10.8167H10.7806C10.6867 10.8167 10.6064 10.8842 10.5904 10.9767L10.3416 12.413C10.2284 13.0289 9.90165 13.2175 9.43657 13.2175C8.97149 13.2175 8.69495 13.0289 8.80808 12.413L9.66283 7.58623C9.76339 6.97031 10.1028 6.78176 10.5678 6.78176C11.033 6.78176 11.2969 6.97031 11.1963 7.58623L10.9863 8.74143C10.9648 8.85987 11.0557 8.9689 11.1761 8.9689H12.2013C12.3181 8.9689 12.4181 8.88528 12.4388 8.77036L12.6921 7.35997C12.9184 6.05271 12.0134 5.49963 10.8067 5.49963H10.7815C9.32344 5.49963 8.46869 6.05271 8.24244 7.35997L7.31227 12.6393C7.06087 14.0094 7.99104 14.4996 9.19774 14.4996H9.22289C10.681 14.4996 11.5232 13.9968 11.762 12.6393L12.0276 11.0989Z" fill="white"/>
</svg>
