<svg width="20" height="20" viewBox="0 0 20 20" fill="none" xmlns="http://www.w3.org/2000/svg">
<g clip-path="url(#clip0_144_732)">
<path d="M8.19918 4.04984C9.95375 3.21515 12.0101 3.8944 12.9197 5.59081C12.9533 5.65348 12.9855 5.71654 13.0189 5.77932C13.1804 6.08306 13.6956 7.06127 13.9968 7.74206C14.3035 8.43553 14.7273 9.59407 14.8468 9.92416C14.8688 9.9847 14.8915 10.0445 14.9133 10.1051C15.569 11.9299 14.7246 13.9978 12.9653 14.8348L8.75034 16.8399C7.05531 17.6463 5.07319 17.0407 4.12051 15.4584C4.04837 15.3386 3.98135 15.2162 3.91073 15.0955C3.69534 14.7271 3.19822 13.8536 2.84002 13.0439C2.49636 12.267 2.22112 11.4217 2.09835 11.0246C2.05084 10.871 1.99916 10.7192 1.95437 10.5646C1.44081 8.79281 2.29141 6.8603 3.97503 6.05936L8.19918 4.04984Z" fill="#6A7B9F"/>
<ellipse cx="13.1645" cy="11.9123" rx="1.30654" ry="3.8057" transform="rotate(18 13.1645 11.9123)" fill="#C4C4C4"/>
<path d="M17.9765 8.84665L16.1564 11.8645" stroke="#BBC6DF" stroke-width="1.00795"/>
<path fill-rule="evenodd" clip-rule="evenodd" d="M16.4384 11.6421L16.15 11.5485L16.1239 11.629C15.8423 11.7303 15.5403 12.1168 15.3735 12.6301C15.2068 13.1433 15.2239 13.6336 15.3922 13.881L15.366 13.9614L15.576 14.0296C15.5781 14.0304 15.5801 14.031 15.5822 14.0317C15.5843 14.0324 15.5863 14.033 15.5884 14.0337L15.6544 14.0551L15.6571 14.0465C15.9781 14.0717 16.3743 13.6377 16.5749 13.0204C16.7755 12.4031 16.71 11.8191 16.4356 11.6508L16.4384 11.6421Z" fill="#55637D"/>
<path fill-rule="evenodd" clip-rule="evenodd" d="M15.8207 10.6569L15.3042 10.4891L15.2626 10.6169C14.7697 10.7629 14.2576 11.3663 13.9928 12.1814C13.7279 12.9966 13.7875 13.7858 14.1005 14.1936L14.059 14.3214L14.4432 14.4462C14.4442 14.4466 14.4452 14.4469 14.4463 14.4473C14.4473 14.4476 14.4483 14.4479 14.4493 14.4482L14.5755 14.4892L14.5799 14.4756C15.1503 14.5352 15.8264 13.8611 16.145 12.8807C16.4635 11.9003 16.3127 10.9576 15.8163 10.6706L15.8207 10.6569Z" fill="#6A7B9F"/>
<ellipse cx="18.2069" cy="8.60758" rx="0.871025" ry="0.895458" transform="rotate(18 18.2069 8.60758)" fill="#55637D"/>
<path fill-rule="evenodd" clip-rule="evenodd" d="M12.6097 15.7336C13.5628 16.0433 14.862 14.6739 15.5115 12.6749C16.161 10.676 15.9149 8.80444 14.9617 8.49474C14.9043 8.47609 14.8456 8.46352 14.7859 8.45682C14.7474 8.43181 14.705 8.41137 14.6593 8.3965L14.3404 8.29291L14.2619 8.5345C13.4458 8.84764 12.5601 10.0138 12.0599 11.5534C11.5596 13.093 11.5907 14.5571 12.0669 15.2901L11.9884 15.5318L12.3072 15.6354C12.353 15.6502 12.3994 15.6586 12.4453 15.661C12.4975 15.6907 12.5523 15.715 12.6097 15.7336Z" fill="#BBC6DF"/>
<ellipse cx="13.1645" cy="11.9123" rx="1.30654" ry="3.8057" transform="rotate(18 13.1645 11.9123)" fill="#55637D"/>
<path fill-rule="evenodd" clip-rule="evenodd" d="M4.33079 5.04053C3.37764 4.73083 2.07844 6.10025 1.42894 8.09921C0.779438 10.0982 1.02559 11.9697 1.97873 12.2794C2.03616 12.2981 2.09485 12.3106 2.15457 12.3173C2.1931 12.3424 2.23551 12.3628 2.28129 12.3777L2.60013 12.4813L2.67866 12.2396C3.49474 11.9264 4.38035 10.7603 4.88058 9.22072C5.38081 7.68117 5.34977 6.21721 4.87364 5.48414L4.95218 5.24241L4.63334 5.13882C4.58754 5.12394 4.54118 5.11555 4.49527 5.11317C4.44303 5.0835 4.38819 5.05918 4.33079 5.04053Z" fill="#BBC6DF"/>
<ellipse cx="3.77602" cy="8.8618" rx="1.30654" ry="3.8057" transform="rotate(-162 3.77602 8.8618)" fill="#55637D"/>
<path fill-rule="evenodd" clip-rule="evenodd" d="M7.62104 6.42349L5.27392 5.66087L5.27392 5.66087C5.2739 5.66087 5.27389 5.66086 5.27387 5.66086C4.58761 5.43787 3.54605 6.75049 2.94749 8.59267C2.34893 10.4348 2.42003 12.109 3.1063 12.332C3.10678 12.3321 3.10727 12.3323 3.10776 12.3324L5.45041 13.0936C5.45137 13.094 5.45233 13.0943 5.4533 13.0946C5.75831 13.1937 6.49079 11.7807 7.08935 9.93849C7.68782 8.09661 7.92581 6.5231 7.62102 6.42354L7.62104 6.42349Z" fill="white"/>
<path fill-rule="evenodd" clip-rule="evenodd" d="M9.71282 10.7908C10.3114 8.94861 11.0439 7.53558 11.3489 7.63467C11.3489 7.63467 11.3489 7.63467 11.3489 7.63467L13.8307 8.44107C13.8318 8.44141 13.8329 8.44176 13.8339 8.4421C14.5202 8.66509 14.5913 10.3392 13.9927 12.1814C13.3942 14.0235 12.3527 15.3361 11.6665 15.1133L11.6665 15.1133L9.1815 14.3058C9.18143 14.3058 9.18136 14.3058 9.1813 14.3058C9.1813 14.3058 9.1813 14.3058 9.18129 14.3058C8.87629 14.2067 9.11427 12.633 9.71282 10.7908Z" fill="white"/>
<ellipse cx="10.196" cy="10.9478" rx="0.508098" ry="3.50721" transform="rotate(18 10.196 10.9478)" fill="#D0E1EA"/>
<ellipse cx="6.60628" cy="9.78141" rx="0.508098" ry="3.50721" transform="rotate(18 6.60628 9.78141)" fill="#D0E1EA"/>
<path fill-rule="evenodd" clip-rule="evenodd" d="M10.9828 7.35179L8.08341 6.40972L8.0834 6.40973C7.77839 6.31065 7.02435 7.79006 6.39919 9.71411C5.77402 11.6382 5.51448 13.2783 5.81949 13.3774C5.81981 13.3775 5.82012 13.3776 5.82044 13.3777L8.71734 14.3189C8.71785 14.3191 8.71836 14.3193 8.71887 14.3194C9.02388 14.4185 9.77793 12.9391 10.4031 11.0151C11.0283 9.091 11.2878 7.45091 10.9828 7.35181C10.9828 7.3518 10.9828 7.3518 10.9828 7.3518L10.9828 7.35179Z" fill="white"/>
<path d="M11.3469 10.9294L11.6697 9.93582L13.7407 10.6087L13.5562 11.1765C12.8378 11.6963 12.2895 12.648 12.1051 13.0588L11.2077 12.7672C11.4383 12.0575 12.3287 11.1961 12.7048 10.9783L12.0835 10.7764L11.9682 11.1313L11.3469 10.9294Z" fill="#55637D"/>
<path d="M7.31356 9.54763L7.69509 8.37341L10.1426 9.16866L9.9246 9.83965C9.07558 10.454 8.42752 11.5787 8.20962 12.0642L7.14902 11.7196C7.42154 10.8809 8.47391 9.86283 8.91834 9.60542L8.18408 9.36684L8.04782 9.78621L7.31356 9.54763Z" fill="#55637D"/>
<path d="M3.75326 8.46208L4.07609 7.46851L6.14708 8.14141L5.9626 8.70916C5.2442 9.22897 4.69584 10.1806 4.51146 10.5915L3.61403 10.2999C3.84463 9.59023 4.73509 8.72878 5.11115 8.51097L4.48985 8.3091L4.37456 8.66395L3.75326 8.46208Z" fill="#55637D"/>
</g>
<defs>
<clipPath id="clip0_144_732">
<rect width="20" height="20" fill="white"/>
</clipPath>
</defs>
</svg>
