<svg width="20" height="20" viewBox="0 0 20 20" fill="none" xmlns="http://www.w3.org/2000/svg">
<g clip-path="url(#clip0_144_733)">
<path d="M8.19921 4.04984C9.95378 3.21515 12.0101 3.8944 12.9198 5.59081C12.9534 5.65348 12.9855 5.71654 13.0189 5.77932C13.1804 6.08306 13.6956 7.06127 13.9968 7.74206C14.3035 8.43553 14.7273 9.59407 14.8469 9.92416C14.8688 9.9847 14.8916 10.0445 14.9133 10.1051C15.5691 11.9299 14.7246 13.9978 12.9654 14.8348L8.75037 16.8399C7.05534 17.6463 5.07322 17.0407 4.12054 15.4584C4.0484 15.3386 3.98138 15.2162 3.91076 15.0955C3.69537 14.7271 3.19825 13.8536 2.84005 13.0439C2.49639 12.267 2.22115 11.4217 2.09838 11.0246C2.05087 10.871 1.99919 10.7192 1.9544 10.5646C1.44084 8.79281 2.29144 6.8603 3.97506 6.05936L8.19921 4.04984Z" fill="#AF231E"/>
<ellipse cx="13.1646" cy="11.9123" rx="1.30654" ry="3.8057" transform="rotate(18 13.1646 11.9123)" fill="#C4C4C4"/>
<path d="M17.9766 8.84665L16.1565 11.8645" stroke="#F6C106" stroke-width="1.00795"/>
<path fill-rule="evenodd" clip-rule="evenodd" d="M16.4384 11.6421L16.1501 11.5485L16.1239 11.629C15.8423 11.7303 15.5403 12.1168 15.3735 12.6301C15.2068 13.1433 15.2239 13.6336 15.3922 13.881L15.3661 13.9614L15.576 14.0296C15.5781 14.0303 15.5801 14.031 15.5822 14.0317C15.5843 14.0324 15.5864 14.0331 15.5885 14.0337L15.6544 14.0551L15.6572 14.0465C15.9782 14.0717 16.3744 13.6377 16.5749 13.0204C16.7755 12.4031 16.7101 11.8191 16.4356 11.6508L16.4384 11.6421Z" fill="#F6C106"/>
<path fill-rule="evenodd" clip-rule="evenodd" d="M15.8207 10.6569L15.3042 10.4891L15.2627 10.6169C14.7697 10.7629 14.2577 11.3663 13.9928 12.1814C13.7279 12.9966 13.7876 13.7858 14.1005 14.1936L14.059 14.3214L14.4431 14.4462C14.4442 14.4466 14.4452 14.4469 14.4463 14.4473C14.4473 14.4476 14.4484 14.4479 14.4495 14.4483L14.5755 14.4892L14.58 14.4756C15.1503 14.5352 15.8264 13.8611 16.145 12.8807C16.4635 11.9003 16.3127 10.9576 15.8163 10.6706L15.8207 10.6569Z" fill="#FFE500"/>
<ellipse cx="18.2069" cy="8.60758" rx="0.871025" ry="0.895458" transform="rotate(18 18.2069 8.60758)" fill="#FFB904"/>
<path fill-rule="evenodd" clip-rule="evenodd" d="M12.6097 15.7336C13.5628 16.0433 14.862 14.6739 15.5115 12.6749C16.161 10.676 15.9149 8.80444 14.9618 8.49474C14.9043 8.47609 14.8456 8.46352 14.7859 8.45682C14.7474 8.43181 14.705 8.41137 14.6593 8.3965L14.3404 8.29291L14.2619 8.5345C13.4458 8.84764 12.5602 10.0138 12.0599 11.5534C11.5597 13.093 11.5907 14.5571 12.0669 15.2901L11.9884 15.5318L12.3072 15.6354C12.353 15.6503 12.3994 15.6586 12.4453 15.661C12.4975 15.6907 12.5523 15.715 12.6097 15.7336Z" fill="#EB514C"/>
<ellipse cx="13.1646" cy="11.9123" rx="1.30654" ry="3.8057" transform="rotate(18 13.1646 11.9123)" fill="#B62924"/>
<path fill-rule="evenodd" clip-rule="evenodd" d="M4.33081 5.04053C3.37767 4.73083 2.07847 6.10025 1.42897 8.09921C0.779468 10.0982 1.02562 11.9697 1.97876 12.2794C2.03619 12.2981 2.09488 12.3106 2.1546 12.3173C2.19313 12.3424 2.23554 12.3628 2.28132 12.3777L2.60016 12.4813L2.67869 12.2396C3.49477 11.9264 4.38038 10.7603 4.88061 9.22072C5.38084 7.68117 5.3498 6.21721 4.87367 5.48414L4.95221 5.24241L4.63337 5.13882C4.58757 5.12394 4.54121 5.11555 4.49529 5.11317C4.44306 5.0835 4.38822 5.05918 4.33081 5.04053Z" fill="#EB514C"/>
<ellipse cx="3.77605" cy="8.8618" rx="1.30654" ry="3.8057" transform="rotate(-162 3.77605 8.8618)" fill="#B62924"/>
<path fill-rule="evenodd" clip-rule="evenodd" d="M7.62107 6.42349L5.27395 5.66087L5.27395 5.66087C5.27393 5.66087 5.27392 5.66086 5.2739 5.66086C4.58764 5.43788 3.54608 6.75049 2.94752 8.59267C2.34896 10.4348 2.42006 12.109 3.10633 12.332C3.10698 12.3322 3.10764 12.3324 3.10829 12.3326L5.45038 13.0936C5.45136 13.0939 5.45234 13.0943 5.45333 13.0946C5.75834 13.1937 6.49082 11.7807 7.08938 9.93849C7.68784 8.09661 7.92584 6.5231 7.62105 6.42354L7.62107 6.42349Z" fill="white"/>
<path fill-rule="evenodd" clip-rule="evenodd" d="M9.71285 10.7908C10.3114 8.94864 11.0439 7.53561 11.3489 7.6347C11.3489 7.6347 11.3489 7.6347 11.3489 7.6347L13.8299 8.44083C13.8313 8.44126 13.8326 8.44169 13.834 8.44213C14.5202 8.66511 14.5913 10.3392 13.9928 12.1814C13.3942 14.0235 12.3528 15.3361 11.6665 15.1133L11.6665 15.1133L9.18152 14.3059C9.18146 14.3059 9.18139 14.3058 9.18132 14.3058C9.18132 14.3058 9.18132 14.3058 9.18132 14.3058C8.87632 14.2067 9.11429 12.633 9.71285 10.7908Z" fill="white"/>
<ellipse cx="10.196" cy="10.9478" rx="0.508098" ry="3.50721" transform="rotate(18 10.196 10.9478)" fill="#D0E1EA"/>
<ellipse cx="6.60631" cy="9.78141" rx="0.508098" ry="3.50721" transform="rotate(18 6.60631 9.78141)" fill="#D0E1EA"/>
<path fill-rule="evenodd" clip-rule="evenodd" d="M10.9828 7.35179L8.08343 6.40972L8.08343 6.40973C7.77842 6.31065 7.02438 7.79006 6.39922 9.7141C5.77405 11.6382 5.51451 13.2783 5.81952 13.3774C5.8198 13.3775 5.82009 13.3775 5.82037 13.3776L8.71737 14.3189C8.71788 14.3191 8.71839 14.3193 8.7189 14.3194C9.0239 14.4185 9.77796 12.9391 10.4031 11.0151C11.0283 9.091 11.2878 7.45091 10.9828 7.35181C10.9828 7.3518 10.9828 7.3518 10.9828 7.3518L10.9828 7.35179Z" fill="white"/>
<path d="M11.3469 10.9294L11.6698 9.93582L13.7407 10.6087L13.5563 11.1765C12.8379 11.6963 12.2895 12.648 12.1051 13.0588L11.2077 12.7672C11.4383 12.0575 12.3288 11.1961 12.7048 10.9783L12.0835 10.7764L11.9682 11.1313L11.3469 10.9294Z" fill="#E43100"/>
<path d="M7.31359 9.54763L7.69512 8.37341L10.1426 9.16866L9.92463 9.83965C9.07561 10.454 8.42755 11.5787 8.20965 12.0642L7.14905 11.7196C7.42157 10.8809 8.47394 9.86283 8.91837 9.60542L8.18411 9.36684L8.04785 9.78621L7.31359 9.54763Z" fill="#E43100"/>
<path d="M3.75329 8.46208L4.07612 7.46851L6.14711 8.14141L5.96263 8.70916C5.24423 9.22897 4.69587 10.1806 4.51149 10.5915L3.61407 10.2999C3.84466 9.59023 4.73513 8.72878 5.11118 8.51097L4.48988 8.3091L4.37459 8.66395L3.75329 8.46208Z" fill="#E43100"/>
</g>
<defs>
<clipPath id="clip0_144_733">
<rect width="20" height="20" fill="white"/>
</clipPath>
</defs>
</svg>
