<svg width="20" height="20" viewBox="0 0 20 20" fill="none" xmlns="http://www.w3.org/2000/svg">
<path d="M9.70548 16.5291C9.68999 17.2068 8.89284 18.8945 6.17621 19.2568C3.96019 19.5523 2.65638 18.544 2.14112 17.8445C2.03128 17.6954 1.58739 16.1267 1.72144 15.1817C2.30092 13.5254 3.95408 13.7561 5.54348 13.6155C6.7906 13.5051 8.52596 13.8819 9.3193 14.4613C9.85836 14.582 9.72098 15.8514 9.70548 16.5291Z" fill="#6A7B9F"/>
<ellipse cx="5.71777" cy="15.3848" rx="4.0301" ry="2.73427" transform="rotate(-5.0573 5.71777 15.3848)" fill="#BBC6DF"/>
<path fill-rule="evenodd" clip-rule="evenodd" d="M6.42011 12.6528C6.11524 12.6307 5.79927 12.6326 5.4767 12.6612C5.14815 12.6903 4.83119 12.7453 4.53003 12.8229L4.97284 14.6903L2.63961 13.7679C2.23306 14.1166 1.93921 14.5251 1.79545 14.9629L4.4177 15.5212L1.93632 16.4997C2.15731 16.9046 2.52061 17.2541 2.98401 17.5246L5.06414 16.2748L4.98681 18.1146C5.30048 18.139 5.62611 18.1379 5.95876 18.1084C6.286 18.0795 6.60175 18.0248 6.90183 17.9477L6.4688 16.1583L8.77717 17.0176C9.19264 16.6662 9.49296 16.2527 9.63921 15.8091L7.12212 15.2794L9.50896 14.2882C9.28944 13.8763 8.92327 13.521 8.4543 13.2467L6.27217 14.5656L6.42011 12.6528Z" fill="#90A1C6"/>
<ellipse cx="5.71774" cy="15.3848" rx="2.68673" ry="1.82285" transform="rotate(-5.05731 5.71774 15.3848)" fill="#D0D6E4"/>
<path fill-rule="evenodd" clip-rule="evenodd" d="M13.8955 13.7834L15.6342 8.24177C15.972 7.16513 16.1768 6.50521 16.2877 6.00055C16.3393 5.76558 16.3571 5.62084 16.3619 5.53222C16.3661 5.45421 16.3595 5.4258 16.3595 5.4258C16.3179 5.22769 16.226 5.04513 16.093 4.89654C16.093 4.89654 16.0743 4.87465 16.0101 4.83365C15.9373 4.78706 15.8126 4.71946 15.5972 4.6291C15.1345 4.43503 14.4953 4.23213 13.4503 3.90425C12.4053 3.57637 11.7648 3.37773 11.2741 3.27268C11.0457 3.22377 10.9048 3.20804 10.8183 3.20465C10.7408 3.2016 10.7144 3.20893 10.7144 3.20893C10.5204 3.25489 10.3407 3.3522 10.1934 3.49106C10.1934 3.49106 10.1725 3.5093 10.1306 3.57706C10.0839 3.65253 10.0158 3.78148 9.92391 4.00382C9.72662 4.48137 9.51769 5.13999 9.17988 6.21664L7.44113 11.7582C7.10331 12.8349 6.89853 13.4948 6.78764 13.9995C6.73601 14.2344 6.71824 14.3792 6.71346 14.4678C6.70925 14.5458 6.71584 14.5742 6.71584 14.5742C6.75739 14.7723 6.84931 14.9549 6.98232 15.1035C6.98232 15.1035 7.00105 15.1253 7.06518 15.1664C7.13804 15.2129 7.26272 15.2805 7.47815 15.3709C7.94084 15.565 8.58006 15.7679 9.62504 16.0958C10.67 16.4236 11.3106 16.6223 11.8012 16.7273C12.0296 16.7762 12.1706 16.792 12.257 16.7954C12.3346 16.7984 12.3609 16.7911 12.3609 16.7911C12.555 16.7451 12.7347 16.6478 12.882 16.5089C12.882 16.5089 12.9028 16.4907 12.9447 16.4229C12.9915 16.3475 13.0596 16.2185 13.1514 15.9962C13.3487 15.5186 13.5576 14.86 13.8955 13.7834ZM8.67792 1.79813C8.00347 2.43403 7.67847 3.46989 7.02844 5.54159L5.28969 11.0832C4.63966 13.1549 4.31464 14.1907 4.50491 15.098C4.62955 15.6923 4.90525 16.2399 5.30428 16.6856C5.91337 17.366 6.91876 17.6815 8.92953 18.3124C10.9403 18.9433 11.9457 19.2588 12.8343 19.0483C13.4165 18.9104 13.9556 18.6185 14.3974 18.2019C15.0719 17.566 15.3969 16.5301 16.0469 14.4584L17.7856 8.91682C18.4357 6.84512 18.7607 5.80927 18.5704 4.90205C18.4458 4.30772 18.1701 3.76015 17.7711 3.3144C17.162 2.63397 16.1566 2.31852 14.1458 1.68761C12.135 1.05671 11.1296 0.741244 10.241 0.951736C9.65885 1.08963 9.11975 1.38155 8.67792 1.79813Z" fill="#7989A6"/>
<path d="M8.09209 5.6366C8.68027 3.76202 8.97436 2.82472 9.67421 2.33666C9.8489 2.21484 10.0384 2.11584 10.2382 2.04206C11.0386 1.74648 11.9759 2.04057 13.8505 2.62875C15.7251 3.21693 16.6624 3.51102 17.1504 4.21087C17.2723 4.38555 17.3713 4.57509 17.445 4.77487C17.7406 5.57526 17.4465 6.51256 16.8583 8.38715L14.9832 14.3634C14.395 16.238 14.1009 17.1753 13.4011 17.6633C13.2264 17.7852 13.0369 17.8842 12.8371 17.9579C12.0367 18.2535 11.0994 17.9594 9.22481 17.3713C7.35023 16.7831 6.41293 16.489 5.92487 15.7891C5.80304 15.6145 5.70404 15.4249 5.63027 15.2251C5.33469 14.4247 5.62878 13.4874 6.21696 11.6129L8.09209 5.6366Z" fill="white"/>
<path d="M12.364 6.85598C12.5069 6.81938 12.6585 6.92394 12.6736 7.07148C12.9349 8.11586 13.1934 9.1614 13.4525 10.2069C13.4932 10.3179 13.4211 10.4242 13.334 10.4863C12.4767 11.1595 11.6251 11.8403 10.7666 12.5106C10.6289 12.625 10.3937 12.5234 10.3763 12.3474C10.1242 11.2746 9.87441 10.2011 9.62465 9.12771C9.59096 9.0278 9.62058 8.90698 9.71119 8.84716C10.5226 8.22564 11.3417 7.614 12.1537 6.99248C12.2211 6.94311 12.2861 6.88734 12.364 6.85598Z" fill="#7989A6"/>
<path d="M8.06372 14.4938C7.56992 14.9582 5.80798 15.5742 3.64392 13.8925C1.87864 12.5206 1.68245 10.8841 1.81948 10.0262C1.84869 9.84328 2.65509 8.42648 3.42258 7.85899C5.00942 7.10994 6.00477 8.44989 7.22006 9.48383C8.17364 10.2951 9.12259 11.7961 9.26629 12.7679C9.55847 13.2367 8.55753 14.0294 8.06372 14.4938Z" fill="#6A7B9F"/>
<ellipse cx="6.08155" cy="10.8492" rx="4.0301" ry="2.73427" transform="rotate(40.3903 6.08155 10.8492)" fill="#BBC6DF"/>
<path fill-rule="evenodd" clip-rule="evenodd" d="M8.52103 9.43311C8.32293 9.20033 8.09988 8.97655 7.85325 8.76671C7.60202 8.55298 7.34042 8.36571 7.07386 8.20552L6.05376 9.8312L5.07417 7.5214C4.54049 7.4763 4.04323 7.5535 3.63035 7.75826L5.07209 10.0184L2.63412 8.9367C2.50058 9.37826 2.50643 9.88231 2.63878 10.4023L4.98873 11.0078L3.62335 12.2435C3.82604 12.4842 4.05532 12.7154 4.30968 12.9318C4.55989 13.1447 4.82038 13.3313 5.08582 13.4911L6.05716 11.9271L7.06425 14.175C7.60619 14.2245 8.11149 14.1484 8.53023 13.9414L7.14171 11.776L9.52275 12.7815C9.66222 12.3361 9.65849 11.826 9.52494 11.2993L7.0542 10.6696L8.52103 9.43311Z" fill="#90A1C6"/>
<ellipse cx="6.08159" cy="10.8493" rx="2.68673" ry="1.82285" transform="rotate(40.3903 6.08159 10.8493)" fill="white"/>
<path d="M5.27476 11.3507L5.00006 10.3314C4.91017 9.99781 5.2084 9.68884 5.54494 9.76688L6.62097 10.0164C6.77697 10.0526 6.90268 10.1677 6.9524 10.3199L7.24307 11.21C7.34625 11.5259 7.08865 11.8429 6.75829 11.8066L5.66628 11.6863C5.47914 11.6657 5.32374 11.5325 5.27476 11.3507Z" fill="#90A1C6"/>
</svg>
