<svg width="20" height="20" viewBox="0 0 20 20" fill="none" xmlns="http://www.w3.org/2000/svg">
<path d="M2.59281 7.27569C2.69522 5.56523 3.81404 4.27307 5.51993 4.11145C6.6601 4.00343 8.26379 3.92041 10.5 3.92041C12.7362 3.92041 14.3399 4.00343 15.4801 4.11145C17.186 4.27307 18.3048 5.56523 18.4072 7.27569C18.4606 8.16818 18.5 9.30578 18.5 10.7204C18.5 12.135 18.4606 13.2726 18.4072 14.1651C18.3048 15.8756 17.186 17.1678 15.4801 17.3294C14.3399 17.4374 12.7362 17.5204 10.5 17.5204C8.26379 17.5204 6.6601 17.4374 5.51992 17.3294C3.81404 17.1678 2.69522 15.8756 2.59281 14.1651C2.53938 13.2726 2.5 12.135 2.5 10.7204C2.5 9.30578 2.53938 8.16818 2.59281 7.27569Z" fill="#6C9AE4"/>
<path d="M5.70001 11.6461C5.70001 11.9456 5.92076 12.1986 6.219 12.2258C6.51677 12.253 6.90839 12.2796 7.30001 12.2796C7.69163 12.2796 8.08325 12.253 8.38103 12.2258C8.67927 12.1986 8.90001 11.9456 8.90001 11.6461V10.9168C8.90001 10.6157 8.67709 10.3619 8.37725 10.3352C8.07994 10.3088 7.68998 10.2823 7.30001 10.2796C6.90674 10.2769 6.51348 10.3037 6.21524 10.3317C5.91861 10.3595 5.70001 10.6117 5.70001 10.9096V11.6461Z" fill="#20406B"/>
<path d="M5.70001 15.189C5.70001 15.5123 5.95474 15.7773 6.27785 15.7876C7.27409 15.8193 9.32126 15.8796 10.5 15.8796C11.6788 15.8796 13.7259 15.8193 14.7222 15.7876C15.0453 15.7773 15.3 15.5123 15.3 15.189V14.5703C15.3 14.247 15.0453 13.982 14.7222 13.9717C13.7259 13.9399 11.6788 13.8796 10.5 13.8796C9.32126 13.8796 7.27409 13.9399 6.27785 13.9717C5.95474 13.982 5.70001 14.247 5.70001 14.5703V15.189Z" fill="#20406B"/>
<circle cx="14.8059" cy="7.00525" r="4.38159" fill="#6C9AE4"/>
<path fill-rule="evenodd" clip-rule="evenodd" d="M15.6183 11.3117C15.355 11.361 15.0835 11.3868 14.8059 11.3868C14.5283 11.3868 14.2568 11.361 13.9935 11.3117C13.8986 9.76278 13.8408 8.97796 13.337 8.47388C12.8332 7.96975 12.0483 7.91155 10.4991 7.81581C10.45 7.55312 10.4243 7.28218 10.4243 7.00524C10.4243 6.87508 10.43 6.74625 10.4411 6.61898C11.7029 5.81703 13.2001 5.35254 14.8059 5.35254C16.4117 5.35254 17.909 5.81703 19.1707 6.61898C19.1818 6.74625 19.1875 6.87508 19.1875 7.00524C19.1875 7.28218 19.1618 7.55312 19.1127 7.81581C17.5635 7.91155 16.7787 7.96975 16.2748 8.47388C15.771 8.97796 15.7132 9.76278 15.6183 11.3117ZM15.7668 7.00523C15.7668 7.53591 15.3366 7.96611 14.8059 7.96611C14.2753 7.96611 13.8451 7.53591 13.8451 7.00523C13.8451 6.47456 14.2753 6.04436 14.8059 6.04436C15.3366 6.04436 15.7668 6.47456 15.7668 7.00523Z" fill="#20406B"/>
<path fill-rule="evenodd" clip-rule="evenodd" d="M14.8059 10.0032C16.4616 10.0032 17.8038 8.66096 17.8038 7.00525C17.8038 5.34954 16.4616 4.00732 14.8059 4.00732C13.1502 4.00732 11.808 5.34954 11.808 7.00525C11.808 8.66096 13.1502 10.0032 14.8059 10.0032ZM14.8059 11.3868C17.2258 11.3868 19.1875 9.42514 19.1875 7.00525C19.1875 4.58536 17.2258 2.62366 14.8059 2.62366C12.386 2.62366 10.4243 4.58536 10.4243 7.00525C10.4243 9.42514 12.386 11.3868 14.8059 11.3868Z" fill="#20406B"/>
</svg>
