<svg width="20" height="20" viewBox="0 0 20 20" fill="none" xmlns="http://www.w3.org/2000/svg">
<path d="M5.0609 17.9371C5.73559 17.9788 6.29851 17.4369 6.29851 16.7609C6.29851 15.0085 6.29851 14.1323 6.84058 13.5879C7.38265 13.0435 8.2551 13.0435 10 13.0435C11.7449 13.0435 12.6174 13.0435 13.1594 13.5879C13.7015 14.1323 13.7015 15.0085 13.7015 16.7609C13.7015 17.4369 14.2644 17.9788 14.9391 17.9371C15.385 17.9095 15.7682 17.88 16.0936 17.8509C17.0174 17.7683 17.73 17.0855 17.8279 16.1572C17.9178 15.3045 18 14.0756 18 12.4328C18 9.9355 17.81 8.39446 17.6919 7.67785C17.6395 7.36025 17.5052 7.06514 17.2944 6.82294C15.908 5.2295 12.6247 2.65108 10.3894 2.05148C10.1335 1.98284 9.8665 1.98284 9.61059 2.05148C7.37529 2.65108 4.09201 5.2295 2.70555 6.82294C2.49481 7.06514 2.36047 7.36025 2.30813 7.67785C2.19003 8.39446 2 9.9355 2 12.4328C2 14.0756 2.08223 15.3045 2.17212 16.1572C2.26997 17.0855 2.98259 17.7683 3.90643 17.8509C4.23179 17.88 4.61499 17.9095 5.0609 17.9371Z" fill="#7D889B"/>
<path d="M6 9C6 8.50181 6.31127 8.09195 6.70957 8.07381C7.41864 8.04153 8.60252 8 10 8C11.3975 8 12.5814 8.04153 13.2904 8.07381C13.6887 8.09195 14 8.50181 14 9C14 9.49819 13.6887 9.90805 13.2904 9.92619C12.5814 9.95847 11.3975 10 10 10C8.60252 10 7.41864 9.95847 6.70957 9.92619C6.31127 9.90805 6 9.49819 6 9Z" fill="#CBD2E2"/>
</svg>
