<svg width="20" height="20" viewBox="0 0 20 20" fill="none" xmlns="http://www.w3.org/2000/svg">
<path d="M2.09281 7.27575C2.19522 5.56529 3.31404 4.27313 5.01993 4.11151C6.1601 4.00349 7.76379 3.92047 10 3.92047C12.2362 3.92047 13.8399 4.00349 14.9801 4.11151C16.686 4.27313 17.8048 5.56529 17.9072 7.27575C17.9606 8.16824 18 9.30584 18 10.7205C18 12.1351 17.9606 13.2727 17.9072 14.1652C17.8048 15.8757 16.686 17.1678 14.9801 17.3294C13.8399 17.4375 12.2362 17.5205 10 17.5205C7.76379 17.5205 6.1601 17.4375 5.01992 17.3294C3.31404 17.1678 2.19522 15.8757 2.09281 14.1652C2.03938 13.2727 2 12.1351 2 10.7205C2 9.30584 2.03938 8.16824 2.09281 7.27575Z" fill="#6C9AE4"/>
<path d="M10 5.56992C10 4.11311 10 3.3847 10.4994 2.93213C10.9988 2.47955 11.8025 2.47955 13.4101 2.47955C15.0176 2.47955 15.8213 2.47955 16.3207 2.93213C16.8201 3.3847 16.8201 4.11311 16.8201 5.56992V7.63017C16.8201 9.08699 16.8201 9.81539 16.3207 10.268C15.8213 10.7205 15.0176 10.7205 13.4101 10.7205C11.8025 10.7205 10.9988 10.7205 10.4994 10.268C10 9.81539 10 9.08699 10 7.63017V5.56992Z" fill="#FFCE0D"/>
<path fill-rule="evenodd" clip-rule="evenodd" d="M12.8605 6.64662C12.4643 6.40184 12.1927 5.90058 12.1927 5.32199C12.1927 4.50236 12.7377 4.08527 13.41 4.08527C14.0824 4.08527 14.6274 4.50236 14.6274 5.32199C14.6274 5.90058 14.3558 6.40184 13.9596 6.64662C14.7678 6.91189 15.3579 7.74739 15.3579 8.73703C15.3579 9.04074 14.4858 9.27952 13.41 9.27952C12.3343 9.27952 11.4622 9.04074 11.4622 8.73703C11.4622 7.74739 12.0523 6.91189 12.8605 6.64662Z" fill="#6C9AE4"/>
<path d="M5.20001 10.6462C5.20001 10.9456 5.42076 11.1987 5.719 11.2259C6.01677 11.2531 6.40839 11.2797 6.80001 11.2797C7.19163 11.2797 7.58325 11.2531 7.88103 11.2259C8.17927 11.1987 8.40001 10.9456 8.40001 10.6462V9.91682C8.40001 9.6158 8.17709 9.36194 7.87725 9.33528C7.57994 9.30886 7.18998 9.28239 6.80001 9.2797C6.40674 9.27699 6.01348 9.30379 5.71524 9.33175C5.41861 9.35956 5.20001 9.61174 5.20001 9.90968V10.6462Z" fill="#FFCE0D"/>
<path d="M5.20001 14.1891C5.20001 14.5123 5.45474 14.7773 5.77785 14.7876C6.77409 14.8194 8.82126 14.8797 10 14.8797C11.1788 14.8797 13.2259 14.8194 14.2222 14.7876C14.5453 14.7773 14.8 14.5123 14.8 14.1891V13.5703C14.8 13.2471 14.5453 12.9821 14.2222 12.9718C13.2259 12.94 11.1788 12.8797 10 12.8797C8.82126 12.8797 6.77409 12.94 5.77785 12.9718C5.45474 12.9821 5.20001 13.2471 5.20001 13.5703V14.1891Z" fill="#FFCE0D"/>
</svg>
