<svg width="20" height="20" viewBox="0 0 20 20" fill="none" xmlns="http://www.w3.org/2000/svg">
<path d="M12.7414 3.0081C12.5815 2.6747 12.4706 2.29732 12.5969 1.94963C12.8766 1.17961 13.5041 0.925837 13.9635 0.846254C14.3121 0.785863 14.6525 0.940465 14.8783 1.21409C16.3776 3.03084 17.5844 7.24172 17.4956 11.3067C17.4457 13.5908 16.9712 15.2897 16.0011 16.9314C15.3951 17.9568 14.3925 18.6774 13.2262 18.8989C12.1606 19.1012 10.6627 19.2598 8.8877 19.1032C7.93879 19.0195 6.9981 18.7705 6.19107 18.2621C4.40752 17.1384 3.17747 15.3345 2.92578 12.7386C2.863 12.091 3.13185 11.4384 3.73599 11.2043C3.88543 11.1463 4.05423 11.0939 4.24224 11.0539C4.87584 10.9191 5.35723 11.5038 5.55133 12.1246C6.01653 13.6125 7.361 14.5646 8.68274 14.163C8.96625 14.0515 9.24131 13.8798 9.48325 13.6989C10.0749 13.2567 10.3276 12.4654 10.0094 11.797C9.31944 10.3476 7.78461 9.80122 5.95666 10.5192C5.57727 10.6682 5.15198 10.7348 4.81746 10.5013C4.69136 10.4132 4.55494 10.2999 4.4203 10.1553C3.77275 9.45974 4.15133 8.36809 4.98224 7.90966C6.77424 6.92096 8.88995 6.70784 10.6481 7.39715C9.9472 6.2184 9.09557 5.14361 8.0951 4.32327C7.71093 4.00827 7.40035 3.56332 7.4758 3.07091C7.5825 2.37451 7.95455 2.01877 8.26384 1.84016C8.53983 1.68078 8.87278 1.73636 9.1588 1.87674C11.1462 2.85218 12.4912 3.99739 13.4642 5.27397C13.3002 4.43302 13.0503 3.65196 12.7414 3.0081Z" fill="#FFCE0D"/>
<path d="M3.40474 6.11814C3.32406 6.36345 2.97704 6.36345 2.89636 6.11814L2.56365 5.10649C2.5371 5.02576 2.47379 4.96245 2.39306 4.9359L1.38141 4.60319C1.1361 4.52251 1.1361 4.17549 1.38141 4.09481L2.39306 3.7621C2.47379 3.73555 2.5371 3.67223 2.56365 3.59151L2.89636 2.57986C2.97704 2.33455 3.32406 2.33455 3.40474 2.57986L3.73745 3.59151C3.764 3.67223 3.82732 3.73555 3.90804 3.7621L4.91969 4.09481C5.165 4.17549 5.165 4.52251 4.91969 4.60319L3.90804 4.9359C3.82732 4.96245 3.764 5.02576 3.73745 5.10649L3.40474 6.11814Z" fill="#FF9B3E"/>
<path d="M5.01043 3.31654C4.95737 3.47787 4.72915 3.47787 4.67609 3.31654L4.45292 2.63798C4.43546 2.58489 4.39382 2.54325 4.34074 2.52579L3.66217 2.30263C3.50084 2.24957 3.50084 2.02135 3.66217 1.96829L4.34074 1.74512C4.39382 1.72766 4.43546 1.68602 4.45292 1.63293L4.67609 0.954372C4.72915 0.793041 4.95737 0.793041 5.01043 0.954372L5.23359 1.63293C5.25105 1.68602 5.29269 1.72766 5.34578 1.74512L6.02434 1.96829C6.18568 2.02135 6.18568 2.24957 6.02434 2.30263L5.34578 2.52579C5.29269 2.54325 5.25105 2.58489 5.23359 2.63798L5.01043 3.31654Z" fill="#FF9B3E"/>
<path d="M1.45498 3.34537C1.41456 3.46827 1.24071 3.46826 1.20029 3.34537L1.05019 2.88899C1.03689 2.84854 1.00517 2.81682 0.964731 2.80352L0.508349 2.65343C0.385451 2.61301 0.385451 2.43916 0.508349 2.39874L0.964731 2.24864C1.00517 2.23534 1.03689 2.20362 1.05019 2.16318L1.20029 1.7068C1.24071 1.5839 1.41456 1.5839 1.45498 1.7068L1.60507 2.16318C1.61837 2.20362 1.65009 2.23534 1.69054 2.24864L2.14692 2.39874C2.26982 2.43916 2.26982 2.61301 2.14692 2.65343L1.69054 2.80352C1.65009 2.81682 1.61837 2.84854 1.60507 2.88899L1.45498 3.34537Z" fill="#FF9B3E"/>
</svg>
