<svg width="20" height="20" viewBox="0 0 20 20" fill="none" xmlns="http://www.w3.org/2000/svg">
<path d="M10 1.66658C8.04958 1.66658 3.9435 4.70988 2.23245 6.04792C1.73079 6.44022 1.41632 7.01876 1.37389 7.65418C1.31614 8.51884 1.25 9.97035 1.25 12.0833C1.25 14.0814 1.3683 15.4881 1.47883 16.3662C1.56996 17.0903 2.05474 17.6645 2.76949 17.8121C3.91552 18.0486 6.10391 18.3333 10 18.3333C13.8961 18.3333 16.0845 18.0486 17.2305 17.8121C17.9453 17.6645 18.43 17.0903 18.5212 16.3662C18.6317 15.4881 18.75 14.0814 18.75 12.0833C18.75 9.97035 18.6839 8.51884 18.6261 7.65418C18.5837 7.01876 18.2692 6.44022 17.7676 6.04792C16.0565 4.70988 11.9504 1.66658 10 1.66658Z" fill="#EAC169"/>
<path d="M3.33333 8.29577V4.16663C3.33333 2.78591 4.45262 1.66663 5.83333 1.66663H14.1667C15.5474 1.66663 16.6667 2.78591 16.6667 4.16663V8.29577C16.6667 8.84134 16.4016 9.35146 15.9452 9.65045C14.5347 10.5746 11.425 12.5 10 12.5C8.57499 12.5 5.4653 10.5746 4.05475 9.65045C3.5984 9.35146 3.33333 8.84135 3.33333 8.29577Z" fill="#EEEFEE"/>
<path d="M5.83333 7.70825C5.83333 7.36307 6.11316 7.08325 6.45833 7.08325H12.7083C13.0535 7.08325 13.3333 7.36307 13.3333 7.70825C13.3333 8.05343 13.0535 8.33325 12.7083 8.33325H6.45833C6.11315 8.33325 5.83333 8.05343 5.83333 7.70825Z" fill="#DAD8DC"/>
<path d="M5.83333 4.79163C5.83333 4.44645 6.11316 4.16663 6.45833 4.16663H10.2083C10.5535 4.16663 10.8333 4.44645 10.8333 4.79163C10.8333 5.1368 10.5535 5.41663 10.2083 5.41663H6.45833C6.11316 5.41663 5.83333 5.1368 5.83333 4.79163Z" fill="#DAD8DC"/>
</svg>
