<svg width="20" height="20" viewBox="0 0 20 20" fill="none" xmlns="http://www.w3.org/2000/svg">
<path d="M7.01366 9.15426C7.08174 8.97876 7.27932 8.89137 7.45497 8.95908L11.1643 10.3889C11.3399 10.4566 11.4271 10.6537 11.359 10.8292L8.18468 19.0124C8.0922 19.2508 7.77969 19.3068 7.61061 19.1153L6.36371 17.7028C6.2903 17.6197 6.18087 17.5775 6.07042 17.5898L4.19461 17.7986C3.94026 17.8269 3.74684 17.5759 3.83931 17.3375L7.01366 9.15426Z" fill="#FFC737"/>
<path d="M8.466 11.4525C8.37166 11.2896 8.42744 11.0815 8.59059 10.9876L12.0345 9.00551C12.1977 8.91161 12.4064 8.96755 12.5007 9.13044L16.9016 16.7288C17.0298 16.9501 16.8772 17.2279 16.6214 17.239L14.7362 17.3206C14.6251 17.3254 14.5234 17.384 14.4637 17.4775L13.4501 19.0641C13.3126 19.2794 12.995 19.2722 12.8668 19.0509L8.466 11.4525Z" fill="#FFC737"/>
<path d="M9.72196 1.35157L4.45236 3.24937C3.51377 3.5874 2.92084 4.51547 3.00857 5.5092L3.56403 11.8005C3.62278 12.4659 3.98109 13.0684 4.53767 13.4377L9.2195 16.5441C9.95548 17.0324 10.9124 17.0324 11.6484 16.5441L16.2806 13.4706C16.8652 13.0827 17.2293 12.4389 17.2605 11.738L17.5423 5.40982C17.5845 4.46275 17.0143 3.59548 16.1281 3.25876L11.1413 1.36394C10.6848 1.1905 10.1814 1.18611 9.72196 1.35157Z" fill="#B4161D"/>
<path d="M9.72875 3.79991C9.91568 3.34713 10.557 3.34713 10.7439 3.79991L11.5783 5.82096C11.6559 6.00878 11.8308 6.13843 12.033 6.15799L14.1731 6.36503C14.6462 6.4108 14.8417 6.99533 14.4912 7.31649L12.8218 8.84624C12.69 8.96698 12.6253 9.1443 12.6482 9.32155L12.9488 11.6458C13.0103 12.1218 12.4746 12.4421 12.0844 12.1626L10.5561 11.068C10.3649 10.931 10.1078 10.931 9.91657 11.068L8.38827 12.1626C7.99807 12.4421 7.46233 12.1218 7.52389 11.6458L7.82449 9.32154C7.84742 9.1443 7.78265 8.96698 7.65089 8.84624L5.98149 7.31649C5.63101 6.99533 5.82644 6.4108 6.29961 6.36503L8.43964 6.15799C8.64189 6.13843 8.81681 6.00878 8.89435 5.82096L9.72875 3.79991Z" fill="#FFC737"/>
<path d="M14.9586 3.63936C15.017 3.51035 15.2002 3.51035 15.2587 3.63936L15.4513 4.06452C15.4679 4.10105 15.4972 4.13029 15.5337 4.14675L15.959 4.3382C16.0885 4.39649 16.0884 4.58034 15.959 4.63864L15.5337 4.83008C15.4972 4.84654 15.4679 4.87578 15.4513 4.91231L15.2587 5.33747C15.2002 5.46648 15.017 5.46648 14.9586 5.33748L14.7659 4.91231C14.7494 4.87578 14.7201 4.84654 14.6835 4.83008L14.2583 4.63864C14.1288 4.58034 14.1288 4.39649 14.2583 4.3382L14.6835 4.14675C14.7201 4.13029 14.7494 4.10105 14.7659 4.06452L14.9586 3.63936Z" fill="white"/>
<path d="M5.20179 10.588C5.24177 10.5053 5.35955 10.5053 5.39954 10.588L5.57279 10.9463C5.58361 10.9686 5.6017 10.9867 5.62409 10.9975L5.98266 11.1698C6.06568 11.2097 6.06568 11.3279 5.98266 11.3677L5.62409 11.5401C5.6017 11.5508 5.58361 11.5689 5.57279 11.5912L5.39954 11.9495C5.35955 12.0322 5.24177 12.0322 5.20179 11.9495L5.02853 11.5912C5.01771 11.5689 4.99963 11.5508 4.97723 11.5401L4.61866 11.3677C4.53565 11.3279 4.53565 11.2097 4.61866 11.1698L4.97723 10.9975C4.99963 10.9867 5.01771 10.9686 5.02853 10.9463L5.20179 10.588Z" fill="white"/>
</svg>
