<svg width="20" height="20" viewBox="0 0 20 20" fill="none" xmlns="http://www.w3.org/2000/svg">
<path d="M13.6438 1.16563C14.5685 1.26986 15.227 1.95165 15.3381 2.87558C15.4882 4.12346 15.65 6.32189 15.65 10C15.65 13.3049 15.5774 15.4151 15.5022 16.7146C15.4359 17.8606 14.6386 18.7507 13.4958 18.8588C12.6722 18.9367 11.5377 19 10.025 19C8.51228 19 7.37778 18.9367 6.55415 18.8588C5.41135 18.7507 4.61412 17.8606 4.5478 16.7146C4.47259 15.4151 4.4 13.3049 4.4 10C4.4 6.69514 4.47259 4.58489 4.5478 3.28541C4.61412 2.13942 5.41135 1.24926 6.55416 1.14116C7.37778 1.06326 8.51228 1 10.025 1C11.6934 1 12.8569 1.07695 13.6438 1.16563Z" fill="#D6D8DD"/>
<path d="M12.465 2.62902C13.3938 2.70629 14.0627 3.3727 14.1608 4.29957C14.26 5.23608 14.3519 6.71337 14.3519 8.97142C14.3519 10.9159 14.314 12.2814 14.2683 13.2211C14.2122 14.3753 13.4014 15.2564 12.2484 15.3335C11.6691 15.3723 10.9363 15.4 10.025 15.4C9.11373 15.4 8.38089 15.3723 7.80159 15.3335C6.64863 15.2564 5.83777 14.3753 5.78165 13.2211C5.73596 12.2814 5.69808 10.9159 5.69808 8.97142C5.69808 7.02697 5.73596 5.66147 5.78165 4.7217C5.83777 3.56752 6.64863 2.68642 7.80159 2.6093C8.38089 2.57056 9.11373 2.54285 10.025 2.54285C11.0846 2.54285 11.8794 2.58031 12.465 2.62902Z" fill="#666C74"/>
<path d="M10.1129 16.6861C10.4306 16.6884 10.674 16.8823 10.674 17.2001C10.674 17.5178 10.4306 17.7118 10.1129 17.7141C10.0851 17.7143 10.0558 17.7144 10.025 17.7144C9.99419 17.7144 9.96492 17.7143 9.93709 17.7141C9.61936 17.7118 9.37596 17.5178 9.37596 17.2001C9.37596 16.8823 9.61936 16.6884 9.93709 16.6861C9.96492 16.6859 9.99419 16.6858 10.025 16.6858C10.0558 16.6858 10.0851 16.6859 10.1129 16.6861Z" fill="#666C74"/>
</svg>
