<svg width="20" height="20" viewBox="0 0 20 20" fill="none" xmlns="http://www.w3.org/2000/svg">
<path d="M1.7796 14.803C1.87704 16.5266 2.9982 17.8567 4.71185 18.0659C5.92572 18.2141 7.63658 18.3333 10 18.3333C12.3634 18.3333 14.0743 18.2141 15.2881 18.0659C17.0018 17.8567 18.123 16.5266 18.2204 14.803C18.2841 13.6755 18.3333 12.1189 18.3333 9.99992C18.3333 7.88093 18.2841 6.32435 18.2204 5.19682C18.123 3.4732 17.0018 2.14317 15.2881 1.93395C14.0743 1.78575 12.3634 1.66658 10 1.66658C7.63658 1.66658 5.92572 1.78575 4.71185 1.93395C2.9982 2.14317 1.87704 3.4732 1.7796 5.19682C1.71586 6.32435 1.66667 7.88093 1.66667 9.99992C1.66667 12.1189 1.71586 13.6755 1.7796 14.803Z" fill="#F3DCCE"/>
<path fill-rule="evenodd" clip-rule="evenodd" d="M9.05958 10.148C8.38146 9.73563 7.91667 8.89124 7.91667 7.91659C7.91667 6.53587 8.84941 5.83325 10 5.83325C11.1506 5.83325 12.0833 6.53587 12.0833 7.91659C12.0833 8.89124 11.6185 9.73563 10.9404 10.148C12.3235 10.5949 13.3333 12.0023 13.3333 13.6694C13.3333 14.181 11.8409 14.5833 10 14.5833C8.15905 14.5833 6.66667 14.181 6.66667 13.6694C6.66667 12.0023 7.67654 10.5949 9.05958 10.148Z" fill="#D46B00"/>
</svg>
