<svg width="20" height="20" viewBox="0 0 20 20" fill="none" xmlns="http://www.w3.org/2000/svg">
<path d="M4.8085 16.5198C4.47039 15.1673 5.4933 13.8572 6.88738 13.8572H12.9698C14.3638 13.8572 15.3868 15.1673 15.0486 16.5198L14.8344 17.3769C14.5959 18.3308 13.7388 19 12.7555 19H7.10166C6.11838 19 5.26127 18.3308 5.02279 17.3769L4.8085 16.5198Z" fill="#650C10"/>
<path d="M4.62197 2.9649C4.71452 1.85428 5.64295 1 6.75743 1H13.0997C14.2142 1 15.1426 1.85428 15.2352 2.9649L16.1637 14.1078C16.2679 15.3571 15.2819 16.4286 14.0283 16.4286H5.82885C4.5752 16.4286 3.58929 15.3571 3.6934 14.1078L4.62197 2.9649Z" fill="#B4161D"/>
<path d="M6.07143 4.21427C6.07143 3.80545 6.46935 3.62004 6.87796 3.60697C7.41323 3.58984 8.3549 3.57141 9.92857 3.57141C11.5022 3.57141 12.4439 3.58984 12.9792 3.60697C13.3878 3.62004 13.7857 3.80545 13.7857 4.21427C13.7857 4.62309 13.3878 4.80849 12.9792 4.82157C12.4439 4.83869 11.5022 4.85713 9.92857 4.85713C8.3549 4.85713 7.41323 4.83869 6.87796 4.82157C6.46935 4.80849 6.07143 4.62309 6.07143 4.21427Z" fill="white"/>
<path d="M6.07143 6.78568C6.07143 6.37686 6.46935 6.19145 6.87796 6.17838C7.41323 6.16126 8.3549 6.14282 9.92857 6.14282C11.5022 6.14282 12.4439 6.16126 12.9792 6.17838C13.3878 6.19145 13.7857 6.37686 13.7857 6.78568C13.7857 7.1945 13.3878 7.3799 12.9792 7.39298C12.4439 7.4101 11.5022 7.42854 9.92857 7.42854C8.3549 7.42854 7.41323 7.4101 6.87796 7.39298C6.46935 7.3799 6.07143 7.1945 6.07143 6.78568Z" fill="white"/>
<path fill-rule="evenodd" clip-rule="evenodd" d="M12.2718 10.2466C12.2863 10.2575 12.3019 10.2671 12.3174 10.2768C12.5016 10.3926 12.5573 10.6314 12.4343 10.8107C11.3752 12.3539 10.3868 13.3714 9.90144 13.8328C9.72163 14.0037 9.44433 14.0151 9.25278 13.8564C8.84931 13.5221 8.13735 12.871 7.4306 11.9269C7.31796 11.7765 7.33729 11.5706 7.47191 11.4378L7.78367 11.1303C7.93532 10.9808 8.18307 10.9717 8.33956 11.1166C8.99771 11.7261 9.58784 12.4253 9.58784 12.4253C9.58784 12.4253 10.3916 11.2865 11.5185 10.122C11.6386 9.99792 11.8282 9.96584 11.9857 10.0379C12.0023 10.0455 12.0175 10.0557 12.0321 10.0666L12.2718 10.2466Z" fill="#FFC737"/>
</svg>
