<svg width="20" height="20" viewBox="0 0 20 20" fill="none" xmlns="http://www.w3.org/2000/svg">
<path d="M9.07153 2H9.03931C7.75159 1.99999 6.74127 1.99999 5.93668 2.09325C5.11376 2.18864 4.44785 2.38669 3.87391 2.82367C3.40846 3.17805 3.01217 3.63082 2.70545 4.15388C2.3322 4.7904 2.16321 5.52529 2.08106 6.44543C1.99999 7.35349 2 8.49734 2 9.97244V10.0275C2 11.5026 1.99999 12.6465 2.08106 13.5545C2.16321 14.4747 2.3322 15.2096 2.70545 15.8461C3.01217 16.3691 3.40846 16.8219 3.87391 17.1763C4.44785 17.6133 5.11376 17.8113 5.93668 17.9067C6.74127 18 7.75158 18 9.0393 18H10.9764C12.2641 18 13.2744 18 14.079 17.9067C14.9019 17.8113 15.5679 17.6133 16.1418 17.1763C16.6072 16.8219 17.0035 16.3691 17.3103 15.8461C17.5539 15.4306 17.7229 15.0488 17.8313 14.5693C17.9366 14.1031 17.9799 13.5644 17.9994 12.8448C18.0223 12.0033 17.3564 11.3294 16.5542 11.3294C15.738 11.3294 15.1383 12.0047 15.0822 12.7778C15.0759 12.8647 15.0683 12.9468 15.0583 13.0549C15.0533 13.1092 15.0477 13.1701 15.0413 13.2414C14.981 13.9175 14.8857 14.08 14.8671 14.1116C14.764 14.2875 14.6336 14.4349 14.4856 14.5476L14.4845 14.5484C14.4679 14.5614 14.3399 14.6615 13.7736 14.7271C13.1505 14.7993 12.3106 14.8027 10.9442 14.8027H9.07153C7.70513 14.8027 6.86516 14.7993 6.24215 14.7271C5.67583 14.6615 5.54783 14.5614 5.53116 14.5484L5.53012 14.5476C5.38215 14.4349 5.25153 14.2872 5.14838 14.1113C5.12982 14.0796 5.03475 13.9175 4.97438 13.2414C4.91005 12.5208 4.90726 11.5532 4.90726 10C4.90726 8.44677 4.91005 7.47921 4.97438 6.75856C5.03475 6.08243 5.13004 5.91998 5.1486 5.88833C5.25175 5.71243 5.38215 5.56507 5.53012 5.45241L5.53116 5.4516C5.54783 5.43857 5.67583 5.33849 6.24215 5.27285C6.86516 5.20063 7.70513 5.19725 9.07153 5.19725C9.80874 5.19725 10.4064 4.58297 10.4064 3.82522V3.37203C10.4064 2.61428 9.80874 2 9.07153 2Z" fill="#D2161E"/>
<path d="M12.9672 2.88452C12.2843 2.88452 11.7307 3.43812 11.7307 4.12101V6.64804H9.20365C8.52076 6.64804 7.96716 7.20163 7.96716 7.88452C7.96716 8.56741 8.52076 9.12101 9.20365 9.12101H11.7307V11.6481C11.7307 12.331 12.2843 12.8846 12.9672 12.8846C13.6501 12.8846 14.2036 12.331 14.2036 11.6481V9.12101H16.7307C17.4136 9.12101 17.9672 8.56741 17.9672 7.88452C17.9672 7.20163 17.4136 6.64804 16.7307 6.64804H14.2036V4.12101C14.2036 3.43812 13.6501 2.88452 12.9672 2.88452Z" fill="#D2161E"/>
</svg>
