<svg width="20" height="20" viewBox="0 0 20 20" fill="none" xmlns="http://www.w3.org/2000/svg">
<path d="M16.2425 8.42014C16.321 8.32541 16.3691 8.21023 16.3505 8.08864C16.3194 7.88598 16.2173 7.50233 15.8985 6.86294C15.5797 6.22355 15.3348 5.9111 15.1916 5.76433C15.1057 5.67628 14.9848 5.6454 14.8619 5.65106C14.3458 5.67484 12.8611 5.7695 11.6553 6.10404C11.6553 6.10404 11.5602 6.39783 12.6096 8.50272C13.6591 10.6076 13.9509 10.7085 13.9509 10.7085C14.9438 9.94675 15.9129 8.818 16.2425 8.42014Z" fill="#20406B"/>
<path d="M11.2043 16.5025C11.3393 17.0911 10.9767 17.6649 10.4007 17.7742L8.79867 18.0781C8.1503 18.2012 7.5376 17.6847 7.52925 17.0081L7.48621 13.5211L10.4575 13.2458L11.2043 16.5025Z" fill="#20406B"/>
<path d="M5.18996 15.6845C4.7183 15.8433 4.20017 15.7541 3.89273 15.3465C3.60091 14.9596 3.20616 14.3509 2.74305 13.4221C2.27994 12.4932 2.0314 11.8116 1.89802 11.3457C1.75749 10.8549 1.99808 10.3874 2.40879 10.1063C3.93628 9.06091 7.71493 6.25714 9.68925 2.8724C10.1827 2.02651 11.2118 1.80754 11.782 2.62607C12.4522 3.58837 13.3872 5.1204 14.583 7.51887C15.7789 9.91734 16.4397 11.5861 16.8049 12.7005C17.1155 13.6484 16.3212 14.3385 15.3487 14.2235C11.4574 13.7633 6.94413 15.0937 5.18996 15.6845Z" fill="#B8CBCF"/>
<path d="M3.89258 15.3468C4.20002 15.7544 4.71816 15.8436 5.18981 15.6847C5.45852 15.5942 5.79196 15.4864 6.178 15.3703L3.25448 9.50661C2.92943 9.74503 2.64262 9.94643 2.40864 10.1066C1.99793 10.3877 1.75735 10.8551 1.89787 11.346C2.03125 11.8119 2.2798 12.4935 2.7429 13.4223C3.20601 14.3512 3.60076 14.9598 3.89258 15.3468Z" fill="#DF5252"/>
<path fill-rule="evenodd" clip-rule="evenodd" d="M16.8903 3.12154C17.1075 3.33493 17.1105 3.68395 16.8971 3.9011L16.7219 4.07945C16.5085 4.29659 16.1595 4.29964 15.9423 4.08625C15.7252 3.87286 15.7221 3.52384 15.9355 3.30669L16.1108 3.12835C16.3242 2.9112 16.6732 2.90816 16.8903 3.12154Z" fill="#DF5252"/>
<path fill-rule="evenodd" clip-rule="evenodd" d="M19.2905 8.48169C19.2455 8.7828 18.9649 8.99041 18.6638 8.94541L18.4165 8.90845C18.1154 8.86345 17.9078 8.58288 17.9528 8.28177C17.9978 7.98067 18.2784 7.77306 18.5795 7.81806L18.8268 7.85502C19.1279 7.90002 19.3355 8.18059 19.2905 8.48169Z" fill="#DF5252"/>
<path fill-rule="evenodd" clip-rule="evenodd" d="M19.3428 4.83467C19.4954 5.09815 19.4054 5.43539 19.1419 5.58792L18.658 5.86802C18.3945 6.02055 18.0573 5.93059 17.9048 5.66711C17.7523 5.40362 17.8422 5.06638 18.1057 4.91386L18.5896 4.63375C18.8531 4.48123 19.1903 4.57118 19.3428 4.83467Z" fill="#DF5252"/>
</svg>
