<svg width="20" height="20" viewBox="0 0 20 20" fill="none" xmlns="http://www.w3.org/2000/svg">
<path d="M2.2 7.56308C2.2 7.16996 2.59025 6.89609 2.95994 7.02976L13.336 10.7815C13.5606 10.8627 13.7103 11.076 13.7103 11.3148V18.4324C13.7103 18.8255 13.32 19.0994 12.9504 18.9657L2.57427 15.214C2.34965 15.1328 2.2 14.9195 2.2 14.6807V7.56308Z" fill="#D0D9EA"/>
<path d="M2.2 7.27011C2.2 6.97796 2.42194 6.73362 2.71274 6.70561L17.0128 5.32847C17.3459 5.29639 17.6343 5.55828 17.6343 5.89296V13.0772C17.6343 13.3693 17.4123 13.6137 17.1215 13.6417L2.82147 15.0188C2.48833 15.0509 2.2 14.789 2.2 14.4543V7.27011Z" fill="#66789F"/>
<path d="M5.0062 12.2609L7.01976 12.077L7.04822 11.2101L5.89359 11.3156L6.00101 8.35864L5.14677 8.43664L5.0062 12.2609Z" fill="white"/>
<path d="M7.72606 12.0125L8.58968 11.9337L8.73025 8.10942L7.86663 8.18828L7.72606 12.0125Z" fill="white"/>
<path d="M10.2903 11.7784L11.0225 11.7115L12.252 7.78784L11.3227 7.8727L10.7057 10.2374L10.6963 10.2382L10.2525 7.97042L9.33728 8.05399L10.2903 11.7784Z" fill="white"/>
<path d="M12.6827 11.5599L14.7761 11.3688L14.8092 10.5015L13.5373 10.6176L13.5643 9.99781L14.4843 9.91381L14.5103 9.07936L13.5903 9.16336L13.6162 8.52755L14.799 8.41955L14.8322 7.55225L12.8233 7.73568L12.6827 11.5599Z" fill="white"/>
<path fill-rule="evenodd" clip-rule="evenodd" d="M15.0601 3.16062C14.8562 3.00611 14.7958 2.70196 14.9253 2.48127L15.4062 1.66145C15.5357 1.44076 15.806 1.38711 16.0099 1.54162C16.2139 1.69612 16.2743 2.00028 16.1448 2.22097L15.6638 3.04078C15.5344 3.26147 15.2641 3.31512 15.0601 3.16062Z" fill="#BBC8E2"/>
<path fill-rule="evenodd" clip-rule="evenodd" d="M4.39361 4.71794C4.23756 4.92071 3.96394 4.93887 3.78245 4.75851L3.15075 4.13072C2.96927 3.95035 2.94865 3.63977 3.1047 3.437C3.26075 3.23423 3.53437 3.21606 3.71586 3.39643L4.34756 4.02422C4.52904 4.20458 4.54966 4.51517 4.39361 4.71794Z" fill="#BBC8E2"/>
<path fill-rule="evenodd" clip-rule="evenodd" d="M9.26499 3.0097C9.02597 3.10102 8.77337 2.97615 8.70078 2.7308L8.41797 1.77495C8.34538 1.5296 8.48029 1.25668 8.71931 1.16536C8.95832 1.07404 9.21092 1.1989 9.28351 1.44425L9.56632 2.40011C9.63891 2.64546 9.504 2.91838 9.26499 3.0097Z" fill="#BBC8E2"/>
</svg>
