<svg width="20" height="20" viewBox="0 0 20 20" fill="none" xmlns="http://www.w3.org/2000/svg">
<path d="M4 7.96979C4 5.09863 4 3.66306 4.87868 2.7711C5.75736 1.87915 7.17157 1.87915 10 1.87915C12.8284 1.87915 14.2426 1.87915 15.1213 2.7711C16 3.66306 16 5.09863 16 7.96979V12.0302C16 14.9014 16 16.3369 15.1213 17.2289C14.2426 18.1208 12.8284 18.1208 10 18.1208C7.17157 18.1208 5.75736 18.1208 4.87868 17.2289C4 16.3369 4 14.9014 4 12.0302V7.96979Z" fill="#D46B00"/>
<path d="M5.75 15.1379C5.75 15.3532 5.97554 15.5297 6.26162 15.5366C7.14371 15.5577 8.9563 15.5979 9.99999 15.5979C11.0437 15.5979 12.8563 15.5577 13.7384 15.5366C14.0244 15.5297 14.25 15.3532 14.25 15.1379V14.7258C14.25 14.5105 14.0244 14.334 13.7384 14.3272C12.8563 14.306 11.0437 14.2659 9.99999 14.2659C8.9563 14.2659 7.14371 14.306 6.26162 14.3272C5.97554 14.334 5.75 14.5105 5.75 14.7258V15.1379Z" fill="#EAC169"/>
<path fill-rule="evenodd" clip-rule="evenodd" d="M10 11.1792C11.5464 11.1792 12.8 9.92555 12.8 8.37915C12.8 6.83275 11.5464 5.57915 10 5.57915C8.4536 5.57915 7.2 6.83275 7.2 8.37915C7.2 9.92555 8.4536 11.1792 10 11.1792ZM10 11.8792C11.933 11.8792 13.5 10.3121 13.5 8.37915C13.5 6.44615 11.933 4.87915 10 4.87915C8.067 4.87915 6.5 6.44615 6.5 8.37915C6.5 10.3121 8.067 11.8792 10 11.8792Z" fill="#EAC169"/>
<path fill-rule="evenodd" clip-rule="evenodd" d="M10.5141 10.5592C10.7564 10.0375 10.925 9.2674 10.925 8.37915C10.925 7.4909 10.7564 6.72084 10.5141 6.19905C10.2449 5.61922 10.0133 5.57915 10 5.57915C9.98668 5.57915 9.75507 5.61922 9.48586 6.19905C9.2436 6.72084 9.075 7.4909 9.075 8.37915C9.075 9.2674 9.2436 10.0375 9.48586 10.5592C9.75507 11.1391 9.98668 11.1792 10 11.1792C10.0133 11.1792 10.2449 11.1391 10.5141 10.5592ZM10 11.8792C10.8975 11.8792 11.625 10.3121 11.625 8.37915C11.625 6.44615 10.8975 4.87915 10 4.87915C9.10254 4.87915 8.375 6.44615 8.375 8.37915C8.375 10.3121 9.10254 11.8792 10 11.8792Z" fill="#EAC169"/>
<path fill-rule="evenodd" clip-rule="evenodd" d="M7.8199 8.89329C8.34169 9.13555 9.11175 9.30415 10 9.30415C10.8883 9.30415 11.6583 9.13555 12.1801 8.89329C12.7599 8.62408 12.8 8.39247 12.8 8.37915C12.8 8.36583 12.7599 8.13422 12.1801 7.86501C11.6583 7.62275 10.8883 7.45415 10 7.45415C9.11175 7.45415 8.34169 7.62275 7.8199 7.86501C7.24007 8.13422 7.2 8.36583 7.2 8.37915C7.2 8.39247 7.24007 8.62408 7.8199 8.89329ZM6.5 8.37915C6.5 9.27661 8.067 10.0042 10 10.0042C11.933 10.0042 13.5 9.27661 13.5 8.37915C13.5 7.48169 11.933 6.75415 10 6.75415C8.067 6.75415 6.5 7.48169 6.5 8.37915Z" fill="#EAC169"/>
</svg>
