<svg width="20" height="20" viewBox="0 0 20 20" fill="none" xmlns="http://www.w3.org/2000/svg">
<path d="M3.20754 9.49623C3.04961 8.55616 3.56369 7.74781 4.46425 7.43532C5.42047 7.10352 6.98402 6.6143 9.49263 5.94212C12.0012 5.26994 13.5999 4.91184 14.5939 4.72108C15.5301 4.54143 16.3795 4.98444 16.7127 5.87753C16.9693 6.56515 17.2977 7.5689 17.6841 9.01094C18.0705 10.453 18.288 11.4865 18.4096 12.2102C18.5675 13.1503 18.0534 13.9587 17.1529 14.2712C16.1967 14.603 14.6331 15.0922 12.1245 15.7644C9.61588 16.4365 8.0172 16.7946 7.02319 16.9854C6.08703 17.1651 5.23765 16.722 4.90439 15.829C4.64779 15.1413 4.31939 14.1376 3.93299 12.6955C3.5466 11.2535 3.32913 10.22 3.20754 9.49623Z" fill="#FFCE0D"/>
<path d="M1.18106 4.22579C1.24351 3.27459 1.92968 2.6061 2.87797 2.50905C3.88485 2.406 5.519 2.2894 8.11495 2.21203C10.7109 2.13467 12.3491 2.15375 13.3603 2.19665C14.3127 2.23706 15.0375 2.8635 15.1565 3.80929C15.2481 4.53748 15.3369 5.58985 15.3814 7.0821C15.4258 8.57434 15.3999 9.63013 15.3518 10.3625C15.2893 11.3137 14.6031 11.9822 13.6549 12.0792C12.648 12.1823 11.0138 12.2989 8.41787 12.3762C5.82192 12.4536 4.18373 12.4345 3.17249 12.3916C2.2201 12.3512 1.49535 11.7248 1.37636 10.779C1.28474 10.0508 1.19593 8.99842 1.15146 7.50618C1.10699 6.01394 1.13297 4.95815 1.18106 4.22579Z" fill="#6C9AE4"/>
<rect x="2.64122" y="3.76929" width="2.87628" height="2.87628" rx="1.43814" transform="rotate(-1.71 2.64122 3.76929)" fill="#F7CE45"/>
<rect x="3.24372" y="9.77014" width="2.87628" height="1.15051" rx="0.575256" transform="rotate(-1.71 3.24372 9.77014)" fill="#20406B"/>
<rect x="6.69377" y="9.66711" width="2.87628" height="1.15051" rx="0.575256" transform="rotate(-1.71 6.69377 9.66711)" fill="#20406B"/>
<rect x="10.1438" y="9.56421" width="2.87628" height="1.15051" rx="0.575256" transform="rotate(-1.71 10.1438 9.56421)" fill="#20406B"/>
<rect x="6.13503" y="15.1835" width="10.9299" height="1.15051" rx="0.575256" transform="rotate(-15 6.13503 15.1835)" fill="#D46B00"/>
</svg>
