<svg width="20" height="20" viewBox="0 0 20 20" fill="none" xmlns="http://www.w3.org/2000/svg">
<path d="M2.0941 6.59154C2.18499 5.12362 3.18306 4.03143 4.64491 3.87006C5.78818 3.74386 7.44323 3.63855 9.78313 3.63855C12.123 3.63855 13.7781 3.74386 14.9214 3.87006C16.3832 4.03143 17.3813 5.12362 17.4722 6.59154C17.5261 7.46222 17.5663 8.63403 17.5663 10.1928C17.5663 11.7515 17.5261 12.9233 17.4722 13.794C17.3813 15.2619 16.3832 16.3541 14.9214 16.5155C13.7781 16.6417 12.123 16.747 9.78313 16.747C7.44323 16.747 5.78818 16.6417 4.64491 16.5155C3.18306 16.3541 2.18499 15.2619 2.0941 13.794C2.04019 12.9233 2 11.7515 2 10.1928C2 8.63403 2.04019 7.46222 2.0941 6.59154Z" fill="#CBD2E2"/>
<path d="M14.6289 2.02561C14.885 2.04672 15.061 2.23429 15.0783 2.49065C15.0943 2.72617 15.1082 3.08896 15.1082 3.63855C15.1082 3.72764 15.1078 3.81181 15.1071 3.89133C15.5912 3.94846 15.9756 4.0088 16.2757 4.06489C16.868 4.17556 17.2824 4.62994 17.3536 5.22818C17.401 5.62667 17.4508 6.17535 17.4903 6.91566H2.07493C2.11437 6.17535 2.16418 5.62667 2.21161 5.22818C2.28281 4.62994 2.69725 4.17556 3.28947 4.06489C3.58969 4.00878 3.9743 3.94842 4.4586 3.89127C4.45792 3.81177 4.45756 3.72761 4.45756 3.63855C4.45756 3.08896 4.47142 2.72617 4.48737 2.49065C4.50473 2.23429 4.68072 2.04672 4.93679 2.02561C5.11104 2.01124 5.3537 2 5.68647 2C6.01924 2 6.26191 2.01124 6.43615 2.02561C6.69223 2.04672 6.86822 2.23429 6.88557 2.49065C6.90152 2.72617 6.91539 3.08896 6.91539 3.63855C6.91539 3.65922 6.91537 3.67962 6.91533 3.69976C7.73136 3.66189 8.6811 3.63855 9.7826 3.63855C10.8843 3.63855 11.8342 3.6619 12.6504 3.69978L12.6503 3.63855C12.6503 3.08896 12.6642 2.72617 12.6801 2.49065C12.6975 2.23429 12.8735 2.04672 13.1296 2.02561C13.3038 2.01124 13.5465 2 13.8792 2C14.212 2 14.4547 2.01124 14.6289 2.02561Z" fill="#7989A6"/>
<path d="M4.45889 9.98885C4.46535 9.41343 4.83475 8.98541 5.40995 8.96789C5.49464 8.96531 5.58671 8.96387 5.68671 8.96387C5.7867 8.96387 5.87877 8.96531 5.96347 8.96789C6.53866 8.98541 6.90807 9.41343 6.91452 9.98885C6.91523 10.0525 6.91562 10.1204 6.91562 10.1928C6.91562 10.2651 6.91523 10.333 6.91452 10.3967C6.90807 10.9721 6.53866 11.4002 5.96347 11.4177C5.87877 11.4203 5.7867 11.4217 5.68671 11.4217C5.58671 11.4217 5.49464 11.4203 5.40995 11.4177C4.83475 11.4002 4.46535 10.9721 4.45889 10.3967C4.45818 10.333 4.45779 10.2651 4.45779 10.1928C4.45779 10.1204 4.45818 10.0525 4.45889 9.98885Z" fill="#7989A6"/>
<path d="M14.8875 8.41257L14.832 8.53691C14.7845 8.6408 14.723 8.76942 14.6489 8.9167C14.4881 9.2363 14.3086 9.56092 14.1138 9.87443L14.0299 10.0073C13.6093 10.6622 13.1753 11.1723 12.7518 11.4738L12.6916 11.5147L12.6857 11.5072C12.497 11.2474 12.4247 10.9162 12.4947 10.5956C12.5484 10.3495 12.2893 10.1534 12.0671 10.272C10.1249 11.3083 9.35656 13.6996 10.3315 15.6733C11.3065 17.647 13.6725 18.4898 15.6758 17.5771L15.7818 17.527C17.6718 16.6005 18.5495 14.3782 17.7907 12.4061L17.7711 12.3576L17.768 12.3424C17.7185 12.1568 17.489 12.0182 17.2871 12.1835L17.1855 12.2641C17.01 12.3959 16.8194 12.5058 16.6181 12.5918L16.6039 12.5973L16.5958 12.4559C16.5718 12.097 16.5288 11.7143 16.4621 11.3194C16.2749 10.2102 15.9371 9.19639 15.4071 8.3704C15.2794 8.17143 14.9814 8.19562 14.8875 8.41257Z" fill="#7989A6"/>
<path fill-rule="evenodd" clip-rule="evenodd" d="M14.5432 12.046C14.538 12.0482 14.5331 12.0504 14.5281 12.053C13.8605 12.3979 13.2891 12.9006 12.8625 13.5156L12.8133 13.589C12.811 13.5923 12.8063 13.5928 12.8035 13.59C12.6732 13.461 12.5472 13.3241 12.465 13.1575C12.4626 13.1527 12.4603 13.1479 12.458 13.143C12.3828 12.9798 12.1848 12.8733 12.0673 13.0093C12.033 13.049 11.9994 13.0927 11.9689 13.14C11.7882 13.4203 11.6504 13.7239 11.5925 14.0514C11.3704 15.3109 12.2114 16.5119 13.4708 16.734C14.7302 16.9561 15.9264 16.1142 16.1533 14.8557C16.2417 14.3657 16.1416 13.9867 16.0457 13.7597C15.9904 13.6288 15.8268 13.6157 15.7191 13.7083C15.6472 13.7702 15.5626 13.8356 15.4777 13.8848C15.2571 14.0124 15.1314 14.0406 14.8929 14.1092L14.886 14.111C14.8414 14.1225 14.7983 14.0879 14.8 14.0419C14.828 13.4629 14.9223 12.8886 15.0815 12.3302C15.0918 12.294 15.1011 12.2614 15.1098 12.2315C15.1598 12.0595 15.0211 11.8836 14.85 11.9365C14.6962 11.9839 14.574 12.0333 14.5432 12.046Z" fill="#CBD2E2"/>
</svg>
