<svg width="20" height="20" viewBox="0 0 20 20" fill="none" xmlns="http://www.w3.org/2000/svg">
<path d="M2.0941 6.59155C2.18499 5.12363 3.18306 4.03144 4.64492 3.87007C5.7882 3.74387 7.44329 3.63855 9.78327 3.63855C12.1232 3.63855 13.7783 3.74387 14.9216 3.87007C16.3835 4.03144 17.3815 5.12363 17.4724 6.59155C17.5263 7.46225 17.5665 8.63409 17.5665 10.1929C17.5665 11.7517 17.5263 12.9235 17.4724 13.7942C17.3815 15.2621 16.3835 16.3543 14.9216 16.5157C13.7783 16.6419 12.1232 16.7472 9.78327 16.7472C7.44329 16.7472 5.7882 16.6419 4.64492 16.5157C3.18306 16.3543 2.18499 15.2621 2.0941 13.7942C2.04019 12.9235 2 11.7517 2 10.1929C2 8.63409 2.04019 7.46225 2.0941 6.59155Z" fill="#D2161E"/>
<path d="M14.6291 2.02561C14.8852 2.04672 15.0612 2.2343 15.0786 2.49066C15.0945 2.72618 15.1084 3.08898 15.1084 3.63858C15.1084 3.72767 15.108 3.81184 15.1073 3.89136C15.5914 3.94849 15.9759 4.00883 16.276 4.06492C16.8682 4.1756 17.2827 4.62998 17.3539 5.22824C17.4013 5.62673 17.4511 6.17542 17.4905 6.91575H2.07493C2.11437 6.17542 2.16419 5.62673 2.21161 5.22824C2.28281 4.62998 2.69726 4.1756 3.28949 4.06492C3.58972 4.00881 3.97433 3.94845 4.45864 3.8913C4.45796 3.8118 4.4576 3.72764 4.4576 3.63858C4.4576 3.08898 4.47146 2.72618 4.48741 2.49066C4.50477 2.2343 4.68076 2.04672 4.93684 2.02561C5.11109 2.01124 5.35376 2 5.68653 2C6.01931 2 6.26198 2.01124 6.43623 2.02561C6.69231 2.04672 6.8683 2.2343 6.88566 2.49066C6.90161 2.72618 6.91547 3.08898 6.91547 3.63858C6.91547 3.65925 6.91545 3.67965 6.91541 3.69979C7.73146 3.66192 8.68121 3.63858 9.78274 3.63858C10.8845 3.63858 11.8344 3.66193 12.6506 3.69981L12.6505 3.63858C12.6505 3.08898 12.6644 2.72618 12.6803 2.49066C12.6977 2.2343 12.8737 2.04672 13.1298 2.02561C13.304 2.01124 13.5467 2 13.8794 2C14.2122 2 14.4549 2.01124 14.6291 2.02561Z" fill="#650C10"/>
<path d="M4.45897 9.98898C4.46542 9.41355 4.83483 8.98553 5.41002 8.96802C5.49472 8.96544 5.5868 8.96399 5.6868 8.96399C5.7868 8.96399 5.87888 8.96544 5.96358 8.96802C6.53878 8.98553 6.90818 9.41355 6.91463 9.98898C6.91535 10.0527 6.91574 10.1206 6.91574 10.1929C6.91574 10.2653 6.91535 10.3332 6.91463 10.3969C6.90818 10.9723 6.53878 11.4003 5.96358 11.4178C5.87888 11.4204 5.7868 11.4219 5.6868 11.4219C5.5868 11.4219 5.49472 11.4204 5.41002 11.4178C4.83483 11.4003 4.46542 10.9723 4.45897 10.3969C4.45825 10.3332 4.45786 10.2653 4.45786 10.1929C4.45786 10.1206 4.45825 10.0527 4.45897 9.98898Z" fill="#650C10"/>
<path d="M14.8875 8.4127L14.8321 8.53705C14.7845 8.64095 14.7231 8.76957 14.649 8.91685C14.4882 9.23645 14.3087 9.56108 14.1139 9.87459L14.03 10.0075C13.6094 10.6623 13.1753 11.1725 12.7518 11.474L12.6916 11.5149L12.6857 11.5074C12.497 11.2475 12.4247 10.9163 12.4947 10.5958C12.5485 10.3497 12.2893 10.1536 12.0671 10.2722C10.1249 11.3085 9.35653 13.6998 10.3315 15.6735C11.3065 17.6473 13.6726 18.4902 15.6759 17.5774L15.7819 17.5273C17.6719 16.6007 18.5496 14.3784 17.7908 12.4063L17.7712 12.3578L17.7681 12.3426C17.7186 12.157 17.4891 12.0184 17.2872 12.1837L17.1856 12.2643C17.0101 12.3961 16.8195 12.506 16.6182 12.592L16.604 12.5975L16.5959 12.4561C16.5719 12.0972 16.5289 11.7145 16.4622 11.3195C16.275 10.2104 15.9372 9.19654 15.4072 8.37053C15.2795 8.17156 14.9815 8.19575 14.8875 8.4127Z" fill="#FFD01C"/>
<path fill-rule="evenodd" clip-rule="evenodd" d="M14.5433 12.0461C14.5381 12.0483 14.5332 12.0506 14.5282 12.0532C13.8606 12.398 13.2892 12.9008 12.8626 13.5158L12.8133 13.5892C12.8111 13.5925 12.8064 13.593 12.8036 13.5902C12.6732 13.4612 12.5472 13.3242 12.465 13.1577C12.4626 13.1529 12.4603 13.148 12.4581 13.1431C12.3829 12.9799 12.1848 12.8734 12.0674 13.0094C12.033 13.0492 11.9995 13.0928 11.969 13.1401C11.7882 13.4204 11.6504 13.724 11.5925 14.0515C11.3705 15.3111 12.2114 16.5121 13.4709 16.7342C14.7304 16.9563 15.9265 16.1145 16.1535 14.8559C16.2418 14.3658 16.1418 13.9869 16.0459 13.7598C15.9906 13.6289 15.827 13.6158 15.7192 13.7085C15.6473 13.7704 15.5627 13.8358 15.4778 13.8849C15.2572 14.0126 15.1315 14.0408 14.893 14.1093L14.8861 14.1111C14.8415 14.1227 14.7984 14.0881 14.8001 14.0421C14.8281 13.4631 14.9225 12.8887 15.0816 12.3304C15.0919 12.2942 15.1012 12.2615 15.1099 12.2317C15.1599 12.0597 15.0213 11.8837 14.8501 11.9366C14.6963 11.9841 14.5742 12.0334 14.5433 12.0461Z" fill="#D2161E"/>
</svg>
