<svg width="20" height="20" viewBox="0 0 20 20" fill="none" xmlns="http://www.w3.org/2000/svg">
<path fill-rule="evenodd" clip-rule="evenodd" d="M14.6273 9.17091C14.6735 9.169 14.7183 9.1671 14.7617 9.1652C15.3786 9.13826 15.8475 8.62797 15.8475 8.0085C15.8475 7.57628 15.7076 7.1502 15.3879 6.86048C14.2589 5.83734 12.0516 4.6126 10.4522 4.20889C10.1548 4.13382 9.84521 4.13382 9.54778 4.20889C7.94835 4.6126 5.7411 5.83734 4.61207 6.86048C4.29237 7.1502 4.15253 7.57628 4.15253 8.0085C4.15253 8.62797 4.62139 9.13826 5.23828 9.1652C5.28164 9.1671 5.32642 9.169 5.37264 9.1709C5.35862 9.23972 5.35057 9.31108 5.34817 9.38318C5.33484 9.78318 5.32203 10.4318 5.32203 11.4477C5.32203 12.4636 5.33484 13.1122 5.34817 13.5122C5.34878 13.5305 5.34975 13.5487 5.35109 13.5668C5.22877 13.5716 5.12081 13.5763 5.02597 13.5808C4.63759 13.5993 4.26984 13.7769 4.19656 14.16C4.17016 14.298 4.15253 14.4675 4.15253 14.6742C4.15253 14.8809 4.17016 15.0505 4.19656 15.1885C4.26984 15.5716 4.63759 15.7492 5.02597 15.7677C5.74669 15.802 7.22533 15.8475 10 15.8475C12.7747 15.8475 14.2533 15.802 14.974 15.7677C15.3624 15.7492 15.7302 15.5716 15.8034 15.1885C15.8298 15.0505 15.8475 14.8809 15.8475 14.6742C15.8475 14.4675 15.8298 14.298 15.8034 14.16C15.7302 13.7769 15.3624 13.5993 14.974 13.5808C14.8792 13.5763 14.7712 13.5716 14.6488 13.5668C14.6502 13.5487 14.6511 13.5305 14.6517 13.5122C14.6651 13.1122 14.6779 12.4636 14.6779 11.4477C14.6779 10.4318 14.6651 9.78318 14.6517 9.38318C14.6493 9.31108 14.6413 9.23973 14.6273 9.17091ZM12.3789 9.23081C11.9993 9.23664 11.5842 9.24127 11.1314 9.24422C11.1378 9.2899 11.1418 9.33639 11.1433 9.38318C11.1567 9.78318 11.1695 10.4318 11.1695 11.4477C11.1695 12.4564 11.1569 13.1031 11.1436 13.5037C11.5919 13.506 11.9979 13.5096 12.3651 13.5141L12.365 13.5122C12.3517 13.1122 12.3389 12.4636 12.3389 11.4477C12.3389 10.4318 12.3517 9.78318 12.365 9.38318C12.3667 9.3318 12.3713 9.28079 12.3789 9.23081ZM8.86853 9.24422C8.41577 9.24127 8.00063 9.23664 7.62103 9.2308C7.62859 9.28079 7.63317 9.3318 7.63489 9.38318C7.64822 9.78318 7.66102 10.4318 7.66102 11.4477C7.66102 12.4636 7.64822 13.1122 7.63489 13.5122L7.63482 13.5141C8.00203 13.5096 8.40804 13.506 8.85635 13.5037C8.84312 13.1031 8.83049 12.4564 8.83049 11.4477C8.83049 10.4318 8.8433 9.78318 8.85663 9.38318C8.85819 9.33639 8.86213 9.2899 8.86853 9.24422ZM11.1695 7.04786C11.1695 7.69585 10.6459 8.22115 9.99999 8.22115C9.35409 8.22115 8.83049 7.69585 8.83049 7.04786C8.83049 6.39987 9.35409 5.87457 9.99999 5.87457C10.6459 5.87457 11.1695 6.39987 11.1695 7.04786Z" fill="#D46B00"/>
<path d="M11.1465 12.9531C11.1465 11.6715 11.1465 11.0307 11.5858 10.6325C12.0252 10.2344 12.7323 10.2344 14.1465 10.2344C15.5607 10.2344 16.2678 10.2344 16.7071 10.6325C17.1465 11.0307 17.1465 11.6715 17.1465 12.9531V14.7656C17.1465 16.0473 17.1465 16.6881 16.7071 17.0862C16.2678 17.4844 15.5607 17.4844 14.1465 17.4844C12.7323 17.4844 12.0252 17.4844 11.5858 17.0862C11.1465 16.6881 11.1465 16.0473 11.1465 14.7656V12.9531Z" fill="#B8CBCF"/>
<path d="M11.7465 12.8755C11.7465 13.0253 11.8569 13.1518 12.006 13.1654C12.1549 13.179 12.3507 13.1923 12.5465 13.1923C12.7423 13.1923 12.9381 13.179 13.087 13.1654C13.2361 13.1518 13.3465 13.0253 13.3465 12.8755V12.5109C13.3465 12.3604 13.235 12.2334 13.0851 12.2201C12.9365 12.2069 12.7415 12.1937 12.5465 12.1923C12.3499 12.191 12.1532 12.2044 12.0041 12.2183C11.8558 12.2322 11.7465 12.3583 11.7465 12.5073V12.8755Z" fill="#EEEFEE"/>
<path d="M11.7465 14.647C11.7465 14.8086 11.8739 14.9411 12.0354 14.9463C12.5335 14.9622 13.5571 14.9923 14.1465 14.9923C14.7359 14.9923 15.7595 14.9622 16.2576 14.9463C16.4191 14.9411 16.5465 14.8086 16.5465 14.647V14.3376C16.5465 14.176 16.4191 14.0435 16.2576 14.0383C15.7595 14.0225 14.7359 13.9923 14.1465 13.9923C13.5571 13.9923 12.5335 14.0225 12.0354 14.0383C11.8739 14.0435 11.7465 14.176 11.7465 14.3376V14.647Z" fill="#EEEFEE"/>
</svg>
