<svg width="20" height="20" viewBox="0 0 20 20" fill="none" xmlns="http://www.w3.org/2000/svg">
<path d="M6.92994 10.4358H4.45211C4.01365 10.4358 3.71885 9.98929 3.91584 9.59703C5.14802 7.14338 7.22222 4.77499 9.34154 3.58701C9.73447 3.36676 10.1813 3.68609 10.1529 4.13609L9.96929 7.04042C10.9183 7.07878 11.9381 7.17098 12.7461 7.36002C13.0724 7.43638 13.2396 7.7812 13.0929 8.08292C12.3367 9.63798 10.3356 12.2606 7.35762 14.8088C6.95977 15.1492 6.36372 14.8471 6.39875 14.3242C6.48804 12.9911 6.64322 11.7265 6.92994 10.4358Z" fill="#FFCE0D"/>
<path d="M11.1465 12.9531C11.1465 11.6715 11.1465 11.0307 11.5858 10.6325C12.0252 10.2344 12.7323 10.2344 14.1465 10.2344C15.5607 10.2344 16.2678 10.2344 16.7071 10.6325C17.1465 11.0307 17.1465 11.6715 17.1465 12.9531V14.7656C17.1465 16.0473 17.1465 16.6881 16.7071 17.0862C16.2678 17.4844 15.5607 17.4844 14.1465 17.4844C12.7323 17.4844 12.0252 17.4844 11.5858 17.0862C11.1465 16.6881 11.1465 16.0473 11.1465 14.7656V12.9531Z" fill="#B8CBCF"/>
<path d="M11.7465 12.8755C11.7465 13.0253 11.8569 13.1518 12.006 13.1654C12.1549 13.179 12.3507 13.1923 12.5465 13.1923C12.7423 13.1923 12.9381 13.179 13.087 13.1654C13.2361 13.1518 13.3465 13.0253 13.3465 12.8755V12.5109C13.3465 12.3604 13.235 12.2334 13.0851 12.2201C12.9365 12.2069 12.7415 12.1937 12.5465 12.1923C12.3499 12.191 12.1532 12.2044 12.0041 12.2183C11.8558 12.2322 11.7465 12.3583 11.7465 12.5073V12.8755Z" fill="#EEEFEE"/>
<path d="M11.7465 14.647C11.7465 14.8086 11.8739 14.9411 12.0354 14.9463C12.5335 14.9622 13.5571 14.9923 14.1465 14.9923C14.7359 14.9923 15.7595 14.9622 16.2576 14.9463C16.4191 14.9411 16.5465 14.8086 16.5465 14.647V14.3376C16.5465 14.176 16.4191 14.0435 16.2576 14.0383C15.7595 14.0225 14.7359 13.9923 14.1465 13.9923C13.5571 13.9923 12.5335 14.0225 12.0354 14.0383C11.8739 14.0435 11.7465 14.176 11.7465 14.3376V14.647Z" fill="#EEEFEE"/>
</svg>
