<svg width="20" height="20" viewBox="0 0 20 20" fill="none" xmlns="http://www.w3.org/2000/svg">
<path fill-rule="evenodd" clip-rule="evenodd" d="M10 13.15C12.4301 13.15 14.4 11.1801 14.4 8.75C14.4 6.31995 12.4301 4.35 10 4.35C7.56995 4.35 5.6 6.31995 5.6 8.75C5.6 11.1801 7.56995 13.15 10 13.15ZM10 14.25C13.0376 14.25 15.5 11.7876 15.5 8.75C15.5 5.71243 13.0376 3.25 10 3.25C6.96243 3.25 4.5 5.71243 4.5 8.75C4.5 11.7876 6.96243 14.25 10 14.25Z" fill="#20406B"/>
<path fill-rule="evenodd" clip-rule="evenodd" d="M10.808 12.1759C11.1887 11.3559 11.4536 10.1458 11.4536 8.75C11.4536 7.35418 11.1887 6.14409 10.808 5.32414C10.3849 4.41296 10.021 4.35 10 4.35C9.9791 4.35 9.61513 4.41296 9.19209 5.32414C8.81139 6.14409 8.54645 7.35418 8.54645 8.75C8.54645 10.1458 8.81139 11.3559 9.19209 12.1759C9.61513 13.087 9.9791 13.15 10 13.15C10.021 13.15 10.3849 13.087 10.808 12.1759ZM10 14.25C11.4103 14.25 12.5536 11.7876 12.5536 8.75C12.5536 5.71243 11.4103 3.25 10 3.25C8.58973 3.25 7.44645 5.71243 7.44645 8.75C7.44645 11.7876 8.58973 14.25 10 14.25Z" fill="#20406B"/>
<path fill-rule="evenodd" clip-rule="evenodd" d="M6.57414 9.55792C7.39409 9.93861 8.60418 10.2036 10 10.2036C11.3958 10.2036 12.6059 9.93861 13.4259 9.55792C14.337 9.13488 14.4 8.77091 14.4 8.74998C14.4 8.72905 14.337 8.36509 13.4259 7.94204C12.6059 7.56135 11.3958 7.29641 10 7.29641C8.60418 7.29641 7.39409 7.56135 6.57414 7.94204C5.66296 8.36509 5.6 8.72905 5.6 8.74998C5.6 8.77091 5.66296 9.13488 6.57414 9.55792ZM4.5 8.74998C4.5 10.1603 6.96243 11.3036 10 11.3036C13.0376 11.3036 15.5 10.1603 15.5 8.74998C15.5 7.33968 13.0376 6.19641 10 6.19641C6.96243 6.19641 4.5 7.33968 4.5 8.74998Z" fill="#20406B"/>
<path d="M11.1465 12.9531C11.1465 11.6715 11.1465 11.0307 11.5858 10.6325C12.0252 10.2344 12.7323 10.2344 14.1465 10.2344C15.5607 10.2344 16.2678 10.2344 16.7071 10.6325C17.1465 11.0307 17.1465 11.6715 17.1465 12.9531V14.7656C17.1465 16.0473 17.1465 16.6881 16.7071 17.0862C16.2678 17.4844 15.5607 17.4844 14.1465 17.4844C12.7323 17.4844 12.0252 17.4844 11.5858 17.0862C11.1465 16.6881 11.1465 16.0473 11.1465 14.7656V12.9531Z" fill="#B8CBCF"/>
<path d="M11.7465 12.8755C11.7465 13.0253 11.8569 13.1518 12.006 13.1654C12.1549 13.179 12.3507 13.1923 12.5465 13.1923C12.7423 13.1923 12.9381 13.179 13.087 13.1654C13.2361 13.1518 13.3465 13.0253 13.3465 12.8755V12.5109C13.3465 12.3604 13.235 12.2334 13.0851 12.2201C12.9365 12.2069 12.7415 12.1937 12.5465 12.1923C12.3499 12.191 12.1532 12.2044 12.0041 12.2183C11.8558 12.2322 11.7465 12.3583 11.7465 12.5073V12.8755Z" fill="#EEEFEE"/>
<path d="M11.7465 14.647C11.7465 14.8086 11.8739 14.9411 12.0354 14.9463C12.5335 14.9622 13.5571 14.9923 14.1465 14.9923C14.7359 14.9923 15.7595 14.9622 16.2576 14.9463C16.4191 14.9411 16.5465 14.8086 16.5465 14.647V14.3376C16.5465 14.176 16.4191 14.0435 16.2576 14.0383C15.7595 14.0225 14.7359 13.9923 14.1465 13.9923C13.5571 13.9923 12.5335 14.0225 12.0354 14.0383C11.8739 14.0435 11.7465 14.176 11.7465 14.3376V14.647Z" fill="#EEEFEE"/>
</svg>
