<svg width="20" height="20" viewBox="0 0 20 20" fill="none" xmlns="http://www.w3.org/2000/svg">
<rect x="9.37615" y="4.45288" width="1.1753" height="1.80816" rx="0.587651" fill="#20406B"/>
<rect x="6.56181" y="5.59106" width="1.1753" height="1.80816" rx="0.587651" transform="rotate(-30 6.56181 5.59106)" fill="#20406B"/>
<rect width="1.1753" height="1.80816" rx="0.587651" transform="matrix(-0.866025 -0.5 -0.5 0.866025 13.5106 5.59106)" fill="#20406B"/>
<path d="M2.10239 8.59035C2.05213 8.10644 6.53101 8.29989 7.40444 8.34219C7.50301 8.34697 7.60049 8.34607 7.69904 8.35121C8.48161 8.392 9.7539 8.946 9.55632 10.9594C9.29305 13.6423 9.49288 14.0009 7.25564 13.8539C7.24578 13.8532 7.23597 13.8525 7.22623 13.8518C7.4843 14.4416 7.43491 15.0434 6.76484 15.1364C6.48214 15.1757 6.133 15.1712 5.70493 15.0988C4.54686 14.9031 3.60705 14.1471 3.03144 13.5085C2.68135 13.1201 2.51997 12.6105 2.46595 12.0904L2.10239 8.59035Z" fill="#FFCE0D"/>
<path d="M17.8976 8.59035C17.9479 8.10644 13.469 8.29989 12.5956 8.34219C12.497 8.34697 12.3995 8.34607 12.301 8.35121C11.5184 8.392 10.2461 8.946 10.4437 10.9594C10.7069 13.6423 10.5071 14.0009 12.7444 13.8539C12.7542 13.8532 12.764 13.8525 12.7738 13.8518C12.5157 14.4416 12.5651 15.0434 13.2352 15.1364C13.5179 15.1757 13.867 15.1712 14.2951 15.0988C15.4531 14.9031 16.393 14.1471 16.9686 13.5085C17.3186 13.1201 17.48 12.6105 17.5341 12.0904L17.8976 8.59035Z" fill="#FFCE0D"/>
<path d="M5.16446 10.9789C4.5045 11.0649 4.89826 11.559 5.29652 11.9246C5.46084 12.0755 5.81108 11.9595 5.92374 11.7669C6.2654 11.183 6.89238 12.0661 7.21733 11.438C7.62352 10.6527 6.50122 10.8047 5.16446 10.9789Z" fill="#D46B00"/>
<path d="M14.8355 10.9789C15.4955 11.0649 15.1017 11.559 14.7035 11.9246C14.5392 12.0755 14.1889 11.9595 14.0763 11.7669C13.7346 11.183 13.1076 12.0661 12.7827 11.438C12.3765 10.6527 13.4988 10.8047 14.8355 10.9789Z" fill="#D46B00"/>
<path d="M0.721092 7.82993C0.721092 7.52919 0.964886 7.2854 1.26562 7.2854C2.16782 7.2854 2.8992 8.01678 2.8992 8.91898V12.7742C2.8992 13.6764 2.16782 14.4078 1.26562 14.4078C0.964885 14.4078 0.721092 14.164 0.721092 13.8633V7.82993Z" fill="#20406B"/>
<path d="M19.2789 7.82993C19.2789 7.52919 19.0351 7.2854 18.7344 7.2854C17.8322 7.2854 17.1008 8.01678 17.1008 8.91898V12.7742C17.1008 13.6764 17.8322 14.4078 18.7344 14.4078C19.0351 14.4078 19.2789 14.164 19.2789 13.8633V7.82993Z" fill="#20406B"/>
<path fill-rule="evenodd" clip-rule="evenodd" d="M4.97141 11.28C4.83282 11.3374 4.83289 11.3376 4.83289 11.3376L4.83365 11.3394L4.83502 11.3426L4.83952 11.3526C4.84333 11.3608 4.85625 11.387 4.85625 11.387C4.87111 11.4163 4.8938 11.4583 4.92657 11.5126C4.99212 11.6214 5.09802 11.7796 5.26251 11.9851C5.59144 12.396 6.27546 13.0528 7.21974 13.824C7.23605 13.8373 7.23605 13.8373 7.23605 13.8373C6.30533 13.0772 5.73617 12.2808 5.42252 11.8889C5.26572 11.6931 5.16753 11.5457 5.10929 11.4491C5.08018 11.4008 5.06105 11.3652 5.04958 11.3426C5.04385 11.3313 5.04003 11.3232 5.03783 11.3184L5.03571 11.3137" fill="#D46B00"/>
<path fill-rule="evenodd" clip-rule="evenodd" d="M15.0286 11.28C15.1672 11.3374 15.1671 11.3376 15.1671 11.3376L15.1664 11.3394L15.165 11.3426L15.1605 11.3526C15.1567 11.3608 15.1438 11.387 15.1438 11.387C15.1289 11.4163 15.1062 11.4583 15.0734 11.5126C15.0079 11.6214 14.902 11.7796 14.7375 11.9851C14.4086 12.396 13.7245 13.0528 12.7803 13.824C12.7639 13.8373 12.7639 13.8373 12.7639 13.8373C13.6947 13.0772 14.2638 12.2808 14.5775 11.8889C14.7343 11.6931 14.8325 11.5457 14.8907 11.4491C14.9198 11.4008 14.9389 11.3652 14.9504 11.3426C14.9562 11.3313 14.96 11.3232 14.9622 11.3184L14.9643 11.3137" fill="#D46B00"/>
</svg>
