<svg width="20" height="20" viewBox="0 0 20 20" fill="none" xmlns="http://www.w3.org/2000/svg">
<path d="M2.09281 7.27569C2.19522 5.56523 3.31404 4.27307 5.01993 4.11145C6.1601 4.00343 7.76379 3.92041 10 3.92041C12.2362 3.92041 13.8399 4.00343 14.9801 4.11145C16.686 4.27307 17.8048 5.56523 17.9072 7.27569C17.9606 8.16818 18 9.30578 18 10.7204C18 12.135 17.9606 13.2726 17.9072 14.1651C17.8048 15.8756 16.686 17.1678 14.9801 17.3294C13.8399 17.4374 12.2362 17.5204 10 17.5204C7.76379 17.5204 6.1601 17.4374 5.01992 17.3294C3.31404 17.1678 2.19522 15.8756 2.09281 14.1651C2.03938 13.2726 2 12.135 2 10.7204C2 9.30578 2.03938 8.16818 2.09281 7.27569Z" fill="#E2A97C"/>
<path d="M10 5.56986C10 4.11305 10 3.38464 10.4994 2.93207C10.9988 2.47949 11.8025 2.47949 13.4101 2.47949C15.0176 2.47949 15.8213 2.47949 16.3207 2.93207C16.8201 3.38464 16.8201 4.11305 16.8201 5.56986V7.63011C16.8201 9.08693 16.8201 9.81533 16.3207 10.2679C15.8213 10.7205 15.0176 10.7205 13.4101 10.7205C11.8025 10.7205 10.9988 10.7205 10.4994 10.2679C10 9.81533 10 9.08693 10 7.63011V5.56986Z" fill="#20406B"/>
<path fill-rule="evenodd" clip-rule="evenodd" d="M12.8605 6.64656C12.4643 6.40178 12.1927 5.90052 12.1927 5.32193C12.1927 4.5023 12.7377 4.08521 13.41 4.08521C14.0824 4.08521 14.6274 4.5023 14.6274 5.32193C14.6274 5.90052 14.3558 6.40178 13.9596 6.64656C14.7678 6.91183 15.3579 7.74733 15.3579 8.73697C15.3579 9.04068 14.4858 9.27946 13.41 9.27946C12.3343 9.27946 11.4622 9.04068 11.4622 8.73697C11.4622 7.74733 12.0523 6.91183 12.8605 6.64656Z" fill="#E2A97C"/>
<path d="M5.20001 10.6461C5.20001 10.9456 5.42076 11.1986 5.719 11.2258C6.01677 11.253 6.40839 11.2796 6.80001 11.2796C7.19163 11.2796 7.58325 11.253 7.88103 11.2258C8.17927 11.1986 8.40001 10.9456 8.40001 10.6461V9.91676C8.40001 9.61574 8.17709 9.36187 7.87725 9.33522C7.57994 9.3088 7.18998 9.28233 6.80001 9.27964C6.40674 9.27693 6.01348 9.30373 5.71524 9.33169C5.41861 9.3595 5.20001 9.61168 5.20001 9.90962V10.6461Z" fill="#20406B"/>
<path d="M5.20001 14.189C5.20001 14.5123 5.45474 14.7773 5.77785 14.7876C6.77409 14.8193 8.82126 14.8796 10 14.8796C11.1788 14.8796 13.2259 14.8193 14.2222 14.7876C14.5453 14.7773 14.8 14.5123 14.8 14.189V13.5703C14.8 13.247 14.5453 12.982 14.2222 12.9717C13.2259 12.9399 11.1788 12.8796 10 12.8796C8.82126 12.8796 6.77409 12.9399 5.77785 12.9717C5.45474 12.982 5.20001 13.247 5.20001 13.5703V14.189Z" fill="#20406B"/>
</svg>
