<svg width="20" height="20" viewBox="0 0 20 20" fill="none" xmlns="http://www.w3.org/2000/svg">
<path d="M2.26155 3.82926C2.33799 3.1703 2.73776 2.62629 3.3855 2.48305C4.39584 2.25961 6.3542 2 10 2C13.6458 2 15.6042 2.25961 16.6145 2.48305C17.2622 2.62629 17.662 3.1703 17.7384 3.82926C17.854 4.82575 18 6.46691 18 8.4C18 12.0114 16.094 15.3906 12.883 17.0432C11.8103 17.5952 10.7635 18 10 18C9.23652 18 8.18967 17.5952 7.11702 17.0432C3.90597 15.3906 2 12.0114 2 8.4C2 6.46691 2.14597 4.82575 2.26155 3.82926Z" fill="#FFCE0D"/>
<path fill-rule="evenodd" clip-rule="evenodd" d="M13.6152 5.89568C14.0636 6.24983 14.1297 6.88783 13.7628 7.32068L9.8284 11.962C9.64084 12.1833 9.36512 12.3177 9.06931 12.3321C8.77349 12.3465 8.48514 12.2396 8.27544 12.0377L6.30824 10.1438C5.89799 9.74882 5.89715 9.10765 6.30636 8.71168C6.71557 8.31572 7.37987 8.31491 7.79012 8.70987L8.93756 9.95246L12.1388 6.03818C12.5057 5.60533 13.1667 5.54153 13.6152 5.89568Z" fill="#DF5252"/>
</svg>
