<svg width="20" height="20" viewBox="0 0 20 20" fill="none" xmlns="http://www.w3.org/2000/svg">
<path d="M2.26155 3.82926C2.33799 3.1703 2.73776 2.62629 3.3855 2.48305C4.39584 2.25961 6.3542 2 10 2C13.6458 2 15.6042 2.25961 16.6145 2.48305C17.2622 2.62629 17.662 3.1703 17.7384 3.82926C17.854 4.82575 18 6.46691 18 8.4C18 12.0114 16.094 15.3906 12.883 17.0432C11.8103 17.5952 10.7635 18 10 18C9.23652 18 8.18967 17.5952 7.11702 17.0432C3.90597 15.3906 2 12.0114 2 8.4C2 6.46691 2.14597 4.82575 2.26155 3.82926Z" fill="#B4161D"/>
<path d="M10.5141 14.2921C10.2351 14.6731 9.63165 14.477 9.62996 14.0048L9.62299 12.0575C9.62243 11.9021 9.5481 11.7562 9.42271 11.6644L7.85138 10.5141C7.47035 10.2352 7.66644 9.63173 8.13864 9.63004L10.086 9.62307C10.2414 9.62251 10.3873 9.54818 10.479 9.42279L11.6293 7.85146C11.9082 7.47043 12.5117 7.66652 12.5134 8.13872L12.5204 10.0861C12.5209 10.2414 12.5953 10.3873 12.7206 10.4791L14.292 11.6294C14.673 11.9083 14.4769 12.5118 14.0047 12.5135L12.0574 12.5204C11.902 12.521 11.7561 12.5953 11.6643 12.7207L10.5141 14.2921Z" fill="#FFC737"/>
<path d="M14.2369 8.11501C14.1005 8.30138 13.8053 8.20547 13.8045 7.97451L13.801 7.00306C13.8008 6.92705 13.7644 6.85569 13.7031 6.8108L12.9192 6.23698C12.7328 6.10055 12.8287 5.80537 13.0597 5.80454L14.0312 5.80106C14.1072 5.80079 14.1785 5.76443 14.2234 5.7031L14.7972 4.91923C14.9337 4.73286 15.2288 4.82877 15.2297 5.05974L15.2331 6.03119C15.2334 6.10719 15.2698 6.17855 15.3311 6.22344L16.115 6.79726C16.3014 6.93369 16.2054 7.22887 15.9745 7.2297L15.003 7.23318C14.927 7.23345 14.8557 7.26981 14.8108 7.33114L14.2369 8.11501Z" fill="white"/>
<path d="M9.02301 6.81849C8.92461 6.9529 8.71172 6.88373 8.71113 6.71715L8.70891 6.09856C8.70872 6.04375 8.6825 5.99228 8.63826 5.9599L8.13912 5.59452C8.0047 5.49612 8.07388 5.28323 8.24045 5.28264L8.85904 5.28042C8.91386 5.28023 8.96532 5.254 8.9977 5.20977L9.36309 4.71063C9.46148 4.57621 9.67437 4.64539 9.67497 4.81196L9.67718 5.43055C9.67738 5.48537 9.7036 5.53683 9.74783 5.56921L10.247 5.9346C10.3814 6.03299 10.3122 6.24588 10.1456 6.24648L9.52705 6.24869C9.47224 6.24889 9.42077 6.27511 9.3884 6.31934L9.02301 6.81849Z" fill="white"/>
</svg>
