<svg width="20" height="20" viewBox="0 0 20 20" fill="none" xmlns="http://www.w3.org/2000/svg">
<path d="M18.3333 14.5835C18.3333 12.403 16.7148 11.0103 14.5362 10.9173C13.3961 10.8686 11.9115 10.8335 9.99996 10.8335C8.08844 10.8335 6.60379 10.8686 5.46371 10.9173C3.28516 11.0103 1.66662 12.403 1.66662 14.5835C1.66662 16.764 3.28516 18.1567 5.46371 18.2497C6.6038 18.2984 8.08844 18.3335 9.99996 18.3335C11.9115 18.3335 13.3961 18.2984 14.5362 18.2497C16.7148 18.1567 18.3333 16.764 18.3333 14.5835Z" fill="#BCC9D2"/>
<ellipse cx="2.08333" cy="2.08333" rx="2.08333" ry="2.08333" transform="matrix(-1 0 0 1 7.50004 12.5)" fill="#79818C"/>
<path d="M1.66667 5.41675C1.66667 3.23621 3.2852 1.84358 5.46375 1.75052C6.60384 1.70183 8.08849 1.66675 10 1.66675C11.9115 1.66675 13.3962 1.70183 14.5363 1.75052C16.7148 1.84358 18.3333 3.23621 18.3333 5.41675C18.3333 7.59728 16.7148 8.98992 14.5362 9.08297C13.3962 9.13167 11.9115 9.16675 10 9.16675C8.08849 9.16675 6.60384 9.13167 5.46375 9.08297C3.2852 8.98992 1.66667 7.59728 1.66667 5.41675Z" fill="#DBE3E7"/>
<ellipse cx="14.5833" cy="5.41683" rx="2.08333" ry="2.08333" fill="#79818C"/>
</svg>
