<svg width="20" height="20" viewBox="0 0 20 20" fill="none" xmlns="http://www.w3.org/2000/svg">
<g clip-path="url(#clip0_1823_1162)">
<path fill-rule="evenodd" clip-rule="evenodd" d="M10.0005 -0.00134277C15.523 -0.00134277 20.0005 4.47532 20.0005 9.99866C20.0005 15.5212 15.523 19.9987 10.0005 19.9987C4.47715 19.9987 0.000488281 15.5212 0.000488281 9.99866C0.000488281 4.47532 4.47715 -0.00134277 10.0005 -0.00134277Z" fill="#20406B"/>
<path fill-rule="evenodd" clip-rule="evenodd" d="M15.154 18.57C14.5659 18.9244 13.9383 19.22 13.2794 19.4486L12.5431 16.5488C10.6868 16.7022 8.89828 15.9912 7.65187 14.6981C7.44095 14.734 7.25938 14.7532 7.08633 14.756C5.47201 14.7817 3.98123 13.8947 3.23373 12.4636C3.00267 12.0213 2.85796 11.4513 2.56852 10.3113L2.49777 10.0327C2.29465 9.23271 2.1931 8.83273 2.20606 8.48217C2.23673 7.65242 2.68728 6.89523 3.40189 6.47244C3.70381 6.29381 4.10379 6.19226 4.90375 5.98915L5.72883 5.77966C6.11299 5.16459 6.68004 4.6626 7.37854 4.36015C7.64777 4.24357 7.98342 4.15835 8.65472 3.9879L11.9392 3.15397C12.6105 2.98353 12.9461 2.89831 13.2384 2.87233C13.9966 2.80493 14.7344 2.97561 15.3655 3.33293L16.1905 3.12345C16.5491 3.03241 16.8273 2.96177 17.0567 2.9127C18.875 4.72343 20.0005 7.22949 20.0005 9.99863C20.0005 10.1724 19.9961 10.3452 19.9873 10.5168C19.6006 11.0751 19.0794 11.5432 18.4545 11.8696C18.3011 11.9498 18.1324 12.0195 17.9298 12.0885C17.4512 13.8196 16.2185 15.2977 14.5138 16.0485L15.154 18.57ZM18.3073 8.05591C18.3134 8.43791 18.2003 8.80376 17.9944 9.10877C17.9836 9.06159 17.9722 9.01442 17.9603 8.96725L17.2931 6.33968L17.2931 6.33962C17.1888 5.92898 17.1165 5.64394 17.0493 5.42287C17.3155 5.35581 17.4844 5.31494 17.6165 5.28829L17.643 5.28306L17.6511 5.30889C17.7022 5.47518 17.7617 5.70648 17.8692 6.12987L17.94 6.40855C18.2636 7.68335 18.3051 7.91393 18.3073 8.05591ZM5.24594 8.41973C5.29236 8.64608 5.36474 8.93114 5.46902 9.34183L6.13616 11.9694C6.14814 12.0166 6.16063 12.0635 6.17364 12.1101C5.84723 11.9402 5.57322 11.6727 5.39634 11.334C5.33059 11.2081 5.25702 10.9857 4.93334 9.71092L4.86259 9.43224C4.75509 9.00885 4.697 8.77721 4.66261 8.60666L4.65738 8.58012L4.6832 8.57205C4.81205 8.53243 4.97992 8.48782 5.24594 8.41973Z" fill="#FFCE0D"/>
<path d="M3.69581 7.75106L4.19795 6.00179L3.19689 4.48192L4.94616 4.98407L6.46602 3.983L5.96388 5.73228L6.96494 7.25214L5.21567 6.75L3.69581 7.75106Z" fill="white"/>
</g>
<defs>
<clipPath id="clip0_1823_1162">
<rect width="20" height="20" fill="white"/>
</clipPath>
</defs>
</svg>
