<svg width="20" height="20" viewBox="0 0 20 20" fill="none" xmlns="http://www.w3.org/2000/svg">
<g clip-path="url(#clip0_1823_931)">
<path d="M10 0C15.5228 0 20 4.47715 20 10C20 15.5228 15.5228 20 10 20C4.47715 20 0 15.5228 0 10C0 4.47715 4.47715 0 10 0Z" fill="black"/>
<path fill-rule="evenodd" clip-rule="evenodd" d="M19.9108 8.65832C18.6317 10.8315 16.2682 12.2899 13.5642 12.2899C9.49985 12.2899 6.20507 8.99517 6.20507 4.93086C6.20507 3.13806 6.84616 1.495 7.91159 0.218401C8.58515 0.0752951 9.28378 0 10 0C10.4621 0 10.9169 0.0313484 11.3624 0.0920337C9.52587 0.929035 8.24926 2.78087 8.24926 4.93086C8.24926 7.8662 10.6288 10.2458 13.5642 10.2458C16.3543 10.2458 18.6423 8.09581 18.8618 5.3622C19.3912 6.37161 19.7531 7.48262 19.9108 8.65832Z" fill="#DF5252"/>
<path fill-rule="evenodd" clip-rule="evenodd" d="M16.8343 10.6547C16.8343 14.7191 13.5395 18.0138 9.4752 18.0138C5.41089 18.0138 2.11612 14.7191 2.11612 10.6547C2.11612 6.59043 5.41089 3.29565 9.4752 3.29565C13.5395 3.29565 16.8343 6.59043 16.8343 10.6547ZM9.4752 15.9696C12.4105 15.9696 14.7901 13.5901 14.7901 10.6547C14.7901 7.7194 12.4105 5.33984 9.4752 5.33984C6.53987 5.33984 4.16031 7.7194 4.16031 10.6547C4.16031 13.5901 6.53987 15.9696 9.4752 15.9696Z" fill="#84D9FF"/>
<path fill-rule="evenodd" clip-rule="evenodd" d="M17.4421 3.32039C17.2417 3.30401 17.039 3.29565 16.8344 3.29565C12.7701 3.29565 9.47528 6.59043 9.47528 10.6547C9.47528 14.4503 12.3487 17.5747 16.0389 17.9713C16.844 17.3605 17.5536 16.6305 18.1417 15.8077C17.7234 15.9134 17.2855 15.9696 16.8344 15.9696C13.899 15.9696 11.5195 13.5901 11.5195 10.6547C11.5195 7.7194 13.899 5.33984 16.8344 5.33984C17.6442 5.33984 18.4116 5.52095 19.0985 5.84486C18.6749 4.9188 18.1141 4.06864 17.4421 3.32039Z" fill="#FFCE0D"/>
</g>
<defs>
<clipPath id="clip0_1823_931">
<rect width="20" height="20" fill="white"/>
</clipPath>
</defs>
</svg>
