<svg width="20" height="20" viewBox="0 0 20 20" fill="none" xmlns="http://www.w3.org/2000/svg">
<g clip-path="url(#clip0_1823_897)">
<path d="M10.0006 0.00170898C15.5235 0.00170898 20.0006 4.47886 20.0006 10.0017C20.0006 15.5246 15.5235 20.0017 10.0006 20.0017C4.47776 20.0017 0.000610352 15.5246 0.000610352 10.0017C0.000610352 4.47886 4.47776 0.00170898 10.0006 0.00170898Z" fill="#256BAB"/>
<path d="M16.6111 17.5053C14.8488 19.0591 12.5348 20.0017 10.0006 20.0017C7.46602 20.0017 5.15166 19.0587 3.38922 17.5045C3.64097 17.4691 3.91124 17.4495 4.20223 17.4495C6.07683 17.4495 7.0912 18.264 7.8313 18.8583L7.83451 18.8608C8.51967 19.4127 9.01401 19.8108 10.0746 19.8108C11.1339 19.8108 11.6276 19.4143 12.3114 18.865L12.3148 18.8624C12.9961 18.3132 13.9221 17.5705 15.5463 17.4631V17.4525L15.7994 17.4495H16.2002V17.4631C16.3424 17.4725 16.4793 17.4867 16.6111 17.5053Z" fill="white"/>
<path d="M1.64454 15.4971C1.32045 15.0053 1.03861 14.4832 0.804188 13.9359C1.52647 13.3687 2.51668 12.71 4.20223 12.71C6.07683 12.71 7.0912 13.5245 7.8313 14.1188L7.83451 14.1213C8.51967 14.6732 9.01401 15.0713 10.0746 15.0713C11.1339 15.0713 11.6276 14.6748 12.3114 14.1255L12.3147 14.1228C12.9961 13.5737 13.9221 12.831 15.5463 12.7236V12.713L15.7994 12.71H16.2002V12.7236C17.6485 12.8192 18.5381 13.4188 19.1967 13.9367C18.962 14.4845 18.6798 15.007 18.3553 15.4992C18.2438 15.4131 18.1386 15.3284 18.0383 15.2477L18.0353 15.2453C17.3687 14.7083 16.8836 14.318 15.8648 14.3014C14.8595 14.3179 14.3763 14.706 13.7107 15.2406L13.7048 15.2453L13.7018 15.2477C12.9596 15.845 11.9473 16.6597 10.0725 16.6597C8.19732 16.6597 7.18062 15.8428 6.44024 15.2453C5.75681 14.6962 5.26112 14.2983 4.20012 14.2983C3.14431 14.2983 2.65052 14.6939 1.96809 15.2405L1.96211 15.2453C1.86188 15.326 1.75614 15.411 1.64454 15.4971Z" fill="white"/>
<path d="M5.47788 1.08051C6.83607 0.39059 8.37292 0.001709 10.0006 0.00170898C13.941 0.00170895 17.3491 2.2808 18.9787 5.5927C18.0494 9.38452 14.2396 11.7331 10.4265 10.8466C6.58521 9.95352 4.19518 6.11557 5.08822 2.27427C5.18486 1.85858 5.31599 1.45989 5.47788 1.08051Z" fill="#20406B"/>
<path d="M14.658 5.89009C14.1476 6.44695 13.5629 6.90056 12.9308 7.29401C11.0829 8.42423 9.09252 8.84581 6.93722 8.60266C6.67262 8.57799 6.49069 8.462 6.33314 8.24114C5.83989 7.56149 5.44178 6.84255 5.21338 6.02796C5.13932 5.7651 5.18784 5.71497 5.4668 5.7307C7.7514 5.89337 9.88001 5.40567 11.8616 4.28196C12.0456 4.17737 12.2072 4.11667 12.3864 4.24431C13.0854 4.72615 13.7844 5.20799 14.4807 5.70148C14.5568 5.74376 14.6016 5.81557 14.658 5.89009Z" fill="white"/>
<path d="M17.2954 7.6505C17.431 7.86328 17.568 8.07829 17.7114 8.29478C17.7289 8.27363 17.7492 8.25312 17.7707 8.2314C17.8119 8.18968 17.8575 8.14352 17.8965 8.0799C18.4297 7.34252 18.7874 6.52754 19.0117 5.66063C17.8349 3.22241 15.6976 1.33469 13.0909 0.488525C12.9379 1.24768 12.7859 2.00707 12.6549 2.77136C12.5943 3.13801 12.7402 3.35616 13.0888 3.54775C14.5651 4.33312 15.7826 5.43906 16.743 6.80459C16.9326 7.08129 17.1127 7.36387 17.2954 7.6505Z" fill="white"/>
<path d="M8.86504 0.0654787C8.82763 0.183733 8.79 0.304109 8.7517 0.426719C8.62678 0.964062 8.61839 1.5058 8.60936 2.08879C8.60787 2.18539 8.60635 2.28312 8.60429 2.38215C8.60101 2.82022 8.66259 3.26031 8.72365 3.69674C8.74634 3.85884 8.76895 4.02043 8.78814 4.18123C8.81827 4.4216 8.93296 4.50967 9.17802 4.40698C9.91588 4.08725 10.6538 3.76749 11.389 3.45942C11.6053 3.37461 11.6782 3.2196 11.692 3.00173C11.7047 2.86474 11.7157 2.72817 11.7267 2.59198C11.7581 2.20232 11.7893 1.81585 11.8603 1.43192C11.9319 1.02294 12.0262 0.622888 12.1421 0.231531C11.4522 0.0810129 10.7357 0.00170898 10.0006 0.00170898C9.61666 0.00170898 9.23775 0.0233499 8.86504 0.0654787Z" fill="white"/>
<path d="M7.92415 9.64266C8.08654 9.63128 8.25163 9.60825 8.41131 9.60853C10.5411 9.53869 12.4663 8.86861 14.1781 7.58392C14.505 7.34059 14.8113 7.08018 15.0997 6.79105C15.3054 6.59324 15.4508 6.60246 15.5912 6.84391C16.0118 7.51895 16.4351 8.18234 16.8584 8.84573C16.9748 9.03244 16.9423 9.17227 16.759 9.32618C15.2302 10.6166 13.4863 11.1937 11.478 11.0584C10.2572 10.9711 9.16161 10.5567 8.14352 9.91473C8.05838 9.85809 7.99032 9.78086 7.90789 9.71257C7.9106 9.70092 7.91602 9.67761 7.92415 9.64266Z" fill="#FFCE0D"/>
<path d="M7.86857 0.229736C7.77188 0.685098 7.70746 1.15009 7.67443 1.62577C7.61197 2.58153 7.68858 3.5205 7.87825 4.44891C7.92546 4.66868 7.82489 4.73127 7.65355 4.72828C7.00101 4.74145 6.34217 4.7445 5.68921 4.74753C5.56388 4.74811 5.43876 4.74869 5.31395 4.74934C5.00625 4.7515 4.90157 4.56749 4.90288 4.29759C4.87328 3.17871 5.03033 2.10321 5.48614 1.07657C6.23142 0.698861 7.0304 0.411751 7.86857 0.229736Z" fill="#FFCE0D"/>
</g>
<defs>
<clipPath id="clip0_1823_897">
<rect width="20" height="20" fill="white"/>
</clipPath>
</defs>
</svg>
