<svg width="20" height="20" viewBox="0 0 20 20" fill="none" xmlns="http://www.w3.org/2000/svg">
<g clip-path="url(#clip0_1823_998)">
<circle cx="10.0001" cy="10" r="10" fill="#80BC3C"/>
<path fill-rule="evenodd" clip-rule="evenodd" d="M0.000107857 9.98175C2.81336 4.99675 7.97549 2.60581 10.9423 1.96217C15.8387 1.16703 18.0728 5.18411 16.843 13.1779C16.5081 15.3546 15.6026 17.2971 14.4195 18.9729C13.0869 19.6305 11.5866 20 10.0001 20C4.47724 20 9.15527e-05 15.5228 9.15527e-05 10C9.15527e-05 9.99391 9.69891e-05 9.98783 0.000107857 9.98175Z" fill="#654413"/>
<path fill-rule="evenodd" clip-rule="evenodd" d="M2.55057 16.6713C4.09245 12.6484 6.47427 7.43794 9.75965 3.5785C9.85088 3.47132 9.77276 3.31074 9.63288 3.32631C7.73232 3.53784 3.8989 5.06046 1.19088 9.91277C0.791623 10.6282 0.468202 11.341 0.209015 12.0433C0.573421 13.7984 1.39786 15.385 2.55057 16.6713Z" fill="white"/>
<path fill-rule="evenodd" clip-rule="evenodd" d="M4.28271 18.2054C4.3328 17.9226 4.38996 17.6279 4.45457 17.3209C6.15051 9.26293 10.1712 5.73785 12.8946 4.47804C12.9019 4.47465 12.9084 4.47103 12.9153 4.46679C13.1097 4.34671 16.098 2.62062 16.47 9.74611C16.6787 13.745 15.071 17.0613 13.0876 19.5143C12.1152 19.8296 11.0775 20 10.0001 20C7.87409 20 5.90306 19.3366 4.28271 18.2054Z" fill="white"/>
</g>
<defs>
<clipPath id="clip0_1823_998">
<rect width="20" height="20" fill="white"/>
</clipPath>
</defs>
</svg>
