<svg width="20" height="20" viewBox="0 0 20 20" fill="none" xmlns="http://www.w3.org/2000/svg">
<g clip-path="url(#clip0_1823_1082)">
<path d="M10 0C15.5228 0 20 4.47715 20 10C20 15.5228 15.5228 20 10 20C4.47715 20 0 15.5228 0 10C0 4.47715 4.47715 0 10 0Z" fill="#20406B"/>
<path d="M12.947 1.04352C14.655 1.63787 16.1991 2.74237 17.2822 4.21077C17.342 4.47904 17.2948 4.79441 17.1133 5.00989C16.6087 4.85435 16.1104 4.68025 15.6269 4.4662C15.1455 4.25358 14.6234 4.10445 14.211 3.76126C13.9808 3.58574 13.8443 3.32388 13.6845 3.08842C13.339 2.57399 13.0005 2.05455 12.6514 1.54226C12.7401 1.3703 12.8344 1.2012 12.947 1.04352Z" fill="white"/>
<path d="M2.97446 3.93456C4.1427 2.49257 5.75149 1.42588 7.52144 0.911438C7.6826 1.11693 7.76494 1.44871 7.57634 1.66205C7.09074 2.29492 6.62556 2.9435 6.13715 3.57424C5.95347 3.80256 5.69378 3.96096 5.4165 4.04444C4.71063 4.25278 4.00476 4.46469 3.30241 4.68517C3.17433 4.52819 3.03076 4.3805 2.93224 4.20141C2.88508 4.11222 2.90197 4.00377 2.97446 3.93456Z" fill="white"/>
<path d="M7.86971 2.03984C8.00764 1.88858 8.12587 1.70949 8.30041 1.59961C9.6101 1.60175 10.9205 1.64527 12.2302 1.65312C12.7411 2.43798 13.2492 3.22497 13.7531 4.01482C13.8756 4.18821 13.8045 4.4258 13.6764 4.57492C13.1936 5.20566 12.7327 5.8521 12.2386 6.47356C10.9501 6.52707 9.65936 6.48355 8.36937 6.49711C8.06324 6.51709 7.82748 6.28805 7.62409 6.08827C7.4376 5.91203 7.31514 5.68228 7.17439 5.46966C6.90837 5.06867 6.62757 4.67624 6.40167 4.25028C6.29329 4.09902 6.45234 3.94561 6.52764 3.81932C6.98156 3.2314 7.40874 2.62206 7.86971 2.03984Z" fill="white"/>
<path d="M14.4517 4.58451C14.5608 4.55811 14.6748 4.56596 14.7768 4.61305C15.5249 4.92057 16.2695 5.23736 17.0204 5.53846C17.1238 5.5563 17.1344 5.67546 17.171 5.75252C17.4856 6.64796 17.8093 7.53985 18.1302 8.43244C18.2217 8.65648 18.1119 8.89551 18.0465 9.11098C17.734 9.88442 17.2794 10.5851 16.8663 11.305C16.8008 11.4163 16.7037 11.589 16.5475 11.5205C15.7346 11.2686 14.9169 11.0332 14.1047 10.7792C13.9006 10.7235 13.7803 10.5266 13.7303 10.3311C13.3981 9.26795 13.0505 8.20983 12.7035 7.15241C12.5945 6.87486 12.7627 6.58946 12.909 6.36113C13.2806 5.86097 13.6508 5.36009 14.0294 4.86491C14.1294 4.7215 14.2785 4.61447 14.4517 4.58451Z" fill="white"/>
<path d="M17.1483 11.7289C17.6022 10.9526 18.0533 10.1742 18.51 9.39929C18.7563 9.81741 19.1061 10.2327 19.078 10.7492C19.1068 10.964 19.0752 11.1773 19.0301 11.3871C18.7859 12.8362 18.1976 14.2254 17.3235 15.3984C17.0744 15.387 16.7577 15.377 16.6359 15.1109C16.7021 14.2996 16.7746 13.487 16.8836 12.68C16.9322 12.3546 16.9808 12.0171 17.1483 11.7289Z" fill="white"/>
<path d="M5.4525 4.51584C5.6967 4.44021 5.99651 4.52441 6.13444 4.7513C6.58203 5.42128 7.02399 6.09483 7.47792 6.75982C7.12463 7.85148 6.7636 8.93957 6.41454 10.0327C6.30194 10.3759 6.14148 10.7826 5.76849 10.901C5.04291 11.1165 4.30889 11.3013 3.58473 11.5217C3.35952 11.4169 3.1491 11.2734 2.99427 11.0751C2.54809 10.4658 2.17017 9.80934 1.79648 9.15291C1.71554 9.0045 1.79014 8.82969 1.83166 8.67986C2.22014 7.60318 2.59665 6.52222 2.98231 5.44483C3.05198 5.18083 3.36867 5.16085 3.58191 5.07666C4.20614 4.89186 4.82686 4.69565 5.4525 4.51584Z" fill="white"/>
<path d="M0.911621 9.90473C1.08545 9.80412 1.25294 9.60506 1.47111 9.655C1.994 10.3528 2.43596 11.112 2.94408 11.8212C3.07216 11.981 3.15591 12.1794 3.1369 12.3884C3.09257 13.164 3.03204 13.9389 2.9863 14.7145C2.79206 14.7865 2.60064 14.875 2.39374 14.9007C1.51122 13.5928 1.01507 12.0267 0.911621 10.4491L0.911621 9.90473Z" fill="white"/>
<path d="M7.77418 7.32811C7.81007 7.07553 8.07046 6.94567 8.30129 6.95851C9.49838 6.96422 10.6962 6.95708 11.8933 6.96279C12.1586 6.98562 12.2796 7.27602 12.3416 7.50291C12.6801 8.63881 13.0995 9.74903 13.3859 10.8992C13.0031 11.2538 12.5745 11.5513 12.1734 11.8838C11.5449 12.3676 10.939 12.8806 10.314 13.3686C10.2092 13.4471 10.0628 13.5677 9.94879 13.435C8.98534 12.7251 8.02683 12.0087 7.06479 11.2959C6.89166 11.1746 6.74036 11.0169 6.64816 10.8236C7.00426 9.6527 7.40963 8.49683 7.77418 7.32811Z" fill="white"/>
<path d="M4.03248 11.8707C4.77424 11.6717 5.50755 11.4391 6.25495 11.2635C7.37251 12.1069 8.50345 12.9317 9.62454 13.7701C9.77655 13.8771 9.84904 14.0698 9.83567 14.2531C9.83144 14.9888 9.85467 15.7244 9.85889 16.4607C9.88282 16.6312 9.77726 16.8082 9.61398 16.8589C8.71458 17.1 7.82784 17.3933 6.91507 17.5845C5.81721 16.764 4.71231 15.9534 3.61374 15.135C3.44695 15.018 3.45399 14.7868 3.45117 14.6049C3.49762 13.8436 3.55111 13.0816 3.60107 12.3203C3.58066 12.0741 3.84387 11.9485 4.03248 11.8707Z" fill="white"/>
<path d="M13.6738 11.2883C13.8947 11.2269 14.1312 11.2633 14.3466 11.3325C14.9363 11.523 15.5338 11.6885 16.1264 11.8726C16.3079 11.9233 16.4592 12.1216 16.4128 12.3171C16.3283 13.1997 16.2594 14.0838 16.2214 14.9699C16.201 15.1783 16.1672 15.4216 15.9891 15.5557C15.0827 16.2728 14.0826 16.8529 13.1164 17.4801C12.9299 17.6199 12.6836 17.5571 12.4809 17.4929C11.8799 17.2967 11.262 17.149 10.675 16.9107C10.4871 16.84 10.2936 16.6816 10.3133 16.4569C10.3119 15.6749 10.2866 14.8922 10.2978 14.1102C10.288 13.9425 10.4463 13.8526 10.5554 13.7584C11.5991 12.9407 12.6259 12.0995 13.6738 11.2883Z" fill="white"/>
<path d="M7.15444 18.0009C8.07355 17.7369 9.00603 17.5229 9.92373 17.2517C10.0286 17.2146 10.1363 17.2682 10.2383 17.2917C11.0519 17.5486 11.8703 17.7862 12.6867 18.0323C12.655 18.2642 12.6276 18.4961 12.5959 18.728C10.8006 19.236 8.85753 19.2182 7.08899 18.6045C7.10095 18.4026 7.13051 18.2021 7.15444 18.0009Z" fill="white"/>
</g>
<defs>
<clipPath id="clip0_1823_1082">
<rect width="20" height="20" fill="white"/>
</clipPath>
</defs>
</svg>
