<svg width="20" height="20" viewBox="0 0 20 20" fill="none" xmlns="http://www.w3.org/2000/svg">
<g clip-path="url(#clip0_1823_909)">
<path d="M10.0006 0.00170898C15.5235 0.00170898 20.0006 4.47886 20.0006 10.0017C20.0006 15.5246 15.5235 20.0017 10.0006 20.0017C4.47776 20.0017 0.000610352 15.5246 0.000610352 10.0017C0.000610352 4.47886 4.47776 0.00170898 10.0006 0.00170898Z" fill="#84D9FF"/>
<path d="M8.20612 0.162291C8.45293 0.117571 8.70291 0.0819095 8.95568 0.0556641C9.14547 0.128252 9.30928 0.271245 9.41328 0.452924L9.41568 0.457124L10.5388 2.56113L11.5939 0.753602L11.6004 0.744026C11.8535 0.373488 12.348 0.259079 12.736 0.49103L12.7533 0.50139L12.7693 0.513796C13.118 0.78545 13.216 1.27248 13.0076 1.65971L13.0051 1.6645L11.4479 4.34064L13.5649 8.29995L15.6833 4.34051L14.1126 1.63855L14.1018 1.60493C14.0975 1.59153 14.0924 1.57683 14.0868 1.5609C14.0434 1.43593 13.9737 1.23524 14.0505 0.989297L14.0511 0.987372C14.0625 0.951493 14.0753 0.913225 14.0909 0.873786C16.0598 1.75743 17.691 3.25943 18.7372 5.1326H17.1508L14.9628 9.19039H19.3516L19.9756 9.28892C19.9922 9.52437 20.0006 9.76206 20.0006 10.0017C20.0006 10.6019 19.9477 11.1896 19.8464 11.7607L19.3517 10.8394H14.9614L17.1507 14.8972H18.7224C18.1732 15.8735 17.4649 16.7483 16.6325 17.4864L16.5971 17.4201L16.4872 17.6128C15.7618 18.2316 14.9469 18.7485 14.0646 19.1414C13.9873 18.9096 14.0035 18.6487 14.1244 18.4215L14.1273 18.416L15.6833 15.7424L13.5649 11.7803L11.4479 15.7423L13.0047 18.4147C13.2212 18.7994 13.1668 19.3152 12.7436 19.5841L12.6939 19.6157L12.3539 19.6885L12.3197 19.6886C12.0153 19.6895 11.7373 19.5253 11.5861 19.2639L10.5374 17.4674L9.41543 19.5716L9.41267 19.5763C9.31216 19.7505 9.15545 19.8815 8.97215 19.9495C8.69956 19.9216 8.43022 19.8828 8.16456 19.8335C7.85101 19.5762 7.7219 19.1237 7.94585 18.7305L9.07681 16.6512H7.08541C6.85594 16.6512 6.64186 16.5688 6.4862 16.4046C6.3321 16.2421 6.25974 16.0256 6.25974 15.7992C6.25974 15.5725 6.33318 15.3565 6.48729 15.1947C6.64276 15.0315 6.85638 14.9489 7.08541 14.9489H9.97889L12.1682 10.8911H7.77948L6.31988 13.6104L6.31186 13.6226C6.15483 13.8614 5.89593 14.0148 5.6094 14.0327L5.56535 14.0355L5.21328 13.9625L5.16186 13.9292C4.79018 13.6891 4.60939 13.1925 4.85548 12.7614L5.88368 10.8927H3.59603C3.36697 10.8927 3.1532 10.8101 2.99766 10.6464C2.84354 10.4842 2.77036 10.2678 2.77036 10.0407C2.77036 9.81365 2.84354 9.59723 2.99766 9.43505C3.1532 9.27139 3.36697 9.18878 3.59603 9.18878H5.88368L4.84343 7.29819L4.83548 7.27755C4.69667 6.9176 4.74502 6.4171 5.16393 6.15091L5.18712 6.13617L5.21245 6.12549C5.57634 5.97213 6.07157 6.03617 6.32246 6.47447L6.32686 6.48217L7.78101 9.19039H12.2187L10.0308 5.1326H7.08541C6.85594 5.1326 6.64186 5.05022 6.4862 4.88606C6.3321 4.72354 6.25974 4.50703 6.25974 4.28064C6.25974 4.05348 6.33298 3.83716 6.48754 3.67524C6.64339 3.51197 6.85713 3.4303 7.08541 3.4303H9.08214L7.9449 1.29604C7.71356 0.88622 7.86173 0.412025 8.20612 0.162291Z" fill="#256BAB"/>
<path d="M19.9756 9.28892L19.3516 9.19039L19.8498 8.26182C19.9089 8.59862 19.9511 8.94142 19.9756 9.28892Z" fill="#256BAB"/>
</g>
<defs>
<clipPath id="clip0_1823_909">
<rect width="20" height="20" fill="white"/>
</clipPath>
</defs>
</svg>
