<svg width="20" height="20" viewBox="0 0 20 20" fill="none" xmlns="http://www.w3.org/2000/svg">
<g clip-path="url(#clip0_1823_969)">
<path d="M10 0C15.5228 0 20 4.47715 20 10C20 15.5228 15.5228 20 10 20C4.47715 20 0 15.5228 0 10C0 4.47715 4.47715 0 10 0Z" fill="black"/>
<path fill-rule="evenodd" clip-rule="evenodd" d="M6.22421 5.01177L6.33983 4.95862C7.67157 4.3465 9.19212 4.28822 10.5669 4.79662C11.9416 5.30501 13.0579 6.33841 13.6701 7.66942L13.6729 7.67728C14.2846 9.00885 14.342 10.5288 13.8322 11.9026C13.3225 13.2764 12.2875 14.3916 10.955 15.0027C8.20592 16.2433 4.96914 15.054 3.67899 12.3293C2.38883 9.60464 3.5211 6.34937 6.22421 5.01177ZM7.19749 12.1582C7.83531 12.9978 9.01431 13.0901 10.0437 12.3088C11.0716 11.5284 11.2959 10.366 10.6603 9.527C10.2033 8.93215 9.5229 8.79738 8.83842 8.97967C9.0238 8.57558 8.96652 8.10171 8.69019 7.75336C8.23899 7.16469 7.31023 6.99454 6.48228 7.62627C5.64568 8.25359 5.5661 9.19775 6.01448 9.78818C6.27477 10.1444 6.71108 10.3271 7.14772 10.2629C6.79523 10.8686 6.74151 11.5588 7.19749 12.1582ZM8.04802 11.3768C7.71055 10.9352 7.77919 10.3694 8.27921 9.98995C8.77675 9.61593 9.34206 9.69883 9.67812 10.1413C10.0133 10.5824 9.95528 11.1651 9.45773 11.5391C8.96036 11.9229 8.38727 11.8213 8.04802 11.3768ZM7.75263 9.29748C8.03497 9.08554 8.06414 8.74886 7.85419 8.47324C7.64601 8.20045 7.32446 8.15186 7.04212 8.36379C6.75889 8.57431 6.72442 8.90252 6.92659 9.17514C7.14025 9.45041 7.46781 9.51489 7.75263 9.29748Z" fill="white"/>
</g>
<defs>
<clipPath id="clip0_1823_969">
<rect width="20" height="20" fill="white"/>
</clipPath>
</defs>
</svg>
