<svg width="20" height="20" viewBox="0 0 20 20" fill="none" xmlns="http://www.w3.org/2000/svg">
<g clip-path="url(#clip0_1823_992)">
<path d="M10 0C15.5228 0 20 4.47715 20 10C20 15.5228 15.5228 20 10 20C4.47715 20 0 15.5228 0 10C0 4.47715 4.47715 0 10 0Z" fill="#256BAB"/>
<path fill-rule="evenodd" clip-rule="evenodd" d="M11.9767 19.8046C11.3377 19.9327 10.6767 20 10 20C7.60166 20 5.40052 19.1557 3.67759 17.7481L12.6162 2.40541C12.774 2.13454 13.1894 2.26226 13.1678 2.575L11.9767 19.8046ZM17.915 16.1125C16.752 17.6162 15.1701 18.7794 13.3441 19.4271C13.3118 19.3758 13.2945 19.3137 13.2999 19.2455L14.1366 8.59792C14.1609 8.28847 14.5843 8.21996 14.705 8.50593L17.915 16.1125Z" fill="#84D9FF"/>
</g>
<defs>
<clipPath id="clip0_1823_992">
<rect width="20" height="20" fill="white"/>
</clipPath>
</defs>
</svg>
