<svg width="20" height="20" viewBox="0 0 20 20" fill="none" xmlns="http://www.w3.org/2000/svg">
<g clip-path="url(#clip0_1823_941)">
<path d="M20 10C20 15.5228 15.5228 20 10 20C4.47715 20 0 15.5228 0 10C0 4.47715 4.47715 0 10 0C15.5228 0 20 4.47715 20 10Z" fill="#FFCE0D"/>
<path d="M7.67334 19.7279C7.14594 19.6022 6.63474 19.4348 6.14343 19.2293C7.23435 17.5399 9.06819 16.2852 11.0252 15.7274C13.146 15.1229 15.5315 15.3002 17.4607 16.6589C17.1095 17.0521 16.7276 17.4174 16.3189 17.751C14.8571 16.8416 13.0963 16.7368 11.4469 17.207C9.9032 17.647 8.54571 18.5638 7.67334 19.7279Z" fill="white"/>
<path d="M19.8427 11.7766C18.2082 12.3934 16.3242 12.4613 14.6205 12.0336C11.5688 11.2676 8.84623 8.85402 8.84623 4.83497C8.84623 2.53259 8.48457 1.12503 7.90853 0.219081C8.4401 0.105967 8.9873 0.0350907 9.54645 0.0101318C10.1169 1.21135 10.3847 2.78221 10.3847 4.83497C10.3847 7.99803 12.4698 9.90759 14.995 10.5415C16.7422 10.98 18.5866 10.7812 20 10.0149C19.9991 10.616 19.9452 11.2047 19.8427 11.7766Z" fill="white"/>
</g>
<defs>
<clipPath id="clip0_1823_941">
<rect width="20" height="20" fill="white"/>
</clipPath>
</defs>
</svg>
