<svg width="20" height="20" viewBox="0 0 20 20" fill="none" xmlns="http://www.w3.org/2000/svg">
<g clip-path="url(#clip0_1823_1180)">
<path d="M10.0006 -0.00158691C15.5235 -0.00158691 20.0006 4.47557 20.0006 9.99841C20.0006 15.5213 15.5235 19.9984 10.0006 19.9984C4.47776 19.9984 0.000610352 15.5213 0.000610352 9.99841C0.000610352 4.47557 4.47776 -0.00158691 10.0006 -0.00158691Z" fill="#FFCE0D"/>
<path fill-rule="evenodd" clip-rule="evenodd" d="M8.48712 16.2197C6.3727 16.2197 4.65862 14.5056 4.65862 12.3912C4.65862 10.2768 6.3727 8.56267 8.48712 8.56267C10.6015 8.56267 12.3156 10.2768 12.3156 12.3912C12.3156 14.5056 10.6015 16.2197 8.48712 16.2197ZM8.48712 17.8798C5.45583 17.8798 2.99848 15.4225 2.99848 12.3912C2.99848 9.35988 5.45583 6.90253 8.48712 6.90253C11.5184 6.90253 13.9758 9.35988 13.9758 12.3912C13.9758 15.4225 11.5184 17.8798 8.48712 17.8798Z" fill="black"/>
<path fill-rule="evenodd" clip-rule="evenodd" d="M18.4781 4.69196H11.6993C10.8085 4.69196 10.37 5.7758 11.0102 6.3952L17.1956 12.3793C17.6079 12.7782 18.1591 13.0012 18.7328 13.0012H19.542C19.7103 12.4658 19.8348 11.911 19.9113 11.341H18.7328C18.5899 11.341 18.4526 11.2855 18.35 11.1861L13.3533 6.3521H19.315C19.087 5.77017 18.8061 5.21481 18.4781 4.69196Z" fill="#C20000"/>
<path fill-rule="evenodd" clip-rule="evenodd" d="M19.1126 5.87277C19.4782 6.67906 19.74 7.54249 19.8808 8.44596L18.6268 11.6193C18.4584 12.0456 17.9762 12.2547 17.5498 12.0862C17.1234 11.9177 16.9144 11.4355 17.0829 11.0092L19.1126 5.87277Z" fill="#C20000"/>
<path fill-rule="evenodd" clip-rule="evenodd" d="M12.976 3.16717C12.976 2.70873 12.6044 2.3371 12.1459 2.3371L8.89339 2.3371L8.84292 2.3433C7.69359 2.48464 6.96469 3.34927 6.94545 4.30837C6.93603 4.77791 7.10125 5.25549 7.45506 5.62636C7.81204 6.00057 8.31146 6.21578 8.88509 6.25676C9.34236 6.28942 9.73953 5.94521 9.77219 5.48794C9.80486 5.03066 9.46064 4.63349 9.00337 4.60083C8.77657 4.58463 8.68626 4.51186 8.65627 4.48042C8.6231 4.44565 8.60409 4.39993 8.60526 4.34167C8.60647 4.28119 8.63052 4.20976 8.68857 4.14707C8.73805 4.09364 8.83163 4.02631 9.00298 3.99724L12.1459 3.99724C12.6044 3.99724 12.976 3.62561 12.976 3.16717Z" fill="#C20000"/>
<path fill-rule="evenodd" clip-rule="evenodd" d="M12.2124 2.63422C11.7859 2.46611 11.3038 2.67558 11.1357 3.10208L7.62803 12.0013C7.45992 12.4278 7.66939 12.9098 8.09589 13.0779C8.52239 13.246 9.00442 13.0365 9.17253 12.61L12.6802 3.71086C12.8483 3.28436 12.6389 2.80233 12.2124 2.63422Z" fill="#C20000"/>
</g>
<defs>
<clipPath id="clip0_1823_1180">
<rect width="20" height="20" fill="white"/>
</clipPath>
</defs>
</svg>
