<svg width="20" height="20" viewBox="0 0 20 20" fill="none" xmlns="http://www.w3.org/2000/svg">
<g clip-path="url(#clip0_1823_1265)">
<path fill-rule="evenodd" clip-rule="evenodd" d="M9.99999 20C15.5239 20 20.0019 15.5228 20.0019 10C20.0019 4.47715 15.5239 0 9.99999 0C4.4761 0 -0.00189209 4.47715 -0.00189209 10C-0.00189209 15.5228 4.4761 20 9.99999 20Z" fill="white"/>
<path fill-rule="evenodd" clip-rule="evenodd" d="M9.99999 19.0015C14.9726 19.0015 19.0033 14.9712 19.0033 10C19.0033 5.0288 14.9726 0.998528 9.99999 0.998528C5.0274 0.998528 0.996636 5.0288 0.996636 10C0.996636 14.9712 5.0274 19.0015 9.99999 19.0015ZM20.0019 10C20.0019 15.5228 15.5239 20 9.99999 20C4.4761 20 -0.00189209 15.5228 -0.00189209 10C-0.00189209 4.47715 4.4761 0 9.99999 0C15.5239 0 20.0019 4.47715 20.0019 10Z" fill="#B8CBCF"/>
<path d="M1.19073 14.7409C1.71121 13.5303 1.99948 12.1964 1.99948 10.7951C1.99948 9.07964 1.56744 7.46505 0.806213 6.05418C0.994058 5.61728 1.21215 5.19644 1.45785 4.79431C2.56084 6.5289 3.19972 8.58741 3.19972 10.7951C3.19972 12.6493 2.74905 14.3983 1.95126 15.9385C1.67064 15.559 1.41624 15.1589 1.19073 14.7409Z" fill="#B8CBCF"/>
<path d="M14.9378 1.30222C12.074 2.4322 10.0006 5.33198 10.0006 8.79513C10.0006 13.1703 13.3099 16.6463 17.3413 16.7905C16.9792 17.1818 16.5861 17.544 16.1661 17.8734C11.9881 17.1568 8.80032 13.3651 8.80032 8.79513C8.80032 5.25175 10.7168 2.17624 13.5253 0.639282C14.0157 0.824018 14.4876 1.04616 14.9378 1.30222Z" fill="#B8CBCF"/>
<path fill-rule="evenodd" clip-rule="evenodd" d="M0.866027 7.89596C0.68218 7.62024 0.756699 7.24772 1.03247 7.06391L2.43428 6.12954C2.71005 5.94573 3.08265 6.02023 3.26649 6.29595C3.45034 6.57167 3.37582 6.94419 3.10005 7.12801L1.69824 8.06237C1.42247 8.24619 1.04987 8.17168 0.866027 7.89596Z" fill="#DF5252"/>
<path fill-rule="evenodd" clip-rule="evenodd" d="M1.59909 10.1953C1.59909 9.86391 1.86777 9.59528 2.19921 9.59528H3.39944C3.73088 9.59528 3.99956 9.86391 3.99956 10.1953C3.99956 10.5267 3.73088 10.7953 3.39944 10.7953H2.19921C1.86777 10.7953 1.59909 10.5267 1.59909 10.1953Z" fill="#DF5252"/>
<path fill-rule="evenodd" clip-rule="evenodd" d="M1.53146 12.6959C1.71531 12.4202 2.08791 12.3457 2.36368 12.5295L3.76549 13.4639C4.04126 13.6477 4.11578 14.0202 3.93193 14.296C3.74808 14.5717 3.37549 14.6462 3.09972 14.4624L1.69791 13.528C1.42214 13.3442 1.34762 12.9717 1.53146 12.6959Z" fill="#DF5252"/>
<path fill-rule="evenodd" clip-rule="evenodd" d="M11.6255 1.57093C11.8599 1.33662 12.2399 1.33662 12.4742 1.57093L13.2259 2.32241C13.4602 2.55673 13.4602 2.93663 13.2259 3.17094C12.9915 3.40526 12.6115 3.40526 12.3772 3.17094L11.6255 2.41947C11.3912 2.18515 11.3912 1.80525 11.6255 1.57093Z" fill="#DF5252"/>
<path fill-rule="evenodd" clip-rule="evenodd" d="M7.59982 8.595C7.59982 8.26363 7.8685 7.995 8.19994 7.995L10.2003 7.995C10.5318 7.995 10.8004 8.26363 10.8004 8.595C10.8004 8.92637 10.5318 9.195 10.2003 9.195H8.19994C7.8685 9.195 7.59982 8.92637 7.59982 8.595Z" fill="#DF5252"/>
<path fill-rule="evenodd" clip-rule="evenodd" d="M9.13355 3.89566C9.31739 3.61994 9.68999 3.54543 9.96576 3.72925L11.3676 4.66361C11.6433 4.84742 11.7179 5.21995 11.534 5.49567C11.3502 5.77138 10.9776 5.84589 10.7018 5.66208L9.29999 4.72771C9.02422 4.5439 8.9497 4.17138 9.13355 3.89566Z" fill="#DF5252"/>
<path fill-rule="evenodd" clip-rule="evenodd" d="M8.90303 13.874C8.73859 13.5863 8.83857 13.2198 9.12633 13.0554L10.8848 12.0508C11.1725 11.8864 11.5391 11.9863 11.7036 12.274C11.868 12.5617 11.768 12.9283 11.4803 13.0927L9.72182 14.0973C9.43405 14.2617 9.06746 14.1617 8.90303 13.874Z" fill="#DF5252"/>
<path fill-rule="evenodd" clip-rule="evenodd" d="M12.0167 17.1338C11.8045 16.8793 11.8389 16.5009 12.0935 16.2888L13.5719 15.057C13.8265 14.8449 14.2049 14.8793 14.4171 15.1338C14.6293 15.3884 14.5949 15.7667 14.3403 15.9789L12.8619 17.2107C12.6073 17.4228 12.2288 17.3884 12.0167 17.1338Z" fill="#DF5252"/>
</g>
<defs>
<clipPath id="clip0_1823_1265">
<rect width="20" height="20" fill="white"/>
</clipPath>
</defs>
</svg>
