<svg width="20" height="20" viewBox="0 0 20 20" fill="none" xmlns="http://www.w3.org/2000/svg">
<g clip-path="url(#clip0_1823_1021)">
<path d="M10.0006 0.00170898C15.5235 0.00170898 20.0006 4.47886 20.0006 10.0017C20.0006 15.5246 15.5235 20.0017 10.0006 20.0017C4.47776 20.0017 0.000610352 15.5246 0.000610352 10.0017C0.000610352 4.47886 4.47776 0.00170898 10.0006 0.00170898Z" fill="#FFCE0D"/>
<path d="M3.45172 2.45394C3.6539 2.59856 3.85651 2.74276 4.05912 2.88651C4.55438 3.24505 4.95008 3.83048 4.90722 4.46311C4.86669 4.83346 4.68891 5.1557 4.51141 5.47744L4.51141 5.47744L4.5114 5.47745C4.42534 5.63344 4.33934 5.78932 4.26909 5.9505L4.22773 5.93531C3.98555 5.84607 3.71471 5.74627 3.46903 5.87732C3.111 6.02714 2.9703 6.51428 3.1898 6.83384C3.31108 7.04406 3.54738 7.11761 3.76642 7.1858L3.8288 7.20537C3.55952 8.33033 3.59805 9.53107 3.97772 10.6266C4.1154 11.041 4.30026 11.4385 4.51282 11.8195C4.46445 11.8576 4.41228 11.894 4.35961 11.9306C4.17237 12.061 3.97886 12.1957 3.92751 12.4309C3.80932 12.815 4.11799 13.2446 4.51715 13.2632C4.76684 13.2906 4.96468 13.1413 5.15435 12.9982C5.19851 12.9649 5.24221 12.932 5.28603 12.9016C5.54276 13.2541 5.88001 13.5369 6.22505 13.7988C7.12511 14.4735 8.21002 14.8848 9.32438 15.0169L9.32333 15.0611C9.31726 15.3067 9.31058 15.5774 9.49062 15.7673C9.74475 16.0808 10.2786 16.063 10.5132 15.7357C10.6645 15.5571 10.659 15.3184 10.6539 15.0967L10.6526 15.0333C11.944 14.9164 13.2038 14.412 14.1909 13.5659C14.4091 13.3818 14.6156 13.1822 14.7845 12.951L14.8331 12.9877C15.0327 13.139 15.2521 13.3054 15.5174 13.2597C15.9144 13.2221 16.1984 12.7804 16.0655 12.4032C16.0082 12.185 15.8232 12.0558 15.6472 11.9329C15.6171 11.912 15.5874 11.8912 15.5585 11.8702C16.1187 10.8838 16.4374 9.75147 16.4032 8.61352C16.3937 8.13461 16.3214 7.65916 16.2084 7.19454L16.2353 7.18611C16.4522 7.11844 16.69 7.04424 16.8106 6.83514C17.0383 6.50389 16.8777 5.9964 16.4976 5.86217C16.2693 5.75754 16.0289 5.84442 15.8077 5.92438L15.7495 5.9453C15.6811 5.79533 15.596 5.65175 15.5108 5.50814C15.3403 5.22052 15.1696 4.93279 15.1338 4.59344C15.0438 4.02923 15.3217 3.48191 15.6884 3.07141C15.7683 2.98821 15.8485 2.90535 15.9288 2.82247L15.9288 2.82242C16.0891 2.65691 16.2495 2.49134 16.4069 2.32288L15.3225 1.53723C15.2129 1.66727 15.0909 1.78554 14.9689 1.90379C14.8273 2.04107 14.6857 2.17835 14.5636 2.33397C14.1887 2.79816 13.909 3.34981 13.8172 3.94304C13.7445 4.41892 13.8043 4.91038 13.9553 5.36548C14.0341 5.60906 14.1618 5.82965 14.2894 6.05014C14.3512 6.15695 14.413 6.26373 14.4692 6.3731C14.2277 6.43415 13.9913 6.58224 13.9082 6.82862C13.7726 7.16551 13.977 7.58033 14.3216 7.68598C14.5298 7.76393 14.7485 7.69031 14.9467 7.6193C15.2264 8.78107 15.0437 10.032 14.4783 11.0817C14.2805 10.9097 14.0017 10.8093 13.7454 10.9063C13.4094 11.0111 13.2172 11.4116 13.3358 11.7416C13.3904 11.9356 13.5536 12.0646 13.7138 12.1715C12.9371 13.0458 11.8007 13.5407 10.6556 13.694C10.6612 13.4901 10.6504 13.2675 10.5101 13.1047C10.2936 12.8128 9.83171 12.7639 9.56113 13.0073C9.35722 13.1679 9.30483 13.4398 9.32215 13.6858C8.2013 13.5156 7.11379 12.9843 6.36093 12.1261C6.57436 11.9832 6.72718 11.7377 6.69688 11.474C6.67956 11.1548 6.39773 10.8864 6.08126 10.8716C5.90202 10.8522 5.73362 10.9284 5.59032 11.028C5.0353 9.99869 4.84222 8.77804 5.08899 7.63186C5.29246 7.70807 5.52495 7.76479 5.73188 7.66607C6.06091 7.534 6.23105 7.11614 6.07909 6.79398C5.98991 6.56579 5.76565 6.43545 5.53966 6.37569C5.58838 6.2815 5.63911 6.18805 5.68988 6.09454L5.68989 6.09453C5.86201 5.77749 6.03456 5.45966 6.13018 5.10957C6.32803 4.47564 6.25529 3.77416 5.97476 3.17661C5.67462 2.52517 5.16149 1.98997 4.55664 1.61202L3.45172 2.45394Z" fill="#5B1C1C"/>
</g>
<defs>
<clipPath id="clip0_1823_1021">
<rect width="20" height="20" fill="white"/>
</clipPath>
</defs>
</svg>
