<svg width="20" height="20" viewBox="0 0 20 20" fill="none" xmlns="http://www.w3.org/2000/svg">
<g clip-path="url(#clip0_1823_969)">
<path d="M10 0C15.5228 0 20 4.47715 20 10C20 15.5228 15.5228 20 10 20C4.47715 20 0 15.5228 0 10C0 4.47715 4.47715 0 10 0Z" fill="black"/>
<path fill-rule="evenodd" clip-rule="evenodd" d="M6.22422 5.01177L6.33984 4.95862C7.67159 4.3465 9.19213 4.28822 10.5669 4.79662C11.9416 5.30501 13.0579 6.33841 13.6701 7.66942L13.6729 7.67728C14.2846 9.00885 14.342 10.5288 13.8323 11.9026C13.3225 13.2764 12.2875 14.3916 10.955 15.0027C8.20594 16.2433 4.96916 15.054 3.679 12.3293C2.38885 9.60464 3.52111 6.34937 6.22422 5.01177ZM7.19751 12.1582C7.83532 12.9978 9.01432 13.0901 10.0437 12.3088C11.0716 11.5284 11.2959 10.366 10.6604 9.527C10.2033 8.93215 9.52291 8.79738 8.83844 8.97967C9.02382 8.57558 8.96654 8.10171 8.69021 7.75336C8.239 7.16469 7.31024 6.99454 6.4823 7.62627C5.64569 8.25359 5.56611 9.19775 6.01449 9.78818C6.27479 10.1444 6.7111 10.3271 7.14774 10.2629C6.79525 10.8686 6.74152 11.5588 7.19751 12.1582ZM8.04804 11.3768C7.71056 10.9352 7.7792 10.3694 8.27922 9.98995C8.77677 9.61593 9.34207 9.69883 9.67814 10.1413C10.0133 10.5824 9.95529 11.1651 9.45774 11.5391C8.96038 11.9229 8.38729 11.8213 8.04804 11.3768ZM7.75265 9.29748C8.03499 9.08554 8.06416 8.74886 7.8542 8.47324C7.64602 8.20045 7.32448 8.15186 7.04214 8.36379C6.75891 8.57431 6.72444 8.90252 6.92661 9.17514C7.14027 9.45041 7.46783 9.51489 7.75265 9.29748Z" fill="white"/>
</g>
<defs>
<clipPath id="clip0_1823_969">
<rect width="20" height="20" fill="white"/>
</clipPath>
</defs>
</svg>
