<svg width="20" height="20" viewBox="0 0 20 20" fill="none" xmlns="http://www.w3.org/2000/svg">
<g clip-path="url(#clip0_1823_1134)">
<path d="M10.0006 0.00170898C15.5235 0.00170898 20.0006 4.47886 20.0006 10.0017C20.0006 15.5246 15.5235 20.0017 10.0006 20.0017C4.47776 20.0017 0.000610352 15.5246 0.000610352 10.0017C0.000610352 4.47886 4.47776 0.00170898 10.0006 0.00170898Z" fill="#20406B"/>
<path d="M13.0736 16.0914C12.8627 16.3039 12.5209 16.3039 12.31 16.0914L11.9124 15.6907C10.9809 14.7521 10.8794 13.2938 11.6078 12.242L3.45013 4.02162C3.26564 3.83572 3.26564 3.53431 3.45013 3.34841C3.63461 3.16251 3.93372 3.16251 4.1182 3.34841L12.2759 11.5688C13.3198 10.835 14.7668 10.9373 15.6981 11.8759L16.0958 12.2766C16.3066 12.4891 16.3066 12.8335 16.0958 13.046L13.0736 16.0914Z" fill="white"/>
<path d="M15.2979 16.5429C14.9655 16.8779 14.4267 16.8779 14.0943 16.5429L13.8053 16.2518L16.2549 13.7833L16.5439 14.0745C16.8763 14.4094 16.8763 14.9524 16.5439 15.2873L15.2979 16.5429Z" fill="white"/>
<path d="M3.90516 12.2767C3.69432 12.4892 3.69432 12.8337 3.90516 13.0461L6.92741 16.0916C7.13825 16.304 7.48009 16.304 7.69093 16.0916L8.08859 15.6909C9.02002 14.7523 9.12158 13.2941 8.39325 12.2422L9.36996 11.258L8.70188 10.5848L7.72518 11.569C6.68131 10.8351 5.23425 10.9374 4.30282 11.876L3.90516 12.2767Z" fill="white"/>
<path d="M10.9462 8.32328L11.6143 8.99648L16.5509 4.02195C16.7354 3.83605 16.7354 3.53464 16.5509 3.34874C16.3664 3.16284 16.0673 3.16284 15.8828 3.34874L10.9462 8.32328Z" fill="white"/>
<path d="M3.45713 14.0747C3.12476 14.4096 3.12477 14.9526 3.45713 15.2875L4.70316 16.5431C5.03552 16.878 5.57438 16.878 5.90674 16.5431L6.19572 16.2519L3.7461 13.7835L3.45713 14.0747Z" fill="white"/>
</g>
<defs>
<clipPath id="clip0_1823_1134">
<rect width="20" height="20" fill="white"/>
</clipPath>
</defs>
</svg>
