<svg width="20" height="20" viewBox="0 0 20 20" fill="none" xmlns="http://www.w3.org/2000/svg">
<g clip-path="url(#clip0_1823_1243)">
<path d="M10 0C15.5228 0 20 4.47715 20 10C20 15.5228 15.5228 20 10 20C4.47715 20 0 15.5228 0 10C0 4.47715 4.47715 0 10 0Z" fill="#84D9FF"/>
<path d="M19.9563 10.9412C19.4819 16.0227 15.2054 20 9.99999 20C5.15474 20 1.11433 16.5541 0.195831 11.9792C4.51703 11.1672 11.2647 10.4934 19.9563 10.9412Z" fill="#FFCE0D"/>
<path d="M12.9359 0.437927C17.0261 1.69225 20 5.49883 20 10C20 14.5012 17.0261 18.3077 12.936 19.5621C7.95123 19.2222 4.01306 15.071 4.01306 10C4.01306 4.929 7.95119 0.777812 12.9359 0.437927Z" fill="#FFCE0D"/>
<path d="M16.593 11.6499C16.1327 12.4662 15.5536 13.1787 14.9002 13.8317C12.9846 15.7167 10.6978 16.7854 8.02488 17.0971C7.6982 17.1416 7.44575 17.0525 7.19331 16.8299C6.40629 16.1472 5.72321 15.3902 5.21833 14.47C5.05499 14.1731 5.09954 14.0989 5.44107 14.0395C8.24763 13.5943 10.6829 12.4069 12.7619 10.4922C12.9549 10.3141 13.1331 10.1953 13.3855 10.2992C14.3656 10.6851 15.3457 11.071 16.3257 11.4718C16.4297 11.5015 16.5039 11.5757 16.593 11.6499Z" fill="white"/>
<path fill-rule="evenodd" clip-rule="evenodd" d="M19.7276 7.67196C19.9057 8.41896 20 9.19847 20 10C20 10.8527 19.8933 11.6805 19.6924 12.4707C19.5858 12.3691 19.4785 12.2685 19.37 12.1691C17.8257 10.7888 16.0438 9.79433 14.0391 9.26001C13.5639 9.12642 13.3263 8.90379 13.2966 8.44367C13.2372 7.43439 13.2075 6.42511 13.1778 5.41583L13.1778 5.41581C13.163 5.07444 13.3263 4.94086 13.6678 5.04475C13.9489 5.13706 14.231 5.22611 14.5131 5.31513C15.2742 5.55534 16.0346 5.79535 16.7714 6.09857C17.8143 6.52461 18.7963 7.05584 19.7276 7.67196Z" fill="white"/>
<path d="M7.92148 6.70725C8.02542 5.31206 8.11452 4.13951 8.54516 3.01149C8.58971 2.90759 8.57486 2.78885 8.60455 2.68495C8.7382 2.31389 8.93124 2.0022 9.33218 1.85377C10.3419 1.45303 11.3814 1.14134 12.4803 1.11165C12.8961 1.09681 12.9406 1.15618 12.7921 1.57177C12.1536 3.33802 11.8566 5.16364 11.9605 7.04863C11.9902 7.7017 12.109 8.33992 12.1981 8.99299C12.2427 9.26015 12.1981 9.46795 11.9605 9.63121C11.1587 10.2101 10.3568 10.8038 9.55492 11.3975C9.28763 11.5904 9.12429 11.5162 9.02034 11.2342C8.7679 10.5366 8.45606 9.83901 8.29272 9.11173C8.11452 8.26571 7.92148 7.50512 7.92148 6.70725Z" fill="white"/>
<path fill-rule="evenodd" clip-rule="evenodd" d="M19.2556 13.793C18.4277 15.811 16.959 17.4984 15.1027 18.602C14.8108 18.6766 14.5108 18.739 14.2028 18.7891C12.703 19.0266 11.2626 18.8336 9.85185 18.3438C9.77814 18.3162 9.71014 18.2771 9.64077 18.2373C9.59834 18.2129 9.5554 18.1882 9.51031 18.1657V18.0767C9.57466 18.0569 9.63901 18.0354 9.70336 18.014C9.83205 17.9711 9.96075 17.9282 10.0894 17.8985C12.6436 17.2158 14.7819 15.8651 16.4896 13.8317C16.8163 13.4458 17.1132 13.0451 17.3805 12.6146C17.5736 12.3178 17.7518 12.2881 17.9894 12.5404C18.4114 12.9623 18.8335 13.3787 19.2556 13.793Z" fill="#256BAB"/>
<path d="M7.13433 3.41218C7.11948 3.54577 7.13433 3.67935 7.10463 3.79809C6.74824 5.3417 6.70369 6.88531 6.95613 8.45861C7.14918 9.63117 7.50556 10.7443 7.9956 11.813C8.11439 12.0653 8.01045 12.1692 7.80255 12.2137C6.86704 12.4512 5.91667 12.6739 4.98115 12.8965C4.60992 12.9856 4.43172 12.7926 4.35747 12.4661C3.98624 11.0412 3.88229 9.61632 4.20898 8.16176C4.60992 6.38067 5.44149 4.86674 6.74824 3.60513C6.83734 3.51608 6.94128 3.44187 7.04523 3.35281C7.06008 3.3825 7.10463 3.39734 7.13433 3.41218Z" fill="#256BAB"/>
<path fill-rule="evenodd" clip-rule="evenodd" d="M15.0557 1.3703C16.8612 2.4303 18.3045 4.0407 19.1552 5.97103C17.4966 5.02766 15.7274 4.34696 13.861 3.90211C13.5046 3.81306 13.4155 3.64979 13.5046 3.32326L13.5046 3.32325C13.6977 2.71472 13.8907 2.10618 14.0986 1.51248C14.1728 1.26016 14.351 1.21563 14.5886 1.26016C14.7465 1.29385 14.9022 1.33055 15.0557 1.3703Z" fill="#256BAB"/>
</g>
<defs>
<clipPath id="clip0_1823_1243">
<rect width="20" height="20" fill="white"/>
</clipPath>
</defs>
</svg>
