<svg width="20" height="20" viewBox="0 0 20 20" fill="none" xmlns="http://www.w3.org/2000/svg">
<g clip-path="url(#clip0_1823_1265)">
<path fill-rule="evenodd" clip-rule="evenodd" d="M10 20C15.5239 20 20.0019 15.5228 20.0019 10C20.0019 4.47715 15.5239 0 10 0C4.47611 0 -0.00188446 4.47715 -0.00188446 10C-0.00188446 15.5228 4.47611 20 10 20Z" fill="white"/>
<path fill-rule="evenodd" clip-rule="evenodd" d="M10 19.0015C14.9726 19.0015 19.0034 14.9712 19.0034 10C19.0034 5.0288 14.9726 0.998528 10 0.998528C5.02741 0.998528 0.996644 5.0288 0.996644 10C0.996644 14.9712 5.02741 19.0015 10 19.0015ZM20.0019 10C20.0019 15.5228 15.5239 20 10 20C4.47611 20 -0.00188446 15.5228 -0.00188446 10C-0.00188446 4.47715 4.47611 0 10 0C15.5239 0 20.0019 4.47715 20.0019 10Z" fill="#B8CBCF"/>
<path d="M1.19076 14.741C1.71124 13.5304 1.99951 12.1964 1.99951 10.7951C1.99951 9.07965 1.56747 7.46506 0.80624 6.0542C0.994085 5.61729 1.21218 5.19646 1.45788 4.79433C2.56087 6.52892 3.19975 8.58743 3.19975 10.7951C3.19975 12.6493 2.74908 14.3983 1.95129 15.9385C1.67067 15.559 1.41627 15.1589 1.19076 14.741Z" fill="#B8CBCF"/>
<path d="M14.9378 1.30224C12.074 2.43222 10.0006 5.33199 10.0006 8.79515C10.0006 13.1703 13.3099 16.6463 17.3413 16.7905C16.9792 17.1818 16.5862 17.544 16.1661 17.8734C11.9881 17.1568 8.80035 13.3651 8.80035 8.79515C8.80035 5.25177 10.7168 2.17625 13.5254 0.639297C14.0157 0.824033 14.4877 1.04617 14.9378 1.30224Z" fill="#B8CBCF"/>
<path fill-rule="evenodd" clip-rule="evenodd" d="M0.866057 7.89596C0.68221 7.62024 0.756729 7.24772 1.0325 7.06391L2.43431 6.12954C2.71008 5.94573 3.08268 6.02023 3.26652 6.29595C3.45037 6.57167 3.37585 6.94419 3.10008 7.12801L1.69827 8.06237C1.4225 8.24619 1.0499 8.17168 0.866057 7.89596Z" fill="#DF5252"/>
<path fill-rule="evenodd" clip-rule="evenodd" d="M1.59912 10.1953C1.59912 9.86391 1.8678 9.59528 2.19924 9.59528H3.39947C3.73091 9.59528 3.99959 9.86391 3.99959 10.1953C3.99959 10.5267 3.73091 10.7953 3.39947 10.7953H2.19924C1.8678 10.7953 1.59912 10.5267 1.59912 10.1953Z" fill="#DF5252"/>
<path fill-rule="evenodd" clip-rule="evenodd" d="M1.5315 12.6959C1.71534 12.4202 2.08794 12.3457 2.36371 12.5295L3.76552 13.4639C4.04129 13.6477 4.11581 14.0202 3.93196 14.296C3.74811 14.5717 3.37552 14.6462 3.09975 14.4624L1.69794 13.528C1.42217 13.3442 1.34765 12.9717 1.5315 12.6959Z" fill="#DF5252"/>
<path fill-rule="evenodd" clip-rule="evenodd" d="M11.6256 1.57093C11.8599 1.33662 12.2399 1.33662 12.4743 1.57093L13.2259 2.32241C13.4602 2.55673 13.4602 2.93663 13.2259 3.17094C12.9915 3.40526 12.6115 3.40526 12.3772 3.17094L11.6256 2.41947C11.3912 2.18515 11.3912 1.80525 11.6256 1.57093Z" fill="#DF5252"/>
<path fill-rule="evenodd" clip-rule="evenodd" d="M7.59983 8.59503C7.59983 8.26366 7.86851 7.99503 8.19995 7.99503L10.2003 7.99503C10.5318 7.99503 10.8005 8.26366 10.8005 8.59503C10.8005 8.9264 10.5318 9.19503 10.2003 9.19503H8.19995C7.86851 9.19503 7.59983 8.9264 7.59983 8.59503Z" fill="#DF5252"/>
<path fill-rule="evenodd" clip-rule="evenodd" d="M9.13358 3.89569C9.31743 3.61997 9.69002 3.54546 9.96579 3.72928L11.3676 4.66364C11.6434 4.84745 11.7179 5.21998 11.534 5.4957C11.3502 5.77142 10.9776 5.84592 10.7018 5.66211L9.30002 4.72774C9.02425 4.54393 8.94973 4.17141 9.13358 3.89569Z" fill="#DF5252"/>
<path fill-rule="evenodd" clip-rule="evenodd" d="M8.90306 13.8741C8.73862 13.5863 8.8386 13.2198 9.12637 13.0554L10.8848 12.0508C11.1726 11.8864 11.5392 11.9863 11.7036 12.274C11.868 12.5618 11.7681 12.9283 11.4803 13.0927L9.72185 14.0973C9.43408 14.2617 9.0675 14.1618 8.90306 13.8741Z" fill="#DF5252"/>
<path fill-rule="evenodd" clip-rule="evenodd" d="M12.0167 17.1338C11.8045 16.8793 11.8389 16.5009 12.0935 16.2888L13.5719 15.057C13.8266 14.8449 14.205 14.8793 14.4171 15.1338C14.6293 15.3884 14.5949 15.7667 14.3403 15.9789L12.8619 17.2107C12.6073 17.4228 12.2289 17.3884 12.0167 17.1338Z" fill="#DF5252"/>
</g>
<defs>
<clipPath id="clip0_1823_1265">
<rect width="20" height="20" fill="white"/>
</clipPath>
</defs>
</svg>
