<svg width="20" height="20" viewBox="0 0 20 20" fill="none" xmlns="http://www.w3.org/2000/svg">
<g clip-path="url(#clip0_1823_992)">
<path d="M10 0C15.5228 0 20 4.47715 20 10C20 15.5228 15.5228 20 10 20C4.47715 20 0 15.5228 0 10C0 4.47715 4.47715 0 10 0Z" fill="#256BAB"/>
<path fill-rule="evenodd" clip-rule="evenodd" d="M11.9767 19.8047C11.3377 19.9328 10.6767 20 9.99999 20C7.60166 20 5.40052 19.1557 3.67758 17.7481L12.6162 2.40548C12.774 2.13461 13.1894 2.26232 13.1678 2.57506L11.9767 19.8047ZM17.9149 16.1126C16.752 17.6162 15.1701 18.7794 13.3441 19.4272C13.3118 19.3759 13.2945 19.3138 13.2999 19.2455L14.1366 8.59798C14.1609 8.28854 14.5843 8.22002 14.705 8.506L17.9149 16.1126Z" fill="#84D9FF"/>
</g>
<defs>
<clipPath id="clip0_1823_992">
<rect width="20" height="20" fill="white"/>
</clipPath>
</defs>
</svg>
