<svg width="20" height="20" viewBox="0 0 20 20" fill="none" xmlns="http://www.w3.org/2000/svg">
<g clip-path="url(#clip0_1823_1347)">
<path fill-rule="evenodd" clip-rule="evenodd" d="M10 0C15.5225 0 20 4.47667 20 10C20 15.5225 15.5225 20 10 20C4.47667 20 0 15.5225 0 10C0 4.47667 4.47667 0 10 0Z" fill="#20406B"/>
<path d="M12.7367 17.9779C6.87197 17.9779 2.11765 13.2236 2.11765 7.35885C2.11765 5.79212 2.45694 4.30463 3.06607 2.96586C4.35417 2.41063 5.77408 2.10303 7.26583 2.10303C7.9933 2.10303 8.70368 2.17618 9.39002 2.31552C6.12364 3.13612 3.45801 5.46978 2.18164 8.52804C2.27899 9.41678 2.48602 10.2725 2.78889 11.0815C4.38123 7.18893 7.75106 4.21195 11.8893 3.15967C14.1129 4.2368 15.9041 6.06673 16.9316 8.31835C15.7493 12.4194 12.662 15.7131 8.68965 17.1794C9.55712 17.5373 10.4824 17.7836 11.4475 17.9004C14.553 16.5683 16.8953 13.7979 17.6363 10.4272C17.7991 11.1662 17.8849 11.9342 17.8849 12.7221C17.8849 14.2888 17.5456 15.7763 16.9365 17.1151C15.6484 17.6703 14.2285 17.9779 12.7367 17.9779Z" fill="white"/>
<path fill-rule="evenodd" clip-rule="evenodd" d="M13.5882 8.48476C13.3581 8.18357 13.0874 7.8611 12.778 7.53627L12.4973 7.79627L12.1329 7.40284L12.3987 7.15652C12.1346 6.90439 11.8475 6.65529 11.5384 6.41816L11.2849 6.75365L10.857 6.43029L11.104 6.10347C10.8668 5.94158 10.6183 5.78802 10.359 5.64615L10.7148 4.99597C11.0068 5.15573 11.2857 5.32892 11.5513 5.51154L11.7366 5.26635L12.1645 5.58971L11.9853 5.82685C12.3308 6.09166 12.6505 6.37017 12.9434 6.65193L13.2031 6.41135L13.5676 6.80478L13.3217 7.03253C13.6521 7.37998 13.9413 7.72521 14.1876 8.04879L14.4021 7.89284L14.7175 8.32658L14.5024 8.483C14.7491 8.84113 14.9332 9.15533 15.0516 9.39224L14.3887 9.72369C14.2853 9.51672 14.1223 9.23859 13.903 8.91897L13.5376 9.18468L13.2222 8.75094L13.5882 8.48476Z" fill="#DF5252"/>
</g>
<defs>
<clipPath id="clip0_1823_1347">
<rect width="20" height="20" fill="white"/>
</clipPath>
</defs>
</svg>
