<svg width="20" height="20" viewBox="0 0 20 20" fill="none" xmlns="http://www.w3.org/2000/svg">
<g clip-path="url(#clip0_1823_1235)">
<path d="M10 0C15.5228 0 20 4.47715 20 10C20 15.5228 15.5228 20 10 20C4.47715 20 0 15.5228 0 10C0 4.47715 4.47715 0 10 0Z" fill="#B8CBCF"/>
<path d="M17.5643 10.157C13.2815 13.1666 5.44886 19.0183 4.10663 13.3138C2.65174 7.13051 4.71591 5.06399 5.41042 5.29548L17.5643 4.94818V10.157Z" fill="white"/>
<path fill-rule="evenodd" clip-rule="evenodd" d="M18.7759 14.798C19.5563 13.3737 20 11.7387 20 9.99999C20 4.91712 16.2078 0.719964 11.2983 0.0834961C10.4452 0.195321 9.60596 0.425752 8.82663 0.789571C7.50215 1.41472 6.35014 2.39187 5.51704 3.58892C4.92851 4.42801 4.49243 5.36722 4.19396 6.34417H14.531C14.5557 6.34427 14.5804 6.34421 14.6052 6.34415C14.7274 6.34383 14.8499 6.34352 14.9709 6.36284C15.3923 6.42423 15.7817 6.66876 16.0211 7.01799C16.189 7.25875 16.2845 7.54798 16.2933 7.84059C16.3056 8.73093 16.0482 9.62365 15.5588 10.3706C14.9206 11.3594 13.8846 12.0887 12.7293 12.3499C12.3173 12.4496 11.891 12.4794 11.4678 12.4719C10.6254 12.4719 9.78301 12.4719 8.94062 12.4719C7.25582 12.472 5.57099 12.472 3.88608 12.4719C4.02429 13.3855 4.19797 14.2955 4.44776 15.186C4.55293 15.5487 4.6643 15.9117 4.82134 16.2563C5.10439 16.86 5.60678 17.3596 6.21693 17.6385C6.8309 17.9238 7.54962 17.9766 8.19944 17.7847C11.7249 16.7894 15.2504 15.7937 18.7759 14.798Z" fill="#256BAB"/>
<path d="M13.5913 8.03393C13.3396 7.99528 13.0731 8.06509 12.8749 8.22585C12.6717 8.38662 12.5419 8.63614 12.5286 8.89515C12.5129 9.13884 12.5999 9.38636 12.7636 9.56736C12.92 9.7427 13.1451 9.85516 13.3797 9.87193C13.6294 9.89307 13.8855 9.80595 14.0711 9.63771C14.255 9.47385 14.3688 9.23417 14.3773 8.98792C14.3888 8.74623 14.2997 8.50163 14.1351 8.32428C13.994 8.16917 13.7986 8.06491 13.5913 8.03393Z" fill="#DF5252"/>
</g>
<defs>
<clipPath id="clip0_1823_1235">
<rect width="20" height="20" fill="white"/>
</clipPath>
</defs>
</svg>
