<svg width="20" height="20" viewBox="0 0 20 20" fill="none" xmlns="http://www.w3.org/2000/svg">
<g clip-path="url(#clip0_1823_1218)">
<circle cx="10.0006" cy="9.974" r="8.42105" fill="white" stroke="black" stroke-width="3.15789"/>
<path fill-rule="evenodd" clip-rule="evenodd" d="M11.8546 19.8025C11.2538 19.9151 10.6341 19.974 10.0006 19.974C9.36711 19.974 8.74736 19.9151 8.14656 19.8025C7.92998 16.2675 7.79803 14.4763 6.64819 13.3258C5.49825 12.1753 3.70692 12.0425 0.171385 11.8239C0.0592497 11.2244 0.000610352 10.6061 0.000610352 9.974C0.000610352 9.67694 0.0135627 9.38291 0.0389336 9.09244C2.91861 7.26218 6.33581 6.20209 10.0006 6.20209C13.6654 6.20209 17.0826 7.26219 19.9623 9.09246C19.9877 9.38293 20.0006 9.67695 20.0006 9.974C20.0006 10.6061 19.942 11.2244 19.8298 11.8239C16.2943 12.0425 14.503 12.1753 13.353 13.3258C12.2032 14.4763 12.0712 16.2675 11.8546 19.8025ZM12.1937 9.97399C12.1937 11.1851 11.2118 12.167 10.0007 12.167C8.78955 12.167 7.80771 11.1851 7.80771 9.97399C7.80771 8.76284 8.78955 7.78101 10.0007 7.78101C11.2118 7.78101 12.1937 8.76284 12.1937 9.97399Z" fill="#20406B"/>
<path fill-rule="evenodd" clip-rule="evenodd" d="M10.0006 16.8161C13.7794 16.8161 16.8427 13.7528 16.8427 9.974C16.8427 6.19521 13.7794 3.13189 10.0006 3.13189C6.22182 3.13189 3.15851 6.19521 3.15851 9.974C3.15851 13.7528 6.22182 16.8161 10.0006 16.8161ZM10.0006 19.974C15.5235 19.974 20.0006 15.4968 20.0006 9.974C20.0006 4.45115 15.5235 -0.026001 10.0006 -0.026001C4.47776 -0.026001 0.000610352 4.45115 0.000610352 9.974C0.000610352 15.4968 4.47776 19.974 10.0006 19.974Z" fill="black"/>
</g>
<defs>
<clipPath id="clip0_1823_1218">
<rect width="20" height="20" fill="white"/>
</clipPath>
</defs>
</svg>
