<svg width="20" height="20" viewBox="0 0 20 20" fill="none" xmlns="http://www.w3.org/2000/svg">
<g clip-path="url(#clip0_1823_1129)">
<path d="M10 -1.13941e-08C15.5228 -1.76868e-08 20 4.47715 20 10C20 15.5228 15.5228 20 10 20C4.47715 20 1.76868e-08 15.5228 1.13941e-08 10C5.10129e-09 4.47715 4.47715 -5.10129e-09 10 -1.13941e-08Z" fill="#80BC3C"/>
<path d="M18.2047 4.28156C18.6222 4.87949 18.976 5.52518 19.2563 6.20881C17.0817 8.68142 14.4405 11.7314 13.5195 12.9564C12.2562 14.6368 11.1871 15.1572 10.8404 15.0773L3.56007 13.4001C2 13.0406 2.11981 12.5206 2.41932 11.2206C2.77873 9.66048 3.79838 8.80014 4.57842 8.97985C5.08894 9.09747 5.88853 9.39345 6.76524 9.71798C7.82912 10.1118 9.00658 10.5476 9.91887 10.7578C11.5829 11.1412 13.6516 9.60983 14.478 8.79623L18.2047 4.28156Z" fill="#F3DCCE"/>
<path d="M15.9214 7.04775L17.2127 5.48334L18.1125 7.51404C17.5062 8.20835 16.8932 8.91459 16.3153 9.58699L15.9156 9.40669L16.0965 9.84188C15.6206 10.3971 15.1729 10.9245 14.778 11.3972L13.907 9.30107C14.1324 9.11947 14.3262 8.94578 14.478 8.79631L15.6982 7.31807L16.1268 7.51144L15.9214 7.04775Z" fill="#20406B"/>
</g>
<defs>
<clipPath id="clip0_1823_1129">
<rect width="20" height="20" fill="white"/>
</clipPath>
</defs>
</svg>
