<svg width="20" height="20" viewBox="0 0 20 20" fill="none" xmlns="http://www.w3.org/2000/svg">
<g clip-path="url(#clip0_1823_1129)">
<path d="M10 3.05062e-05C15.5228 3.04999e-05 20 4.47718 20 10C20 15.5229 15.5228 20 10 20C4.47715 20 1.76868e-08 15.5229 1.13941e-08 10C5.10129e-09 4.47718 4.47715 3.05125e-05 10 3.05062e-05Z" fill="#80BC3C"/>
<path d="M18.2047 4.28159C18.6222 4.87952 18.976 5.52521 19.2563 6.20884C17.0817 8.68145 14.4405 11.7315 13.5195 12.9565C12.2562 14.6369 11.1871 15.1572 10.8404 15.0774L3.56007 13.4001C1.99999 13.0407 2.1198 12.5206 2.41931 11.2206C2.77873 9.66051 3.79837 8.80017 4.57841 8.97988C5.08893 9.0975 5.88852 9.39348 6.76523 9.71801C7.82912 10.1118 9.00657 10.5477 9.91886 10.7579C11.5829 11.1412 13.6516 9.60986 14.478 8.79626L18.2047 4.28159Z" fill="#F3DCCE"/>
<path d="M15.9213 7.04778L17.2127 5.48337L18.1124 7.51407C17.5062 8.20838 16.8932 8.91462 16.3153 9.58702L15.9156 9.40672L16.0965 9.84191C15.6205 10.3971 15.1729 10.9245 14.778 11.3973L13.907 9.30111C14.1324 9.11951 14.3262 8.94581 14.478 8.79634L15.6982 7.3181L16.1268 7.51147L15.9213 7.04778Z" fill="#20406B"/>
</g>
<defs>
<clipPath id="clip0_1823_1129">
<rect width="20" height="20" fill="white"/>
</clipPath>
</defs>
</svg>
