<svg width="20" height="20" viewBox="0 0 20 20" fill="none" xmlns="http://www.w3.org/2000/svg">
<g clip-path="url(#clip0_1823_1068)">
<path d="M10 -3.0529e-05C15.5228 -3.05353e-05 20 4.47712 20 9.99997C20 15.5228 15.5228 20 10 20C4.47715 20 1.76868e-08 15.5228 1.13941e-08 9.99997C5.10129e-09 4.47712 4.47715 -3.05227e-05 10 -3.0529e-05Z" fill="#84D9FF"/>
<path d="M18.2047 4.28165C18.6222 4.87958 18.976 5.52527 19.2563 6.2089C17.0817 8.68151 14.4405 11.7315 13.5195 12.9565C12.2562 14.6369 11.1871 15.1573 10.8404 15.0774L3.56007 13.4001C1.99999 13.0407 2.1198 12.5207 2.41931 11.2206C2.77873 9.66057 3.79837 8.80023 4.57841 8.97994C5.08893 9.09756 5.88852 9.39354 6.76523 9.71807C7.82912 10.1119 9.00657 10.5477 9.91886 10.7579C11.5829 11.1413 13.6516 9.60992 14.478 8.79632L18.2047 4.28165Z" fill="black"/>
<path d="M15.9213 7.04784L17.2127 5.48343L18.1125 7.51413C17.5061 8.20845 16.8932 8.9147 16.3152 9.5871L15.9157 9.40682L16.0965 9.84197C15.6205 10.3972 15.1729 10.9246 14.778 11.3973L13.907 9.30116C14.1324 9.11955 14.3262 8.94585 14.478 8.79638L15.6982 7.31819L16.1268 7.51157L15.9213 7.04784Z" fill="white"/>
</g>
<defs>
<clipPath id="clip0_1823_1068">
<rect width="20" height="20" fill="white"/>
</clipPath>
</defs>
</svg>
