<svg width="20" height="20" viewBox="0 0 20 20" fill="none" xmlns="http://www.w3.org/2000/svg">
<g clip-path="url(#clip0_1823_1174)">
<path fill-rule="evenodd" clip-rule="evenodd" d="M9.9999 0.000183105C15.5224 0.000183105 19.9999 4.47685 19.9999 10.0002C19.9999 15.5227 15.5224 20.0002 9.9999 20.0002C4.47657 20.0002 -9.91821e-05 15.5227 -9.91821e-05 10.0002C-9.91821e-05 4.47685 4.47657 0.000183105 9.9999 0.000183105Z" fill="black"/>
<path d="M12.4043 3.03525C12.1996 3.25479 12.0264 3.42729 11.8531 3.61546C11.7901 3.67819 11.7271 3.72523 11.6799 3.78796C11.3491 4.21135 10.9869 4.33681 10.4199 4.28976C8.24655 4.13295 6.02592 5.52859 5.14397 7.52012C4.64 8.66487 4.49826 9.85665 4.78174 11.0798C5.39596 13.6672 7.75833 15.5176 10.5302 15.3451C13.0658 15.1883 15.1604 13.4163 15.6644 10.9387C15.7747 10.4055 15.7274 9.82529 15.7274 9.27644C15.7274 9.02554 15.7589 8.83736 15.9479 8.66487C16.2471 8.41396 16.4991 8.11602 16.7826 7.84943C16.8613 7.77103 16.9401 7.72398 17.0346 7.64558C17.9165 9.9821 17.3338 13.5575 14.4045 15.6431C11.3649 17.8071 7.27011 17.3367 4.79749 14.5611C2.40362 11.8639 2.35637 7.7083 4.92348 4.94838C7.15986 2.51777 10.4514 2.2355 12.4043 3.03525Z" fill="#256BAB"/>
<path d="M6.2307 9.82468C6.2307 7.50383 8.23084 5.66911 10.546 5.87297C10.7507 5.88865 10.9397 5.9357 11.1287 5.98274C11.4594 6.06115 11.5697 6.39046 11.3334 6.65704C11.0657 6.93931 10.7822 7.20589 10.5145 7.48815C10.105 7.89587 9.69552 8.30358 9.28604 8.7113C8.70332 9.29151 8.62457 10.0913 9.0813 10.6872C9.52227 11.2674 10.357 11.4555 10.9554 11.0478C11.3177 10.8126 11.6169 10.4676 11.9319 10.1697C12.4044 9.69923 12.8611 9.2131 13.3493 8.75834C13.4596 8.64857 13.6958 8.58585 13.8218 8.63289C13.9478 8.67994 14.058 8.8838 14.0895 9.04061C14.373 10.2794 14.0738 11.3928 13.2706 12.3651C11.4594 14.5605 7.78987 14.2155 6.54568 11.3301C6.43544 11.0635 6.37244 10.7812 6.30945 10.499C6.2622 10.2638 6.2622 10.0442 6.2307 9.82468Z" fill="#DF5252"/>
<path d="M14.9243 2C15.0503 2.6743 15.1763 3.30155 15.3023 4.0229C15.4756 3.88176 15.5858 3.80336 15.6803 3.70927C15.822 3.58382 15.9323 3.427 16.0898 3.31724C16.326 3.12906 16.5623 3.16042 16.7355 3.3486C16.8772 3.50541 16.8772 3.81904 16.7197 4.00722C16.5623 4.17971 16.4048 4.33652 16.2315 4.49334C16.0583 4.66583 16.0898 4.75992 16.326 4.80697C16.7985 4.88537 17.271 4.96378 17.7434 5.05787C18.0427 5.12059 18.0742 5.199 17.8694 5.41854C17.0977 6.18693 16.3418 6.95531 15.5543 7.70802C15.4441 7.81779 15.2078 7.84915 15.0346 7.83347C14.5149 7.77075 13.9951 7.64529 13.4597 7.58257C13.3022 7.56689 13.0974 7.62961 12.9872 7.73938C12.184 8.52345 11.3808 9.3232 10.5776 10.1073C10.4043 10.2798 10.1996 10.3739 9.96336 10.2327C9.67987 10.0602 9.64837 9.71524 9.91611 9.44865C10.5146 8.83708 11.113 8.25687 11.7115 7.64529C11.9163 7.44144 12.1367 7.25326 12.3257 7.03372C12.6092 6.73577 12.436 6.39078 12.4045 6.06148C12.3572 5.66944 12.247 5.27741 12.184 4.88537C12.1682 4.7756 12.1997 4.61879 12.2785 4.54038C13.0974 3.72495 13.9006 2.9252 14.7039 2.12545C14.7511 2.07841 14.8141 2.06273 14.9243 2Z" fill="#FFCE0D"/>
</g>
<defs>
<clipPath id="clip0_1823_1174">
<rect width="20" height="20" fill="white"/>
</clipPath>
</defs>
</svg>
