<svg width="20" height="20" viewBox="0 0 20 20" fill="none" xmlns="http://www.w3.org/2000/svg">
<g clip-path="url(#clip0_1823_1313)">
<path d="M10 0C15.5228 0 20 4.47715 20 10C20 15.5228 15.5228 20 10 20C4.47715 20 0 15.5228 0 10C0 4.47715 4.47715 0 10 0Z" fill="#80BC3C"/>
<path fill-rule="evenodd" clip-rule="evenodd" d="M19.5455 12.9894C18.2746 17.052 14.4816 20 10 20C4.47715 20 0 15.5229 0 10C0 8.47767 0.34017 7.03479 0.948643 5.74323C8.96782 6.6465 15.7071 9.34369 19.5455 12.9894Z" fill="#D46B00"/>
<path fill-rule="evenodd" clip-rule="evenodd" d="M18.159 15.7833C16.347 18.335 13.3679 20 10 20C4.47715 20 0 15.5228 0 9.99999C0 9.46835 0.0414871 8.9464 0.1214 8.43719C7.94503 9.43863 14.4751 12.1573 18.159 15.7833Z" fill="#D46B00"/>
<path fill-rule="evenodd" clip-rule="evenodd" d="M18.3869 15.4483C17.0444 14.1395 15.3514 12.9575 13.3918 11.9354C9.79919 10.0615 5.26006 8.69436 0.191298 8.04358C0.139801 8.30322 0.0983549 8.56647 0.0673828 8.83292C5.06396 9.47215 9.51894 10.8162 13.0224 12.6436C14.9881 13.6688 16.6388 14.8367 17.9191 16.1072C18.0836 15.8942 18.2397 15.6744 18.3869 15.4483Z" fill="white"/>
<path fill-rule="evenodd" clip-rule="evenodd" d="M15.1417 18.5786C13.6393 19.4811 11.8802 20 10 20C5.1804 20 1.15714 16.5904 0.210693 12.0518C6.55722 13.2291 11.8478 15.5683 15.1417 18.5786Z" fill="#D46B00"/>
<path fill-rule="evenodd" clip-rule="evenodd" d="M15.4916 18.3585C14.2 17.1626 12.6126 16.0777 10.796 15.1302C7.81408 13.5749 4.18009 12.3686 0.132416 11.6313C0.179341 11.9173 0.238398 12.1992 0.309043 12.4765C4.15706 13.2054 7.60125 14.3647 10.4266 15.8384C12.1237 16.7235 13.5859 17.715 14.7778 18.787C15.0221 18.6539 15.2602 18.5109 15.4916 18.3585Z" fill="white"/>
<path fill-rule="evenodd" clip-rule="evenodd" d="M11.4246 19.8993C10.9593 19.9657 10.4837 20 10 20C6.61913 20 3.63012 18.3222 1.82016 15.7538C5.59034 16.7452 8.8715 18.1686 11.4246 19.8993Z" fill="#D46B00"/>
<path fill-rule="evenodd" clip-rule="evenodd" d="M11.9862 19.8027C11.1365 19.2026 10.2063 18.6396 9.20673 18.1182C6.96874 16.951 4.36344 15.9803 1.49161 15.2569C1.7108 15.6109 1.95147 15.9502 2.21179 16.273C4.66566 16.9509 6.89738 17.8146 8.83736 18.8264C9.53375 19.1896 10.1906 19.5708 10.8055 19.968C11.2062 19.9361 11.6002 19.8805 11.9862 19.8027Z" fill="white"/>
</g>
<defs>
<clipPath id="clip0_1823_1313">
<rect width="20" height="20" fill="white"/>
</clipPath>
</defs>
</svg>
