<svg width="20" height="20" viewBox="0 0 20 20" fill="none" xmlns="http://www.w3.org/2000/svg">
<g clip-path="url(#clip0_1823_1337)">
<path fill-rule="evenodd" clip-rule="evenodd" d="M10 0C15.5225 0 20 4.47667 20 10C20 15.5225 15.5225 20 10 20C4.47667 20 0 15.5225 0 10C0 4.47667 4.47667 0 10 0Z" fill="#DF5252"/>
<path d="M18.7499 9.99983C18.7499 14.8323 14.8324 18.7497 9.99999 18.7497C5.16755 18.7497 1.25009 14.8323 1.25009 9.99983C1.25009 5.1674 5.16755 1.24994 9.99999 1.24994C14.8324 1.24994 18.7499 5.1674 18.7499 9.99983Z" fill="white"/>
<path fill-rule="evenodd" clip-rule="evenodd" d="M9.99999 18.2117C14.5353 18.2117 18.2118 14.5351 18.2118 9.99983C18.2118 5.46455 14.5353 1.78798 9.99999 1.78798C5.46471 1.78798 1.78814 5.46455 1.78814 9.99983C1.78814 14.5351 5.46471 18.2117 9.99999 18.2117ZM9.99999 18.7497C14.8324 18.7497 18.7499 14.8323 18.7499 9.99983C18.7499 5.1674 14.8324 1.24994 9.99999 1.24994C5.16755 1.24994 1.25009 5.1674 1.25009 9.99983C1.25009 14.8323 5.16755 18.7497 9.99999 18.7497Z" fill="black"/>
<path fill-rule="evenodd" clip-rule="evenodd" d="M9.99989 16.8746C13.7968 16.8746 16.8748 13.7966 16.8748 9.99973C16.8748 6.20282 13.7968 3.12482 9.99989 3.12482C6.20297 3.12482 3.12497 6.20282 3.12497 9.99973C3.12497 13.7966 6.20297 16.8746 9.99989 16.8746ZM14.9997 9.99976C14.9997 12.7611 12.7612 14.9997 9.99979 14.9997C7.2384 14.9997 4.99985 12.7611 4.99985 9.99976C4.99985 7.23837 7.2384 4.99982 9.99979 4.99982C12.7612 4.99982 14.9997 7.23837 14.9997 9.99976Z" fill="black"/>
<path d="M13.9685 9.99976C13.9685 12.1916 12.1916 13.9684 9.99979 13.9684C7.80794 13.9684 6.0311 12.1916 6.0311 9.99976C6.0311 7.80791 7.80794 6.03107 9.99979 6.03107C12.1916 6.03107 13.9685 7.80791 13.9685 9.99976Z" fill="black"/>
<path d="M9.99957 -0.00012207C9.65439 -0.00012207 9.37457 0.279696 9.37457 0.62487V9.37477H0.625114C0.279942 9.37477 0.000122085 9.65459 0.00012207 9.99976C0.000122055 10.3449 0.279941 10.6248 0.625114 10.6248H9.37457V19.3746C9.37457 19.7198 9.65439 19.9996 9.99957 19.9996C10.3447 19.9996 10.6246 19.7198 10.6246 19.3746V10.6248H19.3749C19.7201 10.6248 19.9999 10.3449 19.9999 9.99976C19.9999 9.65459 19.7201 9.37477 19.3749 9.37477H10.6246V0.62487C10.6246 0.279697 10.3447 -0.00012207 9.99957 -0.00012207Z" fill="black"/>
<ellipse cx="9.99966" cy="9.99973" rx="2.49997" ry="2.49997" fill="#DF5252"/>
<circle cx="9.99962" cy="9.9998" r="1.24998" fill="white"/>
</g>
<defs>
<clipPath id="clip0_1823_1337">
<rect width="20" height="20" fill="white"/>
</clipPath>
</defs>
</svg>
