<svg width="20" height="20" viewBox="0 0 20 20" fill="none" xmlns="http://www.w3.org/2000/svg">
<g clip-path="url(#clip0_1823_1192)">
<path d="M10.0006 -0.00158691C15.5235 -0.00158691 20.0006 4.47557 20.0006 9.99841C20.0006 15.5213 15.5235 19.9984 10.0006 19.9984C4.47776 19.9984 0.000610352 15.5213 0.000610352 9.99841C0.000610352 4.47557 4.47776 -0.00158691 10.0006 -0.00158691Z" fill="#84D9FF"/>
<path fill-rule="evenodd" clip-rule="evenodd" d="M19.7301 7.67822C19.2724 5.75193 18.2575 4.04149 16.8651 2.7266C16.6059 2.64849 16.3328 2.60706 16.0529 2.60706H10.4584C9.68082 2.60706 9.05049 3.23738 9.05049 4.01493C9.05049 4.79248 9.68082 5.42281 10.4584 5.42281H16.0529L16.9244 7.53461H7.72202C6.12331 7.53461 4.8273 8.83062 4.8273 10.4293V14.574H18.8948C19.3472 13.6963 19.6736 12.7429 19.8499 11.7379C19.9489 11.173 20.0006 10.5917 20.0006 9.99841C20.0006 9.19968 19.907 8.42282 19.7301 7.67822Z" fill="#DF5252"/>
<path d="M19.909 11.3579C19.5857 13.7364 18.4261 15.849 16.7362 17.3898H7.99502C6.24554 17.3898 4.8273 15.9716 4.8273 14.2221C4.8273 12.4726 6.24554 11.0544 7.99502 11.0544H18.5541C19.0389 11.0544 19.4982 11.1633 19.909 11.3579Z" fill="black"/>
</g>
<defs>
<clipPath id="clip0_1823_1192">
<rect width="20" height="20" fill="white"/>
</clipPath>
</defs>
</svg>
