<svg width="20" height="20" viewBox="0 0 20 20" fill="none" xmlns="http://www.w3.org/2000/svg">
<g clip-path="url(#clip0_1823_1337)">
<path fill-rule="evenodd" clip-rule="evenodd" d="M10 0C15.5225 0 20 4.47667 20 10C20 15.5225 15.5225 20 10 20C4.47667 20 0 15.5225 0 10C0 4.47667 4.47667 0 10 0Z" fill="#DF5252"/>
<path d="M18.7499 9.99983C18.7499 14.8323 14.8324 18.7497 9.99999 18.7497C5.16756 18.7497 1.2501 14.8323 1.2501 9.99983C1.2501 5.16739 5.16756 1.24993 9.99999 1.24993C14.8324 1.24993 18.7499 5.16739 18.7499 9.99983Z" fill="white"/>
<path fill-rule="evenodd" clip-rule="evenodd" d="M9.99999 18.2117C14.5353 18.2117 18.2118 14.5351 18.2118 9.99983C18.2118 5.46455 14.5353 1.78797 9.99999 1.78797C5.46471 1.78797 1.78814 5.46455 1.78814 9.99983C1.78814 14.5351 5.46471 18.2117 9.99999 18.2117ZM9.99999 18.7497C14.8324 18.7497 18.7499 14.8323 18.7499 9.99983C18.7499 5.16739 14.8324 1.24993 9.99999 1.24993C5.16756 1.24993 1.2501 5.16739 1.2501 9.99983C1.2501 14.8323 5.16756 18.7497 9.99999 18.7497Z" fill="black"/>
<path fill-rule="evenodd" clip-rule="evenodd" d="M9.99989 16.8746C13.7968 16.8746 16.8748 13.7966 16.8748 9.99973C16.8748 6.20282 13.7968 3.12482 9.99989 3.12482C6.20298 3.12482 3.12498 6.20282 3.12498 9.99973C3.12498 13.7966 6.20298 16.8746 9.99989 16.8746ZM14.9997 9.99976C14.9997 12.7611 12.7612 14.9997 9.9998 14.9997C7.23841 14.9997 4.99986 12.7611 4.99986 9.99976C4.99986 7.23837 7.23841 4.99982 9.9998 4.99982C12.7612 4.99982 14.9997 7.23837 14.9997 9.99976Z" fill="black"/>
<path d="M13.9685 9.99976C13.9685 12.1916 12.1916 13.9684 9.9998 13.9684C7.80795 13.9684 6.03111 12.1916 6.03111 9.99976C6.03111 7.80791 7.80795 6.03107 9.9998 6.03107C12.1916 6.03107 13.9685 7.80791 13.9685 9.99976Z" fill="black"/>
<path d="M9.99957 -0.000106812C9.6544 -0.000106812 9.37458 0.279712 9.37458 0.624885V9.37478H0.625118C0.279945 9.37478 0.0001259 9.6546 0.000125885 9.99978C0.00012587 10.3449 0.279945 10.6248 0.625118 10.6248H9.37458V19.3747C9.37458 19.7198 9.6544 19.9996 9.99957 19.9996C10.3447 19.9996 10.6246 19.7198 10.6246 19.3747V10.6248H19.3749C19.7201 10.6248 19.9999 10.345 19.9999 9.99978C19.9999 9.6546 19.7201 9.37478 19.3749 9.37478H10.6246V0.624886C10.6246 0.279712 10.3447 -0.000106812 9.99957 -0.000106812Z" fill="black"/>
<ellipse cx="9.99967" cy="9.99975" rx="2.49997" ry="2.49997" fill="#DF5252"/>
<circle cx="9.9996" cy="9.99981" r="1.24998" fill="white"/>
</g>
<defs>
<clipPath id="clip0_1823_1337">
<rect width="20" height="20" fill="white"/>
</clipPath>
</defs>
</svg>
