<svg width="20" height="20" viewBox="0 0 20 20" fill="none" xmlns="http://www.w3.org/2000/svg">
<g clip-path="url(#clip0_1823_1010)">
<path d="M10.0006 0.00170898C15.5235 0.00170898 20.0006 4.47886 20.0006 10.0017C20.0006 15.5246 15.5235 20.0017 10.0006 20.0017C4.47776 20.0017 0.000610352 15.5246 0.000610352 10.0017C0.000610352 4.47886 4.47776 0.00170898 10.0006 0.00170898Z" fill="#80BC3C"/>
<path fill-rule="evenodd" clip-rule="evenodd" d="M18.081 15.8942C17.5929 16.5624 17.0239 17.1678 16.3884 17.6959C14.9296 16.8429 13.3616 16.0378 12.3077 15.5319C12.1861 15.5319 12.0624 15.5298 11.9367 15.5252C13.6938 14.7581 15.1504 13.5103 16.1017 11.9686C16.4681 13.4836 17.2909 14.87 18.081 15.8942Z" fill="#84D9FF"/>
<path fill-rule="evenodd" clip-rule="evenodd" d="M16.6086 17.5075C16.4219 17.672 16.229 17.8297 16.0303 17.9801C15.4482 17.6075 14.8483 17.263 14.2304 16.9531C13.1516 16.4183 12.0054 15.9758 10.8002 15.8471C10.2379 15.8283 9.67794 15.7379 9.13806 15.5808C9.02152 15.5521 8.92574 15.4563 8.89541 15.3404C8.84337 15.1808 8.94107 15.009 9.07899 14.9276C9.20925 14.8714 9.35037 14.9081 9.47904 14.9484C10.6482 15.251 11.9272 15.2297 13.0485 14.7549C13.5701 14.5231 14.0535 14.1997 14.4516 13.7891C14.694 13.535 14.8983 13.2464 15.0758 12.944C15.7009 11.8374 15.8175 10.4971 15.5585 9.26668C15.237 7.73323 14.391 6.33324 13.2569 5.26177C12.158 4.22575 10.7647 3.4761 9.26449 3.24304C8.13172 3.06616 6.92233 3.20664 5.91632 3.78005C5.00864 4.28609 4.31423 5.14556 3.98666 6.12986C3.71624 6.91271 3.66452 7.75909 3.76477 8.57769C3.91227 9.72993 4.37234 10.8311 5.03578 11.7803C5.11911 11.8994 5.11847 12.0676 5.02843 12.1832C4.91062 12.3671 4.61945 12.3792 4.47961 12.2142C3.82447 11.2902 3.35355 10.2305 3.13964 9.11662C2.88742 7.80059 3.00363 6.384 3.62844 5.18451C4.1779 4.099 5.1555 3.24687 6.29593 2.82895C7.61259 2.33472 9.08697 2.38229 10.4193 2.79159C11.9885 3.27369 13.3923 4.24426 14.4469 5.49675C15.5467 6.80512 16.2862 8.45126 16.3727 10.1699C16.5055 11.5115 17.0154 12.7837 17.6328 13.9714C17.8828 14.448 18.1522 14.9145 18.4389 15.3702C18.3007 15.587 18.1543 15.7981 18.0003 16.0031C17.6051 15.3958 17.2396 14.7693 16.9119 14.1231C16.6134 13.5267 16.336 12.9169 16.1316 12.2815C15.9426 12.8604 15.6677 13.4143 15.29 13.8942C14.6739 14.6936 13.7959 15.2737 12.8384 15.5815C12.8451 15.5869 12.8579 15.5978 12.8646 15.6035C14.1116 16.0393 15.2856 16.6644 16.3995 17.371C16.4693 17.4163 16.539 17.4618 16.6086 17.5075Z" fill="#20406B"/>
<path d="M10.0614 4.49242C9.91356 4.34268 9.63037 4.36503 9.51735 4.54574C9.42348 4.68111 9.4388 4.87777 9.55598 4.99463C9.66772 5.10477 9.77563 5.21907 9.89089 5.32539C9.55278 5.66222 9.22043 6.00543 8.87562 6.33523C8.53527 5.98276 8.18632 5.63763 7.83544 5.29538C7.95293 5.15681 8.11224 5.05209 8.20515 4.89438C8.32647 4.66418 8.11544 4.36088 7.85907 4.38834C7.6244 4.41547 7.50691 4.65173 7.33993 4.78998C7.21223 4.68206 7.11549 4.51509 6.93766 4.48571C6.73269 4.44261 6.51942 4.62459 6.52995 4.83403C6.52261 5.03773 6.71066 5.15809 6.83836 5.28612C6.50601 5.62837 6.16535 5.96265 5.82724 6.29948C5.69953 6.17209 5.57725 5.98404 5.37388 5.99266C5.1654 5.98117 4.97384 6.19412 5.02077 6.40068C5.04631 6.58075 5.22382 6.67078 5.32663 6.8036C5.22829 6.89747 5.13571 6.9974 5.03737 7.09158C4.89306 7.21929 4.8921 7.47087 5.03418 7.60081C5.16444 7.74033 5.41347 7.73267 5.54118 7.59315C5.63887 7.49705 5.73529 7.39999 5.8298 7.30134C6.17684 7.64806 6.52197 7.99671 6.87125 8.3412C6.54336 8.67771 6.21068 9.01038 5.87449 9.33795L5.85151 9.33508C5.71677 9.21567 5.60088 9.07456 5.45785 8.96505C5.24969 8.83383 4.9384 8.99506 4.93042 9.24185C4.90903 9.38137 4.99204 9.50301 5.09293 9.58922C5.18424 9.67574 5.27363 9.76449 5.3643 9.85165C5.2417 9.99309 5.06387 10.1013 5.01215 10.2913C5.00704 10.4132 5.04184 10.5464 5.14369 10.6227C5.26789 10.7316 5.47445 10.7316 5.59513 10.6176C5.69028 10.5336 5.77329 10.4369 5.87354 10.3587C6.22026 10.722 6.58359 11.0697 6.93191 11.432C6.82687 11.53 6.7263 11.6329 6.62541 11.7353C6.49451 11.8682 6.4993 12.1019 6.63052 12.2331C6.75727 12.3601 6.98299 12.3601 7.11613 12.243C7.22659 12.1414 7.32748 12.03 7.43604 11.9269C7.7901 12.2813 8.14832 12.6315 8.49984 12.9885C8.46631 13.066 8.37468 13.1133 8.35489 13.2021C8.2639 13.4284 8.48004 13.7052 8.72237 13.6666C8.84369 13.6628 8.92925 13.5689 9.01162 13.4923C9.12337 13.6145 9.24182 13.7308 9.3609 13.846C9.49755 13.9747 9.72295 13.9431 9.85002 13.8166C9.87046 13.7838 9.89121 13.7515 9.91164 13.7193C9.92441 13.6618 9.94038 13.6037 9.95538 13.5475C9.97982 13.456 9.87 13.1784 9.59684 13.0619C9.5365 13.0362 9.47105 12.9939 9.5365 12.9604C9.86471 12.6376 10.1897 12.3119 10.5141 11.9853C10.8675 12.3343 11.2219 12.6829 11.5658 13.0411C11.448 13.1369 11.3503 13.2544 11.2369 13.3556C11.1737 13.4603 11.1395 13.5928 11.1919 13.7097C11.2497 13.8961 11.4876 13.9849 11.6593 13.9C11.8234 13.8131 11.9195 13.6324 12.0699 13.5357C12.1992 13.6513 12.302 13.8275 12.4923 13.8479C12.5906 13.8253 12.7062 13.8218 12.7694 13.7301C12.9265 13.5756 12.87 13.3084 12.7088 13.1784C12.6253 13.1111 12.5772 13.0108 12.5772 13.0108C12.9073 12.6826 13.241 12.3573 13.5631 12.0214C13.7077 12.1223 13.7981 12.3209 13.9944 12.3276C14.2154 12.3621 14.4156 12.1392 14.3731 11.925C14.3469 11.7452 14.1742 11.6488 14.066 11.5202C14.1726 11.4209 14.2744 11.3168 14.3763 11.213C14.5155 11.0703 14.4893 10.8072 14.3265 10.6932C14.1953 10.5933 13.9913 10.6042 13.8741 10.7217C13.7732 10.8225 13.671 10.9222 13.5737 11.0269C13.2215 10.6795 12.8729 10.3283 12.5233 9.9784C12.8607 9.63998 13.2011 9.30475 13.5353 8.96377C13.6557 9.08924 13.7786 9.21216 13.906 9.32997C14.0717 9.46406 14.3447 9.39702 14.4328 9.20322C14.4903 9.0819 14.4753 8.92354 14.382 8.82329C14.2706 8.70133 14.1522 8.58544 14.0308 8.47337C14.1541 8.32204 14.3584 8.21062 14.3817 8.00022C14.3977 7.84058 14.2853 7.68638 14.1362 7.63593C14.0229 7.60528 13.89 7.62189 13.8013 7.70362C13.7084 7.7879 13.626 7.88273 13.5328 7.96669C13.179 7.60879 12.8259 7.24962 12.4636 6.90002C12.6385 6.71868 12.8221 6.54627 12.998 6.36588C13.1187 6.23722 13.1222 6.02107 13.0041 5.88986C12.884 5.74363 12.6427 5.73341 12.5038 5.85793C12.3183 6.03512 12.144 6.22349 11.9566 6.39845C11.6082 6.03544 11.2465 5.68488 10.895 5.32443C11.0077 5.20024 11.1565 5.09871 11.2248 4.94131C11.3056 4.71559 11.1063 4.45889 10.8682 4.47582C10.652 4.49274 10.5403 4.7025 10.3877 4.82733C10.2852 4.70984 10.1722 4.60193 10.0614 4.49242ZM8.38714 6.83265C8.05126 7.17331 7.71124 7.50982 7.37346 7.84857C7.04685 7.52515 6.72279 7.19949 6.39618 6.87639C6.37415 6.84989 6.33903 6.82946 6.33296 6.79275C6.665 6.45688 7.0047 6.12867 7.33419 5.79024C7.69337 6.12899 8.03243 6.4888 8.38714 6.83265ZM10.3985 5.82632C10.7494 6.18741 11.1076 6.54148 11.4694 6.8914C11.1344 7.23653 10.7922 7.57495 10.449 7.9121C10.0952 7.55069 9.73668 7.19407 9.37974 6.83585C9.72104 6.50093 10.0508 6.15421 10.3985 5.82632ZM9.96273 8.40728C9.62079 8.74284 9.28013 9.08062 8.94649 9.42447C8.58572 9.06721 8.23006 8.70516 7.87056 8.34662C8.20643 8.0066 8.54709 7.67169 8.8836 7.33199C9.24405 7.68989 9.60259 8.04939 9.96273 8.40728ZM11.961 7.39297C12.318 7.75438 12.6794 8.11132 13.0373 8.47178C12.7001 8.80924 12.3611 9.14479 12.0249 9.48354C11.6692 9.12181 11.3088 8.76518 10.9502 8.40633C11.2858 8.06726 11.6258 7.73235 11.961 7.39297ZM8.44684 9.91615C8.11097 10.2571 7.7719 10.5952 7.43156 10.9321C7.07909 10.5668 6.71321 10.215 6.3585 9.85197C6.69661 9.51355 7.03823 9.17832 7.37633 8.83957C7.72817 9.20322 8.08702 9.56016 8.44684 9.91615ZM11.531 9.97745C11.1919 10.3156 10.8541 10.6553 10.5141 10.9927C10.1591 10.6326 9.7983 10.2782 9.44072 9.92062C9.77499 9.57932 10.116 9.24441 10.449 8.90183C10.8142 9.25558 11.1686 9.62082 11.531 9.97745ZM10.0237 11.485C9.68624 11.8241 9.34398 12.1584 9.01035 12.5013C8.65117 12.1405 8.28433 11.7867 7.9309 11.4202C8.27763 11.0911 8.60775 10.7446 8.94585 10.4065C9.29897 10.7718 9.65974 11.1306 10.0237 11.485ZM13.0714 11.5275C12.7614 11.8311 12.4562 12.1395 12.1516 12.4483C12.1203 12.4738 12.0977 12.5242 12.0527 12.5249C11.8595 12.3483 11.6829 12.1542 11.4946 11.9726C11.3343 11.8094 11.1654 11.6546 11.0134 11.4838C11.3525 11.1485 11.6906 10.812 12.0262 10.4733C12.3729 10.8267 12.7314 11.1683 13.0714 11.5275Z" fill="white"/>
<ellipse cx="2.22305" cy="2.22305" rx="2.22305" ry="2.22305" transform="matrix(-1 0 0 1 7.86178 13.0309)" fill="#FF9B3E"/>
</g>
<defs>
<clipPath id="clip0_1823_1010">
<rect width="20" height="20" fill="white"/>
</clipPath>
</defs>
</svg>
