<svg width="20" height="20" viewBox="0 0 20 20" fill="none" xmlns="http://www.w3.org/2000/svg">
<g clip-path="url(#clip0_1823_1199)">
<path d="M10.0006 -0.00170898C15.5235 -0.00170898 20.0006 4.47544 20.0006 9.99829C20.0006 15.5211 15.5235 19.9983 10.0006 19.9983C4.47776 19.9983 0.000610352 15.5211 0.000610352 9.99829C0.000610352 4.47544 4.47776 -0.00170898 10.0006 -0.00170898Z" fill="#80BC3C"/>
<path d="M15.6827 18.2806C16.3537 17.8256 16.9665 17.2911 17.5076 16.6907C16.9243 16.1058 16.3403 15.5216 15.7494 14.9444C15.4923 15.2083 15.2313 15.4683 14.9703 15.7283C14.6639 16.0335 14.3576 16.3388 14.0575 16.6504C14.5979 17.1951 15.14 17.7381 15.6827 18.2806Z" fill="#F3DCCE"/>
<path d="M6.15147 4.03192C6.66817 3.88007 7.07878 4.27246 7.39383 4.61747L8.12318 5.3465C10.5464 7.76867 12.9699 10.1911 15.3946 12.6114C15.6332 12.8499 15.9049 13.1277 15.8935 13.4909C15.949 13.8829 15.6542 14.1996 15.3999 14.4539C15.0229 14.8236 14.6502 15.1979 14.2775 15.5722C13.9227 15.9284 13.568 16.2846 13.2096 16.6369C12.9043 16.9406 12.3839 17.035 12.0114 16.8029C11.8196 16.6611 11.6543 16.4894 11.4892 16.3179C11.4157 16.2416 11.3423 16.1654 11.2667 16.0919C8.59447 13.4185 5.92187 10.7458 3.24844 8.07404C2.97147 7.81245 2.90344 7.3743 3.03099 7.02403C3.15337 6.80928 3.32953 6.6322 3.50278 6.45804L3.52988 6.43079C4.10005 5.87021 4.66385 5.30325 5.22765 4.73629L5.53515 4.42714C5.5547 4.4085 5.57433 4.38936 5.59416 4.37004C5.75215 4.21607 5.92192 4.05063 6.15147 4.03192Z" fill="#F3DCCE"/>
<circle cx="2.6137" cy="2.6137" r="2.6137" transform="matrix(-1 0 0 1 13.8991 6.37442)" fill="#DF5252"/>
</g>
<defs>
<clipPath id="clip0_1823_1199">
<rect width="20" height="20" fill="white"/>
</clipPath>
</defs>
</svg>
