<svg width="20" height="20" viewBox="0 0 20 20" fill="none" xmlns="http://www.w3.org/2000/svg">
<g clip-path="url(#clip0_1823_1287)">
<path d="M10 0C15.5228 0 20 4.47715 20 10C20 15.5228 15.5228 20 10 20C4.47715 20 0 15.5228 0 10C0 4.47715 4.47715 0 10 0Z" fill="#256BAB"/>
<path fill-rule="evenodd" clip-rule="evenodd" d="M18.936 14.4935C18.536 15.2874 18.0333 16.0208 17.4453 16.6761C17.2646 16.6075 17.093 16.4981 16.9421 16.3473C15.5431 14.9582 14.1562 13.5691 12.7694 12.18C12.076 11.4855 11.3827 10.791 10.6878 10.0964C10.6055 10.0279 10.5095 9.86339 10.5369 9.82227C10.7289 9.57552 10.9346 9.31507 11.1815 9.13687C11.2638 9.08203 11.5107 9.21911 11.6478 9.31507C12.2971 9.76287 12.9463 10.2228 13.5955 10.6828C13.9201 10.9128 14.2447 11.1428 14.5693 11.3713C15.255 11.8511 15.9374 12.3343 16.6197 12.8175C17.3021 13.3007 17.9845 13.7839 18.6702 14.2637C18.7695 14.3335 18.8588 14.4102 18.936 14.4935Z" fill="white"/>
<path fill-rule="evenodd" clip-rule="evenodd" d="M16.4764 17.6197C15.8064 18.1897 15.0603 18.673 14.2554 19.052C14.2209 19.0164 14.1883 18.9785 14.1578 18.9383C13.6366 18.2529 13.1291 17.5538 12.6354 16.8546C12.0662 16.0527 11.5004 15.2439 10.9346 14.4352C10.3689 13.6264 9.8031 12.8176 9.2339 12.0157C9.0069 11.6994 8.8903 11.5694 8.89966 11.4491C8.90897 11.3296 9.04272 11.2198 9.31619 10.9465C9.61794 10.6449 9.6728 10.6449 9.97454 10.9465L13.5406 14.5106L16.0917 17.0603C16.2547 17.2313 16.3935 17.4121 16.4764 17.6197Z" fill="white"/>
<path fill-rule="evenodd" clip-rule="evenodd" d="M13.155 19.4921C12.3458 19.761 11.4906 19.9292 10.6044 19.982C10.2207 19.1872 9.83704 18.3945 9.45338 17.6084C9.13106 16.9504 8.80874 16.289 8.48643 15.6276C8.16411 14.9662 7.84179 14.3047 7.51948 13.6467C7.34781 13.3036 7.2724 13.1597 7.30013 13.0397C7.32779 12.92 7.45806 12.8239 7.69778 12.5775C7.71549 12.5687 7.72749 12.5541 7.74115 12.5375C7.74864 12.5284 7.75664 12.5187 7.76636 12.509C7.95838 12.2759 8.12296 12.3445 8.27384 12.5638C8.92278 13.486 9.5736 14.4082 10.2249 15.3311C11.2021 16.7158 12.1803 18.102 13.155 19.4921Z" fill="white"/>
<path fill-rule="evenodd" clip-rule="evenodd" d="M19.9627 10.8702C19.8857 11.7631 19.6914 12.6225 19.3952 13.4328C17.535 12.1197 15.6747 10.8072 13.8145 9.50707C13.5561 9.32265 13.3006 9.13823 13.0416 8.95133C12.723 8.72147 12.3993 8.48787 12.0589 8.24593C12.0989 8.20372 12.1378 8.16223 12.176 8.12152C12.3735 7.91102 12.5515 7.72134 12.7584 7.56053C12.8407 7.49198 13.0327 7.49198 13.1287 7.54682C14.1711 8.04031 15.2135 8.54751 16.2558 9.05471C16.5468 9.19674 16.8387 9.33878 17.1309 9.48102C18.0233 9.91535 18.9196 10.3516 19.8082 10.7956C19.8594 10.8206 19.911 10.8454 19.9627 10.8702Z" fill="white"/>
<path d="M3.81621 7.91673C3.73392 8.86258 4.11796 9.64395 4.63915 10.3705C4.79002 10.5761 4.94089 10.6995 5.18777 10.4527C6.80621 8.83517 8.42466 7.21761 10.0431 5.60006C10.5231 5.10657 10.5231 5.05174 9.93337 4.66791C7.79374 3.26968 4.95461 4.17442 4.02195 6.55963C3.95337 6.72412 3.89851 6.90233 3.87108 7.08053C3.82993 7.35469 3.82993 7.64256 3.81621 7.91673Z" fill="#DF5252"/>
<path d="M6.22122 11.9661C6.37028 12.097 6.61069 12.1283 6.75099 11.9881C7.66994 11.0696 8.58888 10.1375 9.52154 9.21905C10.2622 8.47881 10.9891 7.73858 11.7435 7.01205C11.9766 6.79272 12.0315 6.64193 11.7572 6.39518C11.2634 5.92911 11.2771 5.9154 10.8108 6.38147C9.20609 7.98532 7.60136 9.60288 5.99664 11.2067C5.77719 11.4261 5.76347 11.5905 6.01035 11.7962C6.08019 11.8469 6.15002 11.9036 6.22122 11.9661Z" fill="black"/>
</g>
<defs>
<clipPath id="clip0_1823_1287">
<rect width="20" height="20" fill="white"/>
</clipPath>
</defs>
</svg>
