<svg width="20" height="20" viewBox="0 0 20 20" fill="none" xmlns="http://www.w3.org/2000/svg">
<g clip-path="url(#clip0_1823_1111)">
<path fill-rule="evenodd" clip-rule="evenodd" d="M0 10C0 4.47731 4.47713 0 9.99959 0C15.5229 0 20 4.47731 20 10C20 15.5227 15.5229 20 9.99959 20C4.47713 20 0 15.5227 0 10Z" fill="white"/>
<path d="M20 10.007C20 15.5338 15.5105 20.0047 9.98368 20C4.47078 19.9907 -0.00468295 15.5059 -3.07086e-05 9.98837C0.00462154 4.48942 4.49404 -0.00464863 9.97903 3.60874e-06C15.5338 0.00465585 20 4.47081 20 10.007ZM16.4643 10.0023C16.455 6.4294 13.5566 3.54036 9.98834 3.54967C6.42472 3.55897 3.53102 6.46662 3.54963 10.0163C3.56824 13.5846 6.45728 16.4596 10.0256 16.4503C13.5752 16.4364 16.4736 13.538 16.4643 10.0023Z" fill="black"/>
<path d="M16.1107 9.99767C16.1247 13.338 13.3938 16.0782 10.0349 16.0968C6.66667 16.1154 3.91719 13.3845 3.90789 10.007C3.89858 6.64805 6.62945 3.90323 9.99302 3.89393C13.3612 3.88927 16.0968 6.61549 16.1107 9.99767ZM9.89532 14.4592C9.83485 13.9195 9.77437 13.2961 9.68597 12.6774C9.6348 12.3052 9.18818 12.147 8.92766 12.4075C8.48104 12.8635 8.04373 13.338 7.62038 13.8172C7.42033 14.0405 7.49477 14.2963 7.7646 14.4313C8.30891 14.7057 8.88579 14.8779 9.49523 14.9337C9.81624 14.9663 9.90928 14.8686 9.89532 14.4592ZM9.59293 6.3317C9.61154 6.04326 9.6348 5.75482 9.63945 5.47104C9.6441 5.15934 9.49988 5.05234 9.19749 5.09886C8.61596 5.1919 8.07165 5.38264 7.55525 5.67108C7.20633 5.86648 7.17841 6.08513 7.46685 6.36892C7.87625 6.77366 8.29495 7.17376 8.70435 7.57385C8.85322 7.72272 9.0207 7.79251 9.23005 7.71342C9.4394 7.63433 9.51849 7.4715 9.53245 7.2575C9.55571 6.95045 9.57432 6.6434 9.59293 6.3317ZM5.01512 10.0861C5.05699 10.3792 5.09421 10.7374 5.15469 11.0909C5.19656 11.3515 5.36404 11.4492 5.60596 11.3468C6.20144 11.0863 6.79228 10.8211 7.36916 10.528C7.69016 10.3652 7.68086 9.89067 7.3552 9.73249C6.77832 9.45336 6.19214 9.19283 5.60596 8.94161C5.34543 8.82996 5.13143 8.96487 5.09886 9.24401C5.06164 9.50453 5.04769 9.76041 5.01512 10.0861ZM12.3424 8.709C12.9425 8.59734 13.6078 8.48569 14.2684 8.34612C14.501 8.29495 14.5801 8.04838 14.4731 7.82972C14.194 7.26215 13.8218 6.75971 13.3566 6.3317C13.1705 6.15957 12.9798 6.16887 12.8448 6.39218C12.5099 6.93649 12.1842 7.49011 11.8725 8.04838C11.705 8.35078 11.933 8.70435 12.3424 8.709ZM7.62503 11.3049C7.03419 11.4399 6.36427 11.5794 5.70365 11.7469C5.50361 11.7981 5.45243 12.0121 5.55013 12.2028C5.83392 12.7797 6.22005 13.2775 6.69458 13.7055C6.91789 13.9056 7.09002 13.8869 7.24355 13.6171C7.54594 13.0775 7.84369 12.5378 8.13212 11.9888C8.29961 11.6678 8.06699 11.3096 7.62503 11.3049ZM7.55059 8.83926C7.95069 8.84857 8.17399 8.49965 8.01117 8.16934C7.93208 8.00651 7.83438 7.85764 7.74134 7.69946C7.51803 7.32263 7.30403 6.94115 7.07141 6.56431C6.90858 6.29914 6.70854 6.27588 6.49919 6.48057C6.05722 6.91323 5.71296 7.41567 5.45708 7.9786C5.31752 8.2903 5.39661 8.43917 5.72691 8.5136C5.7967 8.52756 5.87113 8.53687 5.94092 8.55082C6.49453 8.64852 7.03885 8.74622 7.55059 8.83926ZM14.9942 9.98836C14.957 9.67201 14.9197 9.32775 14.8686 8.98813C14.8314 8.74156 14.6639 8.63921 14.4313 8.74156C13.8404 9.00209 13.2496 9.27192 12.6727 9.56036C12.361 9.71853 12.3471 10.1884 12.6588 10.3419C13.2496 10.635 13.859 10.9002 14.4685 11.1607C14.6964 11.2584 14.8546 11.1468 14.8918 10.9002C14.9337 10.6025 14.957 10.3094 14.9942 9.98836ZM10.3885 5.04768C10.2256 5.04303 10.0861 5.22447 10.1186 5.46639C10.2024 6.07118 10.3001 6.67597 10.3885 7.28076C10.421 7.48546 10.528 7.62037 10.7327 7.6762C10.9328 7.72738 11.0863 7.65294 11.2119 7.50872C11.4306 7.2575 11.6446 7.00628 11.8632 6.75506C12.04 6.54571 12.2261 6.34566 12.3982 6.13166C12.5843 5.89904 12.5518 5.73156 12.2959 5.59665C11.7097 5.2896 11.077 5.09886 10.3885 5.04768ZM10.3466 14.5476C10.3373 14.85 10.4629 14.957 10.7653 14.9104C11.384 14.8174 11.9609 14.5987 12.5006 14.287C12.7565 14.1382 12.789 13.9753 12.589 13.7567C12.1656 13.3054 11.7283 12.8635 11.2957 12.4168C11.1607 12.2773 10.9933 12.2494 10.8165 12.3145C10.6397 12.375 10.5234 12.5052 10.5048 12.696C10.4536 13.3101 10.4024 13.9288 10.3466 14.5476ZM11.933 11.7423C11.9516 11.7841 11.9795 11.8818 12.0307 11.9702C12.3238 12.4587 12.6169 12.9472 12.9146 13.431C12.9425 13.4729 12.9658 13.5194 12.9984 13.5566C13.1472 13.7427 13.2635 13.752 13.4403 13.5845C13.9009 13.1472 14.2638 12.6401 14.529 12.0633C14.6778 11.7423 14.5987 11.5887 14.2452 11.5283C13.6543 11.4259 13.0682 11.3282 12.4773 11.2305C12.1889 11.184 11.9377 11.398 11.933 11.7423ZM11.4259 9.98836C11.4213 9.19283 10.7839 8.56478 9.98837 8.57408C9.19749 8.57874 8.55548 9.2254 8.56478 10.0116C8.57409 10.7932 9.2254 11.4352 10.0116 11.4352C10.7979 11.4306 11.4352 10.7792 11.4259 9.98836Z" fill="#B8CBCF"/>
<path d="M8.88578 10.0023C8.88112 9.38822 9.36961 8.88578 9.98836 8.87647C10.6164 8.86717 11.1189 9.36496 11.1235 9.98836C11.1235 10.6118 10.6211 11.1189 10.0023 11.1142C9.38822 11.1189 8.89043 10.6164 8.88578 10.0023Z" fill="black"/>
</g>
<defs>
<clipPath id="clip0_1823_1111">
<rect width="20" height="20" fill="white"/>
</clipPath>
</defs>
</svg>
