<svg width="20" height="20" viewBox="0 0 20 20" fill="none" xmlns="http://www.w3.org/2000/svg">
<g clip-path="url(#clip0_1823_1041)">
<path d="M10 0C15.5228 0 20 4.47715 20 10C20 15.5228 15.5228 20 10 20C4.47715 20 0 15.5228 0 10C0 4.47715 4.47715 0 10 0Z" fill="black"/>
<path fill-rule="evenodd" clip-rule="evenodd" d="M15.7803 18.1612C15.1439 18.6127 14.4525 18.9916 13.718 19.286C13.536 19.0305 13.3539 18.7746 13.1718 18.5186C12.8376 18.0489 12.5034 17.5792 12.1693 17.1126C12.1615 17.1048 12.1585 17.097 12.1544 17.0862C12.1518 17.0796 12.1489 17.0718 12.144 17.0621H15.7759C15.7759 17.3284 15.7773 17.5918 15.7787 17.8538C15.7793 17.9564 15.7798 18.0589 15.7803 18.1612Z" fill="white"/>
<path fill-rule="evenodd" clip-rule="evenodd" d="M12.4751 19.6913C11.9087 19.8356 11.323 19.9314 10.7226 19.9743C10.8108 19.578 10.9032 19.1817 10.9973 18.7779C11.0639 18.4922 11.1314 18.2028 11.1988 17.907C11.4511 18.2601 11.697 18.6037 11.9429 18.9474C12.1195 19.1942 12.2961 19.441 12.4751 19.6913Z" fill="white"/>
<path fill-rule="evenodd" clip-rule="evenodd" d="M9.37487 19.9808C8.61803 19.9341 7.88396 19.8032 7.18192 19.5974C7.14736 19.5036 7.12854 19.3938 7.12524 19.2685V17.2761C7.12524 17.1121 7.17569 17.0491 7.35223 17.0491C7.92391 17.0575 8.49559 17.0547 9.06727 17.0519C9.35311 17.0505 9.63895 17.0491 9.92479 17.0491H10.1139C10.0935 17.141 10.0731 17.231 10.0529 17.32C9.99836 17.5607 9.9456 17.7933 9.89957 18.0327C9.76085 18.6254 9.62214 19.2181 9.49603 19.7982C9.47096 19.8984 9.44036 19.9544 9.37487 19.9808Z" fill="white"/>
<path fill-rule="evenodd" clip-rule="evenodd" d="M19.9611 10.888C19.8299 12.3799 19.371 13.7777 18.6569 15.0092C18.4245 15.093 18.1917 15.1765 17.958 15.259C17.5418 15.4103 17.2266 15.2716 17.05 14.8554C16.962 14.6398 16.8741 14.4248 16.7863 14.2101C16.4838 13.4708 16.183 12.7356 15.8898 11.9928C15.8646 11.9298 15.8394 11.8667 15.7763 11.8163V15.8012H7.89474C9.85764 12.3398 11.8117 8.9048 13.7717 5.45938C14.1538 4.7877 14.5362 4.11562 14.9188 3.44287C15.0975 3.53936 15.2762 3.63383 15.4543 3.72799C15.9047 3.96609 16.3514 4.20226 16.7852 4.46433C17.2518 4.74176 17.5544 5.19574 17.7688 5.70016C18.311 6.98007 18.8501 8.25682 19.3892 9.53357C19.5798 9.98499 19.7704 10.4364 19.9611 10.888Z" fill="white"/>
<path d="M7.12551 14.5398C7.12551 13.6318 7.12551 12.7238 7.12551 11.8159C7.1129 11.8159 7.10029 11.8159 7.08768 11.8033C6.89852 12.2699 6.70936 12.7365 6.52021 13.203C6.29322 13.7579 6.07884 14.3002 5.85185 14.855C5.6753 15.2712 5.37264 15.4099 4.94389 15.2586C4.06115 14.9433 3.1658 14.6154 2.28306 14.2875C1.87952 14.1362 1.71558 13.7957 1.87952 13.4048C2.97664 10.807 4.07376 8.19665 5.18349 5.59887C5.42309 5.0314 5.81401 4.59003 6.35627 4.29999C6.88591 4.00994 7.42817 3.73251 7.98303 3.45508C8.00825 3.50552 8.04608 3.54335 8.0713 3.59379C8.92882 5.10706 9.78634 6.62033 10.6565 8.1336C10.7069 8.22187 10.7321 8.29753 10.6691 8.39842C9.52152 10.4161 8.37396 12.4338 7.2264 14.4515C7.21379 14.4893 7.18857 14.5145 7.16334 14.5398C7.15073 14.5398 7.13812 14.5398 7.12551 14.5398Z" fill="white"/>
<path d="M11.4518 7.02421C10.5943 5.51095 9.74939 4.03551 8.90448 2.53486C9.27019 2.13132 9.69894 1.84127 10.2286 1.753C11.0609 1.60167 11.9058 1.58906 12.7381 1.76561C13.2299 1.8665 13.6461 2.14393 13.9991 2.52224C13.1542 4.0229 12.3093 5.49834 11.4518 7.02421Z" fill="white"/>
</g>
<defs>
<clipPath id="clip0_1823_1041">
<rect width="20" height="20" fill="white"/>
</clipPath>
</defs>
</svg>
