<svg width="20" height="20" viewBox="0 0 20 20" fill="none" xmlns="http://www.w3.org/2000/svg">
<g clip-path="url(#clip0_1823_1103)">
<path d="M10 0C15.5228 0 20 4.47715 20 10C20 15.5228 15.5228 20 10 20C4.47715 20 0 15.5228 0 10C0 4.47715 4.47715 0 10 0Z" fill="#80BC3C"/>
<path fill-rule="evenodd" clip-rule="evenodd" d="M16.1574 17.8801C14.4599 19.2083 12.3224 20 10 20C7.67758 20 5.54007 19.2083 3.84263 17.8801C4.96906 17.3664 7.30322 17.0135 10 17.0135C12.6968 17.0135 15.031 17.3664 16.1574 17.8801Z" fill="black"/>
<rect x="9.56823" y="3.74353" width="0.863982" height="14.6743" rx="0.431991" fill="white"/>
<path fill-rule="evenodd" clip-rule="evenodd" d="M7.03256 7.38269C6.44148 8.20872 6.14593 8.62174 6.27756 9.01031C6.40919 9.39889 6.8949 9.54725 7.86633 9.84398L8.36458 9.99618C9.31077 10.2852 9.78387 10.4297 10.1079 10.1899C10.432 9.95 10.432 9.45533 10.432 8.46597V7.61748C10.432 5.56671 10.432 4.54132 9.87646 4.36303C9.32093 4.18474 8.72422 5.01863 7.53081 6.68639L7.03256 7.38269Z" fill="white"/>
</g>
<defs>
<clipPath id="clip0_1823_1103">
<rect width="20" height="20" fill="white"/>
</clipPath>
</defs>
</svg>
