<svg width="20" height="20" viewBox="0 0 20 20" fill="none" xmlns="http://www.w3.org/2000/svg">
<g clip-path="url(#clip0_1823_1153)">
<path fill-rule="evenodd" clip-rule="evenodd" d="M9.99988 0.000183105C15.5224 0.000183105 19.9999 4.47685 19.9999 10.0002C19.9999 15.5227 15.5224 20.0002 9.99988 20.0002C4.47654 20.0002 -0.00012207 15.5227 -0.00012207 10.0002C-0.00012207 4.47685 4.47654 0.000183105 9.99988 0.000183105Z" fill="#EAC169"/>
<path fill-rule="evenodd" clip-rule="evenodd" d="M14.8169 18.7655C13.388 19.5525 11.7462 20.0002 9.99988 20.0002C4.47654 20.0002 -0.00012207 15.5227 -0.00012207 10.0002C-0.00012207 8.85212 0.193292 7.74927 0.549316 6.72245C0.73985 6.74376 0.917674 6.76698 1.08031 6.79111C1.25636 6.81723 1.43436 6.79062 1.59588 6.71588C2.96003 6.08465 5.6609 5.19207 7.54761 5.76728C7.58875 5.77982 7.62525 5.79599 7.65817 5.81056L7.65818 5.81057C7.75272 5.85244 7.81775 5.88124 7.87853 5.7737C7.95836 5.63246 7.97742 5.44458 7.99548 5.2665L7.99548 5.26649C8.02382 4.98716 8.04971 4.73192 8.30383 4.71851C8.7409 4.69546 9.22744 4.82287 9.59271 5.2888C9.82726 5.58798 10.1673 5.81759 10.5469 5.83735C11.6269 5.89356 13.157 6.34952 13.8353 7.86723C13.9185 8.05346 14.0495 8.21797 14.227 8.31851L17.3158 10.0683C17.5249 10.1645 17.8176 10.4726 17.3158 10.9346C16.9958 11.2292 16.4424 11.3829 15.9601 11.4556C15.761 11.4857 15.6863 11.7759 15.8572 11.8824C15.9416 11.935 15.9726 12.0442 15.896 12.1076C15.5171 12.4213 14.214 12.7018 11.1003 11.9741C10.2651 11.7789 9.57258 11.602 8.99228 11.4538L8.99224 11.4538C6.48253 10.8127 6.07135 10.7076 5.28402 11.9741C4.77522 12.7925 4.40224 13.3242 4.1683 13.6312C4.01587 13.8313 3.92888 14.0832 3.97189 14.3309C4.06679 14.8776 4.2552 15.5824 4.54272 15.728C4.89903 15.9084 7.49485 16.0302 8.8381 16.0716C8.90195 16.0736 8.96469 16.0674 9.02794 16.0584C9.44861 15.9984 10.2668 16.0238 10.8152 16.5365C11.3171 17.0057 12.1539 17.8941 12.6758 18.4595C12.8351 18.6321 13.059 18.7311 13.294 18.7311H14.5763C14.6579 18.7311 14.7386 18.7435 14.8169 18.7655ZM5.5173 17.9482C6.34432 19.1888 9.71671 19.1888 10.8929 19.1888L8.5497 17.9482H5.5173Z" fill="#836846"/>
<path fill-rule="evenodd" clip-rule="evenodd" d="M1.63196 15.4775C0.600029 13.9042 -0.00012207 12.0222 -0.00012207 10.0002C-0.00012207 8.7775 0.219248 7.60612 0.62078 6.52322C0.75022 6.54113 0.88006 6.56072 1.01026 6.58205C1.28287 6.62672 1.51073 6.81137 1.62024 7.06497L4.3338 13.3488C4.52636 13.7947 4.29919 14.3096 3.84667 14.4861C3.15281 14.7568 2.36423 15.0987 1.63196 15.4775Z" fill="black"/>
</g>
<defs>
<clipPath id="clip0_1823_1153">
<rect width="20" height="20" fill="white"/>
</clipPath>
</defs>
</svg>
