<svg width="20" height="20" viewBox="0 0 20 20" fill="none" xmlns="http://www.w3.org/2000/svg">
<g clip-path="url(#clip0_1823_922)">
<path d="M10.0006 0.00170898C15.5235 0.00170898 20.0006 4.47886 20.0006 10.0017C20.0006 15.5246 15.5235 20.0017 10.0006 20.0017C4.47776 20.0017 0.000610352 15.5246 0.000610352 10.0017C0.000610352 4.47886 4.47776 0.00170898 10.0006 0.00170898Z" fill="#FF9B3E"/>
<path d="M14.1544 11.8573C13.6366 12.7755 12.9852 13.5769 12.2502 14.3114C10.0955 16.4317 7.5233 17.6337 4.51678 17.9843C4.14932 18.0344 3.86537 17.9342 3.58142 17.6838C2.69617 16.9159 1.92783 16.0644 1.35993 15.0293C1.1762 14.6954 1.22631 14.6119 1.61048 14.5452C4.76732 14.0443 7.5066 12.7087 9.84501 10.5551C10.0621 10.3547 10.2626 10.2212 10.5465 10.338C11.6489 10.7721 12.7513 11.2062 13.8537 11.6569C13.9706 11.6903 14.0541 11.7738 14.1544 11.8573Z" fill="white"/>
<path d="M19.0652 14.161C18.4472 13.5767 17.8793 12.9924 17.278 12.4415C15.5409 10.8888 13.5365 9.77026 11.2816 9.16924C10.7472 9.01898 10.4799 8.76856 10.4465 8.25101C10.3797 7.11575 10.3463 5.9805 10.3129 4.84524C10.2962 4.46125 10.4799 4.311 10.8641 4.42786C12.0333 4.81185 13.2192 5.14575 14.355 5.61321C16.2758 6.39787 18.0129 7.49974 19.6164 8.81864C19.8669 9.03568 20.0006 9.25271 20.0006 9.58661C20.034 11.0391 19.8168 12.4581 19.2489 13.8104C19.1988 13.9607 19.1153 14.0609 19.0652 14.161Z" fill="white"/>
<path d="M6.18713 19.0864C6.40427 19.0197 6.62141 18.9362 6.83854 18.8861C9.71144 18.1181 12.1167 16.5989 14.0375 14.3117C14.405 13.8776 14.739 13.4268 15.0397 12.9427C15.2568 12.6088 15.4572 12.5754 15.7245 12.8592C16.5095 13.6439 17.2946 14.4118 18.0796 15.1798C18.2967 15.3969 18.2967 15.5972 18.0963 15.8643C16.426 18.1014 14.2379 19.437 11.4652 19.8878C9.77825 20.1549 8.15807 19.9379 6.5713 19.387C6.43767 19.3369 6.32075 19.2534 6.18713 19.1866C6.18713 19.1699 6.18713 19.1365 6.18713 19.0864Z" fill="#256BAB"/>
<path d="M4.40004 6.29797C4.51696 4.72864 4.61718 3.40974 5.10156 2.14092C5.15167 2.02405 5.13497 1.89049 5.16837 1.77363C5.3187 1.35626 5.53584 1.00566 5.98682 0.838711C7.12261 0.387947 8.29181 0.0373523 9.52783 0.00396239C9.99551 -0.0127326 10.0456 0.0540473 9.87859 0.521507C9.16037 2.50821 8.82631 4.56169 8.94323 6.68195C8.97663 7.41653 9.11026 8.13442 9.21047 8.86899C9.26058 9.1695 9.21047 9.40323 8.94323 9.58688C8.04127 10.238 7.13931 10.9058 6.23736 11.5736C5.93671 11.7906 5.75297 11.7071 5.63605 11.3899C5.3521 10.6053 5.00134 9.82061 4.81761 9.00255C4.61718 8.05094 4.40004 7.19542 4.40004 6.29797Z" fill="white"/>
<path d="M3.51466 2.59144C3.49796 2.74169 3.51466 2.89195 3.48126 3.02551C3.08039 4.76179 3.03028 6.49806 3.31423 8.26773C3.53137 9.58663 3.93224 10.8388 4.48343 12.0408C4.61706 12.3246 4.50014 12.4415 4.26629 12.4916C3.21401 12.7587 2.14503 13.0091 1.09274 13.2595C0.675172 13.3597 0.474737 13.1427 0.391222 12.7754C-0.0263501 11.1727 -0.14327 9.56994 0.224193 7.93383C0.675172 5.93043 1.61053 4.22755 3.08039 2.80847C3.18061 2.7083 3.29753 2.62483 3.41445 2.52466C3.43115 2.55805 3.48126 2.57474 3.51466 2.59144Z" fill="#256BAB"/>
<path d="M19.3322 6.8991C18.6307 6.46503 17.9459 5.99757 17.2277 5.58019C15.3068 4.46163 13.2524 3.66027 11.081 3.14273C10.6801 3.04256 10.5799 2.85891 10.6801 2.49162C10.8973 1.80713 11.1144 1.12263 11.3483 0.454836C11.4318 0.171021 11.6322 0.120936 11.8995 0.171021C14.8726 0.80543 17.1609 2.39145 18.6808 5.04595C18.9147 5.44663 19.0984 5.84731 19.2821 6.26469C19.3656 6.44833 19.3824 6.64867 19.4325 6.83232C19.4158 6.86571 19.3656 6.8824 19.3322 6.8991Z" fill="#256BAB"/>
</g>
<defs>
<clipPath id="clip0_1823_922">
<rect width="20" height="20" fill="white"/>
</clipPath>
</defs>
</svg>
