<svg width="20" height="20" viewBox="0 0 20 20" fill="none" xmlns="http://www.w3.org/2000/svg">
<g clip-path="url(#clip0_1823_1204)">
<path d="M10 0C15.5228 0 20 4.47715 20 10C20 15.5228 15.5228 20 10 20C4.47715 20 0 15.5228 0 10C0 4.47715 4.47715 0 10 0Z" fill="#EAC169"/>
<path d="M14.5988 18.8822C13.222 19.5964 11.6581 20 10 20C5.28849 20 1.33799 16.7416 0.278992 12.3554L4.37809 5.91395C4.7675 5.30202 5.65843 5.29522 6.05712 5.90114L14.5988 18.8822Z" fill="#51391E"/>
<path d="M2.51947 16.6365L12.2767 1.30369C12.6662 0.691757 13.5571 0.684963 13.9558 1.29088L19.9896 10.4607C19.7489 15.7697 15.3685 20 10 20C7.02383 20 4.35133 18.6998 2.51947 16.6365Z" fill="#826846"/>
</g>
<defs>
<clipPath id="clip0_1823_1204">
<rect width="20" height="20" fill="white"/>
</clipPath>
</defs>
</svg>
