<svg width="20" height="20" viewBox="0 0 20 20" fill="none" xmlns="http://www.w3.org/2000/svg">
<g clip-path="url(#clip0_1823_1228)">
<circle cx="10" cy="10" r="10" transform="matrix(-1 0 0 1 19.9999 -0.00012207)" fill="#DF5252"/>
<path fill-rule="evenodd" clip-rule="evenodd" d="M14.201 3.86392C15.1191 4.53942 15.4866 5.59916 15.0218 6.23092C14.557 6.86268 13.4359 6.82722 12.5178 6.15172C11.5996 5.47622 11.2321 4.41648 11.6969 3.78472C12.1617 3.15297 13.2828 3.18843 14.201 3.86392ZM17.1076 9.4553C17.4578 10.54 17.0053 11.6571 16.0968 11.9505C15.1884 12.2438 14.168 11.6022 13.8178 10.5175C13.4675 9.43281 13.9201 8.31568 14.8285 8.02236C15.737 7.72903 16.7573 8.37058 17.1076 9.4553ZM11.3554 9.27386C11.9301 8.27837 11.5958 7.00934 10.6086 6.43941C9.62149 5.86949 8.35532 6.21447 7.78058 7.20996C7.20583 8.20545 7.54015 9.47447 8.5273 10.0444C9.51444 10.6143 10.7806 10.2693 11.3554 9.27386Z" fill="black"/>
</g>
<defs>
<clipPath id="clip0_1823_1228">
<rect width="20" height="20" fill="white"/>
</clipPath>
</defs>
</svg>
