<svg width="20" height="20" viewBox="0 0 20 20" fill="none" xmlns="http://www.w3.org/2000/svg">
<g clip-path="url(#clip0_1823_1111)">
<path fill-rule="evenodd" clip-rule="evenodd" d="M0 10C0 4.47731 4.47713 0 9.99959 0C15.5229 0 20 4.47731 20 10C20 15.5227 15.5229 20 9.99959 20C4.47713 20 0 15.5227 0 10Z" fill="white"/>
<path d="M20 10.007C20 15.5339 15.5106 20.0047 9.98369 20C4.47078 19.9907 -0.00467914 15.506 -2.68939e-05 9.9884C0.00462535 4.48945 4.49404 -0.00461812 9.97904 3.41263e-05C15.5338 0.00468637 20 4.47084 20 10.007ZM16.4643 10.0024C16.455 6.42943 13.5566 3.54039 9.98834 3.5497C6.42472 3.559 3.53103 6.46665 3.54963 10.0163C3.56824 13.5846 6.45729 16.4597 10.0256 16.4504C13.5752 16.4364 16.4736 13.5381 16.4643 10.0024Z" fill="black"/>
<path d="M16.1107 9.99764C16.1247 13.3379 13.3938 16.0781 10.0349 16.0967C6.66667 16.1153 3.9172 13.3845 3.90789 10.0069C3.89859 6.64802 6.62945 3.9032 9.99303 3.8939C13.3612 3.88924 16.0968 6.61546 16.1107 9.99764ZM9.89533 14.4591C9.83485 13.9195 9.77437 13.2961 9.68598 12.6773C9.6348 12.3052 9.18819 12.147 8.92766 12.4075C8.48105 12.8634 8.04374 13.3379 7.62038 13.8171C7.42034 14.0404 7.49477 14.2963 7.7646 14.4312C8.30891 14.7057 8.88579 14.8778 9.49524 14.9337C9.81624 14.9662 9.90928 14.8685 9.89533 14.4591ZM9.59293 6.33167C9.61154 6.04323 9.6348 5.75479 9.63945 5.47101C9.64411 5.15931 9.49989 5.0523 9.19749 5.09883C8.61596 5.19187 8.07165 5.38261 7.55525 5.67105C7.20633 5.86645 7.17842 6.0851 7.46686 6.36889C7.87625 6.77363 8.29496 7.17373 8.70435 7.57382C8.85323 7.72269 9.02071 7.79248 9.23006 7.71339C9.43941 7.6343 9.5185 7.47147 9.53245 7.25747C9.55571 6.95042 9.57432 6.64337 9.59293 6.33167ZM5.01513 10.086C5.057 10.3791 5.09421 10.7373 5.15469 11.0909C5.19656 11.3514 5.36404 11.4491 5.60596 11.3468C6.20145 11.0863 6.79228 10.8211 7.36916 10.528C7.69016 10.3652 7.68086 9.89064 7.3552 9.73246C6.77833 9.45333 6.19214 9.1928 5.60596 8.94158C5.34543 8.82993 5.13143 8.96484 5.09887 9.24398C5.06165 9.5045 5.04769 9.76037 5.01513 10.086ZM12.3424 8.70897C12.9425 8.59731 13.6078 8.48566 14.2684 8.34609C14.501 8.29492 14.5801 8.04835 14.4731 7.82969C14.194 7.26212 13.8218 6.75968 13.3566 6.33167C13.1705 6.15954 12.9798 6.16884 12.8449 6.39215C12.5099 6.93646 12.1842 7.49008 11.8725 8.04835C11.7051 8.35075 11.933 8.70432 12.3424 8.70897ZM7.62503 11.3049C7.0342 11.4398 6.36428 11.5794 5.70366 11.7469C5.50361 11.7981 5.45244 12.0121 5.55013 12.2028C5.83392 12.7797 6.22006 13.2775 6.69458 13.7055C6.91789 13.9055 7.09003 13.8869 7.24355 13.6171C7.54595 13.0774 7.84369 12.5378 8.13213 11.9888C8.29961 11.6678 8.067 11.3096 7.62503 11.3049ZM7.5506 8.83923C7.95069 8.84854 8.174 8.49962 8.01117 8.16931C7.93208 8.00648 7.83438 7.85761 7.74134 7.69943C7.51803 7.3226 7.30403 6.94112 7.07142 6.56428C6.90859 6.29911 6.70854 6.27585 6.49919 6.48054C6.05723 6.9132 5.71296 7.41564 5.45709 7.97857C5.31752 8.29027 5.39661 8.43914 5.72692 8.51357C5.7967 8.52753 5.87114 8.53683 5.94092 8.55079C6.49454 8.64849 7.03885 8.74619 7.5506 8.83923ZM14.9942 9.98833C14.957 9.67198 14.9198 9.32772 14.8686 8.9881C14.8314 8.74153 14.6639 8.63918 14.4313 8.74153C13.8404 9.00206 13.2496 9.27189 12.6727 9.56033C12.361 9.7185 12.3471 10.1884 12.6588 10.3419C13.2496 10.635 13.859 10.9002 14.4685 11.1607C14.6964 11.2584 14.8546 11.1467 14.8918 10.9002C14.9337 10.6024 14.957 10.3093 14.9942 9.98833ZM10.3885 5.04765C10.2256 5.043 10.0861 5.22444 10.1186 5.46635C10.2024 6.07115 10.3001 6.67594 10.3885 7.28073C10.421 7.48543 10.528 7.62034 10.7327 7.67617C10.9328 7.72734 11.0863 7.65291 11.2119 7.50869C11.4306 7.25747 11.6446 7.00625 11.8632 6.75503C12.04 6.54567 12.2261 6.34563 12.3982 6.13163C12.5843 5.89901 12.5518 5.73153 12.2959 5.59662C11.7097 5.28957 11.077 5.09883 10.3885 5.04765ZM10.3466 14.5475C10.3373 14.8499 10.4629 14.9569 10.7653 14.9104C11.384 14.8174 11.9609 14.5987 12.5006 14.287C12.7565 14.1381 12.789 13.9753 12.589 13.7567C12.1656 13.3054 11.7283 12.8634 11.2957 12.4168C11.1607 12.2772 10.9933 12.2493 10.8165 12.3145C10.6397 12.3749 10.5234 12.5052 10.5048 12.6959C10.4536 13.31 10.4024 13.9288 10.3466 14.5475ZM11.933 11.7422C11.9516 11.7841 11.9795 11.8818 12.0307 11.9702C12.3238 12.4587 12.6169 12.9472 12.9146 13.431C12.9425 13.4729 12.9658 13.5194 12.9984 13.5566C13.1472 13.7427 13.2636 13.752 13.4403 13.5845C13.9009 13.1472 14.2638 12.6401 14.529 12.0632C14.6778 11.7422 14.5987 11.5887 14.2452 11.5282C13.6543 11.4259 13.0682 11.3282 12.4773 11.2305C12.1889 11.184 11.9377 11.398 11.933 11.7422ZM11.4259 9.98833C11.4213 9.1928 10.7839 8.56475 9.98837 8.57405C9.19749 8.57871 8.55548 9.22537 8.56479 10.0116C8.57409 10.7932 9.22541 11.4352 10.0116 11.4352C10.7979 11.4305 11.4352 10.7792 11.4259 9.98833Z" fill="#B8CBCF"/>
<path d="M8.88578 10.0024C8.88112 9.38828 9.36961 8.88584 9.98836 8.87653C10.6164 8.86723 11.1189 9.36502 11.1235 9.98842C11.1235 10.6118 10.6211 11.1189 10.0023 11.1143C9.38822 11.1189 8.89043 10.6165 8.88578 10.0024Z" fill="black"/>
</g>
<defs>
<clipPath id="clip0_1823_1111">
<rect width="20" height="20" fill="white"/>
</clipPath>
</defs>
</svg>
