<svg width="20" height="20" viewBox="0 0 20 20" fill="none" xmlns="http://www.w3.org/2000/svg">
<g clip-path="url(#clip0_1823_913)">
<path d="M10.0006 0.00170898C15.5235 0.00170898 20.0006 4.47886 20.0006 10.0017C20.0006 15.5246 15.5235 20.0017 10.0006 20.0017C4.47776 20.0017 0.000610352 15.5246 0.000610352 10.0017C0.000610352 4.47886 4.47776 0.00170898 10.0006 0.00170898Z" fill="#DF5252"/>
<path fill-rule="evenodd" clip-rule="evenodd" d="M18.1776 4.24389C19.3261 5.87184 20.0006 7.85801 20.0006 10.0017C20.0006 11.9962 19.4167 13.8544 18.4105 15.4145C18.0314 15.6103 17.6242 15.722 17.1984 15.7343C15.5734 15.7814 14.1348 14.3683 13.4628 12.306L15.8396 12.2373C17.2369 12.1968 18.1067 10.9381 18.0713 9.71585C18.0359 8.49356 17.0948 7.2873 15.6975 7.32774L13.3807 7.39479C13.9633 5.40055 15.2835 3.99762 16.8574 3.95207C17.3167 3.93877 17.7612 4.04215 18.1776 4.24389Z" fill="black"/>
<path d="M3.99217 7.6683C4.5594 5.25798 5.99733 3.53727 7.72957 3.48713C10.0414 3.42023 12.0019 6.35414 12.1086 10.0402C12.2153 13.7263 10.4277 16.7686 8.11587 16.8355C6.31216 16.8877 4.72226 15.1132 4.05986 12.58L6.79672 12.4993C8.15215 12.4597 9.21967 11.329 9.18044 9.97348C9.1412 8.61775 8.01037 7.55053 6.65464 7.58976L3.99217 7.6683Z" fill="black"/>
<path d="M11.9638 8.56715L15.7304 8.45814C16.3779 8.4394 16.9199 9.01717 16.9411 9.74861C16.9623 10.4801 16.4545 11.0882 15.807 11.1069L12.0787 11.2148C12.1101 10.8328 12.1208 10.4402 12.1092 10.04C12.0945 9.53283 12.0448 9.03994 11.9638 8.56715Z" fill="#B8CBCF"/>
<path fill-rule="evenodd" clip-rule="evenodd" d="M2.07985 10.181C2.10102 10.9124 2.71113 11.4882 3.44258 11.467L6.76408 11.3691C7.49553 11.3479 8.07132 10.7378 8.05015 10.0063C8.02898 9.27489 7.41887 8.6991 6.68742 8.72027L3.36592 8.81824C2.63448 8.83941 2.05869 9.44953 2.07985 10.181Z" fill="#B8CBCF"/>
</g>
<defs>
<clipPath id="clip0_1823_913">
<rect width="20" height="20" fill="white"/>
</clipPath>
</defs>
</svg>
