<svg width="20" height="20" viewBox="0 0 20 20" fill="none" xmlns="http://www.w3.org/2000/svg">
<g clip-path="url(#clip0_1823_1103)">
<path d="M10 0C15.5228 0 20 4.47715 20 10C20 15.5228 15.5228 20 10 20C4.47715 20 0 15.5228 0 10C0 4.47715 4.47715 0 10 0Z" fill="#80BC3C"/>
<path fill-rule="evenodd" clip-rule="evenodd" d="M16.1574 17.8801C14.4599 19.2083 12.3224 20 9.99999 20C7.67757 20 5.54006 19.2083 3.84262 17.8801C4.96905 17.3664 7.30321 17.0135 10 17.0135C12.6968 17.0135 15.0309 17.3664 16.1574 17.8801Z" fill="black"/>
<rect x="9.56824" y="3.7435" width="0.863982" height="14.6743" rx="0.431991" fill="white"/>
<path fill-rule="evenodd" clip-rule="evenodd" d="M7.03256 7.38263C6.44148 8.20866 6.14593 8.62167 6.27756 9.01025C6.40919 9.39883 6.8949 9.54719 7.86633 9.84392L8.36458 9.99612C9.31077 10.2851 9.78387 10.4297 10.1079 10.1898C10.432 9.94994 10.432 9.45527 10.432 8.46591V7.61742C10.432 5.56665 10.432 4.54126 9.87646 4.36297C9.32093 4.18468 8.72422 5.01856 7.53081 6.68633L7.03256 7.38263Z" fill="white"/>
</g>
<defs>
<clipPath id="clip0_1823_1103">
<rect width="20" height="20" fill="white"/>
</clipPath>
</defs>
</svg>
