<svg width="20" height="20" viewBox="0 0 20 20" fill="none" xmlns="http://www.w3.org/2000/svg">
<g clip-path="url(#clip0_1823_1145)">
<path d="M10 7.62939e-06C15.5228 7.62939e-06 20 4.47716 20 10C20 15.5229 15.5228 20 10 20C4.47715 20 0 15.5229 0 10C0 4.47716 4.47715 7.62939e-06 10 7.62939e-06Z" fill="#FFCE0D"/>
<path fill-rule="evenodd" clip-rule="evenodd" d="M18.0221 4.02853C19.2645 5.69493 20 7.76158 20 10C20 11.8999 19.4702 13.676 18.5503 15.1886C18.5318 15.1746 18.5134 15.1604 18.495 15.1462C17.9223 14.7085 17.3496 14.2489 16.8227 13.7674C16.2042 13.2421 15.5169 12.8919 14.6922 12.87C13.4781 12.8481 12.2639 12.87 11.0269 12.9138C10.3625 12.9357 9.81273 13.264 9.30874 13.6798C8.50695 14.3364 7.65934 14.9711 6.83464 15.584C6.60555 15.7591 6.30774 15.8466 6.00993 15.9342C5.11651 16.153 4.5438 15.8247 4.2689 14.9711C3.97109 14.03 3.92527 13.067 4.10854 12.0821C4.17363 11.7356 4.23117 11.3855 4.28882 11.0347C4.37321 10.5214 4.45783 10.0065 4.5667 9.49943C4.68125 8.99603 4.84161 8.49263 5.02487 7.98923C5.05144 7.91816 5.078 7.8468 5.10464 7.77525C5.3077 7.22977 5.51492 6.67315 5.75794 6.15073C6.05575 5.51601 6.4681 4.96884 6.995 4.48733C7.61352 3.94015 8.62149 3.87449 9.33165 4.24657C9.44047 4.30129 9.54928 4.35737 9.6581 4.41346C9.98454 4.58171 10.311 4.74997 10.6374 4.88129C10.8665 4.96884 11.1414 5.01261 11.3934 5.01261C12.0968 5.02722 12.8104 5.02233 13.5205 5.01746C13.8743 5.01503 14.2273 5.01261 14.5777 5.01261C15.0588 5.01261 15.4711 4.8594 15.8835 4.66242L16.502 4.33412C17.0081 4.04171 17.5325 3.94579 18.0221 4.02853ZM10.1793 8.88659C10.1793 9.58697 9.53783 10.156 8.78185 10.156C8.00296 10.156 7.40735 9.58697 7.40735 8.88659C7.43025 8.18621 8.04878 7.59527 8.80476 7.59527C9.53783 7.59527 10.1793 8.18621 10.1793 8.88659ZM16.0896 7.57338C16.0896 7.26696 16.3187 7.04809 16.6623 7.04809C17.006 7.04809 17.2809 7.28885 17.2809 7.59527C17.2809 7.8798 17.006 8.14244 16.6853 8.14244C16.3416 8.14244 16.0896 7.8798 16.0896 7.57338ZM18.0368 8.33942C18.4034 8.33942 18.6325 8.55829 18.6325 8.88659C18.6325 9.19301 18.3805 9.41188 18.0598 9.41188C17.739 9.41188 17.4641 9.17112 17.4641 8.86471C17.4641 8.55829 17.6932 8.33942 18.0368 8.33942ZM16.6853 9.60886C17.0289 9.60886 17.2809 9.8715 17.2809 10.1779C17.2809 10.4624 17.006 10.7032 16.6853 10.7032C16.3645 10.7032 16.0896 10.4624 16.0896 10.156C16.0896 9.82773 16.3416 9.60886 16.6853 9.60886ZM14.7151 8.84282C14.738 8.51452 14.9442 8.33942 15.3107 8.33942C15.6773 8.33942 15.9293 8.60206 15.9064 8.88659C15.8835 9.17112 15.6086 9.41188 15.2878 9.41188C14.9442 9.41188 14.7151 9.17112 14.7151 8.84282Z" fill="#256BAB"/>
<path d="M17.2808 10.1782C17.2808 9.87153 17.0288 9.60867 16.6852 9.60867C16.3416 9.60867 16.0896 9.82772 16.0896 10.1563C16.0896 10.463 16.3645 10.7039 16.6852 10.7039C17.0059 10.7039 17.2808 10.463 17.2808 10.1782Z" fill="#84D9FF"/>
<path d="M18.6325 8.887C18.6325 8.55842 18.4034 8.33937 18.0369 8.33937C17.6932 8.33937 17.4641 8.55842 17.4641 8.86509C17.4641 9.17177 17.739 9.41272 18.0598 9.41272C18.3805 9.41272 18.6325 9.19367 18.6325 8.887Z" fill="#71AB7E"/>
<path d="M16.6623 7.04797C16.3187 7.04797 16.0896 7.26702 16.0896 7.57369C16.0896 7.88036 16.3416 8.14322 16.6852 8.14322C17.0059 8.14322 17.2808 7.88036 17.2808 7.59559C17.2808 7.28892 17.0059 7.04797 16.6623 7.04797Z" fill="#DF5252"/>
<ellipse cx="8.86486" cy="8.86085" rx="1.94595" ry="1.94433" fill="#20406B"/>
</g>
<defs>
<clipPath id="clip0_1823_1145">
<rect width="20" height="20" fill="white"/>
</clipPath>
</defs>
</svg>
