<svg width="20" height="20" viewBox="0 0 20 20" fill="none" xmlns="http://www.w3.org/2000/svg">
<g clip-path="url(#clip0_1823_1204)">
<path d="M10 0C15.5228 0 20 4.47715 20 10C20 15.5228 15.5228 20 10 20C4.47715 20 0 15.5228 0 10C0 4.47715 4.47715 0 10 0Z" fill="#EAC169"/>
<path d="M14.5987 18.8822C13.222 19.5964 11.6581 20 10 20C5.28848 20 1.33798 16.7416 0.27898 12.3554L4.37808 5.91393C4.76749 5.302 5.65842 5.29521 6.05711 5.90112L14.5987 18.8822Z" fill="#51391E"/>
<path d="M2.51947 16.6366L12.2767 1.3037C12.6662 0.691772 13.5571 0.684978 13.9558 1.29089L19.9896 10.4607C19.7488 15.7697 15.3684 20 10 20C7.02383 20 4.35132 18.6999 2.51947 16.6366Z" fill="#826846"/>
</g>
<defs>
<clipPath id="clip0_1823_1204">
<rect width="20" height="20" fill="white"/>
</clipPath>
</defs>
</svg>
