<svg width="20" height="20" viewBox="0 0 20 20" fill="none" xmlns="http://www.w3.org/2000/svg">
<g clip-path="url(#clip0_1823_1162)">
<path fill-rule="evenodd" clip-rule="evenodd" d="M10.0005 -0.00134277C15.523 -0.00134277 20.0005 4.47532 20.0005 9.99866C20.0005 15.5212 15.523 19.9987 10.0005 19.9987C4.47715 19.9987 0.000488281 15.5212 0.000488281 9.99866C0.000488281 4.47532 4.47715 -0.00134277 10.0005 -0.00134277Z" fill="#20406B"/>
<path fill-rule="evenodd" clip-rule="evenodd" d="M15.154 18.57C14.5659 18.9244 13.9383 19.22 13.2794 19.4486L12.5431 16.5488C10.6868 16.7021 8.89827 15.9911 7.65187 14.698C7.44094 14.734 7.25937 14.7532 7.08633 14.756C5.472 14.7817 3.98122 13.8947 3.23372 12.4636C3.00267 12.0212 2.85795 11.4513 2.56852 10.3113L2.49776 10.0326C2.29465 9.23269 2.19309 8.8327 2.20605 8.48215C2.23673 7.6524 2.68727 6.8952 3.40188 6.47241C3.7038 6.29379 4.10378 6.19224 4.90374 5.98912L5.72882 5.77964C6.11298 5.16457 6.68004 4.66258 7.37853 4.36013C7.64776 4.24355 7.98341 4.15833 8.65471 3.98788L11.9392 3.15395C12.6105 2.98351 12.9461 2.89828 13.2384 2.87231C13.9965 2.80491 14.7344 2.97559 15.3655 3.3329L16.1905 3.12343C16.5491 3.03238 16.8273 2.96174 17.0567 2.91268C18.875 4.72341 20.0005 7.22947 20.0005 9.99861C20.0005 10.1724 19.9961 10.3452 19.9873 10.5168C19.6006 11.0751 19.0794 11.5432 18.4545 11.8696C18.3011 11.9497 18.1324 12.0195 17.9298 12.0885C17.4512 13.8196 16.2185 15.2977 14.5138 16.0485L15.154 18.57ZM18.3073 8.05589C18.3134 8.43789 18.2002 8.80374 17.9944 9.10874C17.9836 9.06157 17.9722 9.01439 17.9602 8.96723L17.2931 6.33965L17.2931 6.3396C17.1888 5.92895 17.1165 5.64391 17.0493 5.42284C17.3155 5.35579 17.4844 5.31491 17.6165 5.28827L17.643 5.28304L17.6511 5.30887C17.7022 5.47516 17.7617 5.70646 17.8692 6.12984L17.9399 6.40852C18.2636 7.68332 18.3051 7.91391 18.3073 8.05589ZM5.24593 8.41971C5.29236 8.64606 5.36473 8.93112 5.46901 9.3418L6.13615 11.9694C6.14813 12.0165 6.16062 12.0634 6.17363 12.1101C5.84722 11.9402 5.57322 11.6726 5.39633 11.334C5.33059 11.2081 5.25701 10.9857 4.93333 9.7109L4.86258 9.43222C4.75508 9.00883 4.69699 8.77718 4.6626 8.60664L4.65737 8.5801L4.6832 8.57203C4.81204 8.53241 4.97991 8.4878 5.24593 8.41971Z" fill="#FFCE0D"/>
<path d="M3.6958 7.75106L4.19794 6.00179L3.19688 4.48192L4.94615 4.98407L6.46602 3.983L5.96387 5.73228L6.96494 7.25214L5.21566 6.75L3.6958 7.75106Z" fill="white"/>
</g>
<defs>
<clipPath id="clip0_1823_1162">
<rect width="20" height="20" fill="white"/>
</clipPath>
</defs>
</svg>
