<svg width="20" height="20" viewBox="0 0 20 20" fill="none" xmlns="http://www.w3.org/2000/svg">
<g clip-path="url(#clip0_1823_1073)">
<path d="M10 0C15.5228 0 20 4.47715 20 10C20 15.5228 15.5228 20 10 20C4.47715 20 0 15.5228 0 10C0 4.47715 4.47715 0 10 0Z" fill="#80BC3C"/>
<path d="M2.34833 16.4387C0.882951 14.699 0 12.4526 0 10C0 7.75058 0.742707 5.67462 1.99628 4.00399C2.56478 3.86664 3.03119 3.72515 3.44441 3.5998C4.52152 3.27305 5.23733 3.05591 6.45833 3.30729C7.61622 3.54568 8.53104 3.58047 9.31369 3.61023C9.69049 3.62456 10.0367 3.63772 10.3646 3.67188C10.3646 3.67188 10.026 2.29167 10.7152 1.40186L11.2621 3.40707C11.2621 3.40707 11.4228 2.03126 12.2656 2.03126V5.23437C13.653 7.56776 15.9723 11.5302 16.6282 12.9429C17.448 14.7087 16.7191 15.4468 15.5208 15.5729C14.5623 15.6738 13.0447 14.2285 12.7083 13.6609L8.35723 11.4404C6.73694 10.5315 5.56307 12.1464 4.05996 14.2142C3.5396 14.93 2.97978 15.7002 2.34833 16.4387Z" fill="#51391E"/>
<path d="M0.789499 13.9011C0.432915 13.0602 0.188112 12.1605 0.0737305 11.2205C0.755577 11.9106 1.40304 12.5421 2.02352 13.1103C3.4094 14.3795 4.6266 15.3009 5.75371 15.8514C6.86725 16.3953 7.86712 16.5652 8.85008 16.3696C9.84526 16.1715 10.9108 15.5814 12.1147 14.441C12.399 14.1717 12.8479 14.1838 13.1172 14.4682C13.3866 14.7525 13.3744 15.2014 13.0901 15.4707C11.7688 16.7222 10.4717 17.493 9.12692 17.7606C7.76989 18.0307 6.45238 17.7711 5.13125 17.1258C3.82369 16.4872 2.48892 15.4598 1.06561 14.1563C0.974084 14.0725 0.882053 13.9874 0.789499 13.9011Z" fill="white"/>
<path fill-rule="evenodd" clip-rule="evenodd" d="M16.2814 11.3163C16.5575 11.594 16.5563 12.043 16.2785 12.3192L13.0651 15.5141C12.7874 15.7903 12.3383 15.789 12.0622 15.5112C11.786 15.2335 11.7873 14.7845 12.0651 14.5083L15.2785 11.3134C15.5562 11.0372 16.0053 11.0385 16.2814 11.3163Z" fill="white"/>
<path d="M13.6247 9.03131L12.8951 7.87609C12.7881 7.70662 12.526 7.78245 12.526 7.98289V8.79955C12.526 8.9831 12.651 9.14309 12.829 9.18761L13.4071 9.33214C13.5821 9.37589 13.7211 9.18384 13.6247 9.03131Z" fill="#826846"/>
<path fill-rule="evenodd" clip-rule="evenodd" d="M12.6832 4.83731C13.0086 5.05536 13.0956 5.49587 12.8775 5.82122L8.97452 11.6448C8.75646 11.9701 8.31595 12.0571 7.9906 11.8391C7.66525 11.621 7.57827 11.1805 7.79632 10.8552L11.6993 5.03159C11.9174 4.70624 12.3579 4.61925 12.6832 4.83731Z" fill="white"/>
<path fill-rule="evenodd" clip-rule="evenodd" d="M9.63411 8.69796C9.95051 8.46712 10.3941 8.53648 10.625 8.85289L13.9507 13.4114C14.1816 13.7278 14.1122 14.1714 13.7958 14.4022C13.4794 14.6331 13.0358 14.5637 12.8049 14.2473L9.47918 9.68883C9.24834 9.37243 9.3177 8.9288 9.63411 8.69796Z" fill="white"/>
</g>
<defs>
<clipPath id="clip0_1823_1073">
<rect width="20" height="20" fill="white"/>
</clipPath>
</defs>
</svg>
