<svg width="20" height="20" viewBox="0 0 20 20" fill="none" xmlns="http://www.w3.org/2000/svg">
<g clip-path="url(#clip0_1823_1347)">
<path fill-rule="evenodd" clip-rule="evenodd" d="M10 0C15.5225 0 20 4.47667 20 10C20 15.5225 15.5225 20 10 20C4.47667 20 0 15.5225 0 10C0 4.47667 4.47667 0 10 0Z" fill="#20406B"/>
<path d="M12.7367 17.9779C6.87196 17.9779 2.11764 13.2236 2.11764 7.35887C2.11764 5.79213 2.45694 4.30464 3.06606 2.96587C4.35417 2.41064 5.77408 2.10304 7.26583 2.10304C7.9933 2.10304 8.70368 2.17619 9.39002 2.31554C6.12364 3.13613 3.45801 5.4698 2.18163 8.52805C2.27899 9.4168 2.48601 10.2726 2.78888 11.0815C4.38122 7.18894 7.75105 4.21197 11.8893 3.15969C14.1129 4.23682 15.9041 6.06674 16.9316 8.31836C15.7493 12.4194 12.662 15.7131 8.68965 17.1794C9.55711 17.5373 10.4824 17.7836 11.4475 17.9004C14.553 16.5683 16.8953 13.7979 17.6363 10.4272C17.7991 11.1663 17.8849 11.9342 17.8849 12.7221C17.8849 14.2889 17.5456 15.7763 16.9365 17.1151C15.6484 17.6703 14.2285 17.9779 12.7367 17.9779Z" fill="white"/>
<path fill-rule="evenodd" clip-rule="evenodd" d="M13.5882 8.48478C13.3581 8.18359 13.0874 7.86113 12.778 7.53629L12.4973 7.7963L12.1329 7.40286L12.3987 7.15654C12.1346 6.90441 11.8475 6.65532 11.5384 6.41818L11.2849 6.75367L10.857 6.43032L11.104 6.10349C10.8668 5.9416 10.6183 5.78805 10.359 5.64617L10.7148 4.996C11.0068 5.15575 11.2857 5.32894 11.5513 5.51157L11.7366 5.26638L12.1645 5.58973L11.9853 5.82688C12.3308 6.09168 12.6505 6.3702 12.9434 6.65195L13.2031 6.41137L13.5676 6.8048L13.3218 7.03256C13.6521 7.38 13.9413 7.72524 14.1876 8.04881L14.4021 7.89286L14.7175 8.3266L14.5024 8.48302C14.7491 8.84116 14.9332 9.15535 15.0516 9.39226L14.3888 9.72371C14.2853 9.51674 14.1223 9.23862 13.903 8.91899L13.5376 9.18471L13.2222 8.75097L13.5882 8.48478Z" fill="#DF5252"/>
</g>
<defs>
<clipPath id="clip0_1823_1347">
<rect width="20" height="20" fill="white"/>
</clipPath>
</defs>
</svg>
