<svg width="20" height="20" viewBox="0 0 20 20" fill="none" xmlns="http://www.w3.org/2000/svg">
<g clip-path="url(#clip0_1823_1223)">
<path d="M10 0C15.5228 0 20 4.47715 20 10C20 15.5228 15.5228 20 10 20C4.47715 20 0 15.5228 0 10C0 4.47715 4.47715 0 10 0Z" fill="black"/>
<path d="M16.2566 11.0772C15.6218 11.6613 14.5917 12.2429 13.3032 11.9299C11.8651 11.5181 10.612 10.1662 10.3459 8.68127C10.1875 7.88938 10.2712 6.7516 11.5458 5.92803C11.7117 5.81886 11.8254 5.64632 11.8604 5.45083C11.8954 5.25534 11.8485 5.05407 11.7308 4.89414C11.4799 4.54445 11.0327 4.43928 10.6906 4.68255C9.94208 5.18257 9.36463 5.89974 9.03583 6.73766C8.44286 6.58055 7.40263 6.47032 6.8198 7.25334C6.57654 7.54729 6.63229 8.04143 6.9313 8.2923C7.26695 8.52741 7.72211 8.49182 8.01714 8.20741C8.1147 8.10985 8.51001 8.11491 8.85718 8.21881C8.86098 8.46588 8.86351 8.71168 8.91546 8.9106C9.28923 10.9898 10.9414 12.7915 12.975 13.3604L13.1727 13.4136C12.3668 16.0718 9.94808 16.2378 9.4058 16.2327L4.54423 11.0291L4.49228 10.782C4.03235 9.73924 4.35925 8.16053 5.32599 6.49186C6.72731 4.08958 9.0789 2.34109 11.0555 2.16625C14.1647 1.91031 17.4755 5.70757 17.9012 8.18333C17.9088 8.62933 17.4298 10.056 16.2566 11.0772Z" fill="#DF5252"/>
<path d="M6.70845 18.2727L2.40058 13.6709L3.71828 12.3531L8.0743 16.955L6.70845 18.2727Z" fill="#DF5252"/>
</g>
<defs>
<clipPath id="clip0_1823_1223">
<rect width="20" height="20" fill="white"/>
</clipPath>
</defs>
</svg>
