<svg width="20" height="20" viewBox="0 0 20 20" fill="none" xmlns="http://www.w3.org/2000/svg">
<g clip-path="url(#clip0_1823_952)">
<path d="M10.0006 0.00170898C15.5235 0.00170898 20.0006 4.47886 20.0006 10.0017C20.0006 15.5246 15.5235 20.0017 10.0006 20.0017C4.47776 20.0017 0.000610352 15.5246 0.000610352 10.0017C0.000610352 4.47886 4.47776 0.00170898 10.0006 0.00170898Z" fill="#256BAB"/>
<path d="M19.4584 13.2583C19.2775 13.7836 19.0542 14.2891 18.7924 14.7707C18.3082 14.2502 17.9443 13.875 17.1964 13.8587C16.4434 13.8753 16.0815 14.2634 15.583 14.7979L15.5763 14.8051C15.0204 15.4024 14.2622 16.2171 12.858 16.2171C11.4535 16.2171 10.692 15.4002 10.1374 14.8027C9.62556 14.2535 9.25428 13.8557 8.45959 13.8557C7.6688 13.8557 7.29895 14.2512 6.78781 14.7979L6.78333 14.8027C6.22724 15.4002 5.46693 16.2171 4.06275 16.2171C3.65514 16.2171 3.32494 15.8601 3.32494 15.4229C3.32494 14.9857 3.65514 14.6287 4.06275 14.6287C4.85614 14.6287 5.22593 14.2322 5.73809 13.6829L5.7406 13.6802C6.29672 13.0827 7.05665 12.2673 8.46117 12.2673C9.86525 12.2673 10.625 13.0818 11.1793 13.6761L11.1818 13.6787C11.6949 14.2306 12.0652 14.6287 12.8596 14.6287C13.653 14.6287 14.0228 14.2322 14.5349 13.6829L14.5374 13.6802C15.0478 13.1311 15.7413 12.3884 16.9578 12.2809V12.2704L17.1474 12.2673H17.4476V12.2809C18.3703 12.3623 18.9902 12.8082 19.4584 13.2583Z" fill="white"/>
<path d="M19.9545 9.03473C19.985 9.35293 20.0006 9.6755 20.0006 10.0017C20.0006 10.3543 19.9824 10.7026 19.9468 11.0458C19.4714 10.7606 19.1194 10.3824 18.8244 10.0654L18.8221 10.0629C18.3229 9.5259 17.9595 9.13562 17.1964 9.11898C16.4434 9.13557 16.0815 9.52361 15.583 10.0582L15.5763 10.0654C15.0204 10.6627 14.2622 11.4773 12.858 11.4773C11.4535 11.4773 10.692 10.6604 10.1374 10.0629C9.62556 9.5138 9.25428 9.11595 8.45959 9.11595C7.6688 9.11595 7.29895 9.51149 6.78781 10.0581L6.78333 10.0629C6.22724 10.6604 5.46693 11.4773 4.06275 11.4773C3.65514 11.4773 3.32494 11.1203 3.32494 10.6831C3.32494 10.246 3.65514 9.88896 4.06275 9.88896C4.85614 9.88896 5.22593 9.4924 5.73809 8.94317L5.7406 8.94048C6.29672 8.34295 7.05665 7.52759 8.46117 7.52759C9.86525 7.52759 10.625 8.3421 11.1793 8.93639L11.1818 8.93896C11.6949 9.49081 12.0652 9.88896 12.8596 9.88896C13.653 9.88896 14.0228 9.4924 14.5349 8.94317L14.5374 8.94048C15.0478 8.39136 15.7413 7.64861 16.9578 7.5412V7.53061L17.1474 7.52759H17.4476V7.5412C18.6657 7.64861 19.3561 8.39136 19.8664 8.94048L19.8689 8.94317C19.8979 8.97419 19.9263 9.00472 19.9545 9.03473Z" fill="white"/>
<path d="M16.9417 2.80304C17.7126 3.5465 18.3644 4.41263 18.8656 5.37C18.8517 5.35513 18.838 5.34037 18.8244 5.32574L18.8221 5.3233C18.3229 4.78628 17.9595 4.39599 17.1964 4.37935C16.4434 4.39595 16.0816 4.78399 15.583 5.31857L15.5763 5.32574C15.0204 5.92305 14.2622 6.7377 12.858 6.7377C11.4535 6.7377 10.692 5.92083 10.1374 5.3233C9.62556 4.77418 9.25428 4.37633 8.45959 4.37633C7.6688 4.37633 7.29895 4.77186 6.78781 5.31851L6.78333 5.3233C6.22724 5.92079 5.46694 6.7377 4.06275 6.7377C3.65514 6.7377 3.32494 6.38069 3.32494 5.94352C3.32494 5.50634 3.65514 5.14933 4.06275 5.14933C4.85614 5.14933 5.22593 4.75278 5.73809 4.20354L5.7406 4.20085C6.29672 3.60332 7.05665 2.78796 8.46117 2.78796C9.86525 2.78796 10.625 3.60248 11.1793 4.19676L11.1818 4.19934C11.6949 4.75118 12.0652 5.14933 12.8596 5.14933C13.653 5.14933 14.0228 4.75278 14.5349 4.20354L14.5374 4.20085C15.0455 3.65416 15.7352 2.91554 16.9417 2.80304Z" fill="white"/>
</g>
<defs>
<clipPath id="clip0_1823_952">
<rect width="20" height="20" fill="white"/>
</clipPath>
</defs>
</svg>
