<svg width="20" height="20" viewBox="0 0 20 20" fill="none" xmlns="http://www.w3.org/2000/svg">
<g clip-path="url(#clip0_1823_1034)">
<path d="M10.0006 0.00170898C15.5235 0.00170898 20.0006 4.47886 20.0006 10.0017C20.0006 15.5246 15.5235 20.0017 10.0006 20.0017C4.47776 20.0017 0.000610352 15.5246 0.000610352 10.0017C0.000610352 4.47886 4.47776 0.00170898 10.0006 0.00170898Z" fill="black"/>
<path d="M10.6504 14.5772C10.5493 15.2134 10.8438 15.6803 12.0019 15.5462L15.5926 15.1306C15.6967 15.1185 15.7983 15.0914 15.891 15.0427C16.6064 14.6673 17.8067 13.702 17.8195 12.3021C17.8278 11.3852 16.9639 9.8216 16.0269 8.4201L16.2559 10.3983C16.3608 11.3045 16.3957 12.1297 16.1178 12.7567C15.9643 13.1028 15.7224 13.3785 15.3905 13.5724C15.0743 13.7572 14.708 13.8493 14.3235 13.8938C13.6034 13.9771 13.0214 13.8269 12.5905 13.5937C12.2629 14.012 11.7378 14.4852 11.0129 14.5691C10.8895 14.5834 10.7684 14.5853 10.6504 14.5772Z" fill="white"/>
<path fill-rule="evenodd" clip-rule="evenodd" d="M2.15584 7.70687L2.64967 11.9732C2.9712 12.7116 3.87217 13.7391 5.15086 12.789L4.69513 7.74916C4.67086 7.4808 4.86874 7.24359 5.13709 7.21932C5.40544 7.19506 5.64266 7.39293 5.66692 7.66128L6.17294 13.2572C6.46356 13.6975 6.92459 14.0491 7.61321 13.9694C8.16411 13.9056 8.51917 13.7502 8.74096 13.5717L8.08028 7.02237C8.05324 6.75428 8.24864 6.51503 8.51673 6.48798C8.78482 6.46094 9.02407 6.65634 9.05111 6.92443L9.71457 13.5013C10.0655 13.7395 10.4992 13.9275 10.9328 13.8773C11.4338 13.8193 11.816 13.3161 12.0703 12.8535L11.4042 6.59816C11.3757 6.33023 11.5698 6.0899 11.8377 6.06137C12.1057 6.03284 12.346 6.22691 12.3745 6.49485L13.0571 12.9051C13.3608 13.1093 13.7577 13.2582 14.2433 13.202C15.5694 13.0485 15.7775 12.3233 15.564 10.4784L14.9501 5.17427C14.5965 4.47514 13.4113 3.38928 11.4994 4.63888C11.0084 4.26725 9.79909 3.67887 8.88924 4.29832C8.13409 4.81246 7.69547 4.72328 7.2497 4.63265C7.0241 4.58678 6.79667 4.54054 6.52545 4.57193C6.18384 4.61147 5.92767 4.75625 5.63217 4.92324C5.22947 5.15083 4.75372 5.41969 3.88916 5.51976C2.39017 5.69327 2.00235 6.38084 2.15584 7.70687Z" fill="white"/>
</g>
<defs>
<clipPath id="clip0_1823_1034">
<rect width="20" height="20" fill="white"/>
</clipPath>
</defs>
</svg>
