<svg width="20" height="20" viewBox="0 0 20 20" fill="none" xmlns="http://www.w3.org/2000/svg">
<g clip-path="url(#clip0_1823_1025)">
<path d="M10 0C15.5228 0 20 4.47715 20 10C20 15.5228 15.5228 20 10 20C4.47715 20 0 15.5228 0 10C0 4.47715 4.47715 0 10 0Z" fill="#20406B"/>
<path d="M5.18629 15.5918C4.3648 15.1498 3.72467 14.4068 3.39995 13.4992C2.76207 11.7683 3.18149 9.52146 4.49657 7.63607C4.62123 7.45917 4.84148 7.38376 5.04416 7.44858C5.24549 7.50708 5.38538 7.69512 5.38786 7.91055C5.38786 8.22554 5.49417 8.58401 5.64417 8.93199C6.01991 5.30521 7.87384 2.48087 10.8797 1.04996C11.0559 0.96652 11.2628 0.993887 11.4128 1.12046C11.5613 1.24795 11.6181 1.45044 11.5584 1.63492C11.1102 3.01822 12.5609 4.51233 13.9652 5.95865L13.9686 5.96217C14.4842 6.49014 14.9691 6.98811 15.374 7.49208C16.5901 8.99199 16.9949 10.8774 16.4619 12.5333C16.114 13.6123 15.4012 14.4835 14.3996 15.0761C13.1915 14.2264 11.7142 13.7268 10.119 13.7268C8.22376 13.7268 6.495 14.4321 5.18629 15.5918Z" fill="#FF9B3E"/>
<path d="M3.89483 9.53953C3.21489 10.9852 3.05589 12.5183 3.49504 13.735C3.81431 14.6601 4.53793 15.3674 5.43944 15.6355C6.34501 15.3794 7.27027 15.2061 8.20612 15.1202C8.78308 15.0359 9.26464 15.0359 9.64473 15.0359C10.1036 15.0359 10.7123 15.0359 11.4498 15.1854C11.7542 15.2299 12.0601 15.2872 12.366 15.3588C13.7713 14.9198 14.7586 13.9958 15.1523 12.7489C15.596 11.343 15.2296 9.66199 14.1953 8.35947C13.8016 7.86168 13.314 7.34957 12.7961 6.80566C11.4892 5.43475 10.0369 3.91275 9.92186 2.27466C7.19606 3.9875 5.74685 7.04581 5.81802 10.9979C5.81989 11.2229 5.68257 11.4231 5.47881 11.4925C5.27287 11.5661 5.04507 11.4984 4.9064 11.3224C4.49959 10.7748 4.15975 10.1759 3.89483 9.53953Z" fill="#FFCE0D"/>
<path d="M6.13316 11.8061C5.7753 12.5634 5.69162 13.3665 5.92275 14.0038C6.09079 14.4883 6.47164 14.8588 6.94612 14.9993C7.42273 14.8651 7.90971 14.7743 8.40227 14.7293C8.70593 14.6852 8.95938 14.6852 9.15943 14.6852C9.40093 14.6852 9.72133 14.6852 10.1095 14.7635C10.2697 14.7868 10.4307 14.8168 10.5917 14.8543C11.3313 14.6244 11.851 14.1404 12.0582 13.4873C12.2917 12.7508 12.0988 11.8703 11.5545 11.188C11.3472 10.9273 11.0906 10.659 10.818 10.3741C10.1302 9.65602 9.36586 8.85878 9.30528 8.00073C7.87066 8.89794 7.10791 10.4999 7.14537 12.5701C7.14635 12.6879 7.07408 12.7928 6.96684 12.8291C6.85845 12.8677 6.73855 12.8322 6.66557 12.74C6.45146 12.4532 6.2726 12.1395 6.13316 11.8061Z" fill="#DF5252"/>
<path fill-rule="evenodd" clip-rule="evenodd" d="M13.2019 19.4764C12.1966 19.8159 11.1198 20 10 20C9.02934 20 8.09098 19.8617 7.20354 19.6037C7.05919 19.4603 6.95145 19.282 6.89292 19.0834C6.7908 18.7806 6.82504 18.4491 6.98695 18.173C6.41267 17.5882 5.88814 16.9576 5.41868 16.2876C5.3192 16.1456 5.30752 15.9607 5.38835 15.8076C5.28425 15.7709 5.18223 15.7301 5.08249 15.6853C6.40289 14.4701 8.17307 13.7268 10.1187 13.7268C11.7304 13.7268 13.2217 14.2368 14.4367 15.1026C14.3287 15.1626 14.2175 15.2196 14.1033 15.2736L14.7221 15.6111C14.8322 15.6733 14.9127 15.7763 14.946 15.8972C14.9793 16.0182 14.9626 16.1473 14.8996 16.2561L14.8783 16.2891C14.8445 16.3377 14.141 17.3498 13.3101 18.1745C13.4681 18.4514 13.5011 18.7812 13.4011 19.0834C13.3586 19.2268 13.2906 19.3596 13.2019 19.4764Z" fill="white"/>
</g>
<defs>
<clipPath id="clip0_1823_1025">
<rect width="20" height="20" fill="white"/>
</clipPath>
</defs>
</svg>
