<svg width="20" height="20" viewBox="0 0 20 20" fill="none" xmlns="http://www.w3.org/2000/svg">
<path d="M1.62795 13.1191C4.36304 17.2983 9.53761 18.7778 12.7026 19.3444C13.0404 19.4049 13.2092 18.9511 12.9299 18.7517C11.8621 17.9895 11.053 17.2216 12.4016 17.4653C13.717 17.703 15.0699 18.3073 16.0121 18.8167C16.2921 18.9681 16.6752 18.6522 16.5848 18.3471C15.9726 16.281 15.6031 13.301 16.1697 14.1889C16.6174 14.8903 17.9848 16.5688 19.166 17.8705C19.3065 18.0253 19.6544 17.7557 19.5697 17.5646C19.164 16.6496 18.7895 15.5356 18.3098 14.2089C16.4147 8.96674 13.4734 2.69543 7.90646 2.41198C2.51081 2.13724 -1.655 8.10287 1.62795 13.1191Z" fill="#D0D9EA"/>
<path d="M5.43961 15.0478C8.6699 16.6734 12.4757 15.632 13.9401 12.7219C15.4045 9.81181 13.973 6.13496 10.7427 4.50944C7.51236 2.88391 3.70656 3.92526 2.24216 6.83536C0.777765 9.74546 2.20931 13.4223 5.43961 15.0478Z" fill="white"/>
<path fill-rule="evenodd" clip-rule="evenodd" d="M13.929 13.652C15.8822 10.7087 14.8518 6.58868 11.6277 4.44963C8.40352 2.31059 4.20645 2.96256 2.25326 5.90586C0.300082 8.84915 1.33042 12.9692 4.55458 15.1082C7.77875 17.2473 11.9758 16.5953 13.929 13.652ZM4.09432 13.352C4.41157 13.6763 4.76375 13.9675 5.1437 14.2197C5.53381 14.4786 5.95037 14.6945 6.38442 14.8628L6.50448 14.8306C7.11395 14.6671 7.69378 14.4083 8.22255 14.0639L8.1385 12.0692L5.86429 10.8649L4.0726 11.3325L4.09432 13.352ZM8.52154 12.0023L10.2423 10.7285L12.3276 11.388L12.7237 13.3565C12.2099 14.0222 11.5234 14.543 10.722 14.8751L8.71909 14.0836L8.52154 12.0023ZM2.98488 6.91503C2.57132 7.65358 2.36092 8.49538 2.37154 9.36894L3.89102 10.8603L5.62887 10.1185C5.62887 10.1185 5.67459 9.52286 5.79432 9.08183C5.90453 8.6759 6.36705 8.1696 6.36705 8.1696L4.9346 6.47538L2.98488 6.91503ZM5.3307 6.22406L6.17836 4.5643C7.05955 4.35696 8.00236 4.36563 8.92453 4.58956L8.95599 4.61971C9.44148 5.08497 9.83711 5.63566 10.1231 6.24423L9.00154 7.91842C8.14364 7.68516 6.73613 7.89846 6.73613 7.89846L5.3307 6.22406ZM10.5336 6.5418L9.43506 8.19717L10.3349 10.2781L12.4521 10.9389L13.6313 9.46782C13.4733 8.57952 13.0937 7.71997 12.5256 6.96413L10.5336 6.5418Z" fill="#7989A6"/>
<path fill-rule="evenodd" clip-rule="evenodd" d="M8.16433 3.4267C4.69272 3.15258 1.94487 4.95483 1.40424 8.34226C0.82552 11.9684 4.14232 15.5122 7.95986 16.1214C8.05188 16.1361 8.14331 16.1491 8.23415 16.1605C5.81322 14.379 4.44481 11.4975 4.9204 8.51754C5.2586 6.39848 6.46742 4.617 8.16433 3.4267Z" fill="#182C3F" fill-opacity="0.2"/>
</svg>
