<svg width="20" height="20" viewBox="0 0 20 20" fill="none" xmlns="http://www.w3.org/2000/svg">
<g clip-path="url(#clip0_1823_1138)">
<path fill-rule="evenodd" clip-rule="evenodd" d="M9.99994 0C15.5224 0 19.9999 4.47667 19.9999 10C19.9999 15.5225 15.5224 20 9.99994 20C4.4766 20 -6.10352e-05 15.5225 -6.10352e-05 10C-6.10352e-05 4.47667 4.4766 0 9.99994 0Z" fill="#20406B"/>
<path fill-rule="evenodd" clip-rule="evenodd" d="M12.8063 0.399147C12.661 0.544062 12.5157 0.688926 12.3701 0.833546C12.6867 1.15143 13.0033 1.46932 13.3199 1.78721C14.5832 3.05565 15.8466 4.32419 17.1095 5.59325C17.5056 5.20094 17.9009 4.80743 18.2952 4.41349C17.0054 2.50194 15.0722 1.06036 12.8063 0.399147Z" fill="#84D9FF"/>
<path d="M15.5756 5.24031C14.3817 4.04152 13.1894 2.84109 11.9951 1.6427C10.0923 2.95163 8.19273 4.26545 6.29072 5.57601C5.80615 5.88274 5.5712 6.53211 5.74537 7.07828C6.02967 8.07557 6.31193 9.07328 6.59623 10.0706C6.03742 10.3728 5.47902 10.6759 4.92224 10.9814C4.70198 11.0915 4.60898 11.3864 4.7289 11.6022C5.14903 12.3825 5.57773 13.1579 5.99949 13.937C5.31749 13.937 4.63549 13.9378 3.9535 13.9366C3.73772 13.9292 3.51746 13.9668 3.32657 14.0712C2.88523 14.2988 2.63193 14.8319 2.73961 15.3177C2.83669 15.8414 3.33676 16.2502 3.86988 16.2383C8.08708 16.2375 12.3043 16.2395 16.5215 16.2375C17.0721 16.2379 17.5718 15.7864 17.6358 15.241C17.693 14.8335 17.5127 14.4048 17.1794 14.163C16.9783 14.0116 16.7262 13.9333 16.4754 13.937C15.8179 13.9378 15.1608 13.9366 14.5032 13.9374C14.1051 13.2089 13.7074 12.48 13.3097 11.7507C13.5802 11.9351 13.829 12.1716 14.1504 12.263C14.4735 12.3462 14.8377 12.2712 15.0902 12.0493C15.3961 11.7837 15.5328 11.3383 15.4202 10.948C15.3578 10.7261 15.2134 10.5311 15.0261 10.3977C14.7945 10.2321 14.562 10.0677 14.3315 9.9013C14.5514 9.79525 14.7402 9.62108 14.843 9.39796C15.0049 9.06431 14.9731 8.64458 14.7573 8.34193C14.6599 8.19713 14.5155 8.09434 14.3739 7.99604C14.1333 7.82391 13.8918 7.65259 13.6511 7.48046C13.3118 7.72112 12.9761 7.96667 12.6367 8.20732C12.5927 8.23424 12.5608 8.27544 12.5474 8.32561C12.2623 9.11856 11.9735 9.91068 11.6875 10.7036C12.4882 12.1753 13.2918 13.6458 14.0937 15.1174C11.9617 15.1178 9.8296 15.1178 7.69754 15.1174C7.05103 13.9374 6.4086 12.7557 5.76413 11.5749C6.59134 11.1229 7.42018 10.6751 8.24779 10.2244C8.60959 9.13242 8.96487 8.03846 9.32748 6.94694C9.36501 6.80213 9.51919 6.70587 9.66563 6.74299C9.83245 6.76665 9.9642 6.94653 9.89486 7.11132C9.52123 8.36436 9.14434 9.617 8.77152 10.8705C8.67322 11.1747 8.68628 11.5398 8.90287 11.7915C9.36052 12.3315 10.3994 12.223 10.6539 11.5329C11.0884 10.3345 11.5191 9.13528 11.9535 7.93689C11.9808 7.85042 12.0408 7.78026 12.115 7.73009C13.2694 6.90084 14.4221 6.06997 15.5756 5.24031Z" fill="white"/>
</g>
<defs>
<clipPath id="clip0_1823_1138">
<rect width="20" height="20" fill="white"/>
</clipPath>
</defs>
</svg>
