<svg width="20" height="20" viewBox="0 0 20 20" fill="none" xmlns="http://www.w3.org/2000/svg">
<g clip-path="url(#clip0_1823_1010)">
<path d="M10.0006 0.00170898C15.5235 0.00170898 20.0006 4.47886 20.0006 10.0017C20.0006 15.5246 15.5235 20.0017 10.0006 20.0017C4.47776 20.0017 0.000610352 15.5246 0.000610352 10.0017C0.000610352 4.47886 4.47776 0.00170898 10.0006 0.00170898Z" fill="#80BC3C"/>
<path fill-rule="evenodd" clip-rule="evenodd" d="M18.081 15.8942C17.5929 16.5624 17.0239 17.1678 16.3884 17.6959C14.9296 16.8429 13.3616 16.0378 12.3077 15.5319C12.1861 15.5319 12.0624 15.5298 11.9367 15.5252C13.6938 14.7581 15.1504 13.5103 16.1017 11.9686C16.4681 13.4836 17.2909 14.87 18.081 15.8942Z" fill="#84D9FF"/>
<path fill-rule="evenodd" clip-rule="evenodd" d="M16.6086 17.5075C16.4219 17.672 16.229 17.8297 16.0303 17.9801C15.4483 17.6075 14.8483 17.263 14.2304 16.9531C13.1516 16.4183 12.0054 15.9758 10.8002 15.8471C10.2379 15.8283 9.67795 15.7379 9.13807 15.5808C9.02153 15.5521 8.92576 15.4563 8.89543 15.3404C8.84339 15.1808 8.94108 15.009 9.079 14.9276C9.20927 14.8714 9.35038 14.9081 9.47905 14.9484C10.6482 15.251 11.9272 15.2297 13.0485 14.7549C13.5702 14.5231 14.0535 14.1997 14.4517 13.7891C14.694 13.535 14.8983 13.2464 15.0758 12.944C15.7009 11.8374 15.8175 10.4971 15.5586 9.26668C15.2371 7.73323 14.391 6.33324 13.2569 5.26177C12.158 4.22575 10.7647 3.4761 9.2645 3.24304C8.13173 3.06616 6.92235 3.20664 5.91633 3.78005C5.00865 4.28609 4.31424 5.14556 3.98667 6.12986C3.71625 6.91271 3.66453 7.75909 3.76478 8.57769C3.91228 9.72993 4.37235 10.8311 5.03579 11.7803C5.11912 11.8994 5.11848 12.0676 5.02844 12.1832C4.91063 12.3671 4.61947 12.3792 4.47963 12.2142C3.82449 11.2902 3.35356 10.2305 3.13965 9.11662C2.88743 7.80059 3.00365 6.384 3.62845 5.18451C4.17791 4.099 5.15551 3.24687 6.29594 2.82895C7.6126 2.33472 9.08699 2.38229 10.4193 2.79159C11.9885 3.27369 13.3923 4.24426 14.4469 5.49675C15.5467 6.80512 16.2862 8.45126 16.3727 10.1699C16.5055 11.5115 17.0154 12.7837 17.6328 13.9714C17.8829 14.448 18.1522 14.9145 18.4389 15.3702C18.3007 15.587 18.1543 15.7981 18.0003 16.0031C17.6051 15.3958 17.2396 14.7693 16.9119 14.1231C16.6134 13.5267 16.336 12.9169 16.1316 12.2815C15.9426 12.8604 15.6677 13.4143 15.2901 13.8942C14.6739 14.6936 13.7959 15.2737 12.8384 15.5815C12.8451 15.5869 12.8579 15.5978 12.8646 15.6035C14.1116 16.0393 15.2856 16.6644 16.3995 17.371C16.4693 17.4163 16.5391 17.4618 16.6086 17.5075Z" fill="#20406B"/>
<path d="M10.0614 4.49242C9.91354 4.34268 9.63035 4.36503 9.51733 4.54574C9.42347 4.68111 9.43879 4.87777 9.55596 4.99463C9.6677 5.10477 9.77562 5.21907 9.89087 5.32539C9.55277 5.66222 9.22041 6.00543 8.8756 6.33523C8.53526 5.98276 8.1863 5.63763 7.83543 5.29538C7.95292 5.15681 8.11223 5.05209 8.20514 4.89438C8.32646 4.66418 8.11542 4.36088 7.85905 4.38834C7.62439 4.41547 7.5069 4.65173 7.33992 4.78998C7.21221 4.68206 7.11547 4.51509 6.93764 4.48571C6.73267 4.44261 6.5194 4.62459 6.52994 4.83403C6.52259 5.03773 6.71064 5.15809 6.83835 5.28612C6.50599 5.62837 6.16533 5.96265 5.82723 6.29948C5.69952 6.17209 5.57724 5.98404 5.37387 5.99266C5.16538 5.98117 4.97382 6.19412 5.02075 6.40068C5.0463 6.58075 5.22381 6.67078 5.32661 6.8036C5.22828 6.89747 5.13569 6.9974 5.03736 7.09158C4.89305 7.21929 4.89209 7.47087 5.03416 7.60081C5.16442 7.74033 5.41345 7.73267 5.54116 7.59315C5.63886 7.49705 5.73528 7.39999 5.82978 7.30134C6.17683 7.64806 6.52195 7.99671 6.87123 8.3412C6.54334 8.67771 6.21067 9.01038 5.87448 9.33795L5.85149 9.33508C5.71676 9.21567 5.60087 9.07456 5.45783 8.96505C5.24967 8.83383 4.93838 8.99506 4.9304 9.24185C4.90901 9.38137 4.99202 9.50301 5.09291 9.58922C5.18422 9.67574 5.27362 9.76449 5.36429 9.85165C5.24169 9.99309 5.06385 10.1013 5.01213 10.2913C5.00702 10.4132 5.04183 10.5464 5.14367 10.6227C5.26787 10.7316 5.47443 10.7316 5.59512 10.6176C5.69026 10.5336 5.77327 10.4369 5.87352 10.3587C6.22025 10.722 6.58357 11.0697 6.93189 11.432C6.82685 11.53 6.72629 11.6329 6.6254 11.7353C6.4945 11.8682 6.49929 12.1019 6.6305 12.2331C6.75725 12.3601 6.98298 12.3601 7.11611 12.243C7.22658 12.1414 7.32747 12.03 7.43602 11.9269C7.79009 12.2813 8.14831 12.6315 8.49982 12.9885C8.4663 13.066 8.37467 13.1133 8.35487 13.2021C8.26388 13.4284 8.48003 13.7052 8.72235 13.6666C8.84367 13.6628 8.92924 13.5689 9.01161 13.4923C9.12335 13.6145 9.2418 13.7308 9.36089 13.846C9.49754 13.9747 9.72294 13.9431 9.85001 13.8166C9.87044 13.7838 9.89119 13.7515 9.91163 13.7193C9.9244 13.6618 9.94036 13.6037 9.95537 13.5475C9.9798 13.456 9.86998 13.1784 9.59683 13.0619C9.53649 13.0362 9.47104 12.9939 9.53649 12.9604C9.86469 12.6376 10.1897 12.3119 10.5141 11.9853C10.8675 12.3343 11.2219 12.6829 11.5658 13.0411C11.4479 13.1369 11.3503 13.2544 11.2369 13.3556C11.1737 13.4603 11.1395 13.5928 11.1919 13.7097C11.2497 13.8961 11.4875 13.9849 11.6593 13.9C11.8234 13.8131 11.9195 13.6324 12.0699 13.5357C12.1992 13.6513 12.302 13.8275 12.4923 13.8479C12.5906 13.8253 12.7062 13.8218 12.7694 13.7301C12.9265 13.5756 12.87 13.3084 12.7087 13.1784C12.6252 13.1111 12.5772 13.0108 12.5772 13.0108C12.9073 12.6826 13.241 12.3573 13.5631 12.0214C13.7077 12.1223 13.7981 12.3209 13.9944 12.3276C14.2154 12.3621 14.4155 12.1392 14.3731 11.925C14.3469 11.7452 14.1742 11.6488 14.0659 11.5202C14.1726 11.4209 14.2744 11.3168 14.3763 11.213C14.5155 11.0703 14.4893 10.8072 14.3265 10.6932C14.1953 10.5933 13.9912 10.6042 13.8741 10.7217C13.7732 10.8225 13.671 10.9222 13.5736 11.0269C13.2215 10.6795 12.8728 10.3283 12.5232 9.9784C12.8607 9.63998 13.201 9.30475 13.5353 8.96377C13.6557 9.08924 13.7786 9.21216 13.906 9.32997C14.0717 9.46406 14.3447 9.39702 14.4328 9.20322C14.4903 9.0819 14.4752 8.92354 14.382 8.82329C14.2706 8.70133 14.1521 8.58544 14.0308 8.47337C14.1541 8.32204 14.3584 8.21062 14.3817 8.00022C14.3977 7.84058 14.2853 7.68638 14.1362 7.63593C14.0228 7.60528 13.89 7.62189 13.8013 7.70362C13.7084 7.7879 13.626 7.88273 13.5328 7.96669C13.179 7.60879 12.8259 7.24962 12.4635 6.90002C12.6385 6.71868 12.8221 6.54627 12.998 6.36588C13.1187 6.23722 13.1222 6.02107 13.0041 5.88986C12.884 5.74363 12.6426 5.73341 12.5038 5.85793C12.3183 6.03512 12.144 6.22349 11.9565 6.39845C11.6082 6.03544 11.2465 5.68488 10.895 5.32443C11.0077 5.20024 11.1565 5.09871 11.2248 4.94131C11.3056 4.71559 11.1063 4.45889 10.8682 4.47582C10.652 4.49274 10.5403 4.7025 10.3877 4.82733C10.2852 4.70984 10.1721 4.60193 10.0614 4.49242ZM8.38712 6.83265C8.05125 7.17331 7.71123 7.50982 7.37344 7.84857C7.04683 7.52515 6.72277 7.19949 6.39616 6.87639C6.37413 6.84989 6.33901 6.82946 6.33295 6.79275C6.66499 6.45688 7.00469 6.12867 7.33417 5.79024C7.69335 6.12899 8.03241 6.4888 8.38712 6.83265ZM10.3985 5.82632C10.7494 6.18741 11.1076 6.54148 11.4693 6.8914C11.1344 7.23653 10.7922 7.57495 10.449 7.9121C10.0952 7.55069 9.73667 7.19407 9.37973 6.83585C9.72102 6.50093 10.0508 6.15421 10.3985 5.82632ZM9.96271 8.40728C9.62077 8.74284 9.28011 9.08062 8.94648 9.42447C8.58571 9.06721 8.23004 8.70516 7.87054 8.34662C8.20641 8.0066 8.54707 7.67169 8.88358 7.33199C9.24404 7.68989 9.60258 8.04939 9.96271 8.40728ZM11.961 7.39297C12.318 7.75438 12.6794 8.11132 13.0373 8.47178C12.7001 8.80924 12.3611 9.14479 12.0249 9.48354C11.6692 9.12181 11.3087 8.76518 10.9502 8.40633C11.2858 8.06726 11.6258 7.73235 11.961 7.39297ZM8.44682 9.91615C8.11095 10.2571 7.77189 10.5952 7.43155 10.9321C7.07908 10.5668 6.7132 10.215 6.35849 9.85197C6.69659 9.51355 7.03821 9.17832 7.37632 8.83957C7.72815 9.20322 8.08701 9.56016 8.44682 9.91615ZM11.531 9.97745C11.1919 10.3156 10.8541 10.6553 10.5141 10.9927C10.1591 10.6326 9.79829 10.2782 9.44071 9.92062C9.77498 9.57932 10.116 9.24441 10.449 8.90183C10.8142 9.25558 11.1686 9.62082 11.531 9.97745ZM10.0237 11.485C9.68622 11.8241 9.34397 12.1584 9.01033 12.5013C8.65116 12.1405 8.28432 11.7867 7.93089 11.4202C8.27761 11.0911 8.60773 10.7446 8.94584 10.4065C9.29895 10.7718 9.65972 11.1306 10.0237 11.485ZM13.0714 11.5275C12.7614 11.8311 12.4562 12.1395 12.1516 12.4483C12.1203 12.4738 12.0977 12.5242 12.0526 12.5249C11.8595 12.3483 11.6829 12.1542 11.4946 11.9726C11.3343 11.8094 11.1654 11.6546 11.0134 11.4838C11.3525 11.1485 11.6906 10.812 12.0261 10.4733C12.3729 10.8267 12.7314 11.1683 13.0714 11.5275Z" fill="white"/>
<ellipse cx="2.22305" cy="2.22305" rx="2.22305" ry="2.22305" transform="matrix(-1 0 0 1 7.86179 13.0309)" fill="#FF9B3E"/>
</g>
<defs>
<clipPath id="clip0_1823_1010">
<rect width="20" height="20" fill="white"/>
</clipPath>
</defs>
</svg>
