<svg width="20" height="20" viewBox="0 0 20 20" fill="none" xmlns="http://www.w3.org/2000/svg">
<path d="M4.98397 7.56326C5.4094 5.03555 5.62212 3.77169 6.62077 3.13227C7.61943 2.49285 9.01403 2.72757 11.8032 3.19701C14.5924 3.66645 15.987 3.90118 16.7214 4.83227C17.4557 5.76337 17.243 7.02722 16.8175 9.55493L16.2159 13.1297C15.7904 15.6574 15.5777 16.9212 14.5791 17.5606C13.5804 18.2001 12.1858 17.9653 9.39662 17.4959C6.60742 17.0265 5.21282 16.7917 4.47849 15.8606C3.74416 14.9295 3.95688 13.6657 4.38231 11.138L4.98397 7.56326Z" fill="#B8CBCF"/>
<path d="M2.28 7.4375C2.28 4.87424 2.28 3.59261 3.15868 2.7963C4.03736 2 5.45157 2 8.28 2C11.1084 2 12.5226 2 13.4013 2.7963C14.28 3.59261 14.28 4.87424 14.28 7.4375V11.0625C14.28 13.6258 14.28 14.9074 13.4013 15.7037C12.5226 16.5 11.1084 16.5 8.28 16.5C5.45157 16.5 4.03736 16.5 3.15868 15.7037C2.28 14.9074 2.28 13.6258 2.28 11.0625V7.4375Z" fill="#EEEFEE"/>
<path d="M3.4802 7.28233C3.4802 7.58181 3.70094 7.83483 3.99918 7.86206C4.29695 7.88924 4.68857 7.91587 5.0802 7.91587C5.47182 7.91587 5.86344 7.88924 6.16121 7.86206C6.45945 7.83483 6.6802 7.58181 6.6802 7.28233V6.55299C6.6802 6.25197 6.45727 5.9981 6.15743 5.97145C5.86013 5.94503 5.47016 5.91856 5.0802 5.91587C4.68693 5.91316 4.29366 5.93996 3.99543 5.96792C3.69879 5.99573 3.4802 6.24791 3.4802 6.54585V7.28233Z" fill="#B8CBCF"/>
<path d="M3.4802 10.8252C3.4802 11.1485 3.73493 11.4135 4.05803 11.4238C5.05427 11.4556 7.10144 11.5159 8.28019 11.5159C9.45895 11.5159 11.5061 11.4556 12.5024 11.4238C12.8255 11.4135 13.0802 11.1485 13.0802 10.8252V10.2065C13.0802 9.88324 12.8255 9.61823 12.5024 9.60793C11.5061 9.57618 9.45895 9.51587 8.28019 9.51587C7.10144 9.51587 5.05427 9.57618 4.05803 9.60793C3.73493 9.61823 3.4802 9.88324 3.4802 10.2065V10.8252Z" fill="#B8CBCF"/>
</svg>
