<svg width="20" height="20" viewBox="0 0 20 20" fill="none" xmlns="http://www.w3.org/2000/svg">
<path d="M11.3455 1.52707L11.244 1.7547C11.1569 1.9449 11.0444 2.18036 10.9088 2.44999C10.6144 3.03505 10.2858 3.62933 9.92924 4.20326L9.77559 4.44652C9.00563 5.64533 8.2111 6.57929 7.43574 7.13119L7.32555 7.20612L7.31479 7.19234C6.96929 6.71665 6.83698 6.11034 6.96513 5.52351C7.0635 5.07305 6.58912 4.71405 6.18233 4.93111C2.62684 6.8283 1.22022 11.2059 3.00511 14.8191C4.79001 18.4322 9.12139 19.9753 12.7887 18.3044L12.9828 18.2126C16.4426 16.5164 18.0494 12.4481 16.6603 8.83789L16.6244 8.74913L16.6189 8.7213C16.5282 8.38159 16.1081 8.12777 15.7385 8.4304L15.5525 8.57795C15.2311 8.81919 14.8823 9.02048 14.5138 9.17785L14.4878 9.1879L14.4729 8.92908C14.429 8.27201 14.3503 7.5714 14.2282 6.84846C13.8854 4.81797 13.2671 2.962 12.2968 1.44988C12.0631 1.08563 11.5175 1.12991 11.3455 1.52707Z" fill="#D0D9EA"/>
<path d="M7.66887 1.78464C7.71105 2.0363 7.70194 2.29818 7.64223 2.55061L7.63458 2.56714C7.54303 2.90909 7.63098 3.24093 7.85132 3.43695C8.1012 3.65925 8.4602 3.65352 8.72285 3.42304L8.77234 3.37101C9.1549 2.89047 8.99495 2.11547 8.25827 1.38382C8.00707 1.13433 7.60563 1.40732 7.66887 1.78464Z" fill="#5D6473"/>
<path d="M15.0549 4.4438C15.0459 4.69323 14.9953 4.94081 14.905 5.17759L14.8566 5.29504C14.6876 5.66206 14.747 6.01408 15.0112 6.223C15.2628 6.422 15.6496 6.4335 15.8899 6.207C16.3112 5.80985 16.3097 5.06482 15.7376 4.2475C15.5413 3.96697 15.0671 4.10331 15.0549 4.4438Z" fill="#5D6473"/>
<path fill-rule="evenodd" clip-rule="evenodd" d="M10.7161 8.17942C10.7073 8.18305 10.6992 8.18689 10.6907 8.19125C9.46819 8.82257 8.42169 9.74313 7.64057 10.8693L7.55032 11.0036C7.54625 11.0097 7.53767 11.0106 7.53244 11.0055C7.29386 10.7694 7.0632 10.5187 6.91271 10.2138C6.89958 10.1872 6.88754 10.16 6.87652 10.1325C6.76365 9.85108 6.42796 9.67326 6.22418 9.89782C6.14771 9.98209 6.07217 10.077 6.00467 10.1817C5.6737 10.6948 5.42147 11.2505 5.31552 11.8501C4.90894 14.1559 6.44845 16.3546 8.75408 16.7611C11.0597 17.1677 13.2495 15.6266 13.6649 13.3225C13.8315 12.3987 13.6323 11.6906 13.4523 11.2797C13.356 11.06 13.08 11.0385 12.8995 11.1965C12.7618 11.317 12.5953 11.4483 12.428 11.5451C12.0242 11.7788 11.7941 11.8305 11.3574 11.9559L11.3448 11.9592C11.2632 11.9804 11.1843 11.9169 11.1875 11.8328C11.2387 10.7728 11.4114 9.72143 11.7027 8.69924C11.7283 8.60933 11.7507 8.53139 11.7711 8.46189C11.8565 8.17199 11.6251 7.87476 11.3355 7.96121C11.0257 8.05371 10.7743 8.1554 10.7161 8.17942Z" fill="#7D889B"/>
</svg>
