<svg width="20" height="20" viewBox="0 0 20 20" fill="none" xmlns="http://www.w3.org/2000/svg">
<path d="M3.40056 7.23609C3.27114 6.4657 3.69243 5.80325 4.43045 5.54716C5.21407 5.27525 6.49541 4.87433 8.55123 4.32347C10.6071 3.77262 11.9172 3.47915 12.7318 3.32283C13.499 3.1756 14.195 3.53865 14.4682 4.27054C14.6784 4.83405 14.9476 5.65663 15.2642 6.83839C15.5809 8.02014 15.7591 8.86708 15.8587 9.46024C15.9881 10.2306 15.5669 10.8931 14.8288 11.1492C14.0452 11.4211 12.7639 11.822 10.7081 12.3729C8.65224 12.9237 7.3421 13.2172 6.52751 13.3735C5.76032 13.5207 5.06425 13.1577 4.79114 12.4258C4.58086 11.8623 4.31173 11.0397 3.99508 9.85794C3.67843 8.67618 3.50021 7.82924 3.40056 7.23609Z" fill="#6C9AE4"/>
<path d="M1.87713 6.64761C1.96481 5.86561 2.5337 5.306 3.31646 5.22547C4.38127 5.11592 6.28681 5 9.58333 5C12.8799 5 14.7854 5.11592 15.8502 5.22547C16.633 5.306 17.2019 5.86561 17.2895 6.64761C17.3944 7.58294 17.5 9.14965 17.5 11.6667C17.5 14.1837 17.3944 15.7504 17.2895 16.6857C17.2019 17.4677 16.633 18.0273 15.8502 18.1079C14.7854 18.2174 12.8799 18.3333 9.58333 18.3333C6.28681 18.3333 4.38127 18.2174 3.31646 18.1079C2.5337 18.0273 1.96481 17.4677 1.87713 16.6857C1.77226 15.7504 1.66667 14.1837 1.66667 11.6667C1.66667 9.14965 1.77226 7.58294 1.87713 6.64761Z" fill="#E2A97C"/>
<path d="M12.5216 10.563C12.5559 9.77691 13.1088 9.23151 13.8949 9.19596C14.2798 9.17856 14.7772 9.1665 15.4167 9.1665C16.0562 9.1665 16.5536 9.17856 16.9385 9.19596C17.7245 9.23151 18.2774 9.77691 18.3118 10.563C18.3248 10.8609 18.3333 11.2247 18.3333 11.6665C18.3333 12.1083 18.3248 12.4721 18.3118 12.77C18.2774 13.5561 17.7245 14.1015 16.9385 14.137C16.5536 14.1545 16.0562 14.1665 15.4167 14.1665C14.7772 14.1665 14.2798 14.1545 13.8949 14.137C13.1088 14.1015 12.5559 13.5561 12.5216 12.77C12.5085 12.4721 12.5 12.1083 12.5 11.6665C12.5 11.2247 12.5085 10.8609 12.5216 10.563Z" fill="#F7CE45"/>
<path d="M15.8333 11.6666C15.8333 12.1268 15.4602 12.4999 15 12.4999C14.5398 12.4999 14.1667 12.1268 14.1667 11.6666C14.1667 11.2063 14.5398 10.8333 15 10.8333C15.4602 10.8333 15.8333 11.2063 15.8333 11.6666Z" fill="#E2A97C"/>
</svg>
