<svg width="50" height="50" viewBox="0 0 50 50" fill="none" xmlns="http://www.w3.org/2000/svg">
<path d="M10.258 36.0071H6.17883H10.258L10.2603 36.0048L10.258 36.0071Z" fill="#243468"/>
<path d="M15.8269 21.951L13.9608 26.6606L15.3462 30.5606H12.4167L11.1877 33.6648H16.3122L17.1126 36.0071H21.4707L15.8269 21.951Z" fill="#243468"/>
<path d="M34.8987 35.9663H31.8126L25.4796 27.4905V35.9663H22.194V22.2005H25.2823L31.6312 30.6967V22.2005H34.8964L34.8987 35.9663Z" fill="#243468"/>
<path d="M45.6759 22.18V31.5016C45.6759 32.9573 45.2534 34.0911 44.4084 34.9028C43.5634 35.7146 42.3994 36.1212 40.9165 36.1227C39.0405 36.1227 37.4609 35.3881 36.1775 33.9187L37.7897 31.5787C38.7737 32.6006 39.7374 33.1123 40.6807 33.1138C41.6648 33.1138 42.1568 32.5499 42.1568 31.4223V25.0121H37.4359V22.18H45.6759Z" fill="#243468"/>
<path d="M11.8203 21.62H15.9584L18.8087 14.3663H14.6705L11.8203 21.62Z" fill="#243468"/>
<path d="M6.1222 36.0026L3.29694 43.1383H7.4328L10.2581 36.0026H6.1222Z" fill="#EF7B2E"/>
<path d="M0 5.15588V45.7141H50V5.15588H0ZM0.827627 44.8933V12.9492H49.1724V44.8933H0.827627Z" fill="#243468"/>
<path d="M2.61892 10.786C2.37628 10.6521 2.17955 10.4482 2.05432 10.201C1.91889 9.92953 1.85194 9.62905 1.85931 9.32576C1.85189 9.02003 1.91963 8.71715 2.05658 8.44371C2.18257 8.19874 2.37928 7.99729 2.62119 7.86551C2.88694 7.72488 3.18454 7.65536 3.48509 7.6637C3.78492 7.65534 4.0818 7.72487 4.34673 7.86551C4.58831 7.99697 4.78437 8.19857 4.90906 8.44371C5.04523 8.71735 5.11219 9.02022 5.10407 9.32576C5.11004 9.62942 5.04153 9.92993 4.90453 10.201C4.77856 10.4466 4.58191 10.6488 4.33993 10.7815C4.07722 10.9241 3.78166 10.9952 3.48282 10.9878C3.18217 10.9972 2.8843 10.9276 2.61892 10.786ZM4.05649 10.0831C4.20939 9.86137 4.2829 9.5945 4.2651 9.32576C4.28449 9.05723 4.20994 8.79031 4.05423 8.57069C3.98609 8.48563 3.89881 8.41787 3.79951 8.37295C3.70021 8.32803 3.5917 8.30721 3.48282 8.3122C3.37341 8.3064 3.26418 8.3266 3.16408 8.37113C3.06397 8.41567 2.97584 8.48327 2.90689 8.56842C2.75283 8.7896 2.67921 9.05689 2.69828 9.32576C2.67996 9.59526 2.75349 9.86302 2.90689 10.0854C2.9762 10.1701 3.0644 10.2374 3.16441 10.2819C3.26443 10.3264 3.37348 10.3468 3.48282 10.3416C3.59205 10.3468 3.70095 10.326 3.80065 10.2811C3.90034 10.2362 3.98801 10.1683 4.05649 10.0831Z" fill="white"/>
<path d="M5.69586 7.7068H7.26722C7.57096 7.68772 7.87045 7.78593 8.10392 7.98117C8.20592 8.07897 8.28551 8.19773 8.33718 8.32926C8.38885 8.46079 8.41138 8.60196 8.40322 8.74304C8.41091 8.88393 8.38793 9.02481 8.33587 9.15596C8.2838 9.28711 8.20389 9.40539 8.10165 9.50264C7.86887 9.69773 7.57044 9.79667 7.26722 9.77927H6.5439V10.9493H5.69586V7.7068ZM7.15158 9.14211C7.2748 9.15193 7.39756 9.11823 7.4985 9.04688C7.53811 9.00829 7.56878 8.9615 7.58836 8.90979C7.60795 8.85808 7.61598 8.80271 7.61187 8.74757C7.61616 8.69207 7.60823 8.63631 7.58864 8.58421C7.56905 8.53211 7.53828 8.48493 7.4985 8.446C7.3987 8.37195 7.27547 8.33651 7.15158 8.34623H6.5439V9.14211H7.15158Z" fill="white"/>
<path d="M8.90436 10.9493V7.70678H11.2126V8.35981H9.72972V8.97656H11.1197V9.62733H9.72972V10.3076H11.2126V10.9493H8.90436ZM10.3918 7.42788H9.89524L10.3737 6.70456H11.1061L10.3918 7.42788Z" fill="white"/>
<path d="M14.6637 10.9493H13.7341L13.174 9.91529C13.14 9.8567 13.0905 9.8087 13.0308 9.77666C12.9711 9.74463 12.9037 9.72982 12.8361 9.7339H12.5799V10.9493H11.7455V7.70678H13.2919C13.6087 7.68208 13.9237 7.77312 14.1785 7.963C14.2807 8.05524 14.3605 8.16953 14.412 8.29721C14.4635 8.42489 14.4852 8.56261 14.4755 8.69993C14.4818 8.92548 14.4106 9.14637 14.2737 9.32575C14.1277 9.50155 13.9262 9.62232 13.7023 9.66814C13.8006 9.69001 13.8925 9.73408 13.9711 9.79696C14.0497 9.85984 14.1129 9.93988 14.1558 10.0309L14.6637 10.9493ZM13.5617 9.01284C13.6041 8.97901 13.6375 8.93522 13.6588 8.88537C13.6802 8.83552 13.6889 8.78116 13.6842 8.72714C13.6895 8.67207 13.681 8.61654 13.6597 8.56551C13.6383 8.51448 13.6047 8.46952 13.5617 8.43463C13.4399 8.36323 13.2988 8.33154 13.1581 8.34394H12.5708V9.099H13.1581C13.2982 9.10996 13.4384 9.08002 13.5617 9.01284Z" fill="white"/>
<path d="M17.5048 10.9493L17.2146 10.269H15.7884L15.4981 10.9493H14.6456L16.1602 7.70679H16.8405L18.3597 10.9515L17.5048 10.9493ZM16.0514 9.64321H16.9448L16.5072 8.61378L16.0514 9.64321Z" fill="white"/>
<path d="M18.947 10.9493V8.38703H17.9742V7.70679H20.7746V8.38703H19.8018V10.9493H18.947Z" fill="white"/>
<path d="M21.2167 10.9493V7.70679H23.5228V8.35982H22.0398V8.97657H23.4298V9.62734H22.0398V10.3076H23.5228V10.9493H21.2167Z" fill="white"/>
<path d="M24.4048 10.6318C24.2751 10.4912 24.1757 10.3255 24.1125 10.1449C24.0493 9.96436 24.0238 9.77278 24.0375 9.58199V7.70679H24.8674V9.61827C24.8549 9.81019 24.9103 10.0004 25.0238 10.1557C25.0829 10.216 25.1535 10.2639 25.2313 10.2966C25.3092 10.3294 25.3928 10.3462 25.4773 10.3462C25.5618 10.3462 25.6454 10.3294 25.7233 10.2966C25.8011 10.2639 25.8717 10.216 25.9308 10.1557C26.0443 10.0004 26.0997 9.81019 26.0873 9.61827V7.70679H26.9194V9.58425C26.9329 9.77487 26.907 9.96622 26.8434 10.1464C26.7798 10.3266 26.6799 10.4919 26.5498 10.6318C26.2424 10.8665 25.8663 10.9936 25.4796 10.9936C25.0928 10.9936 24.7168 10.8665 24.4093 10.6318H24.4048Z" fill="white"/>
<path d="M30.4975 10.9493H29.5678L29.0055 9.91531C28.9721 9.85671 28.9229 9.80865 28.8636 9.77659C28.8043 9.74452 28.7372 9.72974 28.6699 9.73391H28.4114V10.9493H27.5792V7.70679H29.1256C29.4424 7.68292 29.7571 7.77388 30.0122 7.96302C30.1138 8.05577 30.1932 8.17014 30.2446 8.29769C30.296 8.42524 30.3181 8.56271 30.3093 8.69994C30.3158 8.9259 30.2437 9.14712 30.1052 9.32577C29.9605 9.50197 29.7595 9.6229 29.5361 9.66815C29.6342 9.69034 29.726 9.73453 29.8045 9.79738C29.8831 9.86022 29.9464 9.94009 29.9895 10.0309L30.4975 10.9493ZM29.3955 9.01286C29.4384 8.97925 29.4724 8.93563 29.4945 8.88582C29.5167 8.83601 29.5263 8.78153 29.5224 8.72715C29.5276 8.67231 29.5194 8.61704 29.4984 8.56609C29.4775 8.51513 29.4445 8.47003 29.4023 8.43465C29.2804 8.36325 29.1394 8.33155 28.9987 8.34395H28.4091V9.09902H28.9987C29.1364 9.10865 29.2741 9.07876 29.3955 9.01286Z" fill="white"/>
<path d="M34.8057 10.9493L34.5177 10.269H33.0801L32.7899 10.9493H31.9373L33.452 7.70679H34.1322L35.6446 10.9493H34.8057ZM33.3522 9.64321H34.2456L33.7921 8.60244L33.3522 9.64321Z" fill="white"/>
<path d="M38.7148 9.11717V10.7429C38.531 10.8273 38.3376 10.889 38.1389 10.9266C37.9224 10.9704 37.7021 10.9924 37.4813 10.9924C37.1672 10.9983 36.8562 10.9291 36.5743 10.7906C36.3223 10.6637 36.1145 10.4638 35.978 10.2169C35.8342 9.94235 35.7631 9.63556 35.7716 9.32577C35.7643 9.01972 35.8353 8.71687 35.978 8.44599C36.1082 8.20052 36.3077 7.99868 36.5516 7.86552C36.8273 7.72518 37.1335 7.65582 37.4427 7.66372C37.6674 7.66174 37.8912 7.69229 38.1071 7.75442C38.2911 7.80404 38.4631 7.89043 38.6128 8.00837L38.352 8.61379C38.2164 8.51846 38.0684 8.44217 37.9121 8.38704C37.7685 8.34471 37.6196 8.32333 37.4699 8.32355C37.3501 8.31394 37.2297 8.33091 37.1172 8.37324C37.0047 8.41557 36.9029 8.48223 36.8192 8.56844C36.6549 8.78275 36.5743 9.04955 36.5924 9.31897C36.5714 9.59502 36.652 9.86924 36.8192 10.0899C36.9077 10.1783 37.0144 10.2463 37.1319 10.2894C37.2493 10.3324 37.3747 10.3495 37.4994 10.3393C37.6465 10.3402 37.7933 10.325 37.937 10.294V9.69764H37.3656V9.11717H38.7148Z" fill="white"/>
<path d="M42.2793 10.9493H41.3496L40.7873 9.91531C40.7537 9.85689 40.7045 9.80898 40.6452 9.77694C40.586 9.7449 40.5189 9.73 40.4517 9.73391H40.1932V10.9493H39.3588V7.70679H40.9074C41.2242 7.68292 41.5389 7.77388 41.794 7.96302C41.8958 8.05547 41.9752 8.16986 42.0263 8.29753C42.0774 8.42519 42.0987 8.5628 42.0888 8.69994C42.0962 8.92565 42.0249 9.14691 41.887 9.32577C41.7408 9.50202 41.5381 9.6222 41.3133 9.66589C41.4117 9.68744 41.5038 9.73138 41.5825 9.7943C41.6611 9.85722 41.7242 9.93743 41.7668 10.0287L42.2793 10.9493ZM41.175 9.01286C41.2174 8.97903 41.2508 8.93524 41.2721 8.88539C41.2935 8.83554 41.3022 8.78118 41.2974 8.72715C41.3027 8.67208 41.2943 8.61656 41.273 8.56553C41.2516 8.5145 41.2179 8.46954 41.175 8.43465C41.0538 8.36371 40.9136 8.33203 40.7737 8.34395H40.1796V9.09902H40.7691C40.91 9.11096 41.0512 9.08098 41.175 9.01286Z" fill="white"/>
<path d="M42.7078 10.9493V7.70678H45.0138V8.35981H43.5309V8.97656H44.9209V9.62733H43.5309V10.3076H45.0138V10.9493H42.7078ZM44.193 7.42788H43.6964L44.1749 6.70456H44.9073L44.193 7.42788Z" fill="white"/>
<path d="M45.5467 10.9493V7.70678H47.8527V8.35981H46.3721V8.97656H47.762V9.62733H46.3721V10.3076H47.8527V10.9493H45.5467ZM47.0342 7.42788H46.5285L47.0069 6.70456H47.7393L47.0342 7.42788Z" fill="white"/>
</svg>
