<svg width="50" height="50" viewBox="0 0 50 50" fill="none" xmlns="http://www.w3.org/2000/svg">
<path d="M27.8875 0H9.64165C7.77915 0 6.27081 1.45416 6.27081 3.25V47.1959C6.27081 48.7416 7.47498 50 8.95831 50H39.4083C41.2875 50 42.8125 48.55 42.8125 46.7333V13.7333C42.8125 9.3 40.9833 0 27.8875 0Z" fill="white"/>
<path d="M32.6583 15.55L31.6792 19.875C31.6792 19.875 31.35 21.75 30.65 23.0708C30.65 23.0708 29.6042 24.7166 28.1875 25.8125C28.1875 25.8125 29.1 25.6208 30.9042 24.4208C30.9042 24.4208 32.0167 23.4666 32.5292 20.75L33.3333 17.05L33.4958 16.1541L33.5458 15.9791C33.6208 15.7166 33.7167 15.475 33.7917 15.2541C34.3042 16.3791 34.7417 17.7583 34.9083 19.3708L34.9833 19.1916C35.4875 17.8083 35.7 16.3125 35.625 14.8333C35.5375 13.35 35.1542 11.8833 34.5042 10.5458C33.2042 7.85414 30.775 5.74164 27.9333 4.79166C25.0917 3.84583 21.8792 4.07499 19.225 5.44584C17.9 6.12914 16.7125 7.07084 15.7542 8.20414C14.8042 9.34164 14.075 10.6625 13.6458 12.075C14.2625 10.3583 15.3 8.80834 16.6208 7.57914C16.7 7.56664 16.8375 7.53749 17.0667 7.49164C18.4167 7.21249 23.7375 6.40414 28.7583 9.60834C28.2833 10.05 26.8333 11.0083 22.5917 12.1C22.0708 12.1791 16.1375 13.1333 13.4583 15.7916C13.4625 16.275 13.5 16.7458 13.5667 17.2125C15.4625 14.1833 22.6875 13.0791 22.7625 13.0708L22.8125 13.0625C27.2833 11.9125 28.9625 10.85 29.5875 10.1708C30.1208 10.5625 30.6417 11.0083 31.1583 11.5C26.9917 19.0875 19.4667 23.8291 18.0958 24.6458C18.3917 24.8583 18.7042 25.0583 19.0208 25.2416C21.1542 23.925 27.8458 19.4 31.8833 12.2333C32.2167 12.6208 32.7042 13.2458 33.1958 14.0875C33.025 14.4833 32.8417 14.9375 32.6833 15.4666L32.6583 15.55ZM29.25 8.74164C25.2792 6.22914 21.1333 6.07084 18.6792 6.27499C18.5083 6.28749 18.3792 6.29584 18.2667 6.31249C18.6208 6.08749 18.9833 5.88334 19.3583 5.69999C20.6667 5.07084 22.0917 4.67916 23.5375 4.58333C24.7542 4.49999 25.9792 4.62916 27.1542 4.94166C27.875 5.46249 29.7875 7.02499 29.25 8.74164ZM31.5958 10.55C31.1 10.0916 30.5958 9.67914 30.0875 9.30834C30.6167 8.05414 30.2125 6.84584 29.5042 5.86249C30.2458 6.24999 30.9417 6.72084 31.575 7.26664C31.9042 7.54584 32.2083 7.84999 32.5 8.16664C32.2625 8.89584 31.8625 9.89584 31.5958 10.55ZM33.7292 13.0625C33.1708 12.1916 32.65 11.5958 32.3583 11.2916C32.5542 10.8208 32.9333 9.88749 33.2375 9.05834C33.6167 9.56664 33.9583 10.1083 34.25 10.675C34.4542 11.0708 34.6333 11.4833 34.7875 11.9041C34.4917 12.1 34.1167 12.4458 33.7292 13.0625ZM35.4375 16.8916C35.1333 15.7916 34.7292 14.8333 34.3 14.0333C34.5958 13.4541 34.8833 13.1083 35.1042 12.9C35.4458 14.1958 35.5583 15.5541 35.4375 16.8916Z" fill="#0063AF"/>
<path d="M14.4083 43.3834H17.3V42.1833H14.4083V41.025H17.5083V39.8083H12.8333V46.1334H17.7958V44.8875H14.4083V43.3834Z" fill="#0063AF"/>
<path d="M15.3583 39.125L16.6458 38.0959H15.0333L14.4875 39.125H15.3583Z" fill="#0063AF"/>
<path d="M20.1958 39.8083H18.6208V46.1334H22.6666V44.7958H20.1958V39.8083Z" fill="#0063AF"/>
<path d="M25.7333 41.0541H27.3792V46.1334H28.975V41.0541H30.6125V39.8083H25.7333V41.0541Z" fill="#0063AF"/>
<path d="M32.8916 43.3834H35.7833V42.1833H32.8916V41.025H35.9916V39.8083H31.3124V46.1334H36.2749V44.8875H32.8916V43.3834Z" fill="#0063AF"/>
<path d="M25.0417 39.8083H23.4667V46.1334H25.0417V39.8083Z" fill="#0063AF"/>
<path d="M38.6667 27.1625H10.4417V36.7334H38.6667V27.1625Z" fill="#E10014"/>
<path d="M13.6291 29.2333H15.8499C16.7333 29.2333 17.3291 29.7333 17.3291 30.4208C17.3291 31.0375 16.9166 31.575 16.2958 31.8541C16.7416 32.0666 17.0333 32.5041 17.0333 33C17.0333 34.0291 16.0333 34.6708 14.9124 34.6708H12.4916L13.6291 29.2333ZM14.8249 33.5208C15.3249 33.5208 15.7083 33.2125 15.7083 32.7916C15.7083 32.5541 15.5166 32.4291 15.1374 32.4291H14.3166L14.0874 33.5208H14.8249ZM15.0708 31.3833C15.5416 31.3833 15.8958 31.0916 15.8958 30.7041C15.8874 30.4916 15.7124 30.3791 15.3624 30.3791H14.7374L14.5291 31.3833H15.0708Z" fill="white"/>
<path d="M24.6542 32.9333C24.6542 31.5875 25.9833 30.4833 27.325 30.4833C28.05 30.4833 28.5708 30.8166 28.8917 31.25L27.9083 31.9083C27.7792 31.7125 27.4875 31.6 27.25 31.6C26.5667 31.6 25.9292 32.2625 25.9292 32.9041C25.9292 33.325 26.2458 33.6458 26.6667 33.6458C26.9917 33.6458 27.3583 33.4625 27.5875 33.2416L28.375 34.05C27.8667 34.5166 27.2625 34.7625 26.5708 34.7625C25.4708 34.7625 24.6542 33.9458 24.6542 32.9333Z" fill="white"/>
<path d="M32.3792 32.9333C32.3792 31.5875 33.7083 30.4833 35.0499 30.4833C35.7749 30.4833 36.2958 30.8166 36.6166 31.25L35.6333 31.9083C35.5041 31.7125 35.2124 31.6 34.9749 31.6C34.2916 31.6 33.6542 32.2625 33.6542 32.9041C33.6542 33.325 33.9708 33.6458 34.3916 33.6458C34.7166 33.6458 35.0833 33.4625 35.3125 33.2416L36.0999 34.05C35.5916 34.5166 34.9874 34.7625 34.2958 34.7625C33.1999 34.7625 32.3792 33.9458 32.3792 32.9333Z" fill="white"/>
<path d="M19.2708 33.6459C19.075 33.6459 18.9042 33.5792 18.7708 33.4709L20.5417 32.6834L21.8417 32.1042C21.8125 31.825 21.7167 31.5667 21.575 31.3417C21.2458 30.825 20.6458 30.4792 19.9208 30.4792C18.5875 30.4792 17.2583 31.5792 17.2583 32.9292C17.2583 33.0375 17.2667 33.1417 17.2875 33.2459C17.3333 33.5167 17.4458 33.7709 17.6042 33.9875C17.9458 34.4542 18.5125 34.7584 19.1917 34.7584C19.8708 34.7584 20.4917 34.4917 20.9833 34.0667L20.1792 33.2417C19.9292 33.4834 19.6 33.6459 19.2708 33.6459ZM19.85 31.5959C20.0917 31.5959 20.2958 31.6959 20.4292 31.85L18.5292 32.6959C18.6417 32.1209 19.2292 31.5959 19.85 31.5959Z" fill="white"/>
<path d="M24.4042 28.9958L22.9834 29.6292L22.7834 30.5791H22.2417L22.0125 31.6458H22.5625C22.2042 33.3083 22.1667 33.4791 22.1667 33.6875C22.1667 34.3125 22.6125 34.7625 23.2875 34.7625C23.6542 34.7625 24.05 34.6292 24.3292 34.4084L24.1875 33.475C24.1 33.5541 23.9084 33.65 23.725 33.65C23.5834 33.65 23.5042 33.5791 23.5042 33.4041C23.5042 33.3083 23.5292 33.2125 23.8542 31.65H24.7042L24.925 30.5833H24.075L24.4042 28.9958Z" fill="white"/>
<path d="M29.6583 29.2333H30.9333L29.8 34.6667H28.525L29.6583 29.2333Z" fill="white"/>
<path d="M31.1917 30.575H32.475L31.6167 34.6625H30.3333L31.1917 30.575ZM31.3792 29.525C31.3792 29.0959 31.7625 28.7584 32.1583 28.7584C32.525 28.7584 32.7958 29.05 32.7958 29.4084C32.7958 29.8125 32.4292 30.1667 32.0417 30.1667C31.6458 30.1667 31.3792 29.8792 31.3792 29.525Z" fill="white"/>
</svg>
