<svg width="50" height="50" viewBox="0 0 50 50" fill="none" xmlns="http://www.w3.org/2000/svg">
<path d="M13.1733 20.78H3.86733L2.92667 23.626L1.27067 28.777H8.88431L9.81731 25.9357H5.563L6.285 23.626H12.2353L13.1733 20.78ZM4.83067 28.1423H1.47267L0 32.6217H3.358L4.83067 28.1423Z" fill="black"/>
<path d="M40.6653 20.7906H50L49.0583 23.6366H43.092L42.5417 25.3117L46.8437 25.3087L45.9097 28.1493L41.618 28.153L41.043 29.804H47.5943L46.6547 32.632H36.7667L40.666 20.7906H40.6653Z" fill="black"/>
<path d="M22.3414 18.302L17.6764 20.7603H17.577C15.4324 20.8973 14.268 21.2683 13.576 22.924C13.362 23.537 13.1854 24.1163 13.1854 24.1163L10.351 32.6417H13.7204L14.02 31.6783L18.1407 28.7107L16.8387 32.6417H20.1994L23.1677 23.6523C23.3207 23.2923 23.7854 21.762 22.4654 21.1017C22.088 20.862 21.335 20.7997 20.745 20.7603L19.8014 23.616H21.4694L15.18 28.1643L16.134 25.2967H14.4127L22.3414 18.302Z" fill="black"/>
<path d="M38.6647 20.7603H35.3013C34.7507 20.7603 34.3953 21.124 34.3953 21.124L30.4767 25.204L29.585 21.5533C29.528 21.3247 29.489 21.155 29.3283 20.9917C29.181 20.8687 29.042 20.7607 28.5663 20.7607H26.1207L22.199 32.642H25.578L27.831 25.7733L28.763 30.638L33.6453 25.7617L31.3833 32.6417H34.7713L38.6647 20.7603Z" fill="black"/>
</svg>
