<svg width="50" height="50" viewBox="0 0 50 50" fill="none" xmlns="http://www.w3.org/2000/svg">
<path d="M5.54193 41.2997L25.0839 50L44.6258 41.2997V16.6534L25.0839 7.953L5.54193 16.6534V41.2983V41.2997Z" fill="url(#paint0_linear_1627_1575)"/>
<path d="M5.54193 41.2997L25.0839 50L44.6258 41.2997V16.6534L25.0839 7.953L5.54193 16.6534V41.2983V41.2997Z" fill="url(#paint1_radial_1627_1575)"/>
<path d="M16.1229 44.2531C17.6562 44.8584 19.1756 45.4941 20.702 46.1145L25.0839 47.9483L29.4657 46.1131C30.9921 45.4926 32.5116 44.8557 34.0448 44.2517C35.5739 43.6368 37.1085 43.037 38.6459 42.4414C40.1874 41.8554 41.7276 41.2666 43.2829 40.7165V17.5262L25.0839 9.42285L6.88489 17.5262V40.7178C8.44019 41.2694 9.98033 41.8567 11.5218 42.4441C13.0592 43.0397 14.5952 43.6382 16.1229 44.2545V44.2531Z" fill="url(#paint2_linear_1627_1575)"/>
<path d="M38.6459 42.4427C37.1085 43.0383 35.5725 43.6367 34.0448 44.2531C32.5116 44.8584 30.9921 45.494 29.4657 46.1145L25.0839 47.9497L20.702 46.1158C19.1756 45.4954 17.6548 44.8597 16.1229 44.2544C14.5938 43.6381 13.0592 43.0397 11.5218 42.4441C9.98171 41.8567 8.44157 41.2693 6.88489 40.7178C8.3616 41.4541 9.85486 42.1517 11.3481 42.8536C12.8441 43.5457 14.3415 44.2351 15.8458 44.9066C17.346 45.5891 18.8585 46.2413 20.3656 46.9087L24.906 48.8638L25.0839 48.9397L25.2617 48.8638L29.8022 46.91C31.3092 46.2427 32.8218 45.5919 34.3219 44.9094C35.8262 44.2379 37.3236 43.5485 38.8196 42.8563C40.3115 42.1545 41.8048 41.4554 43.2815 40.7192C41.7248 41.2693 40.1847 41.8581 38.6445 42.4441L38.6459 42.4427Z" fill="white"/>
<path d="M15.4901 41.4968H16.6924V39.8119H19.9519V38.8619H16.6924V37.7147H20.4497V36.7399H15.4901V41.4968Z" fill="white"/>
<path d="M22.8888 41.4761H24.0897V39.8119H27.3493V38.8619H24.0897V37.6954H27.847V36.7192H22.8888V41.4761Z" fill="white"/>
<path d="M35.2278 37.6954V36.7192H30.2696V41.4761H31.4719V39.8119H34.7314V38.8619H31.4719V37.6954H35.2278Z" fill="white"/>
<path d="M31.4071 15.0636C30.7026 14.4707 29.6271 14.7299 29.2948 14.0253C28.979 14.3769 28.8315 14.8044 29.0535 15.1739C28.7943 15.3035 28.4606 15.3587 28.1821 15.229C27.9036 15.5999 27.9229 16.0632 28.0897 16.3417C27.8677 16.5086 27.534 16.6203 27.2376 16.5458C27.33 16.8795 27.6457 17.1208 27.9601 17.1208C27.9049 17.3621 27.8112 17.4724 27.6085 17.5468C27.8677 18.0473 28.7212 18.177 29.2948 17.9729C29.2396 17.9177 29.128 17.7316 29.128 17.4352C29.128 16.6354 29.8022 16.1087 30.7343 16.1087C31.1176 16.1087 31.363 16.1625 31.4995 16.1832C31.5574 16.1915 31.6016 16.1997 31.6402 16.1087C31.7408 15.8661 31.8332 15.4138 31.4071 15.0622V15.0636ZM33.2423 18.4555C32.8714 18.381 32.1669 18.3438 32.0566 17.8626C31.7408 18.8071 32.3158 19.7902 33.1679 19.7902C33.6505 19.7902 33.8904 19.4744 33.8904 19.1049C33.8904 18.7891 33.6491 18.5299 33.241 18.4569L33.2423 18.4555Z" fill="#DC0023"/>
<path d="M31.0735 17.2876C31.2403 17.2876 31.3699 17.158 31.3699 16.9912C31.3699 16.8423 31.2403 16.7127 31.0735 16.7127C30.9246 16.7127 30.795 16.8423 30.795 16.9912C30.795 17.158 30.9246 17.2876 31.0735 17.2876ZM23.0474 19.4744C20.9902 17.6944 17.2826 18.6775 15.8183 20.5499C13.8162 23.0897 14.7993 26.3699 15.9106 27.5377C15.1316 22.9601 17.9871 19.178 23.046 19.4744H23.0474ZM24.3118 20.5361C25.6037 20.7167 26.7068 21.1924 27.6747 21.7715C27.3245 19.1559 25.3142 17.0408 22.1332 17.0408C20.771 17.0408 19.3549 17.369 18.1719 18.1963C21.0771 17.3373 23.4004 18.421 24.3118 20.5361ZM33.2037 17.6764C32.0359 17.4172 31.8139 16.8795 32.4247 15.7861C32.091 16.157 31.5354 16.7678 31.7574 17.2876C31.9987 17.8061 33.0355 17.6957 33.2024 17.6764H33.2037ZM32.5667 25.2848C32.4564 25.2848 32.3447 25.2723 32.2331 25.2489C31.8442 26.0293 31.2886 26.6994 30.6516 27.2964C30.8901 27.3516 31.13 27.3819 31.3754 27.3819C33.212 27.3819 34.3675 25.8404 34.464 24.2382C33.9662 24.9028 33.3237 25.2848 32.5667 25.2848ZM32.8328 24.9056C33.7511 24.7594 34.4557 23.9818 34.4557 23.08C34.4557 22.4926 34.1896 21.4558 33.4823 20.8836C33.9455 22.2555 33.6863 23.9225 32.8328 24.9056ZM27.0763 25.697C26.2793 25.1317 25.4617 24.5843 24.5848 24.2672C24.2525 26.334 23.4528 28.1885 23.4514 30.4112C23.4514 31.932 23.8237 33.2074 24.975 34.7834C24.6785 33.963 24.5558 33.3605 24.5558 32.6159C24.5572 29.952 26.1483 28.1044 27.0763 25.697ZM19.1908 26.6484C18.0409 28.8173 19.024 30.7449 21.0633 30.4663C19.7658 30.021 18.8765 28.1858 19.1908 26.6484ZM30.089 19.4937C30.464 20.3252 30.7715 21.5854 30.7715 22.4982C30.7715 26.2279 27.6912 27.484 25.9388 30.2664C27.9601 28.7194 30.937 27.3626 32.0304 24.8049C32.7529 23.1186 32.1944 20.6602 30.089 19.4937ZM30.1841 24.0645C28.4937 22.745 26.3593 20.8284 23.1756 20.8284C19.3011 20.8284 17.0964 23.6081 17.0964 26.8332C17.0964 28.7056 18.0092 30.174 18.4311 30.5959C17.3584 27.2661 19.6017 23.615 23.0736 23.615C25.2949 23.615 27.0459 25.3192 28.7874 26.4347C29.4065 25.7232 29.9139 24.9828 30.1855 24.0631L30.1841 24.0645Z" fill="white"/>
<path d="M17.9003 3.98064L15.7548 2.46256H18.3939L19.2212 0L20.0471 2.46256H22.6861L20.5407 3.98064L21.4259 6.32185L19.2212 5.34155L17.0151 6.32185L17.9003 3.98064Z" fill="#C8AF73"/>
<path d="M29.6285 3.98064L27.483 2.46256H30.1221L30.948 0L31.7753 2.46256H34.413L32.2675 3.98064L33.1527 6.32325L30.948 5.34155L28.7433 6.32325L29.6285 3.98064Z" fill="#C8AF73"/>
<defs>
<linearGradient id="paint0_linear_1627_1575" x1="8.16444" y1="44.2118" x2="42.0047" y2="13.7413" gradientUnits="userSpaceOnUse">
<stop stop-color="#BE965A"/>
<stop offset="0.12" stop-color="#BF985C"/>
<stop offset="0.21" stop-color="#C39E65"/>
<stop offset="0.28" stop-color="#CAA975"/>
<stop offset="0.35" stop-color="#D3B98B"/>
<stop offset="0.42" stop-color="#E0CDA7"/>
<stop offset="0.44" stop-color="#E6D7B4"/>
<stop offset="0.46" stop-color="#E4D4B0"/>
<stop offset="0.69" stop-color="#D4C08E"/>
<stop offset="0.87" stop-color="#CBB37A"/>
<stop offset="1" stop-color="#C8AF73"/>
</linearGradient>
<radialGradient id="paint1_radial_1627_1575" cx="0" cy="0" r="1" gradientUnits="userSpaceOnUse" gradientTransform="translate(24.3945 51.2675) scale(24.5071 16.0522)">
<stop offset="0.27" stop-color="#DC0023"/>
<stop offset="0.35" stop-color="#DC0023" stop-opacity="0.98"/>
<stop offset="0.45" stop-color="#DC0023" stop-opacity="0.91"/>
<stop offset="0.56" stop-color="#DC0023" stop-opacity="0.81"/>
<stop offset="0.67" stop-color="#DC0023" stop-opacity="0.66"/>
<stop offset="0.78" stop-color="#DC0023" stop-opacity="0.47"/>
<stop offset="0.89" stop-color="#DC0023" stop-opacity="0.24"/>
<stop offset="1" stop-color="#DC0023" stop-opacity="0"/>
</radialGradient>
<linearGradient id="paint2_linear_1627_1575" x1="37.2492" y1="12.9788" x2="12.92" y2="45.2652" gradientUnits="userSpaceOnUse">
<stop stop-color="#0078BE"/>
<stop offset="0.09" stop-color="#046EB3"/>
<stop offset="0.24" stop-color="#105597"/>
<stop offset="0.44" stop-color="#232C69"/>
<stop offset="0.45" stop-color="#252966"/>
<stop offset="0.62" stop-color="#222660"/>
<stop offset="0.84" stop-color="#1B1F50"/>
<stop offset="1" stop-color="#141840"/>
</linearGradient>
</defs>
</svg>
