<svg width="50" height="50" viewBox="0 0 50 50" fill="none" xmlns="http://www.w3.org/2000/svg">
<path d="M42.4859 50V0H8.16199V50H42.4859Z" fill="white"/>
<path d="M42.1041 0.36145H8.52747V49.6315H42.1041V0.36145Z" fill="#091C3E"/>
<path d="M26.011 39.3778H28.6874V40.0382H26.7409V40.9767H28.6352V41.6024H26.7409V42.5408H28.6874V43.2012H26.011V39.3778ZM36.0735 43.2708C36.8904 43.2708 37.3596 42.871 37.3596 42.3323C37.3596 41.9499 37.0815 41.6545 36.508 41.5328L35.8997 41.4112C35.5522 41.3417 35.4305 41.2722 35.4305 41.1505C35.4305 40.9767 35.6043 40.8724 35.9171 40.8724C36.2473 40.8724 36.508 40.9593 36.5775 41.2722H37.2901C37.2553 40.6813 36.8208 40.2989 35.9693 40.2989C35.222 40.2989 34.7006 40.6117 34.7006 41.2026C34.7006 41.6197 34.996 41.8804 35.6043 42.0195L36.2821 42.1759C36.5428 42.228 36.6123 42.2975 36.6123 42.4192C36.6123 42.593 36.4037 42.7146 36.0909 42.7146C35.6738 42.7146 35.4479 42.6277 35.361 42.3149H34.6484C34.7527 42.871 35.1872 43.2708 36.0735 43.2708ZM34.4399 43.2012H33.6752C33.1886 43.2012 32.9279 42.9058 32.9279 42.5235V41.0115H32.3891V40.3684H32.9279V39.569H33.6405V40.3684H34.4399V41.0115H33.6405V42.3323C33.6405 42.4887 33.7447 42.5582 33.9011 42.5582H34.4399V43.2012ZM31.3638 40.3858V40.6465C31.1205 40.4379 30.7903 40.3163 30.4601 40.3163C29.6432 40.2989 28.9654 40.9419 28.9481 41.7588C28.9307 42.5756 29.5737 43.2534 30.3905 43.2708C30.4079 43.2708 30.4253 43.2708 30.4601 43.2708C30.7903 43.2708 31.1031 43.1491 31.3638 42.9406V43.2012H32.0763V40.3858H31.3638ZM30.5296 42.6451C30.0603 42.6451 29.6606 42.2628 29.6606 41.7935C29.6606 41.3243 30.043 40.9246 30.5122 40.9246C30.9814 40.9246 31.3812 41.3069 31.3812 41.7761C31.3812 41.7761 31.3812 41.7761 31.3812 41.7935C31.3812 42.2628 30.9988 42.6451 30.5296 42.6451Z" fill="white"/>
<path d="M19.3373 33.1039H18.4162V36.7709H19.3373V33.1039ZM17.7558 36.0062H16.0005V33.1039H15.0794V36.7709H17.7384V36.0062H17.7558ZM29.9213 35.2589H31.3464V34.529H29.9213V33.886H31.6766V33.1213H29.0002V36.7883H31.7287V36.0236H29.9213V35.2589ZM27.0885 35.2242C27.0885 35.6239 26.8452 36.0236 26.2716 36.0236C25.6981 36.0236 25.4548 35.6239 25.4548 35.2242V33.1039H24.5337V35.1547C24.5337 36.2496 25.2289 36.8057 26.2716 36.8057C27.3144 36.8057 28.0096 36.2322 28.0096 35.1547V33.1039H27.0885V35.2242ZM35.0308 33.1039L33.6926 33.8338L33.8664 34.6159L34.6832 34.1814V36.7536H35.5695V33.0865H35.0308V33.1039ZM15.7398 41.7414C15.7398 42.3497 15.3227 42.7494 14.8014 42.7494C14.2626 42.7494 13.8803 42.3497 13.8803 41.7414V39.3778H13.3068V41.7588C13.3068 42.6625 13.9324 43.2534 14.7492 43.2534C15.1316 43.2534 15.4965 43.097 15.7572 42.8363V43.2012H16.3134V39.3778H15.7398V41.7414ZM23.8038 40.7508V40.4032H23.265V43.1839H23.8038V41.6024C23.8038 41.1679 24.0645 40.8898 24.4121 40.8898H24.638V40.3858H24.4468C24.1861 40.3858 23.9255 40.5248 23.8038 40.7508ZM22.8827 41.8109C22.8827 40.9767 22.2918 40.3684 21.4924 40.3684C20.7103 40.3684 20.0673 41.0115 20.0673 41.8109C20.0673 42.6451 20.7103 43.2708 21.5445 43.2708C22.0137 43.2881 22.4656 43.0622 22.7437 42.6799L22.3439 42.3844C22.1528 42.6451 21.8573 42.8015 21.5445 42.7841C21.0926 42.7841 20.6929 42.4366 20.6234 41.9847H22.8827V41.8109ZM20.6408 41.5502C20.7451 41.1331 21.0753 40.8377 21.4924 40.8377C21.9095 40.8377 22.2397 41.1331 22.3266 41.5502H20.6408ZM18.3989 40.3511C18.3815 40.3511 18.3641 40.3511 18.3293 40.3511C17.9644 40.3511 17.5994 40.5075 17.3387 40.7682V39.3778H16.8V43.2012H17.3387V42.8537C17.5994 43.1143 17.9644 43.2708 18.3293 43.2708C19.1288 43.2881 19.7892 42.6451 19.8066 41.8457C19.8413 41.0462 19.1983 40.3684 18.3989 40.3511ZM18.312 42.7668C17.7732 42.7668 17.3387 42.3497 17.3387 41.8109C17.3387 41.2722 17.7732 40.855 18.2946 40.8377C18.8333 40.8377 19.2504 41.2722 19.2678 41.7935C19.2504 42.3323 18.8333 42.7668 18.312 42.7668ZM22.2223 36.8231C23.0391 36.8231 23.5083 36.5276 23.6995 36.3712V34.8766L22.8479 34.9809V35.9194C22.6915 35.9889 22.5004 36.041 22.2744 36.041C21.6314 36.041 21.11 35.5891 21.11 34.9461C21.11 34.3031 21.5793 33.886 22.2744 33.886C22.761 33.886 23.0565 33.9729 23.3693 34.1119L23.5952 33.3125C23.3346 33.1734 22.8479 33.0518 22.2397 33.0518C20.9884 33.0518 20.1542 33.886 20.1542 34.9287C20.1542 35.9889 21.0057 36.8231 22.2223 36.8231Z" fill="white"/>
<path d="M28.5484 17.8797C28.5484 19.6524 27.0885 21.1122 25.3158 21.1122C23.5431 21.1122 22.0833 19.6524 22.0833 17.8797C22.0833 16.107 23.5431 14.6472 25.3158 14.6472C27.0885 14.6472 28.5484 16.107 28.5484 17.8797Z" fill="white"/>
<path d="M31.9546 9.83316L29.4694 13.813C30.599 15.4293 31.5375 16.9586 32.3717 18.627C31.2768 20.7647 30.0603 22.8328 28.6178 24.7445C26.6192 24.9183 24.6206 24.9009 22.622 24.7967L20.1194 28.7939C23.9428 29.1588 27.4013 29.2457 30.964 28.6896C33.5187 25.5614 35.4826 22.3462 37.2379 18.6444C35.8823 15.4466 34.0054 12.5443 31.9546 9.83316Z" fill="#CDFB0A"/>
<path d="M18.2772 17.1498C19.3721 15.0122 20.5713 12.9267 22.0311 11.0323C24.0297 10.8585 26.0284 10.8759 28.027 10.9802L30.5296 6.98296C26.9321 6.60061 23.491 6.65276 19.6849 7.08721C17.2519 10.0069 14.9926 13.6566 13.411 17.1498C14.8014 20.3302 16.5393 23.0935 18.6943 25.9437L21.1796 21.9638C20.0499 20.2954 19.1114 18.8008 18.2772 17.1498Z" fill="#CDFB0A"/>
</svg>
