<svg width="50" height="50" viewBox="0 0 50 50" fill="none" xmlns="http://www.w3.org/2000/svg">
<path d="M42.4772 50V0H8.15906V50H42.4772Z" fill="white"/>
<path d="M42.107 0.370148H8.52917V49.6298H42.107V0.370148Z" fill="#091C3E"/>
<path d="M28.5504 17.8819C28.5504 19.6597 27.0941 21.116 25.3164 21.116C23.5386 21.116 22.0823 19.6597 22.0823 17.8819C22.0823 16.1042 23.5386 14.6479 25.3164 14.6479C27.0941 14.6479 28.5504 16.1042 28.5504 17.8819Z" fill="white"/>
<path d="M18.8882 17.0826C18.9508 13.4836 22.0597 10.611 25.8203 10.6753C26.5432 10.6875 27.2905 10.823 28.0012 11.0993L30.2413 7.25184C28.8667 6.66794 27.4034 6.45244 25.8933 6.42639C19.698 6.31864 14.575 11.0646 14.4725 17.0061C14.4134 20.3601 15.9948 23.6375 18.8847 25.7698L21.0848 21.9884C19.6615 20.7233 18.8552 18.9437 18.8882 17.0826Z" fill="#16FFD0"/>
<path d="M31.7479 18.7266C31.6854 22.3256 28.5764 25.1981 24.8158 25.1338C24.0929 25.1217 23.3457 24.9861 22.6349 24.7098L20.3949 28.5573C21.7695 29.1412 23.2327 29.3567 24.7428 29.3828C30.9381 29.4905 36.0611 24.7446 36.1637 18.803C36.2228 15.4491 34.6414 12.1716 31.7514 10.0393L29.5513 13.8208C30.9746 15.0859 31.7809 16.8654 31.7479 18.7266Z" fill="#16FFD0"/>
<path fill-rule="evenodd" clip-rule="evenodd" d="M20.2542 44.2705C21.236 44.2705 21.8877 43.6571 22.0372 42.7013L22.7097 38.3759H18.9456C17.9603 38.3759 17.3103 38.9893 17.1626 39.9451L16.4901 44.2705H20.2542Z" fill="#8DC63F"/>
<path fill-rule="evenodd" clip-rule="evenodd" d="M25.7751 44.2705C26.7605 44.2705 27.4104 43.6571 27.5581 42.7013L28.2306 38.3759H24.4666C23.4812 38.3759 22.8313 38.9893 22.6836 39.9451L22.011 44.2705H25.7751Z" fill="#0DB14B"/>
<path fill-rule="evenodd" clip-rule="evenodd" d="M31.2979 44.2705C32.2832 44.2705 32.9332 43.6571 33.0809 42.7013L33.7534 38.3759H29.9893C29.004 38.3759 28.3541 38.9893 28.2064 39.9451L27.5338 44.2705H31.2979Z" fill="#00854A"/>
<path fill-rule="evenodd" clip-rule="evenodd" d="M21.0066 41.1842V41.1755H21.0118C21.5818 41.0625 21.8546 40.7758 21.799 40.3361C21.7382 39.8356 21.309 39.5715 20.2559 39.5715H17.7569L17.1747 43.0523H19.9656C21.0292 43.0523 21.9259 42.7221 21.8251 41.8828C21.7869 41.5613 21.4636 41.2537 21.0049 41.1842H21.0066ZM19.738 42.2268H18.777L18.8934 41.5786H19.7154C20.0282 41.5786 20.2976 41.6186 20.3288 41.8775C20.3636 42.1591 20.0039 42.2286 19.738 42.2286V42.2268ZM19.8336 40.9304H18.9907L19.0742 40.4039H19.844C20.1081 40.4039 20.3097 40.4439 20.3358 40.6524C20.3619 40.8661 20.0699 40.9304 19.8318 40.9304H19.8336ZM25.8568 39.5732L24.371 40.7306L24.3571 40.7184L24.5482 39.5715H23.0833L22.515 43.054H23.9765L24.1416 42.0339L24.6021 41.7038L25.6326 43.0523H27.2766L25.6604 41.0052L27.7597 39.5697H25.8551L25.8568 39.5732ZM28.7728 39.5732L28.6251 40.4682H29.9719L29.5409 43.0575H31.0372L31.4682 40.4682H32.8167L32.9679 39.5732H28.7728Z" fill="white"/>
<path d="M22.3899 35.9238C22.2318 36.002 22.0406 36.0385 21.8217 36.0385C21.1717 36.0385 20.6521 35.5902 20.6521 34.9403C20.6521 34.2903 21.1283 33.8889 21.8165 33.8889C22.2944 33.8889 22.6054 33.9706 22.9148 34.1183L23.1424 33.3224C22.8748 33.1799 22.3917 33.0669 21.7904 33.0669C20.5444 33.0669 19.7033 33.8941 19.7033 34.9403C19.7033 35.9864 20.5444 36.8206 21.7695 36.8206C22.595 36.8206 23.0538 36.5286 23.2397 36.367V34.8777L22.3934 34.9906V35.9238H22.3899ZM15.5413 33.1121H14.6237V36.7719H17.2912V36.0073H15.543V33.1121H15.5413ZM17.9516 36.7719H18.8692V33.1121H17.9516V36.7719ZM29.4628 35.267H30.8947V34.544H29.4628V33.8837H31.2214V33.1138H28.5452V36.7736H31.2736V36.009H29.4645V35.2687L29.4628 35.267ZM26.6319 35.2305C26.6319 35.6371 26.3921 36.0368 25.8065 36.0368C25.2208 36.0368 24.9914 35.6354 24.9914 35.2305V33.1121H24.0739V35.1627C24.0739 36.2506 24.7672 36.8188 25.8065 36.8188C26.8457 36.8188 27.5495 36.2506 27.5495 35.1627V33.1121H26.6319V35.2305ZM34.7474 36.009L34.7613 35.9934L35.5016 35.1245C35.7762 34.7978 35.9048 34.5041 35.9048 34.2017C35.9048 33.8785 35.7849 33.6039 35.5555 33.4058C35.2948 33.1799 34.916 33.0652 34.4259 33.0652C33.6109 33.0652 33.1122 33.4857 33.0513 33.5396L33.5223 34.2243C33.7465 34.047 33.962 33.9028 34.2991 33.9028C34.6362 33.9028 34.8534 34.1096 34.8534 34.3946C34.8534 34.5701 34.7874 34.6778 34.5719 34.9316L33.1365 36.612V36.7719H36.0108V36.009H34.7457H34.7474Z" fill="white"/>
</svg>
