<svg width="50" height="50" viewBox="0 0 50 50" fill="none" xmlns="http://www.w3.org/2000/svg">
<path d="M15.7927 17.2122V32.4139C15.7927 32.5105 15.7145 32.5887 15.618 32.5887H8.07C7.97341 32.5887 7.89522 32.5105 7.89522 32.4139V26.0181C7.89522 25.5421 7.31797 25.3029 6.9822 25.6387L0.296674 32.3242C0.186283 32.4346 0 32.3564 0 32.2023V17.2444C0 17.0903 0.186283 17.0121 0.296674 17.1225L7.42376 24.2289C7.68364 24.4842 8.0999 24.4819 8.35748 24.2243L15.4938 17.088C15.6042 16.9776 15.7904 17.0558 15.7904 17.2099L15.7927 17.2122Z" fill="#623F99"/>
<path d="M21.057 29.2677V20.356H23.5615L26.0337 26.9013L28.4255 20.356H30.8794V29.2677H29.058V23.2952L26.7398 29.2677H25.1851L22.8738 23.2952V29.2677H21.0524H21.057Z" fill="#231F20"/>
<path d="M33.2138 28.0995C32.4364 27.2738 32.0524 26.1791 32.0524 24.8108C32.0524 23.4424 32.4502 22.3385 33.2391 21.5105C34.0279 20.6895 35.1042 20.2802 36.4634 20.2802C37.5259 20.2802 38.4159 20.5791 39.1243 21.1748C39.8326 21.7704 40.242 22.5547 40.3616 23.5229H38.4527C38.2227 22.5225 37.4822 21.8946 36.4151 21.8946C35.6746 21.8946 35.0904 22.1614 34.6557 22.7018C34.2142 23.2423 33.998 23.9437 33.998 24.8085C33.998 25.6732 34.2165 26.3861 34.6442 26.922C35.072 27.4578 35.6631 27.7246 36.4151 27.7246C37.4224 27.7246 38.4665 27.1911 38.639 25.94V25.8273H36.4266V24.3117H40.4098V29.2655H39.0737L38.8805 28.1961C38.3653 28.8745 37.4753 29.3391 36.2886 29.3391C35.0145 29.3391 33.9888 28.9228 33.2115 28.0972L33.2138 28.0995Z" fill="#231F20"/>
<path d="M43.1949 29.2677H41.2194L44.4759 20.356H46.7688L50 29.2677H47.9555L47.2655 27.3221H43.8779L43.1949 29.2677ZM45.5637 22.3936L44.3885 25.7812H46.7435L45.5637 22.3936Z" fill="#231F20"/>
</svg>
