<svg width="50" height="50" viewBox="0 0 50 50" fill="none" xmlns="http://www.w3.org/2000/svg">
<path d="M19.0083 19.1C19.0083 18.4667 18.5583 18.0083 17.85 18.0083H16.4083V21.7333H16.975V20.1667H17.6833L18.4667 21.7333H19.125L18.2667 20.0833C18.6833 19.975 19.0083 19.6333 19.0083 19.1ZM16.975 19.6833V18.5167H17.8083C18.1833 18.5167 18.4417 18.7333 18.4417 19.1C18.4417 19.4667 18.1833 19.6833 17.8083 19.6833H16.975ZM22.2167 21.7417H19.8417V18.0167H22.225V18.525H20.4083V19.6167H21.9583V20.1167H20.4083V21.2333H22.225V21.7417H22.2167ZM23.9917 21.2583C24.475 21.2583 24.7583 21.05 24.7583 20.6917C24.7583 20.5333 24.7083 20.3917 24.6083 20.3083C24.5167 20.2167 24.4167 20.1833 24.2 20.15L23.7583 20.0833C23.4583 20.0417 23.2167 19.9333 23.05 19.7833C22.8667 19.6083 22.775 19.375 22.775 19.075C22.775 18.425 23.25 17.9833 24.0167 17.9833C24.5083 17.9833 24.85 18.1083 25.175 18.4083L24.8167 18.7667C24.5833 18.55 24.3167 18.475 24.0083 18.475C23.5667 18.475 23.325 18.725 23.325 19.0583C23.325 19.1917 23.3667 19.3167 23.4667 19.4C23.5583 19.4833 23.7167 19.55 23.8833 19.575L24.3083 19.6417C24.65 19.6917 24.85 19.775 25 19.9167C25.2083 20.0917 25.3 20.3583 25.3 20.6833C25.3 21.3667 24.7417 21.775 23.9583 21.775C23.4 21.775 23 21.6417 22.6417 21.2833L23.0167 20.9083C23.3083 21.175 23.6083 21.2583 23.9917 21.2583ZM26.6417 20.275H27.4917C28.2167 20.275 28.6833 19.7917 28.6833 19.1417C28.6833 18.4917 28.2167 18.0083 27.4917 18.0083H26.075V21.7333H26.6417V20.275ZM26.6417 18.5167H27.4583C27.85 18.5167 28.1167 18.75 28.1167 19.1417C28.1167 19.5333 27.85 19.7583 27.4583 19.7583H26.6417V18.5167ZM30.575 21.7667C30.975 21.7667 31.3 21.625 31.5583 21.3667C31.925 21 31.9167 20.5833 31.9167 19.8667C31.9167 19.15 31.925 18.7333 31.5583 18.3667C31.3 18.1083 30.975 17.9667 30.575 17.9667C30.175 17.9667 29.85 18.1083 29.6 18.3667C29.2333 18.7333 29.2417 19.15 29.2417 19.8667C29.2417 20.5833 29.2333 21 29.6 21.3667C29.85 21.625 30.175 21.7667 30.575 21.7667ZM30.0167 18.7167C30.15 18.575 30.35 18.4833 30.575 18.4833C30.8 18.4833 31 18.575 31.1333 18.7167C31.3167 18.9167 31.35 19.125 31.35 19.875C31.35 20.625 31.3167 20.8333 31.1333 21.0333C31 21.175 30.8 21.2667 30.575 21.2667C30.35 21.2667 30.15 21.175 30.0167 21.0333C29.8333 20.8333 29.8 20.625 29.8 19.875C29.8 19.125 29.8333 18.9167 30.0167 18.7167ZM33.3167 21.7417H32.75V18.0167H33.2667L34.9917 20.6333V18.0167H35.5583V21.7417H35.0417L33.3167 19.1167V21.7417ZM37.85 19.6333C38.1917 19.6833 38.3917 19.7667 38.5417 19.9083C38.75 20.0833 38.8417 20.35 38.8417 20.675C38.8417 21.3583 38.2833 21.7667 37.5 21.7667C36.9417 21.7667 36.5417 21.6333 36.1833 21.275L36.5583 20.9C36.8333 21.175 37.125 21.2583 37.5083 21.2583C37.9917 21.2583 38.275 21.05 38.275 20.6917C38.275 20.5333 38.225 20.3917 38.125 20.3083C38.0333 20.2167 37.9333 20.1833 37.7167 20.15L37.275 20.0917C36.975 20.05 36.7333 19.9417 36.5667 19.7917C36.3833 19.6167 36.2917 19.3833 36.2917 19.0833C36.2917 18.4333 36.7583 17.9917 37.5333 17.9917C38.025 17.9917 38.3667 18.1167 38.6917 18.4167L38.3333 18.775C38.1 18.5583 37.8333 18.4833 37.525 18.4833C37.0833 18.4833 36.8417 18.7333 36.8417 19.0667C36.8417 19.2 36.8833 19.325 36.9833 19.4083C37.075 19.4917 37.2333 19.5583 37.4 19.5833L37.85 19.6333ZM39.6083 18.0167H40.175V21.7417H39.6083V18.0167ZM43.225 19.825C43.475 19.725 43.725 19.4417 43.725 19.0333C43.725 18.4083 43.2917 18.0167 42.6 18.0167H41.15V21.7417H42.6583C43.3167 21.7417 43.7833 21.375 43.7833 20.6917C43.7833 20.2167 43.5083 19.9417 43.225 19.825ZM41.7167 18.5167H42.55C42.9083 18.5167 43.1583 18.7083 43.1583 19.05C43.1583 19.3917 42.9083 19.5833 42.55 19.5833H41.7167V18.5167ZM42.6 21.2333H41.7083V20.1H42.6C42.9917 20.1 43.2083 20.3333 43.2083 20.6667C43.2167 20.9917 43 21.2333 42.6 21.2333ZM46.975 21.7417H44.6167V18.0167H45.1833V21.2333H46.975V21.7417ZM48.1833 18.5167V19.6083H49.7333V20.1083H48.1833V21.225H50V21.7333H47.6167V18.0083H50V18.5167H48.1833ZM17.6167 24.4333H18.975V25C18.975 25.4833 18.8833 25.7917 18.6417 26.05C18.3583 26.35 18.0083 26.475 17.6167 26.475C17.2333 26.475 16.8917 26.3333 16.6417 26.075C16.275 25.7083 16.2833 25.2917 16.2833 24.575C16.2833 23.8583 16.275 23.4417 16.6417 23.075C16.9 22.8167 17.225 22.675 17.6167 22.675C18.4083 22.675 18.8667 23.1917 18.975 23.8333H18.4083C18.3167 23.425 18.0417 23.1833 17.625 23.1833C17.4083 23.1833 17.2083 23.275 17.075 23.4167C16.8917 23.6167 16.85 23.825 16.85 24.575C16.85 25.325 16.8917 25.5417 17.075 25.7333C17.2083 25.875 17.4083 25.9583 17.625 25.9583C17.8667 25.9583 18.0833 25.8667 18.2333 25.7C18.3667 25.5417 18.425 25.3583 18.425 25.1167V24.9083H17.6333V24.4333H17.6167ZM20.675 22.725L19.3083 26.45H19.9083L20.1667 25.7H21.6333L21.8917 26.45H22.4917L21.1333 22.725H20.675ZM20.3333 25.2167L20.9167 23.5667L21.4833 25.2167H20.3333ZM25.7417 26.4417V23.95L24.8833 25.7667H24.4667L23.5917 23.9583V26.45H23.025V22.725H23.5917L24.6833 25.0417L25.75 22.725H26.3167V26.45H25.7417V26.4417ZM27.275 22.725H27.8417V26.45H27.275V22.725ZM31.1 26.4417L29.375 23.825V26.4417H28.8083V22.725H29.325L31.05 25.3417V22.725H31.6167V26.45H31.1V26.4417ZM34.8167 26.05C34.5333 26.35 34.1833 26.475 33.7917 26.475C33.4083 26.475 33.0667 26.3333 32.8167 26.075C32.45 25.7083 32.4583 25.2917 32.4583 24.575C32.4583 23.8583 32.45 23.4417 32.8167 23.075C33.075 22.8167 33.4 22.675 33.7917 22.675C34.5833 22.675 35.0417 23.1917 35.15 23.8333H34.5833C34.4917 23.425 34.2167 23.1833 33.8 23.1833C33.5833 23.1833 33.3833 23.275 33.25 23.4167C33.0667 23.6167 33.025 23.825 33.025 24.575C33.025 25.325 33.0667 25.5417 33.25 25.7333C33.3833 25.875 33.5833 25.9583 33.8 25.9583C34.05 25.9583 34.2583 25.8667 34.4083 25.7C34.5417 25.5417 34.6 25.3583 34.6 25.1167V24.9083H33.8083V24.425H35.1667V24.9917C35.1583 25.4833 35.0667 25.7917 34.8167 26.05ZM16.4083 27.425H18.7917V27.9333H16.975V29.0667H18.525V29.575H16.975V31.15H16.4083V27.425ZM20.5667 27.4C20.1667 27.4 19.8417 27.5417 19.5917 27.8C19.225 28.1667 19.2333 28.5833 19.2333 29.3C19.2333 30.0167 19.225 30.4333 19.5917 30.8C19.85 31.0583 20.175 31.2 20.5667 31.2C20.9667 31.2 21.2917 31.0583 21.55 30.8C21.9167 30.4333 21.9083 30.0167 21.9083 29.3C21.9083 28.5833 21.9167 28.1667 21.55 27.8C21.3 27.5417 20.9667 27.4 20.5667 27.4ZM21.125 30.45C20.9917 30.5917 20.7917 30.6833 20.5667 30.6833C20.35 30.6833 20.1417 30.5917 20.0083 30.45C19.825 30.25 19.7917 30.0417 19.7917 29.2917C19.7917 28.5417 19.825 28.3333 20.0083 28.1333C20.1417 27.9917 20.3417 27.9 20.5667 27.9C20.7833 27.9 20.9917 27.9917 21.125 28.1333C21.3083 28.3333 21.3417 28.5417 21.3417 29.2917C21.3417 30.0417 21.3083 30.25 21.125 30.45ZM24.8 27.4333H25.3667V29.9C25.3667 30.6667 24.7833 31.1833 24.025 31.1833C23.2667 31.1833 22.6917 30.6667 22.6917 29.9V27.4333H23.2583V29.875C23.2583 30.375 23.5583 30.6833 24.025 30.6833C24.4917 30.6833 24.8 30.375 24.8 29.875V27.4333ZM28.5167 27.4333H29.0833V31.1583H28.5667L26.8417 28.5333V31.15H26.275V27.425H26.7917L28.5167 30.0417V27.4333ZM32.325 27.7833C32.0917 27.55 31.75 27.4333 31.3583 27.4333H30.05V31.1583H31.3583C31.7417 31.1583 32.0833 31.0417 32.325 30.8083C32.725 30.4083 32.7 29.8083 32.7 29.2667C32.7 28.725 32.725 28.1833 32.325 27.7833ZM31.9417 30.3917C31.7833 30.5667 31.575 30.6417 31.3083 30.6417H30.625V27.9333H31.3083C31.575 27.9333 31.7833 28.0083 31.9417 28.1833C32.1333 28.4 32.1417 28.75 32.1417 29.2583C32.1333 29.775 32.1333 30.1833 31.9417 30.3917ZM34.4083 27.425L33.0417 31.15H33.6417L33.9 30.4H35.3667L35.625 31.15H36.225L34.8583 27.425H34.4083ZM34.0667 29.925L34.65 28.275L35.2167 29.925H34.0667ZM36.1083 27.4333H38.725V27.9417H37.7V31.1583H37.1333V27.9417H36.1083V27.4333ZM39.3667 27.425H39.9333V31.15H39.3667V27.425ZM42.1083 27.4C41.7083 27.4 41.3833 27.5417 41.1333 27.8C40.7667 28.1667 40.775 28.5833 40.775 29.3C40.775 30.0167 40.7667 30.4333 41.1333 30.8C41.3917 31.0583 41.7167 31.2 42.1083 31.2C42.5 31.2 42.8333 31.0583 43.0917 30.8C43.4583 30.4333 43.45 30.0167 43.45 29.3C43.45 28.5833 43.4583 28.1667 43.0917 27.8C42.8417 27.5417 42.5083 27.4 42.1083 27.4ZM42.6667 30.45C42.5333 30.5917 42.3333 30.6833 42.1083 30.6833C41.8917 30.6833 41.6833 30.5917 41.55 30.45C41.3667 30.25 41.3333 30.0417 41.3333 29.2917C41.3333 28.5417 41.3667 28.3333 41.55 28.1333C41.6833 27.9917 41.8833 27.9 42.1083 27.9C42.325 27.9 42.5333 27.9917 42.6667 28.1333C42.85 28.3333 42.8833 28.5417 42.8833 29.2917C42.8833 30.0417 42.85 30.25 42.6667 30.45ZM46.525 27.4333H47.0917V31.1583H46.575L44.85 28.5417V31.1583H44.2833V27.4333H44.8L46.525 30.05V27.4333Z" fill="#58595B"/>
<path fill-rule="evenodd" clip-rule="evenodd" d="M4.16671 28.4167C5.50837 29.7583 7.68337 29.7583 9.02504 28.4167C9.08337 28.3583 9.15837 28.3333 9.24171 28.3333C9.30837 28.3333 9.38337 28.3583 9.44171 28.4167C9.55837 28.5333 9.55837 28.7083 9.44171 28.825C8.86671 29.4 8.15004 29.775 7.37504 29.925C7.44171 30.05 7.48337 30.1917 7.48337 30.35C7.48337 30.8417 7.09171 31.2333 6.60004 31.2333C6.10837 31.2333 5.71671 30.8417 5.71671 30.35C5.71671 30.2 5.75837 30.05 5.82504 29.925C5.05004 29.775 4.33337 29.4 3.75837 28.825C3.65004 28.7083 3.65004 28.525 3.75837 28.4167C3.87504 28.3 4.05004 28.3 4.16671 28.4167Z" fill="url(#paint0_linear_1627_1578)"/>
<path fill-rule="evenodd" clip-rule="evenodd" d="M6.58338 25.0583H6.59171C6.59436 25.0583 6.59616 25.0583 6.59793 25.0586C6.60173 25.0592 6.60534 25.061 6.61671 25.0667H6.62505C6.63436 25.0698 6.64482 25.0717 6.656 25.0738C6.67487 25.0773 6.69579 25.0812 6.71671 25.0917H6.72505C6.72505 25.1 6.73338 25.1 6.73338 25.1C6.73755 25.1 6.73963 25.1021 6.74171 25.1042C6.7438 25.1063 6.74588 25.1084 6.75005 25.1084C6.75005 25.1167 6.75838 25.1167 6.75838 25.1167C6.76255 25.1167 6.76463 25.1188 6.76671 25.1208C6.7688 25.1229 6.77088 25.125 6.77505 25.125L6.78338 25.1333L6.79171 25.1417L6.80005 25.15L6.80838 25.1584C6.80838 25.1625 6.81046 25.1646 6.81255 25.1667C6.81463 25.1688 6.81671 25.1708 6.81671 25.175C6.82505 25.175 6.82505 25.1833 6.82505 25.1833C6.8302 25.1833 6.83217 25.1865 6.83488 25.1909C6.83656 25.1937 6.83853 25.1968 6.84171 25.2L8.48338 27.8833C8.56671 28.0167 8.51671 28.1917 8.38338 28.275C8.33338 28.3 8.28338 28.3167 8.23338 28.3167C8.13338 28.3167 8.03338 28.2667 7.98338 28.175L6.60005 25.8833L5.21671 28.175C5.15838 28.2667 5.06671 28.3167 4.96671 28.3167C4.91671 28.3167 4.86671 28.3 4.81671 28.275C4.67505 28.2 4.63338 28.0167 4.71671 27.8833L6.34171 25.1833C6.34686 25.1833 6.34883 25.1802 6.35155 25.1758C6.35323 25.173 6.3552 25.1699 6.35838 25.1667C6.36671 25.1583 6.36671 25.1584 6.36671 25.1584L6.38338 25.1417L6.39171 25.1333L6.40005 25.125C6.40421 25.125 6.4063 25.1229 6.40838 25.1208C6.41046 25.1188 6.41255 25.1167 6.41671 25.1167L6.42505 25.1084C6.42921 25.1084 6.4313 25.1063 6.43338 25.1042C6.43546 25.1021 6.43755 25.1 6.44171 25.1L6.45005 25.0917C6.45005 25.0917 6.45838 25.0833 6.46671 25.0833H6.47505C6.48338 25.075 6.48338 25.075 6.49171 25.075H6.49171C6.49693 25.0733 6.50179 25.0715 6.50643 25.0699C6.52404 25.0636 6.5386 25.0583 6.55838 25.0583H6.57505H6.58338Z" fill="url(#paint1_linear_1627_1578)"/>
<path fill-rule="evenodd" clip-rule="evenodd" d="M7.05829 24.3917L9.75829 22.7667C9.80829 22.7417 9.85829 22.725 9.90829 22.7167C10.0083 22.7167 10.1 22.7667 10.1583 22.8583C10.1833 22.9083 10.2 22.9583 10.2 23.0083C10.2 23.1083 10.15 23.2083 10.0583 23.2583L7.76663 24.6417L10.05 26C10.1416 26.0583 10.1916 26.15 10.1916 26.25C10.1916 26.3 10.175 26.35 10.15 26.4C10.0666 26.5417 9.88329 26.5833 9.74996 26.5L7.04996 24.875C7.04996 24.8667 7.04163 24.8667 7.04163 24.8667C7.03746 24.8667 7.03538 24.8646 7.03329 24.8625C7.03121 24.8604 7.02913 24.8583 7.02496 24.8583L7.01663 24.85L7.00829 24.8417L6.99996 24.8333L6.99163 24.825L6.97496 24.8083L6.96663 24.8C6.96246 24.7958 6.96038 24.7917 6.95829 24.7875C6.95621 24.7833 6.95413 24.7792 6.94996 24.775C6.94996 24.7708 6.94788 24.7667 6.94579 24.7625C6.94371 24.7583 6.94163 24.7542 6.94163 24.75C6.94163 24.7458 6.93954 24.7417 6.93746 24.7375C6.93538 24.7333 6.93329 24.7292 6.93329 24.725C6.92496 24.7083 6.91663 24.6833 6.91663 24.6667V24.65V24.6417V24.625V24.6083V24.6V24.5833C6.91663 24.5667 6.92496 24.5417 6.93329 24.525C6.93329 24.525 6.94163 24.5167 6.94163 24.5083C6.94163 24.5 6.94163 24.4917 6.94996 24.4833C6.95511 24.4833 6.95708 24.4802 6.9598 24.4758C6.96148 24.473 6.96344 24.4699 6.96663 24.4667L6.97496 24.4583L6.99163 24.4417L6.99996 24.4333C7.00829 24.4333 7.00829 24.4333 7.01662 24.425L7.01663 24.425L7.02496 24.4167L7.03329 24.4083C7.03746 24.4083 7.03954 24.4063 7.04163 24.4042C7.04371 24.4021 7.04579 24.4 7.04996 24.4C7.04996 24.3917 7.05829 24.3917 7.05829 24.3917Z" fill="url(#paint2_linear_1627_1578)"/>
<path fill-rule="evenodd" clip-rule="evenodd" d="M10.2749 22.2167C10.1583 22.1 10.1583 21.925 10.2749 21.8083C10.3333 21.75 10.4083 21.725 10.4833 21.7167C10.5499 21.7167 10.6249 21.7417 10.6833 21.8C11.2583 22.375 11.6333 23.0917 11.7833 23.875C11.9166 23.8 12.0666 23.7583 12.2249 23.7583C12.7166 23.7583 13.1083 24.15 13.1083 24.6417C13.1083 25.1333 12.7166 25.525 12.2249 25.525C12.0583 25.525 11.9166 25.4833 11.7833 25.4083C11.6333 26.1917 11.2583 26.9083 10.6833 27.4833C10.5666 27.6 10.3833 27.6 10.2749 27.4833C10.1583 27.3667 10.1583 27.1833 10.2749 27.075C11.6166 25.7333 11.6166 23.5583 10.2749 22.2167Z" fill="url(#paint3_linear_1627_1578)"/>
<path fill-rule="evenodd" clip-rule="evenodd" d="M0 24.65C0 25.1416 0.391667 25.5333 0.883334 25.5333C1.05 25.5333 1.2 25.4833 1.33333 25.4083C1.48333 26.1916 1.85833 26.9083 2.44167 27.4916C2.55833 27.6083 2.73333 27.6083 2.85 27.4916C2.96667 27.375 2.96667 27.2 2.85 27.0833C1.50833 25.7416 1.50833 23.5666 2.85 22.225C2.96667 22.1083 2.96667 21.9333 2.85 21.8166C2.79167 21.7583 2.71667 21.7333 2.65 21.7333C2.575 21.725 2.5 21.75 2.44167 21.8083C1.86667 22.3833 1.48333 23.1083 1.33333 23.8916C1.2 23.8083 1.05 23.7666 0.883334 23.7666C0.391667 23.7666 0 24.1583 0 24.65Z" fill="url(#paint4_linear_1627_1578)"/>
<path fill-rule="evenodd" clip-rule="evenodd" d="M2.92499 23.0167C2.92499 22.9667 2.94165 22.9167 2.96665 22.8667C3.02499 22.775 3.11665 22.725 3.19999 22.7334C3.24999 22.7334 3.29999 22.75 3.34999 22.775L6.04999 24.4H6.05832C6.06665 24.4 6.06665 24.4 6.07499 24.4084L6.07499 24.4084L6.08332 24.4167C6.08749 24.4167 6.08957 24.4188 6.09165 24.4209C6.09374 24.423 6.09582 24.425 6.09999 24.425L6.10832 24.4334L6.11665 24.4417C6.11665 24.4459 6.11874 24.448 6.12082 24.45C6.1229 24.4521 6.12499 24.4542 6.12499 24.4584C6.13332 24.4584 6.13332 24.4667 6.13332 24.4667C6.14165 24.4667 6.14999 24.475 6.14999 24.4834V24.4917C6.14999 24.4959 6.15207 24.5 6.15415 24.5042C6.15624 24.5084 6.15832 24.5125 6.15832 24.5167V24.525C6.15832 24.5292 6.1604 24.5313 6.16249 24.5334C6.16457 24.5355 6.16665 24.5375 6.16665 24.5417C6.17499 24.5667 6.18332 24.6 6.18332 24.625V24.6334V24.65V24.6667V24.675C6.18332 24.7 6.17499 24.7334 6.16665 24.7584C6.16665 24.7625 6.16457 24.7646 6.16249 24.7667C6.1604 24.7688 6.15832 24.7709 6.15832 24.775V24.7834C6.15832 24.7917 6.15832 24.8 6.14999 24.8084V24.8167C6.14484 24.8167 6.14287 24.8199 6.14015 24.8243C6.13847 24.827 6.1365 24.8302 6.13332 24.8334L6.12499 24.8417C6.12499 24.85 6.12499 24.85 6.11665 24.8584L6.10832 24.8667L6.09999 24.875C6.09582 24.875 6.09374 24.8771 6.09165 24.8792C6.08957 24.8813 6.08749 24.8834 6.08332 24.8834L6.07499 24.8917C6.07499 24.9 6.06665 24.9084 6.05832 24.9084L3.35832 26.5334C3.22499 26.6167 3.04999 26.5667 2.96665 26.4334C2.94165 26.3834 2.92499 26.3334 2.92499 26.2834C2.92499 26.1834 2.97499 26.0917 3.06665 26.0334L5.35832 24.65L3.06665 23.2667C2.97499 23.2084 2.92499 23.1167 2.92499 23.0167Z" fill="url(#paint5_linear_1627_1578)"/>
<path fill-rule="evenodd" clip-rule="evenodd" d="M5.83334 19.35C5.75834 19.2167 5.71668 19.075 5.71668 18.9167C5.71668 18.425 6.10834 18.0333 6.60834 18.0333C7.10001 18.0333 7.49167 18.425 7.49167 18.9167C7.49167 19.075 7.45001 19.225 7.37501 19.35C8.15001 19.5 8.86668 19.875 9.44168 20.45C9.55834 20.5667 9.55834 20.7417 9.44168 20.8583C9.32501 20.9667 9.14167 20.9667 9.03334 20.8583C7.69168 19.5167 5.51667 19.5167 4.17501 20.8583C4.05834 20.9667 3.88334 20.9667 3.76667 20.8583C3.65834 20.7417 3.65834 20.5583 3.76667 20.45C4.34167 19.875 5.05834 19.5 5.83334 19.35Z" fill="url(#paint6_linear_1627_1578)"/>
<path fill-rule="evenodd" clip-rule="evenodd" d="M6.59998 23.3667L7.98331 21.075C8.03331 20.9833 8.12498 20.9333 8.21664 20.95C8.26664 20.95 8.31664 20.9667 8.36664 20.9917C8.50831 21.0667 8.54998 21.25 8.46664 21.3833L6.84164 24.0833C6.83649 24.0833 6.83453 24.0865 6.83181 24.0909C6.83013 24.0936 6.82816 24.0968 6.82498 24.1L6.81664 24.1084L6.79998 24.125L6.79164 24.1333L6.78331 24.1417L6.77498 24.15L6.76664 24.1584C6.76248 24.1584 6.76039 24.1604 6.75831 24.1625C6.75623 24.1646 6.75414 24.1667 6.74998 24.1667C6.74998 24.175 6.74164 24.175 6.74164 24.175C6.73748 24.175 6.73539 24.1771 6.73331 24.1792C6.73123 24.1813 6.72914 24.1833 6.72498 24.1833C6.72498 24.1917 6.71664 24.1917 6.71664 24.1917C6.71664 24.2 6.70831 24.2 6.70831 24.2C6.70259 24.2014 6.69712 24.2029 6.69181 24.2043C6.66616 24.211 6.64426 24.2167 6.61664 24.2167H6.60831H6.59164H6.57498H6.56664L6.5666 24.2167C6.53328 24.2083 6.49997 24.2 6.47498 24.1917C6.47498 24.1834 6.46664 24.1833 6.46664 24.1833C6.46664 24.175 6.45831 24.175 6.45831 24.175C6.45414 24.175 6.45206 24.1729 6.44998 24.1708C6.44789 24.1688 6.44581 24.1667 6.44164 24.1667C6.44164 24.1583 6.43331 24.1584 6.43331 24.1584C6.42914 24.1584 6.42706 24.1563 6.42498 24.1542C6.42289 24.1521 6.42081 24.15 6.41664 24.15L6.40831 24.1417C6.40831 24.1417 6.40831 24.1333 6.39998 24.1333C6.39998 24.1333 6.39164 24.1333 6.39164 24.125L6.38331 24.1167L6.36664 24.1L6.35831 24.0917C6.35414 24.0875 6.35206 24.0833 6.34998 24.0792C6.34789 24.075 6.34581 24.0709 6.34164 24.0667L4.71664 21.3667C4.63331 21.2333 4.68331 21.0583 4.81664 20.975C4.86664 20.95 4.91664 20.9333 4.96664 20.9333C5.06664 20.9333 5.16664 20.9833 5.21664 21.075L6.59998 23.3667Z" fill="url(#paint7_linear_1627_1578)"/>
<defs>
<linearGradient id="paint0_linear_1627_1578" x1="8.32178" y1="30.7659" x2="3.87224" y2="28.1969" gradientUnits="userSpaceOnUse">
<stop stop-color="#00BEE7"/>
<stop offset="0.2158" stop-color="#01BBE5"/>
<stop offset="0.3783" stop-color="#03B1DD"/>
<stop offset="0.5233" stop-color="#06A1D0"/>
<stop offset="0.6581" stop-color="#0A8ABE"/>
<stop offset="0.786" stop-color="#106DA6"/>
<stop offset="0.9068" stop-color="#174989"/>
<stop offset="1" stop-color="#1E286F"/>
</linearGradient>
<linearGradient id="paint1_linear_1627_1578" x1="8.65603" y1="27.8881" x2="5.71333" y2="26.1891" gradientUnits="userSpaceOnUse">
<stop stop-color="#00BEE7"/>
<stop offset="0.2158" stop-color="#01BBE5"/>
<stop offset="0.3783" stop-color="#03B1DD"/>
<stop offset="0.5233" stop-color="#06A1D0"/>
<stop offset="0.6581" stop-color="#0A8ABE"/>
<stop offset="0.786" stop-color="#106DA6"/>
<stop offset="0.9068" stop-color="#174989"/>
<stop offset="1" stop-color="#1E286F"/>
</linearGradient>
<linearGradient id="paint2_linear_1627_1578" x1="7.30654" y1="25.3853" x2="10.538" y2="23.5197" gradientUnits="userSpaceOnUse">
<stop stop-color="#DA1C5C"/>
<stop offset="0.2176" stop-color="#D11C54"/>
<stop offset="0.5727" stop-color="#B91B3E"/>
<stop offset="1" stop-color="#931A1D"/>
</linearGradient>
<linearGradient id="paint3_linear_1627_1578" x1="9.38521" y1="25.9545" x2="12.8487" y2="23.9549" gradientUnits="userSpaceOnUse">
<stop stop-color="#DA1C5C"/>
<stop offset="0.2176" stop-color="#D11C54"/>
<stop offset="0.5727" stop-color="#B91B3E"/>
<stop offset="1" stop-color="#931A1D"/>
</linearGradient>
<linearGradient id="paint4_linear_1627_1578" x1="1.47872" y1="27.5662" x2="1.47872" y2="21.7224" gradientUnits="userSpaceOnUse">
<stop stop-color="#FFF200"/>
<stop offset="1" stop-color="#FBAA19"/>
</linearGradient>
<linearGradient id="paint5_linear_1627_1578" x1="4.56593" y1="26.5613" x2="4.56593" y2="22.7265" gradientUnits="userSpaceOnUse">
<stop stop-color="#FFF200"/>
<stop offset="1" stop-color="#FBAA19"/>
</linearGradient>
<linearGradient id="paint6_linear_1627_1578" x1="4.50182" y1="21.5989" x2="7.54287" y2="18.5578" gradientUnits="userSpaceOnUse">
<stop stop-color="#BDD631"/>
<stop offset="0.2" stop-color="#BDD631"/>
<stop offset="0.5543" stop-color="#8CB632"/>
<stop offset="0.8428" stop-color="#6BA133"/>
<stop offset="1" stop-color="#5E9933"/>
</linearGradient>
<linearGradient id="paint7_linear_1627_1578" x1="5.7162" y1="23.4526" x2="8.28919" y2="20.8796" gradientUnits="userSpaceOnUse">
<stop stop-color="#BDD631"/>
<stop offset="0.2" stop-color="#BDD631"/>
<stop offset="0.5543" stop-color="#8CB632"/>
<stop offset="0.8428" stop-color="#6BA133"/>
<stop offset="1" stop-color="#5E9933"/>
</linearGradient>
</defs>
</svg>
