<svg width="50" height="50" viewBox="0 0 50 50" fill="none" xmlns="http://www.w3.org/2000/svg">
<path d="M2.81445 37.588L2.50612 38.224C2.1944 38.0353 1.84342 37.9208 1.48036 37.8895C1.27239 37.8895 1.13092 37.9676 1.13092 38.1236C1.13092 38.6774 2.82372 38.3614 2.82372 39.521C2.82372 40.1602 2.25945 40.4984 1.54163 40.4984C1.00945 40.4952 0.493564 40.3145 0.0757446 39.9849L0.391733 39.3606C0.720138 39.6316 1.12593 39.7916 1.5509 39.8176C1.80723 39.8176 1.95959 39.7286 1.95959 39.5464C1.95959 38.9777 0.266789 39.3158 0.266789 38.1825C0.272835 37.588 0.781883 37.2164 1.5509 37.2164C1.99843 37.2204 2.43598 37.3491 2.81445 37.588Z" fill="#07223E"/>
<path d="M5.58742 39.446H3.85432C3.88078 39.5787 3.95366 39.6976 4.05989 39.7814C4.16611 39.8651 4.29872 39.9083 4.4339 39.9031C4.54397 39.9027 4.65286 39.8805 4.75429 39.8377C4.85571 39.795 4.94764 39.7325 5.02477 39.654L5.44112 40.0591C5.30274 40.203 5.13554 40.3162 4.95045 40.3911C4.76537 40.466 4.56655 40.5011 4.367 40.494C4.20059 40.4956 4.03549 40.4644 3.88113 40.4022C3.72677 40.34 3.58617 40.248 3.46736 40.1315C3.34855 40.015 3.25386 39.8762 3.18869 39.7231C3.12351 39.5699 3.08914 39.4055 3.08752 39.2391C3.08591 39.0727 3.11709 38.9076 3.17928 38.7532C3.24147 38.5988 3.33345 38.4582 3.44998 38.3394C3.56651 38.2206 3.70529 38.1259 3.85842 38.0608C4.01154 37.9956 4.176 37.9612 4.34241 37.9596C5.21017 37.9596 5.64304 38.5356 5.58742 39.446ZM4.8442 39.0224C4.84954 38.9576 4.84108 38.8923 4.81937 38.831C4.79767 38.7696 4.76322 38.7136 4.71829 38.6665C4.67335 38.6195 4.61896 38.5825 4.55869 38.5579C4.49842 38.5334 4.43364 38.5219 4.36861 38.5243C4.23652 38.5287 4.11082 38.5822 4.01604 38.6743C3.92125 38.7664 3.86417 38.8905 3.85593 39.0224H4.8442Z" fill="#07223E"/>
<path d="M6.8099 38.4054C6.8925 38.2668 7.01028 38.1526 7.15129 38.0743C7.2923 37.996 7.45151 37.9565 7.61276 37.9596V38.677C7.52573 38.6557 7.43525 38.6523 7.34688 38.6673C7.25851 38.6822 7.17413 38.715 7.09893 38.7637C7.02373 38.8125 6.95929 38.8761 6.90958 38.9507C6.85988 39.0252 6.82595 39.1092 6.8099 39.1973V40.4645H6.01831V37.9894H6.8099V38.4054Z" fill="#07223E"/>
<path d="M8.64942 40.4561L7.7204 37.9895H8.53778L9.06577 39.7306L9.60464 37.9879H10.3886L9.45955 40.4561H8.64942Z" fill="#07223E"/>
<path d="M11.5034 37.2797C11.5034 37.362 11.4789 37.4425 11.4332 37.511C11.3874 37.5794 11.3224 37.6328 11.2463 37.6643C11.1703 37.6958 11.0865 37.7041 11.0058 37.688C10.925 37.672 10.8508 37.6323 10.7926 37.5741C10.7344 37.5158 10.6947 37.4417 10.6787 37.3609C10.6626 37.2801 10.6708 37.1964 10.7023 37.1203C10.7339 37.0443 10.7872 36.9792 10.8557 36.9335C10.9242 36.8877 11.0047 36.8633 11.087 36.8633C11.1421 36.8618 11.1969 36.8715 11.2482 36.8918C11.2994 36.9122 11.3459 36.9428 11.3849 36.9818C11.4238 37.0208 11.4545 37.0673 11.4748 37.1185C11.4952 37.1697 11.5049 37.2246 11.5034 37.2797ZM10.6896 40.4569V37.9894H11.4776V40.4569H10.6896Z" fill="#07223E"/>
<path d="M14.3017 39.9107C14.2121 40.0663 14.0862 40.1978 13.9347 40.2942C13.7833 40.3907 13.6108 40.4491 13.432 40.4645L13.3167 40.691C13.4047 40.7052 13.4846 40.7506 13.5419 40.8188C13.5993 40.887 13.6302 40.9736 13.6291 41.0627C13.6291 41.3524 13.3913 41.5346 13.0567 41.5346C12.9011 41.5312 12.7499 41.4821 12.6218 41.3936L12.7669 41.0711C12.8303 41.1254 12.9101 41.1568 12.9934 41.1602C13.0171 41.1628 13.041 41.1604 13.0637 41.1532C13.0864 41.146 13.1073 41.1342 13.1251 41.1184C13.1429 41.1027 13.1573 41.0834 13.1672 41.0618C13.1772 41.0402 13.1825 41.0167 13.1829 40.9929C13.1829 40.8998 13.1123 40.8257 12.9749 40.8257C12.9192 40.8224 12.8633 40.8224 12.8076 40.8257L12.9862 40.4541C12.6798 40.4293 12.3954 40.2854 12.1939 40.0534C11.9924 39.8213 11.8899 39.5195 11.9084 39.2127C11.902 39.0439 11.9311 38.8756 11.9937 38.7188C12.0563 38.5619 12.151 38.4199 12.2718 38.3019C12.3927 38.1839 12.5369 38.0925 12.6952 38.0336C12.8535 37.9747 13.0224 37.9496 13.1909 37.96C13.4092 37.9448 13.6276 37.9881 13.8236 38.0855C14.0195 38.1828 14.186 38.3307 14.3058 38.5138L13.7371 38.8556C13.682 38.7747 13.6075 38.7089 13.5205 38.6642C13.4335 38.6194 13.3367 38.5971 13.2389 38.5992C12.9342 38.5992 12.7222 38.8519 12.7222 39.2236C12.7222 39.5952 12.9342 39.8479 13.2389 39.8479C13.3409 39.8537 13.4424 39.8306 13.5318 39.7812C13.6212 39.7319 13.6949 39.6583 13.7443 39.569L14.3017 39.9107Z" fill="#07223E"/>
<path d="M17.1074 39.2195C17.1123 39.3939 17.0802 39.5673 17.0132 39.7283C16.9462 39.8894 16.8459 40.0344 16.7187 40.1538C16.5916 40.2732 16.4406 40.3643 16.2757 40.421C16.1108 40.4778 15.9357 40.4989 15.762 40.4831C15.5883 40.4966 15.4137 40.4741 15.2491 40.417C15.0846 40.3598 14.9336 40.2692 14.8057 40.1509C14.6778 40.0326 14.5758 39.8892 14.506 39.7295C14.4362 39.5699 14.4001 39.3976 14.4001 39.2234C14.4001 39.0491 14.4362 38.8768 14.506 38.7172C14.5758 38.5576 14.6778 38.4141 14.8057 38.2958C14.9336 38.1775 15.0846 38.0869 15.2491 38.0298C15.4137 37.9726 15.5883 37.9501 15.762 37.9636C15.9352 37.9473 16.1099 37.9678 16.2745 38.024C16.4392 38.0801 16.5901 38.1705 16.7172 38.2892C16.8444 38.408 16.9449 38.5523 17.0121 38.7127C17.0794 38.8732 17.1118 39.0456 17.1074 39.2195ZM15.2082 39.2195C15.2239 39.325 15.2695 39.4238 15.3396 39.5042C15.4097 39.5845 15.5014 39.6431 15.6038 39.6729C15.7062 39.7027 15.815 39.7025 15.9173 39.6724C16.0196 39.6422 16.1111 39.5833 16.1809 39.5027C16.2507 39.4221 16.296 39.3231 16.3112 39.2176C16.3265 39.112 16.3112 39.0043 16.2671 38.9072C16.223 38.8101 16.152 38.7277 16.0624 38.6698C15.9729 38.6118 15.8686 38.5808 15.762 38.5803C15.6812 38.5816 15.6015 38.6001 15.5284 38.6346C15.4553 38.669 15.3903 38.7187 15.3379 38.7803C15.2855 38.8418 15.2469 38.9139 15.2245 38.9916C15.2021 39.0693 15.1966 39.1508 15.2082 39.2308V39.2195Z" fill="#07223E"/>
<path d="M21.0806 40.4569H20.289V40.1345C20.2043 40.2518 20.0925 40.347 19.9631 40.4117C19.8336 40.4764 19.6904 40.5088 19.5458 40.5061C19.3829 40.5076 19.2215 40.4746 19.0724 40.4092C18.9232 40.3439 18.7896 40.2476 18.6803 40.1268C18.5711 40.0059 18.4887 39.8633 18.4386 39.7083C18.3886 39.5534 18.3719 39.3895 18.3898 39.2276C18.3717 39.0675 18.3878 38.9053 18.4371 38.7519C18.4863 38.5984 18.5675 38.4571 18.6753 38.3374C18.7831 38.2176 18.9152 38.1221 19.0626 38.0571C19.2101 37.9921 19.3697 37.9592 19.5308 37.9604C19.6753 37.959 19.8181 37.9919 19.9473 38.0565C20.0766 38.1211 20.1886 38.2156 20.2741 38.332V37.0604H21.0656L21.0806 40.4569ZM20.289 39.2304C20.2989 39.1516 20.2921 39.0715 20.2692 38.9955C20.2462 38.9194 20.2076 38.849 20.1557 38.7887C20.1039 38.7285 20.04 38.6798 19.9682 38.6458C19.8964 38.6118 19.8183 38.5932 19.7388 38.5912C19.6594 38.5938 19.5814 38.6127 19.5097 38.6469C19.438 38.6811 19.3742 38.7297 19.3222 38.7897C19.2701 38.8498 19.2311 38.9199 19.2075 38.9957C19.1839 39.0716 19.1763 39.1515 19.185 39.2304C19.1766 39.3096 19.1844 39.3897 19.2081 39.4657C19.2318 39.5417 19.2707 39.6121 19.3226 39.6725C19.3745 39.7329 19.4382 39.7821 19.5097 39.817C19.5813 39.8518 19.6593 39.8717 19.7388 39.8753C19.8184 39.8723 19.8966 39.8528 19.9683 39.8181C20.04 39.7834 20.1037 39.7342 20.1554 39.6736C20.2071 39.613 20.2457 39.5423 20.2686 39.466C20.2916 39.3897 20.2986 39.3095 20.289 39.2304Z" fill="#07223E"/>
<path d="M24.0607 39.446H22.3276C22.3532 39.5791 22.4259 39.6985 22.5323 39.7825C22.6387 39.8664 22.7718 39.9092 22.9072 39.9031C23.0203 39.9027 23.1321 39.8795 23.236 39.8348C23.3399 39.7901 23.4337 39.7249 23.5118 39.6431L23.9281 40.0482C23.7892 40.1924 23.6214 40.3057 23.4356 40.3807C23.2499 40.4556 23.0505 40.4905 22.8504 40.4831C22.5182 40.4838 22.1991 40.3536 21.9623 40.1206C21.7255 39.8876 21.5902 39.5706 21.5856 39.2385C21.5811 38.9063 21.7077 38.5858 21.9379 38.3463C22.1682 38.1069 22.4836 37.968 22.8157 37.9596C23.6855 37.9596 24.1163 38.5356 24.0607 39.446ZM23.3159 39.0224C23.3212 38.9576 23.3127 38.8923 23.291 38.831C23.2693 38.7697 23.2349 38.7136 23.19 38.6665C23.145 38.6195 23.0906 38.5825 23.0304 38.5579C22.9701 38.5334 22.9053 38.5219 22.8403 38.5243C22.7079 38.5278 22.5817 38.581 22.4867 38.6733C22.3917 38.7656 22.3349 38.8902 22.3276 39.0224H23.3159Z" fill="#07223E"/>
<path d="M27.015 39.5541H26.3701V40.4573H25.5584V37.2539H26.9929C27.8393 37.2539 28.3229 37.657 28.3229 38.3687C28.339 38.5784 28.2925 38.7881 28.1893 38.9714C28.0861 39.1546 27.9309 39.3031 27.7433 39.3981L28.416 40.4573H27.489L27.015 39.5541ZM26.9929 38.9149C27.3645 38.9149 27.5503 38.7363 27.5503 38.3982C27.5503 38.06 27.3459 37.8927 26.9929 37.8927H26.3722V38.9149H26.9929Z" fill="#07223E"/>
<path d="M31.1959 39.446H29.4603C29.4868 39.5787 29.5597 39.6976 29.6659 39.7814C29.7721 39.8651 29.9047 39.9083 30.0399 39.9031C30.15 39.9027 30.2589 39.8805 30.3603 39.8377C30.4617 39.795 30.5537 39.7325 30.6308 39.654L31.0471 40.0591C30.9091 40.2035 30.742 40.3169 30.5568 40.3919C30.3716 40.4669 30.1726 40.5017 29.973 40.494C29.6369 40.4969 29.3135 40.3662 29.0737 40.1306C28.834 39.8951 28.6977 39.5739 28.6948 39.2379C28.6918 38.9018 28.8225 38.5783 29.0581 38.3386C29.2936 38.0989 29.6148 37.9625 29.9508 37.9596C30.8206 37.9596 31.2479 38.5356 31.1959 39.446ZM30.4522 39.0224C30.4576 38.9576 30.4491 38.8923 30.4274 38.831C30.4057 38.7697 30.3713 38.7136 30.3263 38.6665C30.2814 38.6195 30.227 38.5825 30.1667 38.5579C30.1065 38.5334 30.0417 38.5219 29.9766 38.5243C29.8456 38.5274 29.7204 38.5788 29.625 38.6687C29.5296 38.7586 29.4708 38.8805 29.4599 39.0111L30.4522 39.0224Z" fill="#07223E"/>
<path d="M33.9833 40.234C33.9833 40.9325 33.4444 41.3751 32.6456 41.3751C32.2564 41.3776 31.8751 41.2655 31.5493 41.0526L31.8242 40.5174C32.0424 40.6705 32.3009 40.7558 32.5674 40.7628C32.939 40.7628 33.1768 40.5613 33.1768 40.2574V39.9974C33.093 40.1044 32.9849 40.1899 32.8614 40.2467C32.738 40.3036 32.6028 40.3302 32.467 40.3243C32.3165 40.3231 32.1679 40.2904 32.0308 40.2282C31.8937 40.1661 31.7712 40.0759 31.671 39.9635C31.5709 39.8511 31.4954 39.719 31.4495 39.5757C31.4035 39.4323 31.3881 39.281 31.4042 39.1313C31.3871 38.9825 31.402 38.8318 31.4479 38.6893C31.4938 38.5468 31.5695 38.4157 31.6702 38.3048C31.7708 38.1939 31.8939 38.1058 32.0314 38.0463C32.1688 37.9869 32.3173 37.9575 32.467 37.96C32.6086 37.9494 32.7506 37.9741 32.8803 38.0319C33.01 38.0896 33.1234 38.1786 33.2102 38.2909V37.9862H33.9982L33.9833 40.234ZM33.1953 39.1527C33.181 39.053 33.1383 38.9596 33.0722 38.8836C33.0062 38.8076 32.9197 38.7522 32.823 38.7241C32.7263 38.696 32.6236 38.6964 32.5271 38.7251C32.4306 38.7539 32.3444 38.8098 32.2789 38.8862C32.2134 38.9627 32.1713 39.0564 32.1576 39.1561C32.1439 39.2559 32.1593 39.3574 32.2018 39.4487C32.2444 39.5399 32.3123 39.617 32.3975 39.6706C32.4827 39.7243 32.5816 39.7522 32.6823 39.7512C32.7562 39.7486 32.8289 39.7306 32.8956 39.6985C32.9623 39.6664 33.0216 39.6208 33.0698 39.5646C33.118 39.5084 33.154 39.4428 33.1755 39.3719C33.1971 39.3011 33.2037 39.2266 33.1949 39.1531L33.1953 39.1527Z" fill="#07223E"/>
<path d="M36.9896 40.4561H36.198V40.0482C36.0944 40.2207 35.9363 40.3538 35.7487 40.4266C35.5611 40.4994 35.3545 40.5077 35.1617 40.4502C34.9688 40.3927 34.8005 40.2727 34.6834 40.1091C34.5662 39.9455 34.5068 39.7475 34.5145 39.5464V37.9894H35.3061V39.3235C35.2981 39.3822 35.3027 39.4419 35.3198 39.4986C35.3369 39.5552 35.366 39.6076 35.4051 39.652C35.4442 39.6965 35.4925 39.7319 35.5465 39.7561C35.6006 39.7802 35.6592 39.7924 35.7184 39.7919C36.0195 39.7919 36.1976 39.5428 36.1976 39.2083V37.9894H36.9892L36.9896 40.4561Z" fill="#07223E"/>
<path d="M37.6362 40.4569V37.0604H38.4278V40.4569H37.6362Z" fill="#07223E"/>
<path d="M41.2745 38.8463V40.4585H40.5014V40.1909C40.4107 40.298 40.2964 40.3827 40.1674 40.4381C40.0384 40.4936 39.8984 40.5184 39.7582 40.5105C39.6503 40.5226 39.5411 40.5115 39.4379 40.4779C39.3347 40.4443 39.2398 40.3891 39.1597 40.3159C39.0795 40.2427 39.0159 40.1532 38.9732 40.0535C38.9304 39.9537 38.9095 39.846 38.9118 39.7374C38.9118 39.2691 39.2463 38.9942 39.8594 38.9942H40.5099V38.9571C40.5099 38.7153 40.3487 38.5855 40.0306 38.5855C39.7705 38.5983 39.5165 38.6694 39.2874 38.7935L39.0645 38.2732C39.4137 38.0819 39.8025 37.9745 40.2003 37.9596C40.877 37.9596 41.2708 38.2865 41.2745 38.8463ZM40.4978 39.6193V39.3965H39.9996C39.7618 39.3965 39.628 39.4819 39.628 39.6641C39.628 39.8463 39.7542 39.9575 39.9734 39.9575C40.0861 39.9685 40.1992 39.9411 40.2943 39.8797C40.3894 39.8183 40.4614 39.7265 40.4978 39.6193Z" fill="#07223E"/>
<path d="M44.0293 39.9107C43.9396 40.0663 43.8137 40.1978 43.6623 40.2942C43.5108 40.3907 43.3384 40.4491 43.1595 40.4645L43.0442 40.691C43.1322 40.7052 43.2121 40.7506 43.2695 40.8188C43.3268 40.887 43.3577 40.9736 43.3566 41.0627C43.3566 41.3524 43.1188 41.5346 42.7843 41.5346C42.6286 41.5312 42.4774 41.4821 42.3494 41.3936L42.4945 41.0711C42.5578 41.1254 42.6376 41.1568 42.721 41.1602C42.7446 41.1628 42.7686 41.1604 42.7912 41.1532C42.8139 41.146 42.8348 41.1342 42.8527 41.1184C42.8705 41.1027 42.8848 41.0834 42.8948 41.0618C42.9047 41.0402 42.9101 41.0167 42.9104 40.9929C42.9104 40.8998 42.8399 40.8257 42.7024 40.8257C42.6467 40.8224 42.5909 40.8224 42.5352 40.8257L42.7137 40.4541C42.4074 40.4293 42.1229 40.2854 41.9215 40.0534C41.72 39.8213 41.6175 39.5195 41.636 39.2127C41.6296 39.0444 41.6585 38.8766 41.7208 38.7201C41.7831 38.5636 41.8774 38.4218 41.9976 38.3039C42.1179 38.186 42.2614 38.0945 42.4191 38.0352C42.5768 37.976 42.7451 37.9504 42.9132 37.96C43.1315 37.9448 43.3499 37.9881 43.5459 38.0855C43.7418 38.1828 43.9083 38.3307 44.0281 38.5138L43.4594 38.8556C43.4043 38.7747 43.3298 38.7089 43.2428 38.6642C43.1558 38.6194 43.059 38.5971 42.9612 38.5992C42.6565 38.5992 42.4445 38.8519 42.4445 39.2236C42.4445 39.5952 42.6565 39.8479 42.9612 39.8479C43.0632 39.8537 43.1647 39.8306 43.2541 39.7812C43.3435 39.7319 43.4172 39.6583 43.4666 39.569L44.0293 39.9107Z" fill="#07223E"/>
<path d="M46.554 38.8479V40.4569H45.7737V40.1897C45.683 40.2968 45.5686 40.3815 45.4397 40.437C45.3107 40.4924 45.1706 40.5172 45.0304 40.5093C44.9227 40.5207 44.8138 40.5091 44.7108 40.4753C44.6079 40.4415 44.5133 40.3863 44.4333 40.3132C44.3533 40.2402 44.2897 40.1509 44.2468 40.0515C44.2038 39.952 44.1824 39.8446 44.184 39.7363C44.184 39.2679 44.5186 38.993 45.1316 38.993H45.7821V38.956C45.7821 38.7141 45.6209 38.5843 45.3029 38.5843C45.0426 38.5961 44.7883 38.6673 44.5597 38.7923L44.3332 38.272C44.6876 38.0903 45.0795 37.9937 45.4778 37.9898C46.1509 37.96 46.554 38.2869 46.554 38.8479ZM45.0974 37.6142H44.6113C44.6113 37.135 44.7725 36.9008 45.0905 36.9008C45.4085 36.9008 45.4935 37.1164 45.6181 37.1164C45.7426 37.1164 45.7592 37.0532 45.7592 36.9234H46.2428C46.2428 37.407 46.0868 37.6332 45.7636 37.6332C45.4403 37.6332 45.3658 37.4175 45.236 37.4175C45.1062 37.4175 45.0909 37.4844 45.0909 37.6146L45.0974 37.6142ZM45.7773 39.621V39.3981H45.2803C45.0425 39.3981 44.9087 39.4835 44.9087 39.6657C44.9087 39.8479 45.0349 39.9591 45.2545 39.9591C45.3661 39.9691 45.4779 39.9411 45.5716 39.8798C45.6654 39.8184 45.7357 39.7272 45.7712 39.621H45.7773Z" fill="#07223E"/>
<path d="M49.6026 39.2195C49.6206 39.4896 49.5569 39.7589 49.4197 39.9923C49.2826 40.2257 49.0785 40.4124 48.8338 40.5283C48.5891 40.6441 48.3153 40.6836 48.0478 40.6417C47.7804 40.5998 47.5317 40.4785 47.3342 40.2934C47.1367 40.1083 46.9994 39.868 46.9402 39.6039C46.881 39.3397 46.9027 39.0639 47.0024 38.8122C47.1021 38.5605 47.2752 38.3447 47.4992 38.1927C47.7232 38.0407 47.9878 37.9596 48.2585 37.96C48.4318 37.9442 48.6066 37.9652 48.7713 38.0218C48.9359 38.0784 49.0867 38.1691 49.2138 38.2881C49.3409 38.4071 49.4413 38.5517 49.5086 38.7123C49.5758 38.8729 49.6082 39.0459 49.6038 39.2199L49.6026 39.2195ZM47.7035 39.2195C47.7191 39.325 47.7647 39.4238 47.8348 39.5042C47.9049 39.5845 47.9966 39.6431 48.099 39.6729C48.2014 39.7027 48.3102 39.7025 48.4125 39.6723C48.5148 39.6422 48.6063 39.5833 48.6761 39.5027C48.746 39.4221 48.7912 39.3231 48.8065 39.2176C48.8218 39.112 48.8065 39.0043 48.7624 38.9072C48.7183 38.8101 48.6472 38.7277 48.5577 38.6697C48.4682 38.6118 48.3639 38.5807 48.2572 38.5803C48.1764 38.5816 48.0968 38.6001 48.0237 38.6345C47.9505 38.669 47.8856 38.7187 47.8332 38.7803C47.7808 38.8418 47.7421 38.9139 47.7197 38.9915C47.6974 39.0692 47.6918 39.1508 47.7035 39.2308V39.2195Z" fill="#07223E"/>
<path d="M2.64036 44.9316H0.904841C0.932005 45.0649 1.00552 45.1844 1.11235 45.2687C1.21918 45.353 1.35243 45.3968 1.48845 45.3922C1.71104 45.3893 1.92342 45.2984 2.07932 45.1395L2.49567 45.5482C2.35674 45.6925 2.18893 45.8057 2.00321 45.8807C1.81749 45.9556 1.61805 45.9905 1.41792 45.9831C1.24643 45.9943 1.07446 45.9704 0.912527 45.9128C0.750596 45.8553 0.602108 45.7653 0.476144 45.6484C0.35018 45.5315 0.249388 45.3901 0.179933 45.2329C0.110478 45.0757 0.0738193 44.906 0.0721997 44.7341C0.07058 44.5623 0.104033 44.3919 0.170513 44.2334C0.236993 44.075 0.335102 43.9317 0.45884 43.8125C0.582579 43.6932 0.729345 43.6004 0.890162 43.5398C1.05098 43.4792 1.22247 43.4521 1.39414 43.46C2.26512 43.4564 2.70364 44.0283 2.64036 44.9316ZM1.89714 44.5043C1.90248 44.4395 1.89402 44.3742 1.87231 44.3129C1.85061 44.2515 1.81616 44.1955 1.77122 44.1484C1.72629 44.1014 1.6719 44.0644 1.61163 44.0398C1.55136 44.0153 1.48657 44.0038 1.42155 44.0062C1.28945 44.0101 1.16364 44.0635 1.069 44.1557C0.974364 44.248 0.917795 44.3724 0.910484 44.5043H1.89714Z" fill="#07223E"/>
<path d="M4.1377 45.9496V42.7462H4.95145V45.9496H4.1377Z" fill="#07223E"/>
<path d="M8.10646 44.3963V45.9496H7.3185V44.6155C7.32555 44.5552 7.31942 44.494 7.30054 44.4363C7.28165 44.3785 7.25046 44.3256 7.20912 44.281C7.16777 44.2365 7.11726 44.2015 7.06106 44.1784C7.00486 44.1553 6.94432 44.1446 6.88361 44.1472C6.75053 44.1472 6.6229 44.2001 6.52879 44.2942C6.43469 44.3883 6.38182 44.5159 6.38182 44.649V45.9533H5.59064V43.4894H6.38222V43.9058C6.4667 43.7653 6.58771 43.6503 6.73235 43.5731C6.87699 43.4958 7.03986 43.4593 7.20363 43.4673C7.32596 43.4616 7.4481 43.482 7.56197 43.5271C7.67584 43.5721 7.77886 43.6408 7.86423 43.7286C7.94959 43.8164 8.01536 43.9213 8.05718 44.0364C8.09901 44.1515 8.11594 44.2742 8.10686 44.3963H8.10646Z" fill="#07223E"/>
<path d="M10.5707 43.7276L10.2994 44.2403C10.0632 44.0985 9.7974 44.0133 9.52277 43.9912C9.3817 43.9912 9.27731 44.0468 9.27731 44.1621C9.27731 44.5003 10.5779 44.3366 10.5743 45.1951C10.5743 45.7042 10.1285 45.9831 9.53365 45.9831C9.13375 45.9922 8.74197 45.8694 8.41882 45.6336L8.67153 45.1318C8.92552 45.3187 9.22983 45.4249 9.54494 45.4365C9.70092 45.4365 9.81619 45.3845 9.81619 45.2693C9.81619 44.8977 8.54135 45.0948 8.54538 44.2286C8.54538 43.7232 8.97261 43.4483 9.54494 43.4483C9.90572 43.4482 10.26 43.5445 10.5711 43.7272L10.5707 43.7276Z" fill="#07223E"/>
<path d="M13.7294 44.7272C13.7493 44.8869 13.7344 45.0491 13.6857 45.2025C13.637 45.356 13.5556 45.497 13.4472 45.616C13.3387 45.735 13.2058 45.8291 13.0576 45.8919C12.9093 45.9546 12.7493 45.9845 12.5884 45.9795C12.444 45.9803 12.3014 45.9472 12.1723 45.8826C12.0431 45.818 11.931 45.7239 11.8451 45.6078V46.823H11.0427V43.4777H11.8326V43.8002C11.9195 43.6864 12.0322 43.5951 12.1615 43.5336C12.2908 43.4722 12.4328 43.4426 12.5759 43.4471C12.7384 43.4461 12.8993 43.4795 13.048 43.5452C13.1967 43.6108 13.3298 43.7072 13.4386 43.8279C13.5474 43.9487 13.6294 44.0911 13.6793 44.2458C13.7291 44.4005 13.7456 44.564 13.7278 44.7256L13.7294 44.7272ZM12.9342 44.705C12.9175 44.6001 12.8712 44.5022 12.8007 44.4227C12.7303 44.3432 12.6386 44.2855 12.5364 44.2564C12.4343 44.2273 12.3259 44.228 12.2241 44.2584C12.1224 44.2888 12.0314 44.3477 11.962 44.428C11.8925 44.5084 11.8474 44.6069 11.8321 44.712C11.8168 44.8171 11.8318 44.9244 11.8753 45.0212C11.9189 45.1181 11.9893 45.2005 12.0781 45.2587C12.1669 45.3169 12.2705 45.3486 12.3767 45.3499C12.457 45.3479 12.5359 45.3291 12.6085 45.2948C12.681 45.2606 12.7456 45.2115 12.7981 45.1508C12.8506 45.09 12.8898 45.019 12.9132 44.9423C12.9367 44.8655 12.9438 44.7847 12.9342 44.705Z" fill="#07223E"/>
<path d="M16.4794 44.9315H14.7439C14.7713 45.0668 14.8464 45.1877 14.9556 45.2723C15.0647 45.3569 15.2005 45.3994 15.3384 45.3922C15.561 45.3892 15.7734 45.2984 15.9292 45.1395L16.3456 45.5482C16.2067 45.6924 16.0389 45.8057 15.8531 45.8807C15.6674 45.9556 15.468 45.9905 15.2678 45.9831C15.0966 45.9936 14.925 45.9692 14.7635 45.9113C14.6021 45.8534 14.4541 45.7633 14.3285 45.6463C14.203 45.5293 14.1027 45.388 14.0336 45.231C13.9644 45.074 13.928 44.9046 13.9265 44.733C13.925 44.5615 13.9584 44.3914 14.0248 44.2332C14.0911 44.075 14.189 43.932 14.3124 43.8128C14.4359 43.6937 14.5823 43.6009 14.7427 43.5402C14.9032 43.4795 15.0743 43.452 15.2457 43.4596C16.103 43.4564 16.5354 44.0283 16.4794 44.9315ZM15.7362 44.5043C15.7415 44.4394 15.7331 44.3742 15.7114 44.3129C15.6897 44.2515 15.6552 44.1955 15.6103 44.1484C15.5653 44.1013 15.5109 44.0643 15.4507 44.0398C15.3904 44.0153 15.3256 44.0038 15.2606 44.0061C15.1282 44.0097 15.002 44.0629 14.907 44.1552C14.8121 44.2474 14.7553 44.3721 14.7479 44.5043H15.7362Z" fill="#07223E"/>
<path d="M19.0992 45.3926C19.0081 45.5469 18.8819 45.6775 18.7307 45.7738C18.5796 45.87 18.4078 45.9292 18.2294 45.9464L18.1142 46.1693C18.2021 46.1835 18.2821 46.2288 18.3394 46.297C18.3968 46.3653 18.4277 46.4518 18.4265 46.5409C18.4265 46.8271 18.1887 47.0129 17.8542 47.0129C17.6993 47.0114 17.5482 46.9649 17.4193 46.8791L17.5644 46.5566C17.6273 46.6122 17.7071 46.6449 17.7909 46.6493C17.8148 46.6514 17.8388 46.6485 17.8615 46.6409C17.8841 46.6333 17.905 46.6211 17.9228 46.605C17.9405 46.589 17.9548 46.5695 17.9647 46.5477C17.9746 46.5259 17.98 46.5024 17.9804 46.4784C17.9804 46.3853 17.9098 46.3148 17.7724 46.3148C17.7162 46.3159 17.6602 46.3221 17.6051 46.3333L17.7837 45.9617C17.4773 45.937 17.1929 45.7931 16.9914 45.561C16.7899 45.329 16.6874 45.0271 16.7059 44.7203C16.6974 44.5504 16.7249 44.3806 16.7865 44.222C16.8482 44.0634 16.9426 43.9196 17.0636 43.8C17.1846 43.6804 17.3295 43.5877 17.4888 43.5279C17.6481 43.4682 17.8182 43.4427 17.988 43.4532C18.2033 43.4413 18.4178 43.4862 18.6102 43.5834C18.8026 43.6806 18.9661 43.8267 19.0843 44.0069L18.516 44.3475C18.4607 44.2671 18.3862 44.2018 18.2991 44.1577C18.2121 44.1135 18.1154 44.0919 18.0178 44.0948C17.7131 44.0948 17.5011 44.3439 17.5011 44.7155C17.5011 45.0871 17.7131 45.3435 18.0178 45.3435C18.1197 45.3488 18.2211 45.3255 18.3104 45.2762C18.3998 45.2269 18.4735 45.1536 18.5233 45.0645L19.0992 45.3926Z" fill="#07223E"/>
<path d="M21.6226 44.3406V45.9496H20.8508V45.6675C20.7601 45.7746 20.6458 45.8593 20.5168 45.9148C20.3879 45.9702 20.2478 45.995 20.1076 45.9871C19.9999 45.9987 19.8911 45.9873 19.7882 45.9536C19.6853 45.9198 19.5908 45.8645 19.511 45.7914C19.4311 45.7182 19.3678 45.6289 19.3252 45.5293C19.2827 45.4298 19.2618 45.3223 19.264 45.2141C19.264 44.7457 19.5949 44.4708 20.2116 44.4708H20.8565V44.4337C20.8565 44.1919 20.6952 44.0621 20.3772 44.0621C20.1175 44.0748 19.8637 44.1446 19.634 44.2665L19.4075 43.7462C19.7627 43.5669 20.1543 43.4714 20.5522 43.4672C21.2248 43.4487 21.6166 43.7832 21.6226 44.3406ZM20.1697 43.1105H19.6751C19.6751 42.6269 19.8363 42.3972 20.1588 42.3972C20.4812 42.3972 20.5566 42.6092 20.6827 42.6092C20.8089 42.6092 20.8238 42.5459 20.8238 42.4197H21.3075C21.3075 42.8989 21.1515 43.1295 20.8319 43.1295C20.5123 43.1295 20.4288 42.9139 20.3003 42.9139C20.1717 42.9139 20.1697 42.9767 20.1697 43.1105ZM20.8496 45.1137V44.8944H20.3442C20.1064 44.8944 19.9726 44.975 19.9726 45.1584C19.9726 45.3418 20.1028 45.4518 20.322 45.4518C20.4342 45.4627 20.5468 45.4351 20.6413 45.3737C20.7358 45.3123 20.8067 45.2206 20.8423 45.1137H20.8496Z" fill="#07223E"/>
<path d="M24.6741 44.7159C24.692 44.9859 24.6282 45.2551 24.4911 45.4884C24.354 45.7218 24.1499 45.9084 23.9053 46.0242C23.6606 46.14 23.3869 46.1796 23.1195 46.1377C22.8521 46.0959 22.6035 45.9746 22.406 45.7896C22.2084 45.6046 22.0711 45.3645 22.0118 45.1004C21.9525 44.8364 21.9741 44.5606 22.0736 44.3089C22.1731 44.0572 22.346 43.8413 22.5699 43.6892C22.7937 43.5371 23.0581 43.4558 23.3287 43.456C23.5021 43.4402 23.6769 43.4612 23.8415 43.5178C24.0062 43.5743 24.157 43.6651 24.2841 43.7841C24.4112 43.9031 24.5116 44.0476 24.5788 44.2082C24.6461 44.3688 24.6785 44.5418 24.6741 44.7159ZM22.775 44.7159C22.7906 44.8214 22.8362 44.9202 22.9063 45.0005C22.9764 45.0809 23.0681 45.1395 23.1705 45.1693C23.2729 45.1991 23.3817 45.1989 23.484 45.1687C23.5863 45.1385 23.6778 45.0797 23.7476 44.9991C23.8175 44.9184 23.8627 44.8195 23.878 44.7139C23.8933 44.6084 23.878 44.5007 23.8339 44.4036C23.7898 44.3065 23.7187 44.2241 23.6292 44.1661C23.5397 44.1082 23.4354 44.0771 23.3287 44.0767C23.2483 44.0781 23.1691 44.0965 23.0963 44.1306C23.0235 44.1647 22.9586 44.2138 22.906 44.2746C22.8534 44.3355 22.8143 44.4067 22.7911 44.4837C22.7678 44.5607 22.7611 44.6418 22.7713 44.7215L22.775 44.7159Z" fill="#07223E"/>
<path d="M28.6502 45.9496H27.8586V45.6272C27.7735 45.7441 27.6616 45.8389 27.5323 45.9035C27.403 45.9682 27.26 46.0009 27.1154 45.9988C26.9528 45.9999 26.7919 45.9666 26.6431 45.901C26.4943 45.8354 26.3612 45.739 26.2523 45.6183C26.1435 45.4975 26.0615 45.355 26.0117 45.2002C25.9619 45.0455 25.9455 44.8819 25.9635 44.7203C25.9635 43.9546 26.4169 43.4681 27.0783 43.4681C27.2228 43.4669 27.3654 43.5 27.4946 43.5645C27.6238 43.6291 27.7358 43.7234 27.8215 43.8397V42.5866H28.6131L28.6502 45.9496ZM27.8586 44.7232C27.8586 44.6129 27.8259 44.5051 27.7647 44.4135C27.7034 44.3218 27.6164 44.2504 27.5145 44.2082C27.4127 44.166 27.3006 44.155 27.1925 44.1765C27.0843 44.198 26.985 44.2511 26.9071 44.329C26.8291 44.407 26.776 44.5063 26.7545 44.6144C26.733 44.7225 26.744 44.8346 26.7862 44.9365C26.8284 45.0383 26.8999 45.1254 26.9915 45.1866C27.0832 45.2479 27.191 45.2806 27.3012 45.2806C27.449 45.2806 27.5908 45.2218 27.6954 45.1173C27.7999 45.0128 27.8586 44.871 27.8586 44.7232Z" fill="#07223E"/>
<path d="M31.6299 44.9315H29.8968C29.9232 45.0645 29.996 45.1838 30.1021 45.2682C30.2082 45.3526 30.3409 45.3965 30.4764 45.3922C30.5867 45.3911 30.6957 45.3682 30.7971 45.3249C30.8985 45.2815 30.9903 45.2185 31.0673 45.1395L31.4836 45.5482C31.3456 45.6926 31.1785 45.806 30.9933 45.881C30.8081 45.956 30.6091 45.9908 30.4095 45.9831C30.2383 45.9936 30.0667 45.9692 29.9052 45.9113C29.7437 45.8534 29.5957 45.7633 29.4702 45.6463C29.3447 45.5293 29.2443 45.388 29.1752 45.231C29.1061 45.074 29.0697 44.9046 29.0682 44.733C29.0667 44.5615 29.1001 44.3914 29.1665 44.2332C29.2328 44.075 29.3307 43.932 29.4541 43.8128C29.5775 43.6937 29.7239 43.6009 29.8844 43.5402C30.0448 43.4795 30.216 43.452 30.3873 43.4596C31.2555 43.4564 31.69 44.0283 31.6299 44.9315ZM30.8867 44.5043C30.8927 44.4393 30.8846 44.3738 30.8631 44.3122C30.8416 44.2506 30.8072 44.1943 30.7621 44.1471C30.7171 44.0999 30.6625 44.0629 30.6019 44.0386C30.5414 44.0143 30.4763 44.0032 30.4111 44.0061C30.279 44.0106 30.1533 44.0641 30.0586 44.1562C29.9638 44.2483 29.9067 44.3724 29.8984 44.5043H30.8867Z" fill="#07223E"/>
<path d="M34.9938 44.9125C35.0052 45.0601 34.9838 45.2083 34.9313 45.3466C34.8787 45.4849 34.7962 45.6098 34.6896 45.7125C34.5831 45.8151 34.4551 45.893 34.315 45.9404C34.1748 45.9878 34.0259 46.0036 33.8789 45.9867C33.6665 45.9907 33.4559 45.9467 33.2628 45.8579C33.0698 45.7691 32.8993 45.6379 32.7641 45.474L33.1357 44.9315C33.3041 45.1369 33.5449 45.2699 33.8084 45.3031C34.024 45.3031 34.1538 45.1693 34.1538 44.9093V43.4229H33.039V42.7647H34.9567L34.9938 44.9125Z" fill="#07223E"/>
<path d="M38.067 44.7159C38.0856 44.9869 38.0222 45.2573 37.885 45.4917C37.7478 45.7262 37.5432 45.9139 37.2978 46.0304C37.0524 46.147 36.7777 46.1869 36.5093 46.1451C36.2408 46.1033 35.9912 45.9816 35.793 45.7959C35.5947 45.6102 35.4569 45.3691 35.3976 45.104C35.3383 44.8389 35.3601 44.5621 35.4603 44.3096C35.5605 44.0571 35.7344 43.8407 35.9594 43.6884C36.1844 43.5362 36.45 43.4552 36.7216 43.456C36.8949 43.4408 37.0694 43.4622 37.2338 43.519C37.3982 43.5758 37.5488 43.6666 37.6757 43.7854C37.8027 43.9043 37.9031 44.0486 37.9706 44.209C38.038 44.3693 38.0708 44.542 38.067 44.7159ZM36.1678 44.7159C36.1835 44.8214 36.2291 44.9202 36.2992 45.0005C36.3693 45.0809 36.461 45.1395 36.5634 45.1693C36.6658 45.1991 36.7746 45.1989 36.8769 45.1687C36.9792 45.1386 37.0707 45.0797 37.1405 44.9991C37.2104 44.9185 37.2556 44.8195 37.2709 44.714C37.2862 44.6084 37.2708 44.5007 37.2267 44.4036C37.1826 44.3065 37.1116 44.2241 37.0221 44.1661C36.9326 44.1082 36.8283 44.0771 36.7216 44.0767C36.6413 44.0781 36.5623 44.0964 36.4896 44.1306C36.4169 44.1647 36.3523 44.2139 36.3 44.2748C36.2476 44.3357 36.2088 44.407 36.1861 44.484C36.1633 44.561 36.1571 44.642 36.1678 44.7216V44.7159Z" fill="#07223E"/>
<path d="M40.8509 45.7267C40.8509 46.4252 40.3084 46.8714 39.5131 46.8714C39.1172 46.8766 38.7287 46.7628 38.3983 46.5445L38.6696 46.0092C38.8944 46.1666 39.161 46.2533 39.4354 46.2583C39.807 46.2583 40.0448 46.0568 40.0448 45.7493V45.4893C39.9614 45.597 39.8535 45.6833 39.73 45.7408C39.6065 45.7984 39.4711 45.8256 39.335 45.8202C39.1843 45.8185 39.0356 45.7853 38.8985 45.7227C38.7614 45.6602 38.6389 45.5697 38.5389 45.457C38.4388 45.3443 38.3634 45.212 38.3174 45.0685C38.2715 44.9249 38.2561 44.7734 38.2722 44.6236C38.2563 44.4767 38.2715 44.3281 38.3167 44.1874C38.3618 44.0468 38.436 43.9172 38.5345 43.807C38.6329 43.6968 38.7534 43.6086 38.8881 43.5479C39.0228 43.4872 39.1687 43.4555 39.3165 43.4547C39.458 43.4441 39.6 43.4688 39.7297 43.5265C39.8595 43.5843 39.9728 43.6733 40.0597 43.7856V43.4846H40.8476L40.8509 45.7267ZM40.0629 44.649C40.0439 44.5377 39.9896 44.4356 39.9079 44.3578C39.8262 44.28 39.7216 44.2306 39.6096 44.2169C39.4976 44.2033 39.3842 44.2262 39.2863 44.2822C39.1884 44.3382 39.1111 44.4244 39.066 44.5278C39.021 44.6312 39.0105 44.7464 39.0362 44.8563C39.0619 44.9662 39.1223 45.0648 39.2085 45.1375C39.2948 45.2103 39.4022 45.2533 39.5148 45.2601C39.6274 45.2669 39.7392 45.2372 39.8336 45.1753C39.9189 45.1194 39.986 45.0399 40.0268 44.9464C40.0675 44.8529 40.0801 44.7495 40.0629 44.649Z" fill="#07223E"/>
<path d="M43.9535 44.7159C43.9721 44.9868 43.9088 45.257 43.7717 45.4913C43.6347 45.7257 43.4303 45.9134 43.1851 46.0301C42.94 46.1467 42.6654 46.1869 42.3971 46.1453C42.1288 46.1038 41.8792 45.9825 41.6808 45.7972C41.4824 45.6118 41.3443 45.3711 41.2846 45.1063C41.2248 44.8414 41.2462 44.5647 41.3458 44.3122C41.4454 44.0596 41.6188 43.8429 41.8433 43.6902C42.0677 43.5375 42.333 43.4559 42.6045 43.456C42.778 43.4402 42.9529 43.4613 43.1178 43.5178C43.2826 43.5743 43.4337 43.6651 43.561 43.784C43.6884 43.9029 43.7892 44.0474 43.8568 44.208C43.9244 44.3686 43.9574 44.5417 43.9535 44.7159ZM42.0507 44.7159C42.0663 44.8214 42.1119 44.9202 42.1821 45.0006C42.2522 45.0809 42.3439 45.1395 42.4463 45.1693C42.5487 45.1991 42.6575 45.1989 42.7598 45.1688C42.862 45.1386 42.9535 45.0797 43.0234 44.9991C43.0932 44.9185 43.1384 44.8195 43.1537 44.714C43.169 44.6084 43.1537 44.5007 43.1096 44.4036C43.0655 44.3065 42.9945 44.2241 42.9049 44.1662C42.8154 44.1082 42.7111 44.0772 42.6045 44.0767C42.5238 44.0776 42.4441 44.0956 42.3709 44.1295C42.2976 44.1634 42.2323 44.2124 42.1794 44.2733C42.1264 44.3342 42.0869 44.4057 42.0634 44.4829C42.04 44.5602 42.0332 44.6415 42.0434 44.7216L42.0507 44.7159Z" fill="#07223E"/>
<path d="M46.269 43.7276L46.0014 44.2403C45.7641 44.0979 45.497 44.0126 45.2211 43.9912C45.08 43.9912 44.9793 44.0468 44.9793 44.1621C44.9793 44.5003 46.2799 44.3366 46.2763 45.1951C46.2763 45.7042 45.8305 45.9831 45.2356 45.9831C44.8356 45.9927 44.4437 45.8699 44.1208 45.6336L44.3735 45.1318C44.6275 45.3187 44.9318 45.4249 45.2469 45.4365C45.4029 45.4365 45.5182 45.3845 45.5182 45.2693C45.5182 44.8977 44.2397 45.0948 44.2433 44.2286C44.2433 43.7232 44.6746 43.4483 45.2465 43.4483C45.6062 43.4483 45.9593 43.5447 46.269 43.7276Z" fill="#07223E"/>
<path d="M31.7239 19.7689C31.7239 22.9352 30.4702 24.9792 27.963 25.9009L32.9689 32.9618H27.5394L23.143 26.6662H20.1036V32.984H15.7104V13.2097H23.1837C26.2557 13.2097 28.4471 13.7275 29.7578 14.7631C31.0685 15.7986 31.7239 17.4672 31.7239 19.7689ZM26.4093 22.1138C26.9542 21.6184 27.2267 20.8405 27.2267 19.7802C27.2267 18.7174 26.9445 17.9854 26.3803 17.5912C25.816 17.1971 24.8265 16.9984 23.4086 16.9984H20.0992V22.8498H23.3211C24.8338 22.8498 25.8603 22.6043 26.4093 22.1138Z" fill="#278AC4"/>
<path d="M32.9761 13.2097V32.9691H37.3855V19.3711L32.9761 13.2097Z" fill="#278AC4"/>
<path d="M39.7989 16.9633V13.2097H50V25.9899C50 28.3263 49.398 30.0741 48.1939 31.2336C47.5745 31.8158 46.8454 32.269 46.0492 32.567C45.253 32.8649 44.4056 33.0016 43.5561 32.9691C42.3953 32.9708 41.247 32.73 40.1847 32.2622C39.1224 31.7944 38.1695 31.1099 37.387 30.2526L39.6578 27.1124C40.8347 28.3834 42.0734 29.0188 43.3739 29.0188C43.6718 29.0186 43.9661 28.954 44.2368 28.8296C44.5074 28.7051 44.748 28.5237 44.9421 28.2978C45.4241 27.6917 45.6591 26.9257 45.5999 26.1536V16.9641L39.7989 16.9633Z" fill="#278AC4"/>
<path d="M35.6962 14.4583C35.6741 15.5026 37.4652 16.0822 37.9743 14.7965C39.1931 11.7007 39.9996 6 39.9996 6C39.9996 6 35.7781 10.1324 35.6962 14.4583Z" fill="#07223E"/>
<path d="M37.1307 13.9642L32.987 10.9353L35.9079 15.0605C35.9079 15.0605 37.4056 14.0496 37.1307 13.9642Z" fill="#07223E"/>
<path d="M6.04812 16.9185C5.84059 17.0838 5.67467 17.2955 5.56366 17.5364C5.45265 17.7774 5.39965 18.0411 5.40889 18.3062C5.4056 18.5833 5.47614 18.8563 5.61328 19.0972C5.75041 19.338 5.94919 19.538 6.18919 19.6766C6.70214 20.0159 7.89381 20.4124 9.76422 20.866C11.6346 21.3195 13.092 22.0129 14.1365 22.9461C15.1844 23.8777 15.7084 25.2292 15.7084 27.0008C15.7298 27.8258 15.5598 28.6446 15.2116 29.3928C14.8634 30.1411 14.3466 30.7985 13.7016 31.3134C12.3761 32.415 10.627 32.9659 8.45432 32.9659C5.32533 32.9659 2.50722 31.8064 0 29.4876L2.62746 26.2632C4.76066 28.1336 6.73156 29.0676 8.54016 29.0652C9.21698 29.1038 9.88784 28.9198 10.4502 28.5412C10.6721 28.3804 10.8514 28.1678 10.9725 27.922C11.0935 27.6761 11.1528 27.4045 11.1451 27.1305C11.1513 26.8509 11.0864 26.5742 10.9564 26.3265C10.8264 26.0789 10.6356 25.8683 10.4018 25.7146C9.91133 25.3652 8.93757 25.0121 7.48821 24.6554C5.18896 24.1105 3.50799 23.3985 2.44529 22.5193C1.38259 21.6401 0.84922 20.2637 0.84519 18.3901C0.84519 16.5121 1.51908 15.064 2.86687 14.0456C4.33001 12.9911 6.10256 12.4536 7.90496 12.5181C9.25292 12.5229 10.5906 12.7527 11.8629 13.198C13.1316 13.6143 14.3104 14.2661 15.3376 15.1193L13.1087 18.3465C11.5939 17.1317 9.72093 16.4499 7.77961 16.4067C7.16036 16.3696 6.5477 16.5507 6.04812 16.9185Z" fill="#278AC4"/>
</svg>
