<svg width="20" height="20" viewBox="0 0 20 20" fill="none" xmlns="http://www.w3.org/2000/svg">
<circle cx="10" cy="10" r="10" fill="#EC0017"/>
<path d="M15.6519 7.42187H12.03C12.3755 7.06563 12.489 6.54428 12.3229 6.07665C12.1568 5.60903 11.7399 5.27605 11.2471 5.2175C10.7544 5.15894 10.271 5.38494 9.99999 5.80062C9.72895 5.38494 9.24561 5.15894 8.75284 5.2175C8.26007 5.27605 7.84314 5.60903 7.67707 6.07665C7.511 6.54428 7.62452 7.06563 7.96999 7.42187H4.34811C4.34811 8.3825 5.18436 9.16125 6.14499 9.16125H6.08686C6.08686 10.1219 6.86561 10.9006 7.82624 10.9006C7.82624 11.2112 7.90811 11.5031 8.05124 11.755L6.60874 13.1981L7.71561 14.305L9.28561 12.7344C9.34749 12.7569 9.41061 12.775 9.47686 12.7875L8.52811 14.93L9.99999 16.5219L11.4719 14.93L10.5231 12.7881C10.5887 12.7756 10.6525 12.7575 10.7144 12.735L12.2844 14.3056L13.3912 13.1987L11.9487 11.7556C12.0919 11.5037 12.1737 11.2119 12.1737 10.9006C12.635 10.9006 13.0773 10.7173 13.4034 10.3911C13.7295 10.0649 13.9127 9.6225 13.9125 9.16125H13.8544C14.8156 9.16125 15.6519 8.38312 15.6519 7.42187Z" fill="black"/>
</svg>
