<svg width="20" height="20" viewBox="0 0 20 20" fill="none" xmlns="http://www.w3.org/2000/svg">
<path d="M1.13763e-05 10C1.13763e-05 11.7319 0.440636 13.3619 1.21563 14.7825L10 15.6519L18.7844 14.7825C19.5844 13.3156 20.0025 11.6709 20 10C20.0025 8.32909 19.5845 6.68441 18.7844 5.21751L10 4.34814L1.21563 5.21751C0.415533 6.68441 -0.00251426 8.32909 1.13763e-05 10Z" fill="#EC0017"/>
<path fill-rule="evenodd" clip-rule="evenodd" d="M18.7837 5.21749H1.21564C2.91188 2.10937 6.21 0 10 0C13.79 0 17.0881 2.10937 18.7837 5.21749ZM18.7844 14.7825C17.0881 17.8906 13.79 20 10 20C6.21 20 2.91188 17.8906 1.21564 14.7825H18.7844Z" fill="#0054BB"/>
<path d="M13.4781 11.9569V10.6519H12.6081V8.91312L11.7387 8.04374L10.8681 8.91312V7.17375L10 6.30437L9.13062 7.17375V8.91312L8.26062 8.04374L7.39125 8.91312V10.6519H6.52125V11.9569H5.65188V13.2606H14.3481V11.9569H13.4781Z" fill="#F0F0F0"/>
</svg>
