<svg width="20" height="20" viewBox="0 0 20 20" fill="none" xmlns="http://www.w3.org/2000/svg">
<circle cx="10" cy="10" r="10" fill="#EC0017"/>
<path fill-rule="evenodd" clip-rule="evenodd" d="M11.805 5.53124L11.8831 4.48874L11.2075 5.28936L10.235 4.89436L10.79 5.78124L10.1137 6.58186L11.1331 6.33186L11.6837 7.22311L11.7581 6.17561L12.7775 5.92686L11.805 5.53124ZM5.47186 6.08499L6.33499 8.74124H9.12811L6.86999 10.3869L7.73311 13.0431L5.47124 11.4025L3.20936 13.0431L4.07624 10.3869L1.81436 8.74124H4.60749L5.47186 6.08499ZM14.4762 8.28124L14.9369 7.33999L14.0112 7.83061L13.2619 7.09936L13.4412 8.13436L12.5119 8.62249L13.5512 8.77061L13.7312 9.80124L14.1919 8.86374L15.2262 9.01186L14.4762 8.28124ZM13.1675 13.1056L13.48 12.1056L12.6244 11.5L13.6719 11.4844L13.9806 10.4844L14.32 11.4756L15.3675 11.4637L14.5275 12.0887L14.8631 13.0819L14.0075 12.4756L13.1675 13.1056ZM11.8556 15.4881L11.195 14.675L10.2181 15.0537L10.7844 14.1756L10.125 13.3587L11.1369 13.6294L11.7075 12.7506L11.7619 13.7975L12.7775 14.0669L11.7975 14.4431L11.8556 15.4881Z" fill="#FFD800"/>
</svg>
