<svg width="20" height="20" viewBox="0 0 20 20" fill="none" xmlns="http://www.w3.org/2000/svg">
<path d="M14.3481 0.991875C13.0338 0.35625 11.5581 0 10 0C8.44188 0 6.96688 0.35625 5.65188 0.991875L4.7825 10L5.65188 19.0075C6.96688 19.6437 8.44188 20 10 20C11.5581 20 13.0338 19.6437 14.3481 19.0075L15.2175 10L14.3481 0.991875Z" fill="#FFD800"/>
<path fill-rule="evenodd" clip-rule="evenodd" d="M0 9.99999C0 6.03562 2.30687 2.60999 5.65187 0.992493V19.0075C2.30687 17.39 0 13.965 0 9.99999ZM20 9.99999C20 13.965 17.6931 17.39 14.3481 19.0075V0.992493C17.6931 2.60999 20 6.03562 20 9.99999Z" fill="#0054BB"/>
<path d="M13.0431 6.08687L13.6269 6.37812L13.0431 6.08687L12.4594 5.795C12.4244 5.86562 11.6631 7.415 11.5387 9.7825H10.6512V6.08687L10 5.2175L9.34812 6.0875V9.78312H8.46125C8.33687 7.41562 7.57562 5.86625 7.54 5.79562L6.37312 6.37937C6.38125 6.395 7.17375 8.00875 7.17375 10.435V11.0875H9.3475V14.7831H10.6512V11.0875H12.8256V10.435C12.8256 9.18062 13.0431 8.14625 13.225 7.49937C13.4237 6.79375 13.6256 6.38187 13.6281 6.3775L13.0431 6.08687Z" fill="black"/>
</svg>
