<svg width="20" height="20" viewBox="0 0 20 20" fill="none" xmlns="http://www.w3.org/2000/svg">
<mask id="mask0_219_122127" style="mask-type:alpha" maskUnits="userSpaceOnUse" x="0" y="0" width="20" height="20">
<path d="M9.99999 0C15.5228 0 20 4.47715 20 9.99999C20 15.5228 15.5228 20 9.99999 20C4.47715 20 0 15.5228 0 9.99999C0 4.47715 4.47715 0 9.99999 0Z" fill="white"/>
</mask>
<g mask="url(#mask0_219_122127)">
<path fill-rule="evenodd" clip-rule="evenodd" d="M-0.869564 -0.869568H20.8695V20.8695H-0.869564V-0.869568Z" fill="#F0F0F0"/>
</g>
<mask id="mask1_219_122127" style="mask-type:alpha" maskUnits="userSpaceOnUse" x="4" y="9" width="16" height="7">
<path d="M19.3426 13.5735C19.2624 13.7822 19.1756 13.988 19.0817 14.191L19.0818 14.1916L18.953 14.4589L18.8143 14.7273L18.8001 14.7535L10.0287 15.6231L4.37687 15.1137C5.63569 13.8549 6.86982 12.2977 8.82644 10.3071L9.15937 9.97125H20V10L19.998 10.2156L19.9962 10.2777L19.9948 10.3078L19.9909 10.4295C19.9888 10.48 19.9863 10.5304 19.9834 10.5807L19.9914 10.4308C19.9874 10.5252 19.9822 10.6194 19.9756 10.7135L19.9791 10.6357L19.9725 10.7472C19.9684 10.8026 19.9639 10.8579 19.9589 10.913L19.9596 10.9126C19.9393 11.129 19.9129 11.343 19.8798 11.5548L19.8994 11.4275L19.8776 11.572L19.8548 11.7052L19.8284 11.8543L19.8287 11.8544L19.7872 12.0622L19.7416 12.2685L19.7104 12.3988L19.7 12.4409L19.6826 12.5096L19.6408 12.6655L19.5463 12.9865L19.46 13.247L19.4788 13.1947L19.4411 13.304L19.4254 13.3491L19.3922 13.44L19.4243 13.3496L19.3695 13.5023L19.3426 13.5735Z" fill="white"/>
</mask>
<g mask="url(#mask1_219_122127)">
<path fill-rule="evenodd" clip-rule="evenodd" d="M3.50731 9.10168H20.8723V16.4927H3.50731V9.10168Z" fill="#EC0017"/>
</g>
<mask id="mask2_219_122127" style="mask-type:alpha" maskUnits="userSpaceOnUse" x="2" y="0" width="17" height="6">
<path d="M11.0539 0.0556521L11.1932 0.070449L11.2365 0.07569L11.2426 0.0773912L11.3339 0.0886956H11.3296L11.3626 0.0930434L11.4304 0.102609L11.446 0.103796L11.44 0.103478L11.4304 0.102609L11.387 0.0954115L11.44 0.103478L11.4635 0.106956L11.5917 0.125998L11.6026 0.127826L11.6087 0.128696L11.7367 0.150275L12.0253 0.205239L12.2791 0.261739L12.3548 0.28L12.4546 0.303527L12.5478 0.328695L12.5 0.315652L12.5975 0.340716L12.553 0.329565L12.6252 0.348695L12.5975 0.340716C12.6777 0.362244 12.7575 0.384746 12.837 0.408208C12.9383 0.438129 13.0389 0.46961 13.1388 0.502625L13.2348 0.535652L13.3 0.55826L13.3333 0.568997L13.3539 0.577391L13.3565 0.57826L13.4356 0.606956L13.3677 0.581341L13.4851 0.62417L13.5948 0.666086L13.4878 0.626086L13.5945 0.665486C13.6368 0.681759 13.6789 0.69831 13.7208 0.715138L13.7211 0.715368C13.8379 0.762098 13.9539 0.811208 14.0687 0.862419L14.08 0.867825L14.113 0.882608H14.1122L14.1278 0.889564L14.1572 0.902569L14.1835 0.914478L14.2774 0.95913L14.2809 0.960869L14.2975 0.967935L14.3243 0.981738L14.4036 1.0195L14.4205 1.02761L14.5021 1.06859L14.5504 1.09391L14.5522 1.09478L14.6165 1.12783L14.6339 1.13739L14.6313 1.13565L14.6165 1.12783L14.6001 1.11872L14.6313 1.13565L14.6452 1.14348L14.6699 1.15512C14.7122 1.17749 14.7543 1.20015 14.7962 1.2231L14.7122 1.17913L14.825 1.2392L14.8249 1.23887C14.983 1.32641 15.1384 1.41778 15.291 1.51315L15.2911 1.51291C15.5382 1.6676 15.7782 1.83255 16.0102 2.00737L15.9739 1.98087L16.029 2.02112L16.1148 2.08782L16.2198 2.16958L16.1232 2.09332L16.2345 2.18089L16.2356 2.18348L16.3009 2.23565L16.3814 2.30095L16.3445 2.27L16.4498 2.35776L16.5374 2.43304L16.4878 2.3913L16.5937 2.48214L16.5539 2.44692C16.6146 2.49961 16.6746 2.55302 16.734 2.60714L16.6955 2.57272L16.7963 2.66441C16.9342 2.79256 17.0686 2.92446 17.1992 3.06L17.3928 3.26598C17.5064 3.39127 17.6175 3.51942 17.7252 3.65036L17.7257 3.65026C18.055 4.05112 18.3541 4.47798 18.6192 4.92737L18.6597 4.99575L18.7681 5.18874H4.37687L2.94375 2.915L3.19916 2.66881L3.44609 2.44695L3.4721 2.42439L3.56273 2.3468L3.65391 2.27043L3.61739 2.30174L3.67215 2.25633C3.70183 2.23205 3.73165 2.20794 3.7616 2.184L3.76169 2.18341C3.93492 2.04549 4.11294 1.91262 4.29539 1.78567L4.22591 1.8338C4.29856 1.78235 4.37184 1.7319 4.44573 1.68248L4.29539 1.78567C4.36697 1.73586 4.43925 1.68697 4.51218 1.639L4.46261 1.6713L4.54719 1.6155L4.62695 1.56435L4.54869 1.61565L4.62814 1.56387L4.74501 1.48994C4.93458 1.37312 5.12817 1.26207 5.32568 1.15745L5.2228 1.2125L5.33465 1.15256L5.4 1.11913L5.44869 1.09391L5.45739 1.08956L5.49826 1.06869L5.56037 1.03707L5.57289 1.03087L5.58 1.02783L5.59565 1.02L5.67421 0.981539L5.72129 0.959006L5.81652 0.914782L5.79699 0.923632C5.83804 0.90461 5.87923 0.885868 5.92053 0.867409L5.88608 0.882608L6.01677 0.824778L6.05739 0.807825L5.93217 0.862608L6.12261 0.779999L6.25253 0.72619L6.16371 0.762295L6.29548 0.708614L6.38153 0.675096L6.29826 0.708695L6.39913 0.668695L6.38153 0.675096L6.42818 0.65676L6.40608 0.666086L6.46347 0.644347L6.53217 0.61826L6.54087 0.615652L6.53739 0.616521L6.55304 0.610434L6.56287 0.606353L6.63304 0.581739L6.56347 0.606956L6.55304 0.610434L6.54087 0.615652L6.56347 0.606956L6.64355 0.577622C6.68776 0.561873 6.7321 0.546436 6.77654 0.531311L6.77655 0.530902C6.96935 0.465699 7.16426 0.405965 7.36099 0.35222L7.30688 0.366828L7.44617 0.329059L7.47304 0.322608L7.49983 0.315365L7.56434 0.29913L7.58625 0.293254L7.57652 0.296521L7.63217 0.282608L7.71728 0.261722C7.76106 0.251499 7.80496 0.241563 7.84896 0.231917C7.94419 0.211042 8.03992 0.191525 8.13615 0.173386L8.09826 0.181739L8.18173 0.166087L8.24869 0.153913L8.45652 0.118388L8.53304 0.107826L8.77071 0.0748057L8.87652 0.0626086L8.89859 0.0599636L9.00173 0.0495652L9.02631 0.0464006L9.04608 0.0452174L9.02695 0.0467351L9.09565 0.0408695L9.16608 0.0347826L9.30121 0.0240353L9.18383 0.0324063C9.27548 0.0249971 9.36732 0.0188481 9.45935 0.0139692L9.34434 0.0217391L9.43177 0.0158729L9.56283 0.0090218L9.73973 0.00332094L9.99999 0L10.269 0.00354786L10.4003 0.00786453L10.5311 0.0138628L10.6801 0.0227615L10.7852 0.0304348L10.8156 0.0330434L10.8078 0.0321739L10.8174 0.0330434H10.8156L10.8374 0.0347826L10.9009 0.04L10.9148 0.0417391L10.9571 0.045208C10.9999 0.0492723 11.0426 0.0536064 11.0853 0.0582086L11.0539 0.0556521L11.051 0.0545741L10.9522 0.0452174L11.0539 0.0556521Z" fill="white"/>
</mask>
<g mask="url(#mask2_219_122127)">
<path fill-rule="evenodd" clip-rule="evenodd" d="M2.07419 -0.872925H19.6377V6.05829H2.07419V-0.872925Z" fill="#FFD800"/>
</g>
<mask id="mask3_219_122127" style="mask-type:alpha" maskUnits="userSpaceOnUse" x="2" y="14" width="17" height="6">
<path d="M13.8224 19.2434L13.672 19.3041L13.58 19.34L13.5687 19.3443L13.465 19.3833L13.5113 19.3661L13.4336 19.3949L13.3374 19.4295L13.4304 19.3956L13.3058 19.4406L13.2103 19.4735L13.2904 19.4461L13.2037 19.4758C13.1695 19.4873 13.1353 19.4987 13.101 19.5099L13.2017 19.4765L13.0818 19.516C13.0389 19.5299 12.9958 19.5435 12.9527 19.5568L12.9695 19.5517L12.8991 19.573L12.8364 19.5919L12.7193 19.6258C12.4518 19.7012 12.1795 19.7658 11.9032 19.8191L11.8443 19.8295L11.8035 19.8374L11.7913 19.84L11.7443 19.8487L11.7826 19.8417L11.7913 19.84L11.8035 19.8374L11.8165 19.8356L11.8443 19.8295L11.8661 19.8261L11.8301 19.8329L11.8165 19.8356L11.7913 19.84L11.7826 19.8417L11.7468 19.8479L11.7313 19.8513L11.7073 19.8548L11.7287 19.8513L11.5896 19.8743C11.4975 19.889 11.4049 19.9025 11.312 19.9147L11.4618 19.8939C11.3762 19.9064 11.2904 19.9179 11.2042 19.9282L11.2235 19.9261L11.2 19.9287L11.0609 19.9443L11.1574 19.9339L11.068 19.9436C11.0225 19.9485 10.9769 19.953 10.9313 19.9572L11.0537 19.9451L10.9296 19.9573L10.9069 19.9591L10.7878 19.9695L10.6094 19.9817L10.4713 19.9891L10.333 19.9945C10.2222 19.9982 10.1113 20 9.99999 20L9.77856 19.9978L9.6939 19.9956L9.54823 19.9903L9.46086 19.9861L9.43217 19.9843L9.4339 19.9852L9.46086 19.9861L9.468 19.9861L9.4339 19.9852L9.42521 19.9843L9.31303 19.9774L9.36782 19.9809L9.31159 19.9767L9.30434 19.9765L9.23303 19.9713L9.29942 19.9762C9.21513 19.9704 9.13101 19.9635 9.04706 19.9556L9.15584 19.9649L8.9893 19.9495L9.04706 19.9556L8.90922 19.9415L8.77157 19.9253L8.50002 19.8882L8.36956 19.8678L8.29825 19.8556L8.35866 19.8659L8.38474 19.8703C8.30037 19.8566 8.21624 19.8418 8.13237 19.8259L8.17043 19.833L8.12434 19.8243L7.95391 19.7904L7.88173 19.7756L7.82347 19.7626L7.81738 19.7609L7.81912 19.7617L7.79391 19.7556L7.7851 19.7538L7.71025 19.7364L7.70608 19.7356L7.56349 19.7008L7.56371 19.7011C7.36429 19.6508 7.16685 19.5948 6.97144 19.5327L6.97112 19.5331L6.708 19.4455L6.59733 19.4062L6.51478 19.3765L6.41864 19.3396C6.2185 19.2624 6.02057 19.1791 5.82548 19.0895L5.91292 19.1294L5.7806 19.0689L5.6989 19.0302L5.74695 19.053L5.6826 19.0226L5.57314 18.9692L5.64931 19.0065L5.53907 18.9523L5.44173 18.9035L5.41652 18.8904L5.31013 18.8343C5.27046 18.8132 5.23095 18.7918 5.19161 18.7702L5.19108 18.7701C5.08158 18.7098 4.97281 18.6473 4.86534 18.5829L4.96686 18.6433L4.84212 18.5693L4.80347 18.5461L4.76235 18.5203L4.74521 18.5104L4.73565 18.5043L4.66018 18.4565L4.66011 18.457C4.39284 18.2873 4.13407 18.1058 3.88468 17.9128L3.95561 17.9678L3.85658 17.8916L3.77304 17.8261L3.81217 17.8565L3.77424 17.8261C3.73763 17.7969 3.70123 17.7675 3.66505 17.7378L3.75842 17.814C3.68958 17.7589 3.6214 17.7028 3.55391 17.6458L3.55426 17.6457C3.33333 17.4594 3.12011 17.2628 2.915 17.0562C3.51083 16.4604 3.85248 15.7774 4.59803 14.9749L4.81187 14.7531L18.8001 14.7535C18.7622 14.8236 18.7234 14.8932 18.6838 14.9623L18.6756 14.9756L18.6498 15.0206L18.6221 15.0685L18.5782 15.1417L18.5051 15.2615L18.5487 15.1913L18.4929 15.2818L18.4391 15.3669L18.372 15.4702L18.3723 15.4705C18.1883 15.7509 17.9908 16.0216 17.7806 16.2817L17.5667 16.5382C17.2278 16.9292 16.8598 17.2938 16.4655 17.6284L16.4656 17.6289C16.2826 17.7838 16.094 17.9324 15.9002 18.0743L15.6252 18.2687L15.6054 18.282L15.5704 18.3061L15.4869 18.3617L15.368 18.4382L15.4635 18.3769L15.3592 18.4442L15.28 18.4939L15.2635 18.5043L15.1591 18.5681C14.9708 18.6814 14.7789 18.7888 14.5832 18.89L14.4894 18.9381L14.253 19.0529L14.08 19.1323L13.9235 19.2009L13.8217 19.2435L13.789 19.257L13.6913 19.2965L13.8224 19.2434Z" fill="white"/>
</mask>
<g mask="url(#mask3_219_122127)">
<path fill-rule="evenodd" clip-rule="evenodd" d="M2.04543 13.8835H19.6695V20.8729H2.04543V13.8835Z" fill="#0054BB"/>
</g>
<mask id="mask4_219_122127" style="mask-type:alpha" maskUnits="userSpaceOnUse" x="0" y="2" width="10" height="16">
<path d="M2.94374 2.91418L9.99999 9.97127L2.92875 17.0419C1.04358 15.1567 0.0684882 12.7059 0.00348235 10.2357L0 10C0 7.23108 1.12539 4.72498 2.94374 2.91418Z" fill="white"/>
</mask>
<g mask="url(#mask4_219_122127)">
<path fill-rule="evenodd" clip-rule="evenodd" d="M-1.84581 2.03046H10.8696V17.9114H-1.84581V2.03046Z" fill="#5AA731"/>
</g>
<mask id="mask5_219_122127" style="mask-type:alpha" maskUnits="userSpaceOnUse" x="1" y="6" width="5" height="8">
<path d="M5.02875 6.99875C3.63257 7.30518 2.63773 8.54185 2.6375 9.97125C2.63808 11.4008 3.63264 12.6376 5.02875 12.945C3.81215 13.2117 2.5558 12.7104 1.85713 11.6793C1.15845 10.6482 1.15845 9.29552 1.85713 8.26446C2.5558 7.23339 3.81215 6.73201 5.02875 6.99875ZM4.99562 11.2756L5.15749 11.7738H5.68124L5.2575 12.0813L5.41937 12.5794L4.99562 12.2719L4.57187 12.5794L4.73375 12.0813L4.31 11.7738H4.83375L4.99562 11.2756ZM4.99562 9.97125L5.15749 10.4694H5.68124L5.2575 10.7775L5.41937 11.2756L4.99562 10.9675L4.57187 11.2756L4.73375 10.7775L4.31 10.4694H4.83375L4.99562 9.97125ZM4.99562 8.66688L5.15749 9.165H5.68124L5.2575 9.47251L5.41937 9.97063L4.99562 9.66251L4.57187 9.97063L4.73375 9.47251L4.31 9.165H4.83375L4.99562 8.66688ZM4.99562 7.36251L5.15749 7.86063H5.68124L5.2575 8.16875L5.41937 8.66688L4.99562 8.35875L4.57187 8.66688L4.73375 8.16875L4.31 7.86063H4.83375L4.99562 7.36251Z" fill="white"/>
</mask>
<g mask="url(#mask5_219_122127)">
<path fill-rule="evenodd" clip-rule="evenodd" d="M0.288892 5.86243H6.55081V14.0813H0.288892V5.86243Z" fill="#F0F0F0"/>
</g>
</svg>
