<svg width="20" height="20" viewBox="0 0 20 20" fill="none" xmlns="http://www.w3.org/2000/svg">
<path d="M20 10C20 15.5225 15.5225 20 10 20C4.4775 20 0 15.5225 0 10C0 10.0025 10 0.00125 10 0C15.5225 0 20 4.4775 20 10Z" fill="#0054BB"/>
<path d="M11.3044 11.7394V13.4781H12.2194C12.7681 14.0156 13.5194 14.3481 14.3481 14.3481C15.1769 14.3481 15.9275 14.0163 16.4763 13.4781H17.3913V11.7394H11.3044Z" fill="#FFD800"/>
<ellipse cx="14.3481" cy="5.65185" rx="1.73938" ry="1.73937" fill="#5AA731"/>
<path fill-rule="evenodd" clip-rule="evenodd" d="M10 0V5.2175H7.06187L10 8.15562V9.97312V10H9.97312H8.155L5.2175 7.06187V10H0C0 4.4775 4.47625 0.000625 9.99813 0H10Z" fill="#F0F0F0"/>
<path fill-rule="evenodd" clip-rule="evenodd" d="M5.05937 1.30438C3.495 2.19501 2.195 3.49501 1.30437 5.05938V10H3.91312V3.91313H10V1.30438H5.05937ZM11.3044 5.21751H17.3913V7.82626H11.3044V5.21751ZM6.44687 5.21688L10 8.77001V10L5.2175 5.21688H6.44687Z" fill="#EC0017"/>
<path d="M11.3044 7.39124V9.99999C11.3044 12.33 14.3481 13.0431 14.3481 13.0431C14.3481 13.0431 17.3913 12.3294 17.3913 9.99999V7.39124H11.3044Z" fill="#008CFB"/>
<path fill-rule="evenodd" clip-rule="evenodd" d="M12.8256 7.0431L14.3475 6.34747C14.7281 6.34747 14.9184 6.52153 15.1087 6.69551C15.2989 6.8695 15.489 7.04341 15.8694 7.0431C16.2505 7.0431 16.4409 6.86905 16.6313 6.69507C16.8216 6.52124 17.0117 6.34747 17.3919 6.34747V7.56497C17.0113 7.56497 16.8212 7.73881 16.631 7.91268C16.4407 8.08662 16.2504 8.2606 15.8694 8.2606C15.4891 8.2606 15.299 8.08676 15.1088 7.91289C14.9185 7.73895 14.7282 7.56497 14.3475 7.56497C13.5862 7.56497 12.8256 8.2606 12.8256 8.2606L11.3037 7.56497V6.34747L12.8256 7.0431ZM12.8256 9.4806L14.3475 8.78497C14.7283 8.78497 14.9186 8.95887 15.1089 9.13278C15.2991 9.30653 15.4892 9.48029 15.8694 9.4806C16.2505 9.4806 16.4409 9.30655 16.6313 9.13257C16.8216 8.95874 17.0117 8.78497 17.3919 8.78497V10.0025C17.0113 10.0025 16.8212 10.1763 16.631 10.3502C16.4407 10.5241 16.2504 10.6981 15.8694 10.6981C15.4891 10.6981 15.299 10.5243 15.1088 10.3504C14.9185 10.1765 14.7282 10.0025 14.3475 10.0025C13.5862 10.0025 12.8256 10.6981 12.8256 10.6981L11.3037 10.0025V8.78497L12.8256 9.4806Z" fill="#F3F3F3"/>
</svg>
