<svg width="20" height="20" viewBox="0 0 20 20" fill="none" xmlns="http://www.w3.org/2000/svg">
<path fill-rule="evenodd" clip-rule="evenodd" d="M10 0C12.0913 0 14.0313 0.641875 15.6363 1.73937L10 2.60875L4.36377 1.73937C5.96877 0.641875 7.90939 0 10 0ZM10 20C7.90939 20 5.96877 19.3581 4.36377 18.2606L10 17.3912L15.6363 18.2606C14.0313 19.3581 12.0913 20 10 20Z" fill="#EC0017"/>
<path d="M20 10C20 6.69126 18.0187 3.36813 15.6362 1.73938H4.36375C1.72937 3.54 0 6.56813 0 10C0 13.4319 1.72937 16.46 4.36375 18.2606H15.6362C18.2706 16.46 20 13.4319 20 10Z" fill="#0054BB"/>
<path d="M9.4344 16.3125C9.29752 16.195 6.08752 13.405 6.08752 10C6.08752 6.59562 9.29815 3.80437 9.4344 3.6875L10 3.2025L10.5656 3.6875C10.7025 3.805 13.9125 6.59562 13.9125 10C13.9125 13.4044 10.7019 16.195 10.5656 16.3125L10 16.7975L9.4344 16.3125Z" fill="#EC0017"/>
<path d="M13.0431 10C13.0431 6.95625 9.99999 4.34813 9.99999 4.34813C9.99999 4.34813 6.95624 6.95625 6.95624 10C6.95624 10.9313 7.24124 11.8213 7.63686 12.6088H12.3631C12.7587 11.8213 13.0431 10.9313 13.0431 10Z" fill="#008CFB"/>
<path d="M13.0431 10C13.0431 10.9313 12.7587 11.8213 12.3631 12.6088L9.99999 13.0431L7.63686 12.6088C7.24124 11.8213 6.95624 10.9313 6.95624 10H13.0431Z" fill="#0054BB"/>
<path d="M10 15.6519C10 15.6519 11.4663 14.395 12.3632 12.6087H7.6369C8.53378 14.395 10 15.6519 10 15.6519Z" fill="#FFD800"/>
<path d="M8.04376 8.26062H11.9569L10 10.2175L8.04376 8.26062Z" fill="#5AA731"/>
<path d="M9.34814 9.565H10.6519V13.4781H9.34814V9.565H9.34814Z" fill="#B20013"/>
</svg>
