<svg width="20" height="20" viewBox="0 0 20 20" fill="none" xmlns="http://www.w3.org/2000/svg">
<circle cx="10" cy="10" r="10" fill="#EC0017"/>
<ellipse cx="10" cy="10" rx="4.7825" ry="4.7825" fill="#F0F0F0"/>
<path fill-rule="evenodd" clip-rule="evenodd" d="M8.44226 10.9905C8.85514 12.0936 9.90901 12.8249 11.0869 12.8256C11.5563 12.8262 12.0184 12.7096 12.4312 12.4862C11.0651 13.8232 8.87617 13.8075 7.52941 12.451C6.18265 11.0945 6.18265 8.90549 7.52941 7.54901C8.87617 6.19252 11.0651 6.17678 12.4312 7.51374C11.3949 6.95405 10.12 7.09598 9.23204 7.86989C8.3441 8.6438 8.02938 9.88733 8.44226 10.9905ZM11.41 9.30187L10.5894 8.17124V9.56937L9.26062 9.99999L10.5887 10.4331L10.5881 11.8294L11.4094 10.6994L12.7375 11.1319L11.9169 10.0012L12.7381 8.87124L11.41 9.30187Z" fill="#EC0017"/>
</svg>
