<svg width="20" height="20" viewBox="0 0 20 20" fill="none" xmlns="http://www.w3.org/2000/svg">
<circle cx="10" cy="10" r="10" fill="#F0F0F0"/>
<mask id="mask0_136_139" style="mask-type:luminance" maskUnits="userSpaceOnUse" x="0" y="0" width="20" height="20">
<circle cx="10" cy="10" r="10" fill="white"/>
</mask>
<g mask="url(#mask0_136_139)">
<path fill-rule="evenodd" clip-rule="evenodd" d="M3.74899 1.72506C4.79299 0.894221 5.98456 0.283753 7.256 -0.0716553V5.35435L3.74899 1.72506ZM16.0219 1.72571C14.9781 0.894627 13.7865 0.284134 12.5149 -0.0710033V5.35565L16.0219 1.72571ZM19.6178 7.27884C19.2741 5.96303 18.684 4.72992 17.8809 3.64955L14.3739 7.27884H19.6178ZM1.88934 16.3504C1.0865 15.27 0.496601 14.0369 0.153168 12.7211H5.39635L1.88934 16.3504ZM16.0219 18.2743C14.978 19.1053 13.7864 19.716 12.5149 20.0716V14.645L16.0219 18.2743ZM3.74899 18.2743C4.79296 19.1053 5.98453 19.716 7.256 20.0716V14.645L3.74899 18.2743ZM17.8809 16.3504L14.3739 12.7211H19.6178C19.2738 14.0368 18.6838 15.2699 17.8809 16.3504ZM0.153798 7.27884C0.496692 5.96286 1.08664 4.72964 1.88997 3.64955L5.39761 7.27884H0.153798Z" fill="#0054BB"/>
<path fill-rule="evenodd" clip-rule="evenodd" d="M19.8798 8.63946H11.2002V-0.34281C10.3274 -0.460518 9.44355 -0.460518 8.57075 -0.34281V8.63946H-0.108879C-0.222699 9.54269 -0.222699 10.4574 -0.108879 11.3606H8.57075V20.3429C9.44362 20.4594 10.3273 20.4594 11.2002 20.3429V11.3606H19.8798C19.9923 10.4573 19.9923 9.54278 19.8798 8.63946ZM12.5149 12.7212L12.5156 12.7218H12.5149V12.7212ZM12.5156 12.7218H13.7547L17.605 16.7071C17.4173 16.9385 17.2201 17.1621 17.0129 17.3766L12.5156 12.7218ZM2.75808 17.376L7.25601 12.7212V14.0042L3.40505 17.9888C3.18142 17.7945 2.96534 17.5904 2.75808 17.376ZM7.25601 7.27889L2.75808 2.62412C2.55145 2.8386 2.35427 3.06221 2.16592 3.29365L6.01688 7.27889H7.25601ZM12.5156 7.27823L12.5149 7.27889H12.5156V7.27823ZM17.0135 2.62412L12.5156 7.27823V5.99589L16.3665 2.0113C16.5907 2.20576 16.8065 2.41022 17.0135 2.62412Z" fill="#EC0017"/>
</g>
</svg>
