<svg width="20" height="20" viewBox="0 0 20 20" fill="none" xmlns="http://www.w3.org/2000/svg">
<circle cx="10" cy="10" r="10" fill="#FFD800"/>
<mask id="mask0_131_142" style="mask-type:luminance" maskUnits="userSpaceOnUse" x="0" y="0" width="20" height="20">
<circle cx="10" cy="10" r="10" fill="white"/>
</mask>
<g mask="url(#mask0_131_142)">
<path d="M2.92874 17.1407C6.93246 20.9531 13.4227 20.9531 17.4264 17.1407C21.4295 13.3276 21.4295 7.14578 17.4264 3.33333L2.92874 17.1407Z" fill="#FF9100"/>
<path d="M15.6569 6.08666V4.4006H12.3231L12.0694 4.64788C11.1638 5.52606 11.3156 6.55091 11.4275 7.29939C11.53 7.99333 11.5425 8.25879 11.2763 8.51757C11.01 8.77576 10.7363 8.76363 10.0206 8.66363C9.24938 8.55576 8.1925 8.40788 7.28625 9.28606C6.38063 10.1648 6.53313 11.1891 6.64438 11.9376C6.74813 12.6315 6.76 12.8976 6.49375 13.1558C6.2275 13.4139 5.95375 13.4018 5.23813 13.3012C4.95938 13.2624 4.67063 13.2218 4.36313 13.2182L4.34375 14.9048C4.53625 14.9067 4.75688 14.9376 4.99 14.9697C5.26625 15.0085 5.57875 15.0527 5.90813 15.0527C6.24875 15.0527 6.60812 15.0055 6.9625 14.857V16.2067H9.57125V14.9418H8.26688V14.0982H9.13625V12.8333H8.44125C8.47438 12.4242 8.41625 12.0327 8.36625 11.697C8.2625 11.0024 8.25063 10.737 8.51688 10.4788C8.78313 10.2206 9.05688 10.2327 9.77313 10.3327C10.335 10.4109 11.0488 10.5103 11.745 10.2188V11.5685H14.3538V10.303H13.0494V9.46H13.9194V8.19515H13.2244C13.2575 7.78606 13.2 7.39394 13.15 7.05818C13.0781 6.57333 13.05 6.29757 13.1306 6.08727H15.6569V6.08666Z" fill="#F0F0F0"/>
</g>
</svg>
