<svg width="20" height="20" viewBox="0 0 20 20" fill="none" xmlns="http://www.w3.org/2000/svg">
<circle cx="10" cy="10" r="10" fill="#F0F0F0"/>
<path fill-rule="evenodd" clip-rule="evenodd" d="M6.08687 0.79501C7.32423 0.268644 8.65534 -0.00178703 10 1.02098e-05C12.2616 -0.0032269 14.457 0.763392 16.225 2.17376H10V4.78251H6.08687V0.79501ZM3.47813 2.41939C2.68987 3.09833 2.01179 3.89553 1.46812 4.78251H3.47875V2.41939H3.47813ZM10 7.39126H19.6556C19.4077 6.47253 19.0295 5.59403 18.5325 4.78251H10V7.39126ZM10 7.39126H6.08687V10H3.47812V7.39126H0.344375C0.12 8.22314 0 9.09751 0 10C0 10.9025 0.12 11.7775 0.344375 12.6088H19.6556C19.8848 11.7581 20.0006 10.881 20 10H10L10 7.39126ZM16.225 17.8256C17.1402 17.0972 17.9209 16.2143 18.5319 15.2169H1.46812C2.07908 16.2143 2.8598 17.0972 3.775 17.8256H16.225Z" fill="#008CFB"/>
</svg>
