<svg width="20" height="20" viewBox="0 0 20 20" fill="none" xmlns="http://www.w3.org/2000/svg">
<circle cx="10" cy="10" r="10" fill="#FFD800"/>
<path d="M9.99999 8.67185e-06C7.64767 -0.00309364 5.37013 0.826271 3.57062 2.34126L14.3481 10L3.57062 17.6588C5.36996 19.174 7.64761 20.0034 9.99999 20C15.5225 20 20 15.5225 20 10C20 4.47751 15.5225 8.67185e-06 9.99999 8.67185e-06Z" fill="#EC0017"/>
<path d="M2.92875 2.92871C-0.97625 6.83434 -0.97625 13.1656 2.92875 17.0712L10 9.99996L2.92875 2.92871Z" fill="black"/>
<path d="M2.77249 7.70874L4.29436 9.14937L6.13436 8.14687L5.23499 10.0394L6.75686 11.4794L4.67874 11.2094L3.77936 13.1012L3.39499 11.0412L1.31686 10.7706L3.15686 9.76812L2.77249 7.70874V7.70874Z" fill="#F0F0F0"/>
</svg>
