<svg width="20" height="20" viewBox="0 0 20 20" fill="none" xmlns="http://www.w3.org/2000/svg">
<path d="M10 0C15.5225 0 20 4.4775 20 10C20 15.5225 15.5225 20 10 20C4.4775 20 0 15.5225 0 10C0 4.4775 4.4775 0 10 0Z" fill="#015FD4"/>
<path fill-rule="evenodd" clip-rule="evenodd" d="M18.7581 11.3119C18.6606 9.24125 17.2169 8.84563 15.6281 8.51L15.7062 9.14375C15.8316 9.19337 15.9738 9.20552 16.1151 9.21759C16.4471 9.24596 16.774 9.27389 16.8656 9.78688L15.0294 11.0113C14.6044 10.255 14.2087 9.54875 13.8156 8.84563L13.595 8.96313C13.9083 9.71478 14.2192 10.4703 14.5316 11.2293L14.5318 11.2298L14.6581 11.5369L15.6131 11.3131C15.6817 12.0511 15.2424 12.4569 14.8264 12.8412C14.5902 13.0594 14.3615 13.2707 14.2375 13.5319V14.6775C13.9676 14.9938 13.6826 15.2994 13.4028 15.5994L13.4027 15.5994C13.2303 15.7842 13.0599 15.967 12.8962 16.1488C12.4281 16.6763 11.9306 17.1625 11.0925 16.9644C11.0026 16.8084 10.8957 16.6602 10.7891 16.5124C10.4783 16.0813 10.17 15.6538 10.2937 15.0488C10.4851 14.0765 10.0841 13.2873 9.70238 12.5358L9.65437 12.4413H7.37C6.97926 12.0158 6.63494 11.7371 6.39478 11.5427C6.33224 11.4921 6.27677 11.4472 6.22937 11.4069C5.815 9.51688 6.56562 8.2875 7.77875 7.34625C7.25312 6.795 7.25312 6.79 7.31687 6.10375L8.26187 5.84937L8.00937 5.04437C8.60807 4.64937 9.20786 4.25603 9.80875 3.86437C10.3444 3.89875 10.7637 3.92375 11.1456 3.9425C11.4303 3.63436 11.7163 3.32748 12.0037 3.02187L11.1556 2.34812L10.7794 3.51312L9.28187 2.85062C9.81437 2.02625 10.5594 1.7875 11.4812 1.8075C12.4968 1.83127 13.512 1.82652 14.5562 1.82163C14.9946 1.81958 15.438 1.8175 15.8887 1.8175C18.4187 3.68458 19.9202 6.63516 19.9406 9.77938C19.4145 9.96072 19.2047 10.3976 18.9602 10.9067C18.8972 11.038 18.8318 11.1741 18.7581 11.3119ZM0.218748 12.1512C1.07625 12.6925 1.71125 13.2394 2.095 14.0656C2.20861 14.3091 2.47254 14.4949 2.71857 14.6682L2.71864 14.6682L2.7187 14.6683L2.71876 14.6683C2.7569 14.6952 2.7946 14.7217 2.83125 14.7481C3.03475 14.894 3.25612 15.016 3.48569 15.1425L3.48572 15.1425C3.60233 15.2068 3.72105 15.2722 3.84062 15.3425C3.81586 15.4454 3.79543 15.545 3.77572 15.641C3.72926 15.8674 3.68682 16.0742 3.60125 16.2594C3.50775 16.4602 3.36891 16.6422 3.23193 16.8219L3.23193 16.8219L3.23189 16.8219C3.17659 16.8944 3.12159 16.9666 3.07 17.0394C3.48722 17.47 3.94708 17.8572 4.4425 18.195C2.31709 16.791 0.806669 14.6297 0.218748 12.1512ZM11.67 6.88437L12.1194 6.62125L13.5762 7.50437C13.4473 7.77319 13.3669 7.94058 13.234 8.02703C13.0145 8.16972 12.6517 8.0919 11.69 7.88562L11.0419 8.29937C10.9015 8.17419 10.7584 8.04608 10.6119 7.91491L10.6118 7.91478C10.3304 7.66288 10.0365 7.39971 9.725 7.12437L8.25875 7.27625C8.49187 6.4025 8.96937 5.97875 9.79312 5.8125L10.7644 6.69L10.935 6.57312L10.4562 5.75875C11.0511 5.67463 11.2104 6.01776 11.3849 6.3938C11.4633 6.56258 11.5447 6.73799 11.67 6.88437ZM0.0606232 8.37625C0.245521 7.13086 0.665249 5.93191 1.2975 4.84312L1.66625 6.94375C1.55445 7.02976 1.45399 7.11 1.36006 7.18502L1.36002 7.18505C1.18301 7.32643 1.02916 7.4493 0.866248 7.5575C0.511248 7.78562 0.238748 8.05562 0.0606232 8.37625ZM3.95562 1.85312C3.35872 2.30013 2.81366 2.81248 2.33062 3.38062L2.71437 4.73062C3.275 3.99875 3.74812 3.385 4.24062 2.74687C4.14 2.4375 4.04562 2.14312 3.95562 1.85312Z" fill="#86C200"/>
</svg>
