<svg width="20" height="20" viewBox="0 0 20 20" fill="none" xmlns="http://www.w3.org/2000/svg">
<circle cx="10" cy="10" r="10" fill="#5AA731"/>
<path fill-rule="evenodd" clip-rule="evenodd" d="M4.23938 9.56499C4.71876 9.56499 5.10875 9.17499 5.10875 8.69562V5.65125H6.41313V8.69499C6.41175 9.89495 5.43934 10.8674 4.23938 10.8687V9.56499ZM14.4569 8.69562V5.65187V5.65125H15.7606V8.69499C15.7593 9.89495 14.7868 10.8674 13.5869 10.8687V9.56499C14.0663 9.56499 14.4569 9.17499 14.4569 8.69562ZM6.95625 13.2606C6.23625 13.2606 5.65188 12.6769 5.65188 11.9569H14.3475V13.2606C14.3475 13.8612 13.8606 14.3481 13.26 14.3481H11.9563C11.3556 14.3481 10.8688 13.8612 10.8688 13.2606H6.95625ZM12.5 5.65187H13.8044V8.69562H12.5V5.65187ZM10.3256 7.60874C10.4458 7.60874 10.5431 7.51137 10.5431 7.39125H10.5425V5.65125H11.8475V8.69499C11.8458 9.89505 10.8732 10.8674 9.67313 10.8687V9.56499C10.074 9.56454 10.4227 9.29018 10.5175 8.90062C10.1434 8.9489 9.76467 8.85573 9.45563 8.63937C9.20938 8.81187 8.90938 8.91312 8.58626 8.91312C7.74618 8.91209 7.06541 8.23132 7.06438 7.39125V5.65187H8.36876V7.39125C8.36876 7.51137 8.46613 7.60874 8.58626 7.60874C8.70638 7.60874 8.80376 7.51137 8.80376 7.39125V5.65187H10.1081V7.39125C10.1081 7.51137 10.2055 7.60874 10.3256 7.60874ZM7.06501 9.56499H9.02125V10.8687H7.06501V9.56499Z" fill="#F0F0F0"/>
</svg>
