<svg width="20" height="20" viewBox="0 0 20 20" fill="none" xmlns="http://www.w3.org/2000/svg">
<circle cx="10" cy="10" r="10" fill="#F0F0F0"/>
<path d="M17.9331 16.0887L11.8444 9.99997L17.9331 3.91122C17.6706 3.56997 17.3838 3.24185 17.0713 2.92872C16.7581 2.61622 16.43 2.32935 16.0888 2.06622L10 8.15497L3.91125 2.06622C3.57 2.32872 3.24188 2.61622 2.92938 2.92872C2.61688 3.24122 2.32938 3.56997 2.06688 3.91122L8.15563 9.99997L2.06625 16.0887C2.32875 16.43 2.61625 16.7581 2.92875 17.0712C3.24125 17.3837 3.57 17.6706 3.91125 17.9331L10 11.8443L16.0888 17.9331C16.43 17.6706 16.7581 17.3837 17.0713 17.0706C17.3838 16.7581 17.6706 16.43 17.9331 16.0887Z" fill="#EC0017"/>
<path d="M8.26062 3.04376L10 3.47813L11.7394 3.04313V1.56501L11.0437 1.91313L10 0.869385L8.95687 1.91313L8.26125 1.56501V3.04376H8.26062Z" fill="#FFD800"/>
<path d="M8.26062 3.04376V4.13064C8.26062 5.46189 10 5.87001 10 5.87001C10 5.87001 11.7394 5.46189 11.7394 4.13064V3.04376H8.26062Z" fill="#EC0017"/>
</svg>
