<svg width="20" height="20" viewBox="0 0 20 20" fill="none" xmlns="http://www.w3.org/2000/svg">
<path fill-rule="evenodd" clip-rule="evenodd" d="M10 0C13.965 0 17.39 2.30687 19.0075 5.65188L10 6.52188L0.991882 5.65188C2.61001 2.30687 6.03563 0 10 0ZM10 20C6.03563 20 2.61001 17.6931 0.991882 14.3481L10 13.4781L19.0075 14.3481C17.39 17.6931 13.965 20 10 20Z" fill="#EC0017"/>
<path d="M19.0075 5.65186H0.991875C0.35625 6.96686 0 8.44186 0 9.99998C0 11.5581 0.35625 13.0337 0.991875 14.3481H19.0075C19.6437 13.0337 20 11.5581 20 9.99998C20 8.44186 19.6437 6.96686 19.0075 5.65186Z" fill="#0054BB"/>
<circle cx="10" cy="9.99998" r="3.47813" fill="#F0F0F0"/>
</svg>
