<svg width="20" height="20" viewBox="0 0 20 20" fill="none" xmlns="http://www.w3.org/2000/svg">
<circle cx="10" cy="9.99995" r="9.69697" fill="#0054BB"/>
<path d="M11.6867 10.4212L10 8.31335L9.15698 8.73517V9.57881L7.89213 10.4218H7.04849V11.5115C8.28486 12.0115 9.15698 13.2224 9.15698 14.6382H10V13.7946L10.843 12.9509L11.6873 13.7946L12.5303 12.9509V12.1079L13.3739 10.8424L11.6867 10.4212Z" fill="#FFD800"/>
<path fill-rule="evenodd" clip-rule="evenodd" d="M11.2218 4.94055L11.0121 5.58479H10.3351L10.883 5.98298L10.6733 6.62722L11.2212 6.22843L11.7691 6.62722L11.5594 5.98298L12.1073 5.58479H11.4309L11.2218 4.94055ZM13.3297 5.57267L13.12 6.21692H12.443L12.9909 6.6151L12.7818 7.25995L13.3297 6.86176L13.8776 7.25995L13.6679 6.6157L14.2157 6.21752H13.5388L13.3297 5.57267ZM4.7715 6.84964L4.56241 6.2054L4.35211 6.84964H3.67514L4.22302 7.24722L4.01393 7.89146L4.56181 7.49388L5.10969 7.89146L4.90059 7.24722L5.44847 6.84964H4.7715ZM15.2285 6.84964L15.4376 6.2054L15.6467 6.84964H16.323L15.7757 7.24722L15.9848 7.89146L15.437 7.49388L14.8897 7.89146L15.0988 7.24722L14.5515 6.84964H15.2285ZM6.87938 6.21691L6.67029 5.57267L6.46241 6.21691H5.78484L6.33272 6.6151L6.12302 7.25934L6.6709 6.86116L7.21878 7.25934L7.00908 6.6151L7.55696 6.21691H6.87938ZM8.98787 5.58479L8.77817 4.94055L8.56847 5.58479H7.8915L8.43938 5.98298L8.23029 6.62722L8.77817 6.22843L9.32605 6.62722L9.11696 5.98298L9.66484 5.58479H8.98787Z" fill="#F0F0F0"/>
</svg>
