<svg width="20" height="20" viewBox="0 0 20 20" fill="none" xmlns="http://www.w3.org/2000/svg">
<circle cx="10" cy="10" r="10" fill="#008CFB"/>
<path fill-rule="evenodd" clip-rule="evenodd" d="M10.4313 5.67625L10 4.34813L9.56814 5.67625H8.17127L9.30127 6.4975L8.86939 7.82625L10 7.005L11.1294 7.82625L10.6975 6.4975L11.8281 5.67625H10.4313ZM15.6519 10L14.3238 10.4313V11.8281L13.5025 10.6975L12.1744 11.1294L12.995 10L12.1744 8.87L13.5025 9.30125L14.3238 8.17125V9.56813L15.6519 10ZM5.67627 9.56875L4.34814 10L5.67627 10.4313V11.8294L6.49752 10.6988L7.82627 11.1306L7.00502 10L7.82627 8.87063L6.49752 9.30188L5.67627 8.17188V9.56875ZM9.56877 14.3238L10 15.6519L10.4313 14.3238H11.8294L10.6988 13.5025L11.1306 12.1744L10 12.995L8.87064 12.1744L9.3019 13.5025L8.17189 14.3238H9.56877Z" fill="#F0F0F0"/>
</svg>
