<svg width="20" height="20" viewBox="0 0 20 20" fill="none" xmlns="http://www.w3.org/2000/svg">
<circle cx="10" cy="10" r="10" fill="#F0F0F0"/>
<path d="M5.46188 13.8406L2.92938 17.0706C4.80245 18.9491 7.34719 20.0034 10 20C14.1619 20 17.7294 17.4575 19.235 13.8406H5.46188V13.8406Z" fill="#3D6F21"/>
<path d="M2.17375 7.35498V12.6087H19.6556C19.8848 11.7581 20.0006 10.8809 20 9.99998C20 9.08436 19.8769 8.19748 19.6462 7.35498H2.17375Z" fill="#B20013"/>
<path d="M19.22 6.12313C17.705 2.52626 14.1481 8.62291e-06 10 8.62291e-06C7.34719 -0.0034785 4.80245 1.05081 2.92938 2.92938L5.43375 6.12313H19.22Z" fill="black"/>
<path d="M2.92875 2.92871C-0.97625 6.83434 -0.97625 13.1656 2.92875 17.0712L10 9.99996L2.92875 2.92871Z" fill="#0054BB"/>
<path d="M3.25688 7.51379L4.4775 9.21692L6.47438 8.58254L5.23188 10.2694L6.4525 11.9725L4.46438 11.3125L3.22188 12.9994L3.235 10.9044L1.24688 10.2438L3.24375 9.60942L3.25688 7.51379Z" fill="#FFD800"/>
</svg>
