<svg width="20" height="20" viewBox="0 0 20 20" fill="none" xmlns="http://www.w3.org/2000/svg">
<path d="M0.991875 5.65185C0.35625 6.96685 0 8.44185 0 9.99997C0 11.5581 0.35625 13.0337 0.991875 14.3481L10 15.2175L19.0075 14.3481C19.6437 13.0337 20 11.5581 20 9.99997C20 8.44185 19.6437 6.96685 19.0075 5.65185L10 4.78247L0.991875 5.65185Z" fill="black"/>
<path d="M0.9925 14.3481C2.61 17.6931 6.03563 20 10 20C13.965 20 17.39 17.6931 19.0075 14.3481H0.9925Z" fill="#3D6F21"/>
<path fill-rule="evenodd" clip-rule="evenodd" d="M7.44628 10.9901C7.85854 12.0925 8.91112 12.8239 10.0881 12.8256C10.5575 12.8262 11.0196 12.7096 11.4325 12.4862C10.0665 13.8226 7.87817 13.8066 6.53185 12.4504C5.18553 11.0942 5.18553 8.90579 6.53185 7.54958C7.87817 6.19338 10.0665 6.17737 11.4325 7.51373C10.3964 6.95536 9.12262 7.09791 8.23556 7.87151C7.3485 8.64511 7.03403 9.88764 7.44628 10.9901ZM13.1488 9.30185L12.3281 8.17123V9.56935L10.9994 9.99998L12.3275 10.4331L12.3269 11.8294L13.1481 10.6994L14.4763 11.1319L13.6556 10.0012L14.4775 8.87123L13.1488 9.30185Z" fill="#F0F0F0"/>
<path d="M0.9925 5.65187H19.0075C17.39 2.30687 13.965 0 10 0C6.03563 0 2.61 2.30687 0.9925 5.65187Z" fill="#EC0017"/>
</svg>
