<svg width="20" height="20" viewBox="0 0 20 20" fill="none" xmlns="http://www.w3.org/2000/svg">
<circle cx="10" cy="10" r="10" fill="#F0F0F0"/>
<path d="M12.6087 19.6556C16.0422 18.7244 18.7244 16.0423 19.6556 12.6088H12.6087V19.6556Z" fill="#0054BB"/>
<path d="M0.344376 12.6088C1.27527 16.0425 3.95756 18.7247 7.39125 19.6556V12.6088H0.344376Z" fill="#EC0017"/>
<path d="M12.6087 9.99999C12.6087 11.4408 11.4408 12.6087 10 12.6087C8.55923 12.6087 7.39125 11.4408 7.39125 9.99999L10 7.39124C10 7.39124 12.6087 8.55936 12.6087 9.99999Z" fill="#3D6F21"/>
<path d="M7.39125 9.99999C7.39125 8.55921 8.55923 7.39124 10 7.39124C11.4408 7.39124 12.6087 8.55921 12.6087 9.99999" fill="#0054BB"/>
<path d="M8.5325 8.69562V10.3256C8.5325 11.1361 9.18952 11.7931 10 11.7931C10.8105 11.7931 11.4675 11.1361 11.4675 10.3256V8.69562H8.5325Z" fill="#EC0017"/>
<path d="M19.6556 7.39124C18.7244 3.95775 16.0422 1.27559 12.6087 0.34436V7.39124H19.6556Z" fill="#EC0017"/>
<path d="M7.39125 0.34436C3.9577 1.27548 1.27549 3.95768 0.344376 7.39124H7.39125V0.34436Z" fill="#0054BB"/>
</svg>
