<svg width="20" height="20" viewBox="0 0 20 20" fill="none" xmlns="http://www.w3.org/2000/svg">
<circle cx="10" cy="10" r="10" fill="#F0F0F0"/>
<path d="M10 20C14.1344 20 17.6819 17.4913 19.2056 13.9131H0.795C2.3175 17.4913 5.86563 20 10 20Z" fill="#3D6F21"/>
<path d="M19.6556 7.39124H0.344375C0.12 8.22311 0 9.09749 0 9.99999C0 10.9025 0.12 11.7775 0.344375 12.6087H19.6556C19.88 11.7775 20 10.9025 20 9.99999C20 9.09749 19.88 8.22311 19.6556 7.39124Z" fill="#0054BB"/>
<path d="M10 0C5.86563 0 2.3175 2.50875 0.795 6.08687H19.2056C17.6819 2.50875 14.1344 0 10 0Z" fill="#B20013"/>
</svg>
