<svg width="20" height="20" viewBox="0 0 20 20" fill="none" xmlns="http://www.w3.org/2000/svg">
<circle cx="10" cy="10" r="10" fill="#F0F0F0"/>
<path d="M9.99999 0C6.45436 0 3.33999 1.84563 1.56436 4.62812L15.125 18.5875C18.0444 16.8419 20 13.6494 20 10C20 4.4775 15.5225 0 9.99999 0Z" fill="#FFD800"/>
<path fill-rule="evenodd" clip-rule="evenodd" d="M17.3913 3.26437C19.0119 5.04187 20 7.40562 20 10C20.0036 12.4925 19.0728 14.8958 17.3913 16.7356V3.26437ZM12.4913 18.8231L13.5388 18.8225L13.8625 17.8256L14.1875 18.8219H14.7125C15.0338 18.6497 15.3455 18.4603 15.6463 18.2544L1.74563 4.35437C1.5159 4.68958 1.30697 5.03857 1.12 5.39937L1.24313 5.77875L2.29063 5.77812L1.44375 6.39375L1.76813 7.39L0.920628 6.775L0.415004 7.1425C0.138985 8.06987 -0.00080862 9.03242 3.51828e-06 10C3.51828e-06 15.5225 4.4775 20 10 20C11.1675 20 12.2888 19.8 13.33 19.4312L12.4913 18.8231ZM2.23063 9.565L2.55375 8.56875L1.70625 7.95375L2.75375 7.95312L3.07688 6.95687L3.40125 7.95312L4.44875 7.9525L3.60188 8.56875L3.92625 9.565L3.07875 8.95L2.23063 9.565ZM4.71125 10.7425L4.38813 11.7394L5.23625 11.1231L6.08375 11.7381L5.75938 10.7419L6.60625 10.1256L5.55875 10.1262L5.23438 9.13L4.91125 10.1269L3.86375 10.1275L4.71125 10.7425ZM6.545 13.9131L6.86813 12.9162L6.02063 12.3012H7.06813L7.39125 11.3044L7.71563 12.3006L8.76313 12.3L7.91625 12.9162L8.24063 13.9125L7.39313 13.2975L6.545 13.9131ZM8.70188 16.0869L9.54875 15.4706L10.3975 16.0856L10.0731 15.0894L10.92 14.4737H9.8725L9.54813 13.4775L9.225 14.4744L8.1775 14.475L9.025 15.09L8.70188 16.0869ZM10.8594 18.2606L11.1825 17.2644L10.335 16.6494L11.3825 16.6487L11.7063 15.6519L12.0306 16.6481L13.0781 16.6475L12.2319 17.2637L12.5556 18.26L11.7088 17.645L10.8594 18.2606Z" fill="#0054BB"/>
</svg>
