<svg width="20" height="20" viewBox="0 0 20 20" fill="none" xmlns="http://www.w3.org/2000/svg">
<path d="M1.02769e-05 10C1.02769e-05 11.5581 0.35626 13.0338 0.991885 14.3481L10 14.7825L19.0075 14.3481C19.6437 13.0338 20 11.5581 20 10C20 8.4419 19.6437 6.9669 19.0075 5.6519L10 5.21753L0.991885 5.6519C0.336967 7.00771 -0.00215214 8.49432 1.02769e-05 10Z" fill="#F0F0F0"/>
<path d="M10 20C13.965 20 17.39 17.6931 19.0075 14.3481H0.991887C2.61001 17.6931 6.03563 20 10 20Z" fill="#5AA731"/>
<path d="M10.6519 9.78248V7.39123H9.34813V9.78248L7.77251 11.3581C8.24579 12.1352 9.0901 12.6093 10 12.6087C10.9099 12.6093 11.7542 12.1352 12.2275 11.3581L10.6519 9.78248Z" fill="black"/>
<path d="M10 0C6.03563 0 2.61001 2.30687 0.991887 5.65187H19.0075C17.39 2.30687 13.965 0 10 0Z" fill="#0054BB"/>
</svg>
