<svg width="20" height="20" viewBox="0 0 20 20" fill="none" xmlns="http://www.w3.org/2000/svg">
<circle cx="10" cy="10" r="10" fill="#F0F0F0"/>
<path fill-rule="evenodd" clip-rule="evenodd" d="M5.65187 19.0075C2.30687 17.39 0 13.965 0 10C0 6.03563 2.30687 2.61001 5.65187 0.991882V19.0075ZM20 10C20 6.03563 17.6931 2.61001 14.3481 0.991882V19.0075C17.6931 17.39 20 13.965 20 10ZM13.4781 10.4344L12.6088 10V9.13063L10.8694 10L11.74 8.26063H10.8694L10 6.95626L9.13062 8.26063H8.26062L9.13062 10L7.39125 9.13063V10L6.52125 10.4344L8.26062 11.3044L7.82625 12.1744H9.565V13.4788H10.4344V12.1744H12.1738L11.7394 11.3044L13.4781 10.4344Z" fill="#EC0017"/>
</svg>
