<svg width="20" height="20" viewBox="0 0 20 20" fill="none" xmlns="http://www.w3.org/2000/svg">
<circle cx="10" cy="10" r="10" fill="#3D6F21"/>
<path fill-rule="evenodd" clip-rule="evenodd" d="M6.53312 13.82C6.32687 13.5488 6.1525 13.2531 6.01437 12.9369H13.9856C13.8475 13.2531 13.6731 13.5481 13.4669 13.82H6.53312ZM12.6256 14.6625C11.8962 15.2169 10.9862 15.5456 10 15.5456C9.01312 15.5456 8.10375 15.2169 7.37437 14.6625H12.6256Z" fill="#F0F0F0"/>
<path d="M11.7394 9.58313C11.4931 9.58313 11.2606 9.63188 11.0444 9.71001C11.1625 9.44563 11.2425 9.15188 11.2425 8.83751C11.2425 7.59563 9.99999 6.66376 9.99999 6.66376C9.99999 6.66376 8.75812 7.59563 8.75812 8.83751C8.75812 9.15126 8.83749 9.44563 8.95624 9.71001C8.73937 9.63188 8.50687 9.58313 8.26124 9.58313C7.01937 9.58313 6.08749 10.825 6.08749 10.825C6.08749 10.825 7.01937 12.0675 8.26124 12.0675C8.98999 12.0675 9.61062 11.64 10.0006 11.2869C10.39 11.64 11.0112 12.0675 11.74 12.0675C12.9819 12.0675 13.9137 10.825 13.9137 10.825C13.9137 10.825 12.9812 9.58313 11.7394 9.58313Z" fill="#F0F0F0"/>
<path fill-rule="evenodd" clip-rule="evenodd" d="M10.2569 4.70315L10 3.91315L9.74312 4.70252H8.9125L9.58438 5.19065L9.32813 5.98065L10 5.49252L10.6719 5.98127L10.4156 5.19127L11.0875 4.70315H10.2569ZM12.6637 5.73877L13.1581 5.2944L13.0194 5.94377L13.5962 6.27565L12.9356 6.34502L12.7969 6.99502L12.5262 6.38815L11.8656 6.45752L12.3587 6.01315L12.0888 5.40627L12.6637 5.73877ZM15.4688 7.60565L14.8194 7.74377L14.4875 7.16877L14.4181 7.8294L13.7687 7.96752L14.375 8.23752L14.3056 8.89815L14.75 8.4044L15.3569 8.6744L15.025 8.0994L15.4688 7.60565ZM4.53125 7.60565L5.18125 7.74377L5.51375 7.16877L5.58312 7.8294L6.23312 7.96752L5.625 8.23752L5.69437 8.89815L5.25 8.4044L4.64312 8.6744L4.97562 8.0994L4.53125 7.60565ZM6.8425 5.2944L7.33625 5.73877L7.91125 5.40627L7.64125 6.01315L8.135 6.45752L7.47438 6.38815L7.20375 6.99502L7.06563 6.34502L6.405 6.27565L6.98 5.94315L6.8425 5.2944Z" fill="#FFD800"/>
</svg>
