<svg width="20" height="20" viewBox="0 0 20 20" fill="none" xmlns="http://www.w3.org/2000/svg">
<path d="M9.99999 0C15.5225 0 20 4.4775 20 10C20 15.5225 15.5225 20 9.99999 20C9.99999 19.5656 8.69562 10 8.69562 10L9.99999 0Z" fill="#F0F0F0"/>
<path fill-rule="evenodd" clip-rule="evenodd" d="M15.7088 11.1882L13.8294 8.70193L12.7881 9.48755L11.7394 8.10005L12.7794 7.3138L13.4731 6.78943L16.4025 10.6644C17.0081 10.4711 17.6649 10.7427 17.957 11.3073C18.2491 11.8719 18.0914 12.5649 17.5838 12.9476C17.0772 13.3327 16.3666 13.2959 15.9025 12.8605C15.4384 12.4251 15.3565 11.7182 15.7088 11.1882ZM16.9662 11.5063C16.8232 11.4459 16.6588 11.4664 16.535 11.5601C16.3436 11.7049 16.3058 11.9774 16.4506 12.1688C16.5954 12.3602 16.868 12.398 17.0594 12.2532C17.1832 12.1595 17.2476 12.0069 17.2284 11.8528C17.2092 11.6988 17.1093 11.5667 16.9662 11.5063Z" fill="#ACABB2"/>
<path fill-rule="evenodd" clip-rule="evenodd" d="M18.1019 8.09932L17.0525 9.48682L16.0113 8.7012L14.1319 11.1874C14.482 11.7176 14.3993 12.4228 13.936 12.8575C13.4727 13.2922 12.7637 13.3299 12.2569 12.9468C11.7516 12.563 11.5957 11.8714 11.8873 11.3079C12.1789 10.7443 12.8336 10.4722 13.4387 10.6631L16.3675 6.7887L17.0606 7.31307L18.1019 8.09932ZM12.9904 12.3388C13.1445 12.3578 13.2971 12.2932 13.3906 12.1693C13.5353 11.9777 13.4972 11.7052 13.3056 11.5606C13.1141 11.4159 12.8415 11.454 12.6969 11.6456C12.6033 11.7695 12.583 11.9339 12.6435 12.0769C12.7041 12.2199 12.8363 12.3197 12.9904 12.3388Z" fill="#FFD800"/>
<path d="M10 20C4.4775 20 0 15.5225 0 10C0 4.4775 4.4775 0 10 0" fill="#FFD800"/>
</svg>
