<svg width="20" height="20" viewBox="0 0 20 20" fill="none" xmlns="http://www.w3.org/2000/svg">
<circle cx="10" cy="10" r="10" fill="#F0F0F0"/>
<path d="M10 20C14.2994 20 17.965 17.2863 19.3781 13.4781H0.621887C2.03501 17.2863 5.70064 20 10 20Z" fill="black"/>
<path fill-rule="evenodd" clip-rule="evenodd" d="M15.2175 11.3044V7.39124H13.9131V11.3044H13.4787V9.99999H12.1744V12.6087H16.0875V11.3044H15.2175ZM7.60874 9.34811H5.68062C5.77988 8.96487 6.12536 8.69696 6.52124 8.69624V7.39186C5.32129 7.39324 4.34887 8.36565 4.34749 9.56561V10.6525H7.60812C7.72812 10.6525 7.82562 10.75 7.82562 10.87V11.305H3.47812V12.6094H9.12999V10.87C9.12965 10.0299 8.44887 9.3488 7.60874 9.34811ZM10.8694 7.39124V11.3044H11.74V12.6087H9.56562V7.39124H10.8694Z" fill="#3D6F21"/>
<path d="M10 0C5.70064 0 2.03501 2.71375 0.621887 6.52188H19.3781C17.965 2.71375 14.2994 0 10 0Z" fill="#B20013"/>
</svg>
