<svg width="20" height="20" viewBox="0 0 20 20" fill="none" xmlns="http://www.w3.org/2000/svg">
<circle cx="10" cy="10" r="10" fill="#F0F0F0"/>
<path fill-rule="evenodd" clip-rule="evenodd" d="M18.5325 4.78246H9.56499V2.17371H16.225C17.1401 2.90243 17.9209 3.78525 18.5325 4.78246ZM9.56499 9.99996H20C20 9.09746 19.88 8.22308 19.6556 7.39121H9.56499V9.99996ZM18.5331 15.2175H1.46811C0.970539 14.4062 0.592091 13.5276 0.34436 12.6087H19.6562C19.4083 13.5274 19.0301 14.4059 18.5331 15.2175ZM16.225 17.8256C14.4572 19.2364 12.2617 20.0033 9.99998 20C7.73824 20.0033 5.54278 19.2364 3.77498 17.8256H16.225Z" fill="#EC0017"/>
<path d="M10 10V0C4.4775 0 0 4.4775 0 10H10Z" fill="#0054BB"/>
<path fill-rule="evenodd" clip-rule="evenodd" d="M4.33423 6.95431C4.6959 7.92001 5.61881 8.55994 6.65001 8.56004C7.06067 8.56035 7.46494 8.45832 7.82626 8.26316C6.95048 9.11865 5.64738 9.36615 4.51892 8.89134C3.39047 8.41652 2.65633 7.31182 2.65564 6.08754C2.65608 4.86315 3.39013 3.75821 4.51863 3.28324C5.64714 2.80826 6.9504 3.05572 7.82626 3.91129C6.91911 3.42094 5.80291 3.54492 5.02547 4.22239C4.24804 4.89987 3.97256 5.98862 4.33423 6.95431ZM7.78564 5.26629L7.34626 4.34816L6.90751 5.26566L5.91626 5.03691L6.36001 5.95254L5.56251 6.58504L6.55501 6.80941L6.55251 7.82691L7.34626 7.19004L8.14064 7.82691L8.13814 6.80941L9.13064 6.58566L8.33314 5.95316L8.77689 5.03754L7.78564 5.26629Z" fill="#FFD800"/>
</svg>
