<svg width="20" height="20" viewBox="0 0 20 20" fill="none" xmlns="http://www.w3.org/2000/svg">
<circle cx="10" cy="10" r="10" fill="#FFD800"/>
<path d="M2.92875 17.0713C3.34813 17.49 3.79625 17.865 4.26562 18.1938L18.1938 4.26565C17.5222 3.30991 16.6901 2.4778 15.7344 1.80627L1.80625 15.735C2.13563 16.2038 2.50938 16.6519 2.92875 17.0713Z" fill="black"/>
<path d="M2.9288 2.92874C-0.225575 6.08374 -0.831825 10.8212 1.11068 14.585L14.585 1.11062C10.8213 -0.831881 6.0838 -0.225631 2.9288 2.92874Z" fill="#5AA731"/>
<path d="M17.0706 17.0713C20.2256 13.9157 20.8313 9.17816 18.8888 5.41504L5.415 18.8894C9.17813 20.8313 13.9162 20.2257 17.0706 17.0713Z" fill="#008CFB"/>
</svg>
