<svg width="20" height="20" viewBox="0 0 20 20" fill="none" xmlns="http://www.w3.org/2000/svg">
<path d="M1.70517e-05 9.99999C1.70517e-05 10.685 0.068767 11.3537 0.200017 12L10 12.6087L19.8 12C19.9313 11.3537 20 10.685 20 9.99999C20 9.31499 19.9313 8.64624 19.8 7.99999L10 7.39124L0.200017 7.99999C0.0666179 8.65829 -0.000384361 9.32832 1.70517e-05 9.99999Z" fill="#0054BB"/>
<path d="M19.8 12H0.200012C1.12689 16.5644 5.16188 20 10 20C14.8375 20 18.8731 16.5644 19.8 12Z" fill="#F0F0F0"/>
<path d="M0.200012 7.99999H19.8C18.8731 3.43562 14.8375 0 10 0C5.16188 0 1.12689 3.43562 0.200012 7.99999Z" fill="black"/>
<path d="M14.3481 7.99999H5.65188L7.42813 7.16437L6.48251 5.44375L8.41188 5.8125L8.65625 3.86375L10 5.2975L11.3438 3.86437L11.5881 5.8125L13.5175 5.44375L12.5713 7.16437L14.3481 7.99999Z" fill="#FFD800"/>
<path fill-rule="evenodd" clip-rule="evenodd" d="M10 20C4.47751 20 1.16267e-05 15.5225 1.16267e-05 9.99999C-0.00329508 7.83557 0.698816 5.72901 2.00001 3.99937L10 20ZM20 9.99999C20 15.5225 15.5225 20 10 20L18.0006 3.99937C19.2556 5.67125 20 7.74812 20 9.99999Z" fill="#B20013"/>
</svg>
