<svg width="20" height="20" viewBox="0 0 20 20" fill="none" xmlns="http://www.w3.org/2000/svg">
<circle cx="10" cy="10" r="10" fill="#F0F0F0"/>
<path fill-rule="evenodd" clip-rule="evenodd" d="M10 0C15.5225 0 20 4.4775 20 10C20.0006 10.881 19.8848 11.7581 19.6556 12.6087H0.344377C0.115177 11.7581 -0.00061673 10.881 2.4702e-06 10C2.4702e-06 4.4775 4.4775 0 10 0ZM17.5806 16.5219C15.7469 18.6512 13.0312 20 10 20C7.08651 20.003 4.31724 18.7324 2.41938 16.5219H17.5806Z" fill="#0054BB"/>
<path d="M0.795003 13.9131C0.987503 14.3669 1.21313 14.8019 1.46813 15.2175H18.5331C18.7869 14.8019 19.0131 14.3662 19.2056 13.9131H0.795003Z" fill="#EC0017"/>
<path fill-rule="evenodd" clip-rule="evenodd" d="M7.31 11.1506L7.14813 10.6519L6.98625 11.1506H6.4625L6.88625 11.4588L6.72438 11.9569L7.14813 11.6488L7.57188 11.9569L7.41 11.4588L7.83375 11.1506H7.31ZM8.86125 11.8031L9.02313 11.3044L9.185 11.8031H9.70875L9.285 12.1106L9.44688 12.6088L9.02313 12.3013L8.59938 12.6088L8.76125 12.1106L8.3375 11.8031H8.86125ZM3.42625 13.3556H3.95L4.11188 12.8575L4.27375 13.3556H4.7975L4.37375 13.6638L4.53563 14.1625L4.1125 13.8544L3.68875 14.1619L3.85063 13.6638L3.42625 13.3556ZM10.3444 13.3556H10.8688L10.4444 13.6638L10.6069 14.1619L10.1831 13.8544L9.75938 14.1625L9.92125 13.6638L9.4975 13.3556H10.0213L10.1831 12.8575L10.3444 13.3556ZM4.1125 14.9681L4.27438 15.4663H4.79813L4.37438 15.7744L4.53625 16.2725L4.1125 15.9644L3.68875 16.2725L3.85063 15.7744L3.42688 15.4663H3.95063L4.1125 14.9681ZM10.0206 15.4663L10.1825 14.9681L10.3438 15.4663H10.8681L10.4438 15.7744L10.6063 16.2725L10.1825 15.9644L9.75875 16.2725L9.92063 15.7744L9.49688 15.4663H10.0206ZM4.84813 17.7306L5.01 17.2325L4.58625 16.925H5.11L5.27188 16.4269L5.43375 16.925H5.9575L5.53375 17.2325L5.69563 17.7306L5.27188 17.4231L4.84813 17.7306ZM9.285 17.2325L9.44688 17.7306L9.02313 17.4231L8.59938 17.7306L8.76125 17.2325L8.3375 16.925H8.86125L9.02313 16.4269L9.185 16.925H9.70875L9.285 17.2325ZM7.31 17.6725L7.14813 17.1744L6.98625 17.6725H6.4625L6.88625 17.98L6.72438 18.4788L7.14813 18.1706L7.57188 18.4788L7.41 17.98L7.83375 17.6725H7.31ZM5.27188 11.3044L5.43375 11.8031H5.9575L5.53375 12.1106L5.69563 12.6088L5.27188 12.3013L4.84813 12.6088L5.01 12.1106L4.58625 11.8031H5.11L5.27188 11.3044Z" fill="#FFD800"/>
</svg>
