<svg width="20" height="20" viewBox="0 0 20 20" fill="none" xmlns="http://www.w3.org/2000/svg">
<circle cx="10" cy="10" r="10" fill="#F0F0F0"/>
<path d="M14.0475 11.3043L14.695 13.2968H16.7906L15.0956 14.5287L15.7425 16.5212L14.0475 15.2893L12.3525 16.5212L12.9994 14.5287L11.3044 13.2968H13.4L14.0475 11.3043Z" fill="#EC0017"/>
<path d="M0 10C0 15.5225 4.4775 20 10 20V10H0Z" fill="#0054BB"/>
<path d="M5.9525 3.47815L6.6 5.47065H8.69562L7.00062 6.70252L7.64812 8.69502L5.95312 7.46315L4.25812 8.69502L4.90562 6.70252L3.21 5.47127H5.30562L5.9525 3.47815Z" fill="#0054BB"/>
<path d="M10 0C15.5225 0 20 4.4775 20 10H10V0Z" fill="#EC0017"/>
</svg>
