<svg width="20" height="20" viewBox="0 0 20 20" fill="none" xmlns="http://www.w3.org/2000/svg">
<path d="M5.40395e-06 10C5.40395e-06 11.2231 0.220005 12.395 0.62188 13.4781L10 13.9131L19.3781 13.4788C19.78 12.395 20 11.2231 20 10C20 8.77688 19.78 7.60501 19.3781 6.52188L10 6.08688L0.62188 6.52188C0.209362 7.63504 -0.00122999 8.81287 5.40395e-06 10Z" fill="black"/>
<path d="M19.3781 13.4781H0.621887C2.03501 17.2862 5.70064 20 10 20C14.2994 20 17.965 17.2862 19.3781 13.4781V13.4781Z" fill="#F0F0F0"/>
<path d="M10 0C5.70064 0 2.03501 2.71375 0.621887 6.52188H19.3781C17.965 2.71375 14.2994 0 10 0Z" fill="#0054BB"/>
</svg>
