<svg width="20" height="20" viewBox="0 0 20 20" fill="none" xmlns="http://www.w3.org/2000/svg">
<circle cx="10" cy="10" r="10" fill="#F0F0F0"/>
<path fill-rule="evenodd" clip-rule="evenodd" d="M10 0C12.2913 0 14.4019 0.77125 16.0881 2.0675L10 8.155L3.91187 2.0675C5.59812 0.77125 7.70875 0 10 0ZM0 10C0 7.70875 0.77125 5.59812 2.0675 3.91187L8.155 10L2.0675 16.0881C0.77125 14.4019 0 12.2913 0 10ZM3.91187 17.9325C5.59812 19.2288 7.70875 20 10 20C12.2913 20 14.4019 19.2288 16.0881 17.9325L10 11.8444L3.91187 17.9325ZM20 10C20 12.2913 19.2288 14.4019 17.9325 16.0881L11.8444 10L17.9325 3.91187C19.2288 5.59812 20 7.70875 20 10Z" fill="#0054BB"/>
</svg>
