<svg width="20" height="20" viewBox="0 0 20 20" fill="none" xmlns="http://www.w3.org/2000/svg">
<circle cx="10" cy="10" r="10" fill="#F0F0F0"/>
<mask id="mask0_136_148" style="mask-type:luminance" maskUnits="userSpaceOnUse" x="0" y="0" width="20" height="20">
<circle cx="10" cy="10" r="10" fill="white"/>
</mask>
<g mask="url(#mask0_136_148)">
<path d="M9.45999 19.9619C9.73757 19.9869 10.0188 20 10.303 20C14.7836 20 18.5533 16.8663 19.6661 12.6088H9.45999L9.45999 19.9619Z" fill="#EC0017"/>
<path d="M0.140015 12.6088C0.824623 15.0452 2.32143 17.1973 4.40002 18.7338V12.6088H0.140015V12.6088Z" fill="#EC0017"/>
<path d="M4.40059 1.26624C2.32168 2.80244 0.824794 4.95465 0.140594 7.39124H4.40059V1.26624V1.26624Z" fill="#EC0017"/>
<path d="M19.6661 7.39125C18.5533 3.13375 14.7836 0 10.303 0C10.0188 0 9.73757 0.013125 9.45999 0.038125V7.39125H19.6661Z" fill="#EC0017"/>
<path d="M8.19515 8.69562L8.19454 0C7.29818 0.205 6.44848 0.5375 5.66485 0.978125L5.66545 8.69562H0.0418735C-0.0676281 9.56154 -0.0676281 10.4385 0.0418735 11.3044H5.66485V19.0225C6.4593 19.4694 7.31093 19.7985 8.19454 20V11.3044H19.9176C20.0272 10.4385 20.0274 9.56157 19.9182 8.69562H8.19515Z" fill="#0054BB"/>
</g>
</svg>
