<svg width="20" height="20" viewBox="0 0 20 20" fill="none" xmlns="http://www.w3.org/2000/svg">
<path d="M1.21564 14.7825L10 15.6518L18.7844 14.7825C19.5844 13.3156 20.0025 11.6709 20 9.99998L10 9.1306L1.59065e-05 9.99998C1.59065e-05 11.7319 0.44064 13.3618 1.21564 14.7825Z" fill="#FFD800"/>
<path d="M10 19.9999C13.79 19.9999 17.0881 17.8906 18.7844 14.7825H1.21564C2.91189 17.8906 6.21001 19.9999 10 19.9999Z" fill="#5AA731"/>
<path d="M1.21564 5.21749L10 6.08687L18.7844 5.21687C17.0881 2.10937 13.79 0 10 0C6.21001 0 2.91189 2.10937 1.21564 5.21749Z" fill="#EC0017"/>
<path d="M1.21563 5.21752C0.415533 6.68442 -0.00251426 8.3291 1.13763e-05 10H20C20.0025 8.3291 19.5845 6.68442 18.7844 5.21752H1.21563V5.21752Z" fill="#0054BB"/>
</svg>
