<svg width="20" height="20" viewBox="0 0 20 20" fill="none" xmlns="http://www.w3.org/2000/svg">
<path d="M14.3481 0.991875C13.0338 0.35625 11.5581 0 10 0C8.44188 0 6.96688 0.35625 5.65188 0.991875L4.7825 10L5.65188 19.0075C6.96688 19.6437 8.44188 20 10 20C11.5581 20 13.0338 19.6437 14.3481 19.0075L15.2175 10L14.3481 0.991875Z" fill="#FFD800"/>
<path d="M13.4781 7.86813H11.0869C11.0869 7.26786 10.6003 6.78125 10 6.78125C9.39974 6.78125 8.91313 7.26786 8.91313 7.86813H6.52188C6.52188 8.45875 7.03688 8.93813 7.62813 8.93813H7.59251C7.59251 9.52938 8.07188 10.0081 8.66251 10.0081C8.66251 10.5313 9.03876 10.9669 9.53501 11.0594L8.69126 12.9638C9.53051 13.3044 10.4695 13.3044 11.3088 12.9638L10.465 11.0594C10.9709 10.9646 11.3376 10.5229 11.3375 10.0081C11.9281 10.0081 12.4081 9.52875 12.4081 8.93813H12.3719C12.9631 8.93813 13.4781 8.45875 13.4781 7.86813Z" fill="#FF9100"/>
<path d="M10 9.34814L8.58688 10V11.3044L10 12.1744L11.4131 11.3044V10L10 9.34814Z" fill="#0054BB"/>
<path d="M8.58688 8.69568H11.4125V10.0001H8.58688V8.69568Z" fill="#EC0017"/>
<path d="M14.3481 0.992554V19.0076C17.6931 17.3901 20 13.9651 20 10.0001C20 6.03568 17.6931 2.61005 14.3481 0.992554Z" fill="#EC0017"/>
<path d="M5.65187 0.992554C2.30687 2.61005 0 6.03568 0 10.0001C0 13.9651 2.30687 17.3901 5.65187 19.0076V0.992554Z" fill="#0054BB"/>
</svg>
