<svg width="20" height="20" viewBox="0 0 20 20" fill="none" xmlns="http://www.w3.org/2000/svg">
<circle cx="10" cy="10" r="10" fill="#F0F0F0"/>
<path d="M19.3781 6.52185H0.621875C0.22 7.60498 0 8.77685 0 9.99998C0 11.2231 0.22 12.395 0.621875 13.4781H19.3781C19.78 12.395 20 11.2231 20 9.99998C20 8.77685 19.78 7.60498 19.3781 6.52185Z" fill="#0054BB"/>
<path fill-rule="evenodd" clip-rule="evenodd" d="M2.41937 3.47813C4.25312 1.34876 6.96875 5.40432e-06 10 5.40432e-06C12.9135 -0.00302386 15.6828 1.26757 17.5806 3.47813H2.41937ZM10 20C6.96875 20 4.25312 18.6513 2.41937 16.5219H17.5806C15.7469 18.6513 13.0312 20 10 20Z" fill="#EC0017"/>
</svg>
