<svg width="20" height="20" viewBox="0 0 20 20" fill="none" xmlns="http://www.w3.org/2000/svg">
<circle cx="10" cy="10" r="10" fill="#EC0017"/>
<path fill-rule="evenodd" clip-rule="evenodd" d="M4.70665 10.9905C5.11953 12.0936 6.1734 12.8249 7.35126 12.8256C7.82066 12.8262 8.28278 12.7096 8.69564 12.4862C7.32962 13.8226 5.1413 13.8066 3.79499 12.4504C2.44867 11.0942 2.44867 8.90579 3.79499 7.54958C5.1413 6.19338 7.32962 6.17737 8.69564 7.51373C7.65924 6.95404 6.38437 7.09596 5.49643 7.86987C4.60849 8.64378 4.29376 9.88732 4.70665 10.9905ZM10.4113 9.30185L9.59064 8.17123L9.59001 9.56935L8.26126 9.99998L9.58939 10.4331L9.58876 11.8294L10.4106 10.6994L11.7388 11.1319L10.9181 10.0012L11.7394 8.87123L10.4113 9.30185Z" fill="#F0F0F0"/>
</svg>
