<svg width="20" height="20" viewBox="0 0 20 20" fill="none" xmlns="http://www.w3.org/2000/svg">
<circle cx="10" cy="10" r="10" fill="#F0F0F0"/>
<path fill-rule="evenodd" clip-rule="evenodd" d="M12.5 0.381099C12.5187 0.364018 12.5374 0.346939 12.5563 0.33C13.71 0.634375 14.7813 1.13937 15.7319 1.805C15.5525 1.96062 15.35 2.095 15 2.095C14.583 2.095 14.3745 1.90439 14.1662 1.71385C13.958 1.52345 13.7499 1.33312 13.3338 1.33312C12.917 1.33312 12.7085 1.52367 12.5001 1.71418C12.2917 1.90477 12.0832 2.09531 11.6663 2.095L10 1.33312C9.58281 1.33312 9.37444 1.52381 9.16607 1.71449C9.15905 1.72091 9.15204 1.72734 9.14501 1.73375V0.400625C9.15235 0.393943 9.15968 0.387254 9.16701 0.380565C9.37565 0.190155 9.584 0 10 0C10.4166 0 10.6249 0.190469 10.8331 0.380937C11.0414 0.571406 11.2497 0.761875 11.6663 0.761875C12.0832 0.761875 12.2917 0.571366 12.5 0.381099ZM16.7375 2.61062C16.7144 2.60937 16.6906 2.60875 16.6663 2.60875C16.2497 2.60875 16.0414 2.79922 15.8331 2.98969C15.6249 3.18016 15.4166 3.37063 15 3.37063C14.583 3.37063 14.3745 3.18001 14.1662 2.98947C13.958 2.79908 13.7499 2.60875 13.3338 2.60875C12.9169 2.60875 12.7084 2.79922 12.5 2.98969C12.2916 3.18016 12.0831 3.37063 11.6663 3.37063L10 2.60875C9.58406 2.60875 9.37584 2.79885 9.16753 2.98902C9.15048 3.00459 9.13343 3.02016 9.11626 3.03562V4.36875L9.16585 4.32358C9.37418 4.13301 9.58245 3.9425 10 3.9425L11.6669 4.70438C12.0834 4.70406 12.2916 4.51367 12.4999 4.32332C12.7082 4.13289 12.9165 3.9425 13.3331 3.9425C13.7496 3.9425 13.9579 4.13274 14.1662 4.32302C14.3746 4.51337 14.5831 4.70375 15 4.70375C15.4166 4.70375 15.6249 4.51328 15.8331 4.32281C16.0414 4.13234 16.2497 3.94187 16.6663 3.94187C17.0831 3.94219 17.2916 4.13265 17.4999 4.32304C17.7083 4.51343 17.9166 4.70375 18.3331 4.70375C18.3844 4.70375 18.4325 4.70063 18.4775 4.695C17.9938 3.92313 17.4081 3.22187 16.7375 2.61062ZM18.3331 5.97937C18.6644 5.97937 18.8644 5.85875 19.0369 5.71375C19.1894 6.03562 19.3263 6.3675 19.4444 6.70687C19.3418 6.77253 19.2545 6.85217 19.1672 6.93182C18.9586 7.12212 18.7499 7.3125 18.3331 7.3125C17.9167 7.3125 17.7084 7.1221 17.5 6.93167C17.2917 6.74116 17.0832 6.55062 16.6663 6.55062C16.2497 6.55062 16.0414 6.74109 15.8331 6.93156C15.6249 7.12203 15.4166 7.3125 15 7.3125C14.583 7.3125 14.3745 7.12189 14.1662 6.93135C13.958 6.74095 13.7499 6.55062 13.3338 6.55062L11.6663 7.3125L10 6.55062C9.58344 6.55062 9.37518 6.74076 9.16685 6.93095C9.14982 6.9465 9.13278 6.96205 9.11564 6.9775V5.64437C9.13278 5.62893 9.14982 5.61338 9.16685 5.59783C9.37518 5.40764 9.58344 5.2175 10 5.2175C10.4167 5.2175 10.6251 5.40804 10.8335 5.59854C11.0418 5.78898 11.2501 5.97937 11.6663 5.97937C12.0831 5.97937 12.2916 5.78891 12.5 5.59844C12.7085 5.40797 12.9169 5.2175 13.3338 5.2175C13.7499 5.2175 13.958 5.40783 14.1662 5.59822C14.3745 5.78876 14.583 5.97937 15 5.97937C15.4166 5.97937 15.6249 5.78891 15.8331 5.59844C16.0414 5.40797 16.2497 5.2175 16.6663 5.2175C17.0832 5.2175 17.2917 5.40804 17.5 5.59854C17.7084 5.78898 17.9167 5.97937 18.3331 5.97937ZM19.7675 7.84938C19.498 7.9055 19.3325 8.05652 19.167 8.20751C18.9585 8.39785 18.75 8.58813 18.3331 8.58813C17.9167 8.58813 17.7084 8.39773 17.5 8.20729C17.2917 8.01679 17.0832 7.82625 16.6663 7.82625C16.2497 7.82625 16.0414 8.01672 15.8331 8.20719C15.6249 8.39766 15.4166 8.58813 15 8.58813C14.583 8.58813 14.3745 8.39751 14.1662 8.20697C13.958 8.01658 13.7499 7.82625 13.3338 7.82625C12.9169 7.82625 12.7085 8.01672 12.5 8.20719C12.2916 8.39766 12.0831 8.58813 11.6663 8.58813C11.2497 8.58813 11.0414 8.39766 10.8331 8.20719C10.6249 8.01672 10.4166 7.82625 10 7.82625C9.58241 7.82625 9.37414 8.0168 9.16529 8.20789L9.11564 8.25313V9.58625L9.16529 9.54101C9.37414 9.34993 9.58241 9.15938 10 9.15938L11.6663 9.92125C12.0831 9.92125 12.2916 9.73078 12.5 9.54031C12.7085 9.34984 12.9169 9.15938 13.3338 9.15938C13.7499 9.15938 13.958 9.3497 14.1662 9.5401C14.3745 9.73064 14.583 9.92125 15 9.92125C15.4166 9.92125 15.6249 9.73078 15.8331 9.54031C16.0414 9.34984 16.2497 9.15938 16.6663 9.15938C17.0832 9.15938 17.2917 9.34992 17.5 9.54042C17.7084 9.73085 17.9167 9.92125 18.3331 9.92125C18.7497 9.92125 18.9582 9.73097 19.1669 9.54062C19.3442 9.37882 19.5216 9.21696 19.8269 9.17188C19.8694 9.17188 19.9175 9.17188 19.9663 9.17125C19.9288 8.72125 19.8619 8.28 19.7675 7.84938ZM17.5 10.8157C17.7084 11.0063 17.9167 11.1969 18.3331 11.1969C18.7495 11.1969 18.9579 11.0066 19.1664 10.8163C19.3729 10.6279 19.5795 10.4394 19.9881 10.4356C19.965 10.8925 19.9106 11.3419 19.8275 11.7812C19.5222 11.8261 19.3447 11.9878 19.1673 12.1496C18.9588 12.3398 18.7502 12.53 18.3338 12.53C17.9173 12.53 17.709 12.3396 17.5007 12.1492C17.2923 11.9587 17.0838 11.7681 16.6669 11.7681C16.2508 11.7681 16.0427 11.9584 15.8345 12.1488C15.6261 12.3394 15.4177 12.53 15.0006 12.53C14.5841 12.53 14.3758 12.3395 14.1675 12.1491C13.9592 11.9586 13.7509 11.7681 13.3344 11.7681C12.9174 11.7681 12.709 11.9587 12.5006 12.1492C12.2923 12.3396 12.084 12.53 11.6675 12.53L10.0006 11.7681C9.58368 11.7681 9.37525 11.9587 9.16685 12.1492C8.95853 12.3396 8.75025 12.53 8.33376 12.53C7.91681 12.53 7.70837 12.3395 7.49997 12.149C7.29165 11.9585 7.08337 11.7681 6.66689 11.7681C5.83314 11.7681 5.00001 12.53 5.00001 12.53L3.33314 11.7681C2.91682 11.7681 2.70853 11.9584 2.50022 12.1487C2.29166 12.3392 2.08307 12.5297 1.66564 12.5294C1.24921 12.5294 1.04084 12.3392 0.832435 12.149C0.655169 11.9872 0.477879 11.8254 0.172512 11.7806C0.0900122 11.3412 0.0356372 10.8919 0.0125122 10.435C0.420697 10.439 0.62693 10.6276 0.833116 10.816C1.04145 11.0065 1.24974 11.1969 1.66626 11.1969C2.08322 11.1969 2.29165 11.0062 2.50005 10.8155C2.70837 10.6249 2.91665 10.4344 3.33314 10.4344C4.16689 10.4344 5.00001 11.1969 5.00001 11.1969L6.66689 10.4344C7.08345 10.4344 7.29173 10.625 7.50001 10.8156C7.70829 11.0062 7.91657 11.1969 8.33314 11.1969C8.75009 11.1969 8.95853 11.0062 9.16692 10.8155C9.37525 10.6249 9.58353 10.4344 10 10.4344C10.4166 10.4344 10.6249 10.625 10.8331 10.8156C11.0414 11.0062 11.2497 11.1969 11.6663 11.1969C12.0831 11.1969 12.2916 11.0062 12.5 10.8156C12.7084 10.625 12.9169 10.4344 13.3338 10.4344C13.7499 10.4344 13.958 10.6249 14.1662 10.8154C14.3745 11.0061 14.583 11.1969 15 11.1969C15.4166 11.1969 15.6249 11.0062 15.8331 10.8156C16.0414 10.625 16.2497 10.4344 16.6663 10.4344C17.0832 10.4344 17.2917 10.6251 17.5 10.8157ZM16.6663 13.0431C16.2497 13.0431 16.0414 13.2338 15.8331 13.4244C15.6249 13.615 15.4166 13.8056 15 13.8056C14.583 13.8056 14.3745 13.6149 14.1662 13.4242C13.958 13.2336 13.7499 13.0431 13.3338 13.0431C12.9169 13.0431 12.7085 13.2338 12.5 13.4244C12.2916 13.615 12.0831 13.8056 11.6663 13.8056L10 13.0431C9.58353 13.0431 9.37525 13.2337 9.16693 13.4243C8.95853 13.6149 8.75009 13.8056 8.33314 13.8056C7.91657 13.8056 7.70829 13.615 7.50001 13.4244C7.29173 13.2338 7.08345 13.0431 6.66689 13.0431L5.00001 13.8056C5.00001 13.8056 4.16689 13.0431 3.33314 13.0431C2.91665 13.0431 2.70837 13.2337 2.50005 13.4243C2.29165 13.6149 2.08322 13.8056 1.66626 13.8056C1.24936 13.8056 1.04067 13.615 0.831953 13.4244C0.733408 13.3343 0.634859 13.2443 0.514387 13.1744C0.741887 13.855 1.04126 14.5025 1.40189 15.1087C1.48001 15.1281 1.56689 15.1394 1.66564 15.1394C2.08212 15.1394 2.2904 14.9488 2.49872 14.7582C2.70712 14.5676 2.91556 14.3769 3.33251 14.3769L5.00001 15.1394C5.00001 15.1394 5.83314 14.3769 6.66689 14.3769C7.08376 14.3769 7.29204 14.5675 7.50033 14.7581C7.70861 14.9487 7.91689 15.1394 8.33376 15.1394C8.75025 15.1394 8.95853 14.9488 9.16685 14.7582C9.37525 14.5676 9.58368 14.3769 10.0006 14.3769L11.6675 15.1394C12.0845 15.1394 12.2929 14.9487 12.5013 14.758C12.7096 14.5674 12.9179 14.3769 13.3344 14.3769C13.7509 14.3769 13.9592 14.5674 14.1675 14.758C14.3759 14.9487 14.5843 15.1394 15.0013 15.1394C15.4178 15.1394 15.6261 14.9487 15.8344 14.7581C16.0427 14.5675 16.251 14.3769 16.6675 14.3769C17.0845 14.3769 17.2929 14.5676 17.5013 14.7582C17.7096 14.9488 17.9179 15.1394 18.3344 15.1394C18.4331 15.1394 18.5206 15.1281 18.5988 15.1087C18.96 14.5025 19.2594 13.855 19.4863 13.175C19.3653 13.2449 19.2665 13.3351 19.1678 13.4253C18.9594 13.6155 18.7512 13.8056 18.3344 13.8056C17.9171 13.8056 17.7085 13.6149 17.5 13.4243C17.2915 13.2337 17.0831 13.0431 16.6663 13.0431ZM14.1662 16.0329C14.3745 16.2236 14.583 16.4144 15 16.4144C15.4164 16.4144 15.6247 16.2239 15.8331 16.0333C16.0416 15.8426 16.2502 15.6519 16.6675 15.6519C17.0841 15.6519 17.2927 15.8424 17.5012 16.0329C17.5927 16.1165 17.6841 16.2 17.7931 16.2675C17.5688 16.545 17.3306 16.8112 17.0788 17.0637C16.9663 17.0156 16.8338 16.985 16.6675 16.985C16.2509 16.985 16.0427 17.1756 15.8344 17.3662C15.6261 17.5569 15.4178 17.7475 15.0013 17.7475C14.5843 17.7475 14.3759 17.5568 14.1675 17.3661C13.9592 17.1756 13.7509 16.985 13.3344 16.985C12.9179 16.985 12.7096 17.1756 12.5013 17.3661C12.2929 17.5568 12.0845 17.7475 11.6675 17.7475L10.0006 16.985C9.58368 16.985 9.37525 17.1757 9.16685 17.3664C8.95853 17.5569 8.75025 17.7475 8.33376 17.7475C7.91689 17.7475 7.70861 17.5569 7.50033 17.3663C7.29204 17.1756 7.08376 16.985 6.66689 16.985C5.83314 16.985 5.00001 17.7475 5.00001 17.7475L3.33314 16.985C3.16751 16.985 3.03501 17.0156 2.92251 17.0637C2.67001 16.8112 2.43189 16.545 2.20814 16.2675C2.31721 16.2 2.40866 16.1164 2.5001 16.0328C2.70837 15.8423 2.91663 15.6519 3.33314 15.6519C4.16689 15.6519 5.00001 16.4144 5.00001 16.4144L6.66689 15.6519C7.08345 15.6519 7.29173 15.8425 7.50001 16.0331C7.70829 16.2238 7.91657 16.4144 8.33314 16.4144C8.75009 16.4144 8.95853 16.2237 9.16693 16.033C9.37525 15.8424 9.58353 15.6519 10 15.6519L11.6663 16.4144C12.0831 16.4144 12.2916 16.2238 12.5 16.0331C12.7085 15.8425 12.9169 15.6519 13.3338 15.6519C13.7499 15.6519 13.958 15.8424 14.1662 16.0329ZM11.6663 19.0231C12.0832 19.0231 12.2917 18.8324 12.5001 18.6418C12.7084 18.4512 12.9167 18.2606 13.3331 18.2606C13.75 18.2606 13.9586 18.4513 14.1672 18.6421C14.2779 18.7434 14.3887 18.8447 14.5306 18.9175C13.4019 19.4919 12.1488 19.8587 10.8231 19.9662C10.6181 19.7794 10.41 19.5944 9.99939 19.5944C9.58939 19.5944 9.38126 19.7794 9.17626 19.9662C7.85001 19.8581 6.59751 19.4919 5.46876 18.9175C5.6107 18.8447 5.72145 18.7434 5.83219 18.6421C6.04083 18.4513 6.24938 18.2606 6.66626 18.2606C7.08322 18.2606 7.29165 18.4513 7.50005 18.642C7.70837 18.8326 7.91665 19.0231 8.33314 19.0231C8.75009 19.0231 8.95853 18.8324 9.16693 18.6418C9.37525 18.4512 9.58353 18.2606 10 18.2606L11.6663 19.0231Z" fill="#0054BB"/>
<path fill-rule="evenodd" clip-rule="evenodd" d="M10.0089 9.99999H9.97311L10.0089 9.97311V9.99999Z" fill="#F0F0F0"/>
<path d="M13.0431 5.2175H16.9569L15 7.17375L13.0431 5.2175Z" fill="#5AA731"/>
<path fill-rule="evenodd" clip-rule="evenodd" d="M15.435 6.73938H14.5656V9.13063H15.435V6.73938ZM15.435 13.0431H14.5656V15.4344H15.435V13.0431Z" fill="#B20013"/>
<path d="M17.6088 11.7394C17.6088 11.0187 17.025 10.4344 16.3044 10.4344C15.9706 10.4344 15.6656 10.56 15.4344 10.7669V9.99999H15.8688V9.13062H15.4344V8.69562H14.565V9.13062H14.1306V9.99999H14.565V10.7675C14.3344 10.5606 14.0294 10.435 13.695 10.435C12.975 10.435 12.3906 11.0194 12.3906 11.74C12.3906 12.1256 12.5588 12.4725 12.825 12.7119V13.4794H17.1731V12.7119C17.4406 12.4719 17.6088 12.125 17.6088 11.7394Z" fill="#FFD800"/>
<path d="M16.3044 11.3044C16.1669 11.3044 16.0713 11.365 16.0144 11.415L15.4344 11.9344H14.565L13.985 11.415C13.9281 11.365 13.8325 11.3044 13.695 11.3044C13.455 11.3044 13.26 11.4994 13.26 11.7394C13.26 11.9081 13.3513 12.0144 13.4056 12.0631L13.695 12.3225V12.6088H16.3038V12.3225L16.5938 12.0631C16.6475 12.015 16.7388 11.9081 16.7388 11.7394C16.7394 11.4988 16.5444 11.3044 16.3044 11.3044Z" fill="#EC0017"/>
<path fill-rule="evenodd" clip-rule="evenodd" d="M9.99999 8.15561V5.21749L6.52186 4.78311L9.99999 8.15561ZM8.15561 9.99999H5.21749L4.78311 9.13061L5.21749 6.08686L8.15561 9.99999Z" fill="#0054BB"/>
<path d="M10 5.2175V0H9.99813C4.47625 0.000625 0 4.4775 0 10H5.2175V7.06187L8.155 10H9.97312L10 9.97312V8.15562L7.06187 5.2175H10Z" fill="#F0F0F0"/>
<path fill-rule="evenodd" clip-rule="evenodd" d="M1.30438 5.05938C2.19501 3.49501 3.49501 2.19501 5.05938 1.30438H10V3.91313H3.91313V10H1.30438V5.05938ZM6.44688 5.21688L10 8.77001V10L5.21751 5.21688H6.44688Z" fill="#EC0017"/>
</svg>
