<svg width="20" height="20" viewBox="0 0 20 20" fill="none" xmlns="http://www.w3.org/2000/svg">
<path d="M5.40395e-06 9.99998C5.40395e-06 11.2231 0.220005 12.395 0.62188 13.4781L10 13.9131L19.3781 13.4787C19.78 12.395 20 11.2231 20 9.99998C20 8.77685 19.78 7.60498 19.3781 6.52185L10 6.08685L0.62188 6.52185C0.209362 7.63501 -0.00122999 8.81284 5.40395e-06 9.99998Z" fill="#FFD800"/>
<path d="M19.3781 13.4781H0.621881C2.03501 17.2863 5.70063 20 10 20C14.2994 20 17.965 17.2863 19.3781 13.4781V13.4781Z" fill="#3D6F21"/>
<path d="M10 0C5.70063 0 2.03501 2.71375 0.621881 6.52187H19.3781C17.965 2.71375 14.2994 0 10 0Z" fill="#EC0017"/>
<path d="M10 6.52185L10.8631 9.17872H13.6575L11.3975 10.8212L12.2606 13.4781L10 11.8362L7.73938 13.4787L8.6025 10.8218L6.3425 9.17935H9.13625L10 6.52185Z" fill="black"/>
</svg>
