<svg width="20" height="20" viewBox="0 0 20 20" fill="none" xmlns="http://www.w3.org/2000/svg">
<circle cx="9.99997" cy="9.99997" r="9.99997" fill="#F0F0F0"/>
<path d="M6.08686 13.4781H19.3781C17.965 17.2862 14.2993 20 9.99998 20C7.34704 20.0035 4.80222 18.9489 2.92937 17.07L6.08686 13.4781Z" fill="#5AA731"/>
<path d="M6.08686 6.52186H19.3781C17.965 2.71375 14.2993 8.62288e-06 9.99998 8.62288e-06C7.34717 -0.00347849 4.80244 1.05081 2.92937 2.92937L6.08686 6.52186Z" fill="black"/>
<path d="M2.92874 2.92876C-0.976247 6.83438 -0.976247 13.1656 2.92874 17.0712L9.99997 9.99999L2.92874 2.92876Z" fill="#EC0017"/>
<path d="M2.85936 11.0606L3.18248 10.0644L2.33498 9.44938L3.38248 9.44875L3.70623 8.45188L4.0306 9.44813L5.0781 9.4475L4.23185 10.0637L4.5556 11.06L3.70873 10.445L2.85936 11.0606Z" fill="white"/>
</svg>
