<svg width="20" height="20" viewBox="0 0 20 20" fill="none" xmlns="http://www.w3.org/2000/svg">
<circle cx="10" cy="10" r="10" fill="#F0F0F0"/>
<path d="M13.4781 9.99998C13.4781 10.8694 11.9213 13.0431 10 13.0431C8.07876 13.0431 6.52188 10.8687 6.52188 9.99998C6.52188 8.75736 7.18481 7.60914 8.26094 6.98783C9.33708 6.36652 10.6629 6.36652 11.7391 6.98783C12.8152 7.60914 13.4781 8.75736 13.4781 9.99998Z" fill="#EC0017"/>
<path d="M13.4781 10C13.4783 10.9225 13.1119 11.8073 12.4596 12.4596C11.8073 13.1119 10.9225 13.4783 10 13.4781C9.0775 13.4783 8.19273 13.1119 7.54042 12.4596C6.88811 11.8073 6.52172 10.9225 6.52188 10" fill="#0054BB"/>
<path fill-rule="evenodd" clip-rule="evenodd" d="M13.9969 3.54377L14.9181 4.46627L15.5337 3.85127L14.6112 2.92877L13.9969 3.54377ZM15.5344 6.92565L13.075 4.46627L13.6894 3.85127L16.1494 6.31065L15.5344 6.92565ZM13.6887 13.0744L14.6119 12.1519L15.2262 12.7669L14.3037 13.6888L13.6887 13.0744ZM16.4562 13.9963L15.5337 14.9181L16.1481 15.5331L17.0712 14.6106L16.4562 13.9963ZM14.9194 15.5331L13.9969 16.4563L14.6119 17.0706L15.5337 16.1481L14.9194 15.5331ZM13.0737 13.6888L12.1519 14.6119L12.7662 15.2263L13.6887 14.3038L13.0737 13.6888ZM14.6119 13.9969L15.5337 13.0744L16.1487 13.6888L15.2262 14.6119L14.6119 13.9969ZM13.9969 14.6119L13.075 15.5338L13.6894 16.1488L14.6119 15.2263L13.9969 14.6119ZM3.54374 13.9969L6.00312 16.4569L5.38812 17.0719L2.92874 14.6119L3.54374 13.9969ZM6.92562 15.5338L6.00312 14.6113L5.38812 15.2256L6.31062 16.1488L6.92562 15.5338ZM4.46624 13.0744L5.38874 13.9969L4.77374 14.6119L3.85124 13.6888L4.46624 13.0744ZM7.84812 14.6119L5.38874 12.1519L4.77374 12.7663L7.23312 15.2263L7.84812 14.6119ZM12.1519 5.38815L13.075 6.31065L13.6894 5.69565L12.7669 4.77315L12.1519 5.38815ZM14.6119 7.84815L13.6894 6.92565L14.3037 6.31065L15.2262 7.23315L14.6119 7.84815ZM16.4562 6.00315L15.5337 5.08127L16.1481 4.46627L17.0712 5.38877L16.4562 6.00315ZM3.54374 6.00315L6.00312 3.54377L5.38874 2.92877L2.92937 5.38815L3.54374 6.00315ZM6.92562 4.46627L4.46624 6.92565L3.85124 6.31065L6.31062 3.85127L6.92562 4.46627ZM5.38874 7.84815L7.84812 5.38877L7.23312 4.77377L4.77374 7.23377L5.38874 7.84815Z" fill="black"/>
</svg>
