<svg width="20" height="20" viewBox="0 0 20 20" fill="none" xmlns="http://www.w3.org/2000/svg">
<circle cx="10" cy="10" r="10" fill="#F0F0F0"/>
<path d="M0 9.99995C0 13.79 2.10938 17.0881 5.2175 18.7843V1.21558C2.10938 2.91183 0 6.20995 0 9.99995Z" fill="#F0F0F0"/>
<path d="M10 1.13763e-05C8.32908 -0.00251427 6.6844 0.415534 5.2175 1.21564V18.7838C6.68424 19.5844 8.32899 20.0026 10 20C15.5225 20 20 15.5225 20 10C20 4.47751 15.5225 1.13763e-05 10 1.13763e-05Z" fill="#3D6F21"/>
<path fill-rule="evenodd" clip-rule="evenodd" d="M11.0581 11.7137C12.0383 12.3661 13.3204 12.3422 14.2756 11.6538C14.6568 11.3792 14.9634 11.0138 15.1675 10.5907C14.9293 11.9697 13.8878 13.0718 12.5243 13.3873C11.1609 13.7029 9.74108 13.1705 8.92124 12.0363C8.10141 10.902 8.04146 9.38673 8.76912 8.19121C9.49678 6.99568 10.8702 6.35287 12.2544 6.56003C11.087 6.71388 10.1374 7.57553 9.87112 8.72252C9.60487 9.86951 10.0778 11.0614 11.0581 11.7137ZM14.9344 7.29009L14.2212 6.52196L14.3469 7.56196L13.3962 8.00259L14.4244 8.20509L14.5487 9.24509L15.0587 8.33009L16.0875 8.53259L15.375 7.76446L15.885 6.85009L14.9344 7.29009Z" fill="#F0F0F0"/>
</svg>
