<svg width="20" height="20" viewBox="0 0 20 20" fill="none" xmlns="http://www.w3.org/2000/svg">
<circle cx="10" cy="10" r="10" fill="#F0F0F0"/>
<path d="M2.92938 17.0713C3.34144 17.4834 3.78854 17.859 4.26562 18.1938L18.1938 4.26565C17.5222 3.30991 16.6901 2.4778 15.7344 1.80627L1.80625 15.735C2.13563 16.2038 2.50938 16.6519 2.92938 17.0713Z" fill="#B20013"/>
<path d="M2.92937 2.92874C-0.225625 6.08374 -0.83125 10.8212 1.11125 14.585L14.585 1.11062C10.8212 -0.831881 6.08375 -0.225631 2.92937 2.92874Z" fill="#0054BB"/>
<path d="M17.0706 17.0713C20.2256 13.9157 20.8313 9.17816 18.8888 5.41504L5.415 18.8894C9.17813 20.8313 13.9162 20.2257 17.0706 17.0713Z" fill="#3D6F21"/>
<path d="M8.26062 5.65183L7.14 6.1787L7.73688 7.2637L6.52 7.0312L6.36562 8.25995L5.51875 7.35683L4.67125 8.26058L4.51687 7.03183L3.3 7.26433L3.89687 6.17933L2.77625 5.65183L3.89687 5.12495L3.3 4.03995L4.51687 4.27308L4.67125 3.0437L5.51875 3.94745L6.36625 3.0437L6.52062 4.27308L7.7375 4.03995L7.14062 5.12495L8.26062 5.65183Z" fill="#FFD800"/>
</svg>
