<svg width="20" height="20" viewBox="0 0 20 20" fill="none" xmlns="http://www.w3.org/2000/svg">
<circle cx="10" cy="10" r="10" fill="#0054BB"/>
<path fill-rule="evenodd" clip-rule="evenodd" d="M10.3103 5.12142L10 4.16667L9.69034 5.12142H8.68647L9.49867 5.7114L9.18781 6.66615L10 6.07617L10.8128 6.66615L10.5019 5.7114L11.3147 5.12142H10.3103ZM5.87492 5.87492L6.76978 6.33073L7.48015 5.62036L7.32322 6.61225L8.21808 7.06806L7.22619 7.22499L7.06926 8.21688L6.61345 7.32202L5.62156 7.47895L6.33194 6.76858L5.87492 5.87492ZM13.6687 6.76977L14.1251 5.87492L13.2302 6.33193L12.5199 5.62156L12.6774 6.61344L11.7831 7.06926L12.7744 7.22619L12.9319 8.21808L13.3878 7.32322L14.379 7.48015L13.6687 6.76977ZM4.16667 10L5.12202 9.68973V8.68587L5.71201 9.49807L6.66736 9.1872L6.07618 10L6.66676 10.8122L5.71141 10.5019L5.12142 11.3141V10.3097L4.16667 10ZM14.878 10.3103L15.8333 10L14.8786 9.69033V8.68647L14.2892 9.49866L13.3339 9.1878L13.9238 10L13.3333 10.8134L14.2886 10.5025L14.878 11.3147V10.3103ZM5.87492 14.1251L6.33074 13.2302L5.62036 12.5199L6.61225 12.6774L7.06806 11.7831L7.22499 12.7744L8.21688 12.9319L7.32203 13.3878L7.47896 14.379L6.76858 13.6687L5.87492 14.1251ZM13.2302 13.6687L14.1251 14.1251L13.6687 13.2302L14.379 12.5199L13.3878 12.6774L12.9319 11.7831L12.7744 12.7744L11.7831 12.9319L12.6774 13.3878L12.5199 14.379L13.2302 13.6687ZM9.68974 14.878L10 15.8333L10.3091 14.8786H11.3135L10.5013 14.2892L10.8122 13.3338L10 13.9238L9.18721 13.3332L9.49807 14.2886L8.68587 14.878H9.68974Z" fill="#FFD800"/>
</svg>
