<svg width="20" height="20" viewBox="0 0 20 20" fill="none" xmlns="http://www.w3.org/2000/svg">
<mask id="mask0_219_122141" style="mask-type:alpha" maskUnits="userSpaceOnUse" x="0" y="0" width="20" height="20">
<path d="M9.99996 0C15.5231 0 19.9999 4.47679 19.9999 9.99996C19.9999 15.5231 15.5231 19.9999 9.99996 19.9999C4.47678 19.9999 0 15.5231 0 9.99996C0 4.47679 4.47678 0 9.99996 0Z" fill="white"/>
</mask>
<g mask="url(#mask0_219_122141)">
<path fill-rule="evenodd" clip-rule="evenodd" d="M-0.869614 -0.869629H20.8695V20.8695H-0.869614V-0.869629Z" fill="#F0F0F0"/>
</g>
<mask id="mask1_219_122141" style="mask-type:alpha" maskUnits="userSpaceOnUse" x="0" y="1" width="20" height="18">
<path d="M17.7136 16.3646C17.7016 16.3791 17.6896 16.3935 17.6776 16.4079L17.4763 16.6415L17.3993 16.7271L17.3115 16.821L17.3576 16.7723L17.3129 16.821L17.1884 16.9519C16.8371 17.315 16.4586 17.6513 16.0564 17.9576L15.7503 18.1815H4.24958C3.82384 17.8822 3.4224 17.5502 3.04887 17.1892L2.7924 16.9323L2.68312 16.8167C2.64183 16.7724 2.60095 16.7277 2.56046 16.6827L2.56009 16.6824L2.52364 16.6415L2.31006 16.3932C2.30214 16.3837 2.29423 16.3742 2.28635 16.3646H17.7136ZM0.937528 14.2334C0.98665 14.3383 1.03754 14.4423 1.09017 14.5453L1.07292 14.512C1.01229 14.3925 0.954006 14.2715 0.898126 14.1492L0.89859 14.1491C0.827787 13.9949 0.761013 13.8385 0.698246 13.68L0.638583 13.5242L0.637496 13.5217L0.569136 13.3339L0.503146 13.1423L0.471871 13.0446L0.393297 12.7864L0.376348 12.7272H19.6236C19.6167 12.7513 19.6098 12.7754 19.6028 12.7995L19.5088 13.1042L19.4376 13.3138L19.3623 13.5215C19.2795 13.7405 19.1895 13.9561 19.0923 14.1678L19.0701 14.2169L18.9095 14.5448L1.09017 14.5453L1.0523 14.4713L0.937528 14.2334ZM19.9583 9.09039C19.9769 9.29158 19.9893 9.49313 19.9956 9.69476C19.9978 9.77539 19.9992 9.85584 19.9997 9.93651C20.0014 10.1531 19.9957 10.3696 19.9829 10.5857L19.9583 10.9096H0.0415999C0.0144 10.6096 0 10.3064 0 9.99998C0 9.79572 0.00640001 9.59288 0.0187259 9.39146L0.0415999 9.09039H19.9583ZM18.9095 5.45441L19.0093 5.65471L19.1041 5.85695C19.1763 6.01482 19.2441 6.17445 19.3077 6.33572L19.3583 6.46767L19.3898 6.55523L19.4293 6.66197L19.4968 6.85804C19.5417 6.99506 19.5841 7.13329 19.6236 7.27277L0.376798 7.27279C0.513791 6.78777 0.68696 6.31464 0.895569 5.85708L0.937122 5.76748L1.0904 5.45441H18.9095ZM2.28639 3.63601C2.7753 3.04424 3.33063 2.51007 3.94079 2.04509L4.25038 1.81842H15.7495C16.3776 2.26002 16.9529 2.77273 17.4641 3.34498L17.7115 3.6342L17.7132 3.63594L2.28639 3.63601Z" fill="white"/>
</mask>
<g mask="url(#mask1_219_122141)">
<path fill-rule="evenodd" clip-rule="evenodd" d="M-0.869614 0.948791H20.8839V19.0511H-0.869614V0.948791Z" fill="#F0F0F0"/>
</g>
<mask id="mask2_219_122141" style="mask-type:alpha" maskUnits="userSpaceOnUse" x="0" y="0" width="20" height="20">
<path d="M13.3365 19.4298L13.3504 19.4246L13.336 19.4298L13.2165 19.4716L13.2691 19.4534L13.1994 19.477L13.2112 19.4733L13.1182 19.5043C13.0677 19.5208 13.017 19.537 12.9662 19.5527L12.9665 19.5524L12.8243 19.5959L12.6564 19.6429L12.5808 19.6638L12.5329 19.6759L12.5069 19.6829L12.5312 19.6768L12.5079 19.6829L12.3886 19.7133L12.3947 19.7116L12.2555 19.7446L12.319 19.7299L12.2497 19.7459L12.1242 19.7738L11.91 19.8177L11.7129 19.8542L11.7459 19.8481L11.6069 19.8715L11.5304 19.8836L11.4772 19.8916L11.455 19.8948L11.4407 19.8968L11.3657 19.9075C11.2598 19.9219 11.1533 19.9347 11.0463 19.9459L11.0468 19.9458L10.9198 19.9586L10.732 19.9734L10.6185 19.9811L10.7014 19.9757C10.605 19.9824 10.5082 19.9877 10.4111 19.9916L10.4108 19.9917L10.2786 19.9961L9.99996 19.9999L9.78933 19.998L9.71017 19.996L9.54685 19.9898C9.48766 19.9872 9.4286 19.9841 9.36968 19.9804L9.22714 19.9705L9.08552 19.9593C8.96373 19.9476 8.84293 19.9345 8.72279 19.9191C8.59573 19.903 8.46942 19.8844 8.3439 19.8635L8.25879 19.849L8.23531 19.8447L8.02573 19.8055L7.93008 19.7855L7.86399 19.7716L7.74485 19.7446L7.82659 19.7638L7.74159 19.7439L7.61214 19.7131C7.38329 19.6568 7.1567 19.5926 6.93267 19.5204L7.03198 19.5522C6.92001 19.5174 6.80889 19.4808 6.69864 19.4422L6.93267 19.5204C6.83695 19.4895 6.74169 19.4572 6.64693 19.4235L6.64656 19.4239C6.21915 19.2712 5.80153 19.0895 5.39715 18.8794L5.39684 18.88C5.10014 18.7253 4.8104 18.5556 4.52898 18.371L4.25038 18.1815H15.7503C15.575 18.305 15.3955 18.423 15.2122 18.5353L15.2124 18.5359C14.936 18.7044 14.6509 18.8604 14.3579 19.0026L14.3581 19.003C14.166 19.0958 13.9706 19.1829 13.772 19.2639L13.4817 19.3768L13.4452 19.3907L13.413 19.402L13.4399 19.3925L13.4145 19.4019L13.353 19.4238L13.3365 19.4298ZM17.7184 16.3584L17.7143 16.3637L2.28559 16.3631C2.17772 16.2325 2.07323 16.0993 1.97223 15.9636L1.82295 15.7581C1.68548 15.5629 1.55468 15.3626 1.43124 15.1578L1.43123 15.1583L1.26222 14.8662L1.09119 14.5456L18.9093 14.5461C18.897 14.5702 18.8846 14.5943 18.8721 14.6182L18.7698 14.8098L18.754 14.8384L18.738 14.8666C18.5017 15.2894 18.2352 15.6946 17.9406 16.0789L17.7218 16.3546L17.7184 16.3584ZM19.8463 11.756L19.8177 11.9108C19.793 12.0376 19.7661 12.1636 19.7368 12.2886L19.7065 12.4147L19.6319 12.6975C19.6292 12.7071 19.6265 12.7167 19.6238 12.7263L0.377598 12.7264C0.244478 12.2579 0.145151 11.7751 0.0820725 11.2812L0.0415991 10.9088L19.9592 10.909L19.9558 10.9454L19.9192 11.277L19.891 11.4813L19.8655 11.639L19.8726 11.6003L19.8587 11.6849L19.8638 11.6503L19.8463 11.756ZM19.6231 7.27198C19.6597 7.40146 19.6936 7.53162 19.7249 7.66238L19.7751 7.8892L19.8027 8.01372C19.8501 8.25098 19.8891 8.48975 19.9194 8.72967L19.9583 9.09038H9.56556V7.27198H19.6231ZM17.714 3.63581C17.7204 3.64366 17.7269 3.65152 17.7334 3.65939L17.9407 3.92121C18.2322 4.30145 18.4961 4.70209 18.7303 5.11992L18.753 5.16018L18.9095 5.45439H9.56556V3.63679L17.714 3.63581ZM10.4154 0.00876571L10.5772 0.0163892L10.5276 0.0139834L10.4154 0.00876571L10.4417 0.00958738L10.5276 0.0139834L10.5827 0.016164C10.6388 0.0193693 10.6949 0.0230489 10.751 0.0272011L10.5772 0.0163892C10.6562 0.0208835 10.7349 0.0262942 10.8134 0.0326108L10.8136 0.0320425C10.979 0.045938 11.1434 0.0632978 11.3066 0.0845921L11.4398 0.103554L11.4503 0.104423L11.4534 0.104847L11.5711 0.123555L11.4538 0.105293L11.4503 0.104423H11.4485L11.4538 0.105293L11.5834 0.124269C11.6363 0.132692 11.689 0.141539 11.7416 0.150807L11.5995 0.127217L11.772 0.15747L11.9946 0.200081L12.0416 0.209646L12.086 0.219212L12.1034 0.222691L12.1007 0.221821L12.086 0.219212L12.0693 0.21418L12.1007 0.221821L12.1225 0.227039L12.1579 0.233398L12.246 0.253997L12.1547 0.233996L12.1225 0.227039L12.1034 0.222691L12.1547 0.233996L12.2555 0.256606L12.4233 0.29561L12.7342 0.378464L13.042 0.471048C13.2538 0.53875 13.4632 0.613404 13.6699 0.694978L13.978 0.822418C14.1944 0.916428 14.4077 1.01811 14.6175 1.12743L14.6173 1.12739L14.9196 1.29161L15.2027 1.45928L15.2164 1.46647L15.2949 1.51511L15.4402 1.60767L15.4801 1.63379L15.7503 1.81761H4.78238C6.40957 0.672811 8.69596 0 9.99996 0L10.3052 0.00420669L10.3596 0.00594122L10.4111 0.00876571H10.4154Z" fill="white"/>
</mask>
<g mask="url(#mask2_219_122141)">
<path fill-rule="evenodd" clip-rule="evenodd" d="M-0.828015 -0.872803H20.8287V20.8727H-0.828015V-0.872803Z" fill="#D80027"/>
</g>
<mask id="mask3_219_122141" style="mask-type:alpha" maskUnits="userSpaceOnUse" x="0" y="0" width="10" height="10">
<path d="M5.526 1.05406L5.47328 1.08083L5.56872 1.03293L5.62473 1.00533L5.65573 0.99023L5.66474 0.986026L5.75328 0.943901L5.78652 0.928228L5.86474 0.893154L5.99446 0.834379C5.95959 0.849636 5.92483 0.865087 5.89017 0.880728L5.84229 0.90262C5.92464 0.864921 6.00758 0.828308 6.09112 0.792798L6.11329 0.783298L6.19168 0.750697L6.23291 0.733713L6.19433 0.750537L6.29295 0.709512C6.46303 0.64167 6.63557 0.57822 6.81028 0.519463L6.67606 0.565607L6.77939 0.529845L6.91184 0.485913L6.96306 0.469652L7.01583 0.452764L7.13525 0.416606L7.25858 0.380403L7.14922 0.412145L7.26027 0.379882L7.297 0.369647L7.37575 0.347853C7.4149 0.337234 7.45414 0.326847 7.49348 0.316693L7.37874 0.347906L7.50396 0.314861L7.51701 0.311383L7.60285 0.289127L7.56745 0.298338L7.51701 0.311383L7.50483 0.313991L7.51634 0.310791L7.56745 0.298338L7.6118 0.287033L7.66167 0.27482L7.62484 0.284425L7.6118 0.287033L7.60285 0.289127L7.62484 0.284425L7.7127 0.262766L7.66167 0.27482L7.76186 0.251371L7.84311 0.233987L7.85428 0.230727L7.86243 0.228929L7.93529 0.213986L7.95912 0.20838C7.99141 0.201686 8.02375 0.195147 8.05616 0.188765L8.05657 0.1887C8.19778 0.160869 8.34048 0.135964 8.48418 0.114116C8.64916 0.0890448 8.81519 0.0680229 8.98245 0.0511223L8.87466 0.0625985L8.96326 0.0530771L9.05204 0.0443352L9.30824 0.0235454L9.56614 0.00923924L9.7458 0.00316629L9.99996 0V9.09037H0.0423986C0.0975983 8.47517 0.209598 7.86637 0.376797 7.27197C0.586591 6.53084 0.879637 5.82469 1.2452 5.16427L1.24503 5.16364C1.48108 4.73815 1.74714 4.33106 2.04051 3.94591L2.04031 3.94543C2.6911 3.09179 3.47598 2.34553 4.36369 1.73865L4.36375 1.73831C4.54603 1.61389 4.73268 1.49519 4.92341 1.3826L5.18036 1.23665L5.22785 1.20979L5.29254 1.17491L5.34233 1.14865L5.32214 1.15915C5.38964 1.12337 5.45759 1.08833 5.526 1.05406Z" fill="white"/>
</mask>
<g mask="url(#mask3_219_122141)">
<path fill-rule="evenodd" clip-rule="evenodd" d="M-0.827217 -0.869629H10.8696V9.95996H-0.827217V-0.869629Z" fill="#0052B4"/>
</g>
<mask id="mask4_219_122141" style="mask-type:alpha" maskUnits="userSpaceOnUse" x="3" y="2" width="6" height="6">
<path d="M5.95277 2.60797L6.60077 4.60077H8.69596L7.00077 5.83276L7.64877 7.82555L5.95277 6.59356L4.25838 7.82555L4.90638 5.83276L3.21039 4.60077H5.30638L5.95277 2.60797Z" fill="white"/>
</mask>
<g mask="url(#mask4_219_122141)">
<path fill-rule="evenodd" clip-rule="evenodd" d="M2.34077 1.73834H9.56558V8.69515H2.34077V1.73834Z" fill="#F0F0F0"/>
</g>
</svg>
