<svg width="20" height="20" viewBox="0 0 20 20" fill="none" xmlns="http://www.w3.org/2000/svg">
<mask id="mask0_219_122128" style="mask-type:alpha" maskUnits="userSpaceOnUse" x="0" y="0" width="20" height="20">
<path d="M10 0C15.5228 0 20 4.47716 20 10C20 15.5228 15.5228 20 10 20C4.47715 20 0 15.5228 0 10C0 4.47716 4.47715 0 10 0Z" fill="white"/>
</mask>
<g mask="url(#mask0_219_122128)">
<path fill-rule="evenodd" clip-rule="evenodd" d="M-0.869565 -0.869507H20.8696V20.8696H-0.869565V-0.869507Z" fill="white"/>
</g>
<mask id="mask1_219_122128" style="mask-type:alpha" maskUnits="userSpaceOnUse" x="6" y="0" width="8" height="20">
<path d="M7.22696 0.389565L7.21739 0.393043L7.42174 0.336521L7.36327 0.351629L7.22696 0.389565L7.32922 0.360624L7.48783 0.31826L7.4287 0.334782L7.52 0.310434L7.54261 0.304347L7.58261 0.294782L7.77131 0.250434L7.89067 0.223144L8.17652 0.166956L8.21216 0.159578L8.47565 0.116521L8.59835 0.0975992L8.53909 0.105949L8.71859 0.0813338L8.74696 0.0782603L8.76017 0.0762199L8.78087 0.0739124L8.89909 0.059909L8.83304 0.0686951L8.92279 0.0574321L8.92256 0.0573665C9.14371 0.0337368 9.36679 0.0172415 9.59181 0.00819246L9.6734 0.00523201L9.99652 0L10.2231 0.00220483L10.3548 0.00695593L10.5436 0.0145227C10.6111 0.0181389 10.6784 0.0224244 10.7456 0.027373L10.746 0.0269436L10.9252 0.0426081L10.8712 0.0369637C10.9826 0.0465819 11.0937 0.0580697 11.2046 0.0714192L11.1357 0.0637751L11.2435 0.0773907L11.5061 0.113912L11.6043 0.128695L11.6304 0.133043L11.8739 0.176521L11.9478 0.190434L11.9843 0.19826L12.3087 0.268695L12.3339 0.274782L12.4017 0.291304L12.6565 0.357391L12.7574 0.386086L12.89 0.423961C12.9525 0.442792 13.0147 0.462218 13.0767 0.482232L13.0763 0.482241L13.1209 0.49664L13.4299 0.603713L13.4788 0.621702L13.9136 10L13.4788 19.3783L13.4578 19.386C13.243 19.4645 13.0248 19.5365 12.8035 19.6011L12.8033 19.6018L12.4807 19.6895C12.3544 19.7218 12.2271 19.7517 12.0988 19.7791L12.1658 19.7648C12.0494 19.7905 11.9322 19.8142 11.8143 19.8358L11.6411 19.866L11.6061 19.8713L11.5882 19.8744L11.5661 19.8774L11.5217 19.8852L11.5626 19.8783L11.5661 19.8774L11.5843 19.8748L11.6061 19.8713L11.7816 19.8416L11.5843 19.8748L11.5626 19.8783L11.5052 19.8878L11.4157 19.9009L11.3826 19.9061L11.3383 19.9113L11.3617 19.9087L11.3826 19.9061L11.3936 19.9036L11.3617 19.9087L11.3252 19.913L11.2888 19.9177L11.3217 19.9139L11.3252 19.913L11.3383 19.9113L11.3217 19.9139L11.1687 19.9322L11.0734 19.943L11.074 19.943C10.8538 19.9665 10.6321 19.9828 10.4084 19.9918L10.331 19.9946L9.99999 20C9.86398 20 9.72858 19.9973 9.59387 19.9919L9.59411 19.9919C9.36032 19.9825 9.12881 19.9651 8.8996 19.94L8.92256 19.9426L8.75999 19.9239L8.73304 19.9209L8.7191 19.9185L8.67478 19.913L8.59821 19.9025L8.40487 19.8735L8.36984 19.8675L8.53959 19.8939L8.21739 19.8417L8.31218 19.8583L8.20103 19.8383L8.21275 19.8407L8.17304 19.8339L8.15218 19.8296L7.91826 19.7826L7.84201 19.7666C7.62435 19.7181 7.4092 19.6631 7.19695 19.6011L6.8494 19.4928L6.54216 19.386L6.52123 19.3783L6.0872 10L6.5221 0.621379C6.53634 0.616097 6.55059 0.610847 6.56486 0.605628L6.8791 0.496959L7.17652 0.404347L7.1981 0.398213L7.21652 0.393043L7.22696 0.389565Z" fill="white"/>
</mask>
<g mask="url(#mask1_219_122128)">
<path fill-rule="evenodd" clip-rule="evenodd" d="M5.21763 -0.871216H14.7832V20.8695H5.21763V-0.871216Z" fill="#FFDA44"/>
</g>
<mask id="mask2_219_122128" style="mask-type:alpha" maskUnits="userSpaceOnUse" x="13" y="0" width="7" height="20">
<path d="M19.9162 11.3007L19.8991 11.4252L19.8809 11.5478L19.8987 11.4289L19.879 11.56L19.86 11.6774L19.8374 11.8043L19.8166 11.916C19.7754 12.1281 19.7276 12.3377 19.6733 12.5446C19.6405 12.6698 19.6052 12.7945 19.5675 12.9181C19.4488 13.3076 19.307 13.6869 19.1437 14.0546L18.9739 14.4174L18.9217 14.5217L18.9196 14.5255L18.8646 14.632L18.8617 14.638C18.8254 14.7068 18.7853 14.7811 18.7443 14.8548L18.8001 14.7535C18.7628 14.8224 18.7247 14.8909 18.6859 14.9588L18.7426 14.8574L18.6825 14.9643L18.6391 15.0383L18.6235 15.0652L18.6193 15.0728C18.5779 15.143 18.5357 15.2127 18.4926 15.2818L18.493 15.2816C18.1334 15.858 17.7172 16.395 17.2519 16.8849L17.2523 16.8851C16.9924 17.1582 16.7174 17.4168 16.4286 17.6594L16.1355 17.8971C15.4149 18.457 14.6158 18.921 13.7574 19.2693C13.6652 19.3075 13.5723 19.3436 13.4788 19.3783V0.621704C13.5084 0.632701 13.538 0.643835 13.5675 0.655104L13.6722 0.69584L13.7206 0.715077L13.672 0.695703L13.789 0.742791L13.8783 0.780871L13.7896 0.74348L13.8797 0.780517C13.9166 0.796052 13.9534 0.811801 13.99 0.827764L13.9906 0.827994C14.1531 0.898785 14.3138 0.974027 14.4722 1.05335L14.4721 1.05326C14.6175 1.12609 14.7607 1.20226 14.9018 1.28176L14.9011 1.28137C15.027 1.3523 15.1505 1.42546 15.2723 1.50116L15.501 1.64768L15.6322 1.73571L15.7304 1.80365L15.8261 1.87218L15.9265 1.94456L16.1263 2.09571L16.3139 2.24609L16.2322 2.179C16.2878 2.22333 16.3428 2.26823 16.3974 2.31371L16.3219 2.25145L16.4135 2.32719L16.4974 2.39913L16.5973 2.48474L16.6887 2.5661L16.7835 2.65304L16.8609 2.7247L16.9414 2.80164C17.0351 2.89185 17.1268 2.98384 17.2168 3.07759C17.3595 3.2264 17.4977 3.37964 17.6312 3.53707L17.7828 3.72023C17.9355 3.90917 18.0814 4.10378 18.2202 4.3037C18.3761 4.5284 18.523 4.75965 18.6605 4.99703L18.8487 5.34L18.8678 5.37345L18.9096 5.45565L18.9593 5.55298L18.9794 5.59361L19.0191 5.67652L19.0331 5.70464L19.1305 5.9154L19.0778 5.79971C19.1158 5.88176 19.1527 5.9644 19.1886 6.04763L19.1889 6.04822C19.3991 6.5364 19.5718 7.0453 19.7029 7.57065L19.7034 7.57268L19.7258 7.66443L19.7856 7.93059L19.8313 8.16609L19.8365 8.19304L19.8563 8.30131L19.8611 8.32953L19.8687 8.38174L19.8775 8.42992C19.8842 8.47288 19.8907 8.51593 19.897 8.55907L19.9003 8.58239L19.9148 8.69391L19.932 8.82791L19.9169 8.70482L19.9325 8.83186L19.9461 8.95652L19.9587 9.08525L19.959 9.08876L19.9687 9.20609L19.9777 9.32636L19.9793 9.35111L19.9869 9.48369L19.9963 9.72641L20 10C20 10.0915 19.9988 10.1827 19.9963 10.2735L19.9874 10.5067L19.9796 10.6443L19.9777 10.6735L19.9689 10.7942L19.9583 10.9122L19.9465 11.0409L19.9322 11.171L19.92 11.2635L19.9157 11.2991L19.9162 11.3007Z" fill="white"/>
</mask>
<g mask="url(#mask2_219_122128)">
<path fill-rule="evenodd" clip-rule="evenodd" d="M12.6088 -0.247925H20.8696V20.2472H12.6088V-0.247925Z" fill="#D80027"/>
</g>
<mask id="mask3_219_122128" style="mask-type:alpha" maskUnits="userSpaceOnUse" x="0" y="0" width="7" height="20">
<path d="M0.133043 11.6383L0.130435 11.6192L0.120912 11.5597C0.114092 11.5162 0.107553 11.4725 0.101296 11.4288L0.119117 11.548L0.1 11.4252L0.0834783 11.2992L0.0678386 11.1709L0.0530435 11.0426L0.0534842 11.0405L0.0408696 10.9113L0.0310919 10.7944L0.030074 10.7813L0.0223239 10.6735L0.0126162 10.5068L0.0036697 10.2736L0 10C0 9.77367 0.00752221 9.54906 0.0223302 9.32645L0.0300702 9.21874L0.0304348 9.20611L0.0409682 9.0887L0.0412714 9.08542L0.0535198 8.95914L0.0530435 8.95655L0.0582609 8.90959L0.067533 8.83162C0.0724702 8.78919 0.0776729 8.74685 0.0831394 8.70459L0.0679516 8.82812L0.0843478 8.69394L0.0997573 8.58207L0.102991 8.55959L0.11785 8.46003L0.122545 8.43008L0.130435 8.38177L0.138898 8.32959L0.143749 8.30113L0.163027 8.19215L0.183353 8.08407L0.237018 7.82602L0.296522 7.57307L0.297152 7.57081L0.319987 7.48111C0.352759 7.3546 0.388013 7.22902 0.42563 7.10447C0.475753 6.93875 0.530182 6.7743 0.588699 6.61182L0.673114 6.38575L0.768562 6.14871L0.865217 5.92438L0.917882 5.80917L0.922142 5.80032L0.967103 5.70428L1.02087 5.59394L0.992174 5.65133L1.02069 5.59356L1.04095 5.553L1.09391 5.44698L1.1418 5.35536L1.18435 5.27568L1.23791 5.17687C1.32255 5.0239 1.41081 4.87343 1.50283 4.72553C1.54851 4.6521 1.59513 4.5793 1.64265 4.50716L1.64241 4.50702C2.11267 3.79361 2.67163 3.14385 3.30374 2.57366L3.30343 2.57321C4.11595 1.84102 5.04892 1.23973 6.06916 0.803287L6.02763 0.820094C6.09687 0.790091 6.16652 0.760849 6.23656 0.732377L6.23708 0.733265C6.32559 0.696187 6.41526 0.661243 6.50555 0.627565L6.5224 0.622437V19.3776C6.51686 19.3756 6.51132 19.3735 6.50579 19.3715C6.4414 19.3486 6.37756 19.324 6.31405 19.2988L6.50579 19.3715C6.41883 19.339 6.33244 19.3054 6.24664 19.2706L6.24612 19.2716C4.33635 18.4967 2.7198 17.1496 1.61004 15.4429L1.44261 15.1783L1.43906 15.1705L1.37565 15.0652L1.31716 14.9641L1.31456 14.959L1.25652 14.8574L1.25521 14.8544L1.1945 14.7436L1.13826 14.6383L1.13514 14.632C1.09813 14.5613 1.06195 14.4901 1.02659 14.4185L1.07842 14.5215C1.04321 14.4522 1.00878 14.3824 0.975157 14.3121C0.761016 13.8649 0.579155 13.3992 0.432586 12.9182C0.394804 12.7945 0.35946 12.6698 0.3265 12.5441C0.26294 12.3016 0.208088 12.055 0.162524 11.8051L0.161739 11.8035L0.140003 11.6768L0.133043 11.6383Z" fill="white"/>
</mask>
<g mask="url(#mask3_219_122128)">
<path fill-rule="evenodd" clip-rule="evenodd" d="M-0.869565 -0.24707H7.39196V20.2473H-0.869565V-0.24707Z" fill="#0052B4"/>
</g>
</svg>
