<svg width="20" height="20" viewBox="0 0 20 20" fill="none" xmlns="http://www.w3.org/2000/svg">
<circle cx="10" cy="10" r="10" fill="#EC0017"/>
<path fill-rule="evenodd" clip-rule="evenodd" d="M15.9094 8.2069H11.395L10 3.91315L8.605 8.2069H4.09L7.7425 10.8606L6.3475 15.1538L10 12.5L13.6525 15.1538L12.2575 10.8606L15.9094 8.2069ZM11.975 9.99065L11.6769 9.07627H13.2331L11.975 9.99065ZM9.23688 9.07627L8.765 10.5281L10 11.4256L11.2356 10.5288V10.5281L10.7631 9.07627H9.23688ZM10.74 11.9631L11.5175 11.3981L11.9987 12.8775L10.74 11.9631ZM8.4825 11.3981L8.00187 12.8775L9.26062 11.9631L8.4825 11.3981ZM8.3225 9.07627L8.025 9.99065L6.76625 9.07627H8.3225ZM9.51937 8.2069H10.4813L10 6.7269L9.51937 8.2069Z" fill="#006233"/>
</svg>
