<svg width="20" height="20" viewBox="0 0 20 20" fill="none" xmlns="http://www.w3.org/2000/svg">
<circle cx="10" cy="10" r="10" fill="#FFD800"/>
<path fill-rule="evenodd" clip-rule="evenodd" d="M19.3781 6.52188H6.08688L2.92938 2.92938C4.80245 1.05081 7.34719 -0.0034785 10 8.62291e-06C14.2994 8.62291e-06 17.965 2.71376 19.3781 6.52188ZM19.3781 13.4781H6.08688L2.92938 17.07C4.80223 18.949 7.34705 20.0035 10 20C14.2994 20 17.965 17.2863 19.3781 13.4781Z" fill="#5AA731"/>
<path fill-rule="evenodd" clip-rule="evenodd" d="M13.1294 9.58937L12.6981 8.26062L12.2644 9.58937H10.8669L11.9975 10.41L11.5663 11.7394L12.6969 10.9181L13.8269 11.7394L13.3956 10.41L14.5263 9.58937H13.1294ZM17.4775 9.58937L17.0456 8.26062L16.6119 9.58937H15.215L16.3456 10.41L15.9138 11.7394L17.0444 10.9181L18.175 11.7394L17.7431 10.41L18.8738 9.58937H17.4775Z" fill="black"/>
<path d="M2.92875 2.92871C-0.97625 6.83434 -0.97625 13.1656 2.92875 17.0712L10 9.99996L2.92875 2.92871Z" fill="#EC0017"/>
</svg>
