<svg width="20" height="20" viewBox="0 0 20 20" fill="none" xmlns="http://www.w3.org/2000/svg">
<circle cx="10" cy="10" r="10" fill="#F0F0F0"/>
<path fill-rule="evenodd" clip-rule="evenodd" d="M10 0C11.76 0 13.4144 0.455625 14.8513 1.25437L6.95625 6.52187L0 9.99875C0.000625 4.47687 4.4775 0 10 0ZM10 20C4.4775 20 0.000625 15.5237 0 10.0012L6.95625 13.4781L14.8513 18.7456C13.4144 19.5444 11.76 20 10 20Z" fill="#0054BB"/>
<path d="M15.685 1.77252C15.4163 1.58689 15.1381 1.41377 14.8513 1.25439L0 9.99877V10.0013L14.8513 18.745C15.1381 18.5856 15.4163 18.4131 15.685 18.2275L1.71187 10L15.685 1.77252Z" fill="#EC0017"/>
<path d="M17.3913 9.62689H16.2C16.51 9.25502 16.4906 8.70189 16.1413 8.35252C16.5113 7.98314 16.5113 7.38377 16.1413 7.01439L16.1194 7.03689C16.4894 6.66752 16.5113 6.04564 16.1413 5.67627L10.7881 11.03C11.1575 11.3994 11.7469 11.395 12.1163 11.025L12.2194 10.9313L14.7831 10.6981V11.8006H15.6525V10.6188L16.9575 10.5006L17.3913 9.62689Z" fill="#B20013"/>
<path d="M10.87 12.1743L10 11.7393L10.87 11.3043H16.5225V12.1743H10.87Z" fill="#FFD800"/>
</svg>
