<svg width="20" height="20" viewBox="0 0 20 20" fill="none" xmlns="http://www.w3.org/2000/svg">
<circle cx="10" cy="10" r="10" fill="#F0F0F0"/>
<path fill-rule="evenodd" clip-rule="evenodd" d="M1.21562 14.7825C2.524 17.1806 4.7546 18.9408 7.39125 19.6556L7.82562 15.3944L1.21562 14.7825ZM18.7844 14.7825C17.4762 17.1808 15.2455 18.941 12.6087 19.6556L12.1744 15.3944V14.7825H18.7844ZM1.21562 14.7825H7.82625V15.3944L1.21562 14.7825Z" fill="#FFD800"/>
<path fill-rule="evenodd" clip-rule="evenodd" d="M0 10H7.82625L7.82562 14.7825H1.21562C0.440625 13.3619 0 11.7319 0 10ZM12.1744 14.7825V10H20C20.0025 11.6709 19.5844 13.3156 18.7844 14.7825H12.1744Z" fill="#5AA731"/>
<path fill-rule="evenodd" clip-rule="evenodd" d="M7.82562 5.2175H1.21562C2.52416 2.81936 4.75466 1.05907 7.39125 0.34375L7.82562 5.2175ZM12.6087 0.344375C15.2455 1.05909 17.4761 2.81927 18.7844 5.2175H12.1744L12.6087 0.344375Z" fill="#0054BB"/>
<path d="M5.37875 2.17375L5.64875 3.00438H6.52187L5.81562 3.5175L6.08562 4.34812L5.37937 3.835L4.67312 4.34812L4.94312 3.5175L4.23687 3.00438H5.11L5.37875 2.17375Z" fill="#FFD800"/>
<path d="M9.99999 2.4702e-06C9.0975 2.4702e-06 8.22312 0.120002 7.39125 0.344377V19.6556C8.22312 19.88 9.0975 20 9.99999 20C10.9025 20 11.7775 19.88 12.6087 19.6556V0.344377C11.7581 0.115177 10.881 -0.00061673 9.99999 2.4702e-06Z" fill="#EC0017"/>
</svg>
