<svg width="20" height="20" viewBox="0 0 20 20" fill="none" xmlns="http://www.w3.org/2000/svg">
<circle cx="10" cy="10" r="10" fill="#F0F0F0"/>
<path fill-rule="evenodd" clip-rule="evenodd" d="M0.991875 5.65187C2.61 2.30687 6.03562 0 10 0C13.965 0 17.39 2.30687 19.0075 5.65187H0.991875ZM14.17 7.51875L13.8456 6.52188L13.5237 7.51875H12.4762L13.3237 8.13438L12.9994 9.13125L13.8469 8.51562L14.6944 9.13125L14.3706 8.13438L15.2175 7.51875H14.17ZM10 8.69562L10.3238 9.69187H11.3719L10.5244 10.3075L10.8488 11.3037L10 10.6887L9.1525 11.3044L9.47625 10.3081L8.62875 9.6925H9.67625L10 8.69562ZM13.8456 10.8694L14.17 11.8669H15.2175L14.3706 12.4819L14.6944 13.4788L13.8469 12.8631L12.9994 13.4788L13.3237 12.4819L12.4762 11.8669H13.5237L13.8456 10.8694ZM10 20C13.965 20 17.39 17.6931 19.0075 14.3481H0.991875C2.61 17.6931 6.03562 20 10 20ZM6.47812 11.8669L6.15437 10.8694L5.83 11.8663H4.7825L5.63 12.4812L5.30625 13.4781L6.15437 12.8625L7.00187 13.4788L6.67812 12.4819L7.52562 11.8669H6.47812ZM6.15437 6.52188L6.47812 7.51875H7.52562L6.67812 8.13438L7.00187 9.13125L6.15437 8.51562L5.30625 9.13063L5.63 8.13375L4.7825 7.51813H5.83L6.15437 6.52188Z" fill="#008CFB"/>
</svg>
