<svg width="20" height="20" viewBox="0 0 20 20" fill="none" xmlns="http://www.w3.org/2000/svg">
<path d="M1.59065e-05 9.99998C1.59065e-05 11.7319 0.44064 13.3618 1.21564 14.7825L10 15.6518L18.7844 14.7825C19.5844 13.3156 20.0025 11.6709 20 9.99998L10 9.1306L1.59065e-05 9.99998Z" fill="#FFD800"/>
<path d="M10 19.9999C13.79 19.9999 17.0881 17.8906 18.7844 14.7825H1.21564C2.91189 17.8906 6.21001 19.9999 10 19.9999Z" fill="#3D6F21"/>
<path d="M18.7844 5.21749C17.0881 2.10937 13.79 0 10 0C6.21 0 2.91188 2.10937 1.21563 5.21749C0.415533 6.68439 -0.00251426 8.32907 1.13763e-05 9.99999H20C20.0025 8.32907 19.5845 6.68439 18.7844 5.21749Z" fill="#008CFB"/>
<path d="M11.3044 5.85255L12.5256 6.42692L11.875 7.60942L13.2019 7.35567L13.3694 8.69567L14.2937 7.71004L15.2181 8.69567L15.3856 7.35567L16.7125 7.60942L16.0619 6.4263L17.2831 5.85192L16.0619 5.27755L16.7125 4.09442L15.3862 4.34817L15.2181 3.00817L14.2937 3.9938L13.3694 3.00817L13.2019 4.34817L11.875 4.09505L12.5256 5.27817L11.3044 5.85255Z" fill="#FFD800"/>
</svg>
