<svg width="20" height="20" viewBox="0 0 20 20" fill="none" xmlns="http://www.w3.org/2000/svg">
<circle cx="10" cy="10" r="10" fill="#FFD800"/>
<path d="M2.92875 17.0712C3.34813 17.49 3.79625 17.865 4.26563 18.1937L18.1938 4.2656C17.5223 3.30964 16.6902 2.47731 15.7344 1.8056L1.80625 15.735C2.13563 16.2037 2.50938 16.6519 2.92875 17.0712Z" fill="black"/>
<path d="M2.92938 2.92878C-0.225622 6.08378 -0.831247 10.8213 1.11125 14.585L14.585 1.11065C10.8213 -0.831225 6.08375 -0.225599 2.92938 2.92878Z" fill="#5AA731"/>
<path d="M17.0706 17.0712C20.2256 13.9156 20.8313 9.1781 18.8888 5.41498L5.415 18.8893C9.17813 20.8312 13.9163 20.2256 17.0706 17.0712Z" fill="#EC0017"/>
<path fill-rule="evenodd" clip-rule="evenodd" d="M12.7306 6.83376L11.7969 6.35814L12.2731 7.29126L11.5319 8.03189L12.5669 7.86814L13.0425 8.80189L13.2063 7.76689L14.2406 7.60314L13.3075 7.12751L13.4719 6.09314L12.7306 6.83376ZM7.29187 12.2731L6.35812 11.7969L6.83437 12.7306L6.09375 13.4719L7.12812 13.3075L7.60375 14.2406L7.7675 13.2069L8.8025 13.0425L7.86875 12.5669L8.0325 11.5319L7.29187 12.2731Z" fill="#F0F0F0"/>
</svg>
