<svg width="20" height="20" viewBox="0 0 20 20" fill="none" xmlns="http://www.w3.org/2000/svg">
<path d="M9.13063 9.13062C9.13063 9.13062 2.935 17.0731 2.92875 17.0712C4.80239 18.9493 7.34717 20.0033 10 20C15.5225 20 20 15.5225 20 9.99999L9.13063 9.13062Z" fill="#008CFB"/>
<path d="M9.13063 10C9.13063 10 2.935 2.92751 2.92875 2.92938C4.80213 1.05089 7.34702 -0.00336871 10 8.08695e-06C15.5225 8.08695e-06 20 4.47751 20 10H9.13063Z" fill="#5AA731"/>
<path d="M2.92875 2.92874C-0.97625 6.83437 -0.97625 13.1656 2.92875 17.0712C2.92875 17.0725 20 9.99999 20 9.99999L2.92875 2.92874Z" fill="#EC0017"/>
<path fill-rule="evenodd" clip-rule="evenodd" d="M1.73937 9.34751C1.74179 7.42759 3.29758 5.8718 5.2175 5.86938C7.13756 5.87145 8.69356 7.42745 8.69563 9.34751V10.6513C8.6939 12.5715 7.1377 14.1277 5.2175 14.1294C3.29744 14.1273 1.74144 12.5713 1.73937 10.6513V9.34751ZM5.86938 12.7256C6.77462 12.4402 7.39047 11.6011 7.39125 10.6519V9.34876C7.39125 8.15001 6.41562 7.17501 5.21687 7.17501C4.01812 7.17501 3.04312 8.15001 3.04312 9.34876V10.6525C3.0441 11.6016 3.65988 12.4407 4.565 12.7263V11.845L3.64312 10.9225L4.565 10V8.69563H5.86938V9.13064L5.87 9.45876L6.7925 10.3813L5.86938 11.3044V12.7256Z" fill="#FFD800"/>
</svg>
