<svg width="20" height="20" viewBox="0 0 20 20" fill="none" xmlns="http://www.w3.org/2000/svg">
<circle cx="10" cy="10" r="10" fill="#F0F0F0"/>
<path fill-rule="evenodd" clip-rule="evenodd" d="M19.8081 8.04374C19.0153 4.08193 15.9186 0.985045 11.9569 0.191864V8.04374H19.8081ZM19.8087 11.9562C19.015 15.9178 15.9184 19.0144 11.9569 19.8081V11.9562H19.8087ZM8.04375 19.8087C4.09 19.0237 0.975622 15.9094 0.191872 11.9569H8.04375V19.8087ZM0.191872 8.04374C0.984673 4.08167 4.08167 0.984665 8.04375 0.191864V8.04374H0.191872Z" fill="#3D6F21"/>
<path fill-rule="evenodd" clip-rule="evenodd" d="M9.34812 0.0218811V8.04376H8.04375V0.191881C8.46937 0.107506 8.905 0.0506311 9.34812 0.0218811ZM8.04375 11.9569H9.34812V19.9781C8.90437 19.9506 8.46937 19.8931 8.04375 19.8088V11.9569Z" fill="#FFD800"/>
<path fill-rule="evenodd" clip-rule="evenodd" d="M10 0C10.2194 0 10.4363 0.008125 10.6519 0.021875V8.04375H9.34813V0.021875C9.56375 0.008125 9.78063 0 10 0ZM10 20C9.78063 20 9.56375 19.9919 9.34813 19.9781V11.9569H10.6519V19.9781C10.4363 19.9919 10.2194 20 10 20Z" fill="black"/>
<path fill-rule="evenodd" clip-rule="evenodd" d="M0 9.99999C0 9.78061 0.008125 9.56374 0.021875 9.34811H8.04375V10.6519H0.021875C0.008125 10.4362 0 10.2194 0 9.99999ZM19.9781 10.6519H11.9569V9.34811H19.9781C19.9919 9.56374 20 9.78061 20 9.99999C20 10.2194 19.9919 10.4362 19.9781 10.6519Z" fill="black"/>
<path fill-rule="evenodd" clip-rule="evenodd" d="M8.04375 8.04376V9.34814H0.0218735C0.049661 8.91007 0.106452 8.47432 0.191873 8.04376H8.04375ZM19.9781 9.34814H11.9569V8.04376H19.8087C19.8936 8.47439 19.9502 8.91012 19.9781 9.34814Z" fill="#FFD800"/>
<ellipse cx="10" cy="10" rx="4.7825" ry="4.7825" fill="#EC0017"/>
<path fill-rule="evenodd" clip-rule="evenodd" d="M10.1619 6.58501L10 6.08688L9.83812 6.58501H9.31437L9.73812 6.89313L9.57625 7.39126L10 7.08313L10.4237 7.39126L10.2619 6.89313L10.6862 6.58501H10.1619ZM12.1381 7.33251L12.3 6.83438L11.8762 7.14251L11.4525 6.83438L11.6144 7.33251L11.19 7.64063H11.7144L11.8762 8.13876L12.0381 7.64063H12.5625L12.1381 7.33251ZM11.0894 10.5338C10.7337 9.82251 10.2712 9.10126 10.2712 9.10126C10.2712 9.10126 10.2825 8.77313 10.2825 8.57751C10.2798 8.29372 10.0555 8.06167 9.77193 8.04936C9.48839 8.03705 9.2448 8.24877 9.2175 8.53126C9.02943 8.54377 8.87265 8.67985 8.83381 8.86429C8.79498 9.04872 8.88357 9.23647 9.05062 9.32376C9.11819 9.16658 9.24889 9.04518 9.41062 8.98938C9.43715 9.01109 9.4656 9.03034 9.49562 9.04688L9.56375 9.07938C9.56375 9.07938 9.31 9.79376 9.31 10.1775C9.31 11.2569 10.0219 11.5888 10.0219 11.5888V11.6006L9.66625 11.9563H10.3781V11.2444L10.7331 11.6L10.7349 11.5987L10.7389 11.5958C10.804 11.55 11.3911 11.1372 11.0894 10.5338ZM6.80187 8.79063H6.27812L6.70187 9.09876L6.54 9.59688L6.96375 9.28876L7.3875 9.59688L7.22562 9.09876L7.64937 8.79063H7.12562L6.96375 8.29251L6.80187 8.79063ZM13.7219 8.79063L13.2975 9.09876L13.4594 9.59688L13.0356 9.28876L12.6119 9.59688L12.7731 9.09876L12.3494 8.79063H12.8731L13.0356 8.29251L13.1975 8.79063H13.7219ZM13.7219 11.2094H13.1975L13.0356 11.7081L12.8731 11.2094H12.35L12.7737 10.9013L12.6125 10.4031L13.0362 10.7113L13.46 10.4031L13.2981 10.9019L13.7219 11.2094ZM7.86187 12.6669L7.7 13.165L8.12375 12.8575L8.5475 13.1656L8.38562 12.6669L8.80937 12.3594H8.28562L8.12375 11.8613L7.96187 12.3594H7.43812L7.86187 12.6669ZM12.3 13.165L11.8762 12.8575L11.4525 13.1656L11.6144 12.6669L11.19 12.3594H11.7144L11.8762 11.8613L12.0381 12.3594H12.5625L12.1381 12.6669L12.3 13.165ZM10 13.9131L9.83812 13.415H9.31437L9.73812 13.1069L9.57625 12.6088L10 12.9163L10.4237 12.6088L10.2619 13.1069L10.6862 13.415H10.1619L10 13.9131ZM6.70187 10.9019L6.27812 11.2094H6.80187L6.96375 11.7081L7.12562 11.2094H7.64937L7.22562 10.9013L7.3875 10.4031L6.96375 10.7113L6.54 10.4031L6.70187 10.9019ZM7.7 6.83438L8.12375 7.14251L8.5475 6.83438L8.38562 7.33251L8.80937 7.64063H8.28562L8.12375 8.13876L7.96187 7.64063H7.43812L7.86187 7.33251L7.7 6.83438Z" fill="#3D6F21"/>
</svg>
