<svg width="20" height="20" viewBox="0 0 20 20" fill="none" xmlns="http://www.w3.org/2000/svg">
<path d="M20 10C20 15.5225 15.5225 20 10 20C4.4775 20 0 15.5225 0 10C0 10.0025 10 0.00125 10 0C15.5225 0 20 4.4775 20 10Z" fill="#008CFB"/>
<path d="M11.3044 6.52187V10C11.3044 12.33 14.3481 13.0431 14.3481 13.0431C14.3481 13.0431 17.3913 12.3294 17.3913 10V6.52187L14.3481 5.6525L11.3044 6.52187Z" fill="#F3F3F3"/>
<path d="M17.7536 6.30437V5H11.6667V6.30437H14.2754V8.91312H11.6667V9.7825H14.2754V12.6925C14.5379 12.785 14.7104 12.8256 14.7104 12.8256C14.7104 12.8256 14.8823 12.7856 15.1448 12.6925V9.7825H17.7536V8.91312H15.1448V6.30437H17.7536Z" fill="#EC0017"/>
<path fill-rule="evenodd" clip-rule="evenodd" d="M10 8.155V4.7825H6.52189L10 8.155ZM8.15564 10H5.21752L4.78314 9.13063L5.21752 6.08688L8.15564 10Z" fill="#0054BB"/>
<path fill-rule="evenodd" clip-rule="evenodd" d="M10 0V5.2175H7.06187L10 8.15562V9.97312V10H9.97312H8.155L5.2175 7.06187V10H0C0 4.4775 4.47625 0.000625 9.99813 0H10Z" fill="#F0F0F0"/>
<path fill-rule="evenodd" clip-rule="evenodd" d="M1.30438 5.05937C2.1965 3.49349 3.4935 2.19649 5.05938 1.30437H10V3.91312H3.91313V10H1.30438V5.05937ZM6.44688 5.21687L10 8.77V10L5.21751 5.21687H6.44688Z" fill="#EC0017"/>
</svg>
