<svg width="20" height="20" viewBox="0 0 20 20" fill="none" xmlns="http://www.w3.org/2000/svg">
<circle cx="10" cy="10" r="10" fill="#F0F0F0"/>
<path fill-rule="evenodd" clip-rule="evenodd" d="M3.77501 2.17374H16.225C17.14 2.90275 17.921 3.78552 18.5331 4.78249H1.46814C2.07943 3.78529 2.86011 2.90245 3.77501 2.17374ZM11.2544 7.82624H13.765L12.51 9.99999L13.7656 12.1737H11.255L10 14.3481L8.74564 12.1744H6.23501L7.49001 9.99999L6.23501 7.82624H8.74502L10 5.65186L11.2544 7.82624ZM3.77501 17.8256C2.85982 17.0972 2.07909 16.2143 1.46814 15.2169H18.5319C17.9209 16.2143 17.1402 17.0972 16.225 17.8256H3.77501ZM10 12.6706L9.71314 12.1737H10.2869L10 12.6706ZM12.0263 10.8387L11.7394 11.3356H12.3131L12.0263 10.8387ZM7.68689 11.3356L7.97376 10.8387L8.26064 11.3356H7.68689ZM12.0263 9.16124L12.3131 8.66436H11.7394L12.0263 9.16124ZM11.5419 9.99999L10.7719 11.3356H9.22939L8.45814 9.99999L9.22939 8.66436H10.7713L11.5419 9.99999ZM8.26064 8.66436H7.68689L7.97376 9.16124L8.26064 8.66436ZM10 7.32936L10.2869 7.82624H9.71314L10 7.32936Z" fill="#0054BB"/>
</svg>
