<svg width="20" height="20" viewBox="0 0 20 20" fill="none" xmlns="http://www.w3.org/2000/svg">
<circle cx="10" cy="10" r="10" fill="#F0F0F0"/>
<path d="M10 20C13.965 20 17.39 17.6931 19.0075 14.3481H0.991882C2.61001 17.6931 6.03563 20 10 20Z" fill="#5AA731"/>
<circle cx="10" cy="10" r="3.47813" fill="#0054BB"/>
<circle cx="10" cy="10" r="2.17375" fill="#F0F0F0"/>
<path d="M10 7.3175L10.6706 8.83875L12.3231 8.65875L11.3413 10L12.3225 11.3413L10.67 11.1613L10 12.6825L9.32938 11.1613L7.67688 11.3413L8.65875 10L7.67688 8.65875L9.32938 8.83875L10 7.3175Z" fill="#0054BB"/>
<path d="M10 0C6.03563 0 2.61001 2.30687 0.991882 5.65187H19.0075C17.39 2.30687 13.965 0 10 0Z" fill="#FF9100"/>
</svg>
