<svg width="20" height="20" viewBox="0 0 20 20" fill="none" xmlns="http://www.w3.org/2000/svg">
<path d="M17.0713 17.0713C20.8213 13.3206 20.9694 7.33316 17.5169 3.40505L10.0001 10L3.40508 17.5169C7.33319 20.97 13.3207 20.8212 17.0713 17.0713Z" fill="#3D6F21"/>
<path d="M2.9288 2.9288C6.67879 -0.821816 12.6669 -0.96994 16.595 2.48317L10 10L2.48317 16.595C-0.96994 12.6669 -0.821816 6.67941 2.9288 2.9288Z" fill="#0054BB"/>
<path d="M16.595 2.48318L2.48321 16.595C2.62571 16.7575 2.77383 16.9169 2.92883 17.0719C3.08383 17.2269 3.24321 17.3744 3.4057 17.5175L17.5169 3.40505C17.3734 3.24142 17.2248 3.08238 17.0713 2.92818C16.9173 2.77484 16.7585 2.62643 16.595 2.48318Z" fill="#FFD800"/>
<path fill-rule="evenodd" clip-rule="evenodd" d="M4.42944 4.14254L4.21319 3.47817L3.99757 4.14254H3.29882L3.86444 4.55317L3.64819 5.21754L4.21319 4.80629L4.77819 5.21754L4.56256 4.55317L5.12756 4.14254H4.42944ZM7.7813 3.47817L7.99693 4.14254H8.69568L8.13068 4.55317L8.3463 5.21754L7.7813 4.80629L7.21631 5.21691L7.43193 4.55254L6.86693 4.14192H7.56568L7.7813 3.47817ZM6.21318 5.88129L5.99756 5.21754L5.78131 5.88129H5.08319L5.64819 6.29191L5.43194 6.95628L5.99756 6.54566L6.56256 6.95628L6.34693 6.29191L6.91193 5.88129H6.21318ZM4.21319 6.95628L4.42944 7.62066H5.12756L4.56256 8.03128L4.77819 8.69565L4.21319 8.28503L3.64819 8.69565L3.86444 8.03128L3.29944 7.62066H3.99819L4.21319 6.95628ZM7.7813 6.95628L7.99693 7.62066H8.69568L8.13068 8.03128L8.3463 8.69565L7.7813 8.28503L7.21631 8.69565L7.43193 8.03128L6.86693 7.62066H7.56568L7.7813 6.95628Z" fill="#F0F0F0"/>
</svg>
