<svg width="20" height="20" viewBox="0 0 20 20" fill="none" xmlns="http://www.w3.org/2000/svg">
<path fill-rule="evenodd" clip-rule="evenodd" d="M7.82625 0.2375C8.52625 0.0825 9.25313 0 10 0C15.5225 0 20 4.4775 20 10C20 15.5225 15.5225 20 10 20C9.25313 20 8.52625 19.9169 7.82625 19.7619L7.39125 10L7.82625 0.2375ZM0 10C0 7.40563 0.988125 5.04187 2.60875 3.26437L3.04375 10L2.60875 16.7356C0.988125 14.9588 0 12.5944 0 10Z" fill="#3D6F21"/>
<path fill-rule="evenodd" clip-rule="evenodd" d="M11.8969 3.56128L11.4694 4.11378L10.8112 3.87815L11.205 4.45565L10.7769 5.00815L11.4475 4.81253L11.8412 5.3894L11.8619 4.69128L12.5319 4.49565L11.875 4.26003L11.8969 3.56128ZM13.3787 3.93753C14.5895 4.69749 15.1082 6.1976 14.6256 7.54315C14.1424 8.88847 12.7884 9.71652 11.3706 9.53378C12.1513 10.0236 13.112 10.1333 13.983 9.83214C14.8541 9.53093 15.5418 8.85126 15.8531 7.98378C16.1645 7.11625 16.066 6.15432 15.5851 5.36797C15.1042 4.58162 14.2929 4.05559 13.3787 3.93753ZM9.38749 6.83128L9.81499 6.27878L9.79374 6.97753L10.4512 7.21315L9.78062 7.40878L9.75937 8.1069L9.36624 7.5294L8.69562 7.72503L9.12312 7.17253L8.72999 6.59565L9.38749 6.83128ZM12.6237 5.91378L13.0519 5.36128L13.0294 6.06065L13.6869 6.29628L13.0169 6.4919L12.995 7.19003L12.6019 6.61253L11.9319 6.80815L12.3594 6.25565L11.9662 5.67815L12.6237 5.91378ZM11.7769 6.98253L11.3487 7.53503L10.6919 7.2994L11.085 7.8769L10.6575 8.42878L11.3275 8.23315L11.7206 8.81003L11.7419 8.1119L12.4125 7.91628L11.7544 7.68065L11.7769 6.98253ZM9.43437 4.7694L9.86187 4.2169L9.84062 4.91628L10.4981 5.1519L9.82749 5.34753L9.80624 6.04565L9.41312 5.46815L8.74249 5.66378L9.16999 5.11128L8.77687 4.53378L9.43437 4.7694Z" fill="#F0F0F0"/>
<path d="M2.60876 3.26442V16.7357C3.99449 18.258 5.81678 19.315 7.82626 19.7619V0.237549C5.81672 0.684696 3.99443 1.74188 2.60876 3.26442H2.60876Z" fill="#EC0017"/>
<path d="M4.59938 16.9569L3.72626 16.3062V15.3856L4.59938 14.735H5.83501L6.70876 15.3856V16.3062L5.83501 16.9569H4.59938Z" fill="#F0F0F0"/>
<path fill-rule="evenodd" clip-rule="evenodd" d="M4.59938 14.735H5.21751V15.8356H3.72626V15.3856L4.59938 14.735ZM5.83501 16.9569H5.21751V15.8362H6.70876V16.3062L5.83501 16.9569Z" fill="#FF9100"/>
<path fill-rule="evenodd" clip-rule="evenodd" d="M6.35874 6.69688H6.73874V7.4575H6.35812V7.8375H5.68937L5.21687 8.31063L4.74437 7.8375H4.07624V7.4575H3.69562V6.69688H4.07624V6.31625H4.74499L5.21749 5.84375L5.68999 6.31625H6.35874V6.69688ZM4.59937 11.1106L3.72624 10.46V9.53938L4.59937 8.88875H5.83499L6.70874 9.53938V10.46L5.83499 11.1106H4.59937ZM6.73874 12.5425H6.35874V12.1619H5.68999L5.21749 11.6894L4.74499 12.1619H4.07624V12.5425H3.69562V13.3031H4.07624V13.6837H4.74437L5.21687 14.1562L5.68937 13.6837H6.35812V13.3031H6.73874V12.5425Z" fill="#3D6F21"/>
<circle cx="5.2175" cy="12.9232" r="0.435" fill="#EC0017"/>
<path d="M4.7825 9.56494H5.65188V10.4343H4.7825V9.56494Z" fill="#EC0017"/>
<ellipse cx="5.2175" cy="7.07685" rx="0.435" ry="0.435" fill="#EC0017"/>
<path d="M4.59938 5.26495L3.72626 4.61433V3.69433L4.59938 3.0437H5.83501L6.70876 3.69433V4.61433L5.83501 5.26495H4.59938Z" fill="#F0F0F0"/>
<path fill-rule="evenodd" clip-rule="evenodd" d="M4.59938 3.0437H5.21751V4.14433H3.72626V3.69433L4.59938 3.0437ZM5.83501 5.26495H5.21751V4.14495H6.70876V4.61433L5.83501 5.26495Z" fill="#FF9100"/>
</svg>
