<svg width="20" height="20" viewBox="0 0 20 20" fill="none" xmlns="http://www.w3.org/2000/svg">
<path d="M20 10C20 15.5225 15.5225 20 10 20C4.4775 20 0 15.5225 0 10C0 10.0025 10 0.00125 10 0C15.5225 0 20 4.4775 20 10Z" fill="#0054BB"/>
<path d="M16.9119 11.4637C17.1994 11.0681 17.3919 10.585 17.3919 10V5.65187C17.0281 5.925 16.5762 6.08687 16.0875 6.08687C15.3762 6.08687 14.745 5.74562 14.3487 5.2175C13.9519 5.74562 13.32 6.08687 12.6094 6.08687C12.12 6.08687 11.6681 5.925 11.305 5.65187V10C11.305 10.585 11.4975 11.0681 11.785 11.4637H16.9119Z" fill="#F3F3F3"/>
<path d="M11.6763 11.3044C12.4888 12.6075 14.3481 13.0431 14.3481 13.0431C14.3481 13.0431 16.2075 12.6075 17.0188 11.3044H11.6763Z" fill="#008CFB"/>
<path fill-rule="evenodd" clip-rule="evenodd" d="M12.9406 7.34687C13.1531 7.22375 13.6344 7.07062 13.9963 7.02125L14.4288 6.42875C14.5775 6.545 14.7069 6.69062 14.8069 6.86375C14.9069 7.03687 14.9688 7.22187 14.9944 7.40875L14.2644 7.48687C14.0413 7.77562 13.6681 8.11562 13.455 8.23812C13.1131 8.43562 12.5788 8.15 12.5788 8.15C12.5788 8.15 12.5988 7.54437 12.9406 7.34687ZM16.0069 9.19312C16.1456 8.855 16.2538 8.36187 16.2538 8.11625C16.2538 7.72125 15.7388 7.40125 15.7388 7.40125C15.7388 7.40125 15.2244 7.72125 15.2244 8.11625C15.2244 8.36187 15.3325 8.85562 15.4706 9.19312L15.1738 9.86375C15.3481 9.935 15.5388 9.97437 15.7388 9.97437C15.9388 9.97437 16.13 9.935 16.3044 9.86375L16.0069 9.19312ZM13.1206 9.84938C13.3431 10.1375 13.7175 10.4775 13.9306 10.6006C14.2725 10.7981 14.8069 10.5125 14.8069 10.5125C14.8069 10.5125 14.7863 9.90688 14.445 9.70937C14.2319 9.58687 13.7513 9.43313 13.3894 9.38375L12.9569 8.79125C12.8088 8.90687 12.6788 9.0525 12.5788 9.22562C12.4794 9.39875 12.4175 9.58437 12.3919 9.77125L13.1206 9.84938Z" fill="#FF9100"/>
<path fill-rule="evenodd" clip-rule="evenodd" d="M10 0V5.2175H7.06187L10 8.15562V9.97312V10H9.97312H8.155L5.2175 7.06187V10H0C0 4.4775 4.47625 0.000625 9.99813 0H10Z" fill="#F0F0F0"/>
<path fill-rule="evenodd" clip-rule="evenodd" d="M1.30437 5.05937C2.195 3.495 3.495 2.195 5.05937 1.30437H10V3.91312H3.91312V10H1.30437V5.05937ZM6.44687 5.21687L10 8.77V10L5.2175 5.21687H6.44687Z" fill="#EC0017"/>
</svg>
