<svg width="20" height="20" viewBox="0 0 20 20" fill="none" xmlns="http://www.w3.org/2000/svg">
<circle cx="10" cy="10" r="10" fill="#FFD800"/>
<path fill-rule="evenodd" clip-rule="evenodd" d="M9.565 4C9.565 4 9.9925 0 10 0C13.2713 0 16.1763 1.57125 18.0006 4H9.565ZM19.8 8H9.565L10 12H19.8C19.9312 11.3538 20 10.685 20 10C20 9.315 19.9312 8.64625 19.8 8ZM10 20C13.2713 20 16.1763 18.4287 18.0006 16H1.99938C3.82375 18.4287 6.72875 20 10 20Z" fill="#3D6F21"/>
<path d="M10 12V0C4.4775 0 0 4.4775 0 10C0 10.685 0.06875 11.3537 0.2 12H10Z" fill="#EC0017"/>
<path d="M5.51812 4.78247L6.16562 6.77497H8.26125L6.56625 8.00685L7.21312 9.99997L5.51812 8.7681L3.8225 9.99997L4.47 8.00747L2.775 6.7756H4.87062L5.51812 4.78247V4.78247Z" fill="#F0F0F0"/>
</svg>
