<svg width="20" height="20" viewBox="0 0 20 20" fill="none" xmlns="http://www.w3.org/2000/svg">
<path d="M19.0075 14.3482C19.6437 13.0338 20 11.5582 20 10C20 8.4419 19.6437 6.9669 19.0075 5.6519L10 5.21753L0.991875 5.6519C0.35625 6.9669 0 8.4419 0 10C0 11.5582 0.35625 13.0338 0.991875 14.3482L10 14.7825L19.0075 14.3482Z" fill="#FFD800"/>
<path d="M10 20C6.03563 20 2.61 17.6931 0.991875 14.3481H19.0075C17.39 17.6931 13.965 20 10 20Z" fill="#0054BB"/>
<path d="M19.5275 6.9563H0.471875C0.16625 7.9163 0 8.9388 0 10C0 11.0613 0.16625 12.0838 0.471875 13.0432H19.5275C19.8337 12.0838 20 11.0613 20 10C20 8.9388 19.8337 7.9163 19.5275 6.9563Z" fill="#B20013"/>
<path fill-rule="evenodd" clip-rule="evenodd" d="M14.7831 7.82629H5.2175V8.69567H14.7831V7.82629ZM16.5212 9.56504H3.47813V10.4344H16.5212V9.56504Z" fill="#FFD800"/>
<path d="M14.845 9.99999C14.845 9.99999 12.6087 12.6087 10 12.6087L7.39125 9.99999C7.39125 9.99999 7.39125 7.39124 10 7.39124L14.845 9.99999Z" fill="#F0F0F0"/>
<path d="M10.8694 9.13062H11.74V10.8694H10.8694V9.13062V9.13062Z" fill="black"/>
<path d="M10 12.6087C7.39125 12.6087 5.15563 9.99999 5.15563 9.99999C5.15563 9.99999 7.39188 7.39124 10 7.39124" fill="black"/>
<path d="M8.26062 9.13062H9.13062V10.8694H8.26062V9.13062V9.13062Z" fill="#F0F0F0"/>
<ellipse cx="16.5219" cy="9.99999" rx="0.869375" ry="0.869375" fill="#0054BB"/>
<ellipse cx="3.47812" cy="9.99999" rx="0.869375" ry="0.869375" fill="#0054BB"/>
<path d="M10 0C6.03563 0 2.61 2.30687 0.991875 5.65187H19.0075C17.39 2.30687 13.965 0 10 0Z" fill="black"/>
</svg>
