<svg width="20" height="20" viewBox="0 0 20 20" fill="none" xmlns="http://www.w3.org/2000/svg">
<path d="M0 10C0 4.4775 4.4775 0 10 0C15.5225 0 20 4.4775 20 10" fill="#EC0017"/>
<path fill-rule="evenodd" clip-rule="evenodd" d="M10.6518 3.26062H12.6087C12.6087 3.62048 12.2963 3.91188 11.9367 3.9125H11.9562C11.9562 4.2725 11.6637 4.56437 11.3037 4.56437C11.3037 4.92438 11.0112 5.21625 10.6512 5.21625H9.34748C8.98748 5.21625 8.6956 4.925 8.6956 4.56437C8.3356 4.56437 8.04373 4.2725 8.04373 3.9125H8.0656C7.7056 3.9125 7.39185 3.62062 7.39185 3.26062H9.3481C9.3481 2.9006 9.63995 2.60875 9.99997 2.60875C10.36 2.60875 10.6518 2.9006 10.6518 3.26062ZM12.0569 9.96812L13.4781 9.3L12.0575 8.63187L12.8144 7.255L11.2712 7.55L11.0756 5.99125L9.99998 7.1375L8.92498 5.99187L8.72935 7.55062L7.18623 7.25562L7.9431 8.63187L6.52185 9.30062L7.9431 9.96875L7.18623 11.3456L8.72935 11.05L8.92498 12.6087L9.99998 11.4625L11.075 12.6081L11.2706 11.0494L12.8137 11.345L12.0569 9.96812Z" fill="#FFD800"/>
<path d="M20 10C20 15.5225 15.5225 20 10 20C4.4775 20 0 15.5225 0 10H20Z" fill="#F0F0F0"/>
<path fill-rule="evenodd" clip-rule="evenodd" d="M17.5 10.8945C17.7084 11.0851 17.9167 11.2756 18.3331 11.2756C18.7496 11.2756 18.958 11.0853 19.1665 10.895C19.3729 10.7065 19.5792 10.5181 19.9875 10.5144C19.9644 10.9719 19.91 11.4206 19.8269 11.8594C19.5215 11.9042 19.3441 12.0661 19.1667 12.228C18.9581 12.4184 18.7496 12.6087 18.3331 12.6087C17.9167 12.6087 17.7084 12.4184 17.5 12.2279C17.2916 12.0374 17.0832 11.8469 16.6663 11.8469C16.2497 11.8469 16.0414 12.0373 15.8331 12.2278C15.6249 12.4183 15.4166 12.6087 15 12.6087C14.583 12.6087 14.3745 12.4181 14.1662 12.2276C13.958 12.0372 13.7499 11.8469 13.3338 11.8469C12.9169 11.8469 12.7084 12.0373 12.5 12.2278C12.2916 12.4183 12.0831 12.6087 11.6663 12.6087L10 11.8469C9.58306 11.8469 9.37462 12.0374 9.16622 12.2279C8.9579 12.4184 8.74962 12.6087 8.33314 12.6087C7.91657 12.6087 7.70829 12.4183 7.50001 12.2278C7.29173 12.0373 7.08345 11.8469 6.66689 11.8469C5.83314 11.8469 5.00001 12.6087 5.00001 12.6087L3.33314 11.8469C2.91682 11.8469 2.70853 12.0371 2.50022 12.2274C2.29166 12.4179 2.08307 12.6084 1.66564 12.6081C1.24923 12.6081 1.04086 12.4178 0.83246 12.2274C0.655185 12.0655 0.477892 11.9036 0.172512 11.8587C0.0900122 11.42 0.0356372 10.9706 0.0125122 10.5137C0.420697 10.5178 0.62693 10.7063 0.833116 10.8948C1.04145 11.0852 1.24974 11.2756 1.66626 11.2756C2.08322 11.2756 2.29165 11.0849 2.50005 10.8943C2.70837 10.7037 2.91665 10.5131 3.33314 10.5131C4.16689 10.5131 5.00001 11.2756 5.00001 11.2756L6.66689 10.5131C7.08345 10.5131 7.29173 10.7037 7.50001 10.8944C7.70829 11.085 7.91657 11.2756 8.33314 11.2756C8.75009 11.2756 8.95853 11.0849 9.16692 10.8943C9.37524 10.7037 9.58353 10.5131 10 10.5131C10.4166 10.5131 10.6249 10.7037 10.8331 10.8944C11.0414 11.085 11.2497 11.2756 11.6663 11.2756C12.0831 11.2756 12.2916 11.085 12.5 10.8944C12.7084 10.7037 12.9169 10.5131 13.3338 10.5131C13.7499 10.5131 13.958 10.7036 14.1662 10.8942C14.3745 11.0849 14.583 11.2756 15 11.2756C15.4166 11.2756 15.6249 11.085 15.8331 10.8944C16.0414 10.7037 16.2497 10.5131 16.6663 10.5131C17.0832 10.5131 17.2916 10.7038 17.5 10.8945ZM16.6663 13.1225C16.2497 13.1225 16.0414 13.313 15.8331 13.5034C15.6249 13.6939 15.4166 13.8844 15 13.8844C14.583 13.8844 14.3745 13.6938 14.1662 13.5032C13.958 13.3128 13.7499 13.1225 13.3338 13.1225C12.9169 13.1225 12.7085 13.313 12.5 13.5034C12.2916 13.6939 12.0831 13.8844 11.6663 13.8844L10 13.1225C9.58353 13.1225 9.37525 13.3129 9.16693 13.5033C8.95853 13.6938 8.75009 13.8844 8.33314 13.8844C7.91658 13.8844 7.70829 13.6939 7.50001 13.5034C7.29173 13.313 7.08345 13.1225 6.66689 13.1225L5.00001 13.8844C5.00001 13.8844 4.16689 13.1225 3.33314 13.1225C2.91657 13.1225 2.70829 13.313 2.50001 13.5034C2.29173 13.6939 2.08345 13.8844 1.66689 13.8844C1.24998 13.8844 1.0416 13.6936 0.833202 13.5028C0.743868 13.421 0.65453 13.3393 0.548762 13.2725C0.781338 13.9453 1.08559 14.5911 1.45626 15.1987C1.52001 15.2112 1.59001 15.2169 1.66626 15.2169C2.0833 15.2172 2.29174 15.0267 2.50018 14.8363C2.70846 14.6459 2.91674 14.4556 3.33314 14.4556L5.00001 15.2175C5.00001 15.2175 5.83314 14.4556 6.66689 14.4556C7.08345 14.4556 7.29173 14.6461 7.50001 14.8366C7.70829 15.027 7.91658 15.2175 8.33314 15.2175C8.74962 15.2175 8.9579 15.0271 9.16623 14.8367C9.37462 14.6462 9.58306 14.4556 10 14.4556L11.6663 15.2175C12.0831 15.2175 12.2916 15.027 12.5 14.8366C12.7085 14.6461 12.9169 14.4556 13.3338 14.4556C13.7499 14.4556 13.958 14.6459 14.1662 14.8363C14.3745 15.0269 14.583 15.2175 15 15.2175C15.4166 15.2175 15.6249 15.027 15.8331 14.8366C16.0414 14.6461 16.2497 14.4556 16.6663 14.4556C17.0832 14.4556 17.2917 14.6462 17.5001 14.8367C17.7084 15.0271 17.9167 15.2175 18.3331 15.2175C18.41 15.2175 18.4794 15.2112 18.5438 15.1994C18.9142 14.5915 19.2184 13.9458 19.4513 13.2731C19.3457 13.3397 19.2564 13.4214 19.1671 13.5032C18.9587 13.694 18.75 13.885 18.3331 13.885C17.9167 13.8847 17.7085 13.6942 17.5002 13.5037C17.2917 13.3131 17.0833 13.1225 16.6663 13.1225ZM10 20C13.1263 20 15.9163 18.5656 17.75 16.3194C17.6593 16.2574 17.5801 16.185 17.5008 16.1126C17.2921 15.9219 17.0834 15.7312 16.6663 15.7312C16.2497 15.7312 16.0414 15.9217 15.8331 16.1122C15.6249 16.3027 15.4166 16.4931 15 16.4931C14.583 16.4931 14.3745 16.3025 14.1662 16.112C13.958 15.9216 13.7499 15.7312 13.3338 15.7312C12.9169 15.7312 12.7085 15.9217 12.5 16.1122C12.2916 16.3027 12.0831 16.4931 11.6663 16.4931C11.2497 16.4931 11.0414 16.3027 10.8331 16.1122C10.6249 15.9217 10.4166 15.7312 10 15.7312C9.58353 15.7312 9.37525 15.9216 9.16693 16.1121C8.95853 16.3026 8.75009 16.4931 8.33314 16.4931C7.91658 16.4931 7.70829 16.3027 7.50001 16.1122C7.29173 15.9217 7.08345 15.7312 6.66689 15.7312L5.00001 16.4931C5.00001 16.4931 4.16689 15.7312 3.33314 15.7312C2.91615 15.7312 2.70776 15.9218 2.49936 16.1124C2.42007 16.1849 2.34079 16.2574 2.25001 16.3194C4.14726 18.6507 6.99423 20.0028 10 20Z" fill="#0054BB"/>
<path d="M19.9688 9.21001C19.1676 9.22876 19.1557 9.97126 18.3332 9.97126C17.5001 9.97126 17.5001 9.20938 16.6663 9.20938C15.8332 9.20938 15.8332 9.97126 15.0001 9.97126C14.1663 9.97126 14.1663 9.20938 13.3338 9.20938C12.5001 9.20938 12.5001 9.97126 11.6663 9.97126C10.8332 9.97126 10.8332 9.20938 10.0001 9.20938C9.16694 9.20938 9.16694 9.97126 8.33319 9.97126C7.50006 9.97126 7.50006 9.20938 6.66694 9.20938L5.00006 9.97126C5.00006 9.97126 4.16694 9.20938 3.33319 9.20938C2.50006 9.20876 2.50006 9.97126 1.66694 9.97126C0.84444 9.97126 0.83319 9.22938 0.0313146 9.21001C-0.00369779 9.65353 -0.00912647 10.0989 0.0150646 10.5431C0.83319 10.5519 0.83819 11.3044 1.66694 11.3044C2.50006 11.3044 2.50006 10.5425 3.33319 10.5425L5.00006 11.3044C5.00006 11.3044 5.83319 10.5425 6.66694 10.5425C7.50006 10.5425 7.50006 11.3044 8.33319 11.3044C9.16631 11.3044 9.16631 10.5425 10.0001 10.5425L11.6663 11.3044C12.5001 11.3044 12.5001 10.5425 13.3338 10.5425C14.1663 10.5425 14.1663 11.3044 15.0001 11.3044C15.8332 11.3044 15.8332 10.5425 16.6663 10.5425C17.5001 10.5425 17.5001 11.3044 18.3332 11.3044C19.1613 11.3044 19.1669 10.5519 19.9857 10.5431C20.0088 10.0989 20.0031 9.65355 19.9688 9.21001Z" fill="#F0F0F0"/>
</svg>
