<svg width="20" height="20" viewBox="0 0 20 20" fill="none" xmlns="http://www.w3.org/2000/svg">
<path d="M20 9.99999C20 15.5225 15.5225 20 10 20C4.4775 20 0 15.5225 0 9.99999C0.435 9.99999 10 8.69562 10 8.69562L20 9.99999Z" fill="#EC0017"/>
<path d="M0 10C0 4.4775 4.4775 0 10 0C15.5225 0 20 4.4775 20 10" fill="#0054BB"/>
<path d="M7.39126 6.95627C7.39072 6.44204 7.08825 5.97607 6.61878 5.76624C6.14931 5.5564 5.60039 5.64182 5.21688 5.9844V5.21752H5.65188V4.34815H5.21751V3.91315H4.34813V4.34815H3.91313V5.21752H4.34813V5.98502C3.80918 5.52676 3.00316 5.58167 2.53133 6.10878C2.05949 6.63589 2.09384 7.44303 2.60876 7.92815V8.69565H6.95688V7.92815C7.22313 7.6894 7.39126 7.34315 7.39126 6.95627Z" fill="#FFD800"/>
</svg>
