<svg width="20" height="20" viewBox="0 0 20 20" fill="none" xmlns="http://www.w3.org/2000/svg">
<mask id="mask0_219_122129" style="mask-type:alpha" maskUnits="userSpaceOnUse" x="0" y="0" width="20" height="20">
<path d="M10 0C15.5232 0 20 4.4768 20 10C20 15.5232 15.5232 20 10 20C4.4768 20 0 15.5232 0 10C0 4.4768 4.4768 0 10 0Z" fill="white"/>
</mask>
<g mask="url(#mask0_219_122129)">
<path fill-rule="evenodd" clip-rule="evenodd" d="M-0.869568 -0.869568H20.8696V20.8696H-0.869568V-0.869568Z" fill="#F0F0F0"/>
</g>
<mask id="mask1_219_122129" style="mask-type:alpha" maskUnits="userSpaceOnUse" x="1" y="0" width="18" height="20">
<path d="M18.784 14.7824C18.6633 15.004 18.5346 15.2205 18.3981 15.4314L18.4577 15.3382C18.4077 15.4173 18.3566 15.4956 18.3044 15.5732L18.3148 15.5574L18.2307 15.6818L18.2306 15.6815L18.0707 15.906C17.9649 16.0504 17.8553 16.1918 17.7421 16.3301L17.7425 16.3309C17.4509 16.6858 17.1358 17.021 16.7991 17.3333L16.8669 17.2711L16.7622 17.3685L16.6565 17.4643L16.7 17.4243L16.6001 17.513L16.6007 17.5134L16.4277 17.6613L16.2652 17.7948L16.3822 17.6999C16.3054 17.7635 16.2276 17.8261 16.1488 17.8875L16.2517 17.8056L16.131 17.9009L16.0391 17.9713L16.1304 17.9017L16.0396 17.9714C16.0031 17.9991 15.9663 18.0265 15.9293 18.0538L15.9296 18.0533C15.7634 18.1758 15.5936 18.293 15.4199 18.4049L15.3785 18.4321L15.1088 18.5976C13.837 19.3533 12.4162 19.8149 10.9511 19.9547L10.6304 19.9809L10.6123 19.9813L10.6157 19.9817L10.6304 19.9809L10.7058 19.9755L10.6157 19.9817L10.5449 19.9854L10.3828 19.9927L10.3135 19.9952L10 20L9.80847 19.9982L9.63218 19.993L9.59305 19.9922L9.44609 19.9843L9.29424 19.9755C7.74295 19.8655 6.23404 19.3955 4.8912 18.5976C4.7862 18.5352 4.68248 18.471 4.58007 18.4049L4.57971 18.4052L4.28165 18.2049L4.0087 18.0078L3.96087 17.9722L3.96032 17.971L3.86881 17.9012L3.85147 17.8872C3.77282 17.8258 3.69512 17.7633 3.61839 17.6996L3.61776 17.6999L3.48025 17.583L3.34522 17.4652L3.39826 17.513L3.29914 17.4243L3.23846 17.3679L3.2287 17.36L3.13313 17.2711C2.79842 16.9536 2.48489 16.6137 2.19579 16.2534L2.19541 16.2541C2.0471 16.0681 1.90487 15.8773 1.76945 15.6815L1.68486 15.5572L1.69535 15.5732L1.61739 15.4565L1.54232 15.3382L1.38202 15.0754L1.216 14.7824H18.784ZM1.76928 4.3182L1.76945 4.31849L1.97738 4.0281L2.13218 3.82696L2.16901 3.78012C2.1984 3.74317 2.22805 3.70642 2.25795 3.6699L2.25755 3.66912C2.54908 3.31424 2.86424 2.97901 3.20095 2.66669L3.13313 2.72894L3.23777 2.63155L3.20095 2.66669C3.26646 2.60592 3.33279 2.54602 3.39992 2.487L3.39927 2.48657L3.57235 2.33871L3.73392 2.20609L3.61826 2.3L3.73376 2.20547L3.74 2.20087L3.7487 2.19391L3.86898 2.09915L3.9487 2.03826L3.86435 2.10261L3.96036 2.02864C3.99694 2.00093 4.03372 1.97347 4.07069 1.94625L4.07036 1.94669C4.23657 1.82415 4.40642 1.70702 4.58007 1.59506L4.62155 1.5679L4.8912 1.4024C6.16304 0.646672 7.58384 0.185086 9.04886 0.0452787L9.3687 0.02L9.38767 0.01874L9.38348 0.0191304L9.3687 0.02L9.29424 0.0245144L9.38348 0.0191304L9.45515 0.0145883L9.61723 0.00731855L9.68909 0.00474055L10 0L10.3106 0.00469422C10.3346 0.00543297 10.3587 0.00625872 10.3828 0.00717135L10.5464 0.0147221L10.7101 0.0248174C12.2599 0.134741 13.7672 0.605228 15.1088 1.4024C15.2303 1.47453 15.3501 1.54914 15.4681 1.62616L15.4711 1.62786L15.5861 1.70522L15.7039 1.78498L15.906 1.92932L16.0214 2.01515L16.1313 2.1L16.0526 2.03807C16.1198 2.08914 16.1863 2.14105 16.2522 2.19376L16.1513 2.11565L16.2593 2.20055C16.3004 2.23351 16.3411 2.2668 16.3816 2.30039L16.3824 2.2998C16.9031 2.73312 17.38 3.21784 17.8042 3.74659L17.805 3.74569C17.9509 3.92948 18.0914 4.11764 18.2252 4.31073L18.161 4.21798L18.2383 4.32873L18.3043 4.42696L18.2974 4.41739L18.37 4.52486L18.4704 4.68194L18.6181 4.92459L18.784 5.2176H1.216C1.33669 4.99598 1.46544 4.77952 1.6019 4.56859L1.61739 4.54435L1.63044 4.52522L1.68522 4.44087C1.71257 4.40099 1.74077 4.35948 1.76928 4.3182Z" fill="white"/>
</mask>
<g mask="url(#mask1_219_122129)">
<path fill-rule="evenodd" clip-rule="evenodd" d="M0.346436 -0.870361H19.6536V20.8696H0.346436V-0.870361Z" fill="#D80027"/>
</g>
<mask id="mask2_219_122129" style="mask-type:alpha" maskUnits="userSpaceOnUse" x="6" y="6" width="8" height="8">
<path d="M11.0752 6.69201C11.7736 6.91921 12.3824 7.36161 12.8144 7.95521C13.2456 8.54961 13.4784 9.26561 13.4784 10C13.4784 11.9216 11.9216 13.0432 10 13.0432C8.07841 13.0432 6.52161 11.9216 6.52161 10C6.52161 9.26561 6.75441 8.54961 7.18561 7.95521C7.61761 7.36161 8.22641 6.91921 8.92481 6.69201C9.62401 6.46481 10.376 6.46481 11.0752 6.69201Z" fill="white"/>
</mask>
<g mask="url(#mask2_219_122129)">
<path fill-rule="evenodd" clip-rule="evenodd" d="M5.65204 5.59525H14.348V13.9128H5.65204V5.59525Z" fill="#FFDA44"/>
</g>
<mask id="mask3_219_122129" style="mask-type:alpha" maskUnits="userSpaceOnUse" x="6" y="10" width="8" height="4">
<path d="M13.4784 10C13.4784 10.9224 13.112 11.8072 12.46 12.46C11.8072 13.112 10.9224 13.4784 10 13.4784C9.07761 13.4784 8.19281 13.112 7.54001 12.46C6.88801 11.8072 6.52161 10.9224 6.52161 10H13.4784Z" fill="white"/>
</mask>
<g mask="url(#mask3_219_122129)">
<path fill-rule="evenodd" clip-rule="evenodd" d="M5.65204 9.13043H14.348V14.348H5.65204V9.13043Z" fill="#0052B4"/>
</g>
<mask id="mask4_219_122129" style="mask-type:alpha" maskUnits="userSpaceOnUse" x="7" y="7" width="6" height="4">
<path d="M8.69602 9.13042V10.8696H7.82642V9.13042H8.69602ZM12.1744 9.13042V10.8696H11.304V9.13042H12.1744ZM10.4344 7.82642V10.8696H9.56482V7.82642H10.4344Z" fill="white"/>
</mask>
<g mask="url(#mask4_219_122129)">
<path fill-rule="evenodd" clip-rule="evenodd" d="M6.95685 6.95685H13.044V11.7392H6.95685V6.95685Z" fill="#D80027"/>
</g>
</svg>
