<svg width="20" height="20" viewBox="0 0 20 20" fill="none" xmlns="http://www.w3.org/2000/svg">
<path d="M5.41497 1.1101C4.49728 1.58407 3.65859 2.19739 2.92873 2.92821C2.19771 3.6579 1.58437 4.49662 1.11062 5.41445L7.54058 12.4594L14.5849 18.8887C15.5029 18.4152 16.3418 17.8021 17.0718 17.0713C17.8028 16.3415 18.416 15.5025 18.8893 14.5844L12.4599 7.54006L5.41497 1.1101Z" fill="#F0F0F0"/>
<path d="M17.0711 17.0713C17.4834 16.6589 17.8591 16.2116 18.1943 15.7344L4.26497 1.80578C3.30866 2.47686 2.47646 3.30928 1.80561 4.26576L15.7349 18.195C16.2119 17.8597 16.6589 17.4837 17.0711 17.0713Z" fill="black"/>
<path fill-rule="evenodd" clip-rule="evenodd" d="M5.41434 1.11006C9.17807 -0.831803 13.9155 -0.226182 17.0711 2.9288C20.2261 6.08378 20.8317 10.8212 18.8886 14.585L5.41434 1.11006ZM14.5849 18.8887C10.8218 20.8318 6.08373 20.2262 2.92875 17.0712C-0.226231 13.9162 -0.831852 9.17815 1.11064 5.41505L14.5849 18.8887Z" fill="#EC0017"/>
</svg>
