<svg width="20" height="20" viewBox="0 0 20 20" fill="none" xmlns="http://www.w3.org/2000/svg">
<path d="M19.0075 14.3481C19.6437 13.0337 20 11.5581 20 9.99997C20 8.44185 19.6437 6.96685 19.0075 5.65185L10 4.78247L0.991875 5.65185C0.35625 6.96685 0 8.44185 0 9.99997C0 11.5581 0.35625 13.0337 0.991875 14.3481L10 15.2175L19.0075 14.3481Z" fill="#0054BB"/>
<path d="M10 20C13.965 20 17.39 17.6931 19.0075 14.3481H0.991875C2.61 17.6931 6.03562 20 10 20Z" fill="#EC0017"/>
<path fill-rule="evenodd" clip-rule="evenodd" d="M11.3525 6.9563L11.4456 7.62005L12.1056 7.7363L11.5031 8.03067L11.5963 8.69442L11.1313 8.21255L10.5288 8.5063L10.8438 7.91442L10.3781 7.43255L11.0381 7.5488L11.3525 6.9563ZM13.8938 7.8813L13.7544 8.53692L14.335 8.87192L13.6688 8.94192L13.5288 9.59755L13.2563 8.98567L12.59 9.05567L13.0881 8.60755L12.8156 7.99505L13.3956 8.33005L13.8938 7.8813ZM15.9669 9.62067L15.6119 10.1894L16.0425 10.7025L15.3919 10.5407L15.0369 11.1088L14.99 10.4407L14.34 10.2782L14.9613 10.0269L14.915 9.35817L15.3456 9.87192L15.9669 9.62067ZM3.35125 11.9863L2.68125 11.9632L3.20938 12.3757L2.98 13.0057L3.53563 12.6307L4.06375 13.0432L3.87875 12.3994L4.43438 12.0238L3.765 12.0007L3.58 11.3563L3.35125 11.9863ZM16.7906 12.3757L17.3194 11.9632L16.6481 11.9863L16.4188 11.3563L16.2344 12.0007L15.5644 12.0238L16.12 12.3988L15.9356 13.0432L16.4638 12.6307L17.02 13.0057L16.7906 12.3757ZM4.65563 9.87192L4.03375 9.62067L4.38875 10.1888L3.95813 10.7019L4.60875 10.54L4.96375 11.1082L5.01063 10.44L5.66125 10.2782L5.03938 10.0269L5.08625 9.35817L4.65563 9.87192ZM6.60375 8.33005L6.10563 7.8813L6.245 8.53692L5.66438 8.87255L6.33063 8.94255L6.47 9.59817L6.74313 8.9863L7.40938 9.0563L6.91125 8.60755L7.18375 7.99505L6.60375 8.33005ZM8.9625 7.54817L8.6475 6.9563L8.55375 7.61942L7.89375 7.7363L8.49625 8.03005L8.40313 8.6938L8.86875 8.21192L9.47125 8.50567L9.15688 7.9138L9.6225 7.43192L8.9625 7.54817Z" fill="#F0F0F0"/>
<path d="M19.0075 5.65187C17.39 2.30687 13.965 0 10 0C6.03562 0 2.61 2.30687 0.991875 5.65187H19.0075Z" fill="#FFD800"/>
</svg>
