<svg width="20" height="20" viewBox="0 0 20 20" fill="none" xmlns="http://www.w3.org/2000/svg">
<path d="M20 10.0001C20 15.5226 15.5225 20.0001 10 20.0001C4.4775 20.0001 0 15.5226 0 10.0001C0.435 10.0001 10 8.69568 10 8.69568L20 10.0001Z" fill="#008CFB"/>
<path d="M0 10C0 4.4775 4.4775 0 10 0C15.5225 0 20 4.4775 20 10" fill="#F0F0F0"/>
<path d="M13.97 6.90002L10 10.8694L6.03063 6.90002C5.49963 7.68727 5.21643 8.61544 5.2175 9.56502V10.8688C5.2175 12.9638 6.57125 14.7475 8.44875 15.3931C8.18985 15.9001 8.25196 16.5117 8.6075 16.9563L10.0288 15.8175L11.45 16.9563C11.8104 16.5063 11.8694 15.8854 11.6 15.3756C13.4525 14.7163 14.7825 12.945 14.7825 10.8688V9.56502C14.7825 8.5794 14.4825 7.6619 13.97 6.90002V6.90002Z" fill="#5AA731"/>
<path d="M10 14.3482C8.07985 14.3457 6.52395 12.7896 6.52188 10.8694V9.56565C6.52429 7.64573 8.08009 6.08993 10 6.08752C11.9199 6.08993 13.4757 7.64573 13.4781 9.56565V10.8694C13.4761 12.7896 11.9202 14.3457 10 14.3482Z" fill="#FFD800"/>
<path d="M12.1744 10.8693V9.5656C12.1744 8.36685 11.1988 7.39185 10 7.39185C8.80126 7.39185 7.82626 8.36747 7.82626 9.5656V10.8693L10 11.3043L12.1744 10.8693Z" fill="#008CFB"/>
<path d="M7.82626 10.8694C7.82626 12.0681 8.80126 13.0438 10 13.0438C11.1988 13.0438 12.1744 12.0681 12.1744 10.8694H7.82626H7.82626Z" fill="#5AA731"/>
<path d="M12.6088 6.08683C12.6088 5.57234 12.3063 5.10591 11.8366 4.89597C11.3669 4.68602 10.8177 4.7718 10.4344 5.11495V4.34808H10.8688V3.47808H10.4344V3.0437H9.565V3.4787H9.13063V4.34808H9.565V5.11558C9.02594 4.65685 8.21941 4.71176 7.74749 5.23931C7.27558 5.76686 7.31053 6.57451 7.82625 7.05933V7.82683H12.1744V7.05933C12.4406 6.81995 12.6088 6.47308 12.6088 6.08683Z" fill="#FFD800"/>
</svg>
