<svg width="20" height="20" viewBox="0 0 20 20" fill="none" xmlns="http://www.w3.org/2000/svg">
<circle cx="10" cy="10" r="10" fill="#FFD800"/>
<path d="M16.0869 6.09625V6.34625L16.0963 6.3475L16.0869 6.09625V6.09625Z" fill="#FFD800"/>
<path d="M7.82626 1.73938H4.36376C4.21064 1.84375 4.06064 1.95313 3.91314 2.06625L3.04376 10L3.91314 17.9331C4.06064 18.0469 4.21064 18.1556 4.36376 18.26H7.82626V1.73938Z" fill="#FF9100"/>
<path d="M3.97792e-06 9.99997C-0.0027687 13.1097 1.44405 16.0431 3.91313 17.9337V2.06622C1.53375 3.89435 3.97792e-06 6.7681 3.97792e-06 9.99997Z" fill="#5AA731"/>
<path d="M19.2031 12.6088H17.3187L16.5225 13.4788V15.2175H14.7831V14.3481H15.6525V12.6088H11.74V13.6956H10.87V11.6244C10.5928 11.3772 10.4345 11.0233 10.435 10.6519V5.00001C10.435 4.28 11.0194 3.69563 11.74 3.69563V11.7394H13.4787L14.075 11.2413C13.9679 10.9857 13.9129 10.7114 13.9131 10.4344V9.13063H12.6087V6.52188H15.2175C15.2175 6.08688 15.87 5.65188 15.87 5.65188C15.87 5.65188 16.5225 6.08688 16.5225 6.52188V9.13063C17.0056 9.13626 17.7744 9.12376 18.605 9.13063C18.3788 8.73313 18.2602 8.28358 18.2606 7.82625C18.2606 7.05875 18.5925 6.36938 19.1194 5.89188C18.3609 4.21459 17.156 2.77809 15.6362 1.73938H9.13062V18.2606H15.6362C17.4958 16.9913 18.8736 15.1326 19.5475 12.9844L19.2031 12.6088Z" fill="#B20013"/>
</svg>
