<svg width="20" height="20" viewBox="0 0 20 20" fill="none" xmlns="http://www.w3.org/2000/svg">
<circle cx="10" cy="10" r="10" fill="#FFD800"/>
<path d="M10 10L9.36188 9.36188L9.1925 9.665L10 10Z" fill="#0054BB"/>
<path fill-rule="evenodd" clip-rule="evenodd" d="M2.92875 17.0713C-0.97625 13.1656 -0.97625 6.8344 2.92875 2.92877L10 10L2.92875 17.0713ZM10 10L17.0713 2.92877C20.9762 6.8344 20.9762 13.1656 17.0713 17.0713L10 10Z" fill="#3D6F21"/>
<circle cx="10" cy="9.99998" r="3.47813" fill="#B20013"/>
<path fill-rule="evenodd" clip-rule="evenodd" d="M10.78 8.92123L10 6.52185L9.22063 8.9206H6.6975L8.73875 10.4044L7.95875 12.8037L10 11.3212L12.0406 12.8043L11.2613 10.405L13.3031 8.92123H10.78Z" fill="#FFD800"/>
<path d="M4.36375 1.73939C6.02352 0.60328 7.98863 -0.00316233 10 1.24013e-05C12.0912 1.24013e-05 14.0312 0.641887 15.6362 1.73939L10 2.17376L4.36375 1.73939Z" fill="#B20013"/>
<path fill-rule="evenodd" clip-rule="evenodd" d="M9.99625 5.5354e-06H10.0031C12.6546 -0.00278713 15.1978 1.05122 17.07 2.92876H2.92937C4.80167 1.05139 7.34484 -0.00257976 9.99625 5.5354e-06ZM10 20C7.23875 20 4.73937 18.8806 2.92937 17.0713H17.0706C15.2612 18.8806 12.7612 20 10 20Z" fill="#B20013"/>
<path fill-rule="evenodd" clip-rule="evenodd" d="M12.5869 1.58498L12.425 1.08685L12.2631 1.58498H11.7394L12.1631 1.8931L12.0006 2.39123L12.425 2.0831L12.8494 2.39123L12.6869 1.8931L13.1106 1.58498H12.5869ZM3.04688 9.83498C3.30369 10.2407 3.18295 10.7779 2.77719 11.0347C2.37143 11.2915 1.83432 11.1707 1.5775 10.765C1.1125 10.03 1.38188 8.82998 1.38188 8.82998C1.38188 8.82998 2.58188 9.09998 3.04688 9.83498ZM7.73688 18.1069L7.575 17.6087L7.41313 18.1069H6.88938L7.31313 18.415L7.15125 18.9131L7.575 18.605L7.99875 18.9131L7.83688 18.415L8.26063 18.1069H7.73688ZM10 17.6087L10.1619 18.1069H10.6856L10.2613 18.415L10.4231 18.9131L10 18.605L9.57625 18.9131L9.73813 18.415L9.31438 18.1069H9.83813L10 17.6087ZM12.425 17.6087L12.5869 18.1069H13.1106L12.6869 18.415L12.8494 18.9131L12.425 18.605L12.0006 18.9131L12.1631 18.415L11.7394 18.1069H12.2631L12.425 17.6087ZM10 1.08685L10.1619 1.58498H10.6856L10.2613 1.8931L10.4231 2.39123L10 2.0831L9.57625 2.39123L9.73813 1.8931L9.31438 1.58498H9.83813L10 1.08685ZM7.73688 1.58498L7.575 1.08685L7.41313 1.58498H6.88938L7.31313 1.8931L7.15125 2.39123L7.575 2.0831L7.99875 2.39123L7.83688 1.8931L8.26063 1.58498H7.73688Z" fill="#FFD800"/>
<ellipse cx="2.545" cy="10.6675" rx="0.435" ry="0.434999" fill="#B20013"/>
</svg>
