<svg width="20" height="20" viewBox="0 0 20 20" fill="none" xmlns="http://www.w3.org/2000/svg">
<path d="M0 10C0 4.4775 4.4775 0 10 0C15.5225 0 20 4.4775 20 10C19.5656 10 10 11.3044 10 11.3044L0 10Z" fill="#EC0017"/>
<path d="M20 10C20 15.5225 15.5225 20 10 20C4.4775 20 0 15.5225 0 10" fill="black"/>
<path fill-rule="evenodd" clip-rule="evenodd" d="M12.5 5.67C11.7404 5.23014 10.8778 4.9996 10 5.00187V6.30562C10.6488 6.30409 11.2865 6.47445 11.8481 6.79937C13.6138 7.82156 14.2189 10.0801 13.2006 11.8481C13.1093 12.0059 13.0081 12.1543 12.8982 12.2932L7.11687 9.13062C6.95079 9.4342 6.91214 9.79133 7.00943 10.1234C7.10672 10.4555 7.33198 10.7353 7.63562 10.9012L11.8452 13.201C10.7398 13.8361 9.3359 13.8823 8.15188 13.2006C7.65475 12.9142 7.23175 12.5152 6.91688 12.0356L5.82813 12.7544C6.25466 13.403 6.82726 13.9426 7.5 14.33C8.95361 15.1694 10.6581 15.1936 12.0802 14.5451C12.1352 14.5925 12.1964 14.6351 12.2638 14.6719L13.4075 15.2975C13.9343 15.5855 14.5948 15.3922 14.8831 14.8656L15.5088 13.7213L14.0548 12.9259C14.1527 12.7901 14.2446 12.648 14.33 12.5C15.7088 10.1125 14.8875 7.04812 12.5 5.67ZM14.0548 12.9259L12.8982 12.2932C12.602 12.6677 12.2429 12.9725 11.8452 13.201L11.8719 13.2156C11.6206 13.6752 11.7049 14.2217 12.0802 14.5451C12.8491 14.1945 13.5354 13.6472 14.0548 12.9259ZM8.62875 7.95375L9.47625 8.56875L9.15312 9.565L10 8.94875L10.8475 9.56375L10.5231 8.5675L11.3694 7.95125L10.3219 7.95188L9.9975 6.95563L9.67438 7.95188L8.62875 7.95375Z" fill="#FFD800"/>
</svg>
