<svg width="20" height="20" viewBox="0 0 20 20" fill="none" xmlns="http://www.w3.org/2000/svg">
<path d="M14.3481 0.991875C13.0338 0.35625 11.5581 0 10 0C8.44188 0 6.96688 0.35625 5.65187 0.991875L4.7825 10L5.65187 19.0075C6.96688 19.6437 8.44188 20 10 20C11.5581 20 13.0338 19.6437 14.3481 19.0075L15.2175 10L14.3481 0.991875Z" fill="#FFD800"/>
<path d="M14.3481 0.992554V19.0076C17.6931 17.3901 20 13.9651 20 10.0001C20 6.03568 17.6931 2.61005 14.3481 0.992554Z" fill="#EC0017"/>
<path fill-rule="evenodd" clip-rule="evenodd" d="M0 10.0001C0 6.03568 2.30687 2.61005 5.65187 0.992554V19.0076C2.30687 17.3901 0 13.9651 0 10.0001ZM10.8631 9.1788L10 6.52193L9.13625 9.17943H6.3425L8.6025 10.8219L7.73937 13.4788L10 11.8363L12.2606 13.4782L11.3975 10.8213L13.6575 9.1788H10.8631Z" fill="#3D6F21"/>
</svg>
