<svg width="20" height="20" viewBox="0 0 20 20" fill="none" xmlns="http://www.w3.org/2000/svg">
<circle cx="10" cy="10" r="10" fill="#F0F0F0"/>
<path d="M15.8694 14.3481V15.2175H14.5656V14.3481H13.2606V15.2175H11.9569V14.3481H10.6519V15.2175H9.34813V14.3481H8.04376V15.2175H6.73938V14.3481H5.43501V15.2175H4.13063V14.3481H0.991882C2.61001 17.6931 6.03563 20 10 20C13.965 20 17.39 17.6931 19.0075 14.3481H15.8694Z" fill="#EC0017"/>
<path d="M13.2481 7.39125H11.9394C11.9506 7.535 11.9562 7.68 11.9562 7.82562C11.9562 8.79312 11.7144 9.73062 11.2925 10.3981C11.1625 10.6037 10.9437 10.8944 10.6512 11.0906V7.39062H9.34749V11.0906C9.05499 10.8944 8.83624 10.6037 8.70624 10.3981C8.28499 9.73062 8.04311 8.79312 8.04311 7.82562C8.04311 7.68 8.04936 7.535 8.05999 7.39125H6.75186C6.74374 7.53437 6.73874 7.67937 6.73874 7.82562C6.73874 10.5075 8.17124 12.6081 9.99936 12.6081C11.8275 12.6081 13.26 10.5075 13.26 7.82562C13.2606 7.67937 13.2562 7.53437 13.2481 7.39125Z" fill="#EC0017"/>
<path d="M4.13063 4.7825H5.43501V5.65187H6.73938V4.7825H8.04376V5.65187H9.34813V4.7825H10.6519V5.65187H11.9569V4.7825H13.2606V5.65187H14.5656V4.7825H15.8694V5.65187H19.0075C17.39 2.30687 13.965 0 10 0C6.03563 0 2.61001 2.30687 0.991882 5.65187H4.13001V4.7825H4.13063Z" fill="#5AA731"/>
</svg>
