<svg width="20" height="20" viewBox="0 0 20 20" fill="none" xmlns="http://www.w3.org/2000/svg">
<path d="M14.3481 0.991875C13.0338 0.35625 11.5581 0 10 0C8.44188 0 6.96688 0.35625 5.65188 0.991875L4.7825 10L5.65188 19.0075C6.96688 19.6437 8.44188 20 10 20C11.5581 20 13.0338 19.6437 14.3481 19.0075L15.2175 10L14.3481 0.991875Z" fill="#EC0017"/>
<path fill-rule="evenodd" clip-rule="evenodd" d="M10 6.52187C8.75739 6.52187 7.60917 7.1848 6.98786 8.26094C6.36655 9.33707 6.36655 10.6629 6.98786 11.7391C7.60917 12.8152 8.75739 13.4781 10 13.4781C11.9209 13.4781 13.4781 11.9209 13.4781 10C13.4781 8.07908 11.9209 6.52187 10 6.52187ZM10 12.1744C9.2145 12.1876 8.48296 11.776 8.08641 11.0978C7.68986 10.4197 7.68998 9.5803 8.08672 8.90222C8.48347 8.22415 9.21513 7.81282 10.0006 7.82625C11.187 7.84653 12.138 8.81411 12.1378 10.0006C12.1377 11.1871 11.1863 12.1544 10 12.1744ZM9.38508 8.95007C9.54816 8.787 9.76938 8.69546 10 8.69562C10.2306 8.69546 10.4519 8.787 10.6149 8.95007C10.778 9.11315 10.8695 9.33437 10.8694 9.565V10.8687H9.13063V9.565C9.13046 9.33437 9.22201 9.11315 9.38508 8.95007Z" fill="#FFD800"/>
<path d="M14.3481 0.9925V19.0075C17.6931 17.39 20 13.965 20 10C20 6.03563 17.6931 2.61 14.3481 0.9925Z" fill="#3D6F21"/>
<path d="M5.65187 0.9925C2.30687 2.61 0 6.03563 0 10C0 13.965 2.30687 17.39 5.65187 19.0075V0.9925Z" fill="black"/>
</svg>
