<svg width="20" height="20" viewBox="0 0 20 20" fill="none" xmlns="http://www.w3.org/2000/svg">
<circle cx="10" cy="10" r="10" fill="#F0F0F0"/>
<path d="M20 10C20 15.5225 15.5225 20 10 20C4.4775 20 0 15.5225 0 10" fill="#3D6F21"/>
<path fill-rule="evenodd" clip-rule="evenodd" d="M14.8444 5.21751C15.9509 5.21737 16.9371 5.91525 17.305 6.95876C16.7826 6.98501 16.2996 7.24474 15.9897 7.66615C15.6797 8.08755 15.5757 8.62597 15.7063 9.13251C15.3512 9.11735 15.0053 9.24781 14.7487 9.4937C14.492 9.73959 14.3469 10.0796 14.3469 10.435V15.2175H10.8681V14.3481H11.7388V13.4781L10.9419 12.5219H9.05752L8.26065 13.4781V15.2169H6.52127V14.3475H7.39127V12.6081H3.47815V10.8688H4.34815V11.7394H5.21752L5.8144 11.2413C5.71002 10.9938 5.65252 10.7206 5.65252 10.4344V8.47814H3.91315C3.91315 7.15748 4.98375 6.08689 6.3044 6.08689H6.90377L7.44127 5.54939C7.90252 5.08814 8.67065 5.24189 8.67065 5.24189C8.67065 5.24189 8.8244 6.01064 8.36315 6.47188L8.26002 6.57501V9.13064C8.48339 9.13323 8.76751 9.13197 9.09036 9.13053C9.46674 9.12885 9.89576 9.12693 10.3425 9.13064C10.125 8.74939 9.9994 8.29689 9.9994 7.82626C9.9994 6.38549 11.1674 5.21751 12.6081 5.21751H14.8444ZM12.6088 12.5219V14.3481H13.4781V13.4781L12.6813 12.5219H12.6088Z" fill="#EC0017"/>
</svg>
