<svg width="20" height="20" viewBox="0 0 20 20" fill="none" xmlns="http://www.w3.org/2000/svg">
<circle cx="10" cy="10" r="10" fill="#F0F0F0"/>
<path d="M19.9156 8.69562H11.3044V0.084375C10.8775 0.02875 10.4419 0 10 0C9.5575 0 9.1225 0.02875 8.69562 0.084375V8.69562H0.084375C0.02875 9.1225 0 9.5575 0 10C0 10.4419 0.02875 10.8775 0.084375 11.3044H8.69562V19.9156C9.1225 19.9706 9.5575 20 10 20C10.4419 20 10.8775 19.9706 11.3044 19.9156V11.3044H19.9156C19.9706 10.8775 20 10.4419 20 10C20 9.5575 19.9706 9.1225 19.9156 8.69562Z" fill="#EC0017"/>
<path d="M12.8256 10.4344L13.4781 10.8687V9.12999L12.8256 9.56437H10.4344V7.17312L10.8687 6.52124H9.12999L9.56437 7.17312V9.56437H7.17312L6.52124 9.12999V10.8687L7.17312 10.4344H9.56437V12.8256L9.12999 13.4781H10.8687L10.4344 12.8256V10.4344H12.8256Z" fill="#FFD800"/>
</svg>
