<svg width="20" height="20" viewBox="0 0 20 20" fill="none" xmlns="http://www.w3.org/2000/svg">
<circle cx="10" cy="10" r="10" fill="#3D6F21"/>
<path d="M16.6662 17.4531C18.7899 15.5581 20.0029 12.8462 20 10H16.0869L16.6662 17.4531Z" fill="#FF9100"/>
<path d="M13.9131 10H10V20C11.1687 20 12.2906 19.7987 13.3337 19.43L13.9131 10Z" fill="#EC0017"/>
<path d="M13.3337 10V19.43C14.5631 18.9951 15.6952 18.3234 16.6662 17.4531V10H13.3337Z" fill="black"/>
<path d="M18.4781 6.52191H15.8687C15.8687 6.04159 15.4794 5.65222 14.9991 5.65222C14.5187 5.65222 14.1294 6.04159 14.1294 6.52191H11.5206C11.5206 7.00253 11.9387 7.39191 12.4194 7.39191H12.3906C12.3905 7.62253 12.482 7.84376 12.6451 8.00683C12.8081 8.16991 13.0294 8.26145 13.26 8.26128C13.26 8.74191 13.6494 9.13128 14.13 9.13128H15.8687C16.35 9.13128 16.7394 8.74191 16.7394 8.26128C17.2194 8.26128 17.6087 7.87191 17.6087 7.39191H17.5794C18.06 7.39128 18.4781 7.00191 18.4781 6.52191Z" fill="#FF9100"/>
</svg>
