<svg width="20" height="20" viewBox="0 0 20 20" fill="none" xmlns="http://www.w3.org/2000/svg">
<path d="M18.8894 5.415C18.4161 4.49706 17.8029 3.65829 17.0719 2.92875C16.3421 2.19757 15.5031 1.58421 14.585 1.11063L7.54 7.54L1.11063 14.585C1.58453 15.5029 2.19785 16.3418 2.92875 17.0719C3.65845 17.8027 4.49719 18.4159 5.415 18.8894L12.46 12.46L18.8894 5.415Z" fill="#FFD800"/>
<path d="M2.92875 17.0712C3.34812 17.4906 3.79562 17.865 4.265 18.1944L18.1944 4.26499C17.5233 3.30868 16.6909 2.47646 15.7344 1.80562L1.80562 15.735C2.14061 16.2121 2.51639 16.6592 2.92875 17.0712Z" fill="#EC0017"/>
<path fill-rule="evenodd" clip-rule="evenodd" d="M1.11064 14.585C-0.831859 10.8219 -0.226234 6.08376 2.92877 2.92876C6.08377 -0.22624 10.8213 -0.831865 14.585 1.11063L1.11064 14.585ZM18.8887 5.41437C20.8319 9.17812 20.2262 13.9156 17.0712 17.0712C13.9169 20.2262 9.17812 20.8319 5.415 18.8894L18.8887 5.41437Z" fill="#008CFB"/>
<path d="M5.32875 3.04312L5.86875 4.70375H7.615L6.2025 5.73L6.74187 7.39062L5.32875 6.36437L3.91625 7.39062L4.45625 5.73L3.04312 4.70375H4.78937L5.32875 3.04312Z" fill="#FFD800"/>
</svg>
