<svg width="20" height="20" viewBox="0 0 20 20" fill="none" xmlns="http://www.w3.org/2000/svg">
<path d="M20 10C20 15.5225 15.5225 20 10 20C4.4775 20 0 15.5225 0 10L10 0C15.5225 0 20 4.4775 20 10Z" fill="#EC0017"/>
<path d="M10 10V0C4.4775 0 0 4.4775 0 10H10Z" fill="#0054BB"/>
<path d="M8.69564 5.85248L7.47439 6.42685L8.12502 7.60935L6.79877 7.3556L6.63064 8.6956L5.70689 7.70998L4.78314 8.6956L4.61501 7.35623L3.28876 7.60998L3.93939 6.42685L2.71814 5.85248L3.93939 5.2781L3.28876 4.09498L4.61501 4.34873L4.78314 3.00873L5.70689 3.99435L6.63064 3.00873L6.79877 4.34873L8.12502 4.09498L7.47439 5.2781L8.69564 5.85248Z" fill="#F0F0F0"/>
<ellipse cx="5.70689" cy="5.85252" rx="1.86125" ry="1.86125" fill="#0054BB"/>
<path d="M5.7069 6.84435C5.16003 6.84435 4.71503 6.39935 4.71503 5.85247C4.71503 5.3056 5.16003 4.8606 5.7069 4.8606C6.25378 4.8606 6.69878 5.3056 6.69878 5.85247C6.69878 6.39935 6.25378 6.84435 5.7069 6.84435Z" fill="#F0F0F0"/>
</svg>
