<svg width="20" height="20" viewBox="0 0 20 20" fill="none" xmlns="http://www.w3.org/2000/svg">
<path d="M10 20C15.5228 20 20 15.5228 20 10C20 4.47715 15.5228 0 10 0C4.47715 0 0 4.47715 0 10C0 15.5228 4.47715 20 10 20Z" fill="#F0F0F0"/>
<path d="M6.08688 6.52188H19.3781C17.965 2.71376 14.2994 8.61116e-06 10 8.61116e-06C8.68656 -0.00171792 7.38572 0.256197 6.17229 0.758924C4.95886 1.26165 3.85677 1.99927 2.92938 2.92938L6.08688 6.52188Z" fill="black"/>
<path d="M6.08688 13.478H19.3781C17.965 17.2862 14.2994 19.9999 10 19.9999C8.6865 20.0016 7.38561 19.7437 6.17216 19.2408C4.95871 18.738 3.85666 18.0002 2.92938 17.0699L6.08688 13.478Z" fill="#6DA544"/>
<path d="M2.92875 2.92871C-0.97625 6.83434 -0.97625 13.1656 2.92875 17.0712L10 9.99996L2.92875 2.92871Z" fill="#D80027"/>
</svg>
