<svg width="20" height="20" viewBox="0 0 20 20" fill="none" xmlns="http://www.w3.org/2000/svg">
<path d="M5.40395e-06 10C5.40395e-06 11.2232 0.220005 12.395 0.62188 13.4782L10 13.9132L19.3781 13.4788C19.78 12.395 20 11.2232 20 10C20 8.77691 19.78 7.60504 19.3781 6.52191L10 6.08691L0.62188 6.52191C0.209362 7.63507 -0.00122999 8.8129 5.40395e-06 10Z" fill="#EC0017"/>
<path d="M19.3781 13.4781H0.621881C2.03501 17.2863 5.70063 20 10 20C14.2994 20 17.965 17.2863 19.3781 13.4781V13.4781Z" fill="#3D6F21"/>
<path d="M10 0C5.70063 0 2.03501 2.71375 0.621881 6.52187H19.3781C17.965 2.71375 14.2994 0 10 0Z" fill="black"/>
<path d="M12.9888 4.78246L11.7675 4.20808L12.4181 3.02558L11.0919 3.27933L10.9238 1.93933L10 2.92496L9.07625 1.93933L8.90813 3.27933L7.58188 3.02558L8.2325 4.20808L7.01125 4.78246H12.9888Z" fill="#EC0017"/>
</svg>
