<svg width="20" height="20" viewBox="0 0 20 20" fill="none" xmlns="http://www.w3.org/2000/svg">
<g clip-path="url(#clip0_144_733)">
<path d="M8.19922 4.04984C9.95378 3.21515 12.0101 3.8944 12.9198 5.59081C12.9534 5.65347 12.9855 5.71653 13.0189 5.77932C13.1804 6.08306 13.6956 7.06127 13.9968 7.74206C14.3035 8.43553 14.7273 9.59406 14.8469 9.92416C14.8688 9.9847 14.8916 10.0445 14.9134 10.1051C15.5691 11.9299 14.7246 13.9978 12.9654 14.8348L8.75037 16.8399C7.05535 17.6463 5.07323 17.0407 4.12054 15.4584C4.04841 15.3386 3.98138 15.2162 3.91076 15.0955C3.69538 14.7271 3.19825 13.8536 2.84006 13.0439C2.4964 12.267 2.22116 11.4217 2.09839 11.0246C2.05088 10.871 1.99919 10.7192 1.9544 10.5646C1.44085 8.79281 2.29145 6.8603 3.97507 6.05936L8.19922 4.04984Z" fill="#AF231E"/>
<ellipse cx="13.1646" cy="11.9123" rx="1.30654" ry="3.8057" transform="rotate(18 13.1646 11.9123)" fill="#C4C4C4"/>
<path d="M17.9766 8.84664L16.1565 11.8645" stroke="#F6C106" stroke-width="1.00795"/>
<path fill-rule="evenodd" clip-rule="evenodd" d="M16.4384 11.6421L16.1501 11.5485L16.1239 11.629C15.8423 11.7303 15.5403 12.1168 15.3735 12.6301C15.2068 13.1433 15.2239 13.6336 15.3922 13.881L15.366 13.9614L15.576 14.0296C15.578 14.0303 15.5801 14.031 15.5822 14.0317C15.5843 14.0324 15.5864 14.0331 15.5885 14.0337L15.6544 14.0551L15.6572 14.0466C15.9782 14.0717 16.3743 13.6377 16.5749 13.0204C16.7755 12.4031 16.7101 11.8191 16.4356 11.6508L16.4384 11.6421Z" fill="#F6C106"/>
<path fill-rule="evenodd" clip-rule="evenodd" d="M15.8207 10.6569L15.3042 10.4891L15.2627 10.6169C14.7697 10.7629 14.2576 11.3663 13.9928 12.1814C13.7279 12.9966 13.7875 13.7858 14.1005 14.1936L14.059 14.3214L14.4431 14.4462C14.4442 14.4466 14.4452 14.4469 14.4463 14.4472C14.4473 14.4476 14.4484 14.4479 14.4495 14.4483L14.5755 14.4892L14.58 14.4756C15.1503 14.5352 15.8264 13.8611 16.145 12.8807C16.4635 11.9003 16.3127 10.9576 15.8163 10.6706L15.8207 10.6569Z" fill="#FFE500"/>
<ellipse cx="18.2069" cy="8.60758" rx="0.871025" ry="0.895458" transform="rotate(18 18.2069 8.60758)" fill="#FFB904"/>
<path fill-rule="evenodd" clip-rule="evenodd" d="M12.6097 15.7336C13.5628 16.0433 14.862 14.6739 15.5115 12.675C16.161 10.676 15.9149 8.80446 14.9618 8.49477C14.9043 8.47611 14.8457 8.46355 14.7859 8.45685C14.7474 8.43183 14.705 8.41139 14.6593 8.39653L14.3404 8.29293L14.262 8.53452C13.4458 8.84766 12.5602 10.0138 12.0599 11.5534C11.5597 13.0931 11.5907 14.5571 12.0669 15.2901L11.9884 15.5318L12.3072 15.6354C12.353 15.6503 12.3994 15.6587 12.4453 15.661C12.4975 15.6907 12.5523 15.715 12.6097 15.7336Z" fill="#EB514C"/>
<ellipse cx="13.1646" cy="11.9123" rx="1.30654" ry="3.8057" transform="rotate(18 13.1646 11.9123)" fill="#B62924"/>
<path fill-rule="evenodd" clip-rule="evenodd" d="M4.33082 5.04052C3.37768 4.73082 2.07847 6.10024 1.42897 8.0992C0.779473 10.0982 1.02562 11.9697 1.97877 12.2794C2.0362 12.298 2.09488 12.3106 2.15461 12.3173C2.19314 12.3423 2.23555 12.3628 2.28133 12.3777L2.60016 12.4813L2.67869 12.2396C3.49478 11.9264 4.38039 10.7602 4.88062 9.2207C5.38084 7.68116 5.3498 6.2172 4.87367 5.48412L4.95221 5.2424L4.63338 5.13881C4.58757 5.12392 4.54121 5.11554 4.4953 5.11316C4.44307 5.08349 4.38822 5.05917 4.33082 5.04052Z" fill="#EB514C"/>
<ellipse cx="3.77606" cy="8.8618" rx="1.30654" ry="3.8057" transform="rotate(-162 3.77606 8.8618)" fill="#B62924"/>
<path fill-rule="evenodd" clip-rule="evenodd" d="M7.62107 6.42347L5.27395 5.66085L5.27395 5.66085C5.27393 5.66085 5.27392 5.66084 5.2739 5.66084C4.58764 5.43786 3.54608 6.75047 2.94752 8.59265C2.34896 10.4348 2.42006 12.109 3.10633 12.3319C3.10698 12.3322 3.10764 12.3324 3.10829 12.3326L5.45038 13.0936C5.45136 13.0939 5.45234 13.0943 5.45333 13.0946C5.75834 13.1937 6.49082 11.7806 7.08938 9.93847C7.68784 8.09659 7.92584 6.52308 7.62105 6.42352L7.62107 6.42347Z" fill="white"/>
<path fill-rule="evenodd" clip-rule="evenodd" d="M9.71283 10.7908C10.3114 8.94862 11.0439 7.53558 11.3489 7.63467C11.3489 7.63467 11.3489 7.63467 11.3489 7.63468L13.8299 8.44081C13.8313 8.44124 13.8326 8.44167 13.834 8.44211C14.5202 8.66509 14.5913 10.3392 13.9928 12.1814C13.3942 14.0235 12.3528 15.3361 11.6665 15.1133L11.6665 15.1133L9.18151 14.3058C9.18144 14.3058 9.18137 14.3058 9.18131 14.3058C9.18131 14.3058 9.1813 14.3058 9.1813 14.3058C8.8763 14.2067 9.11427 12.633 9.71283 10.7908Z" fill="white"/>
<ellipse cx="10.196" cy="10.9478" rx="0.508098" ry="3.50721" transform="rotate(18 10.196 10.9478)" fill="#D0E1EA"/>
<ellipse cx="6.60629" cy="9.78141" rx="0.508098" ry="3.50721" transform="rotate(18 6.60629 9.78141)" fill="#D0E1EA"/>
<path fill-rule="evenodd" clip-rule="evenodd" d="M10.9828 7.35179L8.08341 6.40973L8.08341 6.40973C7.7784 6.31065 7.02436 7.79006 6.3992 9.71411C5.77403 11.6382 5.51449 13.2783 5.8195 13.3774C5.81978 13.3775 5.82007 13.3775 5.82036 13.3776L8.71735 14.3189C8.71786 14.3191 8.71837 14.3193 8.71888 14.3194C9.02388 14.4185 9.77794 12.9391 10.4031 11.0151C11.0283 9.09101 11.2878 7.45091 10.9828 7.35181C10.9828 7.35181 10.9828 7.35181 10.9828 7.3518L10.9828 7.35179Z" fill="white"/>
<path d="M11.3469 10.9294L11.6698 9.93581L13.7408 10.6087L13.5563 11.1765C12.8379 11.6963 12.2895 12.648 12.1051 13.0588L11.2077 12.7672C11.4383 12.0575 12.3288 11.1961 12.7048 10.9783L12.0835 10.7764L11.9682 11.1313L11.3469 10.9294Z" fill="#E43100"/>
<path d="M7.3136 9.54764L7.69513 8.37342L10.1427 9.16867L9.92464 9.83965C9.07562 10.454 8.42756 11.5787 8.20966 12.0642L7.14906 11.7196C7.42158 10.8809 8.47395 9.86284 8.91838 9.60542L8.18412 9.36685L8.04786 9.78621L7.3136 9.54764Z" fill="#E43100"/>
<path d="M3.75328 8.46206L4.07611 7.46849L6.1471 8.14139L5.96262 8.70915C5.24422 9.22896 4.69586 10.1806 4.51148 10.5915L3.61405 10.2999C3.84465 9.59021 4.73511 8.72877 5.11117 8.51096L4.48987 8.30909L4.37458 8.66393L3.75328 8.46206Z" fill="#E43100"/>
</g>
<defs>
<clipPath id="clip0_144_733">
<rect width="20" height="20" fill="white"/>
</clipPath>
</defs>
</svg>
