<svg width="20" height="20" viewBox="0 0 20 20" fill="none" xmlns="http://www.w3.org/2000/svg">
<path d="M9.70546 16.5291C9.68997 17.2068 8.89282 18.8945 6.17619 19.2568C3.96017 19.5524 2.65636 18.5441 2.1411 17.8445C2.03126 17.6954 1.58737 16.1268 1.72142 15.1817C2.3009 13.5254 3.95406 13.7562 5.54346 13.6155C6.79058 13.5051 8.52594 13.8819 9.31928 14.4613C9.85834 14.582 9.72096 15.8514 9.70546 16.5291Z" fill="#DB8300"/>
<ellipse cx="5.71775" cy="15.3848" rx="4.0301" ry="2.73427" transform="rotate(-5.0573 5.71775 15.3848)" fill="#FFE600"/>
<path fill-rule="evenodd" clip-rule="evenodd" d="M6.42011 12.6528C6.11524 12.6307 5.79927 12.6326 5.4767 12.6612C5.14815 12.6902 4.83119 12.7453 4.53004 12.8228L4.97285 14.6903L2.63962 13.7679C2.23307 14.1165 1.93921 14.525 1.79546 14.9629L4.4177 15.5212L1.93632 16.4997C2.15731 16.9046 2.52061 17.254 2.98401 17.5245L5.06414 16.2747L4.98681 18.1146C5.30048 18.139 5.62611 18.1378 5.95876 18.1084C6.286 18.0794 6.60175 18.0247 6.90183 17.9477L6.4688 16.1582L8.77718 17.0176C9.19265 16.6661 9.49297 16.2527 9.63921 15.8091L7.12213 15.2794L9.50897 14.2881C9.28945 13.8763 8.92327 13.521 8.45431 13.2467L6.27218 14.5656L6.42011 12.6528Z" fill="#FFC700"/>
<ellipse cx="5.71773" cy="15.3848" rx="2.68673" ry="1.82285" transform="rotate(-5.05731 5.71773 15.3848)" fill="#F3EAC4"/>
<path fill-rule="evenodd" clip-rule="evenodd" d="M13.8954 13.7834L15.6342 8.24177C15.972 7.16513 16.1768 6.50521 16.2877 6.00055C16.3393 5.76558 16.3571 5.62084 16.3619 5.53222C16.3661 5.45421 16.3595 5.4258 16.3595 5.4258C16.3179 5.22769 16.226 5.04513 16.093 4.89654C16.093 4.89654 16.0743 4.87465 16.0101 4.83365C15.9373 4.78706 15.8126 4.71946 15.5972 4.6291C15.1345 4.43503 14.4953 4.23213 13.4503 3.90425C12.4053 3.57637 11.7648 3.37773 11.2741 3.27268C11.0457 3.22377 10.9047 3.20804 10.8183 3.20465C10.7408 3.2016 10.7144 3.20893 10.7144 3.20893C10.5203 3.25489 10.3406 3.3522 10.1934 3.49106C10.1934 3.49106 10.1725 3.5093 10.1306 3.57706C10.0839 3.65253 10.0158 3.78148 9.9239 4.00382C9.72661 4.48137 9.51768 5.13999 9.17987 6.21664L7.44112 11.7582C7.1033 12.8349 6.89851 13.4948 6.78763 13.9995C6.736 14.2344 6.71823 14.3792 6.71345 14.4678C6.70924 14.5458 6.71583 14.5742 6.71583 14.5742C6.75738 14.7723 6.8493 14.9549 6.98231 15.1035C6.98231 15.1035 7.00104 15.1253 7.06517 15.1664C7.13803 15.2129 7.26271 15.2805 7.47814 15.3709C7.94083 15.565 8.58004 15.7679 9.62502 16.0958C10.67 16.4236 11.3106 16.6223 11.8012 16.7273C12.0296 16.7762 12.1706 16.792 12.257 16.7954C12.3346 16.7984 12.3609 16.7911 12.3609 16.7911C12.555 16.7451 12.7347 16.6478 12.8819 16.5089C12.8819 16.5089 12.9028 16.4907 12.9447 16.4229C12.9914 16.3475 13.0596 16.2185 13.1514 15.9962C13.3487 15.5186 13.5576 14.86 13.8954 13.7834ZM8.67791 1.79813C8.00346 2.43403 7.67845 3.46989 7.02843 5.54159L5.28967 11.0832C4.63965 13.1549 4.31463 14.1907 4.5049 15.098C4.62954 15.6923 4.90524 16.2399 5.30427 16.6856C5.91336 17.366 6.91875 17.6815 8.92952 18.3124C10.9403 18.9433 11.9457 19.2588 12.8343 19.0483C13.4165 18.9104 13.9556 18.6185 14.3974 18.2019C15.0718 17.566 15.3969 16.5301 16.0469 14.4584L17.7856 8.91682C18.4357 6.84512 18.7607 5.80927 18.5704 4.90205C18.4458 4.30772 18.1701 3.76015 17.771 3.3144C17.1619 2.63397 16.1566 2.31852 14.1458 1.68761C12.135 1.05671 11.1296 0.741244 10.241 0.951736C9.65884 1.08963 9.11974 1.38155 8.67791 1.79813Z" fill="#BE2F2A"/>
<path d="M7.79469 5.73197C8.36881 3.90218 8.65587 2.98729 9.29307 2.45924C9.59695 2.20741 9.95063 2.02267 10.3309 1.91713C11.1283 1.69582 12.0432 1.98288 13.873 2.557C15.7028 3.13112 16.6177 3.41818 17.1457 4.05538C17.3976 4.35926 17.5823 4.71293 17.6879 5.09322C17.9092 5.89064 17.6221 6.80554 17.048 8.63532L15.2806 14.2682C14.7065 16.0979 14.4194 17.0128 13.7822 17.5409C13.4783 17.7927 13.1247 17.9775 12.7444 18.083C11.947 18.3043 11.0321 18.0173 9.20227 17.4431C7.37249 16.869 6.4576 16.582 5.92954 15.9448C5.67772 15.6409 5.49298 15.2872 5.38743 14.9069C5.16612 14.1095 5.45318 13.1946 6.0273 11.3648L7.79469 5.73197Z" fill="white"/>
<path d="M12.364 6.85598C12.5068 6.81938 12.6584 6.92394 12.6736 7.07148C12.9349 8.11586 13.1934 9.1614 13.4525 10.2069C13.4931 10.3179 13.4211 10.4242 13.334 10.4863C12.4766 11.1595 11.6251 11.8403 10.7666 12.5106C10.6289 12.625 10.3937 12.5234 10.3763 12.3474C10.1242 11.2746 9.8744 10.2011 9.62463 9.12771C9.59094 9.0278 9.62057 8.90698 9.71118 8.84716C10.5226 8.22564 11.3416 7.614 12.1537 6.99248C12.2211 6.94311 12.2861 6.88734 12.364 6.85598Z" fill="#BE2F2A"/>
<path d="M8.06372 14.4938C7.56992 14.9582 5.80798 15.5742 3.64392 13.8925C1.87864 12.5206 1.68245 10.8841 1.81948 10.0262C1.84869 9.84328 2.65509 8.42648 3.42259 7.85899C5.00942 7.10994 6.00477 8.44989 7.22007 9.48383C8.17365 10.2951 9.12259 11.7961 9.26629 12.7679C9.55847 13.2367 8.55753 14.0294 8.06372 14.4938Z" fill="#FF9900"/>
<ellipse cx="6.08155" cy="10.8492" rx="4.0301" ry="2.73427" transform="rotate(40.3903 6.08155 10.8492)" fill="#FFE600"/>
<path fill-rule="evenodd" clip-rule="evenodd" d="M8.52102 9.4331C8.32293 9.20032 8.09988 8.97653 7.85324 8.7667C7.60202 8.55296 7.34042 8.3657 7.07386 8.2055L6.05376 9.83118L5.07416 7.52138C4.54049 7.47628 4.04322 7.55349 3.63034 7.75824L5.07209 10.0184L2.63411 8.93668C2.50058 9.37825 2.50642 9.8823 2.63877 10.4023L4.98872 11.0078L3.62335 12.2435C3.82604 12.4841 4.05531 12.7154 4.30968 12.9318C4.55988 13.1447 4.82038 13.3313 5.08582 13.491L6.05716 11.9271L7.06424 14.175C7.60618 14.2245 8.11149 14.1484 8.53022 13.9414L7.14171 11.776L9.52275 12.7815C9.66221 12.3361 9.65848 11.8259 9.52493 11.2993L7.05419 10.6696L8.52102 9.4331Z" fill="#FFBB56"/>
<ellipse cx="6.08159" cy="10.8493" rx="2.68673" ry="1.82285" transform="rotate(40.3903 6.08159 10.8493)" fill="white"/>
<path d="M5.27474 11.3507L5.00004 10.3314C4.91015 9.99779 5.20838 9.68883 5.54493 9.76687L6.62095 10.0164C6.77695 10.0526 6.90267 10.1677 6.95238 10.3199L7.24306 11.21C7.34623 11.5259 7.08863 11.8429 6.75827 11.8066L5.66626 11.6863C5.47912 11.6657 5.32373 11.5325 5.27474 11.3507Z" fill="#FFD600"/>
</svg>
