<svg width="20" height="20" viewBox="0 0 20 20" fill="none" xmlns="http://www.w3.org/2000/svg">
<path d="M7.01367 9.15429C7.08175 8.97879 7.27933 8.8914 7.45498 8.95911L11.1643 10.3889C11.3399 10.4566 11.4271 10.6538 11.359 10.8293L8.18468 19.0125C8.09221 19.2509 7.7797 19.3069 7.61062 19.1153L6.36371 17.7029C6.2903 17.6197 6.18087 17.5775 6.07043 17.5898L4.19462 17.7986C3.94026 17.8269 3.74684 17.5759 3.83932 17.3375L7.01367 9.15429Z" fill="#FFC737"/>
<path d="M8.466 11.4525C8.37165 11.2896 8.42743 11.0814 8.59059 10.9875L12.0345 9.00545C12.1977 8.91155 12.4064 8.96748 12.5007 9.13038L16.9016 16.7288C17.0298 16.9501 16.8772 17.2278 16.6214 17.2389L14.7362 17.3206C14.6251 17.3254 14.5234 17.3839 14.4636 17.4774L13.4501 19.0641C13.3126 19.2794 12.995 19.2722 12.8668 19.0509L8.466 11.4525Z" fill="#FFC737"/>
<path d="M9.72196 1.35154L4.45236 3.24934C3.51377 3.58737 2.92084 4.51543 3.00857 5.50917L3.56403 11.8005C3.62278 12.4659 3.98109 13.0684 4.53767 13.4376L9.2195 16.544C9.95548 17.0324 10.9124 17.0324 11.6484 16.544L16.2806 13.4706C16.8652 13.0827 17.2293 12.4388 17.2605 11.7379L17.5423 5.40979C17.5845 4.46272 17.0143 3.59545 16.1281 3.25873L11.1413 1.36391C10.6848 1.19047 10.1814 1.18608 9.72196 1.35154Z" fill="#B4161D"/>
<path d="M9.72875 3.79991C9.91568 3.34713 10.557 3.34713 10.7439 3.79991L11.5783 5.82096C11.6559 6.00878 11.8308 6.13843 12.033 6.15799L14.1731 6.36503C14.6462 6.4108 14.8417 6.99533 14.4912 7.31649L12.8218 8.84624C12.69 8.96698 12.6253 9.1443 12.6482 9.32155L12.9488 11.6458C13.0104 12.1218 12.4746 12.4421 12.0844 12.1626L10.5561 11.068C10.3649 10.931 10.1078 10.931 9.91657 11.068L8.38827 12.1626C7.99807 12.4421 7.46233 12.1218 7.5239 11.6458L7.8245 9.32154C7.84742 9.1443 7.78266 8.96698 7.65089 8.84624L5.98149 7.31649C5.63101 6.99533 5.82645 6.4108 6.29961 6.36503L8.43965 6.15799C8.6419 6.13843 8.81682 6.00878 8.89436 5.82096L9.72875 3.79991Z" fill="#FFC737"/>
<path d="M14.9586 3.63933C15.017 3.51032 15.2002 3.51032 15.2587 3.63933L15.4513 4.06449C15.4679 4.10102 15.4972 4.13026 15.5337 4.14672L15.959 4.33816C16.0884 4.39646 16.0884 4.58031 15.959 4.63861L15.5337 4.83005C15.4972 4.84651 15.4679 4.87575 15.4513 4.91228L15.2587 5.33744C15.2002 5.46645 15.017 5.46645 14.9586 5.33744L14.7659 4.91228C14.7494 4.87575 14.7201 4.84651 14.6835 4.83005L14.2583 4.63861C14.1288 4.58031 14.1288 4.39646 14.2583 4.33816L14.6835 4.14672C14.7201 4.13026 14.7494 4.10102 14.7659 4.06449L14.9586 3.63933Z" fill="white"/>
<path d="M5.20178 10.588C5.24177 10.5053 5.35955 10.5053 5.39953 10.588L5.57279 10.9462C5.58361 10.9686 5.60169 10.9867 5.62409 10.9974L5.98266 11.1697C6.06567 11.2096 6.06567 11.3278 5.98266 11.3677L5.62409 11.54C5.60169 11.5508 5.58361 11.5688 5.57279 11.5912L5.39953 11.9495C5.35955 12.0322 5.24177 12.0322 5.20178 11.9495L5.02853 11.5912C5.01771 11.5688 4.99962 11.5508 4.97722 11.54L4.61866 11.3677C4.53564 11.3278 4.53564 11.2096 4.61866 11.1697L4.97722 10.9974C4.99962 10.9867 5.01771 10.9686 5.02853 10.9462L5.20178 10.588Z" fill="white"/>
</svg>
