<svg width="20" height="20" viewBox="0 0 20 20" fill="none" xmlns="http://www.w3.org/2000/svg">
<path d="M4.8085 16.5197C4.47038 15.1672 5.49329 13.8571 6.88737 13.8571H12.9698C14.3638 13.8571 15.3868 15.1672 15.0486 16.5197L14.8344 17.3768C14.5959 18.3308 13.7388 19 12.7555 19H7.10166C6.11837 19 5.26126 18.3308 5.02278 17.3768L4.8085 16.5197Z" fill="#650C10"/>
<path d="M4.62197 2.9649C4.71452 1.85428 5.64295 1 6.75743 1H13.0997C14.2142 1 15.1426 1.85428 15.2352 2.9649L16.1637 14.1078C16.2679 15.3571 15.2819 16.4286 14.0283 16.4286H5.82885C4.5752 16.4286 3.58929 15.3571 3.6934 14.1078L4.62197 2.9649Z" fill="#B4161D"/>
<path d="M6.07144 4.2143C6.07144 3.80548 6.46936 3.62007 6.87797 3.607C7.41325 3.58988 8.35491 3.57144 9.92858 3.57144C11.5023 3.57144 12.4439 3.58988 12.9792 3.607C13.3878 3.62007 13.7857 3.80548 13.7857 4.2143C13.7857 4.62312 13.3878 4.80852 12.9792 4.8216C12.4439 4.83872 11.5023 4.85716 9.92858 4.85716C8.35491 4.85716 7.41325 4.83872 6.87797 4.8216C6.46936 4.80852 6.07144 4.62312 6.07144 4.2143Z" fill="white"/>
<path d="M6.07144 6.78574C6.07144 6.37692 6.46936 6.19152 6.87797 6.17844C7.41325 6.16132 8.35491 6.14288 9.92858 6.14288C11.5023 6.14288 12.4439 6.16132 12.9792 6.17844C13.3878 6.19152 13.7857 6.37692 13.7857 6.78574C13.7857 7.19456 13.3878 7.37997 12.9792 7.39304C12.4439 7.41016 11.5023 7.4286 9.92858 7.4286C8.35491 7.4286 7.41325 7.41016 6.87797 7.39304C6.46936 7.37997 6.07144 7.19456 6.07144 6.78574Z" fill="white"/>
<path fill-rule="evenodd" clip-rule="evenodd" d="M12.2718 10.2466C12.2863 10.2575 12.3019 10.2671 12.3174 10.2768C12.5016 10.3926 12.5573 10.6314 12.4343 10.8107C11.3752 12.3539 10.3868 13.3714 9.90144 13.8328C9.72163 14.0037 9.44433 14.0151 9.25279 13.8564C8.84932 13.5221 8.13735 12.871 7.4306 11.9269C7.31797 11.7765 7.3373 11.5706 7.47192 11.4378L7.78368 11.1303C7.93532 10.9808 8.18308 10.9717 8.33956 11.1166C8.99772 11.7261 9.58785 12.4253 9.58785 12.4253C9.58785 12.4253 10.3916 11.2865 11.5185 10.122C11.6386 9.99792 11.8282 9.96584 11.9857 10.0379C12.0023 10.0455 12.0175 10.0557 12.0321 10.0666L12.2718 10.2466Z" fill="#FFC737"/>
</svg>
