<svg width="20" height="20" viewBox="0 0 20 20" fill="none" xmlns="http://www.w3.org/2000/svg">
<path d="M2.20001 7.56308C2.20001 7.16996 2.59026 6.89609 2.95995 7.02976L13.336 10.7815C13.5607 10.8627 13.7103 11.076 13.7103 11.3148V18.4324C13.7103 18.8255 13.3201 19.0994 12.9504 18.9657L2.57429 15.214C2.34967 15.1328 2.20001 14.9195 2.20001 14.6807V7.56308Z" fill="#650C10"/>
<path d="M2.20001 7.27017C2.20001 6.97802 2.42195 6.73368 2.71276 6.70567L17.0128 5.32853C17.3459 5.29645 17.6343 5.55834 17.6343 5.89302V13.0772C17.6343 13.3694 17.4123 13.6137 17.1215 13.6417L2.82148 15.0189C2.48834 15.051 2.20001 14.7891 2.20001 14.4544V7.27017Z" fill="#D2161E"/>
<path d="M5.0062 12.2609L7.01976 12.077L7.04822 11.2101L5.89359 11.3156L6.00101 8.35864L5.14677 8.43664L5.0062 12.2609Z" fill="white"/>
<path d="M7.72605 12.0125L8.58968 11.9337L8.73025 8.10942L7.86663 8.18828L7.72605 12.0125Z" fill="white"/>
<path d="M10.2903 11.7784L11.0225 11.7115L12.252 7.78784L11.3227 7.8727L10.7057 10.2374L10.6963 10.2382L10.2525 7.97042L9.33728 8.05399L10.2903 11.7784Z" fill="white"/>
<path d="M12.6827 11.5599L14.7761 11.3688L14.8092 10.5015L13.5373 10.6176L13.5643 9.99781L14.4843 9.91381L14.5103 9.07936L13.5903 9.16336L13.6162 8.52755L14.799 8.41955L14.8322 7.55225L12.8233 7.73568L12.6827 11.5599Z" fill="white"/>
<path fill-rule="evenodd" clip-rule="evenodd" d="M15.0602 3.16062C14.8562 3.00611 14.7958 2.70196 14.9253 2.48127L15.4063 1.66145C15.5357 1.44076 15.806 1.38711 16.01 1.54162C16.2139 1.69612 16.2743 2.00028 16.1448 2.22097L15.6639 3.04078C15.5344 3.26147 15.2641 3.31512 15.0602 3.16062Z" fill="#FFD01C"/>
<path fill-rule="evenodd" clip-rule="evenodd" d="M4.39363 4.71788C4.23759 4.92065 3.96396 4.93881 3.78248 4.75845L3.15078 4.13065C2.9693 3.95029 2.94868 3.63971 3.10473 3.43694C3.26077 3.23417 3.5344 3.216 3.71588 3.39636L4.34758 4.02416C4.52906 4.20452 4.54968 4.51511 4.39363 4.71788Z" fill="#FFD01C"/>
<path fill-rule="evenodd" clip-rule="evenodd" d="M9.26502 3.0097C9.026 3.10102 8.7734 2.97615 8.70081 2.7308L8.418 1.77495C8.34541 1.5296 8.48032 1.25668 8.71933 1.16536C8.95835 1.07404 9.21095 1.1989 9.28354 1.44425L9.56635 2.40011C9.63894 2.64546 9.50403 2.91838 9.26502 3.0097Z" fill="#FFD01C"/>
</svg>
