<svg width="20" height="20" viewBox="0 0 20 20" fill="none" xmlns="http://www.w3.org/2000/svg">
<path d="M1.62794 13.1191C4.36303 17.2983 9.5376 18.7778 12.7026 19.3444C13.0404 19.4049 13.2092 18.9511 12.9299 18.7517C11.8621 17.9895 11.053 17.2216 12.4016 17.4653C13.717 17.703 15.0699 18.3073 16.0121 18.8167C16.2921 18.9681 16.6752 18.6522 16.5848 18.3471C15.9726 16.281 15.6031 13.301 16.1697 14.1889C16.6174 14.8903 17.9848 16.5688 19.166 17.8705C19.3065 18.0253 19.6544 17.7557 19.5697 17.5646C19.164 16.6496 18.7895 15.5356 18.3098 14.2089C16.4147 8.9668 13.4734 2.69549 7.90645 2.41204C2.5108 2.1373 -1.65501 8.10293 1.62794 13.1191Z" fill="#D2161E"/>
<path d="M5.4396 15.0478C8.66989 16.6734 12.4757 15.632 13.9401 12.7219C15.4045 9.81181 13.9729 6.13496 10.7426 4.50944C7.51235 2.88391 3.70655 3.92526 2.24215 6.83536C0.777756 9.74546 2.2093 13.4223 5.4396 15.0478Z" fill="white"/>
<path fill-rule="evenodd" clip-rule="evenodd" d="M13.929 13.6519C15.8822 10.7086 14.8518 6.58856 11.6277 4.44951C8.40351 2.31047 4.20644 2.96244 2.25325 5.90574C0.300073 8.84903 1.33041 12.9691 4.55457 15.1081C7.77874 17.2472 11.9758 16.5952 13.929 13.6519ZM4.09431 13.3519C4.41156 13.6762 4.76374 13.9674 5.14369 14.2196C5.5338 14.4785 5.95036 14.6944 6.38441 14.8627L6.50447 14.8305C7.11394 14.667 7.69377 14.4082 8.22254 14.0638L8.13849 12.0691L5.86428 10.8648L4.07259 11.3324L4.09431 13.3519ZM8.52153 12.0022L10.2423 10.7284L12.3276 11.3879L12.7237 13.3564C12.2099 14.0221 11.5234 14.5429 10.722 14.875L8.71908 14.0835L8.52153 12.0022ZM2.98487 6.91491C2.57131 7.65346 2.36091 8.49526 2.37153 9.36882L3.89101 10.8602L5.62886 10.1184C5.62886 10.1184 5.67458 9.52274 5.79431 9.08171C5.90452 8.67578 6.36704 8.16948 6.36704 8.16948L4.93459 6.47526L2.98487 6.91491ZM5.33069 6.22394L6.17835 4.56418C7.05954 4.35684 8.00235 4.36551 8.92452 4.58944L8.95598 4.61959C9.44147 5.08485 9.8371 5.63554 10.1231 6.24411L9.00153 7.9183C8.14363 7.68504 6.73612 7.89834 6.73612 7.89834L5.33069 6.22394ZM10.5336 6.54168L9.43505 8.19705L10.3349 10.278L12.4521 10.9388L13.6313 9.4677C13.4733 8.5794 13.0937 7.71985 12.5256 6.96401L10.5336 6.54168Z" fill="#111111"/>
<path fill-rule="evenodd" clip-rule="evenodd" d="M8.16432 3.4267C4.69271 3.15258 1.94486 4.95483 1.40423 8.34226C0.825511 11.9684 4.14231 15.5122 7.95985 16.1214C8.05187 16.1361 8.1433 16.1491 8.23414 16.1605C5.81321 14.379 4.4448 11.4975 4.92039 8.51754C5.25859 6.39848 6.46741 4.617 8.16432 3.4267Z" fill="#182C3F" fill-opacity="0.2"/>
</svg>
