<svg width="20" height="20" viewBox="0 0 20 20" fill="none" xmlns="http://www.w3.org/2000/svg">
<path d="M7.04162 13.7777C6.62047 13.7777 6.05554 14.2923 6.05554 14.927C6.05554 15.5617 6.62047 16.0763 7.04162 16.0763H12.9582C13.3794 16.0763 13.9444 15.5617 13.9444 14.927C13.9444 14.2923 13.3794 13.7777 12.9582 13.7777H7.04162Z" fill="#650C10"/>
<path fill-rule="evenodd" clip-rule="evenodd" d="M2.00012 8.32356C2.00012 6.24939 2.00012 5.21231 2.5859 4.56795C3.17169 3.92358 4.11449 3.92358 6.0001 3.92358H14C15.8857 3.92358 16.8285 3.92358 17.4142 4.56795C18 5.21231 18 6.24939 18 8.32356V10.5235C18 12.5977 18 13.6348 17.4142 14.2792C16.8285 14.9235 15.8857 14.9235 14 14.9235H6.0001C4.11449 14.9235 3.17169 14.9235 2.5859 14.2792C2.00012 13.6348 2.00012 12.5977 2.00012 10.5235V8.32356ZM11.5001 8.47093C12.1667 8.89432 12.5001 9.10601 12.5001 9.42355C12.5001 9.74109 12.1667 9.95279 11.5001 10.3762L9.25008 11.8051C8.58342 12.2285 8.25008 12.4402 8.00009 12.2814C7.75009 12.1226 7.75009 11.6993 7.75009 10.8525V7.99462C7.75009 7.14784 7.75009 6.72445 8.00009 6.56568C8.25008 6.40691 8.58342 6.61861 9.25008 7.042L11.5001 8.47093Z" fill="#D2161E"/>
<path fill-rule="evenodd" clip-rule="evenodd" d="M11.109 7.7115C12.3762 8.47667 13.0099 8.85925 13.0099 9.42359C13.0099 9.98794 12.3762 10.3705 11.109 11.1357L10.5894 11.4494C9.24493 12.2613 8.57268 12.6672 8.06416 12.3802C7.55564 12.0932 7.55564 11.3079 7.55564 9.73733V9.10986C7.55564 7.53927 7.55564 6.75398 8.06416 6.467C8.57268 6.18002 9.24493 6.58593 10.5894 7.39776L11.109 7.7115Z" fill="#FFD01C"/>
</svg>
