<svg width="20" height="20" viewBox="0 0 20 20" fill="none" xmlns="http://www.w3.org/2000/svg">
<path d="M11.3455 1.52719L11.244 1.75483C11.1569 1.94503 11.0444 2.18048 10.9088 2.45011C10.6144 3.03517 10.2858 3.62946 9.92924 4.20338L9.77559 4.44664C9.00563 5.64545 8.2111 6.57941 7.43574 7.13131L7.32555 7.20624L7.31479 7.19247C6.9693 6.71677 6.83699 6.11046 6.96514 5.52363C7.06351 5.07317 6.58912 4.71418 6.18234 4.93123C2.62685 6.82842 1.22023 11.206 3.00512 14.8192C4.79001 18.4324 9.1214 19.9754 12.7887 18.3045L12.9828 18.2128C16.4426 16.5165 18.0494 12.4482 16.6603 8.83801L16.6244 8.74925L16.6189 8.72143C16.5282 8.38171 16.1081 8.12789 15.7385 8.43052L15.5525 8.57807C15.2311 8.81931 14.8823 9.02061 14.5138 9.17797L14.4878 9.18802L14.4729 8.9292C14.429 8.27214 14.3503 7.57152 14.2282 6.84858C13.8854 4.8181 13.2671 2.96213 12.2968 1.45C12.0631 1.08575 11.5175 1.13003 11.3455 1.52719Z" fill="#FFD01C"/>
<path d="M7.66888 1.78464C7.71106 2.0363 7.70195 2.29818 7.64225 2.55061L7.6346 2.56714C7.54304 2.90909 7.63099 3.24093 7.85133 3.43695C8.10122 3.65925 8.46021 3.65352 8.72286 3.42304L8.77236 3.37101C9.15491 2.89047 8.99496 2.11547 8.25829 1.38382C8.00708 1.13433 7.60565 1.40732 7.66888 1.78464Z" fill="#FFB23E"/>
<path d="M15.0549 4.44392C15.0459 4.69335 14.9953 4.94093 14.905 5.17771L14.8566 5.29516C14.6876 5.66218 14.747 6.0142 15.0112 6.22312C15.2628 6.42212 15.6497 6.43363 15.8899 6.20712C16.3113 5.80997 16.3097 5.06494 15.7377 4.24762C15.5413 3.96709 15.0671 4.10343 15.0549 4.44392Z" fill="#FFB23E"/>
<path fill-rule="evenodd" clip-rule="evenodd" d="M10.7161 8.17942C10.7073 8.18305 10.6992 8.18689 10.6907 8.19125C9.46819 8.82257 8.42168 9.74313 7.64056 10.8693L7.55032 11.0036C7.54624 11.0097 7.53767 11.0106 7.53244 11.0055C7.29385 10.7694 7.06319 10.5187 6.91271 10.2138C6.89957 10.1872 6.88754 10.16 6.87651 10.1325C6.76364 9.85108 6.42796 9.67326 6.22417 9.89782C6.1477 9.98209 6.07216 10.077 6.00467 10.1817C5.6737 10.6948 5.42146 11.2505 5.31551 11.8501C4.90893 14.1559 6.44844 16.3546 8.75407 16.7611C11.0597 17.1677 13.2495 15.6266 13.6649 13.3225C13.8315 12.3987 13.6323 11.6906 13.4523 11.2797C13.356 11.06 13.08 11.0385 12.8995 11.1965C12.7618 11.317 12.5953 11.4483 12.428 11.5451C12.0242 11.7788 11.7941 11.8305 11.3574 11.9559L11.3448 11.9592C11.2632 11.9804 11.1843 11.9169 11.1875 11.8328C11.2387 10.7728 11.4114 9.72143 11.7027 8.69924C11.7283 8.60933 11.7507 8.53139 11.7711 8.46189C11.8565 8.17199 11.6251 7.87476 11.3355 7.96121C11.0257 8.05371 10.7743 8.1554 10.7161 8.17942Z" fill="#D2161E"/>
</svg>
