<svg width="20" height="20" viewBox="0 0 20 20" fill="none" xmlns="http://www.w3.org/2000/svg">
<path fill-rule="evenodd" clip-rule="evenodd" d="M14.5724 2.67897C13.6401 2.4247 12.7554 2.81708 12.0265 3.71259C11.2897 4.61789 10.8333 5.91828 10.8333 7.08333L9.16662 7.08333C9.16662 5.91827 8.71026 4.61788 7.97344 3.71258C7.24459 2.81707 6.35989 2.4247 5.42755 2.67897C4.79297 2.85204 4.45724 3.46321 4.55056 4.19088C4.64173 4.90194 5.10594 5.41667 5.83337 5.41667V7.08333C4.06087 7.08333 3.06671 5.72306 2.89742 4.40287C2.73027 3.09929 3.33197 1.52296 4.98902 1.07103C6.76507 0.586659 8.2762 1.44428 9.26608 2.66051C9.54388 3.00183 9.78993 3.3805 9.99996 3.78301C10.21 3.38049 10.4561 3.00182 10.7339 2.6605C11.7238 1.44427 13.2349 0.58666 15.011 1.07103C16.668 1.52296 17.2697 3.09929 17.1026 4.40287C16.9333 5.72306 15.9391 7.08333 14.1666 7.08333V5.41667C14.8941 5.41667 15.3583 4.90194 15.4494 4.19088C15.5428 3.46321 15.207 2.85204 14.5724 2.67897Z" fill="#DF5252"/>
<path d="M18.1228 16.6857C18.0352 17.4677 17.4657 18.0251 16.6827 18.1036C15.5778 18.2144 13.5622 18.3333 9.99996 18.3333C6.43776 18.3333 4.42207 18.2144 3.31723 18.1036C2.53426 18.0251 1.96477 17.4677 1.87709 16.6857C1.77222 15.7504 1.66663 14.1837 1.66662 11.6667C1.66662 9.14965 1.77221 7.58294 1.87709 6.64761C1.96476 5.86561 2.53426 5.30827 3.31723 5.22976C4.42207 5.11896 6.43776 5 9.99996 5C13.5622 5 15.5778 5.11896 16.6827 5.22976C17.4657 5.30827 18.0352 5.86561 18.1228 6.64761C18.2277 7.58294 18.3333 9.14965 18.3333 11.6667C18.3333 14.1837 18.2277 15.7504 18.1228 16.6857Z" fill="#F8D36F"/>
<path fill-rule="evenodd" clip-rule="evenodd" d="M11.25 5.0052C10.8561 5.00181 10.4398 5 10 5C9.56015 5 9.14388 5.00181 8.75 5.0052V10.4167L1.67601 10.4167C1.66998 10.8047 1.66666 11.2208 1.66666 11.6667C1.66666 12.1126 1.66998 12.5286 1.67602 12.9167H8.75V18.3281C9.14388 18.3315 9.56015 18.3333 10 18.3333C10.4398 18.3333 10.8561 18.3315 11.25 18.3281V12.9167H18.324C18.33 12.5286 18.3333 12.1126 18.3333 11.6667C18.3333 11.2208 18.33 10.8047 18.324 10.4167H11.25V5.0052Z" fill="#DF5252"/>
</svg>
