<svg width="20" height="20" viewBox="0 0 20 20" fill="none" xmlns="http://www.w3.org/2000/svg">
<path d="M16.1748 6.84602C16.7419 6.71822 17.3974 6.8932 17.583 7.44407C17.8534 8.24667 18 9.10623 18 10C18 14.4183 14.4183 18 10 18C5.58172 18 2 14.4183 2 10C2 6.86636 3.80174 4.15351 6.4258 2.8409C6.99709 2.55513 7.63294 3.00349 7.99147 3.53217C8.43623 4.18802 9.18771 4.61898 10.0398 4.61898C10.2732 4.61898 10.4873 4.77904 10.5542 5.00254C10.8596 6.02197 11.8049 6.76487 12.9238 6.76487C13.1019 6.76487 13.2757 6.74603 13.4431 6.71024C13.7261 6.64977 14.0236 6.65575 14.2977 6.74854C14.6467 6.86671 15.0207 6.93079 15.4096 6.93079C15.6725 6.93079 15.9286 6.9015 16.1748 6.84602Z" fill="#F6DE7C"/>
<circle cx="7.03125" cy="9.4375" r="1.34375" fill="#E2A97C"/>
<circle cx="11.9688" cy="12.75" r="1.96875" fill="#E2A97C"/>
</svg>
