<svg width="20" height="20" viewBox="0 0 20 20" fill="none" xmlns="http://www.w3.org/2000/svg">
<path d="M1.7702 5.04971C1.87708 3.33952 2.99433 2.04482 4.69958 1.87658C5.89358 1.75879 7.59587 1.66667 10 1.66667C12.4041 1.66667 14.1064 1.75879 15.3004 1.87658C17.0057 2.04482 18.1229 3.33952 18.2298 5.0497C18.2889 5.99562 18.3333 7.21657 18.3333 8.75001C18.3333 10.2834 18.2889 11.5044 18.2298 12.4503C18.1229 14.1605 17.0057 15.4552 15.3004 15.6234C14.1064 15.7412 12.4041 15.8333 10 15.8333C7.59587 15.8333 5.89358 15.7412 4.69958 15.6234C2.99433 15.4552 1.87708 14.1605 1.7702 12.4503C1.71109 11.5044 1.66667 10.2834 1.66667 8.75001C1.66667 7.21657 1.71109 5.99562 1.7702 5.04971Z" fill="#B8CBCF"/>
<path d="M5 9.41569C5 9.10373 5.22994 8.84017 5.54061 8.8118C5.85079 8.78349 6.25873 8.75575 6.66667 8.75575C7.07461 8.75575 7.48254 8.78349 7.79273 8.8118C8.10339 8.84017 8.33333 9.10373 8.33333 9.41569V10.1754C8.33333 10.489 8.10112 10.7534 7.78879 10.7812C7.47909 10.8087 7.07288 10.8363 6.66667 10.8391C6.25701 10.8419 5.84736 10.814 5.5367 10.7849C5.2277 10.7559 5 10.4932 5 10.1829V9.41569Z" fill="#20406B"/>
<path d="M5 5.72517C5 5.38843 5.26534 5.11238 5.60191 5.10165C6.63966 5.06857 8.77213 5.00575 10 5.00575C11.2279 5.00575 13.3603 5.06857 14.3981 5.10165C14.7347 5.11238 15 5.38843 15 5.72517V6.36967C15 6.70641 14.7347 6.98246 14.3981 6.99319C13.3603 7.02627 11.2279 7.08909 10 7.08909C8.77213 7.08909 6.63966 7.02627 5.60191 6.99319C5.26534 6.98246 5 6.70641 5 6.36967V5.72517Z" fill="#20406B"/>
<path d="M10 12.5051C10 12.9714 10.2148 13.3875 10.5507 13.6595C10.5052 14.0897 10.6471 14.536 10.9763 14.8658C11.155 15.0448 11.368 15.1685 11.5941 15.2369C11.5972 16.0379 11.6209 16.9656 11.6847 17.9504C11.7067 18.2901 12.1058 18.454 12.3632 18.2316L13.1292 17.5699C13.2465 17.4686 13.4202 17.4686 13.5374 17.5699L14.3035 18.2316C14.5609 18.454 14.96 18.2901 14.982 17.9503C15.0458 16.9656 15.0695 16.0379 15.0725 15.2369C15.2987 15.1685 15.5117 15.0448 15.6904 14.8658C16.0196 14.536 16.1615 14.0897 16.116 13.6595C16.4519 13.3875 16.6667 12.9714 16.6667 12.5051C16.6667 12.0388 16.4519 11.6228 16.116 11.3507C16.1615 10.9205 16.0196 10.4742 15.6904 10.1445C15.3611 9.81475 14.9155 9.67265 14.486 9.71819C14.2144 9.38178 13.7989 9.16667 13.3333 9.16667C12.8677 9.16667 12.4523 9.38178 12.1807 9.71819C11.7512 9.67266 11.3055 9.81475 10.9763 10.1445C10.6471 10.4742 10.5052 10.9205 10.5507 11.3507C10.2148 11.6227 10 12.0388 10 12.5051Z" fill="#FFCE0D"/>
<circle cx="13.3333" cy="12.5" r="1.25" fill="#B8CBCF"/>
</svg>
