<svg width="20" height="20" viewBox="0 0 20 20" fill="none" xmlns="http://www.w3.org/2000/svg">
<path d="M4.17861 16.5803C3.43212 15.1172 3.32004 10.9941 3.39469 9.1155C3.42287 8.40634 3.43958 7.50683 3.46945 6.67077C3.50678 5.62569 3.91733 5.53238 4.38388 5.4764C4.85043 5.42041 5.27966 5.64435 5.39163 6.05492C5.5036 6.46548 5.6529 7.56655 5.70889 8.31303C5.76487 9.05951 5.6529 9.20881 5.95149 9.26479C6.19037 9.30958 6.25009 9.09683 6.25009 8.98486V4.07674C6.25009 3.81547 6.30607 2.97575 7.2765 2.97575C8.05284 2.97575 8.30913 3.54801 8.34023 3.83413C8.40866 5.03473 8.54925 7.56281 8.56418 8.07042C8.58284 8.70493 8.54552 8.92894 8.82545 8.98486C9.04939 9.0296 9.10538 8.69247 9.10538 8.51831C9.15514 6.82628 9.26214 3.36758 9.292 3.06899C9.32932 2.69575 9.38531 2.26659 10.3931 2.19194C11.1993 2.13222 11.463 2.6896 11.4941 2.97575L11.6434 6.40956C11.6248 7.25558 11.6695 8.94387 11.998 8.92894C12.4086 8.91028 12.3526 7.62255 12.4645 5.83099C12.5765 4.03943 12.7631 3.85281 13.6589 3.92746C14.3755 3.98718 14.5049 4.79836 14.4801 5.19648C14.3308 7.56034 14.1217 12.3329 14.4801 12.512C14.9279 12.736 17.3167 10.5338 17.7646 10.6831C18.2125 10.8324 19.7428 11.0564 17.0554 14.7515C14.3681 18.4465 13.211 19.193 9.73989 19.305C6.26875 19.417 5.11171 18.4092 4.17861 16.5803Z" fill="#FFCE0D"/>
</svg>
