<svg width="20" height="20" viewBox="0 0 20 20" fill="none" xmlns="http://www.w3.org/2000/svg">
<path d="M12.7414 3.00816C12.5815 2.67476 12.4706 2.29738 12.5969 1.94969C12.8766 1.17967 13.5041 0.925898 13.9635 0.846315C14.3121 0.785924 14.6525 0.940526 14.8783 1.21415C16.3776 3.0309 17.5844 7.24178 17.4956 11.3068C17.4457 13.5909 16.9712 15.2898 16.0011 16.9315C15.3951 17.9569 14.3925 18.6775 13.2262 18.8989C12.1606 19.1013 10.6627 19.2599 8.8877 19.1033C7.93879 19.0195 6.9981 18.7706 6.19107 18.2621C4.40752 17.1385 3.17747 15.3346 2.92578 12.7386C2.863 12.0911 3.13185 11.4385 3.73599 11.2043C3.88543 11.1464 4.05423 11.094 4.24224 11.054C4.87584 10.9192 5.35723 11.5038 5.55133 12.1246C6.01653 13.6126 7.361 14.5646 8.68274 14.1631C8.96625 14.0516 9.24131 13.8798 9.48325 13.699C10.0749 13.2567 10.3276 12.4655 10.0094 11.7971C9.31944 10.3476 7.78461 9.80128 5.95666 10.5192C5.57727 10.6683 5.15198 10.7349 4.81746 10.5013C4.69136 10.4133 4.55494 10.3 4.4203 10.1554C3.77275 9.4598 4.15133 8.36815 4.98224 7.90972C6.77424 6.92103 8.88995 6.7079 10.6481 7.39721C9.9472 6.21846 9.09557 5.14367 8.0951 4.32333C7.71093 4.00833 7.40035 3.56338 7.4758 3.07097C7.5825 2.37457 7.95455 2.01883 8.26384 1.84022C8.53983 1.68084 8.87278 1.73642 9.1588 1.8768C11.1462 2.85224 12.4912 3.99745 13.4642 5.27403C13.3002 4.43309 13.0503 3.65202 12.7414 3.00816Z" fill="#FFCE0D"/>
<path d="M3.40474 6.1182C3.32406 6.36351 2.97704 6.36351 2.89636 6.1182L2.56365 5.10655C2.5371 5.02583 2.47379 4.96251 2.39306 4.93596L1.38141 4.60325C1.1361 4.52257 1.1361 4.17555 1.38141 4.09487L2.39306 3.76216C2.47379 3.73561 2.5371 3.67229 2.56365 3.59157L2.89636 2.57992C2.97704 2.33461 3.32406 2.33461 3.40474 2.57992L3.73745 3.59157C3.764 3.6723 3.82732 3.73561 3.90804 3.76216L4.91969 4.09487C5.165 4.17555 5.165 4.52257 4.91969 4.60325L3.90804 4.93596C3.82732 4.96251 3.764 5.02583 3.73745 5.10655L3.40474 6.1182Z" fill="#FF9B3E"/>
<path d="M5.01043 3.3166C4.95737 3.47793 4.72915 3.47793 4.67609 3.3166L4.45292 2.63804C4.43546 2.58495 4.39382 2.54331 4.34074 2.52585L3.66217 2.30269C3.50084 2.24963 3.50084 2.02141 3.66217 1.96835L4.34074 1.74518C4.39382 1.72772 4.43546 1.68608 4.45292 1.63299L4.67609 0.954433C4.72915 0.793102 4.95737 0.793102 5.01043 0.954434L5.23359 1.63299C5.25105 1.68608 5.29269 1.72772 5.34578 1.74518L6.02434 1.96835C6.18568 2.02141 6.18568 2.24963 6.02434 2.30269L5.34578 2.52585C5.29269 2.54331 5.25105 2.58495 5.23359 2.63804L5.01043 3.3166Z" fill="#FF9B3E"/>
<path d="M1.45498 3.34543C1.41456 3.46833 1.24071 3.46833 1.20029 3.34543L1.05019 2.88905C1.03689 2.8486 1.00517 2.81688 0.964731 2.80358L0.508349 2.65349C0.385451 2.61307 0.385451 2.43922 0.508349 2.3988L0.964731 2.2487C1.00517 2.2354 1.03689 2.20368 1.05019 2.16324L1.20029 1.70686C1.24071 1.58396 1.41456 1.58396 1.45498 1.70686L1.60507 2.16324C1.61837 2.20368 1.65009 2.2354 1.69054 2.2487L2.14692 2.3988C2.26982 2.43922 2.26982 2.61307 2.14692 2.65349L1.69054 2.80358C1.65009 2.81688 1.61837 2.8486 1.60507 2.88905L1.45498 3.34543Z" fill="#FF9B3E"/>
</svg>
