<svg width="20" height="20" viewBox="0 0 20 20" fill="none" xmlns="http://www.w3.org/2000/svg">
<ellipse cx="9.99978" cy="15.8333" rx="3.33333" ry="3.33333" fill="#FFCE0D"/>
<path d="M16.3175 7.47987C16.0437 4.19407 13.2969 1.66669 9.99976 1.66669C6.70258 1.66669 3.95581 4.19407 3.682 7.47987L3.47333 9.9839C3.38107 11.091 3.03586 12.1621 2.46431 13.1147L2.22601 13.5118C1.40739 14.8762 1.87951 16.2375 3.46173 16.4056C4.82912 16.5509 6.89335 16.6667 9.99976 16.6667C13.1062 16.6667 15.1704 16.5509 16.5378 16.4056C18.12 16.2375 18.5921 14.8762 17.7735 13.5118L17.5352 13.1147C16.9637 12.1621 16.6185 11.091 16.5262 9.9839L16.3175 7.47987Z" fill="#EAC169"/>
<path fill-rule="evenodd" clip-rule="evenodd" d="M9.83733 4.58873C9.0855 4.63925 8.77056 5.42941 8.81511 6.18162C8.87212 7.14423 8.96069 8.48992 9.0577 9.4098C9.11292 9.93337 9.40654 10.4029 9.93285 10.4159C9.95457 10.4164 9.97685 10.4167 9.99968 10.4167C10.0225 10.4167 10.0448 10.4164 10.0665 10.4159C10.5928 10.4029 10.8864 9.93337 10.9417 9.4098C11.0387 8.48992 11.1272 7.14423 11.1842 6.18162C11.2288 5.42941 10.9138 4.63925 10.162 4.58873C10.1098 4.58522 10.0557 4.58334 9.99968 4.58334C9.94368 4.58334 9.88957 4.58522 9.83733 4.58873ZM9.99969 14.1667C10.6901 14.1667 11.2497 13.607 11.2497 12.9167C11.2497 12.2263 10.6901 11.6667 9.99969 11.6667C9.30934 11.6667 8.74969 12.2263 8.74969 12.9167C8.74969 13.607 9.30934 14.1667 9.99969 14.1667Z" fill="#D46B00"/>
</svg>
