<svg width="20" height="20" viewBox="0 0 20 20" fill="none" xmlns="http://www.w3.org/2000/svg">
<path d="M10 1.66668C8.04958 1.66668 3.9435 4.70997 2.23245 6.04801C1.73079 6.44031 1.41632 7.01885 1.37389 7.65427C1.31614 8.51893 1.25 9.97045 1.25 12.0833C1.25 14.0815 1.3683 15.4881 1.47883 16.3663C1.56996 17.0904 2.05474 17.6646 2.76949 17.8122C3.91552 18.0487 6.10391 18.3333 10 18.3333C13.8961 18.3333 16.0845 18.0487 17.2305 17.8122C17.9453 17.6646 18.43 17.0904 18.5212 16.3663C18.6317 15.4881 18.75 14.0815 18.75 12.0833C18.75 9.97044 18.6839 8.51893 18.6261 7.65427C18.5837 7.01885 18.2692 6.44031 17.7676 6.04801C16.0565 4.70997 11.9504 1.66668 10 1.66668Z" fill="#EAC169"/>
<path d="M3.33333 8.29581V4.16667C3.33333 2.78596 4.45262 1.66667 5.83333 1.66667H14.1667C15.5474 1.66667 16.6667 2.78596 16.6667 4.16667V8.29581C16.6667 8.84139 16.4016 9.35151 15.9452 9.6505C14.5347 10.5747 11.425 12.5 10 12.5C8.57499 12.5 5.4653 10.5747 4.05475 9.6505C3.5984 9.35151 3.33333 8.84139 3.33333 8.29581Z" fill="#EEEFEE"/>
<path d="M5.83334 7.70834C5.83334 7.36317 6.11316 7.08334 6.45834 7.08334H12.7083C13.0535 7.08334 13.3333 7.36317 13.3333 7.70834C13.3333 8.05352 13.0535 8.33334 12.7083 8.33334H6.45834C6.11316 8.33334 5.83334 8.05352 5.83334 7.70834Z" fill="#DAD8DC"/>
<path d="M5.83334 4.79167C5.83334 4.44649 6.11316 4.16667 6.45834 4.16667H10.2083C10.5535 4.16667 10.8333 4.44649 10.8333 4.79167C10.8333 5.13685 10.5535 5.41667 10.2083 5.41667H6.45834C6.11316 5.41667 5.83334 5.13685 5.83334 4.79167Z" fill="#DAD8DC"/>
</svg>
