<svg width="20" height="20" viewBox="0 0 20 20" fill="none" xmlns="http://www.w3.org/2000/svg">
<path d="M1.7796 14.8031C1.87704 16.5267 2.9982 17.8568 4.71185 18.066C5.92572 18.2142 7.63658 18.3333 10 18.3333C12.3634 18.3333 14.0743 18.2142 15.2882 18.066C17.0018 17.8568 18.123 16.5267 18.2204 14.8031C18.2841 13.6756 18.3333 12.119 18.3333 10C18.3333 7.88102 18.2841 6.32444 18.2204 5.19691C18.123 3.47329 17.0018 2.14326 15.2881 1.93404C14.0743 1.78584 12.3634 1.66668 10 1.66668C7.63659 1.66668 5.92573 1.78584 4.71185 1.93404C2.9982 2.14326 1.87704 3.47329 1.7796 5.19691C1.71586 6.32444 1.66667 7.88102 1.66667 10C1.66667 12.119 1.71586 13.6756 1.7796 14.8031Z" fill="#F3DCCE"/>
<path fill-rule="evenodd" clip-rule="evenodd" d="M9.05958 10.1481C8.38146 9.73572 7.91667 8.89134 7.91667 7.91668C7.91667 6.53596 8.84941 5.83334 10 5.83334C11.1506 5.83334 12.0833 6.53597 12.0833 7.91668C12.0833 8.89134 11.6185 9.73572 10.9404 10.1481C12.3235 10.595 13.3333 12.0024 13.3333 13.6695C13.3333 14.1811 11.841 14.5833 10 14.5833C8.15906 14.5833 6.66667 14.1811 6.66667 13.6695C6.66667 12.0024 7.67654 10.595 9.05958 10.1481Z" fill="#D46B00"/>
</svg>
