<svg width="20" height="20" viewBox="0 0 20 20" fill="none" xmlns="http://www.w3.org/2000/svg">
<path d="M16.2425 8.42017C16.321 8.32544 16.3691 8.21026 16.3505 8.08867C16.3194 7.88601 16.2173 7.50236 15.8985 6.86297C15.5797 6.22358 15.3348 5.91113 15.1916 5.76436C15.1057 5.67631 14.9848 5.64543 14.8619 5.65109C14.3458 5.67487 12.8611 5.76953 11.6553 6.10407C11.6553 6.10407 11.5602 6.39786 12.6096 8.50275C13.6591 10.6076 13.9509 10.7085 13.9509 10.7085C14.9438 9.94678 15.9129 8.81804 16.2425 8.42017Z" fill="#20406B"/>
<path d="M11.2043 16.5025C11.3393 17.0912 10.9767 17.665 10.4007 17.7742L8.79867 18.0782C8.1503 18.2012 7.53759 17.6847 7.52924 17.0081L7.48621 13.5212L10.4575 13.2458L11.2043 16.5025Z" fill="#20406B"/>
<path d="M5.18995 15.6845C4.7183 15.8434 4.20016 15.7542 3.89272 15.3465C3.60091 14.9596 3.20615 14.3509 2.74305 13.4221C2.27994 12.4933 2.03139 11.8117 1.89801 11.3458C1.75749 10.8549 1.99807 10.3874 2.40878 10.1064C3.93628 9.06094 7.71492 6.25717 9.68925 2.87244C10.1827 2.02654 11.2118 1.80757 11.7819 2.6261C12.4522 3.5884 13.3872 5.12043 14.583 7.5189C15.7789 9.91737 16.4397 11.5861 16.8049 12.7005C17.1155 13.6484 16.3212 14.3386 15.3487 14.2236C11.4574 13.7633 6.94413 15.0938 5.18995 15.6845Z" fill="#B8CBCF"/>
<path d="M3.89258 15.3467C4.20002 15.7543 4.71815 15.8435 5.18981 15.6847C5.45852 15.5942 5.79196 15.4863 6.17799 15.3702L3.25447 9.50655C2.92942 9.74497 2.64262 9.94637 2.40864 10.1065C1.99793 10.3876 1.75735 10.8551 1.89787 11.3459C2.03125 11.8118 2.2798 12.4934 2.7429 13.4223C3.20601 14.3511 3.60076 14.9598 3.89258 15.3467Z" fill="#DF5252"/>
<path fill-rule="evenodd" clip-rule="evenodd" d="M16.8903 3.12151C17.1075 3.3349 17.1105 3.68392 16.8971 3.90107L16.7219 4.07942C16.5085 4.29656 16.1595 4.29961 15.9423 4.08622C15.7252 3.87283 15.7221 3.52381 15.9355 3.30666L16.1108 3.12832C16.3242 2.91117 16.6732 2.90812 16.8903 3.12151Z" fill="#DF5252"/>
<path fill-rule="evenodd" clip-rule="evenodd" d="M19.2905 8.48172C19.2455 8.78283 18.9649 8.99044 18.6638 8.94544L18.4165 8.90848C18.1154 8.86348 17.9078 8.58291 17.9528 8.2818C17.9978 7.9807 18.2784 7.77309 18.5795 7.81809L18.8268 7.85505C19.1279 7.90005 19.3355 8.18062 19.2905 8.48172Z" fill="#DF5252"/>
<path fill-rule="evenodd" clip-rule="evenodd" d="M19.3428 4.83463C19.4954 5.09812 19.4054 5.43536 19.1419 5.58788L18.658 5.86799C18.3945 6.02052 18.0573 5.93056 17.9048 5.66708C17.7522 5.40359 17.8422 5.06635 18.1057 4.91383L18.5896 4.63372C18.8531 4.4812 19.1903 4.57115 19.3428 4.83463Z" fill="#DF5252"/>
</svg>
