<svg width="20" height="20" viewBox="0 0 20 20" fill="none" xmlns="http://www.w3.org/2000/svg">
<path d="M3.20754 9.49617C3.04961 8.5561 3.56369 7.74775 4.46426 7.43526C5.42047 7.10346 6.98402 6.61424 9.49263 5.94206C12.0012 5.26988 13.5999 4.91178 14.5939 4.72102C15.5301 4.54136 16.3795 4.98438 16.7127 5.87746C16.9693 6.56509 17.2977 7.56884 17.6841 9.01088C18.0705 10.4529 18.288 11.4864 18.4096 12.2102C18.5675 13.1503 18.0534 13.9586 17.1529 14.2711C16.1967 14.6029 14.6331 15.0921 12.1245 15.7643C9.61588 16.4365 8.0172 16.7946 7.02319 16.9853C6.08703 17.165 5.23765 16.722 4.90439 15.8289C4.64779 15.1413 4.31939 14.1375 3.933 12.6955C3.5466 11.2534 3.32913 10.22 3.20754 9.49617Z" fill="#FFCE0D"/>
<path d="M1.18106 4.22582C1.24351 3.27462 1.92968 2.60613 2.87797 2.50908C3.88485 2.40603 5.519 2.28943 8.11495 2.21206C10.7109 2.1347 12.3491 2.15378 13.3603 2.19668C14.3127 2.23709 15.0375 2.86353 15.1565 3.80932C15.2481 4.53751 15.3369 5.58988 15.3814 7.08213C15.4258 8.57437 15.3999 9.63016 15.3518 10.3625C15.2893 11.3137 14.6031 11.9822 13.6549 12.0793C12.648 12.1823 11.0138 12.2989 8.41787 12.3763C5.82192 12.4536 4.18373 12.4346 3.17249 12.3917C2.2201 12.3513 1.49535 11.7248 1.37636 10.779C1.28474 10.0508 1.19593 8.99846 1.15146 7.50621C1.10699 6.01397 1.13297 4.95818 1.18106 4.22582Z" fill="#6C9AE4"/>
<rect x="2.64122" y="3.76932" width="2.87628" height="2.87628" rx="1.43814" transform="rotate(-1.71 2.64122 3.76932)" fill="#F7CE45"/>
<rect x="3.24372" y="9.77014" width="2.87628" height="1.15051" rx="0.575256" transform="rotate(-1.71 3.24372 9.77014)" fill="#20406B"/>
<rect x="6.69376" y="9.66714" width="2.87628" height="1.15051" rx="0.575256" transform="rotate(-1.71 6.69376 9.66714)" fill="#20406B"/>
<rect x="10.1438" y="9.56415" width="2.87628" height="1.15051" rx="0.575256" transform="rotate(-1.71 10.1438 9.56415)" fill="#20406B"/>
<rect x="6.13503" y="15.1835" width="10.9299" height="1.15051" rx="0.575256" transform="rotate(-15 6.13503 15.1835)" fill="#D46B00"/>
</svg>
