<svg width="20" height="20" viewBox="0 0 20 20" fill="none" xmlns="http://www.w3.org/2000/svg">
<path fill-rule="evenodd" clip-rule="evenodd" d="M9.38823 2C6.94352 2 4.92253 3.91151 4.77897 6.35958L4.67913 8.06224C4.39417 8.08535 4.14877 8.10918 3.93838 8.13255C3.21142 8.21332 2.67734 8.71974 2.59524 9.44879C2.51593 10.1531 2.44434 11.257 2.44434 12.9474C2.44434 14.7324 2.53748 15.8635 2.63601 16.5606C2.72977 17.224 3.22746 17.6749 3.89087 17.7529C4.87779 17.8688 6.71939 18 9.9998 18C13.2802 18 15.1218 17.8688 16.1087 17.7529C16.7721 17.6749 17.2698 17.224 17.3636 16.5606C17.4621 15.8635 17.5553 14.7324 17.5553 12.9474C17.5553 11.1623 17.4621 10.0313 17.3636 9.33419C17.2698 8.67081 16.7721 8.21985 16.1087 8.14192C15.89 8.11623 15.6294 8.08979 15.3204 8.0642L15.2204 6.35958C15.0769 3.91151 13.0559 2 10.6112 2H9.38823ZM12.7898 7.93214L12.7063 6.50793C12.641 5.39517 11.7224 4.5263 10.6112 4.5263H9.38823C8.277 4.5263 7.35837 5.39517 7.29312 6.50793L7.20961 7.93199C8.00006 7.90891 8.92349 7.89479 9.9998 7.89479C11.0784 7.89479 12.0015 7.90897 12.7898 7.93214ZM9.99976 10.842C10.4238 10.842 10.7775 11.1637 10.8012 11.5884C10.8213 11.9496 10.8393 12.4195 10.8393 12.9472C10.8393 13.475 10.8213 13.9449 10.8012 14.3061C10.7775 14.7308 10.4238 15.0525 9.99976 15.0525C9.57574 15.0525 9.22207 14.7308 9.19837 14.3061C9.17822 13.9449 9.16027 13.475 9.16027 12.9472C9.16027 12.4195 9.17822 11.9496 9.19837 11.5884C9.22207 11.1637 9.57574 10.842 9.99976 10.842Z" fill="#20406B"/>
<rect x="10.8271" y="15.4319" width="1.65442" height="4.92773" rx="0.827209" transform="rotate(-180 10.8271 15.4319)" fill="#FFCE0D"/>
</svg>
