<svg width="20" height="20" viewBox="0 0 20 20" fill="none" xmlns="http://www.w3.org/2000/svg">
<path fill-rule="evenodd" clip-rule="evenodd" d="M5.42275 3.40254C3.32841 3.47759 1.81263 4.92458 1.72351 7.01837C1.70249 7.51231 2.11543 7.90556 2.56173 8.11823C3.26438 8.45305 3.74997 9.16982 3.74997 10C3.74997 10.8302 3.26438 11.547 2.56173 11.8818C2.11543 12.0945 1.70249 12.4877 1.72351 12.9816C1.81263 15.0754 3.32841 16.5224 5.42275 16.5975C6.55368 16.638 8.04471 16.6667 9.99997 16.6667C11.9552 16.6667 13.4463 16.638 14.5772 16.5975C16.6715 16.5224 18.1873 15.0754 18.2764 12.9816C18.2975 12.4877 17.8845 12.0945 17.4382 11.8818C16.7356 11.547 16.25 10.8302 16.25 10C16.25 9.16982 16.7356 8.45305 17.4382 8.11823C17.8845 7.90556 18.2975 7.51231 18.2764 7.01837C18.1873 4.92458 16.6715 3.47759 14.5772 3.40254C13.4463 3.36202 11.9552 3.33334 9.99997 3.33334C8.04471 3.33334 6.55368 3.36202 5.42275 3.40254Z" fill="#F6DE7C"/>
<path fill-rule="evenodd" clip-rule="evenodd" d="M9.25504 8.26804C9.25504 8.73466 9.11505 9.09863 8.83508 9.35994C8.5551 9.62125 8.19425 9.7519 7.75252 9.7519C7.30456 9.7519 6.94059 9.62125 6.66062 9.35994C6.38687 9.09863 6.24999 8.73466 6.24999 8.26804C6.24999 7.80764 6.38687 7.44679 6.66062 7.18548C6.94059 6.92417 7.30456 6.79352 7.75252 6.79352C8.19425 6.79352 8.5551 6.92417 8.83508 7.18548C9.11505 7.44679 9.25504 7.80764 9.25504 8.26804ZM7.37923 8.26804C7.37923 8.45469 7.41345 8.59468 7.48189 8.688C7.55655 8.7751 7.64676 8.81865 7.75253 8.81865C7.85829 8.81865 7.9454 8.7751 8.01383 8.688C8.08849 8.59468 8.12582 8.45469 8.12582 8.26804C8.12582 8.08761 8.08849 7.95385 8.01383 7.86675C7.9454 7.77964 7.85829 7.73609 7.75253 7.73609C7.64676 7.73609 7.55655 7.77964 7.48189 7.86675C7.41345 7.95385 7.37923 8.08761 7.37923 8.26804ZM13.75 11.7257C13.75 12.1923 13.61 12.5563 13.33 12.8176C13.0501 13.0789 12.6892 13.2096 12.2475 13.2096C11.7995 13.2096 11.4355 13.0789 11.1556 12.8176C10.8818 12.5563 10.7449 12.1923 10.7449 11.7257C10.7449 11.2653 10.8818 10.9045 11.1556 10.6431C11.4355 10.3818 11.7995 10.2512 12.2475 10.2512C12.6892 10.2512 13.0501 10.3818 13.33 10.6431C13.61 10.9045 13.75 11.2653 13.75 11.7257ZM11.8742 11.7257C11.8742 11.9124 11.9084 12.0523 11.9768 12.1457C12.0515 12.2328 12.1417 12.2763 12.2475 12.2763C12.3532 12.2763 12.4403 12.2328 12.5088 12.1457C12.5834 12.0523 12.6207 11.9124 12.6207 11.7257C12.6207 11.5453 12.5834 11.4115 12.5088 11.3244C12.4403 11.2373 12.3532 11.1938 12.2475 11.1938C12.1417 11.1938 12.0515 11.2373 11.9768 11.3244C11.9084 11.4115 11.8742 11.5453 11.8742 11.7257ZM11.939 6.91018C11.616 6.7427 11.2453 6.93244 11.0528 7.24118L8.04741 12.0617C7.97275 12.1799 7.90742 12.2888 7.85143 12.3883C7.80165 12.4879 7.77677 12.5874 7.77677 12.687C7.77677 12.8301 7.85454 12.9483 8.01008 13.0416C8.34682 13.2229 8.73447 12.9967 8.93707 12.6723L11.9297 7.88075C12.0106 7.7501 12.0759 7.635 12.1257 7.53545C12.1755 7.4359 12.2003 7.33947 12.2003 7.24615C12.2003 7.10305 12.1132 6.99106 11.939 6.91018Z" fill="#EFAA40"/>
</svg>
