<svg width="20" height="20" viewBox="0 0 20 20" fill="none" xmlns="http://www.w3.org/2000/svg">
<path d="M2 8.9613C2 6.18511 2 4.79701 2.66053 3.79625C2.95877 3.34439 3.3458 2.95777 3.79813 2.65984C4.79994 2 6.1895 2 8.9686 2H11.0314C13.8105 2 15.2001 2 16.2019 2.65984C16.6542 2.95777 17.0412 3.34439 17.3395 3.79625C18 4.79701 18 6.18511 18 8.9613C18 11.7375 18 13.1256 17.3395 14.1264C17.0412 14.5782 16.6542 14.9648 16.2019 15.2628C15.2001 15.9226 13.8105 15.9226 11.0314 15.9226H10L7.52996 17.4647C6.85346 17.8871 6.51522 18.0983 6.25761 17.9556C6 17.813 6 17.4145 6 16.6176L5.99985 15.9226C3.79081 15.9226 2.00004 14.1335 2 11.9268V8.9613Z" fill="#B8CBCF"/>
<path d="M8.84205 8.5567C8.72137 8.66435 8.66334 8.81012 8.66795 8.994L8.66744 9.84843C8.66744 10.1842 8.94788 10.4563 9.29382 10.4563H9.87949C10.2254 10.4563 10.5059 10.1842 10.5059 9.84843V9.6604L10.5936 9.62069C10.9865 9.44047 11.3349 9.25337 11.6388 9.0594C11.9428 8.86543 12.1892 8.65441 12.3781 8.42633C12.5749 8.19741 12.7133 7.94383 12.7933 7.66557C12.8803 7.37886 12.9033 7.05265 12.8623 6.68694C12.7787 5.94028 12.4687 5.37169 11.9325 4.98117C11.4041 4.58981 10.6767 4.44302 9.75035 4.54079C9.42848 4.57476 9.12965 4.63714 8.85386 4.72792C8.57722 4.81108 8.33932 4.92099 8.14017 5.05764C7.94101 5.1943 7.78802 5.35306 7.68119 5.53393C7.58222 5.71398 7.54511 5.91447 7.56987 6.13542C7.58893 6.3055 7.64804 6.45579 7.74066 6.58267C7.93541 6.84949 8.32442 6.76201 8.60527 6.58138C8.67564 6.53612 8.74753 6.49378 8.82094 6.45436C9.05235 6.32201 9.32899 6.23885 9.65086 6.20488C10.0041 6.16759 10.2647 6.22489 10.4327 6.37676C10.6085 6.52781 10.7075 6.70237 10.7297 6.90047C10.7544 7.12141 10.7047 7.31554 10.5804 7.48283C10.4554 7.6425 10.2798 7.77667 10.0536 7.88534L9.37526 8.21133C9.15699 8.31917 8.97925 8.43429 8.84205 8.5567Z" fill="#20406B"/>
<path d="M8.42841 12.2968C8.42841 11.975 8.52712 11.7144 8.72454 11.5151C8.92986 11.3159 9.21019 11.2162 9.56555 11.2162C9.9209 11.2162 10.1973 11.3159 10.3947 11.5151C10.6 11.7144 10.7027 11.975 10.7027 12.2968C10.7027 12.6187 10.6 12.8793 10.3947 13.0786C10.1973 13.2778 9.9209 13.3774 9.56555 13.3774C9.21019 13.3774 8.92986 13.2778 8.72454 13.0786C8.52712 12.8793 8.42841 12.6187 8.42841 12.2968Z" fill="#20406B"/>
</svg>
