<svg width="20" height="20" viewBox="0 0 20 20" fill="none" xmlns="http://www.w3.org/2000/svg">
<path d="M18.3333 14.5833C18.3333 12.4027 16.7148 11.0101 14.5362 10.917C13.3961 10.8683 11.9115 10.8333 9.99996 10.8333C8.08845 10.8333 6.6038 10.8683 5.46371 10.917C3.28517 11.0101 1.66663 12.4027 1.66663 14.5833C1.66663 16.7638 3.28517 18.1564 5.46371 18.2495C6.6038 18.2982 8.08845 18.3333 9.99996 18.3333C11.9115 18.3333 13.3961 18.2982 14.5362 18.2495C16.7148 18.1564 18.3333 16.7638 18.3333 14.5833Z" fill="#BCC9D2"/>
<ellipse cx="2.08333" cy="2.08333" rx="2.08333" ry="2.08333" transform="matrix(-1 0 0 1 7.50005 12.5)" fill="#79818C"/>
<path d="M1.66667 5.41663C1.66667 3.23609 3.28521 1.84346 5.46375 1.7504C6.60384 1.7017 8.08849 1.66663 10 1.66663C11.9115 1.66663 13.3962 1.7017 14.5363 1.7504C16.7148 1.84346 18.3333 3.23609 18.3333 5.41663C18.3333 7.59716 16.7148 8.98979 14.5363 9.08285C13.3962 9.13155 11.9115 9.16663 10 9.16663C8.08849 9.16663 6.60384 9.13155 5.46375 9.08285C3.2852 8.98979 1.66667 7.59716 1.66667 5.41663Z" fill="#DBE3E7"/>
<ellipse cx="14.5833" cy="5.41665" rx="2.08333" ry="2.08333" fill="#79818C"/>
</svg>
