<svg width="20" height="20" viewBox="0 0 20 20" fill="none" xmlns="http://www.w3.org/2000/svg">
<path d="M4.98396 7.56313C5.4094 5.03542 5.62211 3.77157 6.62077 3.13215C7.61943 2.49272 9.01403 2.72745 11.8032 3.19689C14.5924 3.66633 15.987 3.90105 16.7214 4.83215C17.4557 5.76325 17.243 7.0271 16.8175 9.55481L16.2159 13.1295C15.7904 15.6572 15.5777 16.9211 14.5791 17.5605C13.5804 18.1999 12.1858 17.9652 9.39661 17.4958C6.60742 17.0263 5.21282 16.7916 4.47849 15.8605C3.74416 14.9294 3.95688 13.6656 4.38231 11.1379L4.98396 7.56313Z" fill="#B8CBCF"/>
<path d="M2.28 7.4375C2.28 4.87424 2.28 3.59261 3.15868 2.7963C4.03736 2 5.45157 2 8.28 2C11.1084 2 12.5226 2 13.4013 2.7963C14.28 3.59261 14.28 4.87424 14.28 7.4375V11.0625C14.28 13.6258 14.28 14.9074 13.4013 15.7037C12.5226 16.5 11.1084 16.5 8.28 16.5C5.45157 16.5 4.03736 16.5 3.15868 15.7037C2.28 14.9074 2.28 13.6258 2.28 11.0625V7.4375Z" fill="#EEEFEE"/>
<path d="M3.48019 7.28233C3.48019 7.58181 3.70094 7.83483 3.99918 7.86206C4.29695 7.88924 4.68857 7.91587 5.08019 7.91587C5.47181 7.91587 5.86344 7.88924 6.16121 7.86206C6.45945 7.83483 6.68019 7.58181 6.68019 7.28233V6.55299C6.68019 6.25197 6.45727 5.9981 6.15743 5.97145C5.86012 5.94503 5.47016 5.91856 5.08019 5.91587C4.68693 5.91316 4.29366 5.93996 3.99542 5.96792C3.69879 5.99573 3.48019 6.24791 3.48019 6.54585V7.28233Z" fill="#B8CBCF"/>
<path d="M3.48019 10.8252C3.48019 11.1485 3.73492 11.4135 4.05803 11.4238C5.05427 11.4556 7.10144 11.5159 8.28019 11.5159C9.45895 11.5159 11.5061 11.4556 12.5024 11.4238C12.8255 11.4135 13.0802 11.1485 13.0802 10.8252V10.2065C13.0802 9.88324 12.8255 9.61823 12.5024 9.60793C11.5061 9.57618 9.45895 9.51587 8.28019 9.51587C7.10144 9.51587 5.05427 9.57618 4.05803 9.60793C3.73492 9.61823 3.48019 9.88324 3.48019 10.2065V10.8252Z" fill="#B8CBCF"/>
</svg>
