<svg width="20" height="20" viewBox="0 0 20 20" fill="none" xmlns="http://www.w3.org/2000/svg">
<path d="M3.40056 7.23621C3.27114 6.46582 3.69243 5.80337 4.43045 5.54728C5.21407 5.27537 6.49541 4.87445 8.55123 4.3236C10.6071 3.77274 11.9172 3.47928 12.7318 3.32295C13.499 3.17572 14.195 3.53877 14.4682 4.27066C14.6784 4.83417 14.9476 5.65675 15.2642 6.83851C15.5809 8.02027 15.7591 8.86721 15.8587 9.46036C15.9881 10.2308 15.5669 10.8932 14.8288 11.1493C14.0452 11.4212 12.7639 11.8221 10.7081 12.373C8.65224 12.9238 7.34211 13.2173 6.52751 13.3736C5.76032 13.5209 5.06426 13.1578 4.79114 12.4259C4.58086 11.8624 4.31173 11.0398 3.99508 9.85806C3.67843 8.67631 3.50021 7.82937 3.40056 7.23621Z" fill="#6C9AE4"/>
<path d="M1.87713 6.64761C1.96481 5.86561 2.5337 5.306 3.31647 5.22547C4.38127 5.11592 6.28681 5 9.58333 5C12.8799 5 14.7854 5.11592 15.8502 5.22547C16.633 5.306 17.2019 5.86561 17.2895 6.64761C17.3944 7.58294 17.5 9.14965 17.5 11.6667C17.5 14.1837 17.3944 15.7504 17.2895 16.6857C17.2019 17.4677 16.633 18.0273 15.8502 18.1079C14.7854 18.2174 12.8799 18.3333 9.58333 18.3333C6.28681 18.3333 4.38127 18.2174 3.31647 18.1079C2.5337 18.0273 1.96481 17.4677 1.87713 16.6857C1.77226 15.7504 1.66667 14.1837 1.66667 11.6667C1.66667 9.14965 1.77226 7.58294 1.87713 6.64761Z" fill="#E2A97C"/>
<path d="M12.5216 10.5632C12.5559 9.77709 13.1088 9.2317 13.8949 9.19615C14.2798 9.17874 14.7772 9.16669 15.4167 9.16669C16.0562 9.16669 16.5536 9.17874 16.9385 9.19615C17.7245 9.2317 18.2774 9.77709 18.3118 10.5632C18.3248 10.8611 18.3333 11.2248 18.3333 11.6667C18.3333 12.1085 18.3248 12.4723 18.3118 12.7702C18.2774 13.5563 17.7245 14.1017 16.9385 14.1372C16.5536 14.1546 16.0562 14.1667 15.4167 14.1667C14.7772 14.1667 14.2798 14.1546 13.8949 14.1372C13.1088 14.1017 12.5559 13.5563 12.5216 12.7702C12.5085 12.4723 12.5 12.1085 12.5 11.6667C12.5 11.2248 12.5085 10.8611 12.5216 10.5632Z" fill="#F7CE45"/>
<path d="M15.8333 11.6666C15.8333 12.1269 15.4602 12.5 15 12.5C14.5398 12.5 14.1667 12.1269 14.1667 11.6666C14.1667 11.2064 14.5398 10.8333 15 10.8333C15.4602 10.8333 15.8333 11.2064 15.8333 11.6666Z" fill="#E2A97C"/>
</svg>
