<svg width="50" height="50" viewBox="0 0 50 50" fill="none" xmlns="http://www.w3.org/2000/svg">
<mask id="mask0_504_441" style="mask-type:alpha" maskUnits="userSpaceOnUse" x="4" y="11" width="42" height="28">
<path d="M4.34906 11.6312H46V38.3042H4.34906V11.6312Z" fill="white"/>
</mask>
<g mask="url(#mask0_504_441)">
<path fill-rule="evenodd" clip-rule="evenodd" d="M42.2687 11.6299H8.06531C7.92283 11.6299 7.7801 11.6299 7.63788 11.6307C7.5178 11.6317 7.39773 11.633 7.27791 11.6362C7.01636 11.6433 6.75255 11.6586 6.49453 11.7052C6.23198 11.7523 5.98781 11.8293 5.74967 11.9506C5.51532 12.0697 5.3011 12.2255 5.11532 12.4113C4.9293 12.5973 4.77348 12.8113 4.65441 13.0456C4.53308 13.284 4.45605 13.5282 4.40923 13.7908C4.36241 14.0493 4.34705 14.3128 4.34001 14.5741C4.33673 14.6942 4.33522 14.814 4.33447 14.9339C4.33392 15.0763 4.33392 15.2188 4.33392 15.3615V34.5728C4.33392 34.7155 4.33392 34.8575 4.33447 35.0005C4.33522 35.1203 4.33673 35.2404 4.34001 35.3602C4.34705 35.6215 4.36241 35.8848 4.40923 36.1433C4.45605 36.4061 4.53308 36.6501 4.65441 36.8885C4.77348 37.1228 4.9293 37.337 5.11532 37.5225C5.3011 37.7091 5.51532 37.8646 5.74967 37.9835C5.98781 38.105 6.23198 38.1821 6.49453 38.2294C6.75255 38.2755 7.01636 38.2911 7.27791 38.2981C7.39773 38.3009 7.5178 38.3027 7.63788 38.3032C7.7801 38.3042 7.92283 38.3042 8.06531 38.3042H42.2687C42.4109 38.3042 42.5536 38.3042 42.6959 38.3032C42.8157 38.3027 42.9357 38.3009 43.0561 38.2981C43.3171 38.2911 43.5807 38.2755 43.8397 38.2294C44.1017 38.1821 44.3459 38.105 44.5841 37.9835C44.8187 37.8646 45.0324 37.7091 45.2187 37.5225C45.4042 37.337 45.5597 37.1228 45.6793 36.8885C45.8007 36.6501 45.8779 36.4061 45.9248 36.1433C45.9713 35.8848 45.9864 35.6215 45.9935 35.3602C45.9967 35.2404 45.9985 35.1203 45.999 35.0005C46 34.8575 46 34.7155 46 34.5728V15.3615C46 15.2188 46 15.0763 45.999 14.9339C45.9985 14.814 45.9967 14.6942 45.9935 14.5741C45.9864 14.3128 45.9713 14.0493 45.9248 13.7908C45.8779 13.5282 45.8007 13.284 45.6793 13.0456C45.5597 12.8113 45.4042 12.5973 45.2187 12.4113C45.0324 12.2255 44.8187 12.0697 44.5841 11.9506C44.3459 11.8293 44.1017 11.7523 43.8397 11.7052C43.5807 11.6586 43.3171 11.6433 43.0561 11.6362C42.9357 11.633 42.8157 11.6317 42.6959 11.6307C42.5536 11.6299 42.4109 11.6299 42.2687 11.6299Z" fill="#000003"/>
</g>
<path fill-rule="evenodd" clip-rule="evenodd" d="M42.2686 12.519L42.6893 12.5198C42.8033 12.5205 42.9173 12.5218 43.0319 12.5251C43.2312 12.5304 43.4646 12.5412 43.6821 12.5802C43.8709 12.6142 44.0295 12.666 44.1815 12.7433C44.3318 12.8196 44.4692 12.9195 44.5893 13.0396C44.7099 13.1604 44.8101 13.2981 44.8874 13.4499C44.9644 13.601 45.0157 13.7585 45.0497 13.9488C45.0885 14.1641 45.0991 14.3979 45.1048 14.5983C45.1079 14.7118 45.1091 14.8249 45.1099 14.9409C45.1109 15.0809 45.1109 15.2211 45.1109 15.3615V34.5728C45.1109 34.7133 45.1109 34.8532 45.1096 34.9962C45.1091 35.1095 45.1079 35.2228 45.1048 35.3363C45.0991 35.5367 45.0885 35.77 45.0492 35.9878C45.0157 36.1756 44.9644 36.3334 44.8871 36.4849C44.8098 36.6365 44.7099 36.7742 44.5898 36.894C44.469 37.0148 44.332 37.1145 44.18 37.1915C44.029 37.2686 43.8709 37.3204 43.6836 37.3539C43.4618 37.3937 43.2192 37.4045 43.0359 37.4093C42.9209 37.412 42.8063 37.4135 42.6888 37.4141C42.5491 37.4153 42.4086 37.4153 42.2686 37.4153H8.06527C8.06351 37.4153 8.06174 37.4153 8.05973 37.4153C7.92153 37.4153 7.78283 37.4153 7.64212 37.4141C7.52733 37.4135 7.41254 37.412 7.30178 37.4095C7.11475 37.4045 6.87158 37.3937 6.65157 37.3541C6.46303 37.3204 6.30469 37.2686 6.15164 37.1905C6.00136 37.1142 5.86417 37.0148 5.74334 36.8935C5.62352 36.7739 5.52384 36.6367 5.44681 36.4849C5.36953 36.3336 5.31792 36.1753 5.28394 35.9852C5.24492 35.7683 5.2341 35.5354 5.22881 35.3363C5.22554 35.2225 5.22428 35.1085 5.22353 34.9952L5.22302 34.6612V15.2732L5.22353 14.9396C5.22428 14.8259 5.22554 14.7121 5.22881 14.598C5.2341 14.3989 5.24492 14.1661 5.28444 13.9471C5.31792 13.7588 5.36953 13.6007 5.44706 13.4484C5.52358 13.2979 5.62352 13.1604 5.7441 13.0399C5.86417 12.9198 6.00161 12.8198 6.1529 12.7431C6.30419 12.666 6.46278 12.6142 6.65157 12.5802C6.86906 12.5412 7.10241 12.5304 7.30229 12.5251C7.41607 12.5218 7.5301 12.5205 7.64312 12.5198L8.06527 12.519H42.2686Z" fill="#FFFFFE"/>
<path fill-rule="evenodd" clip-rule="evenodd" d="M15.7085 20.6015C16.0655 20.1554 16.3074 19.5563 16.2437 18.9441C15.7213 18.97 15.084 19.2885 14.7149 19.735C14.3837 20.1174 14.0907 20.7417 14.1669 21.3285C14.7532 21.3791 15.339 21.0355 15.7085 20.6015Z" fill="#000003"/>
<path fill-rule="evenodd" clip-rule="evenodd" d="M16.2368 21.4427C15.3855 21.3922 14.6615 21.9261 14.255 21.9261C13.8482 21.9261 13.2257 21.4684 12.5523 21.4808C11.6758 21.4936 10.8625 21.9892 10.4179 22.7774C9.5029 24.354 10.1763 26.693 11.0661 27.9771C11.4978 28.6124 12.0187 29.3117 12.7046 29.2868C13.3528 29.2614 13.6068 28.8672 14.3947 28.8672C15.1821 28.8672 15.4109 29.2868 16.0971 29.2742C16.8088 29.2614 17.2536 28.6384 17.6855 28.0025C18.1812 27.2783 18.3838 26.579 18.3967 26.5405C18.3838 26.5276 17.0247 26.0063 17.0122 24.4428C16.9991 23.1336 18.0792 22.5108 18.1301 22.4723C17.5201 21.5701 16.5674 21.4684 16.2368 21.4427Z" fill="#000003"/>
<path fill-rule="evenodd" clip-rule="evenodd" d="M21.5548 24.7069H23.2532C24.542 24.7069 25.2753 24.0131 25.2753 22.8104C25.2753 21.6076 24.542 20.9201 23.2598 20.9201H21.5548V24.7069ZM23.6499 19.6711C25.5004 19.6711 26.7887 20.9466 26.7887 22.8036C26.7887 24.6673 25.4737 25.9496 23.6034 25.9496H21.5548V29.2075H20.0744V19.6711H23.6499Z" fill="#000003"/>
<path fill-rule="evenodd" clip-rule="evenodd" d="M31.6629 26.6036V26.0554L29.9514 26.1611C29.0989 26.2205 28.6163 26.5971 28.6163 27.1919C28.6163 27.7998 29.1187 28.1963 29.8852 28.1963C30.8831 28.1963 31.6629 27.5091 31.6629 26.6036ZM27.1757 27.2314C27.1757 26.0153 28.1073 25.2687 29.7599 25.1761L31.6629 25.0638V24.5286C31.6629 23.7553 31.1409 23.2929 30.2686 23.2929C29.4425 23.2929 28.9269 23.6891 28.8013 24.3104H27.4533C27.5326 23.0548 28.6032 22.1294 30.3215 22.1294C32.0068 22.1294 33.0839 23.0218 33.0839 24.4161V29.2075H31.7158V28.0641H31.6831C31.2798 28.8375 30.4008 29.3266 29.4888 29.3266C28.1274 29.3266 27.1757 28.4805 27.1757 27.2314Z" fill="#000003"/>
<path fill-rule="evenodd" clip-rule="evenodd" d="M34.3755 31.7653V30.6086C34.481 30.635 34.7189 30.635 34.8379 30.635C35.4987 30.635 35.8557 30.3574 36.0737 29.6437C36.0737 29.6307 36.1993 29.2208 36.1993 29.2141L33.688 22.2551H35.2344L36.9925 27.9124H37.0189L38.777 22.2551H40.2838L37.6797 29.571C37.0849 31.2566 36.3976 31.7983 34.957 31.7983C34.8379 31.7983 34.481 31.7849 34.3755 31.7653Z" fill="#000003"/>
</svg>
