<svg width="50" height="50" viewBox="0 0 50 50" fill="none" xmlns="http://www.w3.org/2000/svg">
<path d="M22.6536 32.223C22.6794 32.9929 23.0208 33.7218 23.7738 33.8841C24.0907 33.9525 24.4933 34 25 34C25.5067 34 25.9093 33.9525 26.2261 33.8841C26.9792 33.7218 27.3206 32.9929 27.3463 32.223C27.3737 31.4048 27.4 30.078 27.4 28C27.4 25.922 27.3737 24.5952 27.3463 23.777C27.3206 23.0071 26.9792 22.2782 26.2261 22.1159C25.9093 22.0475 25.5067 22 25 22C24.4933 22 24.0907 22.0475 23.7738 22.1159C23.0208 22.2782 22.6794 23.0071 22.6536 23.777C22.6263 24.5952 22.6 25.922 22.6 28C22.6 30.078 22.6263 31.4048 22.6536 32.223Z" fill="#666666"/>
<path d="M29.8534 32.223C29.8792 32.9929 30.2206 33.7218 30.9736 33.8841C31.2905 33.9525 31.6931 34 32.1998 34C32.7065 34 33.1091 33.9525 33.426 33.8841C34.179 33.7218 34.5204 32.9929 34.5462 32.223C34.5735 31.4048 34.5998 30.078 34.5998 28C34.5998 25.922 34.5735 24.5952 34.5462 23.777C34.5204 23.0071 34.179 22.2782 33.426 22.1159C33.1091 22.0475 32.7065 22 32.1998 22C31.6931 22 31.2905 22.0475 30.9736 22.1159C30.2206 22.2782 29.8792 23.0071 29.8534 23.777C29.8261 24.5952 29.7998 25.922 29.7998 28C29.7998 30.078 29.8261 31.4048 29.8534 32.223Z" fill="#666666"/>
<path d="M15.4537 32.223C15.4794 32.9929 15.8208 33.7218 16.5739 33.8841C16.8907 33.9525 17.2933 34 17.8 34C18.3067 34 18.7093 33.9525 19.0262 33.8841C19.7792 33.7218 20.1206 32.9929 20.1464 32.223C20.1737 31.4048 20.2 30.078 20.2 28C20.2 25.922 20.1737 24.5952 20.1464 23.777C20.1206 23.0071 19.7792 22.2782 19.0262 22.1159C18.7093 22.0475 18.3067 22 17.8 22C17.2933 22 16.8907 22.0475 16.5739 22.1159C15.8208 22.2782 15.4794 23.0071 15.4537 23.777C15.4263 24.5952 15.4 25.922 15.4 28C15.4 30.078 15.4263 31.4048 15.4537 32.223Z" fill="#666666"/>
<path d="M25 23.5C29.794 23.5 32.917 23.4118 34.7719 23.3311C36.0378 23.276 37 22.2321 37 20.965C37 20.0809 36.713 19.2093 36.0569 18.6167C33.74 16.5238 29.2103 14.0186 25.928 13.1928C25.3176 13.0392 24.6824 13.0392 24.072 13.1928C20.7897 14.0186 16.26 16.5238 13.9431 18.6167C13.287 19.2093 13 20.0809 13 20.965C13 22.2321 13.9622 23.276 15.2281 23.3311C17.083 23.4118 20.206 23.5 25 23.5Z" fill="#C9CBCB"/>
<path d="M13.0904 33.5481C13.2407 32.7645 13.9954 32.4012 14.7925 32.3633C16.2715 32.2931 19.3059 32.2 25 32.2C30.6941 32.2 33.7285 32.2931 35.2075 32.3633C36.0046 32.4012 36.7593 32.7645 36.9096 33.5481C36.9638 33.8304 37 34.1772 37 34.6C37 35.0228 36.9638 35.3696 36.9096 35.6519C36.7593 36.4355 36.0046 36.7988 35.2075 36.8367C33.7285 36.9069 30.6941 37 25 37C19.3059 37 16.2715 36.9069 14.7925 36.8367C13.9954 36.7988 13.2407 36.4355 13.0904 35.6519C13.0362 35.3696 13 35.0228 13 34.6C13 34.1772 13.0362 33.8304 13.0904 33.5481Z" fill="#C9CBCB"/>
<circle cx="25" cy="19" r="2.4" fill="#666666"/>
</svg>
