<svg width="50" height="50" viewBox="0 0 50 50" fill="none" xmlns="http://www.w3.org/2000/svg">
<path d="M18.831 33.3128H21.6032L22.0855 34.8584H23.789L21.1425 27.3485H19.3326L16.6582 34.8595H18.308L18.83 33.3128H18.831ZM20.2123 29.0434H20.2338L21.1639 32.0132H19.2499L20.2123 29.0434ZM16.2017 32.634C16.2017 31.8907 15.9622 31.1582 15.0417 30.8145C15.3543 30.6577 15.9622 30.3548 15.9622 29.2764C15.9622 28.502 15.4917 27.3495 13.6497 27.3495H10V34.8616H13.1793C14.7184 34.8616 15.1255 34.6006 15.554 34.1796C15.9515 33.794 16.2017 33.2269 16.2017 32.6329V32.634ZM11.5069 28.6492H13.3071C14.017 28.6492 14.4563 28.8361 14.4563 29.4537C14.4563 30.0519 13.9666 30.2914 13.3468 30.2914H11.5069V28.6481V28.6492ZM13.4295 33.5641H11.5069V31.5556H13.5047C14.0707 31.5556 14.6336 31.8091 14.6336 32.4654C14.6336 33.228 14.1932 33.5641 13.4306 33.5641H13.4295ZM35.867 30.4257L39.1085 34.8584H37.0893L34.7682 31.5631L34.0357 32.3171V34.8584H32.4675V27.3485H34.0357V30.4021L36.9034 27.3485H38.9313L35.8659 30.4257H35.867ZM16.6582 39.029C16.6582 38.3116 16.4863 38.1934 16.1706 38.0549C16.5508 37.926 16.7656 37.564 16.7656 37.1365C16.7656 36.8057 16.5787 36.0506 15.5551 36.0506H13.6089V39.898H14.3983V38.3932H15.2286C15.8236 38.3932 15.8559 38.5973 15.8559 39.1203C15.8559 39.5156 15.8881 39.7164 15.9407 39.8969H16.83V39.7959C16.6582 39.7315 16.6582 39.5919 16.6582 39.029ZM15.3371 37.7466H14.3983V36.7155H15.3994C15.8709 36.7155 15.9622 37.013 15.9622 37.2181C15.9622 37.5973 15.7581 37.7466 15.3392 37.7466H15.3371ZM17.9471 20.773C17.9406 20.6011 17.9363 20.3928 17.9278 20.1522C17.9127 19.9083 17.9761 19.6441 18.0008 19.3455C18.033 19.0448 18.0728 18.7204 18.1855 18.3885C18.2822 18.0534 18.3649 17.6861 18.5486 17.3445C18.6291 17.1684 18.7118 16.9869 18.7978 16.8053C18.888 16.626 19.0126 16.4638 19.12 16.2887C19.3326 15.9289 19.6087 15.612 19.8912 15.2952C20.164 14.9644 20.5002 14.712 20.8063 14.4209C21.1435 14.1824 21.4636 13.9064 21.8073 13.712C22.1298 13.5055 22.4641 13.318 22.8083 13.1503C23.1327 12.9752 23.4549 12.857 23.7482 12.726C24.2014 12.5499 24.6053 12.4124 24.9372 12.3157C24.7936 11.9667 24.678 11.6068 24.5913 11.2395C24.4852 10.8343 24.4247 10.4186 24.4109 10C24.8124 10.1195 25.1999 10.2819 25.5666 10.4844C25.9199 10.6724 26.2432 10.8818 26.544 11.1074C27.153 11.5574 27.6718 12.0751 28.1422 12.6315C28.4999 13.0525 28.5299 13.64 28.2657 14.089L28.2099 14.1803C27.7777 14.9126 27.2504 15.5844 26.6417 16.1781C26.1582 16.6528 25.6135 17.061 25.022 17.3918C24.8035 17.5119 24.577 17.617 24.3443 17.7065C24.3281 17.4575 24.3299 17.2077 24.3496 16.9589C24.3733 16.7237 24.4034 16.4928 24.4399 16.2651C24.5204 15.8161 24.6354 15.3897 24.7836 14.9837C24.7986 14.9407 24.8158 14.8978 24.833 14.8548L24.3765 14.916C24.1219 14.9708 23.8309 15.0084 23.5409 15.0933C23.2311 15.1654 22.9262 15.2568 22.6279 15.3672C22.3046 15.4638 22.0135 15.6282 21.6838 15.7603C21.3938 15.9396 21.0598 16.0868 20.7848 16.3048C20.4969 16.5132 20.2069 16.7237 19.9685 16.9815C19.8471 17.1082 19.7075 17.2232 19.5969 17.3574L19.2854 17.7677C19.0598 18.0298 18.9202 18.3327 18.7655 18.613C18.6136 18.875 18.4932 19.1541 18.4068 19.4443C18.3241 19.7129 18.2049 19.9567 18.1705 20.1855C18.1275 20.4175 18.0878 20.6172 18.0577 20.7826L17.9589 21.3089C17.9589 21.3089 17.9557 21.1145 17.946 20.7741L17.9471 20.773ZM10 36.0506H13.1309V36.7337H11.9645V39.899H11.1632V36.7337H10V36.0506ZM18.4444 36.0506L17.0728 39.898H17.9213L18.1877 39.1031H19.6065L19.8536 39.898H20.7279L19.3735 36.0506H18.4444ZM18.4036 38.4404L18.8976 36.9196H18.9041L19.3842 38.4404H18.4046H18.4036ZM25.5075 23.0704C25.1874 23.2541 24.8695 23.3841 24.5816 23.5226C24.1327 23.7116 23.7353 23.8599 23.4055 23.9684C23.5559 24.3045 23.6848 24.6568 23.7847 25.0317C23.8846 25.4194 23.9769 25.8158 23.9995 26.2669C23.5943 26.1602 23.2021 26.0092 22.8298 25.8168C22.4819 25.6468 22.1485 25.4485 21.8331 25.2239C21.2299 24.7978 20.6784 24.3029 20.1898 23.7492C20.0144 23.5544 19.9041 23.3097 19.8743 23.0492C19.8444 22.7888 19.8965 22.5255 20.0233 22.296L20.077 22.2036C20.4872 21.459 20.9942 20.7721 21.585 20.1608C21.8836 19.8493 22.2155 19.5571 22.5828 19.2865C22.7708 19.1533 22.963 19.0244 23.1649 18.8998C23.3722 18.7773 23.5914 18.6635 23.833 18.5647C23.8566 18.8235 23.8609 19.0716 23.8481 19.3112C23.8319 19.5475 23.8094 19.7784 23.7804 20.0072C23.7138 20.4583 23.6107 20.8879 23.4754 21.2993C23.4603 21.3422 23.4431 21.3852 23.4292 21.4282C23.572 21.4067 23.7224 21.3831 23.8846 21.353C24.1381 21.2928 24.427 21.2466 24.7116 21.1532C25.0091 21.0769 25.312 20.9738 25.616 20.8514C25.9382 20.7472 26.2239 20.5721 26.5483 20.4314C26.8329 20.2424 27.1648 20.0877 27.429 19.86C27.7126 19.6452 27.9961 19.4239 28.2249 19.1586C28.3463 19.0298 28.4805 18.9095 28.589 18.7741C28.6878 18.6313 28.7877 18.4906 28.8855 18.3531C29.1046 18.0846 29.2356 17.7785 29.3795 17.4938C29.5407 17.2124 29.6341 16.9235 29.7125 16.6517C29.7866 16.38 29.8983 16.133 29.9262 15.9031L30.0208 15.3038C30.0777 14.9676 30.1056 14.7753 30.1056 14.7753C30.1056 14.7753 30.1207 14.9687 30.1378 15.307L30.1744 15.9278C30.1958 16.1706 30.1432 16.438 30.1239 16.7366C30.1024 17.0373 30.0702 17.3639 29.9681 17.6979C29.8822 18.0341 29.8092 18.4046 29.6362 18.7505L29.4042 19.2983C29.3183 19.4798 29.2002 19.6452 29.0971 19.8246C28.8951 20.1908 28.6309 20.5141 28.3581 20.8396C28.0949 21.1768 27.7652 21.4411 27.4688 21.7407C27.1379 21.9888 26.8243 22.2735 26.4871 22.4786C26.1731 22.6956 25.8459 22.8929 25.5075 23.0694V23.0704ZM28.6975 36.0506H31.4342V36.7337H29.5009V37.6016H31.1947V38.2826H29.502V39.9001H28.6964V36.0506H28.6975ZM23.5946 36.0506H24.3454V39.898H23.5398L21.9716 37.1537H21.9588V39.898H21.2091V36.0506H22.0554L23.5838 38.7283H23.5935V36.0506H23.5946ZM38.5994 39.029C38.5994 38.3116 38.4254 38.1934 38.1118 38.0549C38.4898 37.926 38.709 37.564 38.709 37.1365C38.709 36.8057 38.5199 36.0506 37.4963 36.0506H35.5523V39.898H36.3417V38.3932H37.1709C37.7648 38.3932 37.7992 38.5973 37.7992 39.1203C37.7992 39.5156 37.8304 39.7164 37.8851 39.8969H38.7713V39.7959C38.5994 39.7315 38.5994 39.5919 38.5994 39.029ZM37.2815 37.7466H36.3406V36.7155H37.3395C37.8121 36.7155 37.9045 37.013 37.9045 37.2181C37.9045 37.5973 37.7004 37.7466 37.2815 37.7466ZM28.0831 38.7412C28.0831 39.8947 26.9027 40 26.5676 40C25.1638 40 24.9243 39.1923 24.9243 38.7133H25.6933C25.6987 38.9281 25.8061 39.3351 26.5096 39.3351C26.8877 39.3351 27.3119 39.2417 27.3119 38.8389C27.3119 38.5382 27.0219 38.4587 26.6159 38.3599L26.2035 38.2632C25.5805 38.1204 24.9823 37.9786 24.9823 37.1311C24.9823 36.7026 25.2121 35.9486 26.4613 35.9486C27.6395 35.9486 27.9542 36.7187 27.9607 37.1902H27.1917C27.1702 37.0184 27.1057 36.6134 26.4022 36.6134C26.0993 36.6134 25.732 36.7241 25.732 37.0721C25.732 37.3728 25.979 37.4373 26.1401 37.4759L27.0767 37.7058C27.6009 37.8336 28.0831 38.0495 28.0831 38.7412ZM32.7618 39.217H34.8938V39.899H31.9745V36.0528H34.8047V36.7348H32.7618V37.5425H34.6361V38.2235H32.7618V39.217ZM26.1874 34.8616H24.7224V27.3506H26.3764L29.3581 32.5814H29.3774V27.3506H30.8424V34.8627H29.2743L26.2089 29.5074H26.1885L26.1874 34.8616Z" fill="#292929"/>
</svg>
