<svg width="50" height="50" viewBox="0 0 50 50" fill="none" xmlns="http://www.w3.org/2000/svg">
<path d="M43 14.4667H7C5.89543 14.4667 5 15.3621 5 16.4667V33.5334C5 34.6379 5.89543 35.5334 7 35.5334H43C44.1046 35.5334 45 34.6379 45 33.5334V16.4667C45 15.3621 44.1046 14.4667 43 14.4667Z" fill="#0F0F10"/>
<path d="M23.75 17.6875H21.125V32.9687H23.75V17.6875Z" fill="white"/>
<path d="M28.7812 22.6562H26.1562V32.9688H28.7812V22.6562Z" fill="white"/>
<path fill-rule="evenodd" clip-rule="evenodd" d="M33.8125 17.6875H31.1875V32.9688H33.8125V27.8397L37.2812 32.9688H40.9375L37.3288 27.6328L40.9375 22.2969H37.2812L33.8125 27.4259V17.6875Z" fill="white"/>
<path fill-rule="evenodd" clip-rule="evenodd" d="M11.6875 17.6875H9.0625V27.8125V28.625H9.12615C9.5158 31.0867 11.6475 32.9688 14.2188 32.9688C17.0665 32.9688 19.375 30.6602 19.375 27.8125C19.375 24.9648 17.0665 22.6562 14.2188 22.6562C13.2989 22.6562 12.4352 22.8971 11.6875 23.3193V17.6875ZM16.375 27.8125C16.375 29.0034 15.4096 29.9688 14.2188 29.9688C13.0279 29.9688 12.0625 29.0034 12.0625 27.8125C12.0625 26.6216 13.0279 25.6562 14.2188 25.6562C15.4096 25.6562 16.375 26.6216 16.375 27.8125Z" fill="white"/>
<path d="M16.8203 21.7656C18.1795 21.7656 19.2813 20.6638 19.2813 19.3047C19.2813 17.9456 18.1795 16.8438 16.8203 16.8438C15.4612 16.8438 14.3594 17.9456 14.3594 19.3047C14.3594 20.6638 15.4612 21.7656 16.8203 21.7656Z" fill="url(#paint0_linear_1056_444)"/>
<defs>
<linearGradient id="paint0_linear_1056_444" x1="15.375" y1="17.75" x2="18.125" y2="21" gradientUnits="userSpaceOnUse">
<stop stop-color="#E70F11"/>
<stop offset="1" stop-color="#F02987"/>
</linearGradient>
</defs>
</svg>
