<svg width="50" height="50" viewBox="0 0 50 50" fill="none" xmlns="http://www.w3.org/2000/svg">
<path fill-rule="evenodd" clip-rule="evenodd" d="M43.4888 25.9814V24.8997H43.6897V24.6779H43.1782V24.8997H43.3792V25.9827H43.4888V25.9814ZM44.483 25.9814V24.6766H44.3264L44.1451 25.573L43.965 24.6766H43.8084V25.9814H43.9193V24.9976L44.089 25.8457H44.2038L44.3734 24.995V25.9814H44.483Z" fill="#FF8E00"/>
<path fill-rule="evenodd" clip-rule="evenodd" d="M19.7091 27.1635H30.2909V8.1424H19.7091V27.1635Z" fill="#FF4F00"/>
<path fill-rule="evenodd" clip-rule="evenodd" d="M20.3863 17.6517C20.3846 15.82 20.7995 14.0118 21.5998 12.3641C22.4 10.7164 23.5645 9.27235 25.0053 8.14117C23.2208 6.73798 21.0775 5.8653 18.8204 5.6229C16.5633 5.3805 14.2836 5.77818 12.2419 6.77045C10.2001 7.76273 8.47887 9.30954 7.27489 11.234C6.0709 13.1585 5.43279 15.383 5.43353 17.653C5.43328 19.9229 6.07174 22.147 7.27592 24.0711C8.48011 25.9952 10.2014 27.5416 12.243 28.5336C14.2847 29.5255 16.5642 29.923 18.8211 29.6805C21.0779 29.438 23.221 28.5653 25.0053 27.1623C23.5645 26.0312 22.3999 24.5871 21.5996 22.9394C20.7994 21.2917 20.3845 19.4835 20.3863 17.6517Z" fill="#FF0000"/>
<path fill-rule="evenodd" clip-rule="evenodd" d="M44.5652 17.6516C44.566 19.9217 43.9278 22.1462 42.7239 24.0706C41.5199 25.9951 39.7986 27.5419 37.7569 28.5342C35.7152 29.5265 33.4354 29.9242 31.1783 29.6818C28.9212 29.4394 26.7779 28.5667 24.9935 27.1635C26.435 26.0326 27.6003 24.5884 28.401 22.9404C29.2017 21.2924 29.6168 19.4838 29.615 17.6516C29.6168 15.8198 29.2017 14.0115 28.4013 12.3637C27.6008 10.716 26.4359 9.272 24.9948 8.14107C26.7792 6.73789 28.9226 5.86521 31.1796 5.62281C33.4367 5.38041 35.7165 5.77809 37.7582 6.77036C39.7999 7.76263 41.5212 9.30945 42.7252 11.2339C43.9292 13.1584 44.5673 15.3829 44.5665 17.6529" fill="#FF9900"/>
<path d="M20.2921 31.4416L15.1684 43.6637H11.8261L9.305 33.9096C9.15214 33.3084 9.01967 33.0883 8.55296 32.8356C7.79277 32.4239 6.53733 32.0367 5.43475 31.7962L5.51016 31.4416H10.8906C11.5754 31.4416 12.1929 31.8981 12.3478 32.6888L13.6786 39.7609L16.9701 31.4416H20.2921ZM33.3886 39.6732C33.4028 36.447 28.9273 36.2697 28.9579 34.8288C28.968 34.3906 29.3858 33.9239 30.2989 33.8057C30.7513 33.7466 32.0007 33.7018 33.4151 34.3519L33.9694 31.7595C33.2112 31.4823 32.233 31.2174 31.0142 31.2174C27.8899 31.2174 25.6888 32.8784 25.6705 35.2568C25.6501 37.0156 27.2398 37.9979 28.4382 38.5829C29.6712 39.1821 30.0849 39.5672 30.0788 40.1012C30.0706 40.9205 29.0964 41.2833 28.1854 41.2975C26.5958 41.322 25.6746 40.8675 24.9388 40.5251L24.3661 43.2031C25.1039 43.5414 26.4694 43.8369 27.8818 43.8532C31.2058 43.8553 33.3784 42.2147 33.3886 39.6732ZM41.6406 43.6637H44.5652L42.0136 31.4416H39.3152C38.7079 31.4416 38.1963 31.7941 37.9701 32.3383L33.2255 43.6637H36.5455L37.2038 41.8376H41.2615L41.6406 43.6637ZM38.1127 39.3329L39.7778 34.7432L40.7357 39.3329H38.1127ZM24.8104 31.4416L22.1956 43.6637H19.0326L21.6494 31.4416H24.8104Z" fill="#1434CB"/>
</svg>
