<svg width="50" height="50" viewBox="0 0 50 50" fill="none" xmlns="http://www.w3.org/2000/svg">
<path d="M45 10H5V40.4H45V10Z" fill="url(#paint0_linear_504_434)"/>
<path fill-rule="evenodd" clip-rule="evenodd" d="M16.568 18C18.9535 18 21.6232 18.5109 23.1474 19.8882C24.4269 21.0445 24.8488 22.8446 24.9235 24.5906H16.5468V25.1903H24.9367C24.9367 27.1852 24.4145 29.3803 22.9035 30.6834C21.3881 31.988 18.8817 32.4 16.568 32.4C14.1862 32.4 11.7164 32.0352 10.1923 30.661C8.75891 29.3694 8.20007 27.1272 8.20007 25.1996C8.20007 23.3593 8.48572 21.3111 9.80701 20.0382C11.3392 18.5604 14.0851 18 16.568 18ZM37.1385 25.1876C38.8436 25.278 40.2001 26.8555 40.2001 28.6765C40.2001 30.4966 38.8436 31.9791 37.1385 32.0687V32.078H25.4857V25.1906H37.1385V25.1876ZM36.6382 18.2783C36.7495 18.2652 36.8908 18.2884 37.0058 18.2884C38.6677 18.2884 39.9868 19.6788 39.9868 21.4333C39.9868 23.0943 38.7754 24.4507 37.2343 24.5906H25.4855V18.2783H36.6382Z" fill="#FEFEFE"/>
<defs>
<linearGradient id="paint0_linear_504_434" x1="25" y1="10" x2="25" y2="40.4" gradientUnits="userSpaceOnUse">
<stop stop-color="#171F46"/>
<stop offset="0.50351" stop-color="#3663A7"/>
<stop offset="1" stop-color="#236230"/>
</linearGradient>
</defs>
</svg>
