<svg width="50" height="50" viewBox="0 0 50 50" fill="none" xmlns="http://www.w3.org/2000/svg">
<path fill-rule="evenodd" clip-rule="evenodd" d="M6.56556 20.0155C5.15082 20.1752 4.01246 20.9458 3.43476 22.1346C3.01292 23.0027 2.88949 24.1355 3.10213 25.1872C3.39124 26.6169 4.35879 27.6427 5.74586 27.9898C6.16971 28.0959 6.36211 28.1161 6.94357 28.1157C7.53372 28.1153 7.7982 28.0894 8.26602 27.9864C8.6026 27.9122 8.97229 27.7846 8.97207 27.7426C8.97192 27.7181 8.89654 27.4201 8.79486 27.0422L8.77016 26.9505L8.57624 27.0258C8.13737 27.1962 7.50083 27.289 6.93119 27.2655C5.88703 27.2225 5.0825 26.8006 4.5897 26.0377C4.2187 25.4633 4.06195 24.7989 4.09101 23.9239C4.11223 23.2847 4.21331 22.8508 4.45201 22.374C4.96262 21.3542 5.98834 20.806 7.29638 20.8539C7.76332 20.871 8.04342 20.9197 8.41781 21.0492C8.5772 21.1043 8.71739 21.1521 8.72934 21.1554C8.74128 21.1587 8.78813 21.0366 8.83344 20.8842C8.87875 20.7317 8.93379 20.5466 8.95579 20.4729L8.99576 20.3389L8.85277 20.2756C8.66593 20.193 8.31607 20.1008 8.00174 20.0513C7.70352 20.0044 6.85204 19.9832 6.56556 20.0155ZM10.4779 20.1515C10.0738 20.2957 9.92606 20.8078 10.1891 21.1526C10.4345 21.4744 10.9843 21.461 11.2244 21.1274C11.295 21.0294 11.3042 20.9958 11.3121 20.8076C11.3197 20.6259 11.3125 20.5788 11.2584 20.4608C11.1298 20.1799 10.7832 20.0426 10.4779 20.1515ZM26.0331 20.832C25.8182 20.8908 25.6113 20.9467 25.5731 20.9562L25.5038 20.9733V21.6533V22.3332H25.0628H24.6218V22.7238V23.1144H25.0615H25.5011L25.5104 24.9478C25.5193 26.7 25.5221 26.7914 25.5726 27.0129C25.6973 27.5604 25.965 27.875 26.4516 28.046C26.6373 28.1113 26.6771 28.1158 27.0537 28.1155C27.4355 28.1152 27.794 28.0676 27.8978 28.0034C27.9217 27.9887 27.9235 27.9004 27.9057 27.6166C27.893 27.4143 27.8762 27.2425 27.8684 27.2346C27.8606 27.2268 27.7996 27.2327 27.7329 27.2476C27.5618 27.2859 27.1506 27.2866 27.0159 27.2488C26.8395 27.1993 26.6588 27.0034 26.5843 26.7811L26.5253 26.6047L26.5174 24.8596L26.5096 23.1144H27.2415H27.9735V22.7238V22.3332H27.2427H26.5119V21.5268C26.5119 20.7747 26.5089 20.7205 26.4678 20.7227C26.4435 20.7239 26.2479 20.7731 26.0331 20.832ZM15.3314 22.2428C14.7451 22.3547 14.2618 22.6645 13.9651 23.1187C13.9109 23.2016 13.861 23.2602 13.8543 23.2487C13.8476 23.2372 13.8344 23.0634 13.825 22.8624C13.8157 22.6614 13.8017 22.4601 13.794 22.4151L13.7799 22.3332H13.3263H12.8726L12.8906 22.4151C12.9005 22.4601 12.914 23.7359 12.9206 25.2502L12.9326 28.0033H13.4473H13.9619V26.1816C13.9619 24.161 13.9573 24.2254 14.1303 23.871C14.1979 23.7326 14.2731 23.6321 14.4135 23.4928C14.7041 23.2042 15.0312 23.0636 15.41 23.0644C16.0365 23.0657 16.4355 23.3852 16.637 24.0468C16.6944 24.2353 16.6946 24.2411 16.7027 26.1196L16.7109 28.0033H17.2265H17.742L17.7418 26.1952C17.7416 24.2916 17.7325 24.0938 17.6272 23.694C17.4357 22.9676 16.9438 22.4526 16.2678 22.2708C16.0584 22.2145 15.558 22.1995 15.3314 22.2428ZM21.19 22.2432C20.2337 22.4128 19.5259 23.053 19.1926 24.05C18.9223 24.8584 18.9463 25.8722 19.2528 26.5934C19.5003 27.1758 19.9755 27.6553 20.538 27.89C21.1657 28.152 21.9724 28.1995 22.8578 28.0266C23.1307 27.9733 23.5578 27.843 23.625 27.7925C23.6585 27.7674 23.653 27.7223 23.5791 27.4169C23.5329 27.226 23.4906 27.0656 23.4851 27.0605C23.4796 27.0554 23.3448 27.0947 23.1854 27.1479C22.7732 27.2853 22.4222 27.3311 21.8886 27.3171C21.4896 27.3066 21.4418 27.3001 21.2141 27.2252C20.8059 27.0909 20.4887 26.8436 20.2764 26.4941C20.1244 26.2439 19.9849 25.7351 19.9849 25.4311V25.3573H21.9722H23.9594L23.9756 25.2024C24.0764 24.2383 23.7091 23.1797 23.102 22.6847C22.9047 22.5238 22.5515 22.3479 22.2908 22.2808C22.0291 22.2134 21.4663 22.1942 21.19 22.2432ZM10.1818 25.1683V28.0033H10.6985H11.2151V25.1683V22.3332H10.6985H10.1818V25.1683ZM22.0009 23.0032C22.4406 23.134 22.7432 23.446 22.8953 23.9256C22.9528 24.1069 23.0181 24.5656 22.9924 24.6076C22.986 24.6179 22.3124 24.6265 21.4954 24.6265H20.0101V24.5556C20.0101 24.4324 20.1111 24.0922 20.2097 23.883C20.4425 23.3896 20.8025 23.0823 21.2734 22.9752C21.4674 22.931 21.8017 22.9439 22.0009 23.0032Z" fill="#166634"/>
<path fill-rule="evenodd" clip-rule="evenodd" d="M30.7582 20.082C30.2174 20.1002 29.2716 20.1867 29.1264 20.2313C29.0847 20.2441 29.0823 20.4515 29.0823 24.124V28.0032H29.9644H30.8464V26.5983V25.1934L31.4323 25.1921C32.2153 25.1904 32.6869 25.1088 33.2049 24.8855C34.085 24.5061 34.5819 23.84 34.7031 22.8772C34.7975 22.1269 34.5843 21.4251 34.11 20.925C33.4627 20.2426 32.5801 20.0206 30.7582 20.082ZM32.0938 21.4623C32.4751 21.5638 32.7719 21.8008 32.8913 22.0991C32.9413 22.2239 32.9497 22.2901 32.9501 22.5599C32.9507 22.9249 32.9173 23.0516 32.7571 23.2914C32.5836 23.5512 32.2748 23.7345 31.8837 23.8096C31.6929 23.8463 31.1694 23.8573 30.9633 23.8291L30.8464 23.8131V22.6439C30.8464 21.7317 30.8533 21.472 30.8779 21.4627C31.0531 21.3961 31.8442 21.3959 32.0938 21.4623ZM37.3776 22.1845C36.8424 22.2321 36.3194 22.3563 35.9095 22.533C35.7817 22.5881 35.6677 22.6426 35.6561 22.6542C35.6403 22.67 35.8813 23.5854 35.9469 23.7588C35.953 23.775 36.0475 23.7426 36.1812 23.6783C36.9291 23.3191 37.9142 23.2672 38.3201 23.5657C38.4558 23.6655 38.5593 23.8593 38.5761 24.0451L38.5894 24.1911L38.2523 24.2082C37.0129 24.271 36.2294 24.5451 35.7072 25.0986C35.5127 25.3047 35.4124 25.4711 35.3158 25.7478C35.2502 25.9355 35.2453 25.9771 35.2446 26.3526C35.2439 26.7281 35.2485 26.7685 35.3114 26.9406C35.4101 27.2109 35.5226 27.3858 35.7353 27.6001C35.9538 27.8202 36.2206 27.973 36.5345 28.0578C36.8171 28.1342 37.3237 28.134 37.638 28.0574C37.9709 27.9761 38.2915 27.8085 38.5173 27.5976C38.6198 27.5019 38.7138 27.4236 38.7261 27.4236C38.7385 27.4236 38.7709 27.5512 38.7981 27.7071L38.8476 27.9906L39.6494 27.9973C40.0904 28.0009 40.4457 27.9949 40.4389 27.9839C40.3955 27.9137 40.3652 27.1466 40.3487 25.6974L40.3298 24.0341L40.2658 23.7944C40.1144 23.2276 39.8287 22.8163 39.393 22.5378C38.921 22.2362 38.2059 22.1109 37.3776 22.1845ZM41.0337 22.3265C41.0404 22.3509 41.5255 23.5673 42.1116 25.0295C42.9679 27.166 43.1774 27.7111 43.1782 27.805C43.1795 27.9592 43.0663 28.1507 42.8202 28.4108C42.5464 28.7002 42.1855 28.9185 41.7835 29.0379C41.6795 29.0687 41.5923 29.0954 41.5898 29.0972C41.5872 29.099 41.6672 29.4291 41.7676 29.8307C41.9354 30.502 41.9547 30.5617 42.0065 30.5693C42.0958 30.5823 42.5382 30.4587 42.7877 30.3512C43.928 29.8596 44.5956 28.9218 45.4853 26.5619C45.656 26.1091 47 22.3248 47 22.2969C47 22.2891 46.5759 22.2827 46.0575 22.2827H45.115L44.6988 23.9648C44.4699 24.89 44.2557 25.7596 44.2229 25.8972C44.19 26.0348 44.1513 26.1513 44.1367 26.1562C44.1215 26.1613 44.0639 25.985 44.0015 25.7422C43.8966 25.3341 43.7572 24.8622 43.2253 23.1143L42.9761 22.2953L41.9987 22.2887C41.0758 22.2825 41.0221 22.2845 41.0337 22.3265ZM38.629 25.7667C38.6209 26.2087 38.6179 26.2315 38.553 26.3547C38.3594 26.7223 37.9348 26.9324 37.5183 26.8668C37.3116 26.8342 37.1557 26.7371 37.059 26.5807C36.9873 26.4648 36.9827 26.4421 36.9827 26.2033C36.9827 25.9725 36.989 25.9388 37.0511 25.8331C37.1858 25.6039 37.4356 25.4509 37.8018 25.3733C38.0532 25.3199 38.1 25.3149 38.3897 25.3105L38.6374 25.3068L38.629 25.7667Z" fill="#32B24A"/>
</svg>
