<svg width="50" height="50" viewBox="0 0 50 50" fill="none" xmlns="http://www.w3.org/2000/svg">
<path d="M33.9799 15H15.5C9.72498 15 5 19.725 5 25.5C5 31.2749 9.72498 35.9999 15.5 35.9999H33.9799C39.7549 35.9999 44.4798 31.2749 44.4798 25.5C44.4798 19.725 39.7549 15 33.9799 15Z" fill="white"/>
<path d="M33.9799 15.8505C35.2766 15.8505 36.5366 16.1077 37.7231 16.6117C38.8729 17.1 39.9019 17.7982 40.7944 18.6855C41.6816 19.5727 42.3798 20.607 42.8681 21.7567C43.3721 22.9432 43.6293 24.2032 43.6293 25.5C43.6293 26.7967 43.3721 28.0567 42.8681 29.2432C42.3798 30.3929 41.6816 31.4219 40.7944 32.3144C39.9071 33.2017 38.8729 33.8999 37.7231 34.3882C36.5366 34.8922 35.2766 35.1494 33.9799 35.1494H15.5C14.2032 35.1494 12.9432 34.8922 11.7567 34.3882C10.607 33.8999 9.57798 33.2017 8.68549 32.3144C7.79824 31.4272 7.09999 30.3929 6.61174 29.2432C6.10775 28.0567 5.8505 26.7967 5.8505 25.5C5.8505 24.2032 6.10775 22.9432 6.61174 21.7567C7.09999 20.607 7.79824 19.578 8.68549 18.6855C9.57273 17.7982 10.607 17.1 11.7567 16.6117C12.9432 16.1077 14.2032 15.8505 15.5 15.8505H33.9799ZM33.9799 15H15.5C9.72498 15 5 19.725 5 25.5C5 31.2749 9.72498 35.9999 15.5 35.9999H33.9799C39.7549 35.9999 44.4798 31.2749 44.4798 25.5C44.4798 19.725 39.7549 15 33.9799 15Z" fill="#3C4043"/>
<path d="M23.8264 26.2456V29.4218H22.8184V21.5784H25.4907C26.1679 21.5784 26.7454 21.8041 27.2179 22.2556C27.7009 22.7071 27.9424 23.2584 27.9424 23.9094C27.9424 24.5761 27.7009 25.1274 27.2179 25.5736C26.7507 26.0199 26.1732 26.2404 25.4907 26.2404H23.8264V26.2456ZM23.8264 22.5444V25.2796H25.5117C25.9107 25.2796 26.2467 25.1431 26.5092 24.8754C26.7769 24.6076 26.9134 24.2821 26.9134 23.9146C26.9134 23.5524 26.7769 23.2321 26.5092 22.9644C26.2467 22.6861 25.9159 22.5496 25.5117 22.5496H23.8264V22.5444Z" fill="#3C4043"/>
<path d="M30.5779 23.8778C31.3234 23.8778 31.9114 24.0773 32.3419 24.4763C32.7724 24.8753 32.9876 25.4213 32.9876 26.1143V29.4218H32.0269V28.6763H31.9849C31.5701 29.2905 31.0136 29.595 30.3206 29.595C29.7274 29.595 29.2339 29.4218 28.8349 29.07C28.4359 28.7183 28.2364 28.2825 28.2364 27.7575C28.2364 27.201 28.4464 26.76 28.8664 26.4345C29.2864 26.1038 29.8481 25.941 30.5464 25.941C31.1449 25.941 31.6384 26.0513 32.0216 26.2718V26.0408C32.0216 25.689 31.8851 25.3951 31.6069 25.1483C31.3286 24.9016 31.0031 24.7808 30.6304 24.7808C30.0686 24.7808 29.6224 25.0171 29.2969 25.4948L28.4096 24.9383C28.8979 24.2296 29.6224 23.8778 30.5779 23.8778ZM29.2759 27.7733C29.2759 28.0358 29.3861 28.2563 29.6119 28.4295C29.8324 28.6028 30.0949 28.692 30.3941 28.692C30.8194 28.692 31.1974 28.5345 31.5281 28.2195C31.8589 27.9045 32.0269 27.537 32.0269 27.1118C31.7119 26.865 31.2761 26.739 30.7144 26.739C30.3049 26.739 29.9636 26.8388 29.6906 27.033C29.4124 27.2378 29.2759 27.4845 29.2759 27.7733Z" fill="#3C4043"/>
<path d="M38.4686 24.051L35.1086 31.779H34.0691L35.3186 29.0753L33.1031 24.051H34.2004L35.7964 27.9045H35.8174L37.3714 24.051H38.4686Z" fill="#3C4043"/>
<path d="M19.817 25.6051C19.817 25.2764 19.7876 24.9619 19.733 24.6595H15.5078V26.392L17.9412 26.3926C17.8425 26.969 17.5249 27.4604 17.0382 27.788V28.912H18.4866C19.3324 28.1293 19.817 26.9722 19.817 25.6051Z" fill="#4285F4"/>
<path d="M17.0387 27.788C16.6355 28.06 16.1163 28.2191 15.5089 28.2191C14.3355 28.2191 13.3401 27.4284 12.9836 26.3627H11.4895V27.5219C12.2297 28.9908 13.7512 29.9988 15.5089 29.9988C16.7237 29.9988 17.7443 29.5993 18.4872 28.9115L17.0387 27.788Z" fill="#34A853"/>
<path d="M12.8429 25.5027C12.8429 25.2035 12.8928 24.9142 12.9836 24.6422V23.483H11.4895C11.1834 24.0905 11.0112 24.7761 11.0112 25.5027C11.0112 26.2293 11.184 26.9149 11.4895 27.5224L12.9836 26.3632C12.8928 26.0912 12.8429 25.8019 12.8429 25.5027Z" fill="#FABB05"/>
<path d="M15.5089 22.7858C16.172 22.7858 16.7657 23.0142 17.2346 23.4605L18.5182 22.1779C17.7386 21.4518 16.7222 21.0061 15.5089 21.0061C13.7517 21.0061 12.2297 22.0141 11.4895 23.483L12.9836 24.6422C13.3401 23.5765 14.3355 22.7858 15.5089 22.7858Z" fill="#E94235"/>
</svg>
