<svg width="50" height="50" viewBox="0 0 50 50" fill="none" xmlns="http://www.w3.org/2000/svg">
<path d="M17.1551 40.7405V38.6995C17.1793 38.3522 17.0528 38.0113 16.808 37.7639C16.5632 37.5164 16.2236 37.3863 15.8761 37.4069C15.4182 37.3771 14.9804 37.5986 14.7332 37.9852C14.5078 37.61 14.0954 37.3882 13.6582 37.4069C13.2776 37.3877 12.9153 37.5715 12.7058 37.8899V37.4885H11.9982V40.7405H12.7126V38.9376C12.6813 38.7124 12.7525 38.4849 12.9066 38.3177C13.0606 38.1504 13.2815 38.0609 13.5086 38.0737C13.978 38.0737 14.2161 38.3798 14.2161 38.9308V40.7405H14.9305V38.9376C14.9016 38.7128 14.9735 38.4868 15.1271 38.3201C15.2807 38.1534 15.5001 38.0632 15.7265 38.0737C16.2094 38.0737 16.4408 38.3798 16.4408 38.9308V40.7405H17.1551ZM21.1419 39.1145V37.4885H20.4343V37.8831C20.1892 37.5673 19.8063 37.3898 19.407 37.4069C18.4964 37.4515 17.781 38.2028 17.781 39.1145C17.781 40.0262 18.4964 40.7775 19.407 40.8222C19.8063 40.8392 20.1892 40.6617 20.4343 40.3459V40.7405H21.1419V39.1145ZM18.509 39.1145C18.5396 38.5793 18.9927 38.1669 19.5284 38.1867C20.0641 38.2065 20.4855 38.6512 20.4766 39.1872C20.4676 39.7232 20.0315 40.1535 19.4954 40.1554C19.2231 40.159 18.9616 40.0487 18.7742 39.851C18.5869 39.6533 18.4907 39.3862 18.509 39.1145ZM36.2815 37.403C36.5204 37.4007 36.7575 37.4452 36.9794 37.5338C37.1862 37.6163 37.3748 37.7386 37.5345 37.8938C37.6917 38.048 37.8164 38.2321 37.9012 38.4354C38.0779 38.8709 38.0779 39.3581 37.9012 39.7936C37.8165 39.9969 37.6917 40.1811 37.5345 40.3353C37.3748 40.4904 37.1862 40.6127 36.9794 40.6952C36.5305 40.8696 36.0325 40.8696 35.5837 40.6952C35.3772 40.6129 35.1891 40.4906 35.0301 40.3353C34.8738 40.1807 34.7497 39.9965 34.6651 39.7936C34.4886 39.358 34.4886 38.8709 34.6651 38.4354C34.7498 38.2325 34.8739 38.0484 35.0301 37.8938C35.1891 37.7384 35.3772 37.6161 35.5837 37.5338C35.8055 37.4452 36.0426 37.4007 36.2815 37.403ZM36.2815 38.0721C36.1431 38.0708 36.0058 38.0968 35.8775 38.1485C35.7565 38.197 35.6467 38.2698 35.5549 38.3623C35.4624 38.4569 35.3897 38.5689 35.3409 38.6918C35.2368 38.964 35.2368 39.2651 35.3409 39.5373C35.3897 39.6602 35.4624 39.7722 35.5549 39.8667C35.6467 39.9593 35.7565 40.0321 35.8775 40.0806C36.1372 40.1825 36.4258 40.1825 36.6855 40.0806C36.8069 40.0318 36.9172 39.959 37.0098 39.8667C37.1031 39.7725 37.1765 39.6605 37.2256 39.5373C37.3297 39.2651 37.3297 38.964 37.2256 38.6918C37.1765 38.5686 37.1031 38.4565 37.0098 38.3623C36.9172 38.27 36.8069 38.1973 36.6855 38.1485C36.5572 38.0968 36.4199 38.0708 36.2815 38.0721ZM24.9919 39.1145C24.9851 38.1008 24.3592 37.4069 23.4475 37.4069C22.5305 37.455 21.8154 38.2192 21.8282 39.1374C21.841 40.0556 22.5771 40.7996 23.4952 40.8221C23.9806 40.8392 24.4552 40.6769 24.8286 40.3663L24.4816 39.8424C24.213 40.0577 23.8802 40.1774 23.536 40.1826C23.05 40.2235 22.6193 39.8711 22.5631 39.3866H24.9783C24.9851 39.2982 24.9919 39.2098 24.9919 39.1145ZM22.5699 38.8288C22.5958 38.3747 22.9794 38.0243 23.4339 38.0396C23.8789 38.0309 24.247 38.3838 24.2572 38.8288H22.5699ZM27.9715 38.3186C27.6628 38.141 27.314 38.045 26.9579 38.0396C26.5701 38.0396 26.3388 38.1825 26.3388 38.4206C26.3388 38.6383 26.5837 38.6995 26.8899 38.7403L27.2232 38.7879C27.9308 38.89 28.3593 39.1893 28.3593 39.7608C28.3593 40.3799 27.8151 40.8222 26.8762 40.8222C26.3737 40.836 25.8801 40.6881 25.468 40.4003L25.8013 39.8493C26.1135 40.0808 26.4945 40.2006 26.8831 40.1894C27.366 40.1894 27.6246 40.0466 27.6246 39.7948C27.6246 39.6111 27.4409 39.5091 27.0531 39.4547L26.7197 39.4071C25.9918 39.305 25.5973 38.9784 25.5973 38.4478C25.5973 37.8014 26.1279 37.4069 26.9511 37.4069C27.4168 37.3908 27.8772 37.5089 28.2777 37.7471L27.9715 38.3186ZM31.3713 38.1348H30.2148V39.6044C30.2148 39.9309 30.3304 40.1486 30.6842 40.1486C30.905 40.1413 31.1204 40.0781 31.3101 39.9649L31.5142 40.5705C31.2489 40.7358 30.9424 40.8231 30.6298 40.8222C29.793 40.8222 29.5005 40.3731 29.5005 39.6179V38.1348H28.8405V37.4885H29.5005L29.5003 36.5021H30.2146L30.2148 37.4885H31.3713V38.1348ZM33.82 37.4069C33.9916 37.4075 34.1619 37.4375 34.3234 37.4954L34.1057 38.1621C33.9651 38.1061 33.8149 38.0783 33.6635 38.0804C33.2009 38.0804 32.9695 38.3798 32.9695 38.9172V40.7405H32.262V37.4885H32.9628V37.8831C33.1396 37.5792 33.4685 37.3965 33.82 37.4069ZM38.7183 40.2671C38.7623 40.2668 38.8059 40.2755 38.8465 40.2925C38.8854 40.3088 38.921 40.3323 38.9512 40.3619C38.9811 40.3914 39.0051 40.4264 39.0217 40.4651C39.0562 40.5452 39.0562 40.636 39.0217 40.7161C39.005 40.7545 38.981 40.7894 38.9512 40.8188C38.9209 40.8484 38.8854 40.8721 38.8465 40.8886C38.806 40.9059 38.7623 40.9147 38.7183 40.9144C38.5858 40.9157 38.4654 40.8376 38.4125 40.7161C38.3782 40.636 38.3782 40.5452 38.4125 40.4651C38.4291 40.4265 38.453 40.3915 38.4828 40.3619C38.5129 40.3321 38.5486 40.3085 38.5879 40.2925C38.6292 40.2754 38.6736 40.2668 38.7183 40.2671ZM38.7183 40.843C38.7519 40.8433 38.7851 40.8365 38.8159 40.8232C38.8455 40.8103 38.8724 40.792 38.8952 40.7693C38.9546 40.7101 38.9806 40.6252 38.9647 40.5429C38.9488 40.4606 38.8931 40.3916 38.8159 40.3588C38.7851 40.3456 38.7518 40.339 38.7183 40.3393C38.6842 40.339 38.6503 40.3456 38.6188 40.3588C38.5887 40.3711 38.5613 40.3893 38.5383 40.4122C38.4403 40.5111 38.4403 40.6704 38.5383 40.7693C38.5861 40.8168 38.6509 40.8433 38.7183 40.843ZM38.7373 40.4392C38.7692 40.4371 38.8008 40.4463 38.8266 40.4651C38.8475 40.4822 38.8591 40.5082 38.8579 40.5352C38.8587 40.5583 38.8496 40.5806 38.833 40.5966C38.8132 40.6142 38.7883 40.6247 38.7619 40.6264L38.8603 40.7399H38.7834L38.6922 40.6272H38.6628V40.7399H38.5986V40.4392H38.7373ZM38.6628 40.4956V40.5757H38.7366C38.7508 40.5764 38.7648 40.5729 38.7771 40.5657C38.7872 40.559 38.7929 40.5473 38.7921 40.5352C38.7928 40.5233 38.787 40.512 38.7771 40.5054C38.7648 40.4983 38.7507 40.4949 38.7366 40.4956H38.6628Z" fill="black"/>
<path d="M30.3653 12.6689H19.6346V31.9521H30.3653V12.6689Z" fill="#7375CF"/>
<path d="M20.316 22.3105C20.3126 18.5476 22.0398 14.9921 25 12.6689C19.972 8.71675 12.751 9.29197 8.41203 13.9903C4.0731 18.6886 4.0731 25.9325 8.41203 30.6308C12.751 35.3291 19.972 35.9043 25 31.9522C22.0399 29.6289 20.3126 26.0735 20.316 22.3105Z" fill="#EB001B"/>
<path d="M43.6715 30.4338V29.6044H43.8307V29.4354H43.4253V29.6044H43.5845V30.4338H43.6715ZM44.4586 30.4338V29.4338H44.3343L44.1914 30.1216L44.0484 29.4338H43.9241V30.4338H44.0118V29.6795L44.1459 30.3298H44.2369L44.3709 29.6778V30.4338H44.4586Z" fill="#00A2E5"/>
<path d="M44.8415 22.3106C44.8415 27.0057 42.1611 31.2888 37.9381 33.3409C33.7152 35.3929 28.6913 34.8537 25 31.9522C27.9574 29.6267 29.6839 26.0727 29.6839 22.3106C29.6839 18.5484 27.9574 14.9944 25 12.6689C28.6913 9.76742 33.7152 9.2282 37.9381 11.2803C42.1611 13.3323 44.8415 17.6154 44.8415 22.3106Z" fill="#00A2E5"/>
</svg>
