<svg width="50" height="50" viewBox="0 0 50 50" fill="none" xmlns="http://www.w3.org/2000/svg">
<path d="M30.3595 15.0589H19.612V34.3725H30.3595V15.0589Z" fill="#FF5F00"/>
<path d="M20.2945 24.7157C20.291 20.9468 22.021 17.3858 24.9858 15.0589C19.9499 11.1005 12.7175 11.6766 8.37175 16.3824C4.02599 21.0881 4.02599 28.3433 8.37175 33.0491C12.7175 37.7548 19.9499 38.3309 24.9858 34.3725C22.021 32.0456 20.2911 28.4846 20.2945 24.7157Z" fill="#EB001B"/>
<path d="M44.8586 24.7157C44.8586 29.4183 42.1739 33.7081 37.9443 35.7634C33.7147 37.8187 28.6829 37.2786 24.9858 34.3726C27.9478 32.0435 29.6771 28.4838 29.6771 24.7157C29.6771 20.9477 27.9478 17.388 24.9858 15.0589C28.6829 12.1528 33.7147 11.6128 37.9443 13.6681C42.1739 15.7234 44.8586 20.0132 44.8586 24.7157Z" fill="#F79E1B"/>
<path d="M43.8532 33.5836V32.146H44.1202V31.8531H43.4401V32.146H43.7073V33.5836H43.8532ZM45.1735 33.5836V31.8502H44.965L44.7252 33.0425L44.4854 31.8502H44.2768V33.5836H44.424V32.2761L44.6489 33.4033H44.8015L45.0264 32.2732V33.5836H45.1735Z" fill="#F79E1B"/>
</svg>
