<svg width="50" height="50" viewBox="0 0 50 50" fill="none" xmlns="http://www.w3.org/2000/svg">
<path d="M9.61662 33.8489L9.50076 34.7569C9.48743 34.8614 9.49639 34.9674 9.52704 35.0682C9.55769 35.1689 9.60935 35.262 9.67859 35.3413C9.74784 35.4206 9.83311 35.4843 9.92878 35.5282C10.0245 35.5722 10.1284 35.5954 10.2336 35.5962H38.8347C39.2779 35.5962 39.6188 35.2042 39.5689 34.7569L39.4504 33.8489C39.3803 33.143 39.8788 32.4977 40.5618 32.4236C41.2489 32.3468 41.8565 32.8641 41.9279 33.5687L42.0384 34.4511C42.262 36.4234 41.1761 38.1546 39.2429 38.1546H9.82409C7.89086 38.1546 6.80636 36.4234 7.02865 34.4498L7.13912 33.5673C7.21321 32.8641 7.81676 32.3468 8.50248 32.4222C9.18956 32.4977 9.68802 33.143 9.61662 33.8503" fill="#D8232A"/>
<path d="M39.5016 17.8496C39.5016 19.0163 39.0921 19.6764 38.4144 20.4901L38.3471 20.5723L38.4414 20.6302C39.7832 21.4574 40.7181 22.7049 40.7882 24.459C40.8919 27.0712 38.7014 29.2334 36.1013 29.228H29.2467C28.5798 29.228 28.041 28.6663 28.041 27.9765V14.5395C28.041 13.8471 28.5798 13.288 29.244 13.288L34.9023 13.3041C37.3703 13.3068 39.5016 15.1404 39.5016 17.8496ZM36.0878 26.8085C37.4687 26.8098 38.568 25.794 38.5397 24.4563C38.5114 23.0862 37.2787 22.2024 35.9032 22.1997H33.1266C32.511 22.1997 32.0058 21.6837 32.0058 21.0357C32.0058 20.3877 32.5083 19.869 33.1266 19.869H34.9804C36.2319 19.8192 37.1952 19.0526 37.2558 17.8577C37.3178 16.5778 36.2293 15.6159 34.8982 15.6159H30.3959L30.377 26.8071H36.0891L36.0878 26.8085ZM17.4897 24.6179L17.5207 24.7122L17.5544 24.6179C17.8683 23.7315 18.2482 22.7507 18.651 21.681C19.0673 20.5561 19.4809 19.4797 19.8931 18.4545C20.3107 17.4131 20.7068 16.4862 21.084 15.6765C21.4612 14.8494 21.7738 14.2822 22.0136 13.971C22.3854 13.5183 22.8758 13.288 23.4888 13.288H23.7703C24.1435 13.288 24.4359 13.389 24.6555 13.579C24.8453 13.7359 24.9713 13.9567 25.0098 14.2L26.7652 28.0991C26.7652 28.4574 26.6641 28.735 26.4661 28.9411C26.2667 29.1324 25.9824 29.228 25.6106 29.228C25.2388 29.228 24.9451 29.1378 24.7282 28.9613C24.6139 28.8816 24.5181 28.7783 24.4472 28.6584C24.3763 28.5384 24.332 28.4047 24.3173 28.2661C24.2532 27.7538 24.197 27.2404 24.1489 26.7263C24.0721 26.1645 23.7986 23.7395 23.7205 23.1293C23.6477 22.4988 23.1547 18.5703 22.9876 17.145L22.9714 17.0237L22.4083 18.2281C22.1857 18.7191 21.9772 19.2165 21.7832 19.7195C21.5596 20.2988 21.3292 20.9118 21.1042 21.5571C20.859 22.1849 19.7718 25.3562 19.7718 25.3562C19.6722 25.6431 19.4809 26.2224 19.3071 26.7559C19.1319 27.2854 18.9716 27.765 18.9272 27.8566C18.8013 28.1209 18.6026 28.3438 18.3544 28.4989C18.1062 28.654 17.8188 28.735 17.5261 28.7323C17.232 28.7371 16.9429 28.6571 16.6932 28.5018C16.4435 28.3465 16.2439 28.1225 16.1182 27.8566C15.9797 27.4936 15.8521 27.1266 15.7356 26.7559C15.5605 26.2224 15.3746 25.6431 15.2682 25.3548C15.2682 25.3548 14.181 22.1849 13.9385 21.5571C13.7108 20.9104 13.4845 20.3001 13.2568 19.7195C13.0291 19.1402 12.823 18.6417 12.6371 18.2281L12.0712 17.0237L12.0578 17.145C11.888 18.5703 11.3976 22.4988 11.3222 23.1279C11.2454 23.7395 10.9719 26.1645 10.8965 26.7263C10.8399 27.2908 10.7833 27.8041 10.724 28.2661C10.7094 28.4044 10.6654 28.5379 10.595 28.6578C10.5246 28.7777 10.4294 28.8811 10.3158 28.9613C10.0963 29.1378 9.80122 29.228 9.42939 29.228C9.05756 29.228 8.776 29.1337 8.57796 28.9411C8.37857 28.735 8.27753 28.4561 8.27618 28.0991L10.0316 14.2014C10.0728 13.9587 10.1989 13.7387 10.3872 13.5803C10.6055 13.3903 10.9019 13.2893 11.271 13.2893H11.5539C12.1669 13.2893 12.6586 13.5183 13.0264 13.9723C13.2689 14.2822 13.5788 14.8507 13.956 15.6779C14.3359 16.4862 14.732 17.4158 15.1469 18.4558C15.5605 19.481 15.9768 20.5575 16.3917 21.6824C16.7959 22.752 17.1744 23.7328 17.4897 24.6193" fill="#1A1919"/>
<path d="M13.6111 5H35.456C37.5145 5 38.5397 6.57218 38.7795 8.64283L38.8725 9.307C38.909 9.64505 38.811 9.98391 38.5998 10.2503C38.3886 10.5168 38.081 10.6894 37.7435 10.731C37.0551 10.8064 36.4367 10.2905 36.3653 9.57779L36.2777 8.9446C36.1861 8.15649 35.8588 7.5489 35.0707 7.5489H13.9964C13.2096 7.5489 12.8823 8.15649 12.7893 8.94326L12.7044 9.57779C12.6904 9.74453 12.6434 9.90682 12.5662 10.0553C12.489 10.2037 12.3832 10.3354 12.2547 10.4427C12.1263 10.5499 11.9779 10.6306 11.818 10.6801C11.6582 10.7296 11.4901 10.7469 11.3235 10.731C10.9862 10.6894 10.6787 10.5168 10.4677 10.2503C10.2567 9.98377 10.159 9.64492 10.1959 9.307L10.2875 8.64283C10.53 6.57218 11.5539 5 13.6111 5Z" fill="#D8232A"/>
<path d="M20.347 41.6465C20.2677 41.956 20.1901 42.2658 20.114 42.5761C20.0331 42.9048 19.9523 43.2201 19.8715 43.5205C19.7933 43.8209 19.7192 44.0836 19.6465 44.3113C19.6017 44.4718 19.5421 44.6278 19.4687 44.7774C19.3851 44.9256 19.2369 44.9997 19.0268 44.9997C18.9492 44.997 18.8723 44.9848 18.7978 44.9633C18.7035 44.9391 18.624 44.8717 18.5593 44.7613C18.4848 44.6042 18.4253 44.4405 18.3815 44.2722C18.3114 44.0297 18.2373 43.7509 18.1565 43.4343C17.9928 42.7742 17.8428 42.1107 17.7065 41.4444C17.6526 41.1865 17.6001 40.9283 17.5489 40.6698C17.5188 40.5241 17.4923 40.3776 17.4694 40.2306V40.1996C17.4694 40.1107 17.5031 40.038 17.5718 39.9814C17.644 39.9251 17.7336 39.896 17.8251 39.8992C17.9058 39.8961 17.9855 39.9172 18.0541 39.9598C18.112 39.9976 18.1538 40.0676 18.1807 40.1686C18.1807 40.1781 18.1956 40.2562 18.2239 40.3977C18.313 40.8266 18.4001 41.2559 18.4852 41.6856C18.5948 42.2389 18.7134 42.7905 18.8409 43.34C18.9015 43.6027 18.9581 43.829 19.0106 44.0189C19.1377 43.5792 19.259 43.1377 19.3744 42.6946C19.4377 42.4495 19.4983 42.2043 19.5562 41.9591L19.7179 41.2747C19.7691 41.0632 19.8122 40.8773 19.8486 40.7143C19.885 40.5499 19.9146 40.43 19.9361 40.3505C19.9578 40.2572 20.01 40.1738 20.0843 40.1134C20.1614 40.054 20.2565 40.0227 20.3538 40.0245C20.4696 40.0245 20.5653 40.0568 20.6394 40.1175C20.711 40.1768 20.7608 40.2583 20.7808 40.3492C20.8401 40.6078 20.9021 40.8975 20.9708 41.2168C21.0382 41.5334 21.1109 41.8567 21.1837 42.1841C21.2591 42.5114 21.3359 42.8307 21.4127 43.1446C21.4935 43.4585 21.569 43.7374 21.643 43.9799C21.6969 43.7899 21.7535 43.5622 21.8141 43.3009L21.9987 42.4845C22.062 42.2056 22.1227 41.9294 22.1806 41.6546L22.3396 40.915C22.393 40.6664 22.4456 40.4176 22.4972 40.1686C22.5228 40.069 22.5645 39.9976 22.6238 39.9598C22.6804 39.9194 22.7585 39.8992 22.8528 39.8992C22.9512 39.8992 23.0374 39.9262 23.1048 39.9814C23.1381 40.007 23.1649 40.0401 23.1829 40.078C23.2009 40.116 23.2097 40.1576 23.2085 40.1996V40.2306C23.1863 40.378 23.1585 40.5245 23.125 40.6698L22.9633 41.4444C22.9 41.7489 22.8286 42.0749 22.7478 42.4252C22.6723 42.7755 22.5928 43.1096 22.5187 43.4248C22.4406 43.7414 22.3665 44.0203 22.2951 44.2601C22.2514 44.4271 22.1919 44.5895 22.1173 44.7451C22.0931 44.7945 22.0593 44.8387 22.0179 44.875C21.9765 44.9113 21.9283 44.939 21.8761 44.9566C21.8007 44.9814 21.7223 44.9959 21.643 44.9997C21.5652 44.9969 21.4881 44.9833 21.414 44.9593C21.3633 44.9422 21.3155 44.9172 21.2726 44.8852C21.2237 44.8496 21.1852 44.8017 21.1608 44.7464C21.0919 44.5847 21.0352 44.4181 20.991 44.248C20.8317 43.6833 20.6853 43.1151 20.5518 42.5438L20.347 41.6465ZM26.3596 42.8482C26.2478 42.506 26.1427 42.1908 26.0417 41.9052C25.9225 41.5598 25.7922 41.2183 25.651 40.8813C25.6332 40.8367 25.6161 40.7918 25.5998 40.7466C25.5785 40.7879 25.5613 40.8312 25.5486 40.8759C25.4066 41.2138 25.2767 41.5567 25.1592 41.9038C25.0622 42.1908 24.9572 42.506 24.848 42.8482H26.3583H26.3596ZM24.6028 43.5353C24.522 43.7899 24.4547 44.0243 24.394 44.2385C24.3446 44.4178 24.2875 44.5949 24.2229 44.7693C24.165 44.9229 24.0491 44.9984 23.8754 44.9984C23.7541 44.9984 23.6652 44.9687 23.61 44.9094C23.5532 44.8448 23.5233 44.761 23.5264 44.675C23.5264 44.6387 23.5318 44.6036 23.5426 44.5713C23.5534 44.5417 23.5857 44.4325 23.6423 44.248C23.6962 44.0648 23.7689 43.8344 23.8592 43.5609L24.1556 42.6583C24.3636 42.0319 24.5891 41.4115 24.8319 40.7978C24.9423 40.5203 25.0447 40.2966 25.139 40.1282C25.1724 40.0491 25.2331 39.9845 25.3101 39.9464C25.4025 39.9113 25.501 39.8952 25.5998 39.8992C25.7156 39.8992 25.814 39.9181 25.8962 39.9531C25.936 39.9715 25.9716 39.998 26.0006 40.031C26.0296 40.0639 26.0514 40.1025 26.0646 40.1444C26.14 40.302 26.2289 40.5149 26.3313 40.7803C26.5617 41.3786 26.7818 41.9809 26.9914 42.5869C27.1019 42.9089 27.2043 43.2079 27.2959 43.4855L27.533 44.1927C27.5977 44.3881 27.6408 44.5161 27.6543 44.5713C27.665 44.6036 27.6718 44.6387 27.6718 44.675C27.6732 44.7186 27.6655 44.7621 27.649 44.8025C27.6325 44.8429 27.6077 44.8793 27.5761 44.9094C27.5128 44.9687 27.4198 44.9997 27.2999 44.9997C27.2097 44.9997 27.1423 44.9795 27.0979 44.9391C27.0482 44.8925 27.0111 44.8341 26.9901 44.7693C26.9238 44.5939 26.8618 44.417 26.8042 44.2385C26.7341 44.023 26.6587 43.7899 26.5792 43.5366H24.6028V43.5353ZM29.0702 43.0058C29.0129 42.9463 28.9627 42.8803 28.9206 42.8092C28.835 42.6848 28.755 42.5567 28.6808 42.4252C28.4949 42.1042 28.3249 41.7742 28.1716 41.4364C28.0894 41.2653 28.0153 41.1076 27.9506 40.9595L27.7822 40.5768C27.7469 40.5035 27.7176 40.4273 27.6947 40.3492C27.6867 40.33 27.6804 40.3101 27.6758 40.2899C27.6745 40.2764 27.6718 40.2576 27.6718 40.2306C27.6718 40.1363 27.7041 40.0555 27.7688 39.9949C27.8055 39.9617 27.8485 39.9361 27.8952 39.9197C27.9419 39.9033 27.9915 39.8963 28.0409 39.8992C28.1446 39.8992 28.2187 39.9262 28.2645 39.9773C28.309 40.0312 28.3427 40.0851 28.3629 40.1363C28.3723 40.1633 28.3993 40.2212 28.4383 40.3101L28.5825 40.6429C28.6391 40.7735 28.7064 40.919 28.7792 41.0767C28.8546 41.2356 28.9274 41.3906 29.0042 41.5441L29.2237 41.9833C29.2938 42.1221 29.3625 42.2366 29.4258 42.3269C29.5242 42.1733 29.632 41.982 29.7478 41.7489C30.0097 41.2187 30.2559 40.681 30.4861 40.1363C30.5104 40.0785 30.5436 40.0249 30.5844 39.9773C30.6289 39.9248 30.7043 39.8992 30.8081 39.8992C30.9239 39.8992 31.0142 39.9302 31.0802 39.9949C31.1122 40.0251 31.1375 40.0617 31.1544 40.1023C31.1714 40.1429 31.1796 40.1866 31.1785 40.2306C31.1785 40.2576 31.1772 40.2778 31.1745 40.2899C31.1694 40.31 31.1631 40.3298 31.1556 40.3492L31.064 40.5782C30.8682 41.0444 30.6561 41.5036 30.4281 41.955C30.3447 42.1175 30.2581 42.2783 30.1681 42.4373C30.0819 42.5896 30.0011 42.7202 29.9283 42.8253C29.8843 42.8901 29.8342 42.9505 29.7788 43.0058V44.644C29.7803 44.6912 29.7722 44.7382 29.7551 44.7822C29.738 44.8262 29.7121 44.8663 29.6791 44.9C29.6456 44.933 29.6058 44.9588 29.562 44.976C29.5182 44.9931 29.4715 45.0012 29.4245 44.9997C29.3774 45.0015 29.3304 44.9938 29.2864 44.9768C29.2424 44.9599 29.2023 44.9343 29.1685 44.9014C29.1356 44.8673 29.1099 44.827 29.093 44.7828C29.0761 44.7386 29.0683 44.6914 29.0702 44.644V43.0045" fill="#1A1919"/>
</svg>
