<svg width="50" height="50" viewBox="0 0 50 50" fill="none" xmlns="http://www.w3.org/2000/svg">
<path fill-rule="evenodd" clip-rule="evenodd" d="M25.2447 10.1421C25.0044 10.2674 23.2533 11.7058 21.3535 13.3385C19.4538 14.9712 15.8023 18.0519 13.2391 20.1845C10.6759 22.3172 8.44576 24.2671 8.28307 24.5174C7.91804 25.0797 7.90652 25.5496 8.24579 26.0363C8.38882 26.2415 9.97113 27.616 11.7622 29.0908C13.5532 30.5657 17.0276 33.4608 19.4831 35.5245C21.9385 37.5881 24.2092 39.4606 24.5288 39.6853C25.6295 40.4598 26.2269 40.0814 31.3721 35.3498C35.8652 31.2178 40.7412 26.0274 40.9626 25.141C41.1019 24.5838 40.9712 24.398 38.4475 21.5618C35.268 17.9887 28.3261 11.2338 26.9366 10.3613C26.3169 9.97199 25.7195 9.89468 25.2447 10.1421ZM11.8026 24.3342C11.6392 25.622 11.4479 27.0011 11.3774 27.3992L11.2493 28.1229H12.0517H12.8541L12.9619 27.3328C13.0212 26.8984 13.0697 26.2343 13.0697 25.8572C13.0697 24.9775 13.2169 25.1328 13.4703 26.2795C13.6642 27.1564 13.6897 27.1864 14.2431 27.1864C14.7645 27.1864 14.8669 27.096 15.399 26.1647C15.7201 25.6028 15.942 25.2717 15.892 25.4289C15.842 25.5861 15.7584 25.9885 15.7064 26.3229C15.6542 26.6573 15.5701 27.1992 15.5193 27.527L15.4268 28.1229H16.194C16.851 28.1229 16.9732 28.0679 17.0467 27.7398C17.1426 27.3107 17.8147 22.4323 17.8147 22.1644C17.8147 22.0699 17.4768 21.9928 17.0637 21.9928H16.3126L15.4961 23.4354C15.047 24.2289 14.6399 24.8803 14.5916 24.8828C14.5432 24.8854 14.3247 24.2362 14.1061 23.4402L13.7087 21.9928H12.9043H12.0996L11.8026 24.3342ZM36.795 23.4657C36.4688 23.7048 35.7254 24.1298 35.1427 24.4101C34.5603 24.6904 34.0836 24.9446 34.0836 24.9751C34.0836 25.063 35.2786 24.7083 36.1658 24.3571C36.612 24.1806 37.002 24.0362 37.0325 24.0362C37.063 24.0362 37.1335 24.3617 37.189 24.7599C37.2446 25.158 37.3382 25.7194 37.3968 26.0075L37.5036 26.5317L36.2595 26.899C35.5754 27.1011 34.7106 27.3364 34.3378 27.4221L33.6599 27.5779L34.3378 27.5925C35.0466 27.6077 36.8825 27.2315 37.6891 26.9058C38.0011 26.7798 38.1326 26.6231 38.0798 26.4402C38.0359 26.2887 37.8735 25.456 37.7188 24.5896C37.5642 23.7232 37.4265 23.0182 37.4129 23.0228C37.3993 23.0274 37.1213 23.2268 36.795 23.4657ZM19.0857 23.756C18.2567 24.137 17.9698 24.6034 17.7712 25.8933C17.626 26.8365 17.6329 27.1855 17.8036 27.506C18.2101 28.2694 19.2161 28.4921 20.2662 28.0513C21.0099 27.739 21.3432 27.0692 21.474 25.6244C21.5723 24.5399 21.5515 24.4356 21.1619 24.0719C20.6406 23.5853 19.7517 23.45 19.0857 23.756ZM22.763 23.6847C22.4554 23.7627 22.175 23.8553 22.1399 23.8906C22.0795 23.9512 21.543 27.6078 21.543 27.9585C21.543 28.0489 21.8757 28.1229 22.2822 28.1229H23.0214L23.1348 27.0112C23.3219 25.1755 23.4109 24.8876 23.7907 24.8876C24.106 24.8876 24.1231 24.9611 24.0181 25.8667C23.9555 26.4051 23.8589 27.1333 23.8035 27.4844L23.7027 28.1229H24.4524H25.2021L25.4218 26.4382C25.6456 24.7204 25.5911 24.3445 25.0517 23.8947C24.7309 23.6271 23.4529 23.51 22.763 23.6847ZM27.3613 23.6437C26.3926 23.8334 25.7824 25.0212 25.7807 26.7207C25.7797 27.5498 25.821 27.6424 26.3305 27.9545C26.6333 28.1401 27.0985 28.2922 27.364 28.2926C27.8911 28.2932 28.9996 27.8272 28.9996 27.6048C28.9996 27.2998 28.4417 26.9238 28.1344 27.0217C27.7536 27.1433 27.1354 26.9746 27.1354 26.7493C27.1354 26.6619 27.3284 26.5904 27.5645 26.5904C28.1951 26.5904 29.1148 26.1589 29.3249 25.7645C29.7689 24.9307 29.4578 24.0004 28.6389 23.7135C28.0917 23.5219 28.0068 23.5171 27.3613 23.6437ZM29.6927 25.488C29.4981 27.0873 29.5041 27.3255 29.7477 27.6989C30.0426 28.1512 30.6674 28.3845 31.2053 28.2432C31.6092 28.1371 31.6432 28.337 31.2738 28.6452C31.0699 28.8151 30.8906 28.8247 30.5227 28.6852C30.1052 28.5269 29.9903 28.5546 29.6766 28.8901L29.3137 29.2781L29.7017 29.5511C30.6224 30.1992 32.0637 29.9719 32.6404 29.0874C32.8631 28.746 33.5574 24.8864 33.5719 23.9084C33.574 23.7738 33.3306 23.6956 32.9086 23.6956C32.1399 23.6956 32.1564 23.6638 31.87 25.6964C31.7097 26.8337 31.6166 27.1013 31.3809 27.1013C31.2208 27.1013 31.0496 27.0611 31.0008 27.012C30.952 26.9628 31.014 26.2924 31.1386 25.522C31.45 23.5975 31.4768 23.6956 30.6413 23.6956H29.9108L29.6927 25.488ZM27.5082 24.9216C27.2312 25.2 27.251 25.739 27.5384 25.739C27.8731 25.739 28.2073 25.2775 28.0917 24.9749C27.9731 24.6643 27.7818 24.6468 27.5082 24.9216ZM19.3459 25.2169C19.1147 25.6511 19.1207 26.8799 19.3547 27.0253C19.678 27.2261 19.9021 26.7995 19.9821 25.8301C20.0464 25.0497 20.0134 24.8876 19.7906 24.8876C19.6424 24.8876 19.4425 25.0357 19.3459 25.2169ZM36.5408 27.5309C36.0748 27.6513 35.2359 27.7623 34.6767 27.7776C33.8307 27.8008 33.7221 27.8357 34.0302 27.9854C34.2701 28.1018 35.0305 28.1219 36.1909 28.0426C37.7954 27.9326 37.9813 27.8863 37.9813 27.5958C37.9813 27.2232 37.7691 27.2136 36.5408 27.5309ZM33.8814 28.3166C34.0702 28.4906 36.1509 28.8041 37.1179 28.8041C37.8662 28.8041 37.9974 28.7581 37.9501 28.5115C37.9008 28.2546 37.6436 28.2183 35.8289 28.2135C34.6931 28.2105 33.8167 28.2568 33.8814 28.3166Z" fill="#272A30"/>
</svg>
