<svg width="50" height="50" viewBox="0 0 50 50" fill="none" xmlns="http://www.w3.org/2000/svg">
<path d="M45 25.3871C44.9526 25.3921 44.8834 25.3786 44.8614 25.4056C44.0112 26.4215 43.2253 27.4981 42.3091 28.4481C39.8431 31.0037 37.372 33.5576 34.8079 36.0152C32.5565 38.1736 30.1936 40.2171 27.8407 42.2656C27.3946 42.6545 26.7895 42.8927 26.2199 43.0922C25.6857 43.2781 25.2429 42.9012 24.8559 42.5851C23.4361 41.4222 22.0382 40.2306 20.6286 39.0542C18.4617 37.2473 16.2982 35.4355 14.1229 33.6405C11.9121 31.8167 9.68776 30.0081 7.46849 28.1945C7.02902 27.8362 6.58787 27.4796 6.14842 27.1212C4.63397 25.8925 4.61539 24.7582 6.10447 23.5227C8.87306 21.224 11.6569 18.9456 14.4136 16.6351C17.1822 14.3143 19.9255 11.9649 22.6771 9.62395C23.4952 8.92759 24.2997 8.2143 25.1195 7.51963C26.1574 6.6407 27.163 6.6069 28.3191 7.60583C30.6787 9.64593 32.9825 11.7553 35.2136 13.9341C37.4869 16.155 39.6606 18.4791 41.846 20.788C42.7891 21.7835 43.6546 22.8517 44.5555 23.8878C44.7043 24.0585 44.8512 24.2292 45 24.4V25.3871Z" fill="#EB671E"/>
<path d="M15.9518 28.7777H14.0553C14.2496 27.5811 14.439 26.4164 14.6283 25.2519C14.6147 25.2401 14.6013 25.2299 14.586 25.2181C14.1483 26.0463 13.7088 26.8746 13.2829 27.6824H12.005C11.8073 26.9032 11.6095 26.1223 11.4118 25.3398C11.3915 25.3448 11.3712 25.3499 11.3509 25.3549C11.2157 26.4841 11.0822 27.6132 10.9436 28.7642H9.06403C9.40714 26.2914 9.74519 23.8541 10.0866 21.3847H11.9712C12.3059 22.5492 12.6439 23.7289 13.0124 25.0119C13.7393 23.7459 14.4186 22.5644 15.1015 21.3728H16.9743C16.6311 23.8491 16.2931 26.2982 15.95 28.7777H15.9518Z" fill="#FFFFFE"/>
<path d="M30.8595 30.1316C31.1604 29.7919 31.4275 29.491 31.5897 29.3067C32.1729 29.3422 32.6477 29.4182 33.1109 29.376C33.2782 29.3609 33.4202 29.0667 33.574 28.8994C33.552 28.869 33.5284 28.8369 33.5064 28.8065C33.4151 28.8216 33.3222 28.8301 33.2326 28.8537C31.943 29.2036 30.8696 28.2587 31.0572 26.9387C31.2246 25.759 31.3902 24.5775 31.5592 23.3809H33.2799C33.0872 24.7195 32.8996 26.0244 32.6934 27.4475C33.0704 27.4644 33.3542 27.4779 33.6517 27.4915C33.8529 26.075 34.0422 24.7482 34.2349 23.3892H35.9404C35.915 23.5937 35.8947 23.7949 35.8676 23.9926C35.6462 25.59 35.44 27.1889 35.2 28.7811C34.9161 30.6589 32.9621 31.5024 31.3345 30.4696C31.1857 30.375 31.0471 30.2634 30.8612 30.1282L30.8595 30.1316Z" fill="#FFFFFE"/>
<path d="M22.0807 23.7003C23.1033 23.2354 24.1275 23.1509 25.1754 23.3943C25.8009 23.5396 26.2674 24.1059 26.2792 24.7583C26.2877 25.2315 26.2149 25.7083 26.1524 26.1798C26.0409 27.035 25.9107 27.8869 25.7857 28.7624H24.0262C24.2087 27.4948 24.3862 26.2609 24.5788 24.9306C24.2493 24.88 23.994 24.8394 23.688 24.7921C23.4937 26.173 23.3128 27.4644 23.1287 28.7709H21.3657C21.604 27.0773 21.8407 25.404 22.0807 23.6969V23.7003Z" fill="#FFFFFE"/>
<path d="M21.4247 25.274C21.3385 25.8081 21.2608 26.6007 21.0765 27.3665C20.828 28.3925 19.3457 29.1311 18.1947 28.8623C17.0419 28.5936 16.5788 27.904 16.7597 26.7343C16.8374 26.2323 16.9067 25.7303 16.9895 25.23C17.2565 23.604 19.0245 22.8755 20.4663 23.4552C21.1272 23.7206 21.472 24.2783 21.4247 25.274ZM18.4567 27.2143C18.6155 27.2786 18.8149 27.4341 18.9823 27.4053C19.1463 27.3766 19.3778 27.1822 19.4083 27.0267C19.5367 26.376 19.6009 25.7117 19.6838 25.088C19.1868 24.679 18.7744 24.8192 18.6882 25.3838C18.6003 25.9551 18.5412 26.5297 18.4567 27.216V27.2143Z" fill="#FFFFFE"/>
<path d="M28.1535 26.7815C28.2584 27.5354 28.8532 27.679 29.6274 27.2159C29.9181 27.4694 30.2037 27.7212 30.4844 27.9646C29.5597 29.1697 27.5535 29.2205 26.7169 28.1252C26.4059 27.7179 26.4041 27.2666 26.4599 26.8035C26.5225 26.2845 26.5969 25.7674 26.6949 25.2552C27.0126 23.6021 28.7079 22.8889 30.1632 23.4551C30.7345 23.6765 31.0066 24.187 31.0219 24.8124C31.0387 25.5375 30.7886 26.1206 30.1412 26.5026C29.5327 26.8609 28.8752 26.8947 28.1552 26.7849L28.1535 26.7815ZM28.4139 25.0254C28.3867 25.267 28.3631 25.4834 28.3395 25.6946C28.6656 25.884 28.9732 25.8485 29.1812 25.6135C29.3334 25.4411 29.3705 25.1656 29.4449 24.9712C29.002 24.5521 28.7181 24.7396 28.4139 25.0236V25.0254Z" fill="#FFFFFE"/>
<path d="M19.3778 21.6837C19.2037 21.2172 19.0415 20.7811 18.8792 20.3467L18.8048 20.3687V22.3159H17.718C17.718 21.5806 17.718 20.8539 17.718 20.127C17.718 19.4002 17.718 18.6987 17.718 17.9551H18.8437C19.1243 18.5974 19.4251 19.287 19.7648 20.0645C20.0895 19.3242 20.3852 18.6531 20.6911 17.9534H21.7762V22.3125H20.7165V20.1829C20.5001 20.7422 20.3176 21.2139 20.1367 21.6837H19.3761H19.3778Z" fill="#215DA4"/>
<path d="M22.1278 20.1254C22.1278 19.9616 22.1278 19.7976 22.1278 19.6319C22.1278 18.7124 22.4795 18.2122 23.3042 17.9586C24.1545 17.6967 25.145 17.9772 25.5522 18.6229C25.6672 18.8054 25.7585 19.0319 25.7686 19.2432C25.7973 19.8382 25.7787 20.4364 25.7787 21.0348C25.7787 21.0788 25.7703 21.1244 25.7636 21.1683C25.6097 21.9831 24.8018 22.4512 23.6913 22.3684C22.8158 22.3042 22.1651 21.7092 22.133 20.9317C22.1211 20.6629 22.1312 20.3942 22.1312 20.1254H22.1278ZM23.2586 20.0832H23.2536C23.2536 20.3216 23.2451 20.5599 23.2552 20.7966C23.2705 21.1717 23.5071 21.3526 23.9617 21.3526C24.4266 21.3526 24.6497 21.1819 24.6598 20.7948C24.6716 20.4094 24.6598 20.0224 24.6598 19.6353C24.6598 19.1131 24.4452 18.8814 23.9583 18.8814C23.4783 18.8814 23.2536 19.1232 23.2552 19.6371C23.2552 19.7858 23.2552 19.9344 23.2552 20.0832H23.2586Z" fill="#215DA4"/>
<path d="M25.9158 20.0984C26.0188 19.6116 26.0255 19.0757 26.247 18.6515C26.6086 17.9569 27.6093 17.6982 28.4714 17.9517C29.3266 18.2036 29.668 18.6904 29.668 19.6521C29.668 20.0409 29.6663 20.428 29.668 20.8167C29.6714 21.3914 29.4145 21.8156 28.9361 22.1165C28.3108 22.5102 27.185 22.4697 26.5985 22.0235C26.2234 21.7379 25.9969 21.366 26.0053 20.8775C26.0104 20.624 26.0053 20.3705 26.0053 20.1152C25.9749 20.1085 25.9444 20.1034 25.914 20.0966L25.9158 20.0984ZM28.5541 20.1456C28.5541 19.9226 28.5643 19.6977 28.5525 19.4746C28.5321 19.0892 28.2533 18.8695 27.8121 18.878C27.398 18.8865 27.1276 19.1112 27.1191 19.4764C27.109 19.909 27.1191 20.3417 27.1158 20.7745C27.1158 21.0956 27.2933 21.268 27.589 21.3322C28.2346 21.4725 28.5508 21.2139 28.5525 20.5496C28.5525 20.4161 28.5525 20.2809 28.5525 20.1474L28.5541 20.1456Z" fill="#215DA4"/>
<path d="M29.477 17.9399H30.6956C30.9846 18.9321 31.2753 19.9343 31.5626 20.9198C31.8517 19.9394 32.1457 18.9371 32.4398 17.9348H33.6517C33.1227 19.4104 32.6038 20.8589 32.0782 22.3209H31.0556C30.5367 20.8826 30.0178 19.4442 29.4752 17.9399H29.477Z" fill="#215DA4"/>
<path d="M36.6063 24.9376C37.9247 24.2006 39.2431 23.4619 40.5851 22.7114C40.8336 24.0772 41.1023 25.5477 41.3796 27.0689C39.549 27.8177 37.6627 28.1287 35.741 28.1642C37.3517 27.7264 38.9777 27.2836 40.6426 26.8288C40.4381 25.7607 40.2572 24.8141 40.073 23.8422C38.9051 24.2394 37.7607 24.6282 36.6148 25.0187C36.6113 24.9916 36.6097 24.9628 36.6063 24.9358V24.9376Z" fill="#FFFFFE"/>
<path d="M35.9031 28.8385C37.6238 29.0127 39.3377 29.092 41.0127 28.6543C41.0566 28.7185 41.0837 28.7405 41.0887 28.7675C41.1192 28.9568 41.1446 29.1462 41.1817 29.398C39.3562 29.6887 37.6255 29.3338 35.9048 28.8385H35.9031Z" fill="#FFFFFE"/>
<path d="M41.1464 27.7399C41.1819 27.8902 41.2359 28.1151 41.3035 28.3956C39.4611 28.6272 37.6695 28.7557 35.959 28.5427C37.6137 28.2875 39.3445 28.0187 41.1464 27.7415V27.7399Z" fill="#FFFFFE"/>
</svg>
