<svg width="50" height="50" viewBox="0 0 50 50" fill="none" xmlns="http://www.w3.org/2000/svg">
<path d="M45 36.5835H5V13.4165H45V36.5835Z" fill="#FECB00"/>
<path d="M24.8875 15.9131C27.2525 15.9197 29.4792 16.1112 31.681 16.5492C33.9694 17.004 36.1845 17.6868 38.2547 18.7843C39.5487 19.4706 40.7412 20.295 41.7089 21.4108C42.4234 22.2336 42.948 23.1562 43.1296 24.2455C43.3295 25.4363 43.068 26.5405 42.465 27.5698C41.8089 28.689 40.8795 29.5501 39.8286 30.2862C38.4229 31.2722 36.8774 31.975 35.2601 32.528C33.4914 33.1342 31.6744 33.5356 29.824 33.7887C27.6939 34.0802 25.5554 34.1768 23.4085 34.0802C20.3657 33.942 17.3845 33.4623 14.5032 32.448C12.7777 31.8417 11.1422 31.0573 9.68661 29.9331C8.80056 29.2486 8.01779 28.4625 7.47317 27.4732C6.49554 25.7011 6.58047 23.9557 7.65305 22.2552C8.31924 21.1976 9.2336 20.3832 10.2529 19.6837C11.8351 18.5961 13.5805 17.8533 15.4059 17.2855C17.1314 16.7491 18.8967 16.3943 20.6905 16.1762C22.1261 16.0013 23.5667 15.9213 24.8909 15.9147L24.8875 15.9131ZM24.7926 17.3521C23.2137 17.3603 21.6397 17.4686 20.0776 17.6885C18.472 17.9133 16.8881 18.2497 15.3442 18.7493C13.862 19.2291 12.4363 19.8336 11.1356 20.7047C10.2562 21.2942 9.46676 21.9771 8.89217 22.8815C8.34589 23.7442 8.1044 24.6752 8.30092 25.6928C8.46414 26.5338 8.88551 27.245 9.44844 27.8762C10.3428 28.8788 11.4487 29.5917 12.6395 30.1846C14.3234 31.0223 16.1037 31.567 17.9374 31.9583C19.7561 32.3465 21.5949 32.5596 23.4502 32.6412C25.1956 32.7195 26.9377 32.6628 28.6749 32.4863C30.312 32.3197 31.9275 32.0416 33.5164 31.6102C35.2301 31.1456 36.884 30.5311 38.4079 29.605C39.3539 29.0305 40.2184 28.3542 40.8829 27.4566C42.042 25.891 42.0504 24.1756 40.9095 22.6C40.3066 21.769 39.5287 21.1293 38.6711 20.5797C37.2204 19.6505 35.6365 19.0225 33.9894 18.5462C30.9849 17.6768 27.9104 17.3487 24.7926 17.3503V17.3521Z" fill="#020202"/>
<path d="M24.7928 17.3522C27.9105 17.3522 30.9866 17.6785 33.9895 18.5479C35.6368 19.0243 37.2206 19.6522 38.6713 20.5815C39.5273 21.131 40.3068 21.7689 40.9096 22.6017C42.0505 24.1773 42.0421 25.8927 40.883 27.4583C40.2168 28.3577 39.354 29.0322 38.408 29.6068C36.8841 30.5328 35.2304 31.1473 33.5165 31.612C31.9276 32.0417 30.3121 32.3215 28.675 32.488C26.9363 32.6645 25.1958 32.7212 23.4504 32.6429C21.595 32.5597 19.7563 32.3482 17.9376 31.96C16.1039 31.5687 14.3235 31.0224 12.6396 30.1863C11.4488 29.5934 10.3429 28.8807 9.44858 27.878C8.88564 27.2468 8.46262 26.5373 8.30105 25.6945C8.10453 24.6753 8.34603 23.7459 8.8923 22.8832C9.46524 21.9788 10.2563 21.296 11.1357 20.7064C12.4365 19.8353 13.8621 19.2308 15.3444 18.7512C16.8883 18.2498 18.4721 17.915 20.0778 17.6902C21.6416 17.472 23.2139 17.3638 24.7928 17.3538V17.3522ZM18.9519 24.4288C18.9119 24.3704 18.8803 24.3255 18.8503 24.2789C18.4139 23.6093 17.9659 22.9464 17.5461 22.2669C17.4096 22.0472 17.2698 21.9538 17.0083 21.9738C16.6501 22.0005 16.2904 21.9805 15.934 21.9805V28.0379H17.363V24.6819C17.7178 25.1749 18.0441 25.6712 18.3639 26.1709C18.4173 26.2558 18.4739 26.2908 18.5771 26.2874C18.8219 26.2792 19.0668 26.2774 19.3099 26.2874C19.4265 26.2924 19.4865 26.2474 19.5481 26.1542C19.8363 25.6995 20.1344 25.2515 20.4275 24.8002C20.4558 24.7569 20.4874 24.7185 20.5191 24.6769C20.5308 24.6803 20.5424 24.6835 20.554 24.6885V28.0379H21.9748V21.9805C21.5534 21.9805 21.1386 21.9855 20.7223 21.9772C20.599 21.9755 20.5258 22.0088 20.4558 22.117C20.0644 22.7299 19.6646 23.3362 19.2666 23.9458C19.1634 24.104 19.0601 24.2605 18.9501 24.427L18.9519 24.4288ZM32.5989 25.5813C32.5373 25.503 32.5023 25.4614 32.4706 25.418C31.7644 24.442 31.0599 23.4644 30.3538 22.4884C30.2339 22.3219 30.1439 22.092 29.9808 22.0104C29.8109 21.9255 29.5694 21.9838 29.3595 21.9822C29.0946 21.9805 28.8299 21.9822 28.5668 21.9822V28.0379H30.0006V24.4604C30.0573 24.537 30.0906 24.582 30.1239 24.6253C30.9168 25.7228 31.7111 26.822 32.5056 27.9179C32.5423 27.9679 32.5971 28.0395 32.6455 28.0412C33.1051 28.0512 33.5631 28.0462 34.0245 28.0462V21.9905H32.6005V25.5813H32.5989ZM24.5529 28.0379H25.9953V23.4112H27.8239V21.9888H22.7075V23.4228H24.5529V28.0362V28.0379Z" fill="#FECB00"/>
<path d="M18.9502 24.4288C19.0601 24.2622 19.1633 24.104 19.2666 23.9475C19.6646 23.3378 20.0643 22.7317 20.4557 22.1187C20.5257 22.0105 20.5973 21.9755 20.7222 21.9788C21.137 21.9872 21.5533 21.9822 21.9747 21.9822V28.0396H20.554V24.6902C20.5423 24.687 20.5307 24.6836 20.5191 24.6786C20.4891 24.7202 20.4557 24.7586 20.4275 24.8018C20.1326 25.2532 19.8362 25.7012 19.5481 26.1558C19.4881 26.2508 19.4265 26.2941 19.3098 26.2891C19.0651 26.2791 18.8202 26.2808 18.5771 26.2891C18.4755 26.2925 18.4188 26.2558 18.3638 26.1726C18.0441 25.6728 17.7177 25.1766 17.363 24.6836V28.0396H15.934V21.9805C16.2903 21.9805 16.6501 22.0005 17.0082 21.9738C17.2697 21.9538 17.4096 22.0471 17.5461 22.267C17.9658 22.9465 18.4138 23.6093 18.8502 24.2788C18.8802 24.3255 18.9118 24.3705 18.9518 24.4288H18.9502Z" fill="#020202"/>
<path d="M32.5988 25.5813V21.9905H34.0228V28.0462C33.5614 28.0462 33.1034 28.0495 32.6437 28.0412C32.5954 28.0412 32.5404 27.9679 32.5038 27.9179C31.7094 26.8204 30.9149 25.7229 30.1222 24.6253C30.0906 24.5803 30.0572 24.537 29.9989 24.4604V28.0379H28.5649V21.9805C28.8281 21.9805 29.0929 21.9805 29.3577 21.9805C29.5676 21.9805 29.8091 21.9239 29.9789 22.0088C30.1422 22.0904 30.2322 22.3203 30.3521 22.4868C31.0582 23.4628 31.7627 24.4404 32.4688 25.4164C32.5006 25.4597 32.5354 25.5013 32.5971 25.5797L32.5988 25.5813Z" fill="#020202"/>
<path d="M24.5529 28.0379V23.4244H22.7075V21.9904H27.8239V23.4127H25.9953V28.0395H24.5529V28.0379Z" fill="#020202"/>
</svg>
