<svg width="50" height="50" viewBox="0 0 50 50" fill="none" xmlns="http://www.w3.org/2000/svg">
<path fill-rule="evenodd" clip-rule="evenodd" d="M24.7487 37.2114H38.6044C41.769 37.2114 41.8016 33.8484 41.4805 32.1877C41.3029 31.0715 39.4073 31.0819 39.1971 32.1877V33.4828C39.1971 34.0768 38.714 34.5599 38.12 34.5599H11.5537C11.2683 34.5592 10.9947 34.4455 10.7929 34.2437C10.591 34.0418 10.4773 33.7683 10.4766 33.4828V32.1877C10.2677 31.0819 8.3708 31.0715 8.19456 32.1877C7.87339 33.8484 7.90473 37.2114 11.0693 37.2114H24.75H24.7487ZM14.9507 4.99866H36.3171C37.8158 4.99866 39.0456 6.29897 39.0456 7.8865V9.27037C39.0456 11.2208 36.4032 11.2156 36.4032 9.28212V8.52621C36.4026 8.2949 36.3103 8.07329 36.1466 7.90985C35.9829 7.74641 35.7612 7.65446 35.5298 7.65411H14.1191C13.888 7.6548 13.6666 7.74691 13.5032 7.91031C13.3398 8.07371 13.2477 8.29513 13.247 8.52621V9.26384C13.247 11.2052 10.7273 11.1921 10.7273 9.30562V7.8865C10.7273 6.29897 11.9558 4.99866 13.4559 4.99866H14.9494H14.9507Z" fill="#1866AB"/>
<path fill-rule="evenodd" clip-rule="evenodd" d="M38.5089 20.8675C39.9881 21.5633 41.009 23.0007 41.009 24.6496C41.009 26.9761 38.9789 28.8795 36.4958 28.8795H29.5373C28.8872 28.8795 28.3545 28.3795 28.3545 27.7711V14.533C28.3545 13.8933 28.8767 13.3711 29.5164 13.3711H35.3117C36.4867 13.3738 37.6129 13.8416 38.4441 14.6721C39.2754 15.5026 39.7441 16.6284 39.7479 17.8034C39.7479 18.9888 39.2753 20.0685 38.5076 20.8675H38.5089ZM33.3142 19.7878H35.5219V19.7643C36.0176 19.687 36.4695 19.4356 36.7966 19.0552C37.1237 18.6747 37.3045 18.1902 37.3065 17.6885C37.3065 16.5331 36.36 15.5866 35.2059 15.5866H30.7554V26.5727H36.3979C37.5925 26.5727 38.5677 25.5961 38.5677 24.4029C38.5677 23.2096 37.5925 22.2331 36.3979 22.2331H35.5232V22.2278H33.3142C32.9909 22.2268 32.6812 22.0978 32.4527 21.8691C32.2242 21.6404 32.0955 21.3305 32.0948 21.0072C32.0948 20.3374 32.6432 19.7878 33.3142 19.7878Z" fill="#373535"/>
<path fill-rule="evenodd" clip-rule="evenodd" d="M15.8333 41.2756C15.8333 41.0693 16.0017 40.9022 16.208 40.9022C16.4143 40.9022 16.5801 41.0693 16.5801 41.2756V43.2952C16.5787 43.739 16.4018 44.1643 16.0879 44.4781C15.7741 44.7919 15.3489 44.9689 14.9051 44.9702V44.9728V44.9702C14.6848 44.9706 14.4666 44.9275 14.263 44.8434C14.0593 44.7592 13.8743 44.6358 13.7185 44.4801C13.5627 44.3244 13.4391 44.1395 13.3548 43.9359C13.2706 43.7324 13.2273 43.5142 13.2274 43.2939H13.2261V41.2743C13.2261 41.1752 13.2655 41.0803 13.3355 41.0102C13.4055 40.9402 13.5005 40.9009 13.5995 40.9009C13.6985 40.9009 13.7935 40.9402 13.8635 41.0102C13.9336 41.0803 13.9729 41.1752 13.9729 41.2743V43.2939C13.9729 43.5485 14.0773 43.7809 14.2471 43.9519C14.4168 44.1216 14.6492 44.2261 14.9037 44.2261V44.2235H14.9051V44.2248C15.1609 44.2248 15.392 44.1203 15.5617 43.9506C15.7315 43.7809 15.8359 43.5485 15.8359 43.2939H15.8333V41.2756Z" fill="#373535"/>
<path fill-rule="evenodd" clip-rule="evenodd" d="M19.3594 44.2247C19.4102 44.2217 19.4611 44.2291 19.5089 44.2465C19.5568 44.2639 19.6006 44.2908 19.6376 44.3257C19.6746 44.3606 19.7041 44.4028 19.7243 44.4495C19.7445 44.4962 19.7549 44.5466 19.7549 44.5975C19.7549 44.6483 19.7445 44.6987 19.7243 44.7454C19.7041 44.7922 19.6746 44.8343 19.6376 44.8692C19.6006 44.9041 19.5568 44.931 19.5089 44.9484C19.4611 44.9658 19.4102 44.9732 19.3594 44.9702H18.3294C17.9442 44.9702 17.593 44.8122 17.3385 44.5563C17.2083 44.427 17.1051 44.2732 17.0348 44.1038C16.9644 43.9344 16.9283 43.7528 16.9285 43.5693H16.9259V41.2755C16.9259 41.0692 17.0943 40.9021 17.3006 40.9021C17.5069 40.9021 17.6727 41.0692 17.6727 41.2755V43.568C17.6727 43.7482 17.7471 43.9127 17.8672 44.0328C17.9847 44.1529 18.1492 44.2273 18.3294 44.2273V44.2247H19.3607H19.3594ZM27.2488 27.5583C27.2752 27.9199 27.1599 28.2777 26.9273 28.5559C26.6948 28.8341 26.3631 29.011 26.0025 29.0491C25.6419 29.0873 25.2806 28.9837 24.995 28.7603C24.7093 28.5369 24.5218 28.2112 24.4719 27.852L23.3269 17.3242L19.2759 27.6196L19.2706 27.6275V27.6288L19.2576 27.6575L19.2498 27.6784L19.2485 27.6836L19.238 27.7058L19.2315 27.7188L19.221 27.7371L19.2184 27.7476L19.208 27.7672L19.2028 27.7763C19.1283 27.916 19.033 28.04 18.9208 28.1445L18.9155 28.1484L18.8947 28.1666C18.8209 28.2327 18.7399 28.2901 18.6531 28.3377L18.6479 28.3429L18.6218 28.356L18.6192 28.3586L18.5957 28.3677L18.5826 28.3742L18.5696 28.3821L18.5513 28.3899L18.5382 28.3964L18.52 28.4029L18.5043 28.4108L18.4912 28.4173L18.4782 28.4225L18.4704 28.4251L18.4586 28.4291L18.4403 28.4369L18.4299 28.4395C18.2975 28.4862 18.1589 28.5126 18.0186 28.5178H17.9181C17.7616 28.5116 17.6072 28.4794 17.4612 28.4225L17.4429 28.4134L17.4377 28.4121L17.4181 28.4056L17.3998 28.3964L17.3868 28.3899L17.3711 28.3821L17.3528 28.3729L17.3437 28.3677L17.3189 28.3586L17.315 28.356L17.2941 28.3442L17.281 28.3377C17.2062 28.2939 17.135 28.2441 17.0682 28.1888L17.063 28.1836C17.0486 28.1706 17.0317 28.1575 17.0186 28.1431H17.016L16.9807 28.1079C16.9703 28.0948 16.9585 28.0857 16.9481 28.074L16.9063 28.027L16.9011 28.0217C16.8454 27.9544 16.7956 27.8823 16.7523 27.8063L16.7471 27.7972L16.7353 27.775L16.734 27.7711L16.7209 27.745L16.7157 27.7358L16.7079 27.7202L16.7001 27.7032L16.6935 27.6888L16.6844 27.6692L16.6779 27.6523L16.6766 27.6483L16.6674 27.6288L12.6111 17.3242L11.4662 27.852C11.4525 28.0388 11.4015 28.2209 11.3161 28.3876C11.2306 28.5542 11.1126 28.702 10.9689 28.8221C10.8252 28.9422 10.6588 29.0322 10.4797 29.0867C10.3005 29.1413 10.1122 29.1592 9.926 29.1395C9.73976 29.1198 9.5594 29.0629 9.39561 28.9721C9.23183 28.8812 9.08797 28.7584 8.9726 28.6109C8.85723 28.4634 8.7727 28.2942 8.72403 28.1134C8.67536 27.9325 8.66354 27.7438 8.68929 27.5583L10.0392 15.1452V15.1413L10.0405 15.1361C10.0742 14.8446 10.1623 14.5621 10.3003 14.3032C10.645 13.6543 11.2795 13.2013 12.0341 13.0969H12.0367C12.1789 13.0769 12.3228 13.0708 12.4662 13.0786H12.4714C12.9171 13.0964 13.348 13.2437 13.7113 13.5024C14.0746 13.7612 14.3547 14.1202 14.5172 14.5356L17.9703 23.3074L21.4235 14.5356C21.5852 14.1199 21.8649 13.7606 22.2281 13.5017C22.5913 13.2429 23.0223 13.0958 23.4679 13.0786H23.4745C23.5894 13.0721 23.7069 13.0747 23.827 13.089C23.8518 13.089 23.8766 13.0916 23.9014 13.0969H23.904C24.4165 13.1652 24.8914 13.4031 25.2529 13.7726C25.6145 14.1422 25.8419 14.6222 25.8988 15.1361V15.1452L27.2488 27.5583Z" fill="#373535"/>
<path fill-rule="evenodd" clip-rule="evenodd" d="M13.0889 44.5538C13.098 44.6039 13.0967 44.6554 13.0851 44.705C13.0735 44.7546 13.0519 44.8013 13.0215 44.8422C12.9912 44.8832 12.9528 44.9175 12.9088 44.943C12.8647 44.9686 12.8159 44.9849 12.7653 44.9908C12.7147 44.9968 12.6634 44.9924 12.6146 44.9778C12.5658 44.9632 12.5205 44.9388 12.4815 44.9061C12.4424 44.8733 12.4105 44.8329 12.3877 44.7874C12.3649 44.7418 12.3516 44.6921 12.3487 44.6413L12.0288 41.9545L10.8891 44.5982C10.8495 44.6888 10.7758 44.7602 10.6839 44.7969C10.592 44.8335 10.4894 44.8325 10.3982 44.794C10.3108 44.7555 10.2409 44.6856 10.2024 44.5982L9.06266 41.9545L8.74281 44.6413C8.73991 44.6921 8.72664 44.7418 8.7038 44.7874C8.68097 44.8329 8.64906 44.8733 8.61004 44.9061C8.57101 44.9388 8.5257 44.9632 8.47689 44.9778C8.42808 44.9924 8.3768 44.9968 8.32621 44.9908C8.27562 44.9849 8.22679 44.9686 8.18272 44.943C8.13865 44.9175 8.10028 44.8832 8.06996 44.8422C8.03964 44.8013 8.01802 44.7546 8.00643 44.705C7.99484 44.6554 7.99353 44.6039 8.00257 44.5538L8.37464 41.4336C8.38604 41.3359 8.42162 41.2426 8.47815 41.1621C8.53468 41.0816 8.61039 41.0165 8.69842 40.9727C8.72322 40.9596 8.74803 40.9492 8.77153 40.9388L8.80025 40.9283C8.83643 40.9188 8.87302 40.911 8.90991 40.9048V40.9061L8.91383 40.9048H8.91775C9.03062 40.8899 9.14542 40.9054 9.2503 40.9497C9.35519 40.994 9.44635 41.0655 9.51438 41.1568C9.53135 41.179 9.5444 41.2038 9.55746 41.226C9.5666 41.239 9.57313 41.2547 9.57835 41.2678L10.5444 43.5094L11.5105 41.2678C11.5573 41.1605 11.6338 41.0688 11.7309 41.0036C11.8281 40.9384 11.9419 40.9023 12.0589 40.8996C12.0854 40.8979 12.112 40.8979 12.1385 40.8996H12.1424C12.1503 40.9009 12.1607 40.9009 12.1685 40.9035H12.1738C12.31 40.9187 12.4373 40.9787 12.5356 41.0742C12.6339 41.1697 12.6977 41.2952 12.7169 41.4309V41.4336L13.0889 44.5538Z" fill="#373535"/>
<path fill-rule="evenodd" clip-rule="evenodd" d="M20.9901 44.5981C20.9898 44.697 20.9503 44.7918 20.8804 44.8617C20.8105 44.9317 20.7157 44.9711 20.6168 44.9715C20.5181 44.9708 20.4236 44.9312 20.354 44.8613C20.2843 44.7913 20.245 44.6968 20.2447 44.5981V41.6489H19.182C19.0829 41.6489 18.988 41.6095 18.918 41.5395C18.8479 41.4695 18.8086 41.3745 18.8086 41.2755C18.8086 41.1765 18.8479 41.0815 18.918 41.0115C18.988 40.9414 19.0829 40.9021 19.182 40.9021H22.0528C22.1519 40.9021 22.2468 40.9414 22.3169 41.0115C22.3869 41.0815 22.4262 41.1765 22.4262 41.2755C22.4262 41.3745 22.3869 41.4695 22.3169 41.5395C22.2468 41.6095 22.1519 41.6489 22.0528 41.6489H20.9901V44.5994V44.5981Z" fill="#373535"/>
<path fill-rule="evenodd" clip-rule="evenodd" d="M23.3178 44.5981C23.3208 44.649 23.3134 44.6998 23.2961 44.7477C23.2787 44.7955 23.2517 44.8393 23.2168 44.8763C23.1819 44.9134 23.1398 44.9429 23.0931 44.963C23.0463 44.9832 22.996 44.9936 22.9451 44.9936C22.8942 44.9936 22.8439 44.9832 22.7971 44.963C22.7504 44.9429 22.7083 44.9134 22.6734 44.8763C22.6385 44.8393 22.6115 44.7955 22.5941 44.7477C22.5768 44.6998 22.5694 44.649 22.5724 44.5981V41.2756C22.5724 41.1767 22.6116 41.0819 22.6815 41.012C22.7514 40.9421 22.8462 40.9028 22.9451 40.9028C23.044 40.9028 23.1388 40.9421 23.2087 41.012C23.2786 41.0819 23.3178 41.1767 23.3178 41.2756V44.5981Z" fill="#373535"/>
<path fill-rule="evenodd" clip-rule="evenodd" d="M30.9722 44.5524C30.9824 44.6028 30.9821 44.6548 30.9713 44.7051C30.9604 44.7554 30.9393 44.8029 30.9093 44.8447C30.8792 44.8864 30.8408 44.9215 30.7966 44.9478C30.7523 44.974 30.7031 44.9908 30.6521 44.9971C30.601 45.0034 30.5492 44.9991 30.4999 44.9845C30.4506 44.9698 30.4048 44.9451 30.3655 44.9119C30.3261 44.8788 30.2941 44.8378 30.2713 44.7917C30.2486 44.7455 30.2356 44.6952 30.2332 44.6438L30.1014 43.5902H28.8076C28.7087 43.5899 28.6139 43.5504 28.544 43.4805C28.474 43.4105 28.4346 43.3158 28.4342 43.2168C28.4342 43.0106 28.6039 42.8422 28.8076 42.8422H30.0087L29.9748 42.568L29.9721 42.5654V42.5393C29.9515 42.4051 29.9106 42.2748 29.8507 42.1528C29.7045 41.8565 29.4369 41.6489 29.0974 41.6489H29.0935V41.6476C28.9708 41.6475 28.8499 41.677 28.741 41.7338C28.4525 41.8787 28.2593 42.1959 28.2188 42.5641L27.9864 44.6386C27.9692 44.7312 27.9176 44.8138 27.842 44.8699C27.7664 44.9261 27.6724 44.9516 27.5788 44.9414C27.4852 44.9311 27.3989 44.8859 27.3372 44.8147C27.2755 44.7436 27.243 44.6517 27.2462 44.5576L27.4812 42.4818C27.5491 41.8708 27.8872 41.329 28.4003 41.0666C28.6151 40.9594 28.8521 40.904 29.0922 40.9047V40.9034H29.0974C29.7424 40.9034 30.2463 41.2794 30.5152 41.8212C30.6144 42.015 30.6797 42.2243 30.7085 42.4401L30.715 42.474V42.4779L30.9722 44.5524Z" fill="#373535"/>
<path fill-rule="evenodd" clip-rule="evenodd" d="M32.1145 44.5982C32.1175 44.649 32.1101 44.6998 32.0927 44.7477C32.0754 44.7955 32.0484 44.8393 32.0135 44.8763C31.9786 44.9134 31.9365 44.9429 31.8898 44.963C31.843 44.9832 31.7927 44.9936 31.7418 44.9936C31.6909 44.9936 31.6405 44.9832 31.5938 44.963C31.5471 44.9429 31.505 44.9134 31.4701 44.8763C31.4352 44.8393 31.4082 44.7955 31.3908 44.7477C31.3735 44.6998 31.3661 44.649 31.3691 44.5982V41.5119C31.3691 41.4884 31.3704 41.4688 31.3743 41.4479C31.3779 41.4062 31.3875 41.3653 31.403 41.3265V41.3252C31.4108 41.3056 31.4213 41.2821 31.4343 41.2599V41.256C31.4723 41.1848 31.5267 41.1236 31.593 41.0775C31.6593 41.0314 31.7356 41.0018 31.8156 40.991L31.8182 40.9884C31.8443 40.9831 31.873 40.9818 31.9096 40.9831H31.9187C31.9951 40.9857 32.07 41.0051 32.1382 41.0398C32.2063 41.0746 32.266 41.1239 32.313 41.1842L34.3 43.7169V41.2756C34.297 41.2248 34.3044 41.1739 34.3218 41.1261C34.3391 41.0782 34.3661 41.0344 34.401 40.9974C34.4359 40.9604 34.478 40.9309 34.5247 40.9107C34.5715 40.8905 34.6218 40.8801 34.6727 40.8801C34.7236 40.8801 34.774 40.8905 34.8207 40.9107C34.8674 40.9309 34.9095 40.9604 34.9444 40.9974C34.9793 41.0344 35.0063 41.0782 35.0237 41.1261C35.041 41.1739 35.0485 41.2248 35.0454 41.2756V44.3475C35.0449 44.4258 35.0271 44.5031 34.9933 44.5737C34.9594 44.6444 34.9104 44.7067 34.8496 44.7561C34.8274 44.7731 34.8013 44.7914 34.7726 44.807C34.7581 44.8162 34.7428 44.8241 34.7269 44.8305L34.7243 44.8319H34.7217C34.7123 44.8376 34.7022 44.842 34.6916 44.8449H34.6864C34.5561 44.8906 34.413 44.8831 34.2882 44.824L34.2399 44.7979C34.1934 44.7709 34.1522 44.7355 34.1185 44.6935L34.1068 44.6778H34.1055H34.1068L34.1015 44.6713L32.1145 42.1398V44.5982Z" fill="#373535"/>
<path fill-rule="evenodd" clip-rule="evenodd" d="M37.9424 44.2248C37.9932 44.2218 38.0441 44.2292 38.0919 44.2466C38.1397 44.2639 38.1835 44.2909 38.2206 44.3258C38.2576 44.3607 38.2871 44.4028 38.3073 44.4496C38.3274 44.4963 38.3378 44.5466 38.3378 44.5975C38.3378 44.6484 38.3274 44.6988 38.3073 44.7455C38.2871 44.7922 38.2576 44.8343 38.2206 44.8692C38.1835 44.9042 38.1397 44.9311 38.0919 44.9485C38.0441 44.9659 37.9932 44.9733 37.9424 44.9703H36.8431C36.6498 44.9703 36.4584 44.9322 36.2798 44.8581C36.1012 44.7841 35.9389 44.6756 35.8023 44.5389C35.6656 44.4021 35.5573 44.2397 35.4834 44.0611C35.4096 43.8824 35.3716 43.691 35.3718 43.4976H35.3705V42.3749H35.3718C35.3718 41.9701 35.5376 41.6007 35.8052 41.3357C36.0703 41.0693 36.4371 40.9048 36.8431 40.9048V40.9022H37.9424C38.0416 40.9022 38.1367 40.9416 38.2069 41.0118C38.277 41.0819 38.3164 41.1771 38.3164 41.2763C38.3164 41.3755 38.277 41.4706 38.2069 41.5407C38.1367 41.6109 38.0416 41.6503 37.9424 41.6503H36.8431V41.6477C36.7473 41.6476 36.6524 41.6668 36.564 41.704C36.4757 41.7412 36.3957 41.7958 36.3287 41.8644C36.1982 41.995 36.1159 42.1764 36.1159 42.3749H36.1172V43.4976C36.1169 43.5932 36.1354 43.688 36.1717 43.7764C36.208 43.8648 36.2614 43.9453 36.3289 44.013C36.3963 44.0808 36.4764 44.1347 36.5646 44.1714C36.6529 44.2082 36.7475 44.2272 36.8431 44.2274V44.2248H37.9424Z" fill="#373535"/>
<path fill-rule="evenodd" clip-rule="evenodd" d="M40.1017 41.6477V41.649V41.6477C39.8386 41.6464 39.5853 41.7476 39.3954 41.9297C39.3054 42.0145 39.2335 42.1167 39.1839 42.2299C39.1344 42.3432 39.1082 42.4654 39.1069 42.589V43.2862C39.1069 43.5394 39.2179 43.7731 39.3941 43.9442C39.5844 44.1256 39.8374 44.2266 40.1004 44.2262V44.2248H40.1017V44.2262C40.3652 44.2272 40.6188 44.1262 40.8093 43.9442C40.9856 43.7731 41.0965 43.5394 41.0965 43.2862V42.589C41.0951 42.4655 41.069 42.3435 41.0197 42.2303C40.9703 42.117 40.8988 42.0148 40.8093 41.9297C40.6188 41.7477 40.3652 41.6466 40.1017 41.6477ZM40.1017 40.9036V40.9049C40.5769 40.9049 41.0104 41.0929 41.3263 41.3944C41.6422 41.6986 41.8394 42.1216 41.8407 42.589V43.2862C41.8394 43.5099 41.7931 43.7311 41.7045 43.9366C41.6159 44.142 41.4869 44.3276 41.325 44.482C41.0104 44.7823 40.5769 44.9703 40.1017 44.9703V44.9716C39.6252 44.9716 39.1931 44.7823 38.8784 44.4794C38.7166 44.3256 38.5876 44.1405 38.4992 43.9354C38.4107 43.7303 38.3648 43.5095 38.364 43.2862H38.3627V42.589C38.3627 42.1229 38.5612 41.6986 38.8784 41.3944C39.1917 41.0942 39.6252 40.9049 40.1004 40.9049V40.9036H40.1017Z" fill="#373535"/>
<path fill-rule="evenodd" clip-rule="evenodd" d="M24.3766 41.649V44.2248H25.8193V44.2262C25.8809 44.2261 25.9418 44.2137 25.9986 44.1898C26.0553 44.1658 26.1066 44.1306 26.1496 44.0865C26.1937 44.0436 26.2287 43.9922 26.2525 43.9354C26.2762 43.8787 26.2883 43.8177 26.288 43.7562H26.2866V43.7549H26.288C26.2878 43.6383 26.244 43.5261 26.1652 43.4402L26.1496 43.4232C26.1065 43.3794 26.0551 43.3445 25.9984 43.3208C25.9416 43.297 25.8808 43.2848 25.8193 43.2849V43.2862H25.3232C25.2241 43.2862 25.1292 43.2468 25.0591 43.1768C24.9891 43.1068 24.9498 43.0118 24.9498 42.9128C24.9498 42.8138 24.9891 42.7188 25.0591 42.6488C25.1292 42.5787 25.2241 42.5394 25.3232 42.5394H25.4916C25.5976 42.5302 25.6969 42.484 25.7723 42.4088H25.7736C25.8573 42.3255 25.9047 42.2124 25.9054 42.0942V42.0929C25.9053 42.0342 25.8935 41.9762 25.8706 41.9221C25.8478 41.8681 25.8143 41.8192 25.7723 41.7783C25.7314 41.7366 25.6827 41.7034 25.6289 41.6808C25.5751 41.6581 25.5173 41.6464 25.4589 41.6464V41.6477H24.3753L24.3766 41.649ZM23.6325 42.9141V41.2926C23.6325 41.2404 23.6416 41.1908 23.6625 41.1438C23.6814 41.0957 23.7109 41.0524 23.7487 41.0171L23.7513 41.0119C23.8174 40.9475 23.9046 40.909 23.9967 40.9036H24.0202H25.4589C25.7879 40.9036 26.0856 41.038 26.2997 41.2534C26.4103 41.3634 26.4981 41.4942 26.5579 41.6383C26.6178 41.7824 26.6485 41.9369 26.6483 42.0929H26.6496V42.0942H26.6483C26.6478 42.3186 26.5845 42.5384 26.4655 42.7287C26.5525 42.7812 26.6317 42.8458 26.7005 42.9206C26.9136 43.1456 27.0323 43.4437 27.0321 43.7535H27.0334V43.7549H27.0321C27.0326 43.9143 27.0016 44.0723 26.9409 44.2198C26.8801 44.3672 26.7908 44.5012 26.6781 44.6141C26.5654 44.7269 26.4315 44.8163 26.2841 44.8773C26.1367 44.9382 25.9787 44.9693 25.8193 44.969V44.9703H24.0046C23.9555 44.9705 23.907 44.961 23.8616 44.9424C23.8162 44.9238 23.775 44.8964 23.7402 44.8619C23.7054 44.8273 23.6777 44.7863 23.6588 44.741C23.6399 44.6958 23.6301 44.6473 23.6299 44.5982V42.9141H23.6325Z" fill="#373535"/>
</svg>
