<svg width="50" height="50" viewBox="0 0 50 50" fill="none" xmlns="http://www.w3.org/2000/svg">
<path fill-rule="evenodd" clip-rule="evenodd" d="M30.6204 20.0132C29.8672 20.1474 29.2861 20.6339 29.0219 21.3519C28.8289 21.8761 28.7986 22.505 28.9398 23.0586C29.1316 23.8112 29.6846 24.3898 30.394 24.5802C30.9573 24.7314 31.5645 24.6769 32.0581 24.4309C32.9447 23.9889 33.3923 22.8996 33.1603 21.7485C32.9849 20.8783 32.4353 20.2688 31.6317 20.0532C31.4974 20.0171 31.3854 20.0063 31.0937 20.0011C30.8911 19.9975 30.6781 20.003 30.6204 20.0132ZM2.44714 20.0556C2.24572 20.1088 2.11612 20.1662 1.96064 20.2712C1.31233 20.709 1.08853 21.5279 1.4275 22.2219C1.59491 22.5647 1.80796 22.7796 2.14377 22.9444C2.48956 23.1141 2.33127 23.1036 4.64558 23.1109L6.714 23.1176L3.50522 26.3111C0.0117018 29.788 0.194416 29.5935 0.0601105 29.9787C0.005526 30.1352 0 30.1788 0 30.4527C0 30.7266 0.005526 30.7702 0.0601105 30.9267C0.29028 31.5868 0.863016 32 1.54787 32C1.88105 32 2.15161 31.9175 2.4363 31.729C2.48993 31.6935 3.97453 30.2332 5.73542 28.4839L8.93703 25.3033V27.3413C8.93703 29.3054 8.93859 29.3854 8.98022 29.5497C9.09609 30.007 9.41053 30.3857 9.83994 30.585C10.053 30.6839 10.2307 30.7214 10.4883 30.7217C11.199 30.7228 11.7791 30.2917 11.9958 29.6016L12.0466 29.44V25.3677V21.2954L11.9957 21.1344C11.835 20.6254 11.4824 20.257 10.9935 20.0873L10.8114 20.0242L6.70512 20.0198C2.76268 20.0157 2.59277 20.0171 2.44714 20.0556ZM30.8987 20.8229C30.8748 20.8282 30.8017 20.8433 30.7362 20.8565C30.3681 20.9304 30.0761 21.2211 29.9381 21.6509C29.8698 21.8635 29.8437 22.046 29.8425 22.3189C29.8384 23.2615 30.2863 23.8253 31.0404 23.8268C31.6038 23.8279 32.0009 23.4981 32.1701 22.8886C32.211 22.7414 32.2175 22.6634 32.2171 22.3296C32.2167 22.0008 32.2095 21.9156 32.1698 21.7694C32.1035 21.5253 31.9884 21.3055 31.8476 21.1543C31.7098 21.0062 31.5915 20.9304 31.4111 20.8746C31.2854 20.8357 30.9798 20.8049 30.8987 20.8229ZM35.0591 21.3736C34.8012 21.4616 34.5667 21.6551 34.4302 21.8926L34.3771 21.9849L34.3768 21.6994L34.3766 21.4139H33.9649H33.5531V23.0407V24.6675H33.9865H34.4199V23.837C34.4199 23.1641 34.4264 22.9753 34.4541 22.8417C34.5159 22.5443 34.6538 22.345 34.8715 22.2387C34.9869 22.1824 35.0112 22.1788 35.2813 22.1788H35.5684V21.7664C35.5684 21.4101 35.5637 21.3521 35.5341 21.3408C35.4573 21.3115 35.1862 21.3302 35.0591 21.3736ZM37.2044 21.3419C37.0286 21.3685 36.7686 21.441 36.6379 21.5C36.2865 21.6583 36.0644 21.9358 36.0123 22.2812L35.9968 22.3835H36.4756H36.9544L36.9668 22.3243C37.0303 22.0225 37.2624 21.8909 37.687 21.9158C38.0219 21.9355 38.1534 22.0319 38.1801 22.2773C38.1958 22.4215 38.1477 22.5111 38.0197 22.5761C37.9022 22.6356 37.8148 22.6527 37.2967 22.7171C36.6397 22.7988 36.4127 22.8667 36.1765 23.0524C36.0969 23.115 36.049 23.1782 35.9876 23.3016C35.9091 23.4597 35.9054 23.4767 35.9048 23.6848C35.9039 24.0335 36.0031 24.2484 36.2509 24.4346C36.6938 24.7674 37.6442 24.7299 38.1281 24.3605L38.2284 24.2839L38.2409 24.3748C38.2478 24.4248 38.2634 24.4917 38.2755 24.5235L38.2976 24.5813H38.7749C39.0374 24.5813 39.252 24.5789 39.2518 24.5759C39.2517 24.5729 39.2303 24.5075 39.2043 24.4304C39.1587 24.2956 39.1565 24.2482 39.145 23.1484L39.1329 22.0065L39.0731 21.8853C38.9562 21.6485 38.685 21.4667 38.3203 21.3803C38.1968 21.351 38.0514 21.3407 37.7136 21.337C37.4693 21.3343 37.2401 21.3365 37.2044 21.3419ZM41.0723 21.3768C40.8336 21.458 40.6523 21.5864 40.5026 21.7802L40.4444 21.8556L40.4442 21.6348L40.4439 21.4139H40.0104H39.5769L39.5824 23.0353L39.588 24.6567L40.0365 24.6625L40.485 24.6683L40.4921 23.6283C40.499 22.6105 40.5003 22.585 40.5489 22.4407C40.6424 22.1634 40.8355 22.0382 41.1684 22.0392C41.3523 22.0398 41.4659 22.0849 41.5646 22.1967C41.7064 22.3573 41.7092 22.3831 41.7173 23.5847L41.7246 24.6675H42.1689H42.6131L42.6052 23.4339C42.5981 22.3319 42.5932 22.1867 42.559 22.0724C42.4023 21.5489 42.0754 21.3269 41.4632 21.3283C41.2625 21.3287 41.1854 21.3383 41.0723 21.3768ZM44.0085 21.3684C43.6165 21.4817 43.325 21.7256 43.1431 22.0926C42.927 22.5285 42.8859 23.1142 43.0354 23.6273C43.2237 24.274 43.7141 24.643 44.3877 24.6448C44.7628 24.6458 45.1615 24.4727 45.34 24.2313L45.4062 24.1418V24.4563C45.4062 24.8507 45.3678 24.9972 45.2224 25.158C45.0789 25.3167 44.9512 25.3659 44.6802 25.3669C44.5222 25.3675 44.4318 25.3567 44.3463 25.3271C44.2009 25.2768 44.0545 25.1376 44.0174 25.0142L43.9908 24.926H43.5283H43.0659V24.998C43.0659 25.1045 43.1428 25.3092 43.2308 25.4367C43.5052 25.8346 44.136 26.0515 44.8287 25.9861C45.3369 25.9382 45.6724 25.8055 45.9268 25.5518C46.0852 25.3939 46.1812 25.2294 46.2542 24.9905C46.3035 24.8293 46.3036 24.8267 46.311 23.1215L46.3184 21.4139H45.8623H45.4062V21.6206V21.8272L45.3225 21.722C45.1701 21.5302 45.0029 21.4221 44.7627 21.3599C44.5888 21.3148 44.1777 21.3195 44.0085 21.3684ZM47.8873 21.373C47.2777 21.5212 46.8308 21.9734 46.6821 22.5925C46.6433 22.7539 46.6383 22.8255 46.648 23.073C46.6609 23.4044 46.6937 23.5461 46.8149 23.7948C47.0112 24.1977 47.368 24.479 47.8439 24.6063C48.0898 24.6721 48.6333 24.6726 48.8761 24.6073C49.214 24.5163 49.5086 24.3236 49.6827 24.0796C49.7765 23.948 49.893 23.7341 49.9228 23.6386L49.9379 23.5901L49.5301 23.5907L49.1224 23.5913L49.0689 23.6775C48.9654 23.8443 48.7208 23.9705 48.4572 23.9931C47.9695 24.035 47.6412 23.7842 47.5836 23.3258L47.5681 23.2023H48.784H50V23.0327C50 22.514 49.7927 22.0114 49.452 21.7039C49.2916 21.5592 48.9975 21.4114 48.7714 21.3619C48.5479 21.313 48.1117 21.3184 47.8873 21.373ZM48.1876 21.9969C47.8763 22.0371 47.6392 22.2585 47.5832 22.5613L47.5682 22.6421H48.3171H49.0659L49.0322 22.529C48.9403 22.2207 48.773 22.0448 48.5363 22.0072C48.3732 21.9814 48.32 21.9798 48.1876 21.9969ZM44.4202 22.046C44.0674 22.1626 43.8889 22.4717 43.8896 22.9644C43.8902 23.3033 43.9703 23.5579 44.1311 23.7313C44.2815 23.8936 44.3594 23.9239 44.6275 23.924C44.8393 23.9241 44.866 23.9192 44.9838 23.8594C45.1376 23.7812 45.2725 23.6259 45.3421 23.4467C45.4083 23.2763 45.4259 22.8698 45.3762 22.6591C45.278 22.2422 45.0611 22.0432 44.686 22.0257C44.5729 22.0204 44.475 22.0279 44.4202 22.046ZM38.163 23.0444C38.1345 23.088 37.9522 23.1354 37.6378 23.1807C37.115 23.2562 36.923 23.3514 36.8698 23.5618C36.8214 23.7529 36.8881 23.92 37.0464 24.004C37.1296 24.0482 37.169 24.0534 37.4211 24.0534C37.6692 24.0534 37.7157 24.0475 37.8111 24.0038C38.0145 23.9107 38.1226 23.7689 38.1679 23.5357C38.1947 23.3984 38.1907 23.002 38.163 23.0444ZM28.5142 26.0087C28.5086 26.0236 28.5064 27.078 28.5095 28.3519L28.5151 30.6682L28.9971 30.674L29.4791 30.6798L29.4846 29.0375L29.4902 27.3952L30.0306 28.9455C30.3279 29.7982 30.5884 30.5372 30.6097 30.5879L30.6484 30.6799L31.0421 30.6741L31.4359 30.6682L32.0015 29.034L32.5672 27.3998L32.578 29.034L32.5889 30.6682L33.071 30.674L33.5531 30.6798V28.3308V25.9818H32.8282H32.1032L31.973 26.3858C31.9014 26.608 31.6693 27.3297 31.4574 27.9897C31.2454 28.6496 31.0661 29.1829 31.0589 29.1747C31.0517 29.1666 30.8139 28.4764 30.5305 27.6409C30.247 26.8054 30.0023 26.0903 29.9867 26.0518L29.9583 25.9818H29.2414C28.6879 25.9818 28.5222 25.9879 28.5142 26.0087ZM35.6117 27.3417C35.4108 27.3681 35.1315 27.4616 34.9668 27.5576C34.7715 27.6715 34.5322 27.9233 34.426 28.1269C34.2709 28.424 34.2357 28.5854 34.2358 28.9983C34.2359 29.4132 34.26 29.5297 34.4077 29.8279C34.6129 30.2422 34.979 30.5198 35.4629 30.628C35.7009 30.6812 36.1557 30.6753 36.381 30.6161C37.1097 30.4245 37.5367 29.889 37.5763 29.1168C37.605 28.5578 37.4448 28.1015 37.1017 27.7651C36.9837 27.6494 36.9064 27.5967 36.7318 27.513C36.6103 27.4549 36.4413 27.3921 36.3562 27.3735C36.1538 27.3294 35.8156 27.3149 35.6117 27.3417ZM39.572 27.3387C39.2926 27.3889 39.075 27.5106 38.8783 27.7268L38.7537 27.8637V27.6338V27.4039H38.3312H37.9086V29.0414V30.679H38.351H38.7934L38.8029 29.6609C38.811 28.7762 38.8172 28.626 38.8499 28.5141C38.8998 28.3437 38.9334 28.2826 39.027 28.1923C39.1281 28.0946 39.2733 28.0479 39.4758 28.0479C39.8309 28.0479 39.9833 28.2059 40.0315 28.624C40.0436 28.7292 40.0536 29.2345 40.0537 29.7471L40.0539 30.679H40.4995H40.9452L40.9372 29.467C40.9294 28.3019 40.9273 28.2484 40.882 28.0864C40.7741 27.7001 40.5621 27.4761 40.2133 27.38C40.048 27.3344 39.715 27.3129 39.572 27.3387ZM42.7205 27.3397C42.0275 27.436 41.5131 27.8789 41.3198 28.5458C41.2571 28.762 41.2618 29.2724 41.3285 29.5034C41.4831 30.0392 41.8648 30.4271 42.3968 30.5891C42.634 30.6613 42.9486 30.6883 43.211 30.6589C43.8253 30.5902 44.2117 30.337 44.4631 29.8386C44.5019 29.7616 44.5405 29.6768 44.5488 29.6501L44.564 29.6016H44.1557H43.7475L43.7061 29.6781C43.6531 29.7758 43.492 29.8935 43.3319 29.9514C43.2401 29.9845 43.1547 29.9967 43.0117 29.9971C42.6493 29.9979 42.4306 29.8866 42.309 29.6394C42.2512 29.5219 42.1991 29.3342 42.1991 29.2432C42.1991 29.2187 42.4024 29.2138 43.4126 29.2138H44.6261V29.0222C44.6261 28.2113 44.1579 27.5602 43.4464 27.382C43.2443 27.3314 42.9173 27.3123 42.7205 27.3397ZM44.6383 27.3658C44.6468 27.3926 44.9093 28.0837 45.2216 28.9014C45.5339 29.7191 45.795 30.4233 45.8019 30.4665C45.818 30.5679 45.785 30.7115 45.7269 30.7926C45.7017 30.8279 45.6371 30.8761 45.5834 30.8997C45.4953 30.9384 45.4585 30.9412 45.2076 30.9274L44.9294 30.9121V31.2683C44.9294 31.4926 44.9378 31.6296 44.9521 31.6384C44.9973 31.6662 45.6331 31.6757 45.7962 31.651C46.1291 31.6006 46.3997 31.4081 46.5407 31.1213C46.5908 31.0195 47.9177 27.539 47.9725 27.3657L47.988 27.3168L47.5185 27.3226L47.0491 27.3285L46.9227 27.7163C46.8532 27.9296 46.6918 28.4241 46.564 28.8152L46.3317 29.5262L45.961 28.4273L45.5903 27.3285L45.1066 27.3227L44.6229 27.3168L44.6383 27.3658ZM35.6767 28.0188C35.5201 28.0623 35.412 28.1356 35.3197 28.2607C35.0943 28.5662 35.0533 29.2068 35.2344 29.5916C35.312 29.7566 35.4189 29.8672 35.5616 29.9303C35.8669 30.0652 36.2181 30.0127 36.4253 29.8011C36.5975 29.6253 36.6728 29.3809 36.6728 28.9983C36.6728 28.5001 36.5285 28.1945 36.2288 28.0581C36.0812 27.9909 35.8392 27.9737 35.6767 28.0188ZM42.7654 28.0075C42.4814 28.0671 42.2612 28.2919 42.2115 28.5728L42.1971 28.6536H42.9461H43.6951L43.6806 28.5943C43.6052 28.2875 43.4741 28.1143 43.2602 28.0393C43.141 27.9974 42.8901 27.9813 42.7654 28.0075Z" fill="black"/>
<path d="M23.5358 19.1747C23.6409 19.1245 23.8041 19.0648 23.8986 19.0419C24.1094 18.991 24.4714 18.9857 24.6993 19.0302C25.1614 19.1205 25.6124 19.4486 25.8271 19.8507C26.0752 20.3151 26.0551 20.8792 25.7746 21.3295C25.7018 21.4464 25.108 22.0048 22.2165 24.6758C20.3076 26.4391 18.7458 27.8889 18.7458 27.8977C18.7458 27.9064 19.7447 27.9135 20.9655 27.9135C23.0835 27.9135 23.1933 27.9155 23.3622 27.9553C24.2152 28.1565 24.7593 28.9532 24.5872 29.7489C24.5395 29.9697 24.3858 30.2721 24.2381 30.4362C24.0119 30.6875 23.6753 30.8806 23.3302 30.9569C23.1375 30.9994 23.0597 31.0002 18.8043 31C15.2075 30.9998 14.4486 30.9947 14.3217 30.9699C13.7353 30.8552 13.271 30.4715 13.0657 29.9319L13 29.7592V25.6361V21.513L13.0621 21.345C13.2383 20.8686 13.6265 20.5102 14.1468 20.3438C14.3173 20.2893 14.3634 20.284 14.6617 20.2844C14.9532 20.2849 15.0101 20.2913 15.1771 20.3425C15.6971 20.5018 16.0704 20.8469 16.2684 21.3515L16.3232 21.4914L16.3299 23.5907C16.3335 24.7453 16.344 25.6901 16.3531 25.6901C16.3623 25.6901 17.9391 24.2447 19.8573 22.478C23.2726 19.3325 23.3488 19.2641 23.5358 19.1747Z" fill="#FF7900"/>
</svg>
