<svg width="50" height="50" viewBox="0 0 50 50" fill="none" xmlns="http://www.w3.org/2000/svg">
<g clip-path="url(#clip0_504_435)">
<path d="M18.1998 26.777C17.8975 26.679 17.3722 26.6582 16.926 26.6624C16.4955 26.6686 16.2975 26.6895 16.137 26.7249C16.137 26.7249 15.3718 26.8344 14.9361 27.3733C14.5004 27.9111 14.3712 29.088 14.3712 29.088C14.3712 29.088 14.1126 30.3899 14.1898 30.8246C14.2659 31.2572 14.4003 31.6616 14.8913 31.8493C15.3812 32.039 15.7982 32.0285 15.7982 32.0285C15.7982 32.0285 16.6748 32.0973 17.3347 31.941C17.9945 31.7846 18.3426 31.3208 18.3426 31.3208C18.3426 31.3208 18.499 31.1206 18.6095 30.883C18.72 30.6453 18.7554 30.4796 18.7596 30.4577L18.8284 30.1762L17.7068 30.1783C17.7068 30.1783 17.6463 30.9195 17.0397 30.9883C16.4351 31.057 16.1109 31.0299 15.9921 31.0258C15.8753 31.0206 15.227 31.0487 15.2791 30.5056C15.2791 30.4973 15.2791 30.4869 15.2822 30.4712C15.3114 29.8541 15.3791 29.6926 15.3791 29.6926L18.9024 29.6821L19.0525 28.8118C19.2276 27.8246 19.1036 27.072 18.2009 26.777H18.1998ZM17.9653 28.6877L15.5511 28.6846L15.646 28.302C15.646 28.302 15.7304 28.0008 15.8962 27.8747C16.0661 27.7475 16.2798 27.7245 16.4799 27.7058C16.68 27.687 17.2158 27.6474 17.6515 27.7371C17.7975 27.7662 17.934 27.8486 17.9705 27.9695C18.0549 28.2541 17.9653 28.6877 17.9653 28.6877Z" fill="#D13239"/>
<path d="M24.8484 26.7791C24.545 26.6822 24.0197 26.6603 23.5735 26.6655C23.143 26.6707 22.946 26.6926 22.7844 26.727C22.7844 26.727 22.0193 26.8375 21.5836 27.3754C21.1489 27.9143 21.0197 29.0911 21.0197 29.0911C21.0197 29.0911 20.7601 30.392 20.8373 30.8277C20.9134 31.2603 21.0478 31.6637 21.5388 31.8514C22.0297 32.0411 22.4467 32.0307 22.4467 32.0307C22.4467 32.0307 23.3223 32.0995 23.9832 31.9441C24.642 31.7878 24.9912 31.3239 24.9912 31.3239C24.9912 31.3239 25.1465 31.1227 25.257 30.8861C25.3685 30.6485 25.4029 30.4817 25.4081 30.4608L25.4759 30.1783L24.3553 30.1815C24.3553 30.1815 24.2938 30.9226 23.6871 30.9914C23.0826 31.0602 22.7584 31.0331 22.6395 31.031C22.5238 31.0258 21.8744 31.0519 21.9266 30.5109C21.9266 30.5025 21.9266 30.4921 21.9297 30.4765C21.9589 29.8594 22.0277 29.6978 22.0277 29.6978L25.5509 29.6874L25.701 28.817C25.8751 27.8267 25.7511 27.072 24.8484 26.7791ZM24.6024 28.6867L22.1882 28.6846L22.283 28.3021C22.283 28.3021 22.3675 28.0008 22.5332 27.8747C22.7 27.7475 22.9168 27.7246 23.117 27.7058C23.3181 27.687 23.8539 27.6474 24.2886 27.7371C24.4345 27.7663 24.5711 27.8486 24.6086 27.9695C24.692 28.251 24.6024 28.6877 24.6024 28.6877V28.6867Z" fill="#D13239"/>
<path fill-rule="evenodd" clip-rule="evenodd" d="M10.4738 26.7353L14.6016 26.7291L14.4505 27.6683L10.9992 30.9643L13.897 30.9591L13.7281 31.9733L9.46061 31.9754L9.6399 30.9278L12.9495 27.7589H10.3081L10.4738 26.7353ZM5.9582 25.1269C5.85501 25.0273 5.73217 24.9502 5.59754 24.9007C5.44181 24.8425 5.28091 24.7993 5.117 24.7715C4.93542 24.7396 4.75189 24.7201 4.56766 24.7131C4.43632 24.7079 4.35189 24.7079 4.35189 24.7079H1.20285L-6.10352e-05 31.9754H1.12363L1.56768 29.2839L3.74626 29.2944C3.74626 29.2944 4.59685 29.3288 5.1983 29.0098C5.8008 28.6898 5.96133 27.9643 5.96133 27.9643C5.96133 27.9643 6.027 27.6954 6.08225 27.368C6.14645 26.9729 6.20449 26.5767 6.25632 26.1797C6.25632 26.1797 6.273 26.1068 6.273 25.99C6.2786 25.7689 6.22766 25.5501 6.12498 25.3542C6.07993 25.2712 6.02383 25.1948 5.9582 25.1269ZM5.09302 26.4091C5.09302 26.4236 4.99295 27.0063 4.86057 27.6974C4.81054 27.9612 4.60727 28.104 4.37482 28.154C3.98914 28.2364 3.57531 28.2207 3.57531 28.2207L1.75531 28.2145L2.15559 25.8003L3.80568 25.8055C3.80568 25.8055 3.91617 25.8034 4.07149 25.8055C4.24869 25.8086 4.48323 25.8159 4.67607 25.843C4.84285 25.8639 4.97419 25.8983 5.01693 25.9504C5.06687 26.02 5.09581 26.1025 5.10032 26.1881C5.11074 26.3048 5.09302 26.4018 5.09302 26.4101V26.4091ZM20.1982 24.7079H21.2802L20.0689 31.9754L18.9849 31.9733L20.1982 24.7079ZM25.972 26.7353L27.0091 26.7322L27.3761 30.4212L28.973 26.727L30.253 26.7291L30.6304 30.4347L32.2242 26.7322H33.301L31.015 31.9702H29.7391L29.3701 28.302L27.7576 31.9702L26.5015 31.9754L25.972 26.7353Z" fill="#D13239"/>
<path fill-rule="evenodd" clip-rule="evenodd" d="M34.5466 26.7353L35.2409 30.5661L37.2005 26.7322L38.3044 26.7426L35.4775 32.2182C35.4775 32.2182 34.9667 33.2106 34.6488 33.4608C34.333 33.7109 34.138 33.8256 33.8785 33.8517C33.62 33.8777 33.5136 33.8965 33.2666 33.8517L33.0029 33.8047L33.1665 32.8249C33.1665 32.8249 33.6043 32.9073 33.8628 32.8041C34.1234 32.7009 34.3319 32.2579 34.3319 32.2579L34.4643 32.0358L33.4428 26.7322L34.5466 26.7343V26.7353Z" fill="#D13239"/>
<path fill-rule="evenodd" clip-rule="evenodd" d="M38.7057 27.2544L39.8419 27.2575L39.9118 26.8166C39.9118 26.8166 40.0327 26.0192 40.3047 25.8659C40.3913 25.8159 40.532 25.7721 40.6925 25.7419C40.9906 25.6898 41.368 25.6846 41.6765 25.695C42.1487 25.7106 42.3291 25.7158 42.8086 25.7711C43.2891 25.8263 43.1682 26.2912 43.1682 26.2912L43.0723 26.9855C43.0723 26.9855 43.0306 27.2961 42.9201 27.4889C42.8221 27.6609 42.5532 27.7766 42.3968 27.8267C42.0216 27.9486 40.7394 28.2749 40.7394 28.2749L39.7314 28.5668C39.7314 28.5668 39.1112 28.745 38.7662 29.1276C38.418 29.5132 38.2804 29.949 38.2325 30.1762C38.1856 30.4024 37.9198 31.9733 37.9198 31.9733L43.361 31.9754L43.5424 30.8882L39.2384 30.8934L39.3145 30.4503C39.3145 30.4503 39.3656 29.9938 39.5501 29.8437C39.6074 29.7957 39.6366 29.7321 39.9795 29.6112C40.1859 29.5372 40.8874 29.3506 40.8874 29.3506L42.5104 28.9066C42.5104 28.9066 43.3965 28.6793 43.7457 28.1936C44.0938 27.711 44.2283 26.7843 44.2283 26.7843C44.2283 26.7843 44.3231 25.8847 44.2491 25.6022C44.1782 25.3208 43.9124 24.982 43.5872 24.8371C43.263 24.6912 42.9253 24.6078 41.9455 24.6203C40.9667 24.6339 40.4809 24.6787 39.9858 24.8632C39.4896 25.0456 39.2019 25.3781 39.0195 25.8482C38.8214 26.2933 38.7057 27.2544 38.7057 27.2544ZM48.9503 29.2756L49.7123 24.7047H48.3613L44.1543 29.2235L43.9646 30.368H47.6442L47.3742 31.9733L48.5041 31.9754L48.7699 30.368L49.8123 30.3711L50 29.2766H48.9492L48.9503 29.2756ZM47.8255 29.2787L45.4479 29.2756L48.3426 26.1901L47.8255 29.2787ZM8.34424 25.3072H11.8091C11.8091 25.3072 12.5847 24.6787 13.1361 24.2753C13.6885 23.8708 14.6913 23.235 14.6913 23.235L12.7327 22.3198C12.7327 22.3198 11.0784 23.3434 10.3769 23.826C9.69517 24.2721 8.34424 25.3062 8.34424 25.3062V25.3072ZM15.7921 22.5887L14.1847 21.5067C14.1847 21.5067 15.6378 20.6811 17.5725 19.9098C19.504 19.1394 20.536 18.8174 20.536 18.8174L20.8633 20.3507C20.8633 20.3507 19.0026 20.974 17.9373 21.4775C16.8334 21.9466 15.791 22.5887 15.791 22.5887H15.7921ZM22.0505 20.0161L21.7712 18.4452C21.7712 18.4452 23.7559 17.9178 25.5717 17.58C27.3896 17.2423 29.7986 17.0807 29.7986 17.0807L29.0022 19.5064C29.0022 19.5064 26.883 19.2166 24.8931 19.4876C23.3441 19.6731 22.0505 20.0161 22.0505 20.0161ZM30.2635 19.7128L31.604 17.0182C31.604 17.0182 34.5414 16.9598 37.0744 17.3528C39.6074 17.7437 41.9246 18.3452 41.8746 18.3712L35.4514 21.7319C35.4514 21.7319 33.9504 20.7822 32.0866 20.1996C31.0317 19.8868 30.2624 19.7138 30.2624 19.7138L30.2635 19.7128ZM36.6022 22.4615L38.0136 23.5331H49.6174C49.6174 23.5331 49.5934 23.1578 49.2849 22.6262C49.092 22.2927 48.7408 21.9393 48.3749 21.5734C48.0368 21.2796 47.6795 21.0087 47.3054 20.7624C46.2818 20.0974 45.7095 19.842 44.6452 19.3584L36.6022 22.4626V22.4615Z" fill="#B3B2B1"/>
<path d="M9.09685 26.729C8.66113 26.729 8.24939 26.901 7.89811 27.0938L7.95856 26.729H6.80673L5.88318 31.9461H7.03918L7.55099 29.0566C7.65627 28.4708 8.09512 27.7453 8.94987 27.7453L9.54611 27.7422L9.7254 26.729H9.09789H9.09685Z" fill="#D13239"/>
</g>
<defs>
<clipPath id="clip0_504_435">
<rect width="50" height="50" fill="white"/>
</clipPath>
</defs>
</svg>
