<svg width="50" height="50" viewBox="0 0 50 50" fill="none" xmlns="http://www.w3.org/2000/svg">
<path fill-rule="evenodd" clip-rule="evenodd" d="M32.3513 37.1751C32.1805 38.3042 31.3279 38.3042 30.503 38.3042H30.0333L30.3623 36.197C30.3719 36.1352 30.4029 36.0789 30.4499 36.0383C30.4968 35.9976 30.5566 35.9751 30.6185 35.975H30.8345C31.3957 35.975 31.9269 35.975 32.1994 36.2985C32.3626 36.4926 32.4128 36.7793 32.3501 37.1738L32.3513 37.1751ZM31.9922 34.2319H28.8806C28.7777 34.2318 28.6782 34.2688 28.6 34.3362C28.5217 34.4037 28.4698 34.4971 28.4537 34.5998L27.1955 42.6607C27.1899 42.698 27.1923 42.7361 27.2026 42.7723C27.2129 42.8086 27.2308 42.8422 27.2551 42.8709C27.2795 42.8995 27.3096 42.9226 27.3435 42.9384C27.3774 42.9542 27.4143 42.9625 27.4517 42.9626H29.0476C29.197 42.9626 29.3239 42.8535 29.3465 42.7051L29.7031 40.4203C29.719 40.3174 29.7707 40.2236 29.849 40.1559C29.9273 40.0882 30.027 40.051 30.13 40.0511H31.1145C33.165 40.0511 34.3466 39.0489 34.6555 37.0634C34.7949 36.1944 34.6618 35.5119 34.2599 35.0336C33.8167 34.5084 33.0331 34.2306 31.9922 34.2306V34.2319Z" fill="#009EDD"/>
<path fill-rule="evenodd" clip-rule="evenodd" d="M10.1595 37.1752C9.98877 38.3042 9.13616 38.3042 8.31118 38.3042H7.84156L8.17054 36.197C8.17986 36.1352 8.21084 36.0788 8.25785 36.038C8.30486 35.9973 8.36477 35.9749 8.4267 35.975H8.64142C9.20397 35.975 9.73386 35.975 10.0076 36.2985C10.1708 36.4926 10.2211 36.7793 10.1583 37.1739L10.1595 37.1752ZM9.79916 34.2319H6.68884C6.58598 34.2319 6.48646 34.2689 6.4082 34.3363C6.32993 34.4038 6.27806 34.4972 6.26191 34.5998L5.00372 42.6607C4.99813 42.698 5.00056 42.7361 5.01086 42.7724C5.02115 42.8087 5.03906 42.8423 5.06337 42.871C5.08768 42.8996 5.11782 42.9226 5.15173 42.9385C5.18564 42.9543 5.22253 42.9625 5.25988 42.9627H6.74535C6.95882 42.9627 7.13838 42.8066 7.17228 42.5948L7.51131 40.4203C7.52719 40.3175 7.57895 40.2237 7.65724 40.156C7.73553 40.0883 7.83519 40.0511 7.93824 40.0512H8.9227C10.972 40.0512 12.1548 39.0489 12.4637 37.0635C12.6031 36.1945 12.47 35.512 12.0669 35.0337C11.6249 34.5085 10.8401 34.2319 9.79916 34.2319Z" fill="#1E3C85"/>
<path fill-rule="evenodd" clip-rule="evenodd" d="M17.0232 40.0688C16.965 40.4745 16.7619 40.8447 16.4522 41.1095C16.1424 41.3742 15.7475 41.5154 15.3418 41.5062C14.9099 41.5062 14.5633 41.3666 14.3411 41.1002C14.1213 40.8363 14.0384 40.4608 14.1075 40.0434C14.1642 39.6382 14.365 39.2677 14.6723 39.0011C14.9796 38.7345 15.3725 38.59 15.7776 38.5946C16.2007 38.5946 16.5435 38.7367 16.7708 39.0044C16.9993 39.2746 17.0885 39.6527 17.0232 40.0701V40.0688ZM19.1001 37.1383H17.6096C17.5477 37.1381 17.4878 37.1605 17.4407 37.2012C17.3937 37.242 17.3628 37.2984 17.3534 37.3603L17.2881 37.7815L17.1839 37.6292C16.8612 37.156 16.1417 36.9974 15.4247 36.9974C13.7785 36.9974 12.3734 38.2572 12.0984 40.0257C11.9565 40.9074 12.1587 41.7497 12.6534 42.3384C13.108 42.8776 13.7572 43.1034 14.5294 43.1034C15.8567 43.1034 16.5925 42.242 16.5925 42.242L16.5259 42.6606C16.5202 42.698 16.5224 42.7363 16.5326 42.7727C16.5428 42.8091 16.5607 42.8429 16.585 42.8717C16.6094 42.9005 16.6396 42.9236 16.6736 42.9395C16.7076 42.9554 16.7446 42.9637 16.7821 42.9638H18.1232C18.3366 42.9638 18.5175 42.8078 18.5501 42.5959L19.3562 37.4415C19.3621 37.4041 19.3598 37.3659 19.3496 37.3296C19.3394 37.2932 19.3215 37.2595 19.2971 37.2308C19.2728 37.2021 19.2425 37.1791 19.2085 37.1633C19.1745 37.1475 19.1375 37.1394 19.1001 37.1395V37.1383Z" fill="#1E3C85"/>
<path fill-rule="evenodd" clip-rule="evenodd" d="M39.2146 40.0688C39.1564 40.4745 38.9533 40.8447 38.6436 41.1095C38.3338 41.3742 37.9389 41.5154 37.5332 41.5062C37.1013 41.5062 36.7547 41.3666 36.5325 41.1002C36.3127 40.8363 36.2299 40.4608 36.3002 40.0434C36.3569 39.6382 36.5576 39.2677 36.865 39.0011C37.1723 38.7345 37.5652 38.59 37.9702 38.5946C38.3921 38.5946 38.7362 38.7367 38.9622 39.0044C39.1907 39.2746 39.2799 39.6527 39.2146 40.0701V40.0688ZM41.2915 37.1383H39.801C39.7391 37.1381 39.6792 37.1605 39.6321 37.2012C39.5851 37.242 39.5542 37.2984 39.5448 37.3603L39.4796 37.7815L39.3753 37.6292C39.0526 37.156 38.3331 36.9974 37.6161 36.9974C35.9699 36.9974 34.5648 38.2572 34.2898 40.0257C34.1479 40.9074 34.3501 41.7497 34.8448 42.3384C35.2994 42.8776 35.9486 43.1034 36.7208 43.1034C38.0481 43.1034 38.7839 42.242 38.7839 42.242L38.7174 42.6606C38.7116 42.698 38.7138 42.7363 38.724 42.7727C38.7342 42.8091 38.7521 42.8429 38.7765 42.8717C38.8008 42.9005 38.831 42.9236 38.865 42.9395C38.899 42.9554 38.936 42.9637 38.9735 42.9638H40.3158C40.528 42.9638 40.7089 42.8078 40.7428 42.5959L41.5464 37.4415C41.5522 37.4042 41.5499 37.3661 41.5398 37.3299C41.5297 37.2936 41.5119 37.26 41.4877 37.2313C41.4635 37.2026 41.4334 37.1795 41.3995 37.1637C41.3657 37.1479 41.3288 37.1396 41.2915 37.1395V37.1383Z" fill="#009EDD"/>
<path fill-rule="evenodd" clip-rule="evenodd" d="M27.0347 37.1395H25.5379C25.4675 37.1393 25.398 37.1566 25.3356 37.1898C25.2732 37.2229 25.2198 37.271 25.1801 37.3298L23.1145 40.405L22.2393 37.4503C22.2125 37.3604 22.1577 37.2815 22.0831 37.2255C22.0084 37.1695 21.9179 37.1394 21.8249 37.1395H20.352C20.3109 37.1398 20.2704 37.1499 20.2339 37.169C20.1974 37.1881 20.1659 37.2157 20.142 37.2495C20.1181 37.2833 20.1025 37.3224 20.0964 37.3634C20.0903 37.4045 20.094 37.4465 20.1071 37.4859L21.7558 42.3752L20.2051 44.5864C20.1778 44.6256 20.1617 44.6716 20.1584 44.7195C20.1552 44.7673 20.165 44.8151 20.1867 44.8577C20.2084 44.9003 20.2413 44.9361 20.2817 44.9612C20.3221 44.9862 20.3686 44.9997 20.416 45H21.9128C21.9826 45 22.0515 44.983 22.1134 44.9503C22.1752 44.9176 22.2284 44.8702 22.2682 44.8122L27.2482 37.5506C27.2749 37.5112 27.2905 37.4652 27.2932 37.4176C27.296 37.3699 27.2859 37.3224 27.2639 37.2801C27.242 37.2379 27.209 37.2024 27.1686 37.1777C27.1283 37.1529 27.082 37.1397 27.0347 37.1395Z" fill="#1E3C85"/>
<path fill-rule="evenodd" clip-rule="evenodd" d="M43.0469 34.4526L41.7699 42.6607C41.7641 42.6982 41.7664 42.7365 41.7767 42.773C41.787 42.8096 41.805 42.8434 41.8294 42.8722C41.8539 42.901 41.8843 42.9242 41.9184 42.94C41.9526 42.9558 41.9897 42.9639 42.0273 42.9639H43.3106C43.5241 42.9639 43.7049 42.8065 43.7376 42.5947L44.997 34.5338C45.0026 34.4965 45.0002 34.4584 44.9899 34.4221C44.9796 34.3858 44.9617 34.3522 44.9374 34.3236C44.9131 34.2949 44.8829 34.2719 44.849 34.2561C44.8151 34.2402 44.7782 34.232 44.7408 34.2319H43.3031C43.2414 34.232 43.1818 34.2542 43.1349 34.2947C43.0879 34.3351 43.0568 34.3911 43.0469 34.4526ZM34.7017 11.6261C35.0156 9.59626 34.6992 8.21599 33.613 6.96638C32.4176 5.58991 30.2566 5 27.4929 5H19.4691C19.1958 4.99992 18.9314 5.0984 18.7235 5.2777C18.5157 5.45701 18.378 5.70538 18.3352 5.97812L14.9951 27.3838C14.9795 27.483 14.9854 27.5845 15.0123 27.6813C15.0393 27.778 15.0867 27.8677 15.1512 27.9441C15.2158 28.0206 15.296 28.082 15.3863 28.1241C15.4767 28.1662 15.5749 28.188 15.6744 28.1881H20.6281L20.2853 30.3777C20.2717 30.4647 20.2769 30.5535 20.3005 30.6382C20.3242 30.7229 20.3657 30.8014 20.4223 30.8684C20.4788 30.9353 20.5491 30.989 20.6282 31.0259C20.7073 31.0627 20.7934 31.0818 20.8805 31.0818H25.0556C25.2948 31.0818 25.5261 30.9955 25.7079 30.8385C25.8898 30.6816 26.0102 30.4642 26.0476 30.2255L26.089 30.0098L26.8751 24.9721L26.9253 24.693C26.9627 24.4543 27.0831 24.2369 27.2649 24.08C27.4468 23.923 27.6781 23.8367 27.9173 23.8367H28.5426C32.5871 23.8367 35.7552 22.176 36.6794 17.3755C37.0674 15.3685 36.8678 13.6939 35.8444 12.5167C35.5205 12.1518 35.1332 11.85 34.7017 11.6261Z" fill="#009EDD"/>
<path fill-rule="evenodd" clip-rule="evenodd" d="M34.7017 11.6261C35.0156 9.59626 34.6992 8.21599 33.613 6.96638C32.4176 5.58991 30.2566 5 27.4929 5H19.4691C19.1958 4.99992 18.9314 5.0984 18.7235 5.2777C18.5157 5.45701 18.378 5.70538 18.3352 5.97812L14.9951 27.3838C14.9795 27.483 14.9854 27.5845 15.0123 27.6813C15.0393 27.778 15.0867 27.8677 15.1512 27.9441C15.2158 28.0206 15.296 28.082 15.3863 28.1241C15.4767 28.1662 15.5749 28.188 15.6744 28.1881H20.6281L21.8712 20.216L21.8335 20.4659C21.8752 20.1934 22.0121 19.9449 22.2194 19.7655C22.4267 19.5861 22.6907 19.4876 22.9636 19.4878H25.318C29.9414 19.4878 33.5616 17.5899 34.6188 12.1005C34.6502 11.9382 34.6778 11.7808 34.7017 11.6261Z" fill="#20274F"/>
<path fill-rule="evenodd" clip-rule="evenodd" d="M23.2085 11.6527C23.2459 11.414 23.3663 11.1967 23.5481 11.0397C23.73 10.8827 23.9613 10.7964 24.2005 10.7964H30.4902C31.2348 10.7964 31.9292 10.8459 32.5645 10.9486C32.9119 11.0061 33.2557 11.0836 33.5942 11.1808C33.9778 11.2897 34.349 11.4389 34.7017 11.6261C35.0156 9.59626 34.6992 8.21599 33.613 6.96638C32.4176 5.58991 30.2566 5 27.4929 5H19.4691C19.1958 4.99992 18.9314 5.0984 18.7235 5.2777C18.5157 5.45701 18.378 5.70538 18.3352 5.97812L14.9951 27.3838C14.9795 27.483 14.9854 27.5845 15.0123 27.6813C15.0393 27.778 15.0867 27.8677 15.1512 27.9441C15.2158 28.0206 15.296 28.082 15.3863 28.1241C15.4767 28.1662 15.5749 28.188 15.6744 28.1881H20.6281L23.2085 11.6527Z" fill="#1E3C85"/>
</svg>
