<svg width="50" height="50" viewBox="0 0 50 50" fill="none" xmlns="http://www.w3.org/2000/svg">
<g clip-path="url(#clip0_504_438)">
<path d="M2.86513 36.6582C2.85886 36.4575 2.76482 36.356 2.58175 36.3485H1.60748C1.37677 36.3623 1.25639 36.4889 1.25138 36.7271V38.4813C1.25765 38.7271 1.38931 38.8525 1.6451 38.8587H2.53912C2.58291 38.8597 2.62636 38.8509 2.66628 38.8329C2.7062 38.8149 2.74159 38.7881 2.76984 38.7547C2.80075 38.7303 2.82549 38.699 2.84204 38.6632C2.8586 38.6275 2.86651 38.5884 2.86513 38.549V36.6582ZM0 36.4086C0.00626943 35.9698 0.104073 35.6363 0.29341 35.4093C0.393721 35.3128 0.516601 35.2338 0.668322 35.1673C0.811341 35.1006 0.966934 35.0651 1.12474 35.0632H2.91403C3.70398 35.0695 4.10523 35.5021 4.11776 36.3585V38.9979C4.11552 39.1469 4.08276 39.2939 4.02151 39.4298C3.96026 39.5656 3.87183 39.6875 3.76166 39.7879C3.6563 39.8992 3.52963 39.9882 3.38918 40.0496C3.24874 40.111 3.09739 40.1435 2.94413 40.1452H1.25138V42.0486H0V36.4086ZM6.37727 38.6042C6.37695 38.6397 6.38607 38.6747 6.4037 38.7055C6.42132 38.7364 6.44682 38.762 6.47758 38.7797C6.54022 38.8335 6.6208 38.8617 6.70328 38.8587H7.66627C7.88319 38.8587 7.99604 38.7747 8.00231 38.6042V38.2456C8.00231 38.05 7.88695 37.9509 7.65623 37.9509H6.70328C6.57789 37.9509 6.49263 37.9722 6.44373 38.0111C6.39984 38.0575 6.37727 38.149 6.37727 38.2857V38.6042ZM8.00231 36.6268C8.00858 36.435 7.89698 36.3422 7.66501 36.3485H5.1447V35.0632H7.98224C8.80981 35.0758 9.22986 35.4758 9.24366 36.2645V38.954C9.24782 39.2645 9.13605 39.5654 8.93018 39.7979C8.82722 39.9116 8.70078 40.0015 8.55962 40.0615C8.41846 40.1215 8.26595 40.15 8.11265 40.1452H6.39608C5.56099 40.139 5.13843 39.7565 5.12464 38.9992V37.961C5.13091 37.1685 5.53591 36.766 6.33715 36.7522H8.00231V36.6268ZM12.7596 40.7621C12.8541 40.7579 12.9442 40.7206 13.0141 40.6568C13.0449 40.632 13.0698 40.6007 13.0871 40.5652C13.1045 40.5296 13.1138 40.4907 13.1144 40.4512V40.1452H11.5119C11.3038 40.1452 11.1358 40.1189 11.0104 40.0662C10.862 40.0055 10.728 39.9145 10.6167 39.7992C10.4973 39.6743 10.4042 39.5267 10.343 39.3651C10.2818 39.2036 10.2538 39.0314 10.2606 38.8587V35.0632H11.5119V38.4525C11.5119 38.7233 11.6235 38.8587 11.848 38.8587H12.732C12.8327 38.8606 12.9303 38.8233 13.0041 38.7547C13.0379 38.7303 13.0655 38.6983 13.0847 38.6613C13.1038 38.6242 13.114 38.5832 13.1144 38.5415V35.062H14.3558V40.6618C14.3495 41.0769 14.2429 41.4091 14.0385 41.6599C13.8304 41.912 13.5457 42.0411 13.1821 42.0474H10.2606V40.7609H12.7596V40.7621ZM15.3388 38.8587H17.5707C17.7738 38.8525 17.8792 38.771 17.8867 38.6142V38.4989C17.8854 38.4599 17.8751 38.4217 17.8566 38.3873C17.8065 38.2907 17.745 38.2418 17.6723 38.2418H16.5664C16.2528 38.2405 15.9516 38.1199 15.7237 37.9045C15.6118 37.8159 15.5208 37.7036 15.4573 37.5757C15.3938 37.4478 15.3593 37.3075 15.3564 37.1647V36.2055C15.3689 35.4569 15.7752 35.077 16.5764 35.0632H19.1632V36.3485H16.9714C16.7143 36.3485 16.5852 36.4275 16.5852 36.5854V36.7096C16.5852 36.8726 16.7168 36.9541 16.9814 36.9541H18.0836C18.2255 36.956 18.3655 36.987 18.4949 37.0452C18.6243 37.1035 18.7404 37.1877 18.8359 37.2926C19.0427 37.5039 19.1595 37.787 19.1619 38.0826V39.0192C19.1569 39.2826 19.034 39.5459 18.7995 39.8092C18.7043 39.9227 18.5853 40.0139 18.4509 40.0763C18.2912 40.1282 18.1235 40.1515 17.9557 40.1452H15.3388V38.8587ZM21.3048 38.6042C21.3046 38.6399 21.3139 38.6749 21.3318 38.7058C21.3496 38.7366 21.3754 38.7621 21.4064 38.7797C21.4689 38.8337 21.5495 38.8619 21.6321 38.8587H22.595C22.8132 38.8587 22.9248 38.7747 22.9311 38.6042V38.2456C22.9311 38.05 22.8157 37.9509 22.585 37.9509H21.6321C21.5067 37.9509 21.4214 37.9722 21.3725 38.0111C21.3286 38.0575 21.3048 38.149 21.3048 38.2857V38.6042ZM22.9311 36.6268C22.9374 36.435 22.8245 36.3422 22.5925 36.3485H20.0722V35.0632H22.9123C23.7386 35.0758 24.1586 35.4758 24.1712 36.2645V38.954C24.175 39.2645 24.0633 39.5652 23.8577 39.7979C23.7551 39.9117 23.6289 40.0017 23.4879 40.0617C23.3469 40.1217 23.1946 40.1502 23.0414 40.1452H21.3236C20.4898 40.139 20.066 39.7565 20.0547 38.9992V37.961C20.0597 37.1685 20.4634 36.766 21.2659 36.7522H22.9311V36.6268ZM25.1881 34.3347C25.1859 34.1752 25.2195 34.0172 25.2866 33.8724C25.3537 33.7277 25.4524 33.5998 25.5755 33.4984C25.8188 33.2865 26.1373 33.1774 26.5335 33.1724H27.3285V34.4137H26.847C26.5824 34.42 26.447 34.5466 26.4407 34.7899V35.0632H27.3285V36.3497H26.4407V40.1465H25.1893V34.3335L25.1881 34.3347ZM30.8883 36.603V36.5729C30.8885 36.5412 30.8812 36.5099 30.8671 36.4816C30.8529 36.4533 30.8322 36.4287 30.8068 36.4099C30.7434 36.3677 30.6684 36.3462 30.5923 36.3485H29.7209C29.6212 36.3436 29.5237 36.3778 29.4488 36.4438C29.4086 36.4682 29.3755 36.5027 29.3527 36.5438C29.3298 36.5849 29.318 36.6312 29.3184 36.6782V37.1936L30.8883 36.603ZM29.3384 38.4211V38.5014C29.3384 38.6042 29.3648 38.6857 29.42 38.7446C29.4588 38.8199 29.5115 38.8587 29.583 38.8587H32.1534V40.1452H29.42C29.1692 40.1452 28.9748 40.1227 28.8382 40.075C28.6875 40.0256 28.5499 39.9429 28.4357 39.833C28.3111 39.7178 28.2157 39.5747 28.1573 39.4155C28.0995 39.2237 28.0733 39.0238 28.0795 38.8236L28.0695 36.2494C28.0821 35.472 28.4896 35.0758 29.287 35.0632H30.9748C31.7547 35.0758 32.1497 35.4858 32.1622 36.2933V37.3102L29.3384 38.4211ZM34.8117 40.1452C34.6223 40.1452 34.448 40.1277 34.2926 40.0951C34.1104 40.0609 33.9396 39.9816 33.796 39.8644C33.636 39.731 33.5137 39.5581 33.4412 39.3628C33.3695 39.1634 33.3346 38.9527 33.3384 38.7409V36.3409C33.3321 36.1453 33.3509 35.9735 33.3973 35.8243C33.4487 35.6595 33.5391 35.5094 33.6606 35.3867C33.7913 35.2503 33.9537 35.1482 34.1333 35.0896C34.2913 35.0494 34.4694 35.0294 34.6687 35.0294H36.5872V35.3303H34.7126C34.3816 35.3303 34.122 35.398 33.9314 35.5347C33.7371 35.6826 33.638 35.9384 33.638 36.2996V38.7008C33.638 38.87 33.6631 39.0343 33.7158 39.1935C33.769 39.3505 33.8604 39.4918 33.9816 39.6048C34.0998 39.6993 34.2378 39.7657 34.3853 39.7992C34.5233 39.8305 34.6712 39.8443 34.8292 39.8443H36.6173V40.1452H34.8117ZM41.5212 37.0306H39.0059C38.705 37.0381 38.4693 37.1309 38.2987 37.3114C38.1232 37.4933 38.0354 37.7428 38.0354 38.06V38.8261C38.0354 38.9754 38.0517 39.1108 38.0831 39.2324C38.1206 39.3699 38.2037 39.4906 38.3188 39.5747C38.519 39.7482 38.7749 39.8439 39.0398 39.8443H40.5632C41.2002 39.838 41.5212 39.502 41.5212 38.8362V37.0306ZM41.8196 38.7609C41.8196 38.954 41.8058 39.1246 41.7808 39.2738C41.7344 39.4466 41.6486 39.6062 41.53 39.7402C41.2667 40.0173 40.9419 40.1528 40.5532 40.1452H39.0573C38.6686 40.1452 38.3552 40.0299 38.1106 39.7979C37.8611 39.5697 37.7345 39.2525 37.7345 38.8449V38.0713C37.747 37.1986 38.1821 36.7522 39.0385 36.7322H41.53V36.3936C41.5348 36.1289 41.4499 35.8704 41.2892 35.6601C41.2003 35.5335 41.0747 35.4372 40.9294 35.3842C40.7764 35.3464 40.6192 35.3283 40.4617 35.3303H37.7433V35.0294H40.32C40.5557 35.0294 40.7689 35.0457 40.962 35.0795C41.1716 35.1282 41.3562 35.2517 41.4811 35.4269C41.7118 35.724 41.8247 36.0676 41.8196 36.455V38.7622V38.7609ZM44.6334 35.3303C43.9349 35.3428 43.5926 35.724 43.6052 36.4726V40.1465H43.3042V36.4738C43.2917 35.5109 43.7494 35.0294 44.681 35.0294H45.0145V35.3303H44.6334ZM49.6991 35.3316H47.3292C47.1574 35.3316 47.0045 35.3516 46.8665 35.3867C46.7048 35.4299 46.5604 35.5219 46.4528 35.65C46.3416 35.7565 46.2599 35.89 46.2158 36.0375C46.1687 36.1887 46.1496 36.3472 46.1593 36.5052V38.8462C46.1593 39.2349 46.2722 39.5007 46.5004 39.6424C46.6133 39.7089 46.7374 39.7578 46.8766 39.7916C47.0145 39.8293 47.1687 39.8468 47.338 39.8468H48.375C48.7624 39.8468 49.0784 39.7565 49.3216 39.5772C49.5674 39.4092 49.6915 39.1183 49.6991 38.7033V35.3316ZM50 38.7233C49.9724 39.6926 49.4596 40.1678 48.4602 40.1477H47.3493C47.1375 40.1495 46.9262 40.1293 46.7186 40.0876C46.507 40.0247 46.3169 39.9045 46.1694 39.7402C46.0467 39.5975 45.9606 39.4271 45.9186 39.2437C45.8706 39.0605 45.8503 38.8711 45.8584 38.6819V36.4977C45.871 35.5134 46.3675 35.0244 47.3468 35.0306H49.6991V33.3717H50V38.7233Z" fill="#008DCF"/>
<path d="M19.4278 14.6888C19.7238 14.5584 20.0172 14.4569 20.3131 14.3942C20.5828 13.1131 21.2848 11.9638 22.3014 11.1391C23.3181 10.3143 24.5874 9.86421 25.8965 9.86435C27.2056 9.8645 28.4749 10.3149 29.4913 11.1399C30.5077 11.9649 31.2095 13.1143 31.4789 14.3954C32.3228 14.5559 33.0212 14.897 33.5642 15.4048C33.5868 14.9288 33.5679 14.4518 33.5077 13.9791C33.3375 12.0742 32.4608 10.3018 31.0501 9.01033C29.6394 7.71889 27.7967 7.0018 25.8841 7C21.7676 7 18.4172 10.2626 18.2429 14.3403C18.2178 14.6913 18.2116 15.0587 18.2241 15.4437C18.5702 15.1515 18.9639 14.8895 19.4278 14.6888Z" fill="#F80000"/>
<path d="M30.363 15.2681H21.192C20.7181 15.274 20.2509 15.3809 19.8215 15.5815C19.3676 15.7797 18.994 16.0204 18.6968 16.3063C18.1275 16.9897 17.8366 17.9903 17.8153 19.3068V26.4766C17.8366 27.7957 18.1275 28.795 18.6968 29.4746C18.9952 29.7655 19.3676 30.0063 19.8215 30.2056C20.293 30.4125 20.7494 30.5166 21.192 30.5166H30.363C32.7328 30.4953 33.9365 29.195 33.9742 26.627V19.1564C33.9365 16.5834 32.7328 15.2881 30.363 15.2693" fill="#F80000"/>
</g>
<defs>
<clipPath id="clip0_504_438">
<rect width="50" height="50" fill="white"/>
</clipPath>
</defs>
</svg>
