<svg width="50" height="50" viewBox="0 0 50 50" fill="none" xmlns="http://www.w3.org/2000/svg">
<path fill-rule="evenodd" clip-rule="evenodd" d="M25.5311 8.27901C23.1139 8.9742 21.0527 10.7422 19.9405 13.0742C19.3164 14.3828 19.0755 15.4518 19.0755 16.912C19.0755 18.4213 19.3178 19.4476 20.0255 20.9375C21.4487 23.9327 24.5997 25.8964 27.9628 25.884C30.5772 25.8743 32.485 25.0687 34.3585 23.1831C35.71 21.823 36.2643 20.8718 36.6976 19.17C37.5064 15.9931 36.6812 12.9773 34.3617 10.6328C33.1118 9.36942 31.884 8.63929 30.2945 8.21432C29.1309 7.90322 26.7239 7.93596 25.5311 8.27901ZM22.1939 17.2065V19.105H22.5836C22.9474 19.105 22.9734 19.0529 22.9734 18.3218V17.5386H23.5191C24.532 17.5386 25.0211 16.5762 24.3999 15.8053C24.171 15.5215 23.9125 15.4328 23.1526 15.3775L22.1939 15.308V17.2065ZM25.3393 15.708C24.9838 16.0884 24.9034 16.672 25.1522 17.0674C25.2693 17.2535 25.3387 17.2613 25.4928 17.1066C25.7249 16.8733 26.3905 16.8556 26.7155 17.074C26.9174 17.2098 26.9066 17.264 26.6375 17.4708C26.4566 17.6096 26.1947 17.6685 26.0138 17.6107C25.3995 17.4145 25.0886 17.4576 25.0305 17.7468C24.8473 18.6572 25.734 19.4486 26.5547 19.1071C27.1642 18.8535 27.4467 18.2693 27.2339 17.7031C27.1372 17.4459 27.1232 17.1684 27.2005 17.0459C27.4444 16.6593 27.3443 16.1197 26.9564 15.7301C26.4654 15.2367 25.7888 15.2275 25.3393 15.708ZM27.9628 17.2253V19.1259L28.3916 19.0762L28.8203 19.0267V17.2253V15.4239L28.3916 15.3744L27.9628 15.3247V17.2253ZM29.522 17.2253V19.105H29.9043C30.2643 19.105 30.2894 19.0479 30.3331 18.1301L30.3795 17.1553L30.8955 18.1301C31.315 18.923 31.4833 19.105 31.7968 19.105H32.1824L32.1386 17.2645L32.0946 15.4239H31.7048C31.325 15.4239 31.316 15.4497 31.3548 16.4421L31.3947 17.4603L30.8091 16.4043C30.3574 15.5896 30.1435 15.3481 29.8728 15.347C29.5284 15.3456 29.522 15.38 29.522 17.2253ZM32.4844 15.7372C32.4844 16.0505 32.5624 16.1288 32.8742 16.1288C33.2626 16.1288 33.264 16.134 33.264 17.6169C33.264 19.0999 33.2654 19.105 33.6538 19.105C34.0422 19.105 34.0436 19.0999 34.0436 17.6169C34.0436 16.134 34.045 16.1288 34.4334 16.1288C34.7452 16.1288 34.8232 16.0505 34.8232 15.7372C34.8232 15.3543 34.7971 15.3456 33.6538 15.3456C32.5104 15.3456 32.4844 15.3543 32.4844 15.7372ZM22.9734 16.5204C22.9734 16.9424 23.3846 17.0629 23.7097 16.7363C23.9732 16.4715 23.7683 16.1288 23.3465 16.1288C23.0525 16.1288 22.9734 16.2118 22.9734 16.5204ZM15.3904 20.4354C10.7235 21.4552 7.22701 25.0676 6.21121 29.919C5.71415 32.2923 6.09864 34.8901 7.3201 37.4126C7.92646 38.665 8.25825 39.117 9.46365 40.3334C11.4343 42.3218 13.1572 43.2418 15.9319 43.7868C17.3743 44.0701 18.4294 44.0709 19.8803 43.7901C22.371 43.3077 24.2208 42.3784 25.9834 40.7237C29.3838 37.5316 30.5863 32.9383 29.2009 28.4321L28.8985 27.4483L27.3001 27.369C24.3694 27.2236 21.9441 25.9929 19.9287 23.6282C19.5341 23.1651 18.9235 22.2046 18.572 21.4939L17.9331 20.2016L17.1401 20.2139C16.7038 20.2208 15.9165 20.3204 15.3904 20.4354ZM12.9004 30.3938C11.3763 30.8456 10.9575 32.7681 12.1535 33.8231C12.5848 34.2036 12.8357 34.2996 13.3976 34.2996C14.2757 34.2996 14.9454 33.9622 15.2529 33.3649C15.5257 32.8346 15.5624 31.9097 15.328 31.4696C15.1849 31.201 15.2203 31.1667 15.6399 31.1667H16.1131V32.2753C16.1131 33.2916 16.151 33.4219 16.5688 33.8417C17.1742 34.45 18.2167 34.4877 18.868 33.9249C19.2581 33.5878 19.3077 33.4307 19.3615 32.3584C19.4185 31.2229 19.4391 31.1667 19.7941 31.1667C20.226 31.1667 20.2156 31.1366 20.001 31.7549C19.7643 32.4366 20.0542 33.3931 20.6496 33.8965C21.2997 34.446 22.607 34.472 23.1947 33.9471C23.5556 33.6248 23.5694 33.5684 23.3554 33.2853C23.1587 33.0248 23.0732 33.0063 22.8158 33.1678C22.6476 33.2734 22.2674 33.3597 21.9709 33.3597C20.9744 33.3597 20.5662 32.1166 21.3574 31.4914C21.8716 31.0849 22.1249 31.0823 22.4639 31.48C22.6108 31.6523 22.8906 31.7933 23.086 31.7933C23.6294 31.7933 23.5834 30.9543 23.0196 30.5829C22.4502 30.2079 18.7738 30.0721 18.49 30.4156C18.3907 30.5357 18.2889 31.2297 18.2638 31.9577C18.219 33.251 18.2088 33.2825 17.8148 33.3285C17.2131 33.3987 17.0668 33.0876 17.0165 31.6288L16.9706 30.3051L15.1776 30.2777C14.1914 30.2627 13.1667 30.3148 12.9004 30.3938ZM7.84944 30.9317C7.84944 31.4121 7.89777 31.48 8.23923 31.48C8.45362 31.48 8.62903 31.4095 8.62903 31.3233C8.62903 31.2372 8.73427 31.1667 8.8629 31.1667C9.05515 31.1667 9.09678 31.4452 9.09678 32.7331V34.2996H9.56453H10.0323V32.7331C10.0323 31.4452 10.0739 31.1667 10.2662 31.1667C10.3948 31.1667 10.5 31.2372 10.5 31.3233C10.5 31.4095 10.6754 31.48 10.8898 31.48C11.2313 31.48 11.2796 31.4121 11.2796 30.9317V30.3835H9.56453H7.84944V30.9317ZM23.9089 30.7751C23.9089 30.9905 23.9791 31.1667 24.0649 31.1667C24.1584 31.1667 24.2208 31.7933 24.2208 32.7331V34.2996H24.6885C25.1458 34.2996 25.1563 34.2822 25.1563 33.5164V32.7331H25.8579H26.5595V33.5164C26.5595 34.2822 26.57 34.2996 27.0273 34.2996H27.495V32.7331C27.495 31.7933 27.5574 31.1667 27.651 31.1667C27.7367 31.1667 27.8069 30.9905 27.8069 30.7751C27.8069 30.4226 27.7445 30.3835 27.1832 30.3835H26.5595V31.1667V31.9499H25.8579H25.1563V31.1667V30.3835H24.5326C23.9713 30.3835 23.9089 30.4226 23.9089 30.7751ZM13.0727 31.3539C12.6383 31.6014 12.5321 31.7973 12.5293 32.3564C12.5235 33.542 14.1091 33.738 14.4697 32.5962C14.612 32.1457 14.2913 31.4911 13.8449 31.3205C13.3695 31.139 13.4565 31.1352 13.0727 31.3539Z" fill="#272A30"/>
</svg>
