<svg width="50" height="50" viewBox="0 0 50 50" fill="none" xmlns="http://www.w3.org/2000/svg">
<path d="M35.916 21.0763C36.4582 21.0782 36.9789 20.8648 37.3638 20.4828C37.7487 20.1009 37.9661 19.5818 37.9684 19.0396C37.9677 18.7708 37.9139 18.5047 37.8103 18.2567C37.7066 18.0086 37.5551 17.7834 37.3643 17.594C37.1735 17.4046 36.9473 17.2546 36.6985 17.1527C36.4498 17.0508 36.1834 16.9989 35.9145 17C35.6459 16.9993 35.3798 17.0514 35.1314 17.1535C34.8829 17.2556 34.657 17.4056 34.4666 17.595C34.2761 17.7844 34.1248 18.0095 34.0214 18.2573C33.9179 18.5052 33.8642 18.771 33.8635 19.0396C33.8654 19.5818 34.0825 20.1011 34.4671 20.4833C34.8517 20.8655 35.3723 21.0793 35.9145 21.0778L35.916 21.0763ZM20.1971 22.1777C20.1056 22.4094 19.439 24.2802 17.8271 26.2197V17.9283L13.532 18.7721V33.8002H17.8271V29.1546C19.0715 31.0097 19.6851 33.8002 19.6851 33.8002H24.8298C24.3206 31.6977 22.0951 27.8216 22.0951 27.8216C23.4171 26.1276 24.4371 24.2183 25.1101 22.1777H20.1985H20.1971ZM31.4892 22.0203C27.6417 22.1433 25.6894 23.8597 25.6894 27.2695V33.8002H29.8873V28.4738C29.8873 26.4328 30.1562 25.556 32.5934 25.473V22.0804C32.1829 21.9946 31.4892 22.0218 31.4892 22.0218V22.0203ZM6.32759 23.8325C5.80268 23.7982 4.58407 23.7209 4.58407 22.6311C4.58407 21.3152 6.3376 21.3152 6.99554 21.3152C8.15121 21.3152 9.65015 21.6556 10.7186 21.9731C10.7186 21.9731 11.3164 22.182 11.8242 22.3965L11.8714 22.4094V18.8079L11.8056 18.7893C10.5441 18.3502 9.07518 17.9283 6.35477 17.9283C1.66342 17.9283 0 20.6444 0 22.9715C0 24.3131 0.579266 27.4697 5.95286 27.8344C6.40769 27.8616 7.61628 27.9303 7.61628 29.0573C7.61628 29.987 6.62652 30.5348 4.96167 30.5348C3.36366 30.521 1.78159 30.2156 0.293209 29.6337V33.3425C1.90228 33.7616 3.71589 33.9718 5.84273 33.9718C10.4297 33.9718 12.485 31.4016 12.485 28.8542C12.485 25.9651 10.1851 24.09 6.32759 23.8339V23.8325ZM33.8349 33.8016H37.9985V22.1905H33.8363V33.8002L33.8349 33.8016ZM45.8379 18.6692V33.8016H50V17.9268L45.8379 18.6663V18.6692ZM39.762 18.6692L43.9213 17.9283V33.8002H39.762V18.6677V18.6692Z" fill="url(#paint0_linear_504_437)"/>
<defs>
<linearGradient id="paint0_linear_504_437" x1="13.522" y1="24.5083" x2="32.7712" y2="37.0189" gradientUnits="userSpaceOnUse">
<stop stop-color="#750D62"/>
<stop offset="1" stop-color="#52225E"/>
</linearGradient>
</defs>
</svg>
