<svg width="50" height="50" viewBox="0 0 50 50" fill="none" xmlns="http://www.w3.org/2000/svg">
<path d="M20.1875 19.2292L14.95 31.7229H11.5333L8.95625 21.7521C8.8 21.1375 8.66458 20.9125 8.1875 20.6542C7.41042 20.2333 6.12708 19.8375 5 19.5917L5.07708 19.2292H10.5771C11.2771 19.2292 11.9083 19.6958 12.0667 20.5042L13.4271 27.7333L16.7917 19.2292H20.1875ZM33.575 27.6438C33.5896 24.3458 29.0146 24.1646 29.0458 22.6917C29.0562 22.2438 29.4833 21.7667 30.4167 21.6458C30.8792 21.5854 32.1563 21.5396 33.6021 22.2042L34.1688 19.5542C33.3938 19.2708 32.3938 19 31.1479 19C27.9542 19 25.7042 20.6979 25.6854 23.1292C25.6646 24.9271 27.2896 25.9313 28.5146 26.5292C29.775 27.1417 30.1979 27.5354 30.1917 28.0813C30.1833 28.9187 29.1875 29.2896 28.2563 29.3042C26.6313 29.3292 25.6896 28.8646 24.9375 28.5146L24.3521 31.2521C25.1063 31.5979 26.5021 31.9 27.9458 31.9167C31.3438 31.9188 33.5646 30.2417 33.575 27.6438ZM42.0104 31.7229H45L42.3917 19.2292H39.6333C39.0125 19.2292 38.4896 19.5896 38.2583 20.1458L33.4083 31.7229H36.8021L37.475 29.8562H41.6229L42.0104 31.7229ZM38.4042 27.2958L40.1063 22.6042L41.0854 27.2958H38.4042ZM24.8063 19.2292L22.1333 31.7229H18.9L21.575 19.2292H24.8063Z" fill="#1434CB"/>
</svg>
