<svg width="50" height="50" viewBox="0 0 50 50" fill="none" xmlns="http://www.w3.org/2000/svg">
<path d="M36.25 6.25H13.75C9.60786 6.25 6.25 9.60786 6.25 13.75V36.25C6.25 40.3921 9.60786 43.75 13.75 43.75H36.25C40.3921 43.75 43.75 40.3921 43.75 36.25V13.75C43.75 9.60786 40.3921 6.25 36.25 6.25Z" fill="#1DC4FF"/>
<path d="M26.7018 39.5695C26.0123 39.5811 25.3228 39.5929 24.6357 39.6045C24.5962 37.8807 23.3105 36.5531 21.5937 36.5787C20.9788 36.5881 20.3686 36.8302 19.756 36.9677C19.3181 36.1129 18.8126 35.286 18.4608 34.3985C17.9903 33.2082 17.9623 31.9505 18.1511 30.6834C18.2488 30.0335 18.2955 29.3766 18.3491 28.7221C18.4398 27.6414 17.9111 26.84 17.1775 26.1226C16.2527 25.2165 15.321 24.3151 14.4358 23.3695C13.078 21.9206 13.2107 19.6961 14.6921 18.4057C15.3326 17.8491 15.6727 17.8187 16.3226 18.3499C17.1611 19.0346 17.9693 19.7544 18.794 20.4555C18.9383 20.5766 19.0967 20.6815 19.3786 20.8911C19.4835 20.2016 19.572 19.624 19.6605 19.0464C19.8957 17.481 20.0425 15.8947 20.3802 14.3505C20.902 11.9607 23.0868 10.3208 25.5931 10.2812C28.0505 10.2416 30.2633 11.8116 30.8736 14.1711C31.2066 15.4546 31.3441 16.7916 31.5327 18.11C32.0661 21.8019 32.5972 25.4937 33.091 29.1926C33.282 30.6227 33.5778 32.0482 33.2215 33.5134C32.9652 34.5639 32.5716 35.5282 31.9636 36.4157C31.8216 36.623 31.6935 36.8372 31.5583 37.0469C30.8642 36.6789 30.1422 36.5159 29.3456 36.5904C27.8827 36.7301 26.6412 38.1021 26.6995 39.5672L26.7018 39.5695ZM29.7228 29.3999C29.702 28.955 29.7136 28.5079 29.653 28.0676C29.4341 26.4371 28.9728 24.8997 27.8292 23.6512C27.0862 22.8407 26.1777 22.4377 25.076 22.666C24.1536 22.8594 23.5153 23.4836 22.9983 24.2242C22.2762 25.2539 21.8988 26.4207 21.7056 27.6552C21.3468 29.9542 21.6007 32.1625 22.7583 34.2099C23.2592 35.0974 23.9346 35.859 24.9805 36.1152C26.4246 36.4692 27.4565 35.7705 28.2415 34.6571C29.3502 33.0871 29.7322 31.2936 29.7228 29.3952V29.3999ZM22.9191 18.0401C23.6807 18.9112 24.6753 19.3375 25.8143 19.3025C26.8578 19.2699 27.7453 18.7994 28.4721 18.0447C26.6133 16.8754 24.7918 16.8545 22.9167 18.0401H22.9191ZM27.5055 14.446C27.0815 14.439 26.7181 14.8234 26.7181 15.2706C26.7181 15.6945 27.1117 16.1277 27.4915 16.1277C27.8921 16.1277 28.2601 15.7247 28.2671 15.2799C28.2741 14.814 27.941 14.4506 27.5031 14.4436L27.5055 14.446ZM23.8368 16.1277C24.2375 16.1207 24.5752 15.7201 24.5706 15.2589C24.5682 14.7907 24.2211 14.425 23.7972 14.439C23.3803 14.453 23.0286 14.856 23.0426 15.3009C23.0565 15.7387 23.4362 16.1347 23.8345 16.1277H23.8368Z" fill="#0A0E10"/>
<path d="M19.7557 36.9655C20.3684 36.828 20.9786 36.5857 21.5935 36.5765C23.3102 36.5532 24.596 37.8785 24.6356 39.6022C23.5431 39.6395 22.4484 39.6861 21.356 39.7093C20.5826 39.7256 19.8116 39.7116 19.0384 39.7093C18.4514 39.7093 18.1859 39.3926 18.4654 38.8545C18.817 38.1836 19.3179 37.5897 19.7557 36.9631V36.9655Z" fill="#EE8027"/>
<path d="M26.7016 39.5697C26.6433 38.1023 27.8848 36.7303 29.3477 36.5929C30.1442 36.516 30.8663 36.6814 31.5604 37.0494C32.1661 37.5549 32.6203 38.1558 32.7809 38.9502C32.8694 39.3834 32.6784 39.6838 32.2778 39.6908C30.5007 39.7234 28.7234 39.7072 26.9484 39.7024C26.8669 39.7024 26.7831 39.6163 26.7016 39.572V39.5697Z" fill="#EE8027"/>
<path d="M29.7229 29.4001C29.7297 31.2961 29.3501 33.0896 28.2414 34.6619C27.4564 35.7752 26.4246 36.4741 24.9804 36.12C23.9346 35.8639 23.2591 35.1021 22.7582 34.2147C21.6006 32.1672 21.3467 29.9591 21.7055 27.6601C21.8987 26.4256 22.2761 25.2586 22.9982 24.2291C23.5176 23.4884 24.1535 22.8619 25.0759 22.6709C26.18 22.4402 27.0884 22.8455 27.8291 23.6561C28.9727 24.9046 29.434 26.4442 29.6529 28.0724C29.7111 28.5102 29.7019 28.9599 29.7229 29.4047V29.4001Z" fill="#FEFEFE"/>
<path d="M22.919 18.0402C24.7941 16.8546 26.6133 16.8756 28.4744 18.0448C27.7476 18.7972 26.8601 19.27 25.8166 19.3026C24.6776 19.3376 23.683 18.9113 22.9214 18.0402H22.919Z" fill="#EE8027"/>
<path d="M27.5031 14.446C27.941 14.453 28.2741 14.8164 28.2671 15.2823C28.2601 15.7272 27.8921 16.1302 27.4915 16.1302C27.1117 16.1302 26.7181 15.6969 26.7181 15.273C26.7181 14.8234 27.0815 14.4414 27.5053 14.4484L27.5031 14.446Z" fill="#FEFEFE"/>
<path d="M23.8343 16.1279C23.436 16.1349 23.0563 15.7389 23.0423 15.301C23.0283 14.8561 23.3801 14.4531 23.7971 14.4391C24.221 14.4252 24.5681 14.7909 24.5703 15.2591C24.5727 15.7202 24.235 16.1186 23.8366 16.1279H23.8343Z" fill="#FEFEFE"/>
</svg>
