<svg width="20" height="20" viewBox="0 0 20 20" fill="none" xmlns="http://www.w3.org/2000/svg">
<path d="M20 10C20 8.77688 19.78 7.605 19.3781 6.52188L10 6.08688L0.621875 6.52188C0.22 7.605 0 8.77688 0 10C0 11.2231 0.22 12.395 0.621875 13.4781L10 13.9131L19.3781 13.4788C19.78 12.395 20 11.2231 20 10Z" fill="#0054BB"/>
<path d="M10 20C14.2994 20 17.965 17.2863 19.3781 13.4781H0.621887C2.03501 17.2863 5.70064 20 10 20Z" fill="#FF9100"/>
<path d="M0.621887 6.52188H19.3781C17.965 2.71375 14.2994 0 10 0C5.70064 0 2.03501 2.71375 0.621887 6.52188Z" fill="#EC0017"/>
</svg>
