<svg width="20" height="20" viewBox="0 0 20 20" fill="none" xmlns="http://www.w3.org/2000/svg">
<path d="M20 10C20 8.77688 19.78 7.605 19.3781 6.52188L10 6.08688L0.621875 6.52188C0.22 7.605 0 8.77688 0 10C0 11.2231 0.22 12.395 0.621875 13.4781L10 13.9131L19.3781 13.4788C19.78 12.395 20 11.2231 20 10Z" fill="#EC0017"/>
<path d="M10 20C14.2994 20 17.965 17.2863 19.3781 13.4781H0.621887C2.03501 17.2863 5.70064 20 10 20Z" fill="#5AA731"/>
<path d="M0.621887 6.52188H19.3781C17.965 2.71375 14.2994 0 10 0C5.70064 0 2.03501 2.71375 0.621887 6.52188Z" fill="#008CFB"/>
<path fill-rule="evenodd" clip-rule="evenodd" d="M7.57517 10.9905C7.98761 12.093 9.04041 12.8241 10.2175 12.8256C10.6867 12.8263 11.1486 12.7097 11.5612 12.4863C10.1952 13.8226 8.0069 13.8066 6.66059 12.4504C5.31427 11.0942 5.31427 8.90581 6.66059 7.54961C8.0069 6.1934 10.1952 6.17739 11.5612 7.51375C10.525 6.95535 9.2512 7.09795 8.36414 7.87167C7.47708 8.64539 7.16272 9.88804 7.57517 10.9905ZM12.7656 9.09687L12.3912 8.04375L12.0162 9.09625L11.0075 8.61625L11.4875 9.62562L10.4344 10L11.4875 10.375L11.0075 11.3837L12.0162 10.9031L12.3912 11.9569L12.7656 10.9031L13.7744 11.3837L13.2944 10.375L14.3481 10L13.2944 9.62625L13.7744 8.61687L12.7656 9.09687Z" fill="#F0F0F0"/>
</svg>
