<svg width="20" height="20" viewBox="0 0 20 20" fill="none" xmlns="http://www.w3.org/2000/svg">
<circle cx="10" cy="10" r="9.99875" fill="#F0F0F0"/>
<path d="M1.34126 5.00063C0.900619 5.76331 0.562495 6.58077 0.335632 7.43188L17.0575 17.0862C17.6811 16.4643 18.2197 15.7626 18.6594 14.9994L1.34126 5.00063Z" fill="black"/>
<path fill-rule="evenodd" clip-rule="evenodd" d="M2.94314 2.9144C6.06564 -0.198721 10.9988 -0.968721 14.9994 1.34128C19 3.65065 20.7994 8.30753 19.6644 12.5688L2.94314 2.9144ZM17.0569 17.0856C13.9344 20.1988 9.00126 20.9681 5.00064 18.6588C1.00001 16.3488 -0.799365 11.6919 0.33501 7.43188L17.0569 17.0856Z" fill="#FFD800"/>
<path fill-rule="evenodd" clip-rule="evenodd" d="M9.34812 5.6525H10.6519V6.95687H9.34812V5.6525ZM9.34812 8.5765C9.10004 8.52586 8.91374 8.30635 8.91374 8.04375C8.61374 8.04375 8.36999 7.8 8.36999 7.5H8.38812C8.08812 7.5 7.82687 7.25687 7.82687 6.95687H9.34812V8.5765ZM9.34812 11.6575V8.5765C9.38344 8.58371 9.42002 8.5875 9.45749 8.5875H10.5437C10.5808 8.5875 10.6169 8.58379 10.6519 8.57672V11.6579C10.2173 11.761 9.77099 11.7579 9.34812 11.6575ZM7.69891 12.6087C7.64803 12.5638 7.59816 12.5171 7.54936 12.4686C6.19338 11.1225 6.17748 8.93447 7.51374 7.56875C6.95538 8.60488 7.09793 9.87863 7.87153 10.7657C8.26792 11.2202 8.78743 11.5244 9.34812 11.6575V12.1737H10.6519V11.6579C10.7656 11.6309 10.8786 11.5967 10.9901 11.555C12.0925 11.1427 12.8239 10.0901 12.8256 8.91312C12.8256 8.42625 12.7025 7.96875 12.485 7.56875C13.8213 8.93447 13.8054 11.1225 12.4494 12.4686C12.4006 12.5171 12.3507 12.5638 12.2998 12.6087H7.69891ZM8.31323 13.0431C8.097 12.9231 7.89084 12.7783 7.69891 12.6087H6.95687V13.0431H6.08749V14.3469H8.69562V13.9125H11.3044V14.3469H13.9125V13.0431H13.0431V12.6087H12.2998C12.1079 12.7783 11.9017 12.9231 11.6855 13.0431H11.3044V13.2251C10.4696 13.5625 9.53047 13.5627 8.69562 13.2256V13.0431H8.31323ZM8.31323 13.0431C8.43763 13.1121 8.56535 13.173 8.69562 13.2256V13.9125H6.95687V13.0431H8.31323ZM11.3044 13.2251C11.4342 13.1726 11.5615 13.1119 11.6855 13.0431H13.0431V13.9125H11.3044V13.2251ZM10.6519 8.57672V6.95687H12.1737C12.1737 7.25687 11.9125 7.5 11.6125 7.5H11.6306C11.6306 7.80006 11.3876 8.0434 11.0875 8.04375C11.0875 8.30673 10.9002 8.52649 10.6519 8.57672Z" fill="#EC0017"/>
</svg>
