<svg width="20" height="20" viewBox="0 0 20 20" fill="none" xmlns="http://www.w3.org/2000/svg">
<path d="M17.0701 17.0701C13.1652 20.9756 6.83353 20.9756 2.92866 17.0701C-0.976219 13.1652 -0.976219 6.83352 2.92866 2.92865C3.23615 3.23614 10.9221 9.0772 10.9221 9.0772L17.0701 17.0701Z" fill="#0054BB"/>
<path d="M2.92929 2.92931C6.83416 -0.976192 13.1658 -0.976192 17.0713 2.92931C20.9762 6.83418 20.9762 13.1659 17.0713 17.0714" fill="#5AA731"/>
<ellipse cx="9.99966" cy="9.99967" rx="2.60867" ry="2.60867" fill="#FFD800"/>
<path d="M9.99968 11.739H10.869C10.869 11.739 11.2465 11.0721 10.869 10.434L11.7396 9.56469L11.3046 8.69534H10.8696C10.8696 8.69534 10.6522 9.34719 9.78343 9.34719C8.91346 9.34719 8.69659 8.69534 8.69659 8.69534H8.26161L8.69659 9.56469L8.26161 10.434L8.69659 10.8684C8.69659 10.8684 9.13158 9.99905 10.0009 10.434C9.99968 10.434 10.3697 10.9778 9.99968 11.739Z" fill="#5AA731"/>
<path fill-rule="evenodd" clip-rule="evenodd" d="M3.998 6.22544L3.72363 5.6517L3.44864 6.22544L2.82928 6.08232L3.10678 6.6548L2.60867 7.04979L3.22802 7.18978L3.22677 7.82601L3.72301 7.42852L4.21861 7.82601L4.21736 7.18978L4.83797 7.04979L4.33986 6.6548L4.61735 6.08232L3.998 6.22544ZM5.95293 8.69536L6.2273 9.26909L6.84728 9.12597L6.56979 9.69845L7.0679 10.0934L6.44729 10.2334L6.44917 10.869L5.95293 10.4716L5.4567 10.869L5.45857 10.2334L4.83859 10.0934L5.3367 9.69845L5.05921 9.12597L5.67919 9.26909L5.95293 8.69536ZM2.20305 10.1384L1.92869 9.56471L1.65245 10.1384L1.03309 9.99532L1.31058 10.5672L0.812474 10.9628L1.43308 11.1028L1.43183 11.7396L1.92806 11.3415L2.42367 11.7396L2.42242 11.1028L3.04303 10.9628L2.54492 10.5672L2.82241 9.99532L2.20305 10.1384ZM4.35924 11.304L4.57485 11.9684H5.27358L4.7086 12.3784L4.92422 13.0427L4.35924 12.6327L3.79363 13.0427L4.00925 12.3784L3.44489 11.9684H4.14299L4.35924 11.304ZM3.72363 14.3477L3.998 14.9214L4.61735 14.7783L4.33986 15.3501L4.83797 15.7458L4.21737 15.8858L4.21862 16.522L3.72301 16.1239L3.22677 16.522L3.22802 15.8858L2.60742 15.7458L3.10553 15.3501L2.82803 14.7783L3.44739 14.9214L3.72363 14.3477Z" fill="#F0F0F0"/>
<path d="M16.4901 5.47732C16.5107 5.37045 16.5213 5.26045 16.5213 5.14795C16.5213 4.37423 16.0164 3.71925 15.3183 3.49363C15.532 3.92737 15.6514 4.41485 15.6514 4.93046C15.6514 5.10483 15.6382 5.27545 15.6114 5.44169C15.5064 5.27232 15.3714 5.11733 15.207 4.98608C14.5864 4.49172 13.7371 4.4786 13.1096 4.89484C13.5939 5.00046 14.0627 5.21545 14.477 5.54544C14.8014 5.80356 15.0633 6.15292 15.2639 6.48979L12.609 7.32101C15.2176 7.75599 17.3913 6.01668 17.3913 6.01668C17.1494 5.53544 16.7757 5.45419 16.4901 5.47732Z" fill="#FFD800"/>
</svg>
