<svg width="20" height="20" viewBox="0 0 20 20" fill="none" xmlns="http://www.w3.org/2000/svg">
<circle cx="9.99985" cy="10.0002" r="9.99985" fill="#F0F0F0"/>
<path fill-rule="evenodd" clip-rule="evenodd" d="M19.916 8.69575H11.3047V0.0846331C10.4388 -0.028211 9.56189 -0.028211 8.69597 0.0846331V8.69575H0.0846928C-0.0282309 9.56166 -0.0282309 10.4386 0.0846928 11.3045H8.69597V19.9156C9.56197 20.0273 10.4387 20.0273 11.3047 19.9156V11.3045H19.916C20.0276 10.4385 20.0276 9.56174 19.916 8.69575ZM15.2179 13.9132V12.6089H13.9135V13.9132H12.6091V15.2176H13.9135V16.5219H15.2179V15.2176H16.5222V13.9132H15.2179ZM6.08721 12.6089V13.9132H7.39159V15.2176H6.08721V16.5219H4.78283V15.2176H3.47845V13.9132H4.78283V12.6089H6.08721ZM15.2179 4.78274V3.47838H13.9135V4.78274H12.6091V6.08709H13.9135V7.39145H15.2179V6.08709H16.5222V4.78274H15.2179ZM6.08721 3.47838V4.78274H7.39159V6.08709H6.08721V7.39145H4.78283V6.08709H3.47845V4.78274H4.78283V3.47838H6.08721Z" fill="#EC0017"/>
</svg>
