<svg width="20" height="20" viewBox="0 0 20 20" fill="none" xmlns="http://www.w3.org/2000/svg">
<circle cx="10" cy="10" r="10" fill="#EC0017"/>
<path fill-rule="evenodd" clip-rule="evenodd" d="M11.0325 7.56499C10.9149 8.05354 10.7502 8.24141 10.5911 8.42282C10.4425 8.59232 10.2988 8.75618 10.2031 9.15437C9.03573 8.87374 8.31687 7.69988 8.5975 6.53249C8.87813 5.3651 10.052 4.64624 11.2194 4.92687C10.988 5.88788 11.0319 6.33759 11.0685 6.713C11.0947 6.98165 11.1172 7.21226 11.0325 7.56499ZM10.5956 12.5769C10.4034 12.1123 10.4263 11.8635 10.4483 11.6233C10.469 11.3988 10.4889 11.1818 10.3319 10.8031C11.4316 10.3851 12.6643 10.9173 13.1142 12.0043C13.5642 13.0913 13.0683 14.339 11.995 14.8206C11.617 13.908 11.3173 13.5698 11.0672 13.2876C10.8881 13.0854 10.7344 12.912 10.5956 12.5769ZM8.68347 8.95056C8.56011 8.74313 8.43243 8.52845 8.00375 8.26562C7.69427 8.07607 7.46788 8.02607 7.20422 7.96783C6.83584 7.88647 6.3947 7.78903 5.5525 7.27249C4.92479 8.29594 5.24561 9.63447 6.26906 10.2622C7.29251 10.8899 8.63104 10.5691 9.25875 9.54562C8.90998 9.3314 8.7986 9.14413 8.68347 8.95056ZM7.73375 11.3631C8.11606 11.0367 8.35968 10.9817 8.59499 10.9285C8.81475 10.8789 9.02726 10.8309 9.33875 10.565C9.71308 11.0035 9.89783 11.5727 9.85235 12.1474C9.80687 12.7221 9.53488 13.2552 9.09625 13.6294C8.65786 14.0038 8.08867 14.1886 7.51395 14.1433C6.93923 14.0979 6.40609 13.826 6.03187 13.3875C6.78279 12.7461 7.0118 12.3566 7.20286 12.0317C7.33986 11.7986 7.45734 11.5988 7.73375 11.3631ZM11.6821 10.0748C11.9039 10.1701 12.1336 10.2688 12.635 10.2294C12.997 10.2012 13.2093 10.1086 13.457 10.0006C13.8024 9.84998 14.2166 9.6694 15.2012 9.59186C15.1405 8.8176 14.6713 8.13456 13.9704 7.80003C13.2695 7.46549 12.4434 7.5303 11.8032 7.97003C11.1631 8.40975 10.8061 9.1576 10.8669 9.93186C11.2748 9.89988 11.475 9.98589 11.6821 10.0748Z" fill="#F0F0F0"/>
</svg>
