<svg width="20" height="20" viewBox="0 0 20 20" fill="none" xmlns="http://www.w3.org/2000/svg">
<mask id="mask0_219_122136" style="mask-type:alpha" maskUnits="userSpaceOnUse" x="0" y="0" width="20" height="20">
<path d="M10 0C15.5228 0 20 4.47716 20 10C20 15.5228 15.5228 20 10 20C4.47715 20 0 15.5228 0 10C0 4.47716 4.47715 0 10 0Z" fill="white"/>
</mask>
<g mask="url(#mask0_219_122136)">
<path fill-rule="evenodd" clip-rule="evenodd" d="M-0.869568 -0.869568H20.8696V20.8696H-0.869568V-0.869568Z" fill="#EC0017"/>
</g>
<mask id="mask1_219_122136" style="mask-type:alpha" maskUnits="userSpaceOnUse" x="5" y="5" width="10" height="10">
<path d="M11.5113 5.34814L11.7856 7.54002L13.9563 7.1244L12.8925 9.06002L14.89 10L12.8919 10.94L13.9563 12.8756L11.7856 12.46L11.5113 14.6525L10 13.04L8.48875 14.6519L8.21375 12.4594L6.04375 12.8756L7.10813 10.94L5.10938 10L7.1075 9.06002L6.04375 7.1244L8.21375 7.54002L8.48875 5.34814L10 6.96002L11.5113 5.34814Z" fill="white"/>
</mask>
<g mask="url(#mask1_219_122136)">
<path fill-rule="evenodd" clip-rule="evenodd" d="M4.23981 4.47858H15.7596V15.5221H4.23981V4.47858Z" fill="#FFD800"/>
</g>
<mask id="mask2_219_122136" style="mask-type:alpha" maskUnits="userSpaceOnUse" x="6" y="6" width="8" height="8">
<path d="M10 6.95691C11.6807 6.95691 13.0431 8.31936 13.0431 10C13.0431 11.6807 11.6807 13.0432 10 13.0432C8.31933 13.0432 6.95688 11.6807 6.95688 10C6.95688 8.31936 8.31933 6.95691 10 6.95691Z" fill="white"/>
</mask>
<g mask="url(#mask2_219_122136)">
<path fill-rule="evenodd" clip-rule="evenodd" d="M6.08731 6.08734H13.9127V13.9127H6.08731V6.08734Z" fill="#EC0017"/>
</g>
<mask id="mask3_219_122136" style="mask-type:alpha" maskUnits="userSpaceOnUse" x="8" y="8" width="4" height="4">
<path d="M9.99999 10.6238C10.2845 10.9017 10.4869 11.2527 10.585 11.6382C10.2067 11.7732 9.79331 11.7732 9.41499 11.6382C9.51374 11.253 9.71606 10.9022 9.99999 10.6238ZM8.47812 10C8.74375 9.99998 9.00712 10.0489 9.25499 10.1444C9.00002 10.4294 8.80075 10.7597 8.6675 11.1181C8.40652 10.8082 8.26253 10.4165 8.26062 10.0113C8.3325 10.0038 8.40437 10 8.47812 10ZM11.5692 10.001L11.7381 10.0113C11.735 10.4319 11.5831 10.8182 11.3312 11.1181C11.1975 10.7563 10.9962 10.4269 10.7431 10.1444C10.9543 10.0635 11.1761 10.0163 11.4005 10.0038L11.5692 10.001ZM9.99999 8.2605C10.6215 8.2605 11.1958 8.59225 11.5062 9.13065C10.9771 9.1331 10.4578 9.27402 9.99999 9.5394C9.55625 9.28253 9.04187 9.13315 8.49374 9.13065C8.80422 8.59225 9.37848 8.2605 9.99999 8.2605Z" fill="white"/>
</mask>
<g mask="url(#mask3_219_122136)">
<path fill-rule="evenodd" clip-rule="evenodd" d="M7.39105 7.39093H12.6077V12.6427H7.39105V7.39093Z" fill="#FFD800"/>
</g>
</svg>
