<svg width="20" height="20" viewBox="0 0 20 20" fill="none" xmlns="http://www.w3.org/2000/svg">
<circle cx="9.99998" cy="9.99998" r="9.99998" fill="#F0F0F0"/>
<path fill-rule="evenodd" clip-rule="evenodd" d="M2.41937 3.47813C4.25312 1.34875 6.96874 5.40431e-06 9.99998 5.40431e-06C12.9135 -0.00302385 15.6827 1.26756 17.5806 3.47813H2.41937ZM9.99998 20C6.96874 20 4.25312 18.6512 2.41937 16.5219H17.5806C15.7468 18.6512 13.0312 20 9.99998 20Z" fill="#0054BB"/>
<path d="M18.5325 4.78246H1.46813C0.5054 6.35227 -0.00282947 8.15845 1.18485e-05 9.99996C1.18485e-05 11.9118 0.536886 13.6987 1.46813 15.2174H18.5331C19.495 13.6473 20.0027 11.8413 20 9.99996C20.0027 8.15855 19.4947 6.35246 18.5325 4.78246Z" fill="#EC0017"/>
<ellipse cx="6.15248" cy="10" rx="3.84749" ry="3.84749" fill="#F0F0F0"/>
<path d="M6.1525 6.15252L7.01562 8.80939H9.81437L7.54937 10.4519L8.41937 13.1169L6.1525 11.4663L3.88875 13.1138L4.75563 10.4519L2.49313 8.80939H5.28938L6.1525 6.15252V6.15252Z" fill="#EC0017"/>
</svg>
