<svg width="20" height="20" viewBox="0 0 20 20" fill="none" xmlns="http://www.w3.org/2000/svg">
<circle cx="10" cy="10" r="10" fill="#008CFB"/>
<path d="M15.6519 10.1088H4.34811C4.34811 10.8894 5.02749 11.5219 5.80811 11.5219H5.76061C5.76045 11.8967 5.90928 12.2563 6.17433 12.5213C6.43937 12.7864 6.7989 12.9352 7.17374 12.935C7.17357 13.3099 7.32238 13.6695 7.58741 13.9346C7.85244 14.1998 8.21197 14.3488 8.58686 14.3488H11.4125C11.7874 14.3488 12.1469 14.1998 12.4119 13.9346C12.677 13.6695 12.8258 13.3099 12.8256 12.935C13.2005 12.9352 13.5601 12.7864 13.8252 12.5213C14.0904 12.2563 14.2394 11.8968 14.2394 11.5219H14.1919C14.9725 11.5219 15.6519 10.8894 15.6519 10.1088Z" fill="#FFD800"/>
<path d="M13.9131 8.26062C13.9131 9.65865 13.1673 10.9505 11.9566 11.6495C10.7458 12.3485 9.25417 12.3485 8.04345 11.6495C6.83272 10.9505 6.08688 9.65865 6.08688 8.26062" fill="#008CFB"/>
<path d="M12.9888 8.26061L11.7675 8.83498L12.4181 10.0181L11.0919 9.76436L10.9238 11.1044L10 10.1187L9.07626 11.1044L8.90814 9.76436L7.58189 10.0181L8.23251 8.83561L7.01126 8.26123L8.23251 7.68686L7.58189 6.50373L8.90814 6.75748L9.07626 5.41748L10 6.40311L10.9244 5.41748L11.0925 6.75748L12.4188 6.50373L11.7681 7.68686L12.9888 8.26061Z" fill="#FFD800"/>
</svg>
