<svg width="20" height="20" viewBox="0 0 20 20" fill="none" xmlns="http://www.w3.org/2000/svg">
<mask id="mask0_219_122135" style="mask-type:alpha" maskUnits="userSpaceOnUse" x="0" y="0" width="20" height="20">
<path d="M10 0C15.5228 0 20 4.47716 20 10C20 15.5228 15.5228 20 10 20C4.47715 20 0 15.5228 0 10C0 4.47716 4.47715 0 10 0Z" fill="white"/>
</mask>
<g mask="url(#mask0_219_122135)">
<path fill-rule="evenodd" clip-rule="evenodd" d="M-0.869568 -0.869568H20.8696V20.8696H-0.869568V-0.869568Z" fill="#F0F0F0"/>
</g>
<mask id="mask1_219_122135" style="mask-type:alpha" maskUnits="userSpaceOnUse" x="0" y="0" width="20" height="20">
<path d="M12.1878 19.76L12.1658 19.7648L12.1322 19.7722L12.1124 19.7765L12.0507 19.7895L12.0209 19.7957L11.9774 19.8043L11.9492 19.8102L11.935 19.8129L11.9261 19.8148L11.827 19.8335L11.807 19.8374L11.8209 19.8348L11.8061 19.8374L11.7186 19.8529L11.713 19.8539L11.5487 19.8809L11.4288 19.8987L11.2998 19.9163L11.2417 19.9243L11.2244 19.9261L11.1815 19.931C11.1363 19.9363 11.091 19.9413 11.0456 19.946L11.1704 19.9322L11.0246 19.9482L10.9522 19.9557L10.9256 19.9577L10.9087 19.96L10.8957 19.9609L10.9035 19.96H10.9087L10.9139 19.9591L10.9522 19.9557L11.0191 19.9487L10.9139 19.9591L10.9035 19.96L10.8896 19.9617L10.8452 19.9652L10.7983 19.9687L10.7557 19.9722L10.5703 19.984L10.7096 19.9757L10.6754 19.9776L10.5459 19.9854L10.2757 19.9963L10 20C9.81238 20 9.62595 19.9948 9.44087 19.9846L9.45235 19.9853C9.36632 19.9806 9.28057 19.9749 9.19513 19.9681L9.24957 19.9722L9.14435 19.9643L9.11653 19.9617L9.09827 19.96L9.10261 19.9609L9.11653 19.9617L9.12197 19.962L9.10261 19.9609L9.08261 19.9591L9.0743 19.9577L9.05131 19.9557L9.00261 19.9513L8.97697 19.9483L8.91131 19.9417L8.81497 19.9305L8.6974 19.9165L8.81827 19.9313L8.70691 19.9172L8.63305 19.9078L8.56683 19.8981L8.53653 19.8939L8.49914 19.8887L8.43276 19.8779C8.38322 19.8701 8.33381 19.8619 8.28451 19.8534L8.2774 19.853H8.27914L8.24957 19.8478L8.17897 19.8346C8.14386 19.8281 8.10881 19.8215 8.07382 19.8147L8.06435 19.813L7.89131 19.7774L7.84533 19.7673L7.86463 19.7715L7.83392 19.7652L7.65392 19.7235L7.57066 19.7029C7.11059 19.588 6.66331 19.4414 6.23111 19.2654L6.13044 19.2243L6.01954 19.1764L5.91044 19.1287L5.90088 19.1243L5.79392 19.0757L5.89721 19.1223C5.82781 19.091 5.75884 19.059 5.69029 19.0262L5.79129 19.0738L5.66647 19.0148L5.66435 19.0148L5.58261 18.9748L5.58001 18.973L5.47574 18.9204L5.5426 18.9541L5.44175 18.9035L5.36112 18.8612L5.34266 18.8515L5.24737 18.8006L5.20088 18.7757L5.15139 18.748L5.10783 18.7237L5.05606 18.6944L4.94522 18.6304L5.00348 18.6643L4.94409 18.6296C4.90691 18.6078 4.8699 18.5857 4.83303 18.5634L4.83312 18.5635C4.54463 18.389 4.26575 18.2005 3.99736 17.9987C3.79198 17.8444 3.59264 17.6822 3.39987 17.5128L3.34539 17.4645C3.25136 17.3806 3.15889 17.2949 3.06806 17.2075L2.88245 17.0244L2.70957 16.8452L2.68175 16.8157L2.62038 16.7486L2.56435 16.687L2.61914 16.7487L2.56407 16.6864L2.54609 16.667L2.54348 16.6643L2.4917 16.6051L2.49168 16.6053C2.29415 16.3807 2.10649 16.1474 1.92943 15.9059L1.92036 15.8937C1.86982 15.8246 1.82015 15.7548 1.77136 15.6843L1.6584 15.5172C1.47783 15.2447 1.31024 14.9629 1.15654 14.6726L1.15646 14.6731C1.10002 14.5658 1.04537 14.4579 0.992645 14.3489H19.0074C18.9985 14.3672 18.9896 14.3855 18.9807 14.4037L18.9108 14.5426C18.8979 14.5679 18.8849 14.5931 18.8718 14.6182L18.8502 14.6598L18.8426 14.673L18.8113 14.7322L18.7504 14.8439L18.7878 14.7762L18.7307 14.8797L18.687 14.9565L18.6844 14.9609L18.6723 14.9824L18.6056 15.0965L18.56 15.1722L18.5174 15.2417L18.5375 15.2097C18.4967 15.2763 18.4552 15.3424 18.413 15.4079L18.4261 15.3861L18.3565 15.4947C18.1092 15.8698 17.8374 16.2274 17.5433 16.5651L17.6162 16.4805L17.5366 16.5729L17.5078 16.6052L17.507 16.6061L17.4591 16.66L17.4559 16.6642L17.453 16.667L17.3776 16.7507C17.3514 16.7794 17.3249 16.8079 17.2984 16.8363L17.3626 16.7671L17.29 16.8451L17.2167 16.9224C17.1236 17.0194 17.0287 17.1145 16.9318 17.2076C16.8236 17.3118 16.7129 17.4136 16.5999 17.5129L16.6546 17.4645C16.6005 17.5128 16.5458 17.5605 16.4906 17.6077L16.4902 17.608C16.3322 17.743 16.1694 17.8735 16.0026 17.9988C15.7137 18.2159 15.4127 18.4178 15.1007 18.6031L15.0563 18.6295L15.0539 18.6304L14.9965 18.6643L14.8916 18.724L14.847 18.7487L14.7748 18.7887L14.6571 18.8517L14.7533 18.8004C14.6776 18.8413 14.6014 18.8813 14.5246 18.9204L14.5574 18.9035L14.4574 18.9541C14.3752 18.9951 14.2924 19.035 14.209 19.0737L14.2052 19.0756C14.1361 19.1076 14.0627 19.1406 13.9889 19.1728L13.9887 19.173L13.7549 19.2711L13.5574 19.3487L13.5148 19.365L13.4783 19.3783L13.3669 19.419C13.3164 19.4371 13.2657 19.4548 13.2148 19.4721L13.2146 19.4722L12.9473 19.5586L12.7035 19.6304L12.8343 19.5927C12.749 19.6179 12.6632 19.642 12.5769 19.6649L12.6767 19.6377L12.5589 19.6696L12.4565 19.6965L12.3574 19.7209L12.336 19.7257L12.3036 19.7334L12.2678 19.7417L12.2245 19.7517L12.207 19.7557L12.1817 19.7617L12.1878 19.76L12.207 19.7557L12.2678 19.7417L12.1878 19.76ZM8.30088 0.144348L8.43292 0.122075L8.49914 0.112174L8.53653 0.106957L8.56689 0.101921L8.63305 0.0930435L8.70672 0.0828604L8.81827 0.0695652L8.6974 0.0843478L8.81525 0.0694488L8.85305 0.0652174L8.91305 0.0591304L8.97674 0.0517127L9.03218 0.0469565L9.07455 0.0422542L9.08522 0.0417391L9.10349 0.04L9.09827 0.0408696L9.08522 0.0417391L9.04348 0.046087L9.03218 0.0469565L8.98001 0.0521739L9.04348 0.046087L9.09827 0.0408696L9.11479 0.0391304L9.14435 0.0365217L9.24783 0.0286957L9.195 0.0319315L9.32338 0.0225303L9.45235 0.0147419L9.72431 0.00372695L10 0L10.2757 0.00372695C10.3741 0.00638903 10.4721 0.0104711 10.5697 0.0159533L10.5459 0.0146481L10.6756 0.022463L10.7139 0.0252174L10.7452 0.0278261L10.8049 0.031921L10.7791 0.0304348L10.8357 0.0347826L10.8565 0.0365217L10.8826 0.0391304L10.9035 0.0408696L10.8965 0.04L10.8826 0.0391304L10.8782 0.038016L10.8965 0.04L10.913 0.0417391L10.9257 0.0422772L10.9548 0.0452174L10.9165 0.0417391H10.913L10.9035 0.0408696L10.9165 0.0417391L11.0461 0.0540615L11.182 0.0691199L11.2026 0.0721739L11.2435 0.0773913L11.2994 0.0836245C11.3424 0.089209 11.3854 0.0950673 11.4282 0.101197L11.3226 0.0869565L11.4293 0.101369C11.4665 0.106702 11.5037 0.112241 11.5409 0.117984L11.4339 0.102609L11.5461 0.11913L11.56 0.121739L11.5565 0.12087L11.5461 0.11913L11.5409 0.117984L11.5565 0.12087L11.6609 0.138261L11.6113 0.129565L11.663 0.13765L11.713 0.146957L11.7189 0.147131L11.8026 0.162609L11.8061 0.163478H11.807L11.813 0.164348L11.8272 0.16651L11.9209 0.185217L11.9492 0.189856L11.9583 0.192174L12.0505 0.210377L12.1531 0.233043L12.1817 0.23913L12.2026 0.244348L12.2248 0.248388L12.2913 0.264348L12.2226 0.248696L12.2026 0.244348L12.1844 0.24L12.2226 0.248696L12.3364 0.274423L12.3791 0.285217L12.4565 0.304348L12.5588 0.330296C12.5982 0.340695 12.6375 0.351329 12.6767 0.362195L12.5771 0.335217L12.7062 0.370493L12.8009 0.398261L12.8346 0.407446L12.9253 0.434591L12.926 0.434864L13.2239 0.530972L13.4887 0.626087L13.5146 0.635066L13.6313 0.679633L13.8671 0.775157L13.9887 0.827027L14.0896 0.872174L14.0992 0.875945L14.2052 0.925217L14.3097 0.973772L14.209 0.926154L14.3252 0.981739L14.333 0.985217L14.3348 0.986087L14.4165 1.02609L14.5243 1.07958L14.5574 1.09739L14.6389 1.13877C14.677 1.15873 14.7149 1.17894 14.7526 1.19938L14.7754 1.21164L14.8478 1.25217L14.944 1.30564L15.0548 1.37043L14.9965 1.33652L15.0559 1.37041L15.1671 1.43653C15.4554 1.61097 15.7343 1.79952 16.0027 2.00126C16.2081 2.1556 16.4074 2.31777 16.6001 2.48725L16.6546 2.5355C16.7486 2.61943 16.8411 2.70511 16.932 2.79248C17.0572 2.91293 17.1793 3.03674 17.2983 3.16366L17.3775 3.24924L17.38 3.25217L17.453 3.33391L17.4558 3.33574L17.4591 3.34087L17.507 3.39478L17.5365 3.42783L17.6162 3.5195C17.9048 3.85847 18.1711 4.2167 18.4129 4.59216L18.3565 4.50526C18.404 4.57738 18.4506 4.65015 18.4963 4.72356L18.4129 4.59216C18.4551 4.65773 18.4966 4.72383 18.5373 4.79043L18.5603 4.82792L18.6052 4.90435L18.5591 4.8287L18.6231 4.93312L18.6635 5.00435L18.6876 5.04412L18.7304 5.12087L18.7876 5.22389L18.812 5.26851L18.8718 5.38178C18.9185 5.47083 18.9636 5.56057 19.0074 5.65106H0.992645L1.08723 5.46072L1.18562 5.27229C1.33139 5.00166 1.48919 4.73812 1.6584 4.4828L1.77136 4.31573C1.86894 4.17477 1.97004 4.03644 2.07454 3.90087L2.21808 3.7192C2.32235 3.59017 2.42976 3.46379 2.5402 3.34017L2.54609 3.33391L2.56406 3.31344L2.61914 3.25217L2.56435 3.31391L2.62041 3.25146L2.68175 3.18522L2.78335 3.07756C2.87629 2.98061 2.97127 2.88552 3.06811 2.79236C3.17641 2.68825 3.28711 2.58643 3.40006 2.48712L3.34539 2.5355C3.39954 2.48719 3.45422 2.43946 3.50941 2.39233L3.50985 2.392C3.6679 2.25699 3.83066 2.12653 3.99746 2.00116C4.19 1.85645 4.38798 1.7185 4.59102 1.58768L4.87479 1.41217L4.94389 1.37052L4.94522 1.37043L5.00261 1.33652L5.01131 1.3313L5.01305 1.33043L5.02088 1.32609L5.10839 1.27602L5.15218 1.25217L5.2252 1.21141C5.2643 1.19013 5.30355 1.1691 5.34296 1.14832L5.24692 1.19962C5.32258 1.15867 5.39883 1.11866 5.47565 1.07962L5.44246 1.09658L5.5087 1.06348L5.56696 1.03391L5.66635 0.985264C5.70775 0.965322 5.74932 0.945658 5.79104 0.926272L5.69049 0.973676C5.75905 0.940881 5.82805 0.908845 5.89747 0.877578L5.91131 0.872174L6.01955 0.823575L6.08522 0.795652L6.23135 0.73447L6.14247 0.771159L6.25447 0.725091L6.36735 0.680263C6.67639 0.55971 6.99302 0.454054 7.31627 0.364218L7.62088 0.285217L7.66348 0.274783L7.69653 0.266957L7.6687 0.273913L7.83392 0.235652L7.72783 0.26L7.75282 0.253496L7.84549 0.23268L7.89827 0.221739L8.03343 0.193312L8.17479 0.166957L8.0745 0.18521L8.19305 0.163478L8.2174 0.15913L8.28488 0.146517L8.22348 0.158261L8.30088 0.144348Z" fill="white"/>
</mask>
<g mask="url(#mask1_219_122135)">
<path fill-rule="evenodd" clip-rule="evenodd" d="M0.122314 -0.869568H19.8771V20.8696H0.122314V-0.869568Z" fill="#EC0017"/>
</g>
<mask id="mask2_219_122135" style="mask-type:alpha" maskUnits="userSpaceOnUse" x="7" y="6" width="6" height="8">
<path d="M10 6.95624L12.6088 11.7394H10.6513V13.0431H9.34751V11.7394H7.39127L10 6.95624Z" fill="white"/>
</mask>
<g mask="url(#mask2_219_122135)">
<path fill-rule="evenodd" clip-rule="evenodd" d="M6.5217 6.08667H13.4783V13.9127H6.5217V6.08667Z" fill="#5AA731"/>
</g>
</svg>
