<svg width="20" height="20" viewBox="0 0 20 20" fill="none" xmlns="http://www.w3.org/2000/svg">
<path d="M10 20C11.2231 20 12.395 19.78 13.4781 19.3781L13.9131 10L13.4781 0.621875C12.395 0.22 11.2231 0 10 0C8.77688 0 7.60501 0.22 6.52188 0.621875L6.08688 10L6.52126 19.3781C7.60501 19.78 8.77688 20 10 20Z" fill="#0054BB"/>
<path fill-rule="evenodd" clip-rule="evenodd" d="M6.52188 19.3781C2.71375 17.965 0 14.2994 0 10C0 5.70064 2.71375 2.03501 6.52188 0.621887V19.3781ZM20 10C20 14.2994 17.2863 17.965 13.4781 19.3781V0.621887C17.2863 2.03501 20 5.70064 20 10Z" fill="#B20013"/>
<path fill-rule="evenodd" clip-rule="evenodd" d="M2.17376 10H1.30438V13.4781H2.17376V10ZM5.65188 10H4.78251V13.4781H5.65188V10Z" fill="#FFD800"/>
<ellipse cx="3.47812" cy="11.3044" rx="0.87" ry="0.87" fill="#FFD800"/>
<ellipse cx="3.47812" cy="8.26123" rx="0.435" ry="0.435" fill="#FFD800"/>
<path fill-rule="evenodd" clip-rule="evenodd" d="M3.78624 6.16565L3.47811 5.21753L3.16999 6.16565H2.17374L2.97999 6.75128L2.67186 7.69878L3.47811 7.11315L4.28436 7.69878L3.97624 6.75128L4.78249 6.16565H3.78624ZM2.60874 9.13066H4.34811V10H2.60874V9.13066ZM2.60874 12.6088H4.34811V13.4788H2.60874V12.6088Z" fill="#FFD800"/>
</svg>
