<svg width="20" height="20" viewBox="0 0 20 20" fill="none" xmlns="http://www.w3.org/2000/svg">
<circle cx="10" cy="10" r="10" fill="#F0F0F0"/>
<path d="M19.9412 11.0869L8.97437 0.0518799C8.47937 0.102505 7.99562 0.188755 7.525 0.308755C3.19937 1.41 0 10 0 10C0 10 14 19.3688 15.5969 18.2875C15.916 18.0716 16.2225 17.8377 16.515 17.5869L10.0156 11.0869H19.9412Z" fill="#0054BB"/>
<path d="M17.3912 10L7.66562 0.274414C3.26875 1.32629 0 5.28129 0 10C0 15.5225 4.4775 20 10 20C12.0152 20.0033 13.9839 19.3946 15.6456 18.2544L7.39125 10H17.3912Z" fill="#EC0017"/>
<path fill-rule="evenodd" clip-rule="evenodd" d="M8.68061 5.54627L7.79249 5.12877L8.26561 4.26877L7.30124 4.45315L7.17874 3.47815L6.50686 4.1944L5.83499 3.47815L5.71249 4.45315L4.74811 4.26815L5.22124 5.12815L4.33311 5.54627H3.91311C3.91311 6.98705 5.08109 8.15503 6.52186 8.15503C7.96263 8.15503 9.13061 6.98705 9.13061 5.54627H8.68061ZM9.51061 14.7656L8.28936 14.1906L8.93999 13.0075L7.61374 13.2613L7.44561 11.9213L6.52186 12.9069L5.59811 11.9213L5.42999 13.2613L4.10374 13.0075L4.75436 14.1906L3.53311 14.7656L4.75436 15.3394L4.10374 16.5225L5.42999 16.2694L5.59811 17.6094L6.52186 16.6244L7.44561 17.6094L7.61374 16.2694L8.93999 16.5225L8.28936 15.34L9.51061 14.7656Z" fill="#F0F0F0"/>
</svg>
