<svg width="20" height="20" viewBox="0 0 20 20" fill="none" xmlns="http://www.w3.org/2000/svg">
<circle cx="10" cy="10" r="10" fill="#F0F0F0"/>
<path fill-rule="evenodd" clip-rule="evenodd" d="M6.20412e-05 9.958C0.00503234 8.75003 0.224573 7.59256 0.621851 6.52183H5.21748V13.9044L0.621851 13.4781C0.222408 12.4015 0.00264537 11.2373 0 10.0222C0.00821942 13.8028 2.11542 17.0914 5.21748 18.7843V13.9044L9.99998 14.3481L19.3781 13.4781C19.78 12.395 20 11.2231 20 9.99995C20 8.77683 19.78 7.60495 19.3781 6.52183H5.21748V1.21558C2.12082 2.90556 0.0155625 6.18562 6.20412e-05 9.958Z" fill="#EC0017"/>
<path d="M10 20C14.2994 20 17.965 17.2863 19.3781 13.4781H0.621887C2.03501 17.2863 5.70064 20 10 20Z" fill="#5AA731"/>
<path d="M0 9.99998C0 14.6206 3.13375 18.5081 7.39125 19.6556V0.34436C3.13375 1.49186 0 5.37936 0 9.99998Z" fill="#EC0017"/>
<path d="M6.11814 4.40065L5.19564 3.47815L4.58064 4.09315L3.96564 3.47815L3.04376 4.40065L3.65876 5.01565L3.04376 5.63065L3.96626 6.55315L4.58064 5.93752L5.19564 6.55252L6.11814 5.63002L5.50314 5.01565L6.11814 4.40065Z" fill="#F0F0F0"/>
</svg>
