<svg width="20" height="20" viewBox="0 0 20 20" fill="none" xmlns="http://www.w3.org/2000/svg">
<circle cx="10" cy="10" r="10" fill="#F0F0F0"/>
<path d="M9.99999 0V10L2.92874 17.0713C4.80238 18.9493 7.34716 20.0033 9.99999 20C15.5225 20 20 15.5225 20 10L9.99999 0Z" fill="#EC0017"/>
<path d="M9.99999 7.56661e-06C7.34716 -0.0032582 4.80238 1.05073 2.92874 2.92876L9.99999 10H20C20 4.47751 15.5225 7.56661e-06 9.99999 7.56661e-06Z" fill="#0054BB"/>
<path fill-rule="evenodd" clip-rule="evenodd" d="M3.07313 4.48121L2.66688 3.91309L2.66126 4.61184L1.99563 4.82246L2.65813 5.04309L2.65313 5.74184L3.06813 5.17996L3.73063 5.39996L3.32438 4.83184L3.73876 4.27059L3.07313 4.48121ZM6.84751 9.99996L5.62626 9.42559L6.27689 8.24246L4.95001 8.49621L4.78189 7.15621L3.85814 8.14184L2.93439 7.15621L2.76626 8.49621L1.44001 8.24246L2.09063 9.42559L0.869385 9.99996L2.09063 10.5743L1.44001 11.7575L2.76626 11.5043L2.93439 12.8437L3.85814 11.8587L4.78189 12.8437L4.95001 11.5043L6.27626 11.7575L5.62564 10.5743L6.84751 9.99996ZM8.05751 9.65371L8.46376 9.08559L8.47063 9.78309L9.13626 9.99371L8.47376 10.2143L8.47876 10.9131L8.06376 10.3512L7.40064 10.5725L7.80689 10.0043L7.39189 9.44246L8.05751 9.65371ZM3.07313 14.8262L2.66688 14.2581L2.66126 14.9568L1.99563 15.1675L2.65813 15.3881L2.65313 16.0868L3.06813 15.525L3.73001 15.745L3.32376 15.1768L3.73876 14.615L3.07313 14.8262Z" fill="#FFD800"/>
</svg>
