<svg width="20" height="20" viewBox="0 0 20 20" fill="none" xmlns="http://www.w3.org/2000/svg">
<circle cx="10" cy="10" r="10" fill="#F0F0F0"/>
<path d="M0 10C0 4.4775 4.4775 0 10 0C15.5225 0 20 4.4775 20 10" fill="#EC0017"/>
<path fill-rule="evenodd" clip-rule="evenodd" d="M8.47813 2.24497C7.08195 2.5514 6.08711 3.78806 6.08688 5.21747C6.08746 6.64701 7.08202 7.88384 8.47813 8.19122C7.57779 8.38862 6.6365 8.16741 5.91834 7.58965C5.20017 7.01189 4.7825 6.13981 4.7825 5.21809C4.7825 4.29637 5.20017 3.4243 5.91834 2.84654C6.6365 2.26877 7.57779 2.04756 8.47813 2.24497ZM10.2156 3.05559L10 2.39122L9.785 3.05559H9.08625L9.65125 3.46622L9.435 4.13059L10 3.71997L10.5656 4.13059L10.3494 3.46622L10.9144 3.05559H10.2156ZM11.2581 6.31622L11.0425 5.65184L10.8275 6.31622H10.1288L10.6944 6.72684L10.4781 7.39122L11.0431 6.98059L11.6081 7.39122L11.3919 6.72684L11.9569 6.31622H11.2581ZM11.6944 3.69559L11.9106 4.35997H12.6088L12.0438 4.77059L12.26 5.43497L11.695 5.02434L11.13 5.43497L11.3463 4.77059L10.7813 4.35997H11.4794L11.6944 3.69559ZM8.95813 5.65184L9.17375 6.31622H9.8725L9.3075 6.72684L9.52375 7.39122L8.95875 6.98059L8.39375 7.39122L8.60938 6.72684L8.04438 6.31622H8.74313L8.95813 5.65184ZM8.52125 4.35997L8.30563 3.69559L8.09125 4.35997H7.3925L7.9575 4.77059L7.74125 5.43497L8.30625 5.02434L8.87125 5.43497L8.655 4.77059L9.22 4.35997H8.52125Z" fill="#F0F0F0"/>
</svg>
