<svg width="20" height="20" viewBox="0 0 20 20" fill="none" xmlns="http://www.w3.org/2000/svg">
<circle cx="10" cy="10" r="10" fill="#F0F0F0"/>
<path d="M10 20C14.2994 20 17.965 17.2863 19.3781 13.4781H0.621887C2.03501 17.2863 5.70064 20 10 20Z" fill="black"/>
<path fill-rule="evenodd" clip-rule="evenodd" d="M6.51436 9.26939L5.97499 7.60876L5.43561 9.26939H3.68936L5.10186 10.2956L4.56249 11.9569L5.97499 10.93L7.38749 11.9569L6.84811 10.2956L8.26061 9.26939H6.51436ZM14.5637 9.26939L14.0244 7.60876L13.4837 9.26939H11.7381L13.1506 10.2956L12.6112 11.9569L14.0237 10.93L15.4369 11.9569L14.8975 10.2956L16.3106 9.26939H14.5637Z" fill="#5AA731"/>
<path d="M10 0C5.70064 0 2.03501 2.71375 0.621887 6.52188H19.3781C17.965 2.71375 14.2994 0 10 0Z" fill="#EC0017"/>
</svg>
