<svg width="20" height="20" viewBox="0 0 20 20" fill="none" xmlns="http://www.w3.org/2000/svg">
<path d="M0.991875 5.65185C0.35625 6.96685 0 8.44185 0 9.99997C0 11.5581 0.35625 13.0337 0.991875 14.3481L10 15.2175L19.0075 14.3481C19.6437 13.0337 20 11.5581 20 9.99997C20 8.44185 19.6437 6.96685 19.0075 5.65185L10 4.78247L0.991875 5.65185Z" fill="#F0F0F0"/>
<path d="M0.992493 14.3481C2.60999 17.6931 6.03562 20 9.99999 20C13.965 20 17.39 17.6931 19.0075 14.3481H0.992493Z" fill="#5AA731"/>
<path fill-rule="evenodd" clip-rule="evenodd" d="M10.1619 7.67183L9.99999 7.17371L9.83812 7.67183H9.31437L9.73812 7.97996L9.57624 8.47808L9.99999 8.16996L10.4231 8.47808L10.2612 7.97996L10.6856 7.67183H10.1619ZM11.6306 8.32433L11.7925 7.82621L11.9544 8.32433H12.4781L12.0544 8.63246L12.2162 9.13058L11.7925 8.82246L11.3681 9.13058L11.5306 8.63246L11.1069 8.32433H11.6306ZM13.065 9.62871L13.2275 9.13058L13.3894 9.62871H13.9131L13.4894 9.93683L13.6512 10.435L13.2275 10.1275L12.8031 10.435L12.965 9.93683L12.5412 9.62871H13.065ZM8.26124 12.6087H11.7394V11.1306L11.0437 11.4787L9.99999 10.4343L8.95687 11.4781L8.26124 11.13V12.6087ZM13.5669 11.3681L13.7294 10.8693L13.8912 11.3681H14.4156L13.9912 11.6762L14.1531 12.1743L13.7294 11.8668L13.3056 12.1743L13.4675 11.6762L13.0431 11.3681H13.5669ZM6.43249 11.3681L6.27062 10.8693L6.10874 11.3681H5.58499L6.00874 11.6762L5.84687 12.1743L6.27062 11.8668L6.69437 12.1743L6.53249 11.6762L6.95624 11.3681H6.43249ZM6.77249 9.13058L6.93437 9.62871H7.45812L7.03437 9.93683L7.19624 10.435L6.77249 10.1275L6.34874 10.435L6.51062 9.93683L6.08687 9.62871H6.61062L6.77249 9.13058ZM8.20749 7.82621L8.36937 8.32433H8.89312L8.46937 8.63246L8.63124 9.13058L8.20749 8.82246L7.78374 9.13058L7.94562 8.63246L7.52187 8.32433H8.04562L8.20749 7.82621Z" fill="#FFD800"/>
<path d="M0.992493 5.65187H19.0075C17.39 2.30687 13.965 0 9.99999 0C6.03562 0 2.60999 2.30687 0.992493 5.65187Z" fill="#EC0017"/>
</svg>
