<svg width="20" height="20" viewBox="0 0 20 20" fill="none" xmlns="http://www.w3.org/2000/svg">
<mask id="mask0_219_122133" style="mask-type:alpha" maskUnits="userSpaceOnUse" x="0" y="0" width="20" height="20">
<path d="M10 0C15.5228 0 20 4.47716 20 10C20 15.5228 15.5228 20 10 20C4.47715 20 0 15.5228 0 10C0 4.47716 4.47715 0 10 0Z" fill="white"/>
</mask>
<g mask="url(#mask0_219_122133)">
<path fill-rule="evenodd" clip-rule="evenodd" d="M-0.869568 -0.869507H20.8696V20.8696H-0.869568V-0.869507Z" fill="white"/>
</g>
<mask id="mask1_219_122133" style="mask-type:alpha" maskUnits="userSpaceOnUse" x="0" y="6" width="20" height="8">
<path d="M10 6.52185L19.5275 6.95622C19.7909 7.78186 19.9507 8.65371 19.9903 9.5567L19.9943 9.66029L20 9.99997L19.9976 10.2222L19.9904 10.4433C19.9564 11.2172 19.8341 11.9683 19.634 12.6867L19.5275 13.0431L10 13.4781L0.471627 13.0436L0.463333 13.0175C0.205699 12.1998 0.0488556 11.3368 0.00969716 10.4432L0.00586629 10.3458L0 9.99997L0.0024335 9.77774L0.00964988 9.55667C0.0436095 8.78271 0.165834 8.03159 0.365587 7.31285L0.466087 6.97389L0.471875 6.95622L0.471904 6.95544L10 6.52185Z" fill="white"/>
</mask>
<g mask="url(#mask1_219_122133)">
<path fill-rule="evenodd" clip-rule="evenodd" d="M-0.869568 5.65222H20.8696V14.3476H-0.869568V5.65222Z" fill="#F0F0F0"/>
</g>
<mask id="mask2_219_122133" style="mask-type:alpha" maskUnits="userSpaceOnUse" x="0" y="6" width="20" height="8">
<path d="M19.7619 12.1737C19.7185 12.3704 19.6694 12.5648 19.6144 12.7569L19.5275 13.0431L9.99999 13.4775L0.472488 13.0437L0.45783 13.0001C0.401408 12.8196 0.349945 12.6371 0.303466 12.4526L0.237488 12.1743V12.1737H19.7619ZM9.99999 6.52185L19.5275 6.95622C19.5886 7.14701 19.6437 7.33964 19.6928 7.53382L19.7619 7.82622H0.237488C0.281238 7.62914 0.330543 7.43484 0.385404 7.24275L0.465205 6.97736L0.458378 6.9981C0.462852 6.98387 0.467357 6.96965 0.471892 6.95544L9.99999 6.52185Z" fill="white"/>
</mask>
<g mask="url(#mask2_219_122133)">
<path fill-rule="evenodd" clip-rule="evenodd" d="M-0.63208 5.65222H20.6314V14.347H-0.63208V5.65222Z" fill="#EC0017"/>
</g>
<mask id="mask3_219_122133" style="mask-type:alpha" maskUnits="userSpaceOnUse" x="0" y="13" width="20" height="7">
<path d="M12.6783 19.6374L12.6461 19.6461L12.6304 19.6504L12.5325 19.6765L12.4304 19.7026L12.3922 19.7121L12.2788 19.7392L12.1652 19.7652L12.2713 19.7408L12.1458 19.7692L12.035 19.7928L12.0226 19.7956L11.9913 19.8017L11.8989 19.8199L11.8113 19.8365L11.7261 19.8521L11.6987 19.8563L11.7052 19.8556L11.7261 19.8521L11.7613 19.8453L11.7052 19.8556L11.6678 19.8617L11.5588 19.8792L11.5339 19.8834L11.4183 19.9002L11.5303 19.8836C11.448 19.8962 11.3653 19.9079 11.2824 19.9185L11.4052 19.9026L11.2812 19.9187L11.1574 19.9339L11.1435 19.9353L11.1139 19.9391L11.0284 19.9477C10.99 19.9517 10.9515 19.9554 10.913 19.9588L11.0334 19.9472L10.8995 19.9601L10.8583 19.9643L10.8168 19.9671L10.7208 19.9744C10.6422 19.98 10.5637 19.9847 10.485 19.9884L10.2669 19.9965L9.99999 20C9.83734 20 9.67559 19.9961 9.51484 19.9884C9.42141 19.9839 9.32819 19.9782 9.23531 19.9712L9.27927 19.9744L9.18313 19.9671L9.14086 19.9643L9.10043 19.9601C9.05556 19.9561 9.01077 19.9518 8.96606 19.9472C8.88295 19.9386 8.80014 19.9291 8.71765 19.9185C8.63463 19.9079 8.55193 19.8962 8.46956 19.8836L8.58192 19.9002C8.49132 19.8873 8.40111 19.8732 8.31131 19.8579L8.24173 19.8461L8.30086 19.8565L8.20058 19.8384L8.13477 19.8269L8.09238 19.8182C8.01586 19.8034 7.94174 19.7881 7.86793 19.7721L7.95265 19.7902L7.83484 19.7649L7.72521 19.7408L7.83651 19.7652L7.72817 19.7407L7.60695 19.7121L7.71754 19.7383C7.64305 19.7209 7.56888 19.7027 7.49504 19.6836L7.58916 19.7073L7.46999 19.677L7.44869 19.6721L7.40608 19.6608L7.36871 19.6502L7.29304 19.6295L7.23491 19.6126L7.16782 19.593L7.12857 19.5816L7.0226 19.5495L7.01468 19.5468L6.98617 19.5376L6.98086 19.5365L6.98695 19.5382L6.92173 19.5174L6.88608 19.5061L6.83825 19.4904L6.77043 19.4669L6.65825 19.4278L6.57533 19.3982L6.62484 19.4159L6.51534 19.3759L6.57533 19.3982L6.40869 19.3356L6.4913 19.3678L6.44293 19.3488C6.39895 19.3321 6.35511 19.315 6.31142 19.2977L6.40644 19.3346L6.29919 19.2926L6.19229 19.2495C6.04056 19.1867 5.89047 19.1204 5.74236 19.0506L5.74165 19.0506C5.37349 18.8767 5.01697 18.6809 4.67446 18.465C4.57762 18.4044 4.48215 18.3419 4.38784 18.2779C3.98647 18.0046 3.60585 17.7033 3.24901 17.3765L3.24862 17.377C2.27306 16.4827 1.47498 15.3978 0.914009 14.1811L0.913806 14.182C0.840116 14.0209 0.770337 13.8583 0.704808 13.6936L0.704339 13.6938C0.657836 13.5755 0.613048 13.4564 0.570493 13.3362C0.535748 13.2393 0.502946 13.1418 0.471619 13.0436L19.5275 13.0431C19.0071 14.6738 18.0797 16.1229 16.8648 17.2707C16.8094 17.323 16.7535 17.3746 16.697 17.4256L16.6974 17.426C16.3559 17.7336 15.9935 18.0183 15.6122 18.2774C15.5175 18.3421 15.4218 18.4048 15.3249 18.4659C14.9625 18.694 14.5845 18.8998 14.1928 19.081L14.1933 19.0809C14.0271 19.1576 13.8591 19.2298 13.6887 19.2975L13.5573 19.3486L13.4826 19.3765L13.5556 19.3495L13.4845 19.3761C13.4481 19.3897 13.4116 19.403 13.375 19.4161L13.4251 19.3979L13.3409 19.4278L13.2287 19.4669L13.1461 19.495L13.0802 19.5165L13.0504 19.5261L13.0203 19.5358C12.9783 19.5491 12.9361 19.5621 12.8938 19.5749L12.9774 19.5492L12.8809 19.5791L12.8722 19.5817L12.861 19.5846L12.7643 19.613L12.773 19.6104L12.6783 19.6374Z" fill="white"/>
</mask>
<g mask="url(#mask3_219_122133)">
<path fill-rule="evenodd" clip-rule="evenodd" d="M-0.397705 12.1736H20.397V20.8696H-0.397705V12.1736Z" fill="#5AA731"/>
</g>
<mask id="mask4_219_122133" style="mask-type:alpha" maskUnits="userSpaceOnUse" x="0" y="0" width="20" height="7">
<path d="M8.27477 0.148696L8.30129 0.143691L8.2939 0.145217L8.27477 0.148696L8.23866 0.154608L8.2939 0.145217L8.35477 0.135652L8.44116 0.120779L8.46521 0.117391L8.58167 0.0998091L8.4697 0.116348C8.552 0.10371 8.63463 0.0920751 8.71758 0.0814567L8.5939 0.0982609L8.7188 0.0813056L8.84173 0.0669565H8.84434L8.85652 0.0646619L8.84521 0.0669565L8.86695 0.0643478L8.88521 0.0617391L8.97156 0.052239C9.00997 0.0483149 9.04844 0.0446083 9.08698 0.0411203L8.96656 0.0527467L9.1005 0.0399026L9.14086 0.0365217L9.18313 0.0328826L9.27918 0.0255776C9.35777 0.0199848 9.43625 0.0153153 9.51497 0.011556L9.73311 0.00349178L9.99999 0L10.2669 0.00349178C10.3398 0.00540352 10.4126 0.00809698 10.4852 0.0115641C10.5786 0.0160241 10.6718 0.0217781 10.7647 0.0288006L10.7208 0.0255776L10.817 0.0328884L10.8582 0.0365217L10.8995 0.0399119C10.9444 0.0439128 10.9892 0.0482102 11.0339 0.052802L10.9128 0.0411034C10.9899 0.0480748 11.0667 0.0559199 11.1432 0.0646287L11.0339 0.052802C11.117 0.061339 11.1998 0.0708938 11.2823 0.0814539C11.3653 0.0920809 11.448 0.103726 11.5304 0.116376L11.4182 0.09979L11.5348 0.117391L11.5556 0.12087L11.6989 0.143718C11.681 0.140649 11.663 0.137629 11.645 0.134656L11.5556 0.12087L11.5356 0.117391L11.5589 0.120781C11.5876 0.125284 11.6164 0.129909 11.645 0.134656L11.7052 0.145217L11.7611 0.154572L11.7243 0.148696L11.7052 0.145217L11.6989 0.143718L11.7243 0.148696L11.8104 0.164348L11.7611 0.154572L11.9 0.18087L11.8116 0.163672L11.8989 0.180054L11.993 0.19913L12.0209 0.205217L12.0349 0.207182C12.0719 0.21482 12.1087 0.222662 12.1455 0.230707L12.1582 0.233489L12.173 0.237391L12.2786 0.260764L12.3922 0.288696L12.4304 0.298261L12.5327 0.323524L12.6409 0.353043L12.6791 0.363478L12.6538 0.355946L12.7438 0.381125L12.7739 0.390435L12.86 0.415652L12.8748 0.42L12.9774 0.450752L13.1252 0.498261L13.1825 0.517086L13.3409 0.573043L13.3243 0.566957L13.2817 0.551304L13.3039 0.558689L13.3243 0.566957L13.3754 0.584005L13.4849 0.623994L13.5078 0.633043L13.557 0.65113C13.601 0.667875 13.6449 0.684922 13.6886 0.702268L13.7019 0.707587L13.8094 0.751179C13.9608 0.813607 14.1103 0.879654 14.2579 0.949204L14.2583 0.949379C14.48 1.05389 14.6976 1.16651 14.9104 1.2867L15.1271 1.41272C15.2923 1.51145 15.4538 1.61457 15.6121 1.72211C15.7964 1.84739 15.9762 1.97856 16.1513 2.11542L16.4052 2.32087L16.4104 2.32494L16.4972 2.39799L16.4974 2.39849L16.5952 2.483L16.6713 2.5513L16.7588 2.63015L16.8417 2.7087L16.8651 2.72877L16.9259 2.78667C17.1044 2.95852 17.2768 3.13686 17.4425 3.32138L17.3889 3.26164L17.4631 3.34388L17.5269 3.41739L17.6077 3.51012L17.608 3.50985C18.3824 4.41756 18.9976 5.46535 19.4099 6.61L19.5275 6.95625L0.471893 6.95547L0.495814 6.88154L0.49729 6.87775L0.535283 6.76439L0.574285 6.65177L0.661345 6.41683L0.753671 6.1845C0.812908 6.04184 0.875191 5.90054 0.940601 5.761L0.940418 5.7607C1.25545 5.08924 1.64281 4.45832 2.09257 3.87818L2.31042 3.60783L2.23224 3.7017C2.28374 3.63827 2.33599 3.57548 2.38899 3.51336L2.39129 3.51043L2.39216 3.50956L2.46356 3.42732L2.47261 3.41659L2.4739 3.41565L2.53738 3.34435L2.54277 3.33765L2.55744 3.32091L2.61129 3.26174L2.62302 3.24893L2.63521 3.2353L2.70126 3.16446L2.71395 3.1506L2.78001 3.08103C2.89573 2.96062 3.01398 2.84323 3.13509 2.72884L3.0739 2.78696L3.15477 2.71043L3.22109 2.64856C3.24991 2.62196 3.27889 2.59553 3.30802 2.56928L3.24082 2.63015L3.3282 2.5509L3.4047 2.48326L3.41651 2.47268L3.5025 2.39848L3.5026 2.39826L3.51738 2.38609L3.59431 2.32087C3.62507 2.29518 3.65599 2.26967 3.68706 2.24434L3.68683 2.24433C3.91265 2.06047 4.14641 1.88625 4.38772 1.72231L4.67449 1.53449L4.96814 1.3564C5.0427 1.31282 5.11816 1.2701 5.19421 1.22835L5.30876 1.16647L5.51062 1.06193L5.62529 1.00514L5.72919 0.955291L5.65156 0.992429L5.74078 0.949787L5.80719 0.918804L5.80664 0.919029C5.97281 0.842203 6.14088 0.77 6.31125 0.702345L6.4065 0.665081L6.42781 0.657391L6.42173 0.65913L6.43651 0.653913L6.44262 0.651255L6.46608 0.642609L6.51545 0.623846C6.55186 0.610307 6.58838 0.596974 6.625 0.583848L6.57488 0.601971L6.65825 0.573043L6.77042 0.533913L6.85393 0.504922L6.91976 0.483375L6.94868 0.474783L6.97969 0.464203C7.02173 0.4509 7.06389 0.437867 7.10617 0.425106L7.02261 0.450724L7.12521 0.42L7.13912 0.415652L7.12608 0.41913L7.13894 0.415273C7.17781 0.403685 7.21679 0.392328 7.25586 0.381202L7.22609 0.389733L7.32086 0.363478L7.34664 0.355823L7.37507 0.348059L7.35825 0.353043L7.46745 0.323479L7.56868 0.298261L7.60741 0.288026L7.72117 0.260812L7.82695 0.237391L7.842 0.233437L7.85417 0.230775L7.96497 0.20721L7.97825 0.205217L8.00608 0.19913L8.10104 0.18006L8.18781 0.164348L8.09912 0.18087L8.23866 0.154608L8.18868 0.164348L8.27477 0.148696Z" fill="white"/>
</mask>
<g mask="url(#mask4_219_122133)">
<path fill-rule="evenodd" clip-rule="evenodd" d="M-0.397705 -0.869507H20.397V7.82588H-0.397705V-0.869507Z" fill="#008CFB"/>
</g>
<mask id="mask5_219_122133" style="mask-type:alpha" maskUnits="userSpaceOnUse" x="3" y="2" width="11" height="5">
<path d="M6.10751 2.21943C5.20977 2.4164 4.57009 3.21158 4.57001 4.13068C4.56997 5.04955 5.20984 5.84444 6.10751 6.04068C5.32543 6.21261 4.51753 5.89055 4.06822 5.22773C3.6189 4.56491 3.6189 3.69519 4.06822 3.03238C4.51753 2.36956 5.32543 2.0475 6.10751 2.21943ZM7.26376 5.02005L7.39626 5.42756H7.82501L7.47814 5.67943L7.61064 6.08693L7.26376 5.83505L6.91689 6.08693L7.04939 5.67943L6.70251 5.42756H7.13126L7.26376 5.02005ZM8.63127 5.02005L8.76376 5.42756H9.19252L8.84564 5.67943L8.97814 6.08693L8.63127 5.83505L8.28439 6.08693L8.41689 5.67943L8.07001 5.42756H8.49876L8.63127 5.02005ZM9.99939 5.02005L10.1319 5.42756H10.5606L10.2138 5.67943L10.3463 6.08693L9.99939 5.83505L9.65252 6.08693L9.78501 5.67943L9.43814 5.42756H9.86689L9.99939 5.02005ZM11.3675 5.02005L11.5 5.42756H11.9288L11.5819 5.67943L11.7138 6.08693L11.3669 5.83505L11.02 6.08693L11.1531 5.67943L10.8063 5.42756H11.2356L11.3675 5.02005ZM12.7356 5.02005L12.8675 5.42756H13.2969L12.95 5.67943L13.0825 6.08693L12.7356 5.83505L12.3888 6.08693L12.5206 5.67943L12.1738 5.42756H12.6025L12.7356 5.02005ZM8.63127 3.59693L8.76376 4.00443H9.19252L8.84564 4.25631L8.97814 4.6638L8.63127 4.41256L8.28439 4.66443L8.41689 4.25693L8.07001 4.00505H8.49876L8.63127 3.59693ZM9.99939 3.59693L10.1319 4.00443H10.5606L10.2138 4.25631L10.3463 4.6638L9.99939 4.41256L9.65252 4.66443L9.78501 4.25693L9.43814 4.00505H9.86689L9.99939 3.59693ZM11.3675 3.59693L11.5 4.00443H11.9288L11.5819 4.25631L11.7138 4.6638L11.3675 4.41256L11.0206 4.66443L11.1538 4.25693L10.8063 4.00443H11.2356L11.3675 3.59693ZM12.7356 3.59693L12.8675 4.00443H13.2969L12.95 4.25693L13.0825 4.66443L12.7356 4.41256L12.3888 4.66443L12.5206 4.25693L12.1738 4.00505H12.6025L12.7356 3.59693ZM12.7356 2.1738L12.8675 2.58131H13.2969L12.95 2.8338L13.0825 3.24131L12.7356 2.98943L12.3888 3.24131L12.5206 2.8338L12.1744 2.58131H12.6031L12.7356 2.1738ZM9.99939 2.1738L10.1319 2.58131H10.5606L10.2138 2.83318L10.3463 3.24068L9.99939 2.9888L9.65252 3.24068L9.78501 2.83318L9.43876 2.58131H9.86752L9.99939 2.1738ZM11.3675 2.1738L11.5 2.58131H11.9288L11.5819 2.83318L11.7138 3.24068L11.3669 2.9888L11.02 3.24068L11.1531 2.83318L10.8063 2.58131H11.2356L11.3675 2.1738Z" fill="white"/>
</mask>
<g mask="url(#mask5_219_122133)">
<path fill-rule="evenodd" clip-rule="evenodd" d="M2.74933 1.17798H14.1664V7.08222H2.74933V1.17798Z" fill="#F0F0F0"/>
</g>
</svg>
