<svg width="20" height="20" viewBox="0 0 20 20" fill="none" xmlns="http://www.w3.org/2000/svg">
<path fill-rule="evenodd" clip-rule="evenodd" d="M6.85569 4.6645C5.75345 4.81743 4.73849 5.1814 3.88514 5.96744C3.58453 5.20281 3.28715 4.44123 2.98978 3.67966C3.83989 2.89361 4.85809 2.52965 5.96033 2.37366C6.25771 3.1383 6.55832 3.89987 6.85569 4.6645Z" fill="#272A30"/>
<path fill-rule="evenodd" clip-rule="evenodd" d="M13.7924 4.58946C12.6934 4.74238 11.5071 4.68427 10.3241 4.62616C10.0267 3.86459 9.7293 3.10301 9.42869 2.33838C10.615 2.39649 11.7948 2.4546 12.897 2.30168C13.1944 3.06325 13.495 3.82788 13.7924 4.58946Z" fill="#272A30"/>
<path fill-rule="evenodd" clip-rule="evenodd" d="M11.2181 6.9161C10.0351 6.85493 8.85203 6.79682 7.74979 6.95281C7.45241 6.18817 7.15503 5.4266 6.85442 4.66502C7.95666 4.50904 9.13971 4.56715 10.3228 4.62526C10.6201 5.3899 10.9207 6.15147 11.2181 6.9161Z" fill="#272A30"/>
<path fill-rule="evenodd" clip-rule="evenodd" d="M17.6572 5.5751C16.8039 6.36115 15.7857 6.72511 14.6867 6.87804C14.3861 6.11647 14.0887 5.35489 13.7913 4.59026C14.8903 4.43733 15.9085 4.07336 16.7618 3.28732C17.0592 4.0489 17.3598 4.81353 17.6572 5.5751Z" fill="#272A30"/>
<path fill-rule="evenodd" clip-rule="evenodd" d="M8.64621 9.24002C7.54397 9.39295 6.529 9.75691 5.67566 10.543C5.37505 9.78138 5.07767 9.01675 4.78029 8.25517C5.63363 7.46913 6.6486 7.10516 7.75084 6.95224C8.04822 7.71381 8.34883 8.47845 8.64621 9.24002Z" fill="#272A30"/>
<path fill-rule="evenodd" clip-rule="evenodd" d="M15.5797 9.16838C14.4807 9.32131 13.2944 9.26014 12.1146 9.20509C11.8139 8.44045 11.5166 7.67888 11.2192 6.9173C12.4022 6.97236 13.5853 7.03353 14.6843 6.87754C14.9817 7.64218 15.2823 8.40375 15.5797 9.16838Z" fill="#272A30"/>
<path fill-rule="evenodd" clip-rule="evenodd" d="M13.0086 11.4926C11.8256 11.4345 10.6425 11.3764 9.54029 11.5293C9.24292 10.7677 8.94554 10.0031 8.64493 9.24153C9.74717 9.0886 10.9302 9.14365 12.1133 9.20483C12.4106 9.9664 12.708 10.731 13.0086 11.4926Z" fill="#272A30"/>
<path fill-rule="evenodd" clip-rule="evenodd" d="M19.4468 10.148C18.5932 10.9343 17.5746 11.2984 16.4753 11.4513C16.1746 10.6895 15.8771 9.92463 15.5796 9.16281C16.6822 9.00677 17.6975 8.64574 18.5511 7.85638C18.8486 8.62127 19.1493 9.38309 19.4468 10.148Z" fill="#272A30"/>
<path d="M1.63681 1.52151C1.28045 1.7012 1.23289 2.11554 1.35461 2.49562C1.66663 3.46991 2.43374 5.79563 4.07618 10.459C5.71862 15.1224 6.57826 17.4155 6.94566 18.3703C7.08899 18.7427 7.38571 19.0358 7.77602 18.9525C7.86992 18.9325 7.97583 18.9031 8.09451 18.8613C8.21318 18.8196 8.31411 18.7761 8.39984 18.7328C8.7562 18.5531 8.80377 18.1388 8.68204 17.7587C8.37002 16.7844 7.60291 14.4587 5.96047 9.79534C4.31804 5.13198 3.45839 2.83886 3.09099 1.88407C2.94767 1.51159 2.65094 1.21851 2.26063 1.3018C2.16673 1.32183 2.06082 1.35119 1.94215 1.39298C1.82347 1.43478 1.72254 1.47828 1.63681 1.52151Z" fill="#272A30"/>
</svg>
