<svg width="20" height="20" viewBox="0 0 20 20" fill="none" xmlns="http://www.w3.org/2000/svg">
<path fill-rule="evenodd" clip-rule="evenodd" d="M6.85576 4.66451C5.75352 4.81743 4.73856 5.1814 3.88521 5.96744C3.5846 5.20281 3.28722 4.44123 2.98985 3.67966C3.83996 2.89362 4.85816 2.52965 5.9604 2.37366C6.25777 3.1383 6.55838 3.89987 6.85576 4.66451Z" fill="#272A30"/>
<path fill-rule="evenodd" clip-rule="evenodd" d="M13.7925 4.58946C12.6935 4.74238 11.5072 4.68427 10.3241 4.62616C10.0267 3.86458 9.72937 3.10301 9.42876 2.33838C10.615 2.39649 11.7949 2.4546 12.8971 2.30167C13.1945 3.06325 13.4951 3.82788 13.7925 4.58946Z" fill="#272A30"/>
<path fill-rule="evenodd" clip-rule="evenodd" d="M11.2182 6.91611C10.0351 6.85493 8.8521 6.79682 7.74986 6.95281C7.45248 6.18817 7.1551 5.4266 6.85449 4.66502C7.95673 4.50904 9.13978 4.56715 10.3228 4.62526C10.6202 5.3899 10.9208 6.15147 11.2182 6.91611Z" fill="#272A30"/>
<path fill-rule="evenodd" clip-rule="evenodd" d="M17.6573 5.57511C16.8039 6.36115 15.7857 6.72511 14.6867 6.87804C14.3861 6.11647 14.0887 5.35489 13.7914 4.59026C14.8904 4.43733 15.9086 4.07337 16.7619 3.28732C17.0593 4.0489 17.3599 4.81353 17.6573 5.57511Z" fill="#272A30"/>
<path fill-rule="evenodd" clip-rule="evenodd" d="M8.64627 9.24002C7.54404 9.39295 6.52907 9.75692 5.67572 10.543C5.37511 9.78138 5.07774 9.01675 4.78036 8.25518C5.6337 7.46913 6.64867 7.10517 7.75091 6.95224C8.04829 7.71381 8.3489 8.47845 8.64627 9.24002Z" fill="#272A30"/>
<path fill-rule="evenodd" clip-rule="evenodd" d="M15.5797 9.16839C14.4807 9.32131 13.2944 9.26014 12.1146 9.20509C11.814 8.44046 11.5166 7.67888 11.2193 6.91731C12.4023 6.97236 13.5854 7.03353 14.6844 6.87754C14.9817 7.64218 15.2824 8.40375 15.5797 9.16839Z" fill="#272A30"/>
<path fill-rule="evenodd" clip-rule="evenodd" d="M13.0087 11.4926C11.8257 11.4345 10.6426 11.3764 9.54036 11.5293C9.24299 10.7677 8.94561 10.0031 8.645 9.24153C9.74724 9.0886 10.9303 9.14366 12.1133 9.20483C12.4107 9.9664 12.7081 10.731 13.0087 11.4926Z" fill="#272A30"/>
<path fill-rule="evenodd" clip-rule="evenodd" d="M19.4469 10.148C18.5932 10.9343 17.5747 11.2984 16.4754 11.4513C16.1746 10.6895 15.8772 9.92463 15.5797 9.16281C16.6823 9.00677 17.6976 8.64575 18.5512 7.85638C18.8487 8.62127 19.1494 9.38309 19.4469 10.148Z" fill="#272A30"/>
<path d="M1.63683 1.52148C1.28046 1.70118 1.23289 2.11553 1.35462 2.49562C1.66664 3.46992 2.43375 5.79564 4.07618 10.459C5.71861 15.1223 6.57825 17.4154 6.94566 18.3702C7.08899 18.7427 7.38572 19.0358 7.77604 18.9525C7.86995 18.9325 7.97586 18.9031 8.09454 18.8613C8.21322 18.8195 8.31416 18.776 8.39989 18.7328C8.75626 18.5531 8.80383 18.1387 8.6821 17.7587C8.37008 16.7844 7.60297 14.4586 5.96054 9.7953C4.31811 5.13196 3.45847 2.83884 3.09106 1.88404C2.94773 1.51156 2.651 1.21847 2.26068 1.30176C2.16678 1.3218 2.06086 1.35116 1.94218 1.39296C1.8235 1.43476 1.72257 1.47825 1.63683 1.52148Z" fill="#272A30"/>
<path d="M17.592 13.0074C18.6275 12.965 19.51 13.7583 19.5747 14.796C19.5754 14.808 19.5758 14.82 19.5758 14.832C19.5758 15.4809 19.2239 16.0788 18.6567 16.3939L17.8883 16.8208C17.6088 16.9761 17.2562 16.8754 17.1009 16.5959C16.9456 16.3163 17.0463 15.9638 17.3259 15.8085L18.0943 15.3816C18.2887 15.2736 18.4113 15.0711 18.4175 14.8496C18.3827 14.4468 18.0339 14.1425 17.628 14.165C17.6094 14.166 17.5907 14.1661 17.572 14.1654C17.1981 14.1499 16.8661 14.4026 16.7815 14.7671C16.7092 15.0787 16.3981 15.2726 16.0866 15.2003C15.7751 15.128 15.5811 14.8169 15.6534 14.5054C15.8617 13.6076 16.6733 12.9824 17.592 13.0074Z" fill="#272A30"/>
<path d="M18.1862 18.2198C18.1858 18.5396 17.9262 18.7985 17.6064 18.7981C17.2866 18.7977 17.0277 18.5381 17.0281 18.2183C17.0286 17.8991 17.2872 17.6405 17.6064 17.64C17.9262 17.6396 18.1858 17.9 18.1862 18.2198Z" fill="#272A30"/>
</svg>
