<svg width="20" height="20" viewBox="0 0 20 20" fill="none" xmlns="http://www.w3.org/2000/svg">
<path d="M8.92166 6.425H9.71231C9.91772 6.425 10.0863 6.37908 10.2181 6.28725C10.3499 6.1916 10.4468 6.05768 10.5088 5.8855C10.5708 5.71332 10.6018 5.51245 10.6018 5.28288C10.6018 5.06861 10.5727 4.88113 10.5146 4.72043C10.4564 4.55973 10.3673 4.43346 10.2472 4.34164C10.127 4.24981 9.97586 4.20389 9.7937 4.20389C9.65417 4.20389 9.52433 4.24216 9.40419 4.31868C9.28404 4.3952 9.18715 4.50425 9.11351 4.64582C9.04374 4.78356 9.00886 4.95 9.00886 5.14514H7.36943C7.36943 4.68599 7.47601 4.28616 7.68918 3.94563C7.90234 3.60509 8.18915 3.33917 8.54959 3.14787C8.91003 2.95656 9.30923 2.8609 9.74719 2.8609C10.2394 2.8609 10.6715 2.95273 11.0436 3.13639C11.4157 3.31622 11.7064 3.58405 11.9157 3.93989C12.1249 4.2919 12.2296 4.72808 12.2296 5.24844C12.2296 5.51628 12.1773 5.77454 12.0726 6.02325C11.9719 6.27195 11.8246 6.49578 11.6308 6.69474C11.437 6.88988 11.2006 7.04484 10.9215 7.15962C10.6464 7.27441 10.3324 7.3318 9.97973 7.3318H8.92166V6.425ZM8.92166 7.72781V6.8497H9.97973C10.3751 6.8497 10.72 6.90136 11.0145 7.00466C11.313 7.10414 11.5591 7.24954 11.7529 7.44085C11.9505 7.63216 12.0978 7.85982 12.1947 8.12382C12.2916 8.38783 12.34 8.67862 12.34 8.99619C12.34 9.38647 12.2742 9.73465 12.1424 10.0407C12.0106 10.3468 11.8265 10.6051 11.5901 10.8155C11.3537 11.026 11.0785 11.1867 10.7646 11.2976C10.4506 11.4048 10.1096 11.4583 9.74137 11.4583C9.43519 11.4583 9.13482 11.4105 8.84027 11.3149C8.54959 11.2192 8.28798 11.0719 8.05543 10.8729C7.82289 10.674 7.63879 10.4234 7.50314 10.1211C7.36749 9.81883 7.29967 9.46108 7.29967 9.04785H8.92747C8.92747 9.25446 8.96429 9.44003 9.03793 9.60456C9.11157 9.76526 9.21234 9.89152 9.34024 9.98335C9.47201 10.0752 9.61929 10.1211 9.78207 10.1211C9.97198 10.1211 10.1367 10.0733 10.2762 9.97761C10.4157 9.88196 10.5223 9.74804 10.596 9.57586C10.6696 9.40368 10.7064 9.20281 10.7064 8.97324C10.7064 8.67862 10.6677 8.4414 10.5902 8.26157C10.5126 8.07791 10.4002 7.94399 10.253 7.85982C10.1057 7.77181 9.92741 7.72781 9.71812 7.72781H8.92166Z" fill="#272A30"/>
<path fill-rule="evenodd" clip-rule="evenodd" d="M17.9976 9.79534C17.969 7.79731 17.5185 5.88399 16.8319 4.01304C16.7058 3.67446 16.5726 3.33939 16.4398 3.00536L16.4397 3.00511L16.4396 3.00487L16.4395 3.00462L16.4395 3.00441C16.3841 2.86511 16.3288 2.72599 16.2741 2.58688C15.988 1.88086 15.1298 1.30192 14.3718 1.29486C13.6781 1.29486 13.1918 1.71847 13.2132 2.41037C13.2275 2.91871 13.3276 3.4341 13.4349 3.94244C13.7353 5.37566 14.007 6.80182 14.0142 8.27034C14.0142 9.28701 13.9141 10.2896 13.4921 11.2427C12.8914 12.5982 11.8329 13.2901 10.3526 13.389C9.48722 13.4455 8.65048 13.3254 7.89956 12.8595C7.07713 12.3511 6.61227 11.5886 6.33336 10.699C6.01154 9.6612 5.98293 8.59511 6.0473 7.52902C6.12271 6.22608 6.39144 4.95586 6.65933 3.6896L6.65933 3.68959C6.69627 3.51495 6.7332 3.34038 6.76961 3.16581C6.81967 2.93283 6.83397 2.69278 6.83397 2.45273C6.81967 1.66905 6.24039 1.18896 5.45371 1.3231C4.61698 1.4643 4.0377 1.93734 3.71587 2.69984C3.1795 3.96362 2.72895 5.25563 2.42858 6.59001C2.03524 8.31976 1.85645 10.0707 2.13537 11.8357C2.35707 13.2407 2.84338 14.5327 3.73733 15.6624C4.4954 16.6296 5.45371 17.3568 6.59082 17.8299C8.42878 18.6135 10.3526 18.7336 12.2978 18.2182C14.4719 17.6463 16.0953 16.3755 17.0965 14.3633C17.6472 13.2548 17.9261 12.0758 17.9905 10.8473C18.0048 10.6123 18 10.3804 17.9953 10.1475V10.1475V10.1474V10.1474V10.1473V10.1473V10.1473V10.1472V10.1472V10.1471V10.1471C17.9929 10.0303 17.9905 9.91319 17.9905 9.79534H17.9976ZM5.49941 3.99729C5.49941 4.35432 5.20623 4.64376 4.84457 4.64376C4.48291 4.64376 4.18972 4.35432 4.18972 3.99729C4.18972 3.64025 4.48291 3.35081 4.84457 3.35081C5.20623 3.35081 5.49941 3.64025 5.49941 3.99729ZM14.9649 4.64376C15.3265 4.64376 15.6197 4.35432 15.6197 3.99729C15.6197 3.64025 15.3265 3.35081 14.9649 3.35081C14.6032 3.35081 14.31 3.64025 14.31 3.99729C14.31 4.35432 14.6032 4.64376 14.9649 4.64376ZM5.04168 6.23056C5.04168 6.58759 4.74849 6.87703 4.38683 6.87703C4.02517 6.87703 3.73199 6.58759 3.73199 6.23056C3.73199 5.87352 4.02517 5.58408 4.38683 5.58408C4.74849 5.58408 5.04168 5.87352 5.04168 6.23056ZM3.98872 9.1103C4.35038 9.1103 4.64356 8.82086 4.64356 8.46383C4.64356 8.10679 4.35038 7.81735 3.98872 7.81735C3.62706 7.81735 3.33388 8.10679 3.33388 8.46383C3.33388 8.82086 3.62706 9.1103 3.98872 9.1103ZM16.267 6.23056C16.267 6.58759 15.9738 6.87703 15.6122 6.87703C15.2505 6.87703 14.9573 6.58759 14.9573 6.23056C14.9573 5.87352 15.2505 5.58408 15.6122 5.58408C15.9738 5.58408 16.267 5.87352 16.267 6.23056ZM15.8801 9.1103C16.2417 9.1103 16.5349 8.82086 16.5349 8.46383C16.5349 8.10679 16.2417 7.81735 15.8801 7.81735C15.5184 7.81735 15.2252 8.10679 15.2252 8.46383C15.2252 8.82086 15.5184 9.1103 15.8801 9.1103Z" fill="#272A30"/>
</svg>
