<svg width="20" height="20" viewBox="0 0 20 20" fill="none" xmlns="http://www.w3.org/2000/svg">
<path d="M12.3684 10.1816V11.5189H7.38036V10.3768L9.67091 7.50139C9.89182 7.19912 10.0643 6.93511 10.1883 6.70936C10.3123 6.47979 10.4015 6.27509 10.4557 6.09526C10.51 5.9116 10.5371 5.73942 10.5371 5.57873C10.5371 5.33002 10.5081 5.11767 10.4499 4.94166C10.3918 4.76183 10.3046 4.62409 10.1883 4.52844C10.0759 4.42896 9.9364 4.37921 9.76974 4.37921C9.5682 4.37921 9.40155 4.44043 9.26977 4.56287C9.138 4.68531 9.03917 4.85366 8.97328 5.06793C8.91127 5.27837 8.88026 5.51751 8.88026 5.78534H7.24664C7.24664 5.28411 7.34935 4.82497 7.55476 4.40791C7.76405 3.99086 8.05667 3.65989 8.43261 3.41502C8.81244 3.16631 9.26783 3.04196 9.79881 3.04196C10.3182 3.04196 10.7522 3.13762 11.1011 3.32893C11.4537 3.52024 11.7192 3.79381 11.8975 4.14964C12.0797 4.50165 12.1708 4.92253 12.1708 5.41229C12.1708 5.6916 12.1339 5.96326 12.0603 6.22726C11.9867 6.48745 11.882 6.74763 11.7464 7.00781C11.6107 7.26416 11.4441 7.52626 11.2464 7.79409C11.0487 8.06192 10.8259 8.33932 10.5778 8.62628L9.47325 10.1816H12.3684Z" fill="#272A30"/>
<path fill-rule="evenodd" clip-rule="evenodd" d="M17.9976 9.79534C17.969 7.79731 17.5185 5.88399 16.8319 4.01304C16.7058 3.67446 16.5726 3.33939 16.4398 3.00536L16.4397 3.00511L16.4396 3.00487L16.4395 3.00462C16.3841 2.86525 16.3288 2.72607 16.2741 2.58688C15.988 1.88086 15.1298 1.30192 14.3718 1.29486C13.6781 1.29486 13.1918 1.71847 13.2132 2.41037C13.2275 2.91871 13.3276 3.4341 13.4349 3.94244C13.7353 5.37566 14.007 6.80182 14.0142 8.27034C14.0142 9.28701 13.9141 10.2896 13.4921 11.2427C12.8914 12.5982 11.8329 13.2901 10.3526 13.389C9.48722 13.4455 8.65048 13.3254 7.89956 12.8595C7.07713 12.3511 6.61227 11.5886 6.33336 10.699C6.01154 9.6612 5.98293 8.59511 6.0473 7.52902C6.12271 6.22608 6.39144 4.95586 6.65933 3.6896L6.65933 3.68959C6.69627 3.51495 6.7332 3.34038 6.76961 3.16581C6.81967 2.93283 6.83397 2.69278 6.83397 2.45273C6.81967 1.66905 6.24039 1.18896 5.45371 1.3231C4.61698 1.4643 4.0377 1.93734 3.71587 2.69984C3.1795 3.96362 2.72895 5.25563 2.42858 6.59001C2.03524 8.31976 1.85645 10.0707 2.13537 11.8357C2.35707 13.2407 2.84338 14.5327 3.73733 15.6624C4.4954 16.6296 5.45371 17.3568 6.59082 17.8299C8.42878 18.6135 10.3526 18.7336 12.2978 18.2182C14.4719 17.6463 16.0953 16.3755 17.0965 14.3633C17.6472 13.2548 17.9261 12.0758 17.9905 10.8473C18.0048 10.6123 18 10.3804 17.9953 10.1474V10.1474V10.1473V10.1473V10.1473V10.1472V10.1472C17.9929 10.0303 17.9905 9.91322 17.9905 9.79534H17.9976ZM5.49941 3.99729C5.49941 4.35432 5.20623 4.64376 4.84457 4.64376C4.48291 4.64376 4.18972 4.35432 4.18972 3.99729C4.18972 3.64025 4.48291 3.35081 4.84457 3.35081C5.20623 3.35081 5.49941 3.64025 5.49941 3.99729ZM14.9649 4.64376C15.3265 4.64376 15.6197 4.35432 15.6197 3.99729C15.6197 3.64025 15.3265 3.35081 14.9649 3.35081C14.6032 3.35081 14.31 3.64025 14.31 3.99729C14.31 4.35432 14.6032 4.64376 14.9649 4.64376ZM5.04168 6.23056C5.04168 6.58759 4.74849 6.87703 4.38683 6.87703C4.02517 6.87703 3.73199 6.58759 3.73199 6.23056C3.73199 5.87352 4.02517 5.58408 4.38683 5.58408C4.74849 5.58408 5.04168 5.87352 5.04168 6.23056ZM15.6122 6.87703C15.9738 6.87703 16.267 6.58759 16.267 6.23056C16.267 5.87352 15.9738 5.58408 15.6122 5.58408C15.2505 5.58408 14.9573 5.87352 14.9573 6.23056C14.9573 6.58759 15.2505 6.87703 15.6122 6.87703Z" fill="#272A30"/>
</svg>
