<svg width="20" height="20" viewBox="0 0 20 20" fill="none" xmlns="http://www.w3.org/2000/svg">
<path d="M18.7709 9.10368C19.0394 9.37216 19.0394 9.80747 18.7709 10.076L10.3468 18.5C10.0783 18.7685 9.64304 18.7685 9.37456 18.5C9.10607 18.2315 9.10607 17.7962 9.37456 17.5278L17.7986 9.10368C18.0671 8.83519 18.5024 8.83519 18.7709 9.10368Z" fill="#272A30"/>
<path d="M9.25906 15.6702C9.10415 14.9855 9.0115 14.2885 9.00149 13.5746H9.00596C9.00596 13.4994 9.00446 13.4246 9.00297 13.35C8.99999 13.2013 8.99703 13.0533 9.00596 12.9032C9.04619 12.1192 9.22051 11.3667 9.56468 10.6592C10.1904 9.37501 11.2051 8.56392 12.5639 8.19893C13.7797 7.86999 14.982 7.94659 16.1307 8.44676C16.2126 8.48152 16.2929 8.51844 16.3718 8.55748L13.635 11.2943C12.7852 11.3921 12.173 11.8315 11.8174 12.6509C11.7215 12.8723 11.6521 13.0978 11.6028 13.3265L9.25906 15.6702Z" fill="#272A30"/>
<path d="M9.69819 17.1756C9.70872 17.2055 9.71934 17.2353 9.73006 17.2651C9.80886 17.4812 9.89212 17.6951 9.97511 17.9082C10.0098 17.9973 10.0444 18.0863 10.0787 18.1753C10.2575 18.6259 10.7939 18.9954 11.2677 18.9999C11.7012 18.9999 12.0052 18.7296 11.9918 18.288C11.9828 17.9635 11.9202 17.6346 11.8532 17.3102C11.7189 16.6557 11.5937 16.0035 11.5317 15.3421L9.69819 17.1756Z" fill="#272A30"/>
<path d="M15.277 11.5968C15.2889 11.6041 15.3009 11.6115 15.3128 11.619C15.8268 11.9435 16.1173 12.4301 16.2917 12.9979C16.4928 13.6603 16.5107 14.3407 16.4704 15.0211C16.4233 15.8527 16.2554 16.6634 16.0879 17.4715C16.0648 17.583 16.0418 17.6944 16.019 17.8058C15.9877 17.9545 15.9788 18.1077 15.9788 18.2609C15.9877 18.7611 16.3498 19.0675 16.8414 18.9819C17.3644 18.8918 17.7264 18.5899 17.9276 18.1032C18.2628 17.2967 18.5444 16.472 18.7321 15.6204C18.978 14.5164 19.0897 13.3989 18.9154 12.2724C18.7768 11.3757 18.4729 10.5511 17.9142 9.83012C17.7872 9.66473 17.6513 9.51034 17.5067 9.36711L15.277 11.5968Z" fill="#272A30"/>
<path d="M1.00149 6.57464C1.01937 7.84985 1.30096 9.071 1.73006 10.2651C1.8418 10.5715 1.96249 10.8734 2.0787 11.1753C2.25749 11.6259 2.79386 11.9954 3.26765 11.9999C3.70122 11.9999 4.00516 11.7296 3.99175 11.288C3.98282 10.9635 3.92024 10.6346 3.85319 10.3102C3.66546 9.39543 3.49561 8.48521 3.49114 7.54795C3.49114 6.89908 3.55372 6.25921 3.81743 5.6509C4.19289 4.78573 4.85442 4.34414 5.77966 4.28105C6.3205 4.245 6.84346 4.32161 7.31278 4.61901C7.8268 4.94344 8.11734 5.4301 8.29166 5.99786C8.4928 6.66025 8.51068 7.34067 8.47045 8.02109C8.41681 8.96736 8.20673 9.8866 8.019 10.8058C7.98771 10.9545 7.97877 11.1077 7.97877 11.2609C7.98771 11.7611 8.34977 12.0675 8.84144 11.9819C9.3644 11.8918 9.72645 11.5899 9.92759 11.1032C10.2628 10.2966 10.5444 9.47204 10.7321 8.62039C10.978 7.51641 11.0897 6.3989 10.9154 5.27239C10.7768 4.37568 10.4729 3.55107 9.91418 2.8301C9.44039 2.21277 8.84144 1.74865 8.13075 1.44674C6.98202 0.946566 5.77966 0.869964 4.56388 1.19891C3.20508 1.5639 2.19044 2.37499 1.56468 3.65922C1.22051 4.36667 1.04619 5.11918 1.00596 5.90323C0.992549 6.12854 1.00596 6.34934 1.00596 6.57464H1.00149Z" fill="#272A30"/>
</svg>
