<svg width="20" height="20" viewBox="0 0 20 20" fill="none" xmlns="http://www.w3.org/2000/svg">
<path d="M1.22909 10.8964C0.960607 10.6279 0.960607 10.1926 1.22909 9.92408L9.65317 1.5C9.92166 1.23151 10.357 1.23151 10.6254 1.5C10.8939 1.76849 10.8939 2.20379 10.6254 2.47227L2.20136 10.8964C1.93288 11.1648 1.49758 11.1648 1.22909 10.8964Z" fill="#272A30"/>
<path d="M10.7409 4.32984C10.8958 5.01457 10.9885 5.7115 10.9985 6.42538H10.994C10.994 6.50065 10.9955 6.57541 10.997 6.65001C11 6.79871 11.003 6.94675 10.994 7.09678C10.9538 7.88084 10.7795 8.63335 10.4353 9.3408C9.80956 10.625 8.79492 11.4361 7.43612 11.8011C6.22034 12.13 5.01798 12.0534 3.86925 11.5533C3.78742 11.5185 3.70708 11.4816 3.62823 11.4425L6.36502 8.70576C7.2148 8.60795 7.82698 8.1685 8.18257 7.34912C8.27854 7.12774 8.34787 6.90218 8.39724 6.67354L10.7409 4.32984Z" fill="#272A30"/>
<path d="M10.3018 2.82443C10.2913 2.79458 10.2807 2.76474 10.2699 2.73492C10.1911 2.51883 10.1079 2.30498 10.0249 2.09179C9.9902 2.00268 9.95556 1.91369 9.9213 1.8247C9.74251 1.37409 9.20614 1.0046 8.73235 1.00009C8.29878 1.00009 7.99484 1.27046 8.00825 1.71205C8.01719 2.03648 8.07976 2.36543 8.14681 2.68986C8.28113 3.34435 8.40629 3.99653 8.46828 4.65795L10.3018 2.82443Z" fill="#272A30"/>
<path d="M4.72303 8.40321C4.71106 8.39595 4.69912 8.38855 4.68722 8.38101C4.1732 8.05657 3.88266 7.56992 3.70834 7.00215C3.5072 6.33976 3.48932 5.65935 3.52955 4.97894C3.57669 4.14736 3.74464 3.33666 3.91207 2.52849C3.93516 2.41703 3.95824 2.30561 3.981 2.1942C4.01229 2.0455 4.02123 1.89229 4.02123 1.73908C4.01229 1.23891 3.65023 0.932501 3.15856 1.01812C2.6356 1.10824 2.27355 1.41014 2.07241 1.8968C1.73718 2.70338 1.45558 3.52799 1.26785 4.37963C1.02202 5.48361 0.910275 6.60112 1.08459 7.72763C1.22316 8.62433 1.5271 9.44894 2.08582 10.1699C2.21276 10.3353 2.34867 10.4897 2.49332 10.6329L4.72303 8.40321Z" fill="#272A30"/>
<path d="M18.9985 13.4254C18.9806 12.1502 18.699 10.929 18.2699 9.73493C18.1582 9.42851 18.0375 9.12661 17.9213 8.8247C17.7425 8.37409 17.2061 8.0046 16.7323 8.00009C16.2988 8.00009 15.9948 8.27046 16.0082 8.71205C16.0172 9.03649 16.0798 9.36543 16.1468 9.68987C16.3345 10.6046 16.5044 11.5148 16.5089 12.4521C16.5089 13.101 16.4463 13.7408 16.1826 14.3491C15.8071 15.2143 15.1456 15.6559 14.2203 15.719C13.6795 15.755 13.1565 15.6784 12.6872 15.381C12.1732 15.0566 11.8827 14.5699 11.7083 14.0022C11.5072 13.3398 11.4893 12.6594 11.5296 11.9789C11.5832 11.0327 11.7933 10.1134 11.981 9.1942C12.0123 9.0455 12.0212 8.89229 12.0212 8.73909C12.0123 8.23891 11.6502 7.9325 11.1586 8.01812C10.6356 8.10824 10.2736 8.41014 10.0724 8.8968C9.73718 9.70338 9.45558 10.528 9.26785 11.3796C9.02202 12.4836 8.91027 13.6011 9.08459 14.7276C9.22316 15.6244 9.5271 16.449 10.0858 17.1699C10.5596 17.7873 11.1586 18.2514 11.8693 18.5533C13.018 19.0535 14.2203 19.1301 15.4361 18.8011C16.7949 18.4361 17.8096 17.625 18.4353 16.3408C18.7795 15.6334 18.9538 14.8809 18.994 14.0968C19.0075 13.8715 18.994 13.6507 18.994 13.4254H18.9985Z" fill="#272A30"/>
</svg>
