<svg width="20" height="20" viewBox="0 0 20 20" fill="none" xmlns="http://www.w3.org/2000/svg">
<path d="M10.7709 2.10359C11.0394 2.37207 11.0394 2.80737 10.7709 3.07586L2.34683 11.4999C2.07834 11.7684 1.64304 11.7684 1.37456 11.4999C1.10607 11.2315 1.10607 10.7962 1.37456 10.5277L9.79864 2.10359C10.0671 1.8351 10.5024 1.8351 10.7709 2.10359Z" fill="#272A30"/>
<path d="M1.25906 8.6701C1.10415 7.98537 1.0115 7.28844 1.00149 6.57456H1.00596C1.00596 6.49929 1.00446 6.42452 1.00297 6.34993C0.999992 6.20123 0.997028 6.05319 1.00596 5.90316C1.04619 5.1191 1.22051 4.36659 1.56468 3.65914C2.19044 2.37492 3.20508 1.56383 4.56388 1.19884C5.77966 0.869896 6.98202 0.946499 8.13075 1.44667C8.21258 1.48143 8.29292 1.51834 8.37177 1.55739L5.63498 4.29418C4.7852 4.39199 4.17302 4.83144 3.81743 5.65082C3.72146 5.8722 3.65213 6.09775 3.60276 6.3264L1.25906 8.6701Z" fill="#272A30"/>
<path d="M1.69819 10.1755C1.70872 10.2054 1.71934 10.2352 1.73006 10.265C1.80886 10.4811 1.89212 10.695 1.97511 10.9082C2.0098 10.9973 2.04444 11.0862 2.0787 11.1752C2.25749 11.6258 2.79386 11.9953 3.26765 11.9998C3.70122 11.9998 4.00516 11.7295 3.99175 11.2879C3.98281 10.9635 3.92024 10.6345 3.85319 10.3101C3.71887 9.65559 3.59371 9.00341 3.53172 8.34198L1.69819 10.1755Z" fill="#272A30"/>
<path d="M7.27697 4.59673C7.28894 4.60399 7.30088 4.61139 7.31278 4.61893C7.8268 4.94337 8.11734 5.43002 8.29166 5.99778C8.4928 6.66017 8.51068 7.34059 8.47045 8.021C8.42331 8.85258 8.25536 9.66328 8.08793 10.4715C8.06484 10.5829 8.04176 10.6943 8.019 10.8057C7.98771 10.9544 7.97877 11.1076 7.97877 11.2609C7.98771 11.761 8.34977 12.0674 8.84144 11.9818C9.3644 11.8917 9.72645 11.5898 9.92759 11.1031C10.2628 10.2966 10.5444 9.47195 10.7321 8.62031C10.978 7.51632 11.0897 6.39882 10.9154 5.27231C10.7768 4.37561 10.4729 3.551 9.91418 2.83003C9.78724 2.66464 9.65133 2.51024 9.50668 2.36702L7.27697 4.59673Z" fill="#272A30"/>
<path d="M18.7709 9.10359C19.0394 9.37207 19.0394 9.80737 18.7709 10.0759L10.3468 18.4999C10.0783 18.7684 9.64304 18.7684 9.37456 18.4999C9.10607 18.2315 9.10607 17.7962 9.37456 17.5277L17.7986 9.10359C18.0671 8.8351 18.5024 8.8351 18.7709 9.10359Z" fill="#272A30"/>
<path d="M9.25906 15.6701C9.10415 14.9854 9.0115 14.2884 9.00149 13.5746H9.00596C9.00596 13.4993 9.00446 13.4245 9.00297 13.3499C8.99999 13.2012 8.99703 13.0532 9.00596 12.9032C9.04619 12.1191 9.22051 11.3666 9.56468 10.6591C10.1904 9.37492 11.2051 8.56383 12.5639 8.19884C13.7797 7.8699 14.982 7.9465 16.1307 8.44667C16.2126 8.48143 16.2929 8.51834 16.3718 8.55739L13.635 11.2942C12.7852 11.392 12.173 11.8314 11.8174 12.6508C11.7215 12.8722 11.6521 13.0978 11.6028 13.3264L9.25906 15.6701Z" fill="#272A30"/>
<path d="M9.69819 17.1755C9.70872 17.2054 9.71934 17.2352 9.73006 17.265C9.80886 17.4811 9.89212 17.695 9.97511 17.9082C10.0098 17.9973 10.0444 18.0862 10.0787 18.1752C10.2575 18.6258 10.7939 18.9953 11.2677 18.9998C11.7012 18.9998 12.0052 18.7295 11.9918 18.2879C11.9828 17.9635 11.9202 17.6345 11.8532 17.3101C11.7189 16.6556 11.5937 16.0034 11.5317 15.342L9.69819 17.1755Z" fill="#272A30"/>
<path d="M15.277 11.5967C15.2889 11.604 15.3009 11.6114 15.3128 11.6189C15.8268 11.9434 16.1173 12.43 16.2917 12.9978C16.4928 13.6602 16.5107 14.3406 16.4704 15.021C16.4233 15.8526 16.2554 16.6633 16.0879 17.4715C16.0648 17.5829 16.0418 17.6943 16.019 17.8057C15.9877 17.9544 15.9788 18.1076 15.9788 18.2609C15.9877 18.761 16.3498 19.0674 16.8414 18.9818C17.3644 18.8917 17.7264 18.5898 17.9276 18.1031C18.2628 17.2966 18.5444 16.472 18.7321 15.6203C18.978 14.5163 19.0897 13.3988 18.9154 12.2723C18.7768 11.3756 18.4729 10.551 17.9142 9.83003C17.7872 9.66464 17.6513 9.51024 17.5067 9.36702L15.277 11.5967Z" fill="#272A30"/>
</svg>
