<svg width="20" height="20" viewBox="0 0 20 20" fill="none" xmlns="http://www.w3.org/2000/svg">
<path d="M10.7709 2.10365C11.0394 2.37213 11.0394 2.80744 10.7709 3.07592L2.34683 11.5C2.07834 11.7685 1.64304 11.7685 1.37456 11.5C1.10607 11.2315 1.10607 10.7962 1.37456 10.5277L9.79864 2.10365C10.0671 1.83516 10.5024 1.83516 10.7709 2.10365Z" fill="#272A30"/>
<path d="M1.25906 8.67016C1.10415 7.98543 1.0115 7.2885 1.00149 6.57462H1.00596C1.00596 6.49935 1.00446 6.42459 1.00297 6.34999C0.999992 6.20129 0.997028 6.05325 1.00596 5.90322C1.04619 5.11916 1.22051 4.36665 1.56468 3.6592C2.19044 2.37498 3.20508 1.56389 4.56388 1.1989C5.77966 0.869957 6.98202 0.94656 8.13075 1.44673C8.21258 1.48149 8.29292 1.5184 8.37177 1.55745L5.63498 4.29424C4.7852 4.39205 4.17302 4.8315 3.81743 5.65088C3.72146 5.87226 3.65213 6.09782 3.60276 6.32646L1.25906 8.67016Z" fill="#272A30"/>
<path d="M1.69819 10.1756C1.70872 10.2054 1.71934 10.2353 1.73006 10.2651C1.80886 10.4812 1.89212 10.695 1.97511 10.9082C2.0098 10.9973 2.04444 11.0863 2.0787 11.1753C2.25749 11.6259 2.79386 11.9954 3.26765 11.9999C3.70122 11.9999 4.00516 11.7295 3.99175 11.288C3.98281 10.9635 3.92024 10.6346 3.85319 10.3101C3.71887 9.65565 3.59371 9.00347 3.53172 8.34205L1.69819 10.1756Z" fill="#272A30"/>
<path d="M7.27697 4.59679C7.28894 4.60405 7.30088 4.61145 7.31278 4.61899C7.8268 4.94343 8.11734 5.43008 8.29166 5.99785C8.4928 6.66024 8.51068 7.34065 8.47045 8.02106C8.42331 8.85264 8.25536 9.66334 8.08793 10.4715C8.06484 10.583 8.04176 10.6944 8.019 10.8058C7.98771 10.9545 7.97877 11.1077 7.97877 11.2609C7.98771 11.7611 8.34977 12.0675 8.84144 11.9819C9.3644 11.8918 9.72645 11.5899 9.92759 11.1032C10.2628 10.2966 10.5444 9.47201 10.7321 8.62037C10.978 7.51639 11.0897 6.39888 10.9154 5.27237C10.7768 4.37567 10.4729 3.55106 9.91418 2.83009C9.78724 2.6647 9.65133 2.51031 9.50668 2.36708L7.27697 4.59679Z" fill="#272A30"/>
<path d="M9.00149 13.5747C9.01937 14.8499 9.30096 16.0711 9.73006 17.2652C9.8418 17.5716 9.96249 17.8735 10.0787 18.1754C10.2575 18.626 10.7939 18.9955 11.2677 19C11.7012 19 12.0052 18.7296 11.9918 18.288C11.9828 17.9636 11.9202 17.6347 11.8532 17.3102C11.6655 16.3955 11.4956 15.4853 11.4911 14.548C11.4911 13.8991 11.5537 13.2593 11.8174 12.651C12.1929 11.7858 12.8544 11.3442 13.7797 11.2811C14.3205 11.2451 14.8435 11.3217 15.3128 11.6191C15.8268 11.9435 16.1173 12.4302 16.2917 12.9979C16.4928 13.6603 16.5107 14.3407 16.4704 15.0211C16.4168 15.9674 16.2067 16.8867 16.019 17.8059C15.9877 17.9546 15.9788 18.1078 15.9788 18.261C15.9877 18.7612 16.3498 19.0676 16.8414 18.982C17.3644 18.8919 17.7264 18.5899 17.9276 18.1033C18.2628 17.2967 18.5444 16.4721 18.7321 15.6205C18.978 14.5165 19.0897 13.399 18.9154 12.2724C18.7768 11.3757 18.4729 10.5511 17.9142 9.83016C17.4404 9.21283 16.8414 8.74871 16.1307 8.4468C14.982 7.94663 13.7797 7.87002 12.5639 8.19897C11.2051 8.56396 10.1904 9.37505 9.56468 10.6593C9.22051 11.3667 9.04619 12.1192 9.00596 12.9033C8.99255 13.1286 9.00596 13.3494 9.00596 13.5747H9.00149Z" fill="#272A30"/>
</svg>
