<svg width="20" height="20" viewBox="0 0 20 20" fill="none" xmlns="http://www.w3.org/2000/svg">
<path d="M9.22909 17.8964C8.96061 17.6279 8.96061 17.1926 9.22909 16.9241L17.6532 8.5C17.9217 8.23151 18.357 8.23151 18.6254 8.5C18.8939 8.76849 18.8939 9.20379 18.6254 9.47227L10.2014 17.8964C9.93288 18.1648 9.49758 18.1648 9.22909 17.8964Z" fill="#272A30"/>
<path d="M18.7409 11.3298C18.8958 12.0146 18.9885 12.7115 18.9985 13.4254H18.994C18.994 13.5006 18.9955 13.5754 18.997 13.65C19 13.7987 19.003 13.9467 18.994 14.0968C18.9538 14.8808 18.7795 15.6333 18.4353 16.3408C17.8096 17.625 16.7949 18.4361 15.4361 18.8011C14.2203 19.13 13.018 19.0534 11.8693 18.5533C11.7874 18.5185 11.7071 18.4816 11.6282 18.4425L14.365 15.7058C15.2148 15.608 15.827 15.1685 16.1826 14.3491C16.2785 14.1277 16.3479 13.9022 16.3972 13.6735L18.7409 11.3298Z" fill="#272A30"/>
<path d="M18.3018 9.82443C18.2913 9.79458 18.2807 9.76474 18.2699 9.73492C18.1911 9.51883 18.1079 9.30498 18.0249 9.09179C17.9902 9.00268 17.9556 8.91369 17.9213 8.8247C17.7425 8.37409 17.2061 8.0046 16.7323 8.00009C16.2988 8.00009 15.9948 8.27046 16.0082 8.71205C16.0172 9.03648 16.0798 9.36543 16.1468 9.68986C16.2811 10.3443 16.4063 10.9965 16.4683 11.658L18.3018 9.82443Z" fill="#272A30"/>
<path d="M12.723 15.4032C12.7111 15.3959 12.6991 15.3885 12.6872 15.381C12.1732 15.0566 11.8827 14.5699 11.7083 14.0022C11.5072 13.3398 11.4893 12.6594 11.5296 11.9789C11.5767 11.1474 11.7446 10.3367 11.9121 9.52849C11.9352 9.41703 11.9582 9.30561 11.981 9.1942C12.0123 9.0455 12.0212 8.89229 12.0212 8.73908C12.0123 8.23891 11.6502 7.9325 11.1586 8.01812C10.6356 8.10824 10.2736 8.41014 10.0724 8.8968C9.73718 9.70338 9.45558 10.528 9.26785 11.3796C9.02202 12.4836 8.91027 13.6011 9.08459 14.7276C9.22316 15.6243 9.5271 16.4489 10.0858 17.1699C10.2128 17.3353 10.3487 17.4897 10.4933 17.6329L12.723 15.4032Z" fill="#272A30"/>
<path d="M10.9985 6.4253C10.9806 5.15008 10.699 3.92894 10.2699 2.73483C10.1582 2.42842 10.0375 2.12652 9.9213 1.82461C9.74251 1.374 9.20614 1.00451 8.73235 1C8.29878 1 7.99484 1.27036 8.00825 1.71196C8.01718 2.03639 8.07976 2.36534 8.14681 2.68977C8.33454 3.6045 8.50439 4.51473 8.50886 5.45199C8.50886 6.10086 8.44628 6.74073 8.18257 7.34904C7.80711 8.21421 7.14558 8.6558 6.22034 8.71889C5.6795 8.75493 5.15654 8.67833 4.68722 8.38093C4.1732 8.05649 3.88266 7.56984 3.70834 7.00208C3.5072 6.33968 3.48932 5.65927 3.52955 4.97885C3.58319 4.03258 3.79327 3.11334 3.981 2.19411C4.01229 2.04541 4.02123 1.8922 4.02123 1.73899C4.01229 1.23882 3.65023 0.932409 3.15856 1.01802C2.6356 1.10815 2.27355 1.41005 2.07241 1.89671C1.73718 2.70329 1.45558 3.5279 1.26785 4.37955C1.02202 5.48353 0.910275 6.60104 1.08459 7.72755C1.22316 8.62426 1.5271 9.44887 2.08582 10.1698C2.55961 10.7872 3.15856 11.2513 3.86925 11.5532C5.01798 12.0534 6.22034 12.13 7.43612 11.801C8.79492 11.436 9.80956 10.625 10.4353 9.34072C10.7795 8.63327 10.9538 7.88076 10.994 7.0967C11.0075 6.8714 10.994 6.6506 10.994 6.4253H10.9985Z" fill="#272A30"/>
</svg>
