<svg width="20" height="20" viewBox="0 0 20 20" fill="none" xmlns="http://www.w3.org/2000/svg">
<path fill-rule="evenodd" clip-rule="evenodd" d="M10 17C13.866 17 17 13.866 17 10C17 6.13401 13.866 3 10 3C6.13401 3 3 6.13401 3 10C3 13.866 6.13401 17 10 17ZM10 19C14.9706 19 19 14.9706 19 10C19 5.02944 14.9706 1 10 1C5.02944 1 1 5.02944 1 10C1 14.9706 5.02944 19 10 19Z" fill="#272A30"/>
<path d="M10.1344 5.89557L8.0264 14.9027H5.94531L9.0097 3.9375H10.3095L10.1344 5.89557ZM11.798 14.9027L9.67646 5.89557L9.48114 3.9375H10.8012L13.8925 14.9027H11.798ZM11.872 10.8134V12.6434H7.4472V10.8134H11.872Z" fill="#272A30"/>
</svg>
