<svg width="20" height="20" viewBox="0 0 20 20" fill="none" xmlns="http://www.w3.org/2000/svg">
<path d="M9.14237 10.4468C8.82352 10.722 8.08886 11.2907 7.701 11.3641C7.55634 11.3915 7.37669 11.4573 7.19198 11.5422C7.18938 11.3125 7.16362 11.0884 7.11691 10.8721C7.16185 10.8462 7.20058 10.8186 7.22927 10.7875C7.25089 10.7641 7.27127 10.7434 7.29024 10.7241C7.40926 10.6033 7.47283 10.5387 7.43893 10.2109C7.39962 9.83092 7.41272 9.16261 7.55686 9.1233L9.81064 8.46809C10.575 8.45935 12.3344 8.33967 13.2568 7.93082C14.008 7.5979 14.4255 7.176 14.7268 6.87161C14.888 6.70874 15.0158 6.57952 15.1437 6.51557C15.2702 6.45231 15.3921 6.37036 15.5082 6.29228C15.7287 6.1439 15.9286 6.00948 16.1003 6.04382C16.1199 5.94772 16.1789 5.74112 16.2575 5.68346C16.3361 5.6258 16.4388 5.53713 16.4803 5.5C16.4715 5.66162 16.4462 6.0032 16.4148 6.07658C16.4519 6.03072 16.5445 5.92588 16.6179 5.87347C16.6912 5.82105 16.7969 5.68127 16.8406 5.61794C16.8319 5.79703 16.8026 6.16569 16.7554 6.20762C16.9389 6.34303 17.3412 6.69248 17.4827 7.00698C17.632 7.3388 17.884 7.53059 18.0141 7.62961C18.0382 7.6479 18.058 7.66303 18.0723 7.67529C18.1641 7.75391 18.3082 8.10773 18.0723 8.21256C18.0449 8.22475 18.0196 8.23668 17.9959 8.24787C17.8155 8.33286 17.7258 8.37513 17.4827 8.16669C17.2075 7.93082 16.7817 7.93082 16.5654 7.93082C16.3925 7.93082 16.2138 7.83035 16.1461 7.78012C15.9802 8.05749 15.6377 8.683 15.5958 8.96605C15.5758 9.10113 15.5806 9.28206 15.5855 9.46435C15.5933 9.7595 15.6013 10.0582 15.5041 10.1716C15.3915 10.303 15.8969 10.5317 16.2243 10.6799C16.3542 10.7387 16.4561 10.7848 16.4803 10.8072C16.5654 10.8858 16.6572 10.971 17.1944 11.482C17.3738 11.6527 17.5167 11.8008 17.6385 11.9269C17.8812 12.1784 18.0398 12.3426 18.2361 12.4255C18.2973 12.4514 18.3811 12.4798 18.4708 12.5102C18.8133 12.6262 19.2425 12.7716 18.8323 12.9169C18.8024 12.9276 18.7742 12.9377 18.7476 12.9472C18.3153 13.102 18.3112 13.1035 18.0396 12.7269C17.8167 12.418 17.5313 12.2539 17.3556 12.1529C17.3041 12.1233 17.262 12.0991 17.2337 12.0783C17.2111 12.0616 17.1753 12.0341 17.1301 11.9995C16.9266 11.8433 16.5327 11.541 16.2968 11.4231C16.1965 11.3729 15.9962 11.3354 15.762 11.2916C15.323 11.2095 14.7648 11.1051 14.5213 10.853C14.4711 11.0714 14.3221 11.558 14.1282 11.7572C14.0504 11.8371 14.0098 11.9332 13.9657 12.0372C13.8724 12.2575 13.7641 12.5133 13.2568 12.7269C12.9839 12.8418 12.76 12.9559 12.5742 13.0505C12.2515 13.2149 12.0438 13.3207 11.8941 13.2708C11.807 13.2417 11.6448 13.2583 11.4888 13.2742C11.2223 13.3013 10.9736 13.3267 11.1472 13.1201C11.2028 13.0539 11.2511 12.9939 11.2936 12.9411C11.4615 12.7328 11.5378 12.6381 11.6058 12.7269C11.6078 12.7295 11.6098 12.7321 11.6118 12.7348C11.699 12.8492 11.8713 13.0755 12.2937 12.8514C12.7262 12.6221 13.3224 12.2814 13.3682 12.0783C13.4141 11.8752 13.5386 11.1806 13.5451 11.0758C13.176 11.2331 12.0618 11.3484 10.5575 10.5517C10.4614 10.7569 10.1959 11.2069 9.90237 11.3641C9.53547 11.5607 9.59444 11.9538 9.81064 12.229C9.90364 12.3473 10.0669 12.4839 10.2301 12.6204C10.4464 12.8012 10.6625 12.9819 10.7148 13.1201C10.8065 13.3625 10.9572 13.5459 11.1472 13.6508C11.3372 13.7556 11.7565 14.1094 11.3699 14.1618C11.2358 14.18 11.1324 14.2156 11.0502 14.2439C10.8956 14.297 10.816 14.3244 10.7475 14.1618C10.7044 14.0594 10.6946 13.9659 10.6856 13.8808C10.6727 13.7589 10.6617 13.6543 10.5575 13.5656C10.5092 13.5244 10.4627 13.5057 10.4131 13.4857C10.2811 13.4326 10.126 13.3703 9.84995 12.8514C9.64826 12.4724 9.36167 12.3111 9.12438 12.1776C8.91461 12.0596 8.74337 11.9632 8.70341 11.7572C8.68435 11.659 8.79651 11.419 8.9138 11.168C9.05292 10.8702 9.19925 10.557 9.14237 10.4468Z" fill="#272A30"/>
<path fill-rule="evenodd" clip-rule="evenodd" d="M3.85039 13.8442C5.10037 13.8442 6.11374 12.8309 6.11374 11.5807C6.11374 10.3306 5.10037 9.3172 3.85039 9.3172C2.6004 9.3172 1.58703 10.3306 1.58703 11.5807C1.58703 12.8309 2.6004 13.8442 3.85039 13.8442ZM3.85039 14.4313C5.42461 14.4313 6.70077 13.155 6.70077 11.5807C6.70077 10.0064 5.42461 8.73016 3.85039 8.73016C2.27616 8.73016 1 10.0064 1 11.5807C1 13.155 2.27616 14.4313 3.85039 14.4313Z" fill="#272A30"/>
<ellipse cx="3.85041" cy="11.5807" rx="0.661323" ry="0.661361" fill="#272A30"/>
<path d="M11.5992 7.65561L5.9189 9.20518C5.62539 8.86971 5.72017 8.62641 5.7027 8.45169L11.5992 7.43939V7.65561Z" fill="#272A30"/>
</svg>
