<svg width="20" height="20" viewBox="0 0 20 20" fill="none" xmlns="http://www.w3.org/2000/svg">
<path d="M2.83123 10.0594C2.41104 11.4223 1.43533 12.454 1 12.7994C1.42114 12.6929 2.43233 12.3834 3.10804 11.9973C3.95268 11.5146 4.47082 10.7337 4.77603 9.80384C5.02019 9.05992 5.52603 8.78876 5.74842 8.74617C5.74842 8.76509 5.72429 8.87678 5.62776 9.17208C5.5071 9.5412 5.70584 10.2652 5.57098 10.9467C5.43612 11.6282 4.79732 11.3371 4.5276 12.48C4.25789 13.6228 3.75394 14.4321 3.39196 14.4605C3.02997 14.4889 2.9235 14.3753 2.79574 15.0567C2.66798 15.7382 3.61909 14.8935 3.92429 14.8154C4.2295 14.7373 4.5205 13.9991 4.56309 13.9068C4.60568 13.8145 5.05284 12.622 5.57098 12.2954C6.08912 11.9689 7.60804 11.1526 7.93454 10.8686C8.26104 10.5847 8.21136 10.2511 9.70899 10.5421C10.9071 10.7749 11.9732 10.412 12.3565 10.2014C12.3224 10.4569 12.877 10.4545 13.1585 10.4214C13.6506 10.3646 14.6675 10.2752 14.7981 10.3717C14.9614 10.4924 14.5781 11.0816 14.2374 11.5288C13.8967 11.976 13.7476 11.5004 13.4211 11.3797C13.0946 11.259 13.1159 11.5927 12.9385 11.9263C12.761 12.2599 13.1301 12.0186 13.9677 12.0328C14.8052 12.047 14.8904 11.4649 15.0465 11.2164C15.2027 10.968 15.5008 10.464 15.4724 10.1162C15.444 9.76835 14.9401 9.73286 14.6349 9.68317C14.3297 9.63348 13.9677 9.49861 13.9677 9.32115C13.9677 9.14368 14.5568 8.086 14.9401 7.48973C15.2467 7.01271 15.47 6.81774 15.5434 6.77988C15.638 6.88399 15.877 7.12345 16.0757 7.24838C16.3241 7.40455 17.041 7.6388 17.3604 7.85885C17.6798 8.0789 17.6869 8.14989 17.985 8.086C18.2831 8.02212 18.2334 7.6388 18.1625 7.48973C18.0915 7.34066 17.7579 7.08511 17.6372 6.58822C17.5407 6.1907 17.2279 5.68434 17.0836 5.48085C17.2199 5.40135 17.3249 5.0786 17.3604 4.92716C17.306 4.96029 17.1744 5.03364 17.0836 5.06204C16.9927 5.09043 16.8233 5.20637 16.75 5.26079L17.041 4.70001C16.9748 4.73314 16.8096 4.80933 16.679 4.84908C16.5484 4.88883 16.4495 5.04074 16.4164 5.11173C15.3162 4.92007 14.0599 5.19691 12.5978 6.25459C11.1356 7.31227 9.97161 7.60331 9.48896 7.6388C9.00631 7.67429 7.45189 7.44714 6.63565 7.92984C5.98265 8.316 5.62539 8.39361 5.52839 8.38414C4.80442 8.37468 3.25142 8.69648 2.83123 10.0594Z" fill="#272A30"/>
<path d="M6.90536 14.2822C6.90536 14.1203 7.02104 13.9815 7.18029 13.9523L18.6042 11.859C18.8102 11.8212 19 11.9794 19 12.1889C19 12.3508 18.8843 12.4896 18.7251 12.5187L7.30119 14.6121C7.09519 14.6498 6.90536 14.4916 6.90536 14.2822Z" fill="#272A30"/>
</svg>
