<svg width="20" height="20" viewBox="0 0 20 20" fill="none" xmlns="http://www.w3.org/2000/svg">
<path d="M2.25711 9.21729C1.76496 9.26006 1.21398 9.82328 1 10.0995C1.30536 10.055 2.0418 9.9926 2.54464 10.0995C3.17319 10.2332 4.74458 10.2599 5.3397 9.35765C5.8158 8.63581 6.30482 8.66031 6.48982 8.7628C6.33157 9.05242 6.13141 9.75733 6.59681 10.2599C7.17856 10.8882 7.2053 11.4095 7.02476 11.6702C6.84422 11.9309 6.77735 11.8774 6.76398 12.2784C6.7506 12.6795 7.96091 13.535 8.35542 13.8959C8.74994 14.2568 8.64295 14.2568 8.54934 14.5041C8.45573 14.7514 8.54265 14.8383 8.9238 15.0121C9.30494 15.1858 9.05753 14.7781 9.11771 14.5442C9.17789 14.3103 8.98398 13.7756 8.8235 13.662C8.66301 13.5483 7.9141 12.8532 7.70012 12.5591C7.52894 12.3239 7.77145 12.1626 7.9141 12.1113C7.84991 12.5124 8.18157 12.6928 8.35542 12.7329C8.88368 12.9958 9.95356 13.6312 10.0071 14.0697C10.0739 14.6177 10.2077 14.4907 10.6289 14.5041C11.0502 14.5175 10.6891 14.2568 10.5554 13.9895C10.4216 13.7221 10.2411 13.535 10.1608 13.4213C10.0967 13.3304 9.43868 12.8443 9.11771 12.6126C8.93271 12.5057 8.61487 12.2437 8.8235 12.0512C9.03212 11.8587 9.30271 11.3516 9.41193 11.1221C10.9098 12.2129 12.2961 11.991 12.8021 11.7437C12.8645 11.8774 12.9679 12.2463 12.8824 12.6527C12.7754 13.1607 12.3742 13.0136 12.0799 13.0136C11.7857 13.0136 11.4581 12.8733 11.3444 12.7998C11.2307 12.7262 10.9432 12.7998 10.8563 12.7329C10.7693 12.6661 10.6222 12.4322 10.4952 12.3921C10.3681 12.3519 10.1542 12.626 10.0071 12.7998C9.88936 12.9388 10.4618 13.0448 10.7627 13.0805C11.331 13.2587 12.5507 13.6138 12.8824 13.6085C13.214 13.6031 13.5911 12.9067 13.7383 12.5591C13.7806 12.753 13.8546 13.1714 13.8118 13.2944C13.7583 13.4481 12.3808 14.3972 12.0265 14.2568C11.7429 14.1445 11.6141 14.21 11.5851 14.2568C11.5049 14.4506 11.3671 14.8383 11.4581 14.8383C11.5718 14.8383 12.2003 14.6044 12.3407 14.5776C12.4811 14.5509 13.3036 14.1164 13.999 13.9293C14.6945 13.7422 14.534 13.1807 14.5273 13.0805C14.5206 12.9802 14.4671 11.4229 14.6677 11.2358C14.8683 11.0486 15.0622 10.6276 15.1024 10.4137C15.1345 10.2426 15.2762 9.90571 15.3431 9.75867L16.5333 8.41524C16.7406 8.18131 16.9145 8.37514 17.0816 8.48208C17.2488 8.58902 17.6166 8.38851 18.1448 8.60239C18.6731 8.81627 18.6196 8.82295 18.8804 8.60239C19.1412 8.38183 18.9071 7.96075 18.8202 7.93402C18.7506 7.91263 18.2607 7.4617 18.0245 7.23891C17.9763 6.95552 17.4739 6.62624 17.2287 6.49702C17.2421 6.40345 17.1552 6.15615 17.0816 6.096C17.0228 6.04787 16.8788 5.83979 16.8142 5.74176C16.7919 5.76181 16.754 5.82731 16.7807 5.9289C16.8075 6.0305 16.7696 6.15838 16.7473 6.20962C16.7205 6.12407 16.4018 5.86207 16.2458 5.74176C16.1388 5.87009 16.2904 6.27646 16.3795 6.4636C16.0318 6.43686 14.8282 7.21217 14.106 7.6934C13.3839 8.17463 11.1639 8.54892 9.58579 8.01422C8.00771 7.47952 7.55301 7.96075 6.96458 8.25483C6.37615 8.54892 4.66434 7.74687 3.83518 8.38851C3.00602 9.03014 2.87229 9.16382 2.25711 9.21729Z" fill="#272A30"/>
<path fill-rule="evenodd" clip-rule="evenodd" d="M4.42361 6.39085C4.42361 6.21359 4.56731 6.06989 4.74458 6.06989L6.67036 6.06989C6.84763 6.06989 6.99133 6.21359 6.99133 6.39085C6.99133 6.56811 6.84763 6.71181 6.67036 6.71181L4.74458 6.71181C4.56731 6.71181 4.42361 6.56811 4.42361 6.39085Z" fill="#272A30"/>
<path fill-rule="evenodd" clip-rule="evenodd" d="M2.71181 4.67906C2.71181 4.50179 2.85551 4.35809 3.03277 4.35809L6.67036 4.35809C6.84763 4.35809 6.99133 4.50179 6.99133 4.67906C6.99133 4.85632 6.84763 5.00002 6.67036 5.00002L3.03277 5.00002C2.85551 5.00002 2.71181 4.85632 2.71181 4.67906Z" fill="#272A30"/>
</svg>
