<svg width="20" height="20" viewBox="0 0 20 20" fill="none" xmlns="http://www.w3.org/2000/svg">
<path fill-rule="evenodd" clip-rule="evenodd" d="M14.6273 9.17085C14.6735 9.16894 14.7183 9.16704 14.7617 9.16514C15.3786 9.1382 15.8475 8.62791 15.8475 8.00844C15.8475 7.57622 15.7076 7.15014 15.3879 6.86042C14.2589 5.83727 12.0516 4.61254 10.4522 4.20883C10.1548 4.13376 9.84521 4.13376 9.54778 4.20883C7.94835 4.61254 5.7411 5.83727 4.61207 6.86042C4.29237 7.15014 4.15253 7.57622 4.15253 8.00844C4.15253 8.62791 4.62139 9.1382 5.23828 9.16514C5.28164 9.16704 5.32642 9.16894 5.37264 9.17084C5.35862 9.23966 5.35057 9.31102 5.34817 9.38312C5.33484 9.78312 5.32203 10.4318 5.32203 11.4476C5.32203 12.4635 5.33484 13.1121 5.34817 13.5121C5.34878 13.5304 5.34975 13.5486 5.35109 13.5667C5.22877 13.5715 5.12081 13.5762 5.02597 13.5807C4.63759 13.5992 4.26984 13.7769 4.19656 14.1599C4.17016 14.2979 4.15253 14.4675 4.15253 14.6742C4.15253 14.8809 4.17016 15.0504 4.19656 15.1884C4.26984 15.5715 4.63759 15.7491 5.02597 15.7676C5.74669 15.802 7.22533 15.8475 10 15.8475C12.7747 15.8475 14.2533 15.802 14.974 15.7676C15.3624 15.7491 15.7302 15.5715 15.8034 15.1884C15.8298 15.0504 15.8475 14.8809 15.8475 14.6742C15.8475 14.4675 15.8298 14.2979 15.8034 14.1599C15.7302 13.7769 15.3624 13.5992 14.974 13.5807C14.8792 13.5762 14.7712 13.5715 14.6488 13.5667C14.6502 13.5486 14.6511 13.5304 14.6517 13.5121C14.6651 13.1121 14.6779 12.4635 14.6779 11.4476C14.6779 10.4318 14.6651 9.78312 14.6517 9.38312C14.6493 9.31102 14.6413 9.23966 14.6273 9.17085ZM12.3789 9.23074C11.9993 9.23658 11.5842 9.24121 11.1314 9.24416C11.1378 9.28984 11.1418 9.33632 11.1433 9.38312C11.1567 9.78312 11.1695 10.4318 11.1695 11.4476C11.1695 12.4564 11.1569 13.103 11.1436 13.5037C11.5919 13.5059 11.9979 13.5095 12.3651 13.514L12.365 13.5121C12.3517 13.1121 12.3389 12.4635 12.3389 11.4476C12.3389 10.4318 12.3517 9.78312 12.365 9.38312C12.3667 9.33174 12.3713 9.28073 12.3789 9.23074ZM8.86853 9.24416C8.41577 9.24121 8.00063 9.23658 7.62103 9.23074C7.62859 9.28073 7.63317 9.33174 7.63489 9.38312C7.64822 9.78312 7.66102 10.4318 7.66102 11.4476C7.66102 12.4635 7.64822 13.1121 7.63489 13.5121L7.63482 13.514C8.00203 13.5095 8.40804 13.5059 8.85635 13.5037C8.84312 13.103 8.83049 12.4564 8.83049 11.4476C8.83049 10.4318 8.8433 9.78312 8.85663 9.38312C8.85819 9.33632 8.86213 9.28984 8.86853 9.24416ZM11.1695 7.0478C11.1695 7.69579 10.6459 8.22109 9.99999 8.22109C9.35409 8.22109 8.83049 7.69579 8.83049 7.0478C8.83049 6.39981 9.35409 5.87451 9.99999 5.87451C10.6459 5.87451 11.1695 6.39981 11.1695 7.0478Z" fill="#D46B00"/>
<path d="M11.1465 12.9531C11.1465 11.6715 11.1465 11.0307 11.5858 10.6325C12.0252 10.2344 12.7323 10.2344 14.1465 10.2344C15.5607 10.2344 16.2678 10.2344 16.7071 10.6325C17.1465 11.0307 17.1465 11.6715 17.1465 12.9531V14.7656C17.1465 16.0473 17.1465 16.6881 16.7071 17.0862C16.2678 17.4844 15.5607 17.4844 14.1465 17.4844C12.7323 17.4844 12.0252 17.4844 11.5858 17.0862C11.1465 16.6881 11.1465 16.0473 11.1465 14.7656V12.9531Z" fill="#B8CBCF"/>
<path d="M11.7465 12.8755C11.7465 13.0253 11.8569 13.1518 12.006 13.1654C12.1549 13.179 12.3507 13.1923 12.5465 13.1923C12.7423 13.1923 12.9381 13.179 13.087 13.1654C13.2361 13.1518 13.3465 13.0253 13.3465 12.8755V12.5109C13.3465 12.3604 13.235 12.2334 13.0851 12.2201C12.9365 12.2069 12.7415 12.1937 12.5465 12.1923C12.3499 12.191 12.1532 12.2044 12.0041 12.2183C11.8558 12.2322 11.7465 12.3583 11.7465 12.5073V12.8755Z" fill="#EEEFEE"/>
<path d="M11.7465 14.647C11.7465 14.8086 11.8739 14.9411 12.0354 14.9463C12.5335 14.9622 13.5571 14.9923 14.1465 14.9923C14.7359 14.9923 15.7595 14.9622 16.2576 14.9463C16.4191 14.9411 16.5465 14.8086 16.5465 14.647V14.3376C16.5465 14.176 16.4191 14.0435 16.2576 14.0383C15.7595 14.0225 14.7359 13.9923 14.1465 13.9923C13.5571 13.9923 12.5335 14.0225 12.0354 14.0383C11.8739 14.0435 11.7465 14.176 11.7465 14.3376V14.647Z" fill="#EEEFEE"/>
</svg>
