<svg width="20" height="20" viewBox="0 0 20 20" fill="none" xmlns="http://www.w3.org/2000/svg">
<path fill-rule="evenodd" clip-rule="evenodd" d="M16.6667 14.6425H3.33332C2.28166 14.6425 1.42832 13.79 1.42832 12.7375V6.07088C1.42832 5.01922 2.28166 4.16672 3.33332 4.16672H16.6667C17.7183 4.16672 18.5717 5.01922 18.5717 6.07172V12.7384C18.5717 13.7901 17.7183 14.6425 16.6667 14.6425ZM5.86781 16.8751C5.86781 16.4339 6.22546 16.0762 6.66666 16.0762H13.3333C13.7745 16.0762 14.1322 16.4339 14.1322 16.8751C14.1322 17.3162 13.7745 17.6739 13.3333 17.6739H6.66666C6.22546 17.6739 5.86781 17.3162 5.86781 16.8751ZM8.47619 12.31L12.2435 10.0145C12.6163 9.78734 12.6163 9.28666 12.2435 9.05951L8.47619 6.76402C8.05893 6.50977 7.50001 6.78316 7.50001 7.24151V11.8325C7.50001 12.2908 8.05893 12.5642 8.47619 12.31Z" fill="#E3C69B"/>
</svg>
