<svg width="20" height="20" viewBox="0 0 20 20" fill="none" xmlns="http://www.w3.org/2000/svg">
<path fill-rule="evenodd" clip-rule="evenodd" d="M8.05132 5.73966C10.9784 -0.203178 18.8727 1.12725 18.8727 1.12725C18.8727 1.12725 20.2033 9.02164 14.2603 11.9487C14.9698 16.5611 10.0027 17.6257 10.0027 17.6257C10.0027 17.6257 10.7934 15.0042 9.64883 12.6925L8.76098 12.8358L7.16419 11.2392L7.30752 10.3514C4.99585 9.20665 2.37452 9.99732 2.37452 9.99732C2.37452 9.99732 3.43893 5.03017 8.05132 5.73966ZM6.01008 11.1492C6.01008 11.1492 3.65637 12.7726 5.44195 14.5582C7.22752 16.3437 8.8509 13.99 8.8509 13.99C8.8509 13.99 8.28259 20.2397 1.2213 18.7786C-0.239526 11.7175 6.01008 11.1492 6.01008 11.1492Z" fill="#FFC900"/>
</svg>
