<svg width="20" height="20" viewBox="0 0 20 20" fill="none" xmlns="http://www.w3.org/2000/svg">
<path d="M18.4696 6.94367C18.0213 5.70021 17.303 4.57153 16.3665 3.63875C15.536 2.80577 14.5496 2.14456 13.4636 1.69288C11.8174 1.00844 10.005 0.828124 8.2562 1.17478C6.50739 1.52144 4.90086 2.37947 3.6402 3.64012C2.37954 4.90078 1.52152 6.50731 1.17486 8.25612C0.828201 10.0049 1.00852 11.8173 1.69295 13.4635L1.71036 13.5061C2.16165 14.5757 2.81663 15.5474 3.63883 16.367C4.57172 17.3037 5.70064 18.0219 6.94435 18.4701C7.94886 18.8331 9.01024 19.0133 10.0783 19.0023C14.9912 18.9651 18.9646 14.9918 19.0024 10.0788L19.003 10.0026C19.0048 8.95966 18.8242 7.92445 18.4696 6.94367Z" fill="#FFB800"/>
<path fill-rule="evenodd" clip-rule="evenodd" d="M17.2395 10.0026C17.2395 13.9994 13.9995 17.2394 10.0027 17.2394C6.00585 17.2394 2.76579 13.9994 2.76579 10.0026C2.76579 6.00574 6.00585 2.76569 10.0027 2.76569C13.9995 2.76569 17.2395 6.00574 17.2395 10.0026ZM7.58187 15.8365C8.35026 16.1494 9.17304 16.3069 10.0027 16.2998C11.6572 16.2858 13.2394 15.6193 14.4052 14.4451C15.571 13.2708 16.2261 11.6839 16.2282 10.0292C16.2303 8.37458 15.5791 6.78601 14.4162 5.60889C13.2533 4.43177 11.6728 3.76127 10.0183 3.74317C9.18866 3.7341 8.36549 3.88953 7.59633 4.20048C6.82716 4.51144 6.12725 4.97175 5.53704 5.55481C4.94683 6.13787 4.47802 6.83213 4.15773 7.59745C3.83743 8.36277 3.67198 9.18399 3.67095 10.0136C3.66992 10.8433 3.83332 11.6649 4.15172 12.431C4.47012 13.1971 4.93719 13.8925 5.52595 14.4771C6.11471 15.0616 6.81348 15.5236 7.58187 15.8365Z" fill="#C97F06"/>
<path d="M14.2412 12.6865C14.2052 12.8971 14.4836 13.0063 14.597 12.8251C15.2225 11.8268 15.5059 10.652 15.4045 9.47828C15.303 8.3046 14.8223 7.19585 14.0348 6.31964C13.9981 6.27897 13.9534 6.2462 13.9036 6.22334C13.8538 6.20048 13.7999 6.18799 13.7451 6.18664C13.6903 6.1853 13.6358 6.19512 13.5849 6.2155C13.5341 6.23589 13.4879 6.26642 13.4492 6.30523L12.1213 7.63728C11.4973 7.22027 10.1359 6.83445 10.0993 6.83025L10.2907 6.40184C10.3063 6.36683 10.3125 6.32838 10.3088 6.29024C10.305 6.25211 10.2915 6.21559 10.2694 6.18427C10.2473 6.15295 10.2175 6.12789 10.1828 6.11154C10.1482 6.0952 10.1099 6.08813 10.0717 6.09103L7.61158 6.27703C7.57725 6.27988 7.54432 6.2919 7.51624 6.31185C7.48816 6.33179 7.46596 6.35893 7.45197 6.3904C7.43798 6.42188 7.43272 6.45654 7.43673 6.49075C7.44074 6.52496 7.45388 6.55746 7.47477 6.58484L8.97903 8.53972C9.00243 8.57003 9.0333 8.59375 9.06861 8.60857C9.10392 8.62339 9.14247 8.6288 9.1805 8.62427C9.21853 8.61973 9.25473 8.60541 9.28556 8.5827C9.3164 8.56 9.34082 8.52968 9.35644 8.49472L9.49625 8.1809C9.76926 8.33931 10.1671 8.51152 10.7287 8.73532C13.1402 9.69056 14.5898 10.6278 14.243 12.6757L14.2412 12.6865ZM7.58518 12.1393C8.2452 12.5929 9.80226 13.0333 9.83046 13.0369L10.1155 13.1641L9.91926 13.6039C9.90371 13.6389 9.89749 13.6773 9.90119 13.7153C9.9049 13.7534 9.91841 13.7899 9.9404 13.8212C9.9624 13.8525 9.99214 13.8776 10.0267 13.894C10.0613 13.9103 10.0995 13.9175 10.1377 13.9147L12.5978 13.7287C12.6322 13.726 12.6654 13.7141 12.6936 13.6942C12.7219 13.6742 12.7442 13.647 12.7583 13.6154C12.7724 13.5838 12.7777 13.549 12.7736 13.5147C12.7695 13.4803 12.7562 13.4477 12.7352 13.4203L11.2303 11.466C11.207 11.4357 11.1761 11.4119 11.1408 11.3971C11.1056 11.3822 11.067 11.3767 11.029 11.3812C10.991 11.3857 10.9548 11.3999 10.9239 11.4226C10.893 11.4452 10.8686 11.4755 10.8529 11.5104L10.7209 11.808C10.4509 11.6562 10.0387 11.4858 9.43685 11.2344C7.19756 10.3086 5.5031 9.39415 5.88171 7.15847L5.88351 7.14587C5.92672 6.89806 5.6015 6.76785 5.4635 6.97786C4.84877 7.91898 4.54162 9.02783 4.58451 10.1511C4.6274 11.2744 5.01821 12.3566 5.70291 13.2481C5.73671 13.2918 5.77914 13.328 5.82757 13.3546C5.876 13.3811 5.92939 13.3974 5.98439 13.4024C6.0394 13.4074 6.09484 13.4011 6.14727 13.3837C6.1997 13.3663 6.24799 13.3383 6.28913 13.3015L7.58518 12.1393Z" fill="#C97F06"/>
</svg>
