<svg width="20" height="20" viewBox="0 0 20 20" fill="none" xmlns="http://www.w3.org/2000/svg">
<path d="M10 19C14.9706 19 19 14.9706 19 10C19 5.02944 14.9706 1 10 1C5.02944 1 1 5.02944 1 10C1 14.9706 5.02944 19 10 19Z" fill="white"/>
<path d="M10 18C14.4183 18 18 14.4183 18 10C18 5.58172 14.4183 2 10 2C5.58172 2 2 5.58172 2 10C2 14.4183 5.58172 18 10 18Z" fill="#922CCE"/>
<path d="M15.3534 8.42537C15.7547 7.62271 15.7707 6.81604 15.3974 6.21337C15.0587 5.66537 14.5907 5.35071 13.6867 5.35071H8.38137L7.62537 6.86404H12.8507C12.8507 7.11871 12.8174 7.37471 12.6294 7.74937C12.2134 8.58137 11.1414 9.31204 10.336 9.31204H6.40137L5.64537 10.824H5.6547L4.12537 13.884H7.5067L9.03603 10.824H10.024L11.5534 13.884H14.936L13.2227 10.4534C13.424 10.3587 13.6227 10.2467 13.816 10.1174C14.484 9.67204 15.0307 9.07071 15.3534 8.42537Z" fill="white"/>
</svg>
