<svg width="20" height="20" viewBox="0 0 20 20" fill="none" xmlns="http://www.w3.org/2000/svg">
<circle cx="10" cy="10" r="9" fill="white"/>
<circle cx="10" cy="10" r="8" fill="#FF3C00"/>
<path fill-rule="evenodd" clip-rule="evenodd" d="M13.942 6.09429C13.8933 6.03459 13.8205 6 13.7435 6H9.01778C8.89606 6 8.79137 6.08543 8.76654 6.20484L7.00541 14.6902C6.9896 14.7661 7.00889 14.8448 7.05754 14.9049C7.10619 14.965 7.17947 15 7.25664 15H8.51284C8.63456 15 8.73924 14.9144 8.76408 14.795L9.48515 11.3068H12.2779C12.4001 11.3068 12.5051 11.2205 12.5294 11.1005L12.7636 9.93943C12.7788 9.86388 12.7595 9.78544 12.7106 9.72554C12.662 9.66584 12.5891 9.63125 12.5121 9.63125H9.84785L10.2378 7.67553H13.5095C13.6316 7.67553 13.7367 7.58928 13.7609 7.46926L13.9949 6.30818C14.0101 6.23242 13.9908 6.15399 13.942 6.09429Z" fill="white"/>
</svg>
